<svg width="655" height="556" fill="none" xmlns="http://www.w3.org/2000/svg"><mask id="a" style="mask-type:luminance" maskUnits="userSpaceOnUse" x="-321" y="-98" width="3609" height="1027"><path d="M3287.32-98H-321V928.446h3608.32V-98z" fill="#fff"/></mask><g mask="url(#a)" stroke="#115DA9" stroke-width="2"><path d="M-298.437 505.995l-10.759-592.17h949.848l-10.759 593.147-463.571 398.446-464.759-399.423z"/><path d="M604.564 496.184l.355-.3V-50.633h-877.194v546.517l.355.3L90.173 801.677l.631-.748-.63.748 75.503 63.658.645.543.644-.543 75.504-63.658-.644-.764.645.764 362.093-305.493zM166.322 927.138L-320 516.861V-97h971.457v614.836L166.322 927.138z"/><path d="M149.709 177.828H87.285V49.688l158.608-.536v605.893l-79.035 81.602-79.142-81.602V591.08l5.23-1.91c13.044-4.763 26.405-9.642 36.968-13.744 6.078-2.36 11.249-4.471 14.907-6.158 1.825-.842 3.302-1.592 4.335-2.226.512-.315.952-.624 1.276-.923a2.77 2.77 0 00.45-.516 1.5 1.5 0 00.259-.816v-50.234H87.285v-91.348l5.454-1.992c12.973-4.737 26.241-9.582 36.743-13.648 6.077-2.353 11.247-4.453 14.904-6.125 1.824-.833 3.301-1.574 4.331-2.196.512-.308.951-.61 1.274-.9.162-.145.323-.313.451-.503.122-.182.267-.465.267-.819v-50.886H87.285V254.57l5.232-1.911c13.044-4.763 26.404-9.641 36.966-13.743 6.077-2.36 11.248-4.47 14.907-6.157 1.824-.842 3.302-1.592 4.334-2.226.512-.314.952-.623 1.277-.921.162-.15.323-.322.449-.516.122-.188.259-.469.259-.817v-50.451h-1zm-323.128 35.754V49.148h217.78l-217.78 164.434zm678.969 0L287.769 49.148H505.55v164.434z"/><path d="M150.709 196.471l95.184-41.742v72.536L87.285 297.201v-42.556l5.225-1.909c13.046-4.764 26.409-9.643 36.973-13.746 6.077-2.36 11.249-4.47 14.907-6.158 1.824-.842 3.302-1.592 4.334-2.226.512-.315.953-.623 1.277-.922.162-.15.323-.322.449-.516.122-.188.259-.469.259-.817v-31.88z"/><path d="M297.958 104.012v72.426L35.264 292.352v-72.426l262.694-115.914zM150.709 365.103l95.184-42.165v72.529L87.285 465.402v-42.23l5.383-1.967c12.996-4.745 26.293-9.601 36.814-13.675 6.077-2.353 11.247-4.453 14.904-6.125 1.825-.834 3.301-1.574 4.331-2.197.512-.308.951-.61 1.274-.9.162-.145.323-.313.451-.503a1.47 1.47 0 00.267-.819v-31.883z"/><path d="M297.958 272.213v72.534L35.264 460.661v-72.534l262.694-115.914zm-147.249 260.86l95.184-41.743v72.43L87.285 633.692v-42.445l5.225-1.909c13.046-4.764 26.409-9.643 36.973-13.745 6.077-2.361 11.249-4.471 14.907-6.159 1.824-.842 3.302-1.592 4.334-2.226.512-.314.953-.623 1.277-.922.162-.15.323-.322.449-.516.122-.188.259-.469.259-.817v-31.88z"/><path d="M297.958 440.614v72.424L35.264 628.952v-72.531l262.694-115.807z"/></g></svg>