<svg width="320" height="152" fill="none" xmlns="http://www.w3.org/2000/svg"><g clip-path="url(#clip0_137_805)"><mask id="a" style="mask-type:luminance" maskUnits="userSpaceOnUse" x="0" y="0" width="1206" height="343"><path d="M1205.24 0H0v342.149h1205.24V0z" fill="#fff"/></mask><g mask="url(#a)" stroke="#115DA9" stroke-width="2"><path d="M8.197 201.02L4.621 4.608h315.908l-3.575 196.738-154.18 132.249L8.197 201.02z"/><path d="M309.582 198.571l.356-.299V15.122H15.608v183.15l.357.299L136.91 300.403h0l25.22 21.219.644.542.643-.542 25.22-21.219h0l120.945-101.832zm-146.809 142.27L1 204.643V1h323.151v203.968L162.773 340.841z"/><path d="M157.225 91.276H137.04V49.894l51.646-.174v201.025l-25.734 26.514-25.768-26.515V230.16l1.307-.476c4.356-1.588 8.827-3.217 12.362-4.587 2.033-.787 3.776-1.497 5.017-2.069a15.261 15.261 0 001.517-.779c.186-.113.375-.242.53-.385.077-.071.174-.171.257-.299.079-.121.195-.342.195-.636v-17.411H137.04v-29.316l1.383-.504c4.332-1.579 8.771-3.196 12.285-4.554 2.032-.786 3.775-1.491 5.015-2.057.616-.281 1.136-.54 1.514-.767.184-.112.372-.237.526-.375.077-.069.174-.166.259-.292.078-.117.203-.342.203-.646v-17.628H137.04V117.99l1.309-.477c4.355-1.587 8.825-3.216 12.36-4.586 2.032-.787 3.776-1.497 5.017-2.068a15.48 15.48 0 001.517-.779c.185-.114.375-.243.529-.385.078-.071.174-.171.258-.299.079-.121.195-.342.195-.636V91.276h-1zM49.96 102.524V49.716h70.084L49.96 102.524zm225.455 0l-70.084-52.808h70.084v52.808z"/><path d="M158.225 98.593l30.461-13.33v22.724l-51.646 22.725v-12.697l1.307-.476c4.356-1.588 8.827-3.217 12.362-4.587 2.033-.788 3.776-1.497 5.017-2.069a15.48 15.48 0 001.517-.779c.186-.114.375-.243.53-.385.077-.071.174-.171.257-.299.079-.121.195-.343.195-.636v-10.19z"/><path d="M206.076 68.359v22.685l-86.412 38.052V106.41l86.412-38.051zm-47.851 86.443l30.461-13.466v22.718l-51.646 22.725v-12.588l1.359-.496c4.34-1.581 8.789-3.202 12.309-4.563 2.032-.785 3.775-1.491 5.015-2.057.616-.281 1.136-.54 1.514-.768.184-.111.372-.236.526-.374.077-.069.174-.166.259-.292.078-.117.203-.342.203-.646v-10.193z"/><path d="M206.076 124.426v22.721l-86.412 38.052v-22.721l86.412-38.052z"/></g></g><defs><clipPath id="clip0_137_805"><path fill="#fff" d="M0 0h326v342H0z"/></clipPath></defs></svg>