<svg width="896" height="284" fill="none" xmlns="http://www.w3.org/2000/svg"><path d="M891.95 176.209c-1.684 2.276-3.978 3.71-6.523 4.014a9.116 9.116 0 01-1.003.054h-44.872V89.136h36.288c2.957 0 5.519 1.2 7.437 3.118 2.061 2.06 3.405 4.982 3.799 8.19l7.472 63.866c.108.878.162 1.739.162 2.563 0 3.799-1.058 7.007-2.76 9.336zm-146.568 60.964h-4.838v-5.985h4.838v5.985zm-31.808-5.985h4.821v5.985h-4.821v-5.985zm25.68 5.985h-19.569v-5.985h19.569v5.985zm6.773-7.275h-33.098a.631.631 0 00-.645.645v7.275c0 .341.269.645.645.645h33.098a.654.654 0 00.646-.645v-7.275a.642.642 0 00-.646-.645zm-185.669 7.275h-4.838v-5.985h4.838v5.985zm-31.826-5.985h4.839v5.985h-4.839v-5.985zm25.68 5.985h-19.551v-5.985h19.551v5.985zm6.792-7.275h-33.117a.642.642 0 00-.645.645v7.275c0 .341.287.645.645.645h33.117c.34 0 .645-.304.645-.645v-7.275a.654.654 0 00-.645-.645zm30.338 10.949a190.837 190.837 0 00-.036 3.297c0 .556-.233 1.057-.609 1.434a2.004 2.004 0 01-1.434.591h-10.124v-11.218c1.666 0 3.243-.036 4.587-.054 3.978-.071 5.985-.107 6.863.52.843.609.807 2.204.753 5.43zm-7.634-7.24c-1.398.018-3.046.054-5.197.054h-.018a.643.643 0 00-.645.645v12.508c0 .376.287.645.645.645h10.77c.914 0 1.739-.376 2.348-.967.609-.61.985-1.434.985-2.348 0-1.38.018-2.383.036-3.261.072-3.692.108-5.484-1.272-6.487-1.237-.896-3.405-.861-7.652-.789zm238.784 7.867c0 6.81-2.777 12.974-7.24 17.436a24.59 24.59 0 01-17.454 7.222 24.614 24.614 0 01-17.436-7.222 24.565 24.565 0 01-7.204-17.436c0-6.81 2.742-12.974 7.204-17.436s10.645-7.24 17.436-7.24c6.828 0 12.992 2.778 17.454 7.24 4.463 4.462 7.24 10.626 7.24 17.436zm-65.677 24.658c.215-.126.484-.197.699-.341l.054-.035a9.39 9.39 0 002.903-3.369 9.396 9.396 0 001.093-4.355c0-1.434-.448-2.903-1.183-4.283h14.695c1.2 2.222 2.598 4.301 4.39 6.075 2.921 2.939 6.595 5.053 10.663 6.308h-33.314zm-28.475 0c.215-.126.502-.197.699-.341l.054-.035a9.43 9.43 0 002.921-3.369 9.604 9.604 0 001.075-4.355c0-1.434-.448-2.903-1.2-4.283h12.149c-.734 1.38-1.182 2.849-1.182 4.283a9.38 9.38 0 001.075 4.355 9.48 9.48 0 002.957 3.404c.215.144.483.215.716.341H728.34zm-34.281 0c.216-.126.502-.197.717-.341l.036-.035a9.43 9.43 0 002.921-3.369 9.38 9.38 0 001.075-4.355c0-1.434-.448-2.903-1.182-4.283h17.937c-.752 1.38-1.182 2.849-1.182 4.283 0 1.523.376 3.028 1.057 4.355a9.529 9.529 0 002.975 3.404c.215.144.484.215.717.341h-25.071zm-19.514 0v-12.383h6.738c-.735 1.38-1.183 2.849-1.183 4.283a9.38 9.38 0 001.075 4.355 9.48 9.48 0 002.957 3.404c.215.144.484.215.717.341h-10.304zm-13.387-.341l.036-.035a9.43 9.43 0 002.921-3.369 9.38 9.38 0 001.075-4.355c0-1.434-.448-2.903-1.182-4.283h9.246v12.383h-12.812c.233-.126.501-.197.716-.341zm-23.618.341v-12.383h10.125c-.735 1.38-1.183 2.849-1.183 4.283a9.38 9.38 0 001.075 4.355 9.48 9.48 0 002.957 3.404c.215.144.484.215.717.341H637.54zm-14.659-.341l.054-.035a9.618 9.618 0 002.921-3.369 9.363 9.363 0 001.057-4.355c0-1.434-.43-2.903-1.182-4.283h10.519v12.383h-14.068c.215-.126.484-.197.699-.341zm-33.492.341c.251-.126.519-.197.717-.341l.053-.035a9.43 9.43 0 002.921-3.369 9.604 9.604 0 001.075-4.355c0-1.434-.448-2.903-1.2-4.283h16.432c-.716 1.38-1.164 2.849-1.164 4.283a9.38 9.38 0 001.075 4.355 9.48 9.48 0 002.957 3.404c.215.144.484.215.716.341h-23.582zm-34.98 0c.233-.126.502-.197.717-.341l.036-.035a9.268 9.268 0 002.921-3.369 9.392 9.392 0 001.075-4.355c0-1.434-.448-2.903-1.183-4.283h18.637c-.717 1.38-1.165 2.849-1.165 4.283a9.38 9.38 0 001.075 4.355 9.319 9.319 0 002.957 3.404c.215.144.484.215.717.341h-25.787zm-31.629 0c.233-.126.502-.197.717-.341l.054-.035a9.618 9.618 0 002.921-3.369 9.588 9.588 0 001.057-4.355c0-1.434-.448-2.903-1.183-4.283h15.286c-.735 1.38-1.183 2.849-1.183 4.283 0 1.523.395 3.028 1.075 4.355a9.368 9.368 0 002.975 3.404c.197.144.466.215.699.341H522.78zm-24.317 0l9.139-12.383h2.401c-.735 1.38-1.183 2.849-1.183 4.283 0 1.523.395 3.028 1.076 4.355a9.365 9.365 0 002.974 3.404c.215.144.484.215.717.341h-15.124zm-23.278 0c-2.563 0-5.143-.412-7.598-1.201a24.234 24.234 0 01-6.541-3.243v-33.959h45.588v25.178l-9.784 13.225h-21.665zm-15.429-5.412c-4.48-3.548-7.222-8.082-8.459-12.867-1.165-4.623-.949-9.479.484-13.959 1.452-4.462 4.086-8.548 7.759-11.594 4.05-3.387 9.355-5.502 15.645-5.502 4.139 0 8.028 1.022 11.451 2.814a24.716 24.716 0 018.117 6.827h-34.352a.646.646 0 00-.645.663v33.618zm301.539-40.069h-64.01c.018-.126.018-.269.018-.376.018-.466.018-.95.018-1.327 0-3.136-.502-6.72-4.892-6.72H688.2v-7.293l73.095 7.831v7.885zm1.291-7.759l29.836 3.189a25.92 25.92 0 00-12.956 7.025c-4.695 4.713-7.616 11.2-7.616 18.368 0 3.942.95 7.652 2.527 10.985h-11.791v-39.567zm-265.915 8.064l9.963-1.846v7.329h-9.963v-5.483zm10.519-3.244h-.036l-11.254 2.079a.634.634 0 00-.52.627v4.982c-2.24-2.814-4.945-5.251-8.153-6.935-2.061-1.076-4.355-1.81-6.702-2.312l64.351-6.362-37.686 7.921zm97.968-5.484h-9.82v-7.365h9.82v7.365zm70.641 0h-69.35v-7.365h69.35v7.365zm11.11 8.423h-9.82v-7.114h9.82v7.114zm-13.923 1.29h18.009v4.767h-18.009v-4.767zm-12.096-8.422h14.909v7.132H660.89v-7.132zm-69.655 8.422h18.027v4.767h-18.027v-4.767zm4.103-8.422h9.82v7.132h-9.82v-7.132zm-8.279 6.72c-.018-.377-.018-.771-.018-1.291 0-2.526.377-5.429 3.602-5.429h3.423v7.132h-7.007v-.412zm22.848.412h-3.458v-7.132h15.733v7.132h-12.275zm13.566-7.132h36.126v7.132h-36.126v-7.132zm72.54 6.72l-.018.412H688.2v-7.132h4.229c3.243 0 3.602 2.903 3.602 5.429 0 .52 0 .932-.018 1.291zm-9.104-8.011h-9.82v-7.365h9.82v7.365zm-92.843-7.293v7.293h-3.423c-4.39 0-4.892 3.584-4.892 6.72 0 .377 0 .843.018 1.327v.376h-77.845v-1.774l48.779-10.25 37.363-3.692zm-81.877 48.814h11.613v3.817a4.139 4.139 0 01-1.237 2.975 4.173 4.173 0 01-2.975 1.236h-3.189a4.203 4.203 0 01-2.975-1.236l-.036-.018a4.281 4.281 0 01-1.201-2.957v-3.817zm5.986 12.383c-1.756 0-3.298-.52-4.57-1.398a8.062 8.062 0 01-2.562-2.939 8.21 8.21 0 01-.914-3.763c0-1.075.304-2.168.77-3.208v2.742c0 1.487.609 2.849 1.577 3.853l.036.036a5.505 5.505 0 003.889 1.63h3.189c1.524 0 2.886-.627 3.889-1.63a5.456 5.456 0 001.613-3.889v-3.548c.77 1.272 1.147 2.652 1.147 4.014a8.222 8.222 0 01-.914 3.763 8.034 8.034 0 01-2.527 2.903l-.036.036c-1.254.878-2.813 1.398-4.587 1.398zm25.625-12.383h11.63v3.817a4.142 4.142 0 01-1.236 2.975 4.173 4.173 0 01-2.975 1.236h-3.19a4.244 4.244 0 01-2.992-1.236l-.018-.018a4.219 4.219 0 01-1.219-2.957v-3.817zm6.004 12.383c-1.757 0-3.316-.52-4.57-1.398a8.074 8.074 0 01-2.563-2.939 8.238 8.238 0 01-.931-3.763c0-1.075.304-2.168.77-3.208v2.742c0 1.487.609 2.849 1.595 3.853l.036.036a5.503 5.503 0 003.888 1.63h3.19a5.507 5.507 0 003.889-1.63 5.46 5.46 0 001.613-3.889v-3.548c.77 1.29 1.147 2.652 1.147 4.014a8.018 8.018 0 01-.932 3.763 8.158 8.158 0 01-2.509 2.903l-.054.036c-1.254.878-2.795 1.398-4.569 1.398zm28.994-12.383h11.612v3.817a4.142 4.142 0 01-1.236 2.975 4.131 4.131 0 01-2.957 1.236h-3.19a4.21 4.21 0 01-2.992-1.236l-.036-.018a4.281 4.281 0 01-1.201-2.957v-3.817zm6.003 12.383c-1.774 0-3.315-.52-4.587-1.398a8.016 8.016 0 01-2.545-2.939 8.018 8.018 0 01-.932-3.763c0-1.075.305-2.168.771-3.208v2.742c0 1.487.609 2.849 1.577 3.853l.036.036a5.513 5.513 0 003.906 1.63h3.19a5.507 5.507 0 003.889-1.63c.985-1.004 1.612-2.366 1.612-3.889v-3.548c.753 1.272 1.147 2.652 1.147 4.014 0 1.326-.34 2.616-.932 3.763a8.022 8.022 0 01-2.526 2.903l-.036.036c-1.255.878-2.814 1.398-4.57 1.398zm26.773-12.383h11.63v3.817a4.154 4.154 0 01-1.255 2.975 4.14 4.14 0 01-2.974 1.236h-3.172a4.142 4.142 0 01-2.975-1.236l-.036-.018a4.222 4.222 0 01-1.218-2.957v-3.817zm6.003 12.383c-1.774 0-3.333-.52-4.588-1.398a8.232 8.232 0 01-2.562-2.939 8.21 8.21 0 01-.914-3.763c0-1.075.305-2.168.77-3.208v2.742c0 1.487.61 2.849 1.577 3.853l.036.036a5.517 5.517 0 003.907 1.63h3.172a5.44 5.44 0 003.888-1.63c1.004-1.004 1.631-2.366 1.631-3.889v-3.548c.753 1.272 1.147 2.652 1.147 4.014a8.239 8.239 0 01-.932 3.763c-.609 1.147-1.451 2.151-2.509 2.903l-.053.036c-1.255.878-2.814 1.398-4.57 1.398zm32.256-12.383h11.63v3.817a4.216 4.216 0 01-4.229 4.211h-3.172a4.215 4.215 0 01-2.993-1.236l-.018-.018a4.222 4.222 0 01-1.218-2.957v-3.817zm6.003 12.383c-1.756 0-3.315-.52-4.569-1.398a8.056 8.056 0 01-2.563-2.939 8.239 8.239 0 01-.932-3.763c0-1.075.305-2.168.771-3.208v2.742c0 1.487.609 2.849 1.577 3.853l.035.036a5.517 5.517 0 003.907 1.63h3.172a5.513 5.513 0 003.906-1.63c.986-1.004 1.613-2.366 1.613-3.889v-3.548c.753 1.272 1.147 2.652 1.147 4.014 0 1.326-.34 2.616-.932 3.763a8.139 8.139 0 01-2.509 2.903l-.053.036c-1.255.878-2.814 1.398-4.57 1.398zm27.633-12.383h11.612v3.817a4.213 4.213 0 01-1.237 2.975 4.21 4.21 0 01-2.992 1.236h-3.172a4.142 4.142 0 01-2.975-1.236l-.036-.018a4.206 4.206 0 01-1.2-2.957v-3.817zm5.985 12.383c-1.756 0-3.315-.52-4.587-1.398a8.176 8.176 0 01-2.545-2.939 8.018 8.018 0 01-.932-3.763c0-1.075.305-2.168.789-3.208v2.742c0 1.487.591 2.849 1.576 3.853l.036.036a5.444 5.444 0 003.889 1.63h3.172a5.482 5.482 0 003.906-1.63 5.456 5.456 0 001.613-3.889v-3.548c.771 1.272 1.147 2.652 1.147 4.014a8.018 8.018 0 01-.932 3.763 8.139 8.139 0 01-2.509 2.903l-.035.036c-1.273.878-2.814 1.398-4.588 1.398zm28.278-12.383h11.63v3.817a4.154 4.154 0 01-1.255 2.975 4.138 4.138 0 01-2.974 1.236h-3.172a4.215 4.215 0 01-2.993-1.236l-.018-.018a4.222 4.222 0 01-1.218-2.957v-3.817zm6.003 12.383c-1.774 0-3.333-.52-4.588-1.398a8.182 8.182 0 01-2.544-2.939 8.018 8.018 0 01-.932-3.763c0-1.075.305-2.168.771-3.208v2.742c0 1.487.609 2.849 1.577 3.853l.035.036a5.517 5.517 0 003.907 1.63h3.172a5.44 5.44 0 003.888-1.63c1.004-1.004 1.631-2.366 1.631-3.889v-3.548c.753 1.29 1.147 2.652 1.147 4.014 0 1.326-.34 2.616-.932 3.763-.609 1.147-1.451 2.151-2.509 2.903l-.053.036c-1.255.878-2.814 1.398-4.57 1.398zm22.472-12.383h11.63v3.817a4.213 4.213 0 01-1.237 2.975 4.213 4.213 0 01-2.992 1.236h-3.19a4.131 4.131 0 01-2.957-1.236l-.036-.018a4.222 4.222 0 01-1.218-2.957v-3.817zm6.003 12.383c-1.774 0-3.315-.52-4.588-1.398a8.182 8.182 0 01-2.544-2.939 8.006 8.006 0 01-.932-3.763c0-1.075.305-2.168.77-3.208v2.742c0 1.487.61 2.849 1.577 3.853l.054.036a5.433 5.433 0 003.871 1.63h3.19a5.513 5.513 0 003.906-1.63c.986-1.004 1.613-2.366 1.613-3.889v-3.548c.753 1.272 1.147 2.652 1.147 4.014a8.239 8.239 0 01-.932 3.763 7.976 7.976 0 01-2.509 2.903l-.036.036c-1.272.878-2.831 1.398-4.587 1.398zm7.15-13.673H507.924v-30.518h82.02v5.394c0 .358.305.663.663.663h19.3a.658.658 0 00.645-.663v-5.394h61.143v5.394c0 .358.287.663.645.663h19.3a.661.661 0 00.663-.663v-5.394h68.992v30.518h-1.935zm-71.805-48.904h-92.862v.018h-.107l-121.408 12.024c-.072 0-.126.072-.18.09-5.644.448-10.501 2.473-14.282 5.627-3.853 3.208-6.63 7.49-8.153 12.186-1.524 4.695-1.757 9.802-.502 14.676 1.398 5.394 4.587 10.465 9.927 14.336 0 0 .018 0 .018.018.018 0 .018 0 .018.018a25.441 25.441 0 007.168 3.602 25.897 25.897 0 007.993 1.272h322.613a25.877 25.877 0 0018.368-7.598 25.867 25.867 0 007.598-18.35c0-7.168-2.903-13.655-7.598-18.368-3.996-3.996-9.354-6.577-15.285-7.294-.09-.053-.162-.143-.269-.143l-38.672-4.139h-.017l-74.368-7.957v-.018zm127.429 37.919a17.09 17.09 0 01-5.018 12.132 17.114 17.114 0 01-12.168 5.035 17.059 17.059 0 01-12.131-5.035c-3.101-3.1-5.036-7.383-5.036-12.132s1.935-9.032 5.036-12.15c3.1-3.1 7.4-5.035 12.131-5.035 4.767 0 9.05 1.935 12.168 5.035a17.163 17.163 0 015.018 12.15zm-30.231-13.064a18.39 18.39 0 00-5.412 13.064 18.39 18.39 0 005.412 13.064c3.351 3.333 7.956 5.394 13.045 5.394 5.108 0 9.731-2.061 13.064-5.394 3.351-3.351 5.43-7.957 5.43-13.064s-2.079-9.713-5.43-13.064a18.357 18.357 0 00-13.064-5.412c-5.089 0-9.694 2.061-13.045 5.412zm-390.047 5.358c.34.825.502 1.739.502 2.652 0 .914-.162 1.81-.502 2.653-.842 2.096-2.778 3.763-5.824 3.763s-4.982-1.667-5.842-3.763a7.397 7.397 0 01-.484-2.653c0-.913.161-1.827.484-2.652.86-2.114 2.796-3.781 5.842-3.781s4.982 1.667 5.824 3.781zm-12.849-.484a8.554 8.554 0 00-.591 3.136c0 1.058.197 2.133.591 3.119 1.022 2.58 3.369 4.587 7.025 4.587s6.003-2.007 7.025-4.587a8.462 8.462 0 00.591-3.119 8.554 8.554 0 00-.591-3.136c-1.022-2.58-3.369-4.587-7.025-4.587s-6.003 2.007-7.025 4.587zm-35.822 14.211c.412-1.003 1.326-1.774 2.778-1.774 1.451 0 2.365.771 2.777 1.774.162.394.233.842.233 1.272 0 .448-.071.878-.233 1.273-.412 1.003-1.326 1.792-2.777 1.792-1.452 0-2.366-.789-2.778-1.792a3.744 3.744 0 01-.233-1.273c0-.43.09-.878.233-1.272zm2.778 5.627c2.061 0 3.387-1.147 3.96-2.598a4.576 4.576 0 00.341-1.757c0-.591-.108-1.182-.341-1.738-.573-1.469-1.899-2.598-3.96-2.598s-3.387 1.129-3.961 2.598a4.842 4.842 0 00-.34 1.738c0 .592.125 1.201.34 1.757.574 1.451 1.9 2.598 3.961 2.598zm-39.12-12.293c-.609 1.505-2.007 2.688-4.175 2.688-2.186 0-3.566-1.183-4.175-2.688a5.192 5.192 0 01-.359-1.9c0-.663.126-1.308.359-1.917.609-1.505 1.989-2.67 4.175-2.67 2.168 0 3.566 1.165 4.175 2.67a5.35 5.35 0 01.359 1.917c0 .663-.126 1.308-.359 1.9zm-4.175-7.777c-2.795 0-4.587 1.541-5.376 3.494a6.77 6.77 0 00-.448 2.383c0 .807.161 1.631.448 2.384.789 1.971 2.581 3.494 5.376 3.494 2.796 0 4.588-1.523 5.376-3.494a6.771 6.771 0 00.448-2.384 6.77 6.77 0 00-.448-2.383c-.788-1.953-2.58-3.494-5.376-3.494zm-198.482-2.348c-.412 1.039-1.362 1.828-2.849 1.828-1.505 0-2.455-.789-2.849-1.828-.18-.412-.251-.86-.251-1.326 0-.448.071-.896.251-1.308.394-1.022 1.344-1.828 2.849-1.828 1.487 0 2.437.806 2.849 1.828.179.412.251.86.251 1.308a3.3 3.3 0 01-.251 1.326zm1.201.466c.233-.556.34-1.183.34-1.792a4.66 4.66 0 00-.34-1.774c-.592-1.488-1.936-2.67-4.05-2.67-2.097 0-3.459 1.182-4.05 2.67a4.727 4.727 0 00-.34 1.774c0 .609.107 1.236.34 1.792.591 1.505 1.953 2.652 4.05 2.652 2.114 0 3.458-1.147 4.05-2.652zm-95.55-66.035c-.394 1.003-1.326 1.774-2.777 1.774-1.434 0-2.366-.771-2.76-1.774a3.362 3.362 0 010-2.545c.394-1.003 1.326-1.774 2.76-1.774 1.451 0 2.383.771 2.777 1.774.162.394.233.824.233 1.272 0 .448-.071.878-.233 1.273zm1.201-3.029c-.591-1.451-1.918-2.598-3.978-2.598-2.061 0-3.37 1.147-3.96 2.598a4.938 4.938 0 00-.341 1.756c0 .592.125 1.183.34 1.757.592 1.451 1.9 2.598 3.96 2.598 2.061 0 3.388-1.147 3.979-2.616a4.825 4.825 0 00.322-1.739c0-.591-.107-1.2-.322-1.756zm291.72-133.844c.609-1.506 1.989-2.67 4.157-2.67s3.548 1.165 4.14 2.67a4.81 4.81 0 01.358 1.881c0 .663-.107 1.308-.358 1.9-.592 1.505-1.972 2.67-4.14 2.67-2.168 0-3.548-1.165-4.157-2.67a5.175 5.175 0 01-.341-1.9c0-.645.108-1.29.341-1.881zm4.157 7.741c2.778 0 4.57-1.523 5.34-3.476a6.388 6.388 0 00.448-2.384c0-.806-.143-1.612-.448-2.365-.77-1.953-2.562-3.476-5.34-3.476-2.777 0-4.569 1.523-5.34 3.476a6.297 6.297 0 00-.448 2.365c0 .807.143 1.631.448 2.384.771 1.953 2.563 3.476 5.34 3.476zM131.64 149.706c-.448 1.021-1.254 1.881-2.329 2.508a8.165 8.165 0 01-1.756.717l-37.077 10.071c-1.989.466-3.727-.161-4.982-1.308-.663-.609-1.182-1.398-1.523-2.24a5.499 5.499 0 01-.322-2.688c.197-1.684 1.254-3.387 3.44-4.534 5.86-3.297 24.569-14.479 29.568-16.146 6.577-3.691 8.906-1.756 11.254 2.402.484.896.95 1.792 1.451 2.759.574 1.111 1.183 2.312 1.846 3.531l.036.035c.287.502.502 1.022.645 1.542.323 1.182.215 2.347-.251 3.351zm.717-5.556h-.018c-.681-1.236-1.272-2.401-1.828-3.494a89.45 89.45 0 00-1.487-2.795c-2.724-4.875-5.43-7.151-12.992-2.904l-29.55 16.146c-2.616 1.38-3.87 3.423-4.122 5.52-.143 1.111.036 2.258.412 3.279a7.728 7.728 0 001.846 2.742c1.541 1.433 3.71 2.186 6.147 1.613l37.13-10.089a8.397 8.397 0 002.061-.843c1.308-.752 2.294-1.845 2.867-3.1.573-1.272.699-2.706.305-4.211a7.784 7.784 0 00-.771-1.864zm403.756 3.136c-1.093 1.506-3.674 2.653-7.742 2.653s-6.63-1.147-7.723-2.653l-.018-.035c-.377-.52-.556-1.076-.556-1.613 0-.574.197-1.129.574-1.649 1.093-1.505 3.655-2.67 7.723-2.67s6.649 1.165 7.742 2.67c.376.52.555 1.093.555 1.649 0 .555-.179 1.129-.555 1.648zm1.039-4.067c-1.326-1.792-4.265-3.208-8.781-3.208-4.516 0-7.455 1.416-8.763 3.208-.555.77-.824 1.594-.824 2.419 0 .806.269 1.613.788 2.365l.036.054c1.308 1.792 4.247 3.19 8.763 3.19s7.455-1.398 8.781-3.208c.556-.753.824-1.577.824-2.401 0-.842-.268-1.667-.824-2.419zm128.773.358a4.215 4.215 0 01-1.236 2.993 4.215 4.215 0 01-2.993 1.236h-13.798a4.213 4.213 0 01-2.993-1.236l-.036-.018a4.325 4.325 0 01-1.201-2.975v-19.336c0-1.164.484-2.222 1.237-2.992a4.226 4.226 0 012.993-1.255h13.798c1.165 0 2.222.484 2.993 1.255l.018.036a4.186 4.186 0 011.218 2.956v19.336zm-.322-23.242a5.574 5.574 0 00-3.907-1.613h-13.798a5.605 5.605 0 00-3.907 1.613 5.494 5.494 0 00-1.613 3.906v19.336c0 1.505.609 2.885 1.577 3.871l.036.036a5.532 5.532 0 003.907 1.612h13.798a5.502 5.502 0 003.907-1.612 5.578 5.578 0 001.612-3.907v-19.336a5.501 5.501 0 00-1.595-3.87l-.017-.036zm82.575 18.852h-10.43c.986-.753 1.703-1.81 1.703-3.638 0-.484.018-.896.036-1.326 0-.556.018-1.165.018-1.649 0-2.186-.341-4.372-1.721-5.716h10.394v12.329zm-18.727-12.329h5.072c3.279 0 3.691 2.956 3.691 5.716 0 .627-.018 1.129-.018 1.613-.017.52-.035 1.003-.035 1.362 0 2.76-2.133 3.476-4.588 3.638h-4.122v-12.329zm19.372-1.291h-20.017a.658.658 0 00-.663.646v13.619c0 .358.305.645.663.645h.018c.556 0 1.04.018 1.559.036.645.018 1.308.036 1.882.036.394 0 .753-.054 1.147-.072h15.411c.34 0 .645-.287.645-.645v-13.619a.655.655 0 00-.645-.646zm10.394 13.62v-12.329h10.357c-1.344 1.344-1.72 3.53-1.72 5.716 0 .484.036 1.093.036 1.649.018.43.036.842.036 1.326 0 1.828.717 2.885 1.702 3.638h-10.411zm18.708-12.329v12.329h-4.157c-2.42-.162-4.552-.878-4.552-3.638 0-.359-.018-.842-.018-1.362a40.78 40.78 0 01-.036-1.613c0-2.76.412-5.716 3.692-5.716h5.071zm.645-1.291h-20.016a.643.643 0 00-.646.646v13.619c0 .358.287.645.646.645h15.393c.394.018.77.072 1.165.072.555 0 1.236-.018 1.881-.036.52-.018 1.004-.036 1.577-.036a.642.642 0 00.645-.645v-13.619a.642.642 0 00-.645-.646zm-80.281 63.186h-45.714v-7.186h45.714v7.186zm-4.982 6.021l-2.294-.233-.484-2.813a.628.628 0 00-.591-.538l-4.767-.448a.622.622 0 00-.681.448l-.86 2.85h-4.57l-.896-3.118a.666.666 0 00-.627-.484h-5.071a.671.671 0 00-.645.519l-.878 2.993h-4.57l-.878-3.046a.69.69 0 00-.627-.466h-5.054a.673.673 0 00-.645.519l-.878 2.993h-4.569l-.879-3.046a.672.672 0 00-.627-.466h-5.053a.651.651 0 00-.627.519l-.878 2.993h-4.588l-.878-3.046c-.09-.269-.341-.466-.609-.466h-5.072a.653.653 0 00-.627.519l-.878 2.993h-4.57l-.896-3.046a.65.65 0 00-.609-.466h-5.071c-.305 0-.556.233-.627.519l-.878 2.993h-4.57l-.896-3.046a.651.651 0 00-.609-.466h-5.072c-.304 0-.555.233-.627.519l-.878 2.993h-4.57l-.896-3.046a.633.633 0 00-.609-.466h-5.053a.671.671 0 00-.645.519l-.879 2.993h-4.569l-.807-2.795a.644.644 0 00-.698-.448l-5.251.483a.667.667 0 00-.573.52l-.52 2.652-2.204.144v-4.445h112.878v4.713zm2.114 1.488c.287.036.556-.144.663-.43l1.004-2.67 3.763.358.484 2.831c.054.269.287.502.573.52l5.036.484a.68.68 0 00.663-.412l.986-2.688 3.781.358.484 2.814a.627.627 0 00.555.537l5.036.484a.68.68 0 00.663-.412l1.003-2.688 3.763.358.466 2.832a.65.65 0 00.592.519l5.017.484c.287.018.556-.125.663-.412l1.004-2.688 3.763.358.484 2.832a.63.63 0 00.573.519l5.018.484a.64.64 0 00.663-.412l1.003-2.688 3.782.358.465 2.832a.686.686 0 00.592.537l5 .466c.304.018.573-.125.68-.412l.986-2.688 3.781.359.484 2.813c.036.287.269.502.573.538l5.018.483a.64.64 0 00.663-.412l1.004-2.688 3.763.359.484 2.831a.61.61 0 00.573.52l5.018.484c.286.018.573-.126.663-.413l1.003-2.688 3.763.359.484 2.831a.648.648 0 00.574.52l5.035.484c.269.036.538-.144.645-.412l1.022-2.688 3.781.358.376 2.742a.649.649 0 00.574.573l5.017.609a.631.631 0 00.663-.412l1.129-2.777 1.559.161h.054c.359.036.717.072 1.039.09l.538.071.108 2.993a.664.664 0 00.519.609l4.91 1.075a.626.626 0 00.717-.322l1.362-2.634c.394.125.753.268 1.129.394.341.125.699.287 1.057.43l-.806 3.028a.616.616 0 00.305.717l4.318 2.509a.63.63 0 00.825-.072l2.419-2.401c.304.197.609.43.932.663.322.233.627.448.914.681l-1.631 2.831a.653.653 0 00.072.825l3.566 3.566c.215.197.537.251.788.089l3.029-1.738c.233.287.465.556.698.842l.646.861-2.276 2.275a.651.651 0 00-.108.771l2.491 4.337c.143.268.448.43.753.34l3.261-.86c.161.322.305.681.466 1.021.143.359.287.717.43 1.058l-2.509 1.451a.663.663 0 00-.358.753l1.308 4.838c.054.305.323.52.627.52h3.029c.071.43.143.86.197 1.29.054.394.107.842.143 1.272l-2.419.663a.651.651 0 00-.538.628v5.053c0 .287.198.538.484.627l2.473.645c-.053.466-.107.914-.161 1.344-.054.466-.125.896-.197 1.344h-2.545a.633.633 0 00-.627.484l-1.308 4.857a.663.663 0 00.305.734l2.15 1.237c-.143.376-.305.752-.466 1.147-.161.358-.323.734-.484 1.111l-2.867-.753a.616.616 0 00-.717.287l-2.491 4.336a.633.633 0 00.072.825l1.989 1.989-.681.914c-.251.286-.484.591-.735.896l-2.526-1.47a.652.652 0 00-.825.072l-3.584 3.566a.647.647 0 00-.089.789l1.415 2.455c-.304.233-.609.483-.931.698-.323.251-.646.484-.968.699l-2.079-2.078a.65.65 0 00-.77-.108l-4.355 2.509a.687.687 0 00-.322.753l.734 2.67c-.394.161-.788.322-1.165.466-.376.143-.77.304-1.164.43l-1.38-2.384a.628.628 0 00-.735-.322l-4.856 1.29a.637.637 0 00-.502.627v2.563c-.394.036-.771.089-1.147.125h-.036c-.394.054-.824.09-1.236.126l-.681-2.581a.656.656 0 00-.627-.484h-5a.652.652 0 00-.663.484l-.717 2.652h-3.799l-.717-2.634a.65.65 0 00-.627-.502h-5.107a.629.629 0 00-.609.484l-.735 2.652h-4.713l-.717-2.634a.651.651 0 00-.627-.502h-5.107a.65.65 0 00-.627.484l-.717 2.652h-4.713l-.717-2.634a.657.657 0 00-.645-.502h-5.107a.668.668 0 00-.628.484l-.716 2.652h-4.713l-.717-2.634a.652.652 0 00-.627-.502h-5.108a.651.651 0 00-.627.484l-.717 2.652h-4.712l-.717-2.634a.652.652 0 00-.627-.502h-5.108a.651.651 0 00-.627.484l-.717 2.652h-4.713l-.734-2.634a.637.637 0 00-.628-.502h-5.107a.668.668 0 00-.627.484l-.717 2.652h-4.713l-.717-2.634a.65.65 0 00-.627-.502h-5.125a.646.646 0 00-.609.484l-.717 2.652h-4.713l-.735-2.634a.63.63 0 00-.609-.502h-5.125a.666.666 0 00-.627.484l-.717 2.652h-4.713l-.717-2.634a.65.65 0 00-.627-.502h-5.107a.666.666 0 00-.627.484l-.717 2.652h-4.713l-.717-2.634a.651.651 0 00-.627-.502h-5.125a.631.631 0 00-.61.484l-.716 2.652h-4.731l-.717-2.634a.652.652 0 00-.627-.502h-5.107a.668.668 0 00-.628.484l-.716 2.652h-4.713l-.717-2.634a.652.652 0 00-.627-.502h-5.108a.651.651 0 00-.627.484l-.717 2.652h-4.713l-.716-2.634a.673.673 0 00-.645-.502h-5.108a.668.668 0 00-.627.484l-.699 2.652h-4.731l-.716-2.634a.652.652 0 00-.628-.502h-5.107a.65.65 0 00-.627.484l-.717 2.652h-4.713l-.717-2.616c-.071-.287-.322-.52-.627-.52h-5.125a.646.646 0 00-.609.484l-.735 2.652h-4.659l-.717-2.616c-.072-.287-.322-.52-.627-.52h-5.107a.65.65 0 00-.627.484l-.735 2.652h-4.659l-.717-2.616c-.072-.287-.323-.52-.627-.52h-5.108a.651.651 0 00-.627.484l-.717 2.652h-4.695l-.698-2.634a.652.652 0 00-.628-.502h-5.125a.63.63 0 00-.609.484l-.735 2.652h-4.677l-.699-2.634a.65.65 0 00-.627-.502h-5.125a.645.645 0 00-.609.484l-.735 2.652h-4.659l-.717-2.616c-.072-.287-.323-.52-.627-.52h-5.125a.631.631 0 00-.61.484l-.734 2.652h-4.678l-.698-2.616a.673.673 0 00-.646-.52h-5.107a.646.646 0 00-.609.484l-.735 2.652h-4.659l-.735-2.634a.63.63 0 00-.609-.502h-5.107a.65.65 0 00-.627.484l-.735 2.652h-4.677l-.717-2.634a.637.637 0 00-.627-.502h-5.107a.631.631 0 00-.61.484l-.734 2.652h-4.678l-.698-2.616c-.072-.287-.323-.52-.628-.52h-5.125a.63.63 0 00-.609.484l-.735 2.652h-4.032l-.717-2.634a.65.65 0 00-.627-.502h-5.107a.666.666 0 00-.627.484l-.717 2.652h-3.871l-.699-2.616a.65.65 0 00-.627-.52h-5.053a.666.666 0 00-.627.484l-.681 2.563a14.337 14.337 0 01-1.237-.108c-.376-.036-.77-.072-1.183-.125v-2.563a.63.63 0 00-.465-.609l-4.875-1.308a.664.664 0 00-.734.286l-1.38 2.42c-.394-.126-.789-.287-1.183-.43-.376-.144-.753-.305-1.147-.466l.717-2.67c.072-.287-.036-.592-.305-.735l-4.318-2.491a.632.632 0 00-.825.072l-2.078 2.078a15.965 15.965 0 01-.968-.699c-.305-.232-.627-.465-.932-.698l1.398-2.42a.632.632 0 00-.072-.824l-3.566-3.566a.623.623 0 00-.771-.09l-2.58 1.488c-.251-.305-.502-.61-.735-.896-.233-.287-.448-.592-.699-.914l2.007-1.989a.677.677 0 00.108-.789l-2.509-4.336a.673.673 0 00-.752-.341l-2.832.771c-.179-.377-.34-.735-.52-1.111-.143-.377-.304-.771-.448-1.147l2.115-1.219a.642.642 0 00.323-.752l-1.291-4.821a.65.65 0 00-.627-.52h-2.562c-.072-.448-.126-.878-.198-1.344-.053-.43-.107-.878-.161-1.344l2.437-.645a.633.633 0 00.52-.627v-5.053a.674.674 0 00-.466-.628l-2.491-.663c.054-.43.108-.86.161-1.254v-.018c.054-.43.126-.86.198-1.29h3.028a.666.666 0 00.627-.484l1.291-4.874a.66.66 0 00-.305-.735l-2.545-1.469c.126-.341.269-.699.43-1.058.144-.34.305-.699.466-1.021l3.244.86a.657.657 0 00.734-.305l2.509-4.318a.674.674 0 00-.089-.825l-2.276-2.275.645-.861.699-.842 2.975 1.703c.25.197.609.161.824-.054l3.566-3.566a.677.677 0 00.107-.789l-1.666-2.867c.305-.233.609-.448.932-.681.304-.233.627-.466.932-.663l2.419 2.401a.65.65 0 00.77.108l4.355-2.509a.663.663 0 00.322-.753l-.824-3.028c.359-.143.717-.305 1.075-.43.377-.126.735-.269 1.111-.394l1.362 2.616a.65.65 0 00.717.358l4.91-1.093a.65.65 0 00.52-.609l.125-2.993 3.19-.322 1.111 2.759a.63.63 0 00.681.43l5.018-.609c.268-.036.519-.251.555-.537l.394-2.778 3.782-.358.985 2.652c.09.286.376.484.681.448l5-.484a.597.597 0 00.591-.52l.484-2.831 3.763-.359 1.004 2.653a.612.612 0 00.663.448l4.999-.466a.65.65 0 00.61-.538l.466-2.831 3.781-.359.985 2.652c.09.287.377.484.681.448l4.982-.465a.648.648 0 00.609-.556l.484-2.813 3.763-.359.986 2.652a.678.678 0 00.681.448l5-.466c.286-.017.555-.233.591-.537l.484-2.832 3.763-.358.986 2.652c.107.287.376.484.681.448l4.999-.484c.287-.018.556-.233.61-.519l.465-2.832 3.782-.358.985 2.652c.09.287.359.484.663.448l5-.466a.665.665 0 00.609-.537l.466-2.832 3.781-.358.986 2.652c.089.287.358.466.681.448l4.999-.484a.63.63 0 00.61-.537l.466-2.814 3.763-.358.985 2.652a.679.679 0 00.681.448l5-.484c.287-.018.556-.215.591-.52l.484-2.831 3.781-.358.825 2.347c.071.269.34.466.645.448l5.017-.34a.63.63 0 00.61-.52l.519-2.67 4.265-.412.789 2.706a.652.652 0 00.627.519h5.537a.668.668 0 00.628-.466l.878-3.046h4.103l.878 2.993a.653.653 0 00.628.519h5.537a.614.614 0 00.609-.466l.896-3.046h4.104l.878 2.993a.652.652 0 00.627.519h5.537c.269 0 .52-.179.61-.466l.896-3.046h4.103l.878 2.993a.653.653 0 00.628.519h5.537a.629.629 0 00.609-.466l.896-3.046h4.104l.878 2.993a.638.638 0 00.627.519h5.519a.651.651 0 00.628-.466l.896-3.046h4.085l.879 2.993c.071.286.322.519.627.519h5.555c.269 0 .52-.179.609-.466l.896-3.046h4.086l.878 2.993c.072.286.323.519.627.519h5.538a.65.65 0 00.627-.466l.878-3.046h4.121l.896 3.118c.09.269.341.484.628.484l5.501.018a.671.671 0 00.663-.466l.842-2.831 3.764.376.483 2.831a.614.614 0 00.574.52l5.017.484zm-119.974-14.695h75.837v7.186h-75.837v-7.186zm-67.791-18.762h330.606v17.472H507.656v-17.472zm-38.654-68.616l11.218-13.905 28.816 23.26c-1.076 7.867-1.864 15.07-2.312 21.145l-37.722-30.5zm-10.823-11.916c0-.018.017.018.035 0l8.118-10.053 1.541-1.918 11.362 9.175-11.236 13.906-11.379-9.193 1.559-1.917zm-5.896-5.627l5.25-6.487 1.452-1.774.627-.789 5.322 4.301-7.347 9.05-5.304-4.301zm-30.195-39.317c.036-.412.089-.824.089-1.236a9.86 9.86 0 00-2.365-6.416 9.945 9.945 0 00-5.95-3.386 12.204 12.204 0 00-1.612-.126 9.867 9.867 0 00-7.043 2.921 9.914 9.914 0 00-2.903 7.025c0 1.344.269 2.598.717 3.745a9.793 9.793 0 003.691 4.498 9.857 9.857 0 005.538 1.702c1.093 0 2.204-.25 3.297-.645l6.541 5.358c-3.065 2.061-6.434 2.993-9.731 2.993-2.813 0-5.555-.681-8.028-1.9a18.062 18.062 0 01-6.344-5.286c-2.096-2.831-3.387-6.397-3.387-10.465 0-4.874 1.972-9.283 5.161-12.49a17.59 17.59 0 0112.491-5.162c2.67 0 5.161.574 7.365 1.578a17.868 17.868 0 017.49 6.558c1.792 2.832 2.796 6.129 2.796 9.552 0 2.168-.412 4.372-1.273 6.54l-6.54-5.358zm-9.749-6.845a4.891 4.891 0 00-2.706.645 5.428 5.428 0 00-1.63 1.362 5.547 5.547 0 00-1.04 1.882 5.194 5.194 0 00-.233 1.38c-.054 1.397.502 2.849 1.936 4.013l5.752 4.713a8.2 8.2 0 01-2.168.287 8.835 8.835 0 01-4.839-1.47c-1.398-.95-2.544-2.311-3.19-3.924-.412-.985-.627-2.096-.627-3.261 0-2.384.968-4.552 2.527-6.129a8.638 8.638 0 016.129-2.527c.483 0 .949.036 1.397.108 2.079.34 3.889 1.434 5.179 2.939a8.665 8.665 0 012.061 5.59v.252l-5.663-4.624c-.932-.77-1.935-1.146-2.885-1.236zm40.302 43.653l-29.084-23.834-7.419-6.075-6.648-5.447c-.358-.305-.645-.61-.86-.95a3.406 3.406 0 01-.61-2.043c.018-.358.072-.699.18-1.021.161-.538.448-1.022.788-1.452.359-.43.789-.806 1.272-1.075.61-.323 1.273-.502 1.99-.448.716.054 1.451.34 2.168.914l6.577 5.412h.017l7.455 6.11 29.102 23.834-1.165 1.452-3.763 4.623zm-54.154 3.53c-17.185 1.739-33.743 4.928-49.065 10.197l-206.385 64.924a1.153 1.153 0 01-.143.054c-2.132 1.254-3.082 2.974-3.96 4.533-.448.825-.878 1.613-1.452 2.187-2.15 1.953-4.731 2.293-7.777 2.688-.735.089-1.505.179-2.168.286l-38.116 4.803c-2.76.305-5.125-.43-6.917-1.792-1.452-1.093-2.545-2.581-3.208-4.229a10.03 10.03 0 01-.591-5.287c.358-2.222 1.54-4.39 3.673-6.021l32.561-23.565c4.265-2.741 6.72-2.096 9.318-1.415 2.832.752 5.86 1.559 11.182-1.219l134.096-62.128 48.24-22.347c3.369-1.415 6.989-2.956 10.501-4.444 31.02-13.189 51.861-22.041 86.267-21.576 20.931.287 38.403 2.724 55.051 8.1 16.54 5.358 32.274 13.655 49.799 25.68-2.401 10.34-4.713 21.755-6.702 33.062a656.448 656.448 0 00-1.989 11.917l-24.156-8.333-18.368-14.838a.648.648 0 00-.896.09l-1.541 1.917-5.824-4.713a.618.618 0 00-.896.108l-.645.77-28.744-23.564c1.021-2.437 1.559-4.928 1.559-7.365 0-3.674-1.093-7.222-3.011-10.233-1.917-3.01-4.677-5.501-8.046-7.042-2.365-1.093-5.035-1.703-7.884-1.703a18.85 18.85 0 00-13.405 5.555 18.867 18.867 0 00-5.537 13.387c0 4.354 1.38 8.171 3.656 11.236a19.185 19.185 0 006.792 5.662 19.231 19.231 0 008.601 2.043c3.656 0 7.383-1.11 10.734-3.458l28.744 23.547-.771.95c-17.776-.449-35.499-.144-52.577 1.576zm-103.398 66.107c-.448-.77-.574-1.416-.52-1.989.054-.609.323-1.201.663-1.792.412-.699 1.398-.914 2.634-.86 1.362.036 2.993.412 4.462.806l19.838 5.52a6.375 6.375 0 012.939 1.648c.806.789 1.505 1.864 2.043 3.298 0 .017.017.071.035.089l4.785 12.078c-.018.036-.054.072-.054.108-.054.286.126.537.359.645l.286.752c.197.466.323.95.377 1.38.125.878 0 1.649-.359 2.276-.34.609-.932 1.111-1.738 1.416a6.919 6.919 0 01-1.236.304l-6.004.377c-1.344.071-2.132.089-2.813-.072-.663-.179-1.326-.591-2.401-1.344l-17.204-13.046-6.092-11.594zm10.716-16.97c.681 2.294.752 4.426.233 6.379-.538 1.954-1.685 3.728-3.477 5.358l-20.877-13.386 24.121 1.649zm1.183 7.347l15.536 4.588 2.742 6.899c-.878-.663-1.792-1.183-2.76-1.416-6.075-1.523-12.633-3.405-18.726-5.215 1.523-1.487 2.598-3.1 3.208-4.856zm.125-7.042l12.221 3.601 2.581 6.505-14.569-4.3c.376-1.828.287-3.764-.233-5.806zm85.837 34.675c3.781 6.343 5.645 14.443 5.394 24.693-.197 7.634-2.437 7.652-5.108 7.688h-.143c-2.043.018-4.337-.537-6.218-1.433-1.738-.843-3.118-1.954-3.602-3.172l-.663-1.649c-3.942-9.928-5.502-13.834-17.472-18.744-8.799-3.584-19.784-5.161-27.615-6.272-1.613-.251-3.028-.448-4.283-.645l-4.784-12.025c-.018-.107-.072-.197-.108-.286l-.018-.036-7.437-18.727 55.373 16.308c7.294 3.351 12.938 7.974 16.684 14.3zm.95 55.588c-.054 2.186.25 5.393.949 8.314.538 2.33 1.326 4.462 2.366 5.842v.018c1.182 2.24 1.451 4.534 1.021 6.613-.376 1.935-1.344 3.673-2.67 5.071a10.33 10.33 0 01-4.964 2.885c-2.061.52-4.372.359-6.648-.735-.179-.107-.376-.071-.538.018l-15.178 5.036-34.46-86.805c1.129.18 2.24.341 3.548.538 7.777 1.111 18.691 2.67 27.31 6.2 11.487 4.677 12.974 8.459 16.791 18.028l.663 1.649c.61 1.541 2.204 2.885 4.229 3.834 2.061.986 4.552 1.595 6.792 1.559h.125c1.577 0 3.029-.053 4.158-.985-.251 1.29-.52 2.616-.806 4.032-1.183 5.716-2.545 12.293-2.688 18.888zm-36.629 53.007a7.913 7.913 0 00-2.168-2.204l-3.029-2.115 16.11-14.264 13.01-4.319-23.923 22.902zm-.251 6.612c-.394 1.255-1.111 2.402-2.132 3.262-1.147.967-2.652 1.595-4.462 1.595a6.776 6.776 0 01-2.491-.466 7.084 7.084 0 01-2.187-1.344l-35.051-32.095a.604.604 0 00-.717-.107 9.687 9.687 0 01-4.426 1.057 9.955 9.955 0 01-5.251-1.505 9.928 9.928 0 01-3.691-3.997c-.663-1.308-1.04-2.813-1.04-4.462a9.957 9.957 0 012.904-7.042c1.809-1.792 4.282-2.921 7.042-2.921.878 0 1.72.125 2.509.322a9.891 9.891 0 015.358 3.548 9.904 9.904 0 011.774 8.602.62.62 0 00.251.681l38.958 27.113c1.469 1.021 2.383 2.401 2.76 3.853.34 1.308.268 2.652-.108 3.906zm-115.673-19.98l.734-4.624 87.36 14.462 6.326 5.788-94.42-15.626zm-8.96.591l1.577-9.802 7.365 1.182-.413 2.563-.949 5.896-.215 1.326-7.365-1.165zm-15.465.322l.233-1.505 2.078-12.884.269-1.703 13.763 2.204-.466 2.921-1.093 6.738-1.022 6.434-13.762-2.205zm-108.416-20.339a11.48 11.48 0 002.365-1.738l8.996-8.1 97.986 16.2-1.863 11.612-107.484-17.974zm-7.778-.967l-62.02-28.189 85.065 14.068-13.78 12.418c-1.326 1.273-2.849 2.097-4.462 2.366-1.541.286-3.19.071-4.803-.663zm141.443 11.2l-7.992-1.291.465-2.921a.657.657 0 00-.537-.734l-15.035-2.402a.637.637 0 00-.735.52l-.269 1.685-96.965-16.021 4.283-3.889 190.311 31.486 12.006 10.985-85.425-14.121.43-2.563c.036-.358-.197-.681-.537-.734zm97.969 3.852c.465 1.577 1.433 2.886 2.705 3.889l-6.899-.968 1.022-18.601 3.458 1.201-.645 11.809c-.018.95.108 1.846.359 2.67zm-2.294 4.498l9.157 1.273c.107.018.179-.036.251-.054.43.054.806.197 1.236.197 1.255.036 2.581-.143 3.943-.556l12.633-4.193-14.085 12.473-13.135-9.14zm-3.871-88.56l33.027 83.238-14.928 4.964c-1.236.358-2.437.52-3.548.502-1.774-.054-3.351-.592-4.587-1.47a6.504 6.504 0 01-2.563-3.548 7.137 7.137 0 01-.305-2.276l.681-12.239c0-.072-.018-.161-.036-.251l-23.367-66.609c.806.52 1.451.896 2.114 1.076.861.233 1.739.215 3.19.107l6.093-.376a7.068 7.068 0 001.559-.377c1.093-.43 1.899-1.111 2.401-1.989.126-.233.179-.501.269-.752zm-312.4 12.06c0-7.401 1.882-11.702 5.538-14.551 3.727-2.885 9.354-4.373 16.701-6.075l36.342-8.44c-1.398 1.577-2.419 3.333-2.724 5.232-.322 2.007-.071 4.068.663 5.95.753 1.881 1.99 3.566 3.62 4.784 2.061 1.559 4.731 2.402 7.85 2.061l38.169-4.802a25.4 25.4 0 011.666-.233l206.313 71.948-1.021 18.422-18.189-12.651c.179-.807.251-1.613.251-2.402 0-2.526-.86-4.946-2.348-6.863a11.204 11.204 0 00-6.057-3.996 11.457 11.457 0 00-2.831-.376c-3.1 0-5.914 1.272-7.938 3.315a11.156 11.156 0 00-2.115 12.974 11.295 11.295 0 004.157 4.534c1.774 1.075 3.817 1.684 5.932 1.684a11.12 11.12 0 004.587-1.003l3.799 3.476L21.576 204.29v-24.622zM1.309 164.436a8.952 8.952 0 011.416-4.516c.842-1.326 1.989-2.437 3.333-3.19 1.326-.752 2.85-1.182 4.39-1.129l31.97 2.455c-6.935 1.631-12.365 3.154-16.093 6.039-3.996 3.118-6.039 7.724-6.039 15.573v22.615l-17.669-32.74c-.985-1.72-1.38-3.476-1.308-5.107zm144.704-66.86l2.581 5.484-119.509 52.685-11.97-.932 128.898-57.237zm14.408-12.382l7.49 15.106-15.769 7.294-2.097-4.462-5.197-11.075 15.573-6.863zm112.125-33.278L169.093 99.763l-7.49-15.09 127.5-56.196c-2.383 1.63-4.426 3.297-6.218 5.197-3.423 3.655-5.967 8.064-8.673 14.318l-1.667 3.924zm-137.679 70.748c-4.91 2.545-7.67 1.81-10.286 1.129-2.885-.77-5.609-1.487-10.358 1.595L81.68 148.917l-35.105 8.154-14.766-1.129 117.34-51.717 2.097 4.498a.629.629 0 00.86.304l119.67-55.337-3.047 7.06c-44.746 20.465-89.94 40.41-133.862 61.914zM337.631 17.832c2.688.054 5.429.108 8.046.108h23.475c-13.207 3.817-26.056 9.264-41.395 15.77-3.226 1.361-6.577 2.795-10.483 4.444-15.501 7.383-31.127 14.64-46.807 21.808l4.945-11.469c2.635-6.11 5.108-10.411 8.423-13.923 3.315-3.53 7.49-6.308 13.529-9.39l.018-.018c13.476-7.796 25.966-7.563 40.249-7.33zm171.602 84.224l-19.748-15.93 21.02 7.24a727.732 727.732 0 00-1.272 8.69zm16.737-74.941c2.545-8.297 4.892-13.673 8.834-17.185 3.943-3.495 9.552-5.197 18.619-6.129 9.014-.95 27.095-1.828 49.549-1.63 16.092.143 34.424.86 53.276 2.526v5.09a295.647 295.647 0 00-18.153-1.398c-6.272-.305-12.615-.484-19.049-.646l-.018.018c-.017 0-.017-.018-.035-.018h-19.712c-3.799.27-8.978.359-14.766.466-8.996.18-19.426.377-28.314 1.237-3.942.394-7.401.968-10.412 1.917-3.046.968-5.662 2.312-7.866 4.247-5 4.39-9.641 19.193-13.423 36.61-5.716 26.2-9.587 58.456-9.891 69.853v30.876c0 2.581.089 4.964 1.093 6.792.322.573.77 1.075 1.29 1.505.054.036.072.072.125.09.072.071.162.125.251.179h-9.712v-30.213c.322-11.738 2.813-31.073 6.308-50.929 3.422-19.497 7.813-39.478 12.006-53.258zM657.539 4.948c4.533 1.362 7.759 3.566 9.963 6.559 2.33 3.171 3.53 7.24 3.96 12.15v.017l4.803 64.835c0 11.325-.842 17.526-2.814 20.877-1.792 3.028-4.677 3.673-8.852 3.727V70.625l-3.423-39.657c-.448-5.018-.86-8.889-1.415-12.15-.556-3.226-1.237-5.86-2.222-8.44v-5.43zm55.946 76.787h11.827v6.11h-11.827v-6.11zm-4.516-25.823h21.755v24.533h-21.755V55.912zm.251-3.87l.054-.018c3.01-2.115 6.791-3.172 10.572-3.172 3.781 0 7.563 1.057 10.591 3.172a15.076 15.076 0 012.867 2.58h-26.898a15.29 15.29 0 012.814-2.562zm31.252 25.661c0-2.724 1.129-5.215 2.921-7.025 1.81-1.792 4.301-2.92 7.025-2.92h15.68v19.909h-25.626v-9.964zm33.977-17.526c0-1.72.716-3.297 1.845-4.444a6.36 6.36 0 014.462-1.846h7.383v6.129l-1.111-.018c-2.723-.018-4.121-.036-4.981.753-.914.842-.896 2.311-.896 5.286v.43h-6.702v-6.29zm64.422 10.501a9.918 9.918 0 012.921 7.025v9.964h-25.626v-19.91h15.68a9.962 9.962 0 017.025 2.921zm-84.529 18.458h10.788v12.042c0 .359.287.645.627.645h61.072a.642.642 0 00.645-.645V89.136h10.788v72.379h-83.92V89.136zm67.2 0h4.642v11.397h-4.642V89.136zm-55.139 0h4.641v11.397h-4.641V89.136zm5.931 0h4.175v11.397h-4.175V89.136zm5.466 0h4.175v11.397H777.8V89.136zm5.483 0h4.176v11.397h-4.176V89.136zm5.448 0h4.193v11.397h-4.193V89.136zm5.483 0h4.176v11.397h-4.176V89.136zm5.448 0h4.193v11.397h-4.193V89.136zm5.484 0h4.175v11.397h-4.175V89.136zm5.465 0h4.176v11.397h-4.176V89.136zm5.466 0h4.175v11.397h-4.175V89.136zm-42.274-21.379h41.073v19.91h-47.488v-19.91h6.415zM656.41 11.094c.896 2.42 1.559 4.91 2.078 7.939.538 3.208.95 7.043 1.398 12.06l3.423 39.64v42.38h-31.665c-4.946 0-8.476-1.738-10.859-4.426-2.903-3.262-4.122-7.939-4.122-12.508l-2.688-77.791 5.394-9.336c6.29.143 12.49.322 18.655.609 6.128.304 12.239.753 18.386 1.433zm-50.123 6.9h-6.272v-8.96h6.272v8.96zm-6.272 1.29h6.272v80.622h-6.272V19.284zm-1.308 73.346h-73.741c.287-1.953.538-3.87.861-5.841 2.921-18.512 7.114-37.866 10.393-50.338h.018c1.595-6.684 3.978-10.967 7.455-13.583l.036-.018c3.494-2.616 8.153-3.566 14.336-3.566h40.642V92.63zm-28.672 43.958h-35.266c-4.14 0-7.24-.985-9.283-2.975-2.061-1.989-3.136-5.053-3.208-9.175-.197-8.099.861-18.959 2.491-30.517h73.938v29.89l-28.672 12.777zm-53.204 22.526c-.86-1.542-.932-3.764-.932-6.165v-30.858c.305-11.343 4.157-43.474 9.856-69.601 3.745-17.186 8.261-31.737 13.01-35.912 2.079-1.81 4.516-3.082 7.419-3.978 2.921-.932 6.308-1.488 10.142-1.864 8.853-.878 19.246-1.075 28.206-1.236 5.52-.108 10.466-.198 14.175-.43v8.924h-40.642c-6.452 0-11.362 1.021-15.107 3.817l-.036.035c-3.727 2.796-6.254 7.312-7.938 14.283-3.298 12.49-7.491 31.88-10.448 50.462-.34 2.223-.645 4.39-.949 6.577-.018.036-.054.054-.054.107 0 .018.036.036.036.036-1.685 11.792-2.778 22.884-2.599 31.145.108 4.498 1.308 7.849 3.62 10.089 2.312 2.24 5.699 3.333 10.179 3.333h32.363l-49.656 22.078a3.756 3.756 0 01-.645-.842zm5.483 2.401c-1.577 0-2.742-.233-3.638-.681l80.031-35.607v36.288h-76.393zm77.701-60.319h6.272v60.319h-6.272v-60.319zm7.545 60.319V9.034h10.322l-5.108 8.87a.451.451 0 00-.089.34l2.688 77.935c0 4.856 1.308 9.838 4.444 13.368 2.616 2.939 6.469 4.856 11.827 4.856h32.292l.018.018h.018c4.982-.018 8.368-.663 10.573-4.372.716-1.183 1.254-2.724 1.72-4.624v56.09H607.56zm69.977 0V89.136h75.515v72.379h-75.515zm218.302 2.652l-7.491-63.867c-.412-3.494-1.881-6.684-4.157-8.96-2.151-2.15-5.018-3.476-8.351-3.476h-32.758v-10.16c0-3.083-1.272-5.897-3.297-7.94-2.043-2.024-4.856-3.297-7.939-3.297h-49.405v-.43c0-2.598-.018-3.87.502-4.337.466-.448 1.702-.43 4.085-.412l1.757.018c.34 0 .645-.304.645-.645v-7.419a.654.654 0 00-.645-.645h-8.029a7.498 7.498 0 00-5.358 2.222 7.58 7.58 0 00-2.24 5.358v6.29h-22.74c-3.082 0-5.896 1.273-7.939 3.297a11.263 11.263 0 00-3.279 7.94v10.16h-12.598v-6.129h4.767a.647.647 0 00.645-.663v-25.16h2.598a.628.628 0 00.628-.645.727.727 0 00-.144-.43 16.173 16.173 0 00-3.924-3.889c-3.244-2.257-7.294-3.386-11.326-3.386-4.032 0-8.064 1.129-11.307 3.387l-.054.035a15.864 15.864 0 00-3.906 3.907.634.634 0 00.161.896.856.856 0 00.358.125h2.581v25.16c0 .376.286.663.645.663h3.853v6.129h-34.676l-4.748-64.28v-.035c-.448-5.125-1.721-9.426-4.212-12.813-2.508-3.405-6.236-5.86-11.486-7.258-.036-.017-.036 0-.054 0-.018 0-.036-.017-.054-.017-19.103-1.703-37.686-2.42-53.975-2.581-22.507-.197-40.642.699-49.692 1.63-9.354.968-15.16 2.76-19.336 6.452-4.157 3.691-6.594 9.247-9.193 17.777-1.684 5.501-3.387 11.988-5.053 19.03-17.454-11.934-33.188-20.213-49.71-25.571-16.773-5.43-34.371-7.885-55.427-8.172-15.572-.197-28.349 1.56-40.553 4.66-.036 0-.053-.036-.089-.036h-28.242c-2.885 0-5.484-.054-8.028-.09-13.046-.233-24.64-.376-36.88 5.43-.053 0-.089-.018-.143 0L143.718 91.16a.615.615 0 00-.304.842l2.061 4.409-131.067 58.204-3.925-.305c-1.792-.054-3.53.43-5.071 1.308a10.904 10.904 0 00-3.781 3.62A10.504 10.504 0 000 164.382c-.054 1.864.376 3.835 1.505 5.788l18.852 34.962a.561.561 0 00.484.305c.018.018 0 .036.018.036l12.938 2.15 66.394 30.159c1.863.861 3.763 1.111 5.573.771.089-.018.179-.054.251-.09l109.778 18.368-.251 1.524a.657.657 0 00.537.734l15.035 2.402a.637.637 0 00.735-.52l.34-2.097 7.993 1.29a.66.66 0 00.734-.555l.216-1.326 96.373 15.949 7.383 6.756a8.12 8.12 0 002.581 1.594 8.237 8.237 0 002.957.556c2.132 0 3.942-.735 5.304-1.918 1.201-1.003 2.061-2.365 2.527-3.852a8.547 8.547 0 00.107-4.606c-.107-.394-.34-.752-.52-1.147l26.056-24.944c2.401 1.021 4.821 1.236 7.007.699 2.15-.52 4.086-1.685 5.573-3.244a11.69 11.69 0 003.028-5.698c.466-2.366.18-4.964-1.164-7.473 0-.036-.036-.036-.054-.054 0-.018.018-.036.018-.036-.95-1.218-1.685-3.243-2.204-5.465-.663-2.832-.968-5.896-.932-8.011.161-6.469 1.505-12.974 2.67-18.636.681-3.316 1.165-6.165 1.469-8.763.162-.986.287-2.097.323-3.495v-.018l-.018-.017c.269-10.466-1.667-18.781-5.555-25.339-3.889-6.577-9.767-11.362-17.293-14.82l-.09-.036-70.21-20.698c-.018 0-.054.018-.09.018-.018-.018-.018-.036-.036-.036l-27.077-1.845a.644.644 0 00-.699.591c0 .251.126.484.323.609l20.483 13.118c-.502-.072-1.004-.161-1.47-.179-1.666-.072-3.082.304-3.781 1.505-.43.735-.753 1.487-.842 2.312-.072.824.107 1.72.699 2.741l6.128 11.684c.054.09.108.161.197.215l16.236 12.311 23.511 67.093-207.872-72.505c2.294-.394 4.319-1.003 6.182-2.688l.036-.035c.699-.699 1.165-1.56 1.685-2.491.77-1.38 1.612-2.921 3.422-3.997L349.834 89.1c15.232-5.25 31.683-8.422 48.778-10.142 17.06-1.72 34.765-2.043 52.524-1.578l5.645 4.552-1.559 1.953a.616.616 0 00.089.896l12.383 10 38.904 31.467c-.089 1.792-.179 3.477-.233 5.036v49.638c0 .359.287.645.646.645h67.146v7.831c0 .359.287.663.645.663h4.337v4.534l-.556.054-.824-2.383a.638.638 0 00-.681-.448l-4.767.466c-.305.017-.52.25-.573.537l-.484 2.814-4.032.394-1.004-2.688a.64.64 0 00-.663-.412l-4.749.448a.614.614 0 00-.573.537l-.484 2.814-4.05.394-1.003-2.688a.627.627 0 00-.645-.412l-4.767.448a.667.667 0 00-.574.537l-.483 2.832-4.032.376-1.004-2.688c-.09-.269-.376-.43-.663-.412l-4.749.448a.668.668 0 00-.591.537l-.466 2.814-4.032.394-1.004-2.688a.64.64 0 00-.663-.412l-4.766.448c-.287.018-.52.251-.574.538l-.466 2.813-4.032.394-1.003-2.688c-.108-.269-.394-.448-.663-.412l-4.767.448a.664.664 0 00-.573.538l-.466 2.831-4.05.376-.986-2.688a.688.688 0 00-.681-.412l-4.749.448a.688.688 0 00-.573.538l-.484 2.831-4.032.377-1.003-2.688a.666.666 0 00-.663-.413l-4.749.448a.648.648 0 00-.574.538l-.484 2.813-4.032.395-1.003-2.67a.657.657 0 00-.663-.431l-4.785.466a.614.614 0 00-.573.538l-.394 2.778-4.032.483-1.129-2.759c-.09-.287-.359-.43-.646-.394l-4.229.412a.638.638 0 00-.573.627l-.143 3.028-3.961.896-1.398-2.688a.63.63 0 00-.752-.322c-.556.179-1.129.376-1.685.591-.555.215-1.111.43-1.648.663a.617.617 0 00-.359.753l.825 3.1-3.513 2.025-2.419-2.419a.656.656 0 00-.86-.054c-.484.323-.95.645-1.398.968-.466.34-.932.681-1.398 1.057a.637.637 0 00-.143.824l1.685 2.921-2.868 2.885-3.064-1.774a.651.651 0 00-.806.126c-.377.448-.735.878-1.076 1.29-.34.43-.681.878-1.021 1.344-.197.251-.161.609.072.842l2.311 2.312-2.025 3.512-3.279-.878a.659.659 0 00-.771.376c-.25.502-.483 1.04-.698 1.559-.233.52-.448 1.058-.646 1.613a.609.609 0 00.269.771l2.599 1.505-1.04 3.925h-3.082c-.322 0-.609.25-.627.573a32.098 32.098 0 00-.287 1.828l-.018.018c-.089.645-.143 1.272-.197 1.863a.647.647 0 00.52.699l2.473.663v4.05l-2.509.681c-.323.09-.52.377-.484.663.054.645.126 1.291.215 1.954.09.645.179 1.29.305 1.917.054.323.34.538.645.538h2.58l1.058 3.924-2.204 1.255a.655.655 0 00-.269.824c.233.555.448 1.129.681 1.666.233.556.484 1.111.752 1.667a.621.621 0 00.735.323l2.885-.771 2.043 3.512-2.061 2.043c-.233.233-.233.609-.036.86.323.448.663.914 1.04 1.362.358.466.734.914 1.111 1.344a.656.656 0 00.806.144l2.599-1.524 2.885 2.886-1.452 2.508a.63.63 0 00.144.807c.465.376.931.752 1.397 1.093.466.358.968.699 1.47 1.021a.626.626 0 00.806-.071l2.115-2.097 3.512 2.007-.735 2.742a.657.657 0 00.377.77c.537.233 1.111.466 1.684.699.574.215 1.147.43 1.738.609a.623.623 0 00.753-.268l1.416-2.455 3.906 1.057v2.616c0 .341.269.61.592.645.555.09 1.146.162 1.756.215a66.22 66.22 0 001.81.144.627.627 0 00.663-.484l.699-2.598h4.067l.699 2.67a.637.637 0 00.628.466h4.856a.637.637 0 00.627-.484l.717-2.652h4.104l.734 2.67a.631.631 0 00.61.466h5.035a.635.635 0 00.627-.484l.717-2.652h4.122l.716 2.67a.637.637 0 00.628.466h5.662a.637.637 0 00.628-.484l.716-2.652h4.122l.717 2.67c.071.286.34.466.627.466h5.663a.637.637 0 00.627-.484l.717-2.652h4.121l.717 2.67a.636.636 0 00.627.466h5.663a.635.635 0 00.627-.484l.717-2.652h4.122l.716 2.67c.09.286.341.466.628.466h5.662a.637.637 0 00.628-.484l.716-2.652h4.122l.717 2.67a.65.65 0 00.627.466h5.663c.304 0 .573-.198.627-.484l.717-2.652h4.121l.717 2.67c.09.286.341.466.627.466h5.663a.636.636 0 00.627-.484l.717-2.652h4.122l.716 2.67c.09.286.341.466.628.466h5.662a.635.635 0 00.627-.484l.717-2.652h4.122l.717 2.67c.071.286.34.466.627.466h5.663a.637.637 0 00.627-.484l.717-2.652h4.121l.717 2.67c.072.286.34.466.627.466h5.663a.636.636 0 00.627-.484l.717-2.652h4.121l.717 2.67a.636.636 0 00.627.466h5.699c.305 0 .573-.198.627-.484l.735-2.652h4.122l.698 2.67c.09.286.359.466.628.466h5.716a.635.635 0 00.627-.484l.717-2.652h4.122l.717 2.67c.071.286.34.466.627.466h5.698a.635.635 0 00.627-.484l.717-2.652h4.122l.717 2.67a.65.65 0 00.627.466h5.716a.637.637 0 00.628-.484l.716-2.652h4.122l.717 2.67c.071.286.34.466.627.466h5.699a.637.637 0 00.627-.484l.717-2.652h4.121l.717 2.67c.09.286.34.466.627.466h5.717c.304 0 .537-.198.627-.484l.717-2.652h4.103l.735 2.67a.616.616 0 00.609.466h5.717a.637.637 0 00.627-.484l.717-2.652h4.121l.717 2.67a.636.636 0 00.627.466h5.699c.305 0 .573-.198.627-.484l.717-2.652h4.122l.716 2.67c.09.286.359.466.628.466h5.716a.635.635 0 00.627-.484l.717-2.652h4.122l.716 2.67a.631.631 0 00.61.466h5.716a.635.635 0 00.627-.484l.717-2.652h4.122l.717 2.67a.65.65 0 00.627.466h5.716c.287 0 .556-.198.61-.484l.734-2.652h4.104l.735 2.67c.071.286.34.466.627.466h5.698a.637.637 0 00.628-.484l.716-2.652h4.122l.717 2.67a.65.65 0 00.627.466h5.699c.304 0 .573-.198.627-.484l.717-2.652h4.121l.717 2.67c.09.286.34.466.627.466h5.717a.637.637 0 00.627-.484l.717-2.652h4.103l.735 2.67a.636.636 0 00.627.466h4.785a.637.637 0 00.627-.502l.699-2.634h4.068l.699 2.616a.627.627 0 00.681.466c.591-.036 1.182-.09 1.774-.144h.018a144.37 144.37 0 001.774-.215.638.638 0 00.555-.645v-2.616l3.925-1.057 1.397 2.455c.18.268.52.376.807.268.573-.197 1.147-.394 1.684-.609a55.072 55.072 0 001.703-.699.676.676 0 00.376-.77l-.735-2.724 3.495-2.025 2.132 2.097c.233.233.61.25.86.053.484-.34.95-.663 1.398-1.003.466-.341.932-.717 1.398-1.093a.618.618 0 00.161-.807l-1.451-2.508 2.867-2.886 2.616 1.524a.657.657 0 00.807-.144c.376-.43.752-.878 1.111-1.344.358-.448.699-.914 1.057-1.38a.676.676 0 00-.072-.842l-2.043-2.043 2.025-3.512 2.903.771a.635.635 0 00.753-.359c.251-.537.502-1.093.735-1.631.251-.555.466-1.129.681-1.702.107-.305-.018-.645-.287-.788l-2.186-1.255 1.039-3.924h2.598c.341 0 .61-.251.646-.574.107-.627.215-1.254.286-1.881.108-.663.18-1.309.233-1.954.036-.304-.215-.609-.519-.681l-2.491-.663v-4.05l2.526-.681c.305-.071.502-.358.484-.681a36.566 36.566 0 00-.215-1.881 30.947 30.947 0 00-.304-1.864.634.634 0 00-.628-.537h-3.064l-1.057-3.925 2.616-1.505c.269-.144.376-.484.269-.771a21.677 21.677 0 00-.645-1.613c-.233-.537-.466-1.075-.717-1.594-.143-.269-.448-.43-.753-.341l-3.297.878-2.025-3.512 2.33-2.312a.662.662 0 00.036-.896c-.341-.448-.663-.878-.986-1.29-.358-.448-.735-.878-1.075-1.29a.636.636 0 00-.842-.108l-3.029 1.756-2.867-2.885 1.684-2.921a.635.635 0 00-.161-.824 25.881 25.881 0 00-1.398-1.057 28.728 28.728 0 00-1.415-1.004.676.676 0 00-.825.09l-2.437 2.419-3.512-2.025.842-3.1c.072-.323-.09-.663-.394-.771-.52-.215-1.057-.448-1.613-.645a31.261 31.261 0 00-1.684-.591c-.305-.09-.646.054-.771.34l-1.398 2.67-3.96-.896-.126-3.046c0-.305-.25-.556-.555-.609-.376-.054-.735-.09-1.093-.126-.376-.036-.753-.071-1.093-.107l-2.061-.179a.635.635 0 00-.663.394l-1.111 2.759-4.032-.483-.394-2.778a.651.651 0 00-.61-.556l-4.748-.448c-.305-.017-.592.162-.681.448l-.986 2.653-4.05-.395-.466-2.813a.647.647 0 00-.591-.538l-4.731-.448a.633.633 0 00-.681.448l-.986 2.653-4.05-.377-.466-2.831a.664.664 0 00-.609-.538l-4.731-.448a.625.625 0 00-.663.448l-.985 2.652-4.05-.376-.484-2.831c-.036-.305-.305-.52-.591-.538l-4.731-.448a.643.643 0 00-.681.448l-.986 2.652-4.032-.394-.484-2.813a.648.648 0 00-.609-.538l-4.713-.448a.644.644 0 00-.681.448l-1.003 2.652-4.032-.394-.466-2.814a.65.65 0 00-.61-.537l-4.731-.448a.623.623 0 00-.663.448l-1.003 2.652-4.032-.376-.466-2.832a.666.666 0 00-.609-.537l-4.731-.448a.622.622 0 00-.663.448l-1.004 2.652-4.032-.394-.484-2.832a.65.65 0 00-.609-.519l-4.713-.448a.644.644 0 00-.681.448l-.985 2.652-4.032-.394-.484-2.814a.648.648 0 00-.609-.537l-4.713-.466a.663.663 0 00-.681.466l-.986 2.652-.466-.054v-4.821h4.337a.658.658 0 00.645-.663v-7.831h184.845c.376 0 .77-.018 1.147-.071 2.903-.341 5.519-1.954 7.418-4.534 1.864-2.527 3.011-6.003 3.011-10.089 0-.878-.054-1.774-.161-2.706z" fill="#F7B726"/></svg>