<svg width="1000" height="296" fill="none" xmlns="http://www.w3.org/2000/svg"><path d="M278.16 228.86c5.98 0 11.4 2.44 15.32 6.36a21.6 21.6 0 016.34 15.32 21.6 21.6 0 01-6.34 15.32 21.6 21.6 0 01-15.32 6.34 21.6 21.6 0 01-15.32-6.34c-3.92-3.92-6.36-9.34-6.36-15.32s2.44-11.4 6.36-15.32c3.92-3.92 9.34-6.36 15.32-6.36zm45.16 18.28h12.82l-2.54-18.62h-15.84c3.1 5.58 5.06 11.9 5.56 18.62zm14.26.52v.1l.16 1.14h7.02v-8.1h-3.56a.67.67 0 01-.66-.68v-44.04c0-.34.22-.6.54-.66l34.66-9.3c.06-.02.12-.02.18-.02h64.96v-1.48H306.12l25.52 20.98c.12.1.2.26.22.42l5.72 41.64zm8.52 1.24h90.54v-8.1H346.1v8.1zm91.9 0h2.88v-8.1H438v8.1zm3.54 1.36H337.16c-.1 0-.2-.04-.3-.08l-.04-.02-.02-.02h-.02l-.02-.02h-.02v-.02h-.02v-.02h-.02v-.02h-.02v-.02h-.02v-.02l-.02-.02-.02-.02-.02-.02v-.02h-.02v-.02l-.02-.02v-.02l-.02-.02v-.04h-.02v-.04l-.02-.02v-.08l-.02-.02 105.06.6zm-.66-75.8v-.28H231.12v9.08h209.76v-8.8zm-211.12 6.96V170.2h-4.74l-38.34 47.54h20.36l22.72-28.34v-7.98zm1.36-8.58h1.28V94.5h-3.8v74.36h1.84c.38 0 .68.3.68.66v3.32zm2.64 0h15.8l-2.08-33.5v-.24l-1.84-29.74h-11.88v63.48zm17.16 0h82.28l-10.34-30.16-.98-2.82h-73l2.04 32.98zm83.7 0h64.96l8.88-40.36c.3-1.1.48-2.16.54-3.16.22-3-.58-5.62-2.34-7.72-1.8-2.14-4.64-3.8-8.5-4.84-2.04-.54-4.4-.92-7.02-1.1h-.02l-55.66-4.34c-.02.64-.2 1.36-.6 2.12l-.7 1.54c-1.62 3.98-4.48 10.04-6.92 15.14l-4.14 9.1 11.52 33.62zm66.34 0h24.42v-3.32c0-.36.32-.66.68-.66h4.1v-28.14h-8.36c-.38 0-.68-.3-.68-.68v-17.12c0-.38.3-.68.68-.68h70.36c.38 0 .68.3.68.68v17.12c0 .38-.3.68-.68.68h-23.6v28.14H503c-.74-.62-1.58-1.5-2.72-2.68a138.148 138.148 0 00-5.56-5.56c-2.24-2.16-3.36-3.24-3.74-4.64-.06-.2-.1-.4-.12-.62-.26-2-.52-3.58-.72-4.86-.48-2.98-.72-4.48-.38-5.78.34-1.38 1.82-3.12 3.66-5 .68-.7 1.48-1.52 2.46-2.58.06-.08.12-.16.2-.22 1.04-1.04 2.54-1.4 5.56-2.14l.02-.02c1.04-.24 2.26-.54 3.8-.96 1.56-.42 2.78-.76 3.8-1.06 2.98-.88 4.46-1.3 5.88-.92.58.14 1.08.42 1.64.84l33.22 18.8c1.2.68 1.84 1.78 2.14 3 .16.66.2 1.36.2 2.04l17.88.52c.14 0 .3 0 .46.02l8.12.58c.78-1.4 1.82-3.26 4.56-2.36 3.1 1.06 6.7 2.42 9.7 3.68 1.1.48 1.66.94 1.92 1.54.18.4.2.8.14 1.24l7.04.52c.34-2.34 2.14-2.58 4.38-2.54l.86.02c.42.02.84.02 1.36.02 1.4 0 2.26 1.06 2.66 2.24.12.36.18.74.22 1.1.02.36 0 .7-.06 1.02-.16.72-.56 1.22-1.24 1.26-.64.02-1.08.02-1.42-.04l-.04.08c-.06.1-.12.22-.18.3.2.18.38.36.54.54.4.52.34 1.1.32 2.4v.22h34.8v-8.52h-29.7c-4.8 0-5.46-3.94-5.46-7.82 0-.6.04-1.3.06-2 0-.54.02-1.06.02-1.64V123.7c0-.06.02-.12.02-.18l.24-.82-110.32-17.98h-.04l-3.18-.52h-.06l-.02-.02-15.66-2.54a.672.672 0 01-.56-.76l.58-4.5L470 94.82c-2 .38-4.74.34-8.54.28-1.34-.02-2.84-.04-4.78-.04h-.1l-.04-.02h-.06l-.02-.02c-.04 0-.08-.02-.12-.04L420.8 76.1l-180.94-2.14v34.06h1.88V92.74c0-3.04 1.24-5.86 3.1-7.96 1.94-2.18 4.6-3.58 7.26-3.58h2.7c.76-.12 1.56 0 2.34.46 1.7.98 2.08 2.82 1.64 4.64-.16.66-.44 1.32-.78 1.94-.36.6-.8 1.18-1.3 1.64-.98.94-2.22 1.52-3.46 1.36-.7.08-1.16.36-1.44.78-.38.56-.5 1.44-.5 2.52v13.48h80.92c.56 0 1.1.12 1.58.38s.9.64 1.2 1.12c.08.14.14.28.2.42l56.04 4.38c2.72.18 5.14.58 7.28 1.14 4.14 1.12 7.2 2.92 9.16 5.28 2.02 2.38 2.9 5.32 2.68 8.66-.08 1.08-.28 2.22-.58 3.38l-8.82 40.06zm-77.56 75.64c.04.68.04 1.36.04 2.06 0 11.72-4.44 22.4-11.74 30.44-.02.14-.08.3-.2.4l-2.54 2.56c-.12.1-.28.18-.42.18a44.227 44.227 0 01-5.86 4.5c-.06.14-.16.26-.3.34l-3.12 1.82c-.14.08-.3.1-.44.08-6.2 3.18-13.22 4.96-20.66 4.96-12.52 0-23.84-5.06-32.04-13.26s-13.26-19.52-13.26-32.02c0-2.72.24-5.4.7-8h-13.44l-9.24 5.34c-.1.08-.24.12-.38.12h-15.16v9.52c0 2.1-.62 3.82-1.94 5-1.22 1.12-3.02 1.74-5.42 1.74h-39.12c-.18-.02-.36-.08-.48-.2l-15.22-15.04c-.44.46-1.06.76-1.86.94-.08 1.98-.62 3.56-1.68 4.82-1.14 1.38-2.86 2.38-5.22 3.18l-2.12.72c-6.88 2.34-7.5 2.56-16.26 2.58v.46c0 .44-.18.84-.46 1.14h-.02c-.3.3-.7.48-1.14.48-.54 0-1 .02-1.48.04-.52.02-1.06.04-1.48.04-2.3 0-4.2-.4-4.2-2.74 0-1.14 0-1.84-.02-2.48-.04-2.66-.06-4.04.64-4.9l.04-.06c.78-.92 2.08-.9 4.74-.88l1.76.02c.44 0 .84.16 1.12.46h.02c.3.3.48.7.48 1.14v.62l1.14.02c2.52.02 4.02.04 7.02-.76 1.16-.32 2.22-.56 3.16-.78 3.06-.7 4.76-1.1 5.1-2.82h-1.5c-.38 0-.68-.32-.68-.68v-4.84h-13.4c-.08 0-.16 0-.24-.04l-14.42-5.88c-.04 0-.06-.02-.1-.04l-17.08-6.96a.666.666 0 01-.46-.64v-23.44c0-.2.1-.38.24-.52.06-.04.12-.08.2-.1l.32-.14v-11.74c-.06.02-.14.02-.22 0-.02 0-.06-.02-.1-.02l-.02-.02-.04-.02h-.04l-.02-.02-.02-.02h-.02v-.02c-.02-.02-.06-.04-.08-.06l-.02-.02-.06-.06v-.02l-.02-.04h-.02c-.04-.08-.06-.16-.08-.24v-5.04c0-5.86 1.06-18.4 7.18-27.22 1.8-2.56 4-4.82 6.72-6.5 3.78-10.46 7.76-20.86 12.08-31.16 4.38-10.5 9.12-20.9 14.36-31.2.02-.04.02-.06.04-.08l.7-1.4c1.56-3.24 3.46-7.12 6.74-7.12h102.96c1.92 0 2.76 1.04 3.12 2.56h3.94V73.86l-116.38-1.38v2.56c0 .36-.3.68-.68.68h-.54l.02.28c0 .4.02.82.02 1.12 0 2.14-.38 4.2-2.96 4.2-2.6 0-2.96-2.06-2.96-4.2 0-.3.02-.72.02-1.12l.02-.28h-.6c-.38 0-.68-.32-.68-.68v-2.66L74.52 72l-4.66 3.92c-.12.14-.3.22-.48.22h-5.2l.02.84c0 2.14-.36 4.6-3.42 4.6-3.08 0-3.44-2.46-3.44-4.6l.02-.84c-.36 0-.72.02-1.08.02-.66.02-1.34.06-1.92.06-.66 0-1.32-.04-1.96-.1-.02 0-.06.02-.1.02h-8.26c-.78 0-1.48.02-2.18.04-.72.04-1.44.06-2.02.06-1.92 0-3.5-.22-4.26-1.22l-1.76 5.76H50c1.24 0 1.84.36 2.1 1.12h5.84c.38 0 .68.3.68.68v.24c.34-.02.64-.02.96-.04.52-.02 1.04-.04 1.44-.04 1.86 0 3.2.32 3.2 1.92 0 1.6-1.34 1.9-3.2 1.9-.4 0-.92-.02-1.44-.04-.32 0-.62-.02-.96-.02v.24c0 .36-.3.68-.68.68H51.6l-20.78 3.26-3.92 12.9c-.06.24-.24.44-.48.5L8.02 109l-.02.02h-.02l-3.64.96c-.36.1-.72-.1-.82-.46L.02 96.46a.69.69 0 01.48-.84l3.64-.96.02-.02 4.02-1.06 5.84-65.74c-1.26-.76-2.36-1.7-3.26-2.74a13.62 13.62 0 01-3.2-7.52c-.28-2.72.28-5.54 1.66-8 .66-1.18 1.52-2.28 2.56-3.26l-1-1.72c-.36-.62-.42-1.34-.26-1.98.16-.6.56-1.16 1.12-1.52l.1-.04.02-.02c1.14-.66 3.06-1.76 4.36.48l1 1.72A13.594 13.594 0 0129.3 5.46c2.06 1.58 3.7 3.74 4.58 6.28.54 1.58.82 3.28.74 5.08l1.48.82c.06.04.12.08.16.12.46-.32 1.02-.5 1.6-.5h14.62c.62-.06 1.26-.08 1.9-.08.6 0 1.28.02 1.96.04.38 0 .76.02 1.16.02l.22-9.04c.02-.36.3-.64.64-.66l59.4-3.4c.24-.02.44.08.58.26l7.5 9.34 107.2 1.28V8.2c0-.36.32-.68.68-.68h8.8c.38 0 .68.32.68.68v6.94l415.26 5h219.96c.06-.24.12-.42.22-.6.62-1.2 1.64-1.14 3.7-1.02.72.04 1.58.08 2.66.08.2 0 .38.08.52.24l10.1 11.52h41.62l7.36-4.24c.1-.06.22-.1.32-.1h12.42c.12 0 .24.04.34.1l7.34 4.24h17.06l.02.02h.04c.9.14 1.76.24 2.54.34 4.3.54 6.68.84 6.68 4.74 0 2.3-1.86 3.22-3.92 4.24l-.76.38-.06 12.76.06 12.76.76.38c2.06 1.02 3.92 1.94 3.92 4.24 0 3.9-2.38 4.2-6.68 4.74-.62.08-1.3.16-2 .26v1.72h16.64c.38 0 .68.32.68.68v17.86c0 .36-.3.68-.68.68H928.7c-.36 0-.66-.32-.66-.68V78.3h-6.24v2.62c0 .22-.12.42-.28.54l-22.82 18.88 8.58 10.38 3.34-2.88c.28-.24.72-.22.96.06l7 8.58c.24.28.18.72-.1.94l-.02.02L885 145.62c-.28.24-.7.2-.94-.08l-6.72-8.12c-.24-.28-.2-.7.08-.94l2.6-2.24-9.06-10.94-13.64 11.26-.82 9.62-1.12 13c-.08.9-.56 1.68-1.28 2.26-.7.54-1.62.9-2.56.9h-67.62c-1.04 0-1.96-.42-2.64-1.12l-.04-.02c-.18-.2-.34-.4-.5-.62-.62 1.08-1.68 1.76-3.4 1.76h-6.92v8.52h122.12l-.02-.02v-.02h-.02v-.02h-.02c-.14-.12-.26-.22-.38-.34a5.956 5.956 0 01-1.74-4.22v-15.96c0-1.64.66-3.12 1.74-4.2.92-.92 2.14-1.54 3.5-1.7.06-.04.14-.04.24-.04h79.5c1.62 0 3.1.64 4.18 1.7l.04.04a5.91 5.91 0 011.74 4.2v15.96c0 1.64-.66 3.12-1.74 4.2-.14.14-.26.26-.4.36-.02.04-.06.06-.08.08h-.02c-.74.6-1.62 1.02-2.58 1.22-.1.06-.24.1-.38.1-.06 0-.12 0-.18-.02-.18.02-.38.02-.58.02h-24.06v5.1c0 .38-.3.68-.66.68h-6.52l-8.48 8.48c-.14.12-.3.2-.48.2h-3.06v17.76c.36 0 .7-.02 1.04-.04.66-.02 1.34-.04 1.9-.04 3.16 0 6 .54 6 4.04 0 6.32-1.18 6.3-7.42 6.24-.56-.02-1.14-.02-2.18-.02h-1.82v5.74h13.1c.36 0 .66.3.66.66v10.8c0 .36-.3.66-.66.66h-13.1v16.6h10.84v-1.32c0-.36.3-.68.66-.68l.06.02h.62c3.46-.02 5.12-.02 6.08 1.02.88.94.86 2.5.84 5.52v1.62c0 3-2.4 3.44-4.94 3.44-.42 0-.92-.02-1.42-.04-.4 0-.78-.02-1.24-.02a.67.67 0 01-.66-.68v-1.32H929.6v1.66h2.12c.68 0 1.08.56 1.22 1.28a3.31 3.31 0 010 1.26c-.14.72-.54 1.28-1.22 1.28h-49.36c-.68 0-1.08-.56-1.22-1.28a3.31 3.31 0 010-1.26c.14-.72.54-1.28 1.22-1.28h1.72v-4.14h-8.8a.69.69 0 01-.68-.6l-2.72-20.72-9.84 9.84c-.14.14-.3.2-.48.2h-7.7c.68 3.12 1.04 6.36 1.04 9.68 0 11.72-4.46 22.4-11.76 30.44-.02.14-.08.3-.2.4l-2.54 2.56c-.12.1-.26.18-.42.18a44.227 44.227 0 01-5.86 4.5c-.06.14-.16.26-.3.34l-3.12 1.82c-.14.08-.3.1-.44.08-6.2 3.18-13.22 4.96-20.66 4.96-12.5 0-23.84-5.06-32.04-13.26-5.1-5.12-9-11.46-11.22-18.54h-2.12c-.02.14-.06.26-.08.4-.28.96-.9 1.66-1.9 1.66h-25.22c-.98 0-1.62-.7-1.88-1.66-.04-.14-.06-.26-.1-.4h-2.26a45.37 45.37 0 01-9.72 16.96c-.02.14-.08.3-.2.4l-2.54 2.56c-.12.1-.26.18-.42.18a44.227 44.227 0 01-5.86 4.5c-.06.14-.16.26-.3.34l-3.12 1.82c-.14.08-.3.1-.44.08-6.2 3.18-13.22 4.96-20.66 4.96-12.5 0-23.84-5.06-32.02-13.26-8.2-8.2-13.28-19.52-13.28-32.02 0-.74.02-1.46.06-2.18l-10.64-6.14-1.44 11.86v.04h-.02v.1l-.02.02v.04l-.02.02v.02l-.02.02v.02h-.02v.04h-.02l-.02.04-.02.04h-.02v.02H632l-.02.02v.02h-.02l-.02.02c-.04.04-.08.06-.1.08h-.02l-.04.02-.04.02h-.06l-.02.02H593.9l-5.2 5.2c-.12.12-.28.2-.48.2h-89.34a.62.62 0 01-.48-.2l-8.7-8.7v5.08h1.02c1.72 0 1.92 1.32 1.92 2.46l-.02.68c0 .38-.3.68-.68.68h-49.9a.67.67 0 01-.66-.68l-.02-.68c0-1.14.2-2.46 1.92-2.46h1.02v-6.02h-2.76l-118.14-1.78zM304 184.62h-62.78v19.56l78.54-6.62L304 184.62zm578.44-14.42H548.78c-.16.12-.38.16-.58.1a.74.74 0 01-.22-.1h-78.24c.12.1.22.2.34.32.64.64 1.14 1.44 1.42 2.32h408.76c.34-.72.8-1.38 1.36-1.92.26-.26.54-.5.82-.72zm-371.1-1.34h23.78l-10.34-5.16c-.22.44-.48.8-.8 1.12-1.02 1.04-2.54 1.4-5.56 2.14h-.02c-1.04.26-2.26.56-3.8.98-1.3.34-2.36.64-3.26.92zm26.76 0h9.8l1.72-6.34 1.34-5.48c.06-.76.04-1.54-.14-2.26-.2-.88-.66-1.68-1.48-2.16l-28.82-16.3c.56.58 1.2 1.26 2 2.06 1.18 1.16 2.08 2.02 2.82 2.74 2.24 2.16 3.38 3.24 3.76 4.64.36 1.42-.06 2.9-.94 5.88-.3 1.02-.64 2.24-1.06 3.8-.42 1.56-.72 2.78-.98 3.82-.32 1.32-.58 2.36-.84 3.2l12.82 6.4zm11.2 0h29.36c-.44-.62-.7-1.38-.9-2.06l-7.6-.54c-.24-.02-.48-.04-.7-.08l-18.76-2.48-1.4 5.16zm39.76 0h15.88v-.22c-.8-.06-1.44-.28-1.94-.68-.54-.44-.86-1.06-.96-1.92l-7.36-.54c-.04.52-.16 1-.42 1.44-.4.66-1.1 1.16-2.28 1.4-.96.18-1.94.36-2.92.52zm-158.24 1.34h-4.08v2.64h14.4c.28-.88.78-1.68 1.42-2.32.1-.12.22-.22.34-.32h-12.08zm448.94 3.98H471.74v9.08h367.62c.16 0 .3.06.42.16l29.88 21.66c.16.12.26.32.28.5l1.06 8.08v.12l2.04 15.46v.1l2.82 21.44h8.22v-2.12h-3.84c-.38 0-.68-.3-.68-.68v-72.12c0-.58.06-1.14.2-1.68zm-215.52 10.44H628.9v64.24c0 .38-.3.68-.68.68H521.76c-.38 0-.68-.3-.68-.68v-64.24h-1.72v63.24c0 .38-.3.68-.68.68h-26.6c-.38 0-.68-.3-.68-.68v-63.24h-19.66v64.28h17.4v.02h.08v.02h.06v.02h.04v.02h.04v.02h.02l.02.02h.02v.02h.02v.02h.02l.02.02.02.02 9.66 9.64h88.78l5.2-5.18c.14-.14.3-.2.48-.2h37.3l1.48-12.04a.66.66 0 01.04-.58l.02-.02 3.3-26.96v-.06l.96-7.8c.02-.2.14-.36.28-.48l27.24-20.8zm-36.68 0h-64.9v4.18h.88c.38 0 .68.3.68.66v.92h28.36c.38 0 .68.3.68.66v15.76h34.3v-22.18zm-72.8 0h-32.34v22.18h2.06v-15.76c0-.36.3-.66.68-.66h28.04v-.92c0-.36.3-.66.68-.66h.88v-4.18zm-36.74 0h-25.28v20.12h25.28v-20.12zm-183.92-73.6l-.06-.3c-.04-.18-.12-.34-.2-.5-.16-.26-.4-.48-.68-.62-.28-.16-.6-.24-.94-.24h-85.24l.2 3.1h73.34c.6 0 1.14.16 1.6.42.44.26.82.62 1.06 1.04.26.42.4.92.4 1.46 0 .52-.12 1.06-.44 1.6l-5.76 9.98c-2.32 4.02-5.96 4-9.4 4h-59.66l.46 7.54h73.12c.54-1.4 2-4.48 3.74-8.14l.46-.96 7.04-15.48c.58-1.4.92-2.44.96-2.9zm-210-97.3l-6.6-8.22-58.44 3.34-.18 7.02c.1-.16.22-.3.34-.44 1.36-1.58 3.5-2.4 6.74-2.4l58.14.7zm-65.36 7.46l-.02.78v18.08l572.04 5.38.1-.2c5.94-11.4 13.24-20.56 21.36-23.82l-409.7-4.92-8.8-.08c-.06 0-.1-.02-.16-.02l-108.02-1.3h-.06l-59.52-.72c-2.82 0-4.64.66-5.72 1.94-.96 1.12-1.4 2.76-1.5 4.88zm-.02 20.2v29.1l15.56.16h.02l34.02.42.04-.02.06.02 123.98 1.46V63.9c0-.38.3-.68.68-.68h6.1c.36 0 .68.3.68.68v8.7l178.56 2.12-31.48-18.16c-.22-.12-.4-.36-.4-.62 0-.38.32-.68.68-.68h34.22c.38 0 .68.3.68.68 0 6.48 8.16 11.18 19.26 14.48 4.52 1.36 9.5 2.46 14.64 3.38V45.12l-397.3-3.74zM13.2 6.1l.04.04v.02l3.92 6.8h.02v.02l.04.06.02.04.02.02.02.04v.02l.02.04.02.04.02.02.02.04.02.02.02.04 2 3.46c.66.86 1.26.92 2.62.14.08-.06.16-.14.22-.22.16-.16.28-.36.34-.56.04-.32-.04-.7-.2-1.12l-2.08-3.6-.02-.02v-.02l-.02-.02-.08-.16-.02-.02-.02-.02-3.9-6.78-.04-.04-1.26-2.18c-.62-1.08-1.8-.4-2.5 0l-.04.02c-.3.16-.48.44-.58.76-.08.3-.04.62.12.92l1.26 2.2zm-.72 1.42c-.84.84-1.54 1.74-2.08 2.72-1.26 2.22-1.74 4.74-1.5 7.2s1.22 4.84 2.88 6.78c.68.78 1.48 1.5 2.38 2.1l.88-10.04v-.06c0-.98.24-1.98.78-2.92l-3.34-5.78zm8.66 2.7c1.52.02 2.74.48 3.66 1.22l8.48 4.66c0-1.38-.24-2.7-.66-3.9-.82-2.3-2.28-4.24-4.14-5.66a12.282 12.282 0 00-6.52-2.5c-1.36-.1-2.76.02-4.16.4l3.34 5.78zm2.48 4.3l.04.06c.26.48.38.96.34 1.42.04.8-.28 1.5-1.18 2.06-.16.12-.34.24-.52.34-.32.18-.66.34-1.02.42-1.14.42-1.86.18-2.58-.66-.12-.12-.22-.24-.3-.38-.24-.34-.46-.72-.72-1.16-.24-.42-.44-.76-.66-1.16l-.38-.7c-.16.48-.24.96-.24 1.44v.06c0 .76.2 1.52.56 2.18.36.68.9 1.28 1.56 1.72.7.46 1.56.74 2.54.74 2.2 0 3.62-1.2 4.22-2.72.26-.62.38-1.28.38-1.94 0-.66-.12-1.34-.38-1.94-.26-.68-.7-1.3-1.28-1.76l-.84-.46a1.1 1.1 0 01-.18-.14c-.3-.12-.62-.22-.98-.28l.14.24c.3.46.6.92.82 1.32.26.44.48.88.66 1.3zm35 69.64v.98l1 .04c.46.02.92.04 1.4.04 1.08 0 1.86-.1 1.86-.56 0-.48-.78-.56-1.86-.56-.48 0-.92 0-1.4.02l-1 .04zm-6.32-.92v.4c0 .28-.02.72-.04 1.2 0 .36-.02.76-.02 1.22h5.04v-2.82H52.3zm-1.42 2.92v-3.38c-.1-.44-.34-.64-.88-.64H33.42l-2.18 7.12 19.64-3.1zm-18.62-4.84c0-.04.02-.08.04-.12l2.8-9.24V18.62l-1.38-.74c-.08-.04-.16-.08-.24-.14l-6.88-3.78c.26.74.4 1.5.4 2.28 0 .82-.16 1.66-.46 2.44-.8 2-2.64 3.56-5.48 3.56-1.24 0-2.36-.36-3.28-.96-.68-.44-1.24-1-1.68-1.66l-.7 7.84c0 .06 0 .1-.02.16l-5.9 66.54c-.04.3-.24.52-.5.6l-3.84 1.02 3.14 11.76 17.42-4.68 3.94-12.94.02-.04 2.6-8.56zm9.1-6.46c-.48-.6-.76-1.36-.76-2.18V20.7c0-.78.26-1.52.72-2.1h-3.46c-.38 0-.74.16-1 .42s-.42.62-.42 1v53.34c0 1.3 1.48 1.52 3.4 1.52.52 0 1.02 0 1.52-.02zm7.52-.08c-.68-.68-1.1-1.66-1.1-3.08V21.68c0-1.42.42-2.4 1.1-3.08h-4.86c-.58.02-1.08.24-1.46.62l-.04.02c-.36.38-.58.9-.58 1.46v51.98c0 .58.24 1.1.62 1.48.38.38.88.62 1.44.62h4.88zm4.24-56.22c-.08.02-.16.04-.24.04h-.26c-1.96.22-3.5.94-3.5 3.08V71.7c0 2.76 2.56 3.16 5.24 3.16.7 0 1.3-.02 1.88-.04l1.04-.02.1-49.22V18.6l-1.08-.04c-.6-.02-1.2-.04-1.92-.04-.42 0-.84.02-1.26.04zM6.98 107.88L3.84 96.14l-2.34.62 3.16 11.76 2.32-.64zm55.86-31.74h-4.12c-.02.22-.02.46-.02.84 0 1.52.22 3.26 2.08 3.26s2.08-1.74 2.08-3.26c0-.38-.02-.62-.02-.84zm-4.12-4.3v2.94h10.42l3.32-2.8-13.74-.14zm183.12-56.72V8.88h-7.44v6.16l7.44.08zm240.3 67.1l-7.06-1.08c-.04.32-.06.66-.06 1 0 6.88-.42 10.14-2.54 11.68l7.98 1.22 1.68-12.82zm-6.72-2.38l6.9 1.04.2-1.54c.06-.46.16-.82.3-1.12-1.7-.1-3.46-.22-5.26-.38-.8.26-1.4.74-1.82 1.38-.12.2-.22.4-.32.62zm-18.06 13.88c1.38 0 2.8.02 4.1.04 10.86.14 12.2.16 12.2-11.62 0-1.38.3-2.64.94-3.64.2-.3.42-.58.68-.84-5.76-.52-11.92-1.26-17.92-2.26v18.32zm46.24-12.16l-3.52 21.94 109.8 17.9 4.8-17.94c0-1.18.06-2.46.14-3.78L503.6 81.56zm-4.84 21.72l3.5-21.94-1.78-.3-3.64 21.94 1.92.3zM420.8 56.62h-31.06l31.54 18.2.02.02 34.72 18.42v-18.1c-5.28-.92-10.4-2.06-15.02-3.44-11.3-3.38-19.68-8.24-20.2-15.1zm36.56-11.5v28.9c14.04 2.38 28.9 3.26 37.86 3.26h123.56c2.66-10.2 6.52-21.06 11.3-30.54l-172.72-1.62zm38.16 57.64l3.62-21.94-14.36-2.34c-.28-.02-.48-.02-.6.08-.14.14-.26.42-.32.94l-2.74 20.9 14.4 2.36zm-1.46-24.12l5.94.96h.04l.02.02 3.04.48.02.02h.06l111.74 18.2c.5-5.68 1.7-12.5 3.52-19.68H494.06zm125.9-.58c0 .04-.02.1-.04.14-2.42 9.4-3.78 18.18-3.88 24.68h6.12c.12-4.74 1.44-12.18 3.64-20.46 2.12-7.98 5.04-16.78 8.48-24.74l.26-.56c5.82-13.44 11-25.4 18.6-25.4h89.88c3.96 0 6.26.42 7.66 1.9 1.38 1.46 1.7 3.82 1.7 7.74V64c0 1.76 0 2.62-.32 3.32-.32.74-.88 1.12-1.96 1.88-4.28 2.7-8.76 6.12-12.96 9.04-3.02 2.1-3.06 2.1-6.44 2.1h-16.56l-.16 62.2h58.9c3.16 0 3.54 2.52 3.54 4.74l-.02.9h3.76V29.82c0-2.3-.92-4.38-2.44-5.9l-.02-.02a8.305 8.305 0 00-5.86-2.42H658.56c-10.06 0-19.26 10.48-26.5 24.36-5.16 9.86-9.32 21.44-12.1 32.22zM465.7 79.72c2.78 0 4.56 1.54 5.34 3.48.3.76.46 1.56.46 2.38 0 .8-.16 1.6-.46 2.36-.78 1.96-2.56 3.48-5.34 3.48-2.76 0-4.54-1.52-5.32-3.48-.3-.76-.46-1.56-.46-2.36 0-.82.16-1.62.46-2.38.78-1.94 2.56-3.48 5.32-3.48zm4.08 3.98c-.58-1.46-1.94-2.62-4.08-2.62-2.12 0-3.48 1.16-4.08 2.62-.24.6-.34 1.24-.34 1.88 0 .64.1 1.28.34 1.86.6 1.48 1.96 2.64 4.08 2.64 2.14 0 3.5-1.16 4.08-2.64.24-.58.36-1.22.36-1.86 0-.64-.12-1.28-.36-1.88zm133.64 82.44c.08.36.22.6.44.78.36.28.94.4 1.76.4.38 0 .68.3.68.68v.86h1.92v-.24c.02-1.38.14-1.98-1.38-2.24l-3.42-.24zM437.3 206.38h3.58v-18.94H376l-34.12 9.16v9.78h95.42zm-105.62 8.1h-19.62l-2.16 3.74.28.28c2.6 2.6 4.88 5.52 6.78 8.68h16.44l-1.72-12.7zm-22.78 2.78l2.14-3.72c.12-.24.36-.4.62-.4h19.82l-.9-6.68-9.34-7.66-80.02 6.72V220c0 .38-.3.68-.66.68h-5.38a.67.67 0 01-.66-.68v-3.38h-4.08a.67.67 0 01-.68-.66v-9.54l-7.7.14v6.74l3.26.86c.2.06.36.2.44.36l1.14 1.98c.06.1.08.22.08.32v9.08c0 .18-.06.34-.18.46l-1.82 1.82c-.12.12-.3.2-.48.2h-16.46v3.6c0 .82-.12 1.62-.36 2.38h28.16c2.28-6 5.82-11.4 10.28-15.86 8.2-8.18 19.52-13.26 32.04-13.26 11.86 0 22.66 4.56 30.74 12.02zm-73.56 18.46h-17v2.48h16.22c.24-.84.5-1.68.78-2.48zm-1.14 3.82h-30.9c-1.12.56-2.36.86-3.68.86h-65.1c-.02 1.12-.02 2.12-.04 3h49.32c.14 0 .26.04.38.12l5.42 3.14h20.72l9.28-5.36c.1-.08.22-.1.34-.1h13.88c.12-.56.24-1.1.38-1.66zm33 49.12l.26.06c1.42.38 2.08.56 2.32 1.4l.02.06c.14.6-.06 1.32-.44 2.66l-.2.72c2.12.44 4.28.72 6.5.84l-.02-.44c-.02-.4-.04-.78-.04-1.06.02-1.54.28-2.72 1.78-2.72h.32c1.46 0 2.16 0 2.6.76.32.52.32 1.3.3 2.74v.72c2.2-.12 4.38-.4 6.5-.84l-.14-.44c-.12-.36-.22-.72-.3-1-.4-1.5-.44-2.7 1.02-3.1l.28-.08c1.42-.38 2.08-.56 2.72.06.46.42.64 1.18 1 2.56l.18.74c2.1-.68 4.1-1.52 6.04-2.5l-.14-.22c-.18-.3-.38-.62-.54-.88-.78-1.36-1.14-2.52.18-3.28l.26-.16c1.28-.74 1.88-1.08 2.64-.66.56.32.94.98 1.64 2.24l.26.48c1.84-1.2 3.56-2.52 5.18-3.98l-.18-.16c-.28-.26-.56-.52-.76-.72l-.04-.04c-1.08-1.08-1.7-2.12-.64-3.18l.22-.22c1.04-1.04 1.52-1.52 2.38-1.32.62.16 1.16.72 2.16 1.74l.38.4c1.46-1.64 2.8-3.36 4-5.2l-.44-.22c-.34-.18-.66-.36-.92-.5l-.04-.02c-1.32-.78-2.18-1.6-1.44-2.88l.16-.28c.74-1.26 1.08-1.86 1.96-1.88.62 0 1.28.38 2.52 1.12l.68.4c.98-1.94 1.82-3.98 2.52-6.06l-.5-.12h-.02c-.36-.08-.68-.16-1-.24-1.5-.4-2.56-.96-2.18-2.42l.02-.04.06-.26c.38-1.42.56-2.08 1.4-2.34h.06c.6-.16 1.34.06 2.66.44l.78.2c.44-2.12.72-4.28.84-6.5l-.5.02c-.4 0-.78.02-1.04.02-1.56 0-2.74-.28-2.74-1.78v-.3c0-1.48 0-2.16.76-2.62.52-.32 1.3-.3 2.74-.28h.8c-.14-2.22-.42-4.4-.86-6.52l-.5.16c-.36.12-.7.22-1 .3-1.5.4-2.7.44-3.1-1.02l-.08-.3c-.38-1.4-.56-2.08.06-2.7.44-.46 1.18-.64 2.58-1l.78-.2c-.7-2.1-1.54-4.12-2.52-6.08l-.46.28c-.3.2-.6.4-.88.54-1.34.78-2.5 1.14-3.26-.16l-.14-.28c-.74-1.26-1.08-1.86-.66-2.62.3-.56.98-.92 2.22-1.64l.7-.38a44.01 44.01 0 00-4-5.22l-.36.38c-.24.28-.5.56-.7.76l-.04.04c-1.08 1.06-2.1 1.68-3.16.64l-.22-.22c-1.04-1.04-1.52-1.52-1.3-2.38.14-.6.7-1.14 1.72-2.14l.58-.58a48.713 48.713 0 00-5.22-4l-.24.48c-.16.3-.32.6-.5.92-.78 1.34-1.6 2.22-2.9 1.46l-.04-.02-.22-.12c-1.28-.74-1.88-1.08-1.9-1.96 0-.64.38-1.28 1.12-2.52l.42-.7c-1.96-.98-3.98-1.84-6.08-2.52l-.12.52v.02c-.08.34-.16.68-.24.98-.4 1.5-.96 2.58-2.42 2.18h-.04l-.26-.08c-1.42-.36-2.08-.54-2.32-1.4l-.02-.06c-.14-.58.06-1.32.44-2.66l.22-.78c-2.12-.44-4.3-.72-6.52-.84l.02.52c.02.38.02.76.02 1.04 0 1.54-.26 2.72-1.78 2.72h-.3c-1.48 0-2.16.02-2.6-.74-.32-.54-.32-1.3-.3-2.74v-.8c-2.22.12-4.4.42-6.5.86l.14.48c.12.36.22.72.3 1.02.4 1.5.44 2.7-1.02 3.08l-.28.08c-1.42.38-2.08.56-2.72-.04-.46-.44-.64-1.18-1-2.58l-.2-.76c-2.1.68-4.12 1.52-6.06 2.52l.26.42c.2.32.4.62.56.9.76 1.34 1.12 2.5-.18 3.24l-.26.16c-1.28.74-1.88 1.08-2.64.66-.54-.3-.92-.98-1.62-2.24l-.4-.68a50.547 50.547 0 00-5.2 4l.36.34c.28.26.56.52.76.72l.04.04c1.08 1.08 1.7 2.1.64 3.14l-.22.22c-1.04 1.04-1.52 1.54-2.38 1.32-.6-.16-1.14-.7-2.14-1.72l-.54-.56c-1.46 1.64-2.8 3.38-4 5.2l.44.24c.3.16.6.32.92.5 1.34.76 2.22 1.6 1.46 2.9l-.02.04-.12.22c-.74 1.28-1.08 1.88-1.96 1.88-.62.02-1.28-.38-2.52-1.1l-.66-.4a42.4 42.4 0 00-2.5 6.06l.46.12h.02c.34.08.68.16 1 .24 1.5.4 2.56.96 2.18 2.42l-.02.04-.06.26c-.38 1.42-.56 2.08-1.4 2.32l-.06.02c-.6.14-1.34-.06-2.68-.44l-.72-.2c-.46 2.22-.76 4.5-.86 6.82 1.94-.08 2.42-.02 2.92.1.54.16.86.42 1.04.74.28.48.22 1.26.22 1.74h-1.34v-.56c0-.38 0-.52-.36-.62-.14-.04-.28-.06-.44-.08-.44-.06-1.46.02-2.06.02 0 .26-.02.52-.02.78 0 .5 0 .98.02 1.48 1 .02 1.5.04 2.2 0 .1.02.32-.02.44-.04.16-.04.24-.12.22-.98h1.34c-.02.5.04 1.36-.48 1.86-.2.2-.52.4-.98.46-.5.1-1.56.04-2.68.06.14 2.08.42 4.14.82 6.14l.46-.12c.36-.12.7-.22 1-.3 1.5-.4 2.7-.44 3.1 1l.08.3c.38 1.42.56 2.08-.06 2.72-.44.44-1.18.64-2.58 1l-.7.18c.68 2.08 1.52 4.1 2.5 6.04l.38-.24c.32-.2.62-.38.9-.54 1.34-.78 2.5-1.12 3.24.18l.16.26c.74 1.28 1.08 1.86.66 2.64-.3.54-.98.92-2.22 1.62l-.64.36c1.2 1.84 2.54 3.56 3.98 5.2l.3-.34c.26-.28.52-.54.72-.74l.04-.04c1.08-1.08 2.1-1.7 3.16-.64l.2.22c1.06 1.04 1.54 1.52 1.32 2.36-.14.62-.7 1.16-1.72 2.16l-.52.5c1.62 1.46 3.36 2.8 5.18 4l.22-.4c.16-.3.32-.6.5-.92.78-1.34 1.6-2.22 2.9-1.48l.04.02.22.14c1.28.72 1.88 1.08 1.88 1.96.02.62-.38 1.28-1.1 2.52l-.38.64c1.94.96 3.96 1.82 6.06 2.5l.1-.44v-.04c.08-.34.16-.68.24-.98.4-1.5.96-2.56 2.42-2.18l.04.02zm-.08 1.36l-.3-.08c-.36-.1-.58.46-.78 1.22-.1.3-.16.62-.24.94l-.1.5 2.18.58.18-.7c.32-1.1.5-1.72.44-1.96v-.04c-.04-.1-.46-.22-1.38-.46zm-9.84-4.2l-.28-.16c-.32-.18-.66.3-1.06.98-.14.24-.3.56-.48.88l-.22.42 1.96 1.14.36-.62c.62-1.04.94-1.58.94-1.82-.02-.12-.4-.34-1.22-.82zm-8.42-6.6l-.22-.22c-.26-.26-.72.1-1.26.64l-.04.04c-.24.26-.46.48-.68.72l-.32.34 1.6 1.6.52-.5c.86-.84 1.3-1.28 1.36-1.52.04-.12-.28-.42-.96-1.1zm-6.42-8.54l-.16-.28c-.18-.32-.74-.08-1.42.32-.28.16-.56.34-.84.52l-.4.26 1.12 1.94.64-.34c1.04-.6 1.58-.9 1.7-1.12.06-.1-.16-.48-.64-1.3zm-3.98-9.94l-.08-.28c-.1-.36-.7-.28-1.46-.08l-.96.3-.44.12.58 2.2.7-.18c1.16-.3 1.76-.46 1.94-.64.08-.08-.04-.52-.28-1.44zm.22-21.18l.08-.32c.1-.34-.48-.56-1.24-.78-.3-.08-.6-.14-.92-.22l-.5-.1-.58 2.18.7.18c1.1.32 1.7.48 1.96.44l.02-.02c.12-.02.24-.44.48-1.36zm4.2-9.84l.14-.28c.2-.32-.3-.68-.96-1.06-.24-.14-.56-.3-.88-.48l-.44-.22-1.12 1.94.62.38c1.02.6 1.58.94 1.82.92.12 0 .34-.38.82-1.2zm6.58-8.42l.22-.22c.26-.26-.1-.72-.64-1.26l-.02-.04c-.26-.24-.48-.46-.72-.68l-.36-.32-1.58 1.6.5.52c.82.84 1.28 1.3 1.5 1.36.12.02.44-.28 1.1-.96zm8.56-6.42l.26-.16c.34-.18.08-.74-.3-1.42-.18-.28-.34-.56-.52-.84l-.26-.4-1.96 1.12.36.64c.58 1.02.9 1.58 1.1 1.7.12.06.5-.16 1.32-.64zm9.92-4l.3-.08c.36-.08.26-.68.06-1.44-.08-.32-.18-.64-.28-.96l-.14-.46-2.18.6.18.7c.3 1.14.46 1.76.62 1.94.1.08.52-.04 1.44-.3zm10.62-1.28h.3c.38 0 .44-.6.44-1.38 0-.36 0-.68-.02-1l-.02-.48H277v.74c-.02 1.18-.02 1.82.1 2.02.06.12.5.1 1.46.1zm10.58 1.52l.3.08c.36.08.58-.48.78-1.24.08-.3.16-.62.24-.94l.1-.48-2.18-.58-.2.68c-.3 1.12-.48 1.72-.42 1.98v.02c.04.12.46.22 1.38.48zm9.84 4.18l.26.16c.32.18.68-.3 1.08-.98.14-.22.3-.54.48-.88l.22-.42-1.96-1.12-.36.62c-.62 1.02-.94 1.58-.94 1.82 0 .12.4.34 1.22.8zm8.42 6.6l.22.22c.24.26.72-.1 1.26-.64l.02-.04c.26-.24.48-.48.68-.7l.34-.36-1.6-1.6-.52.52c-.86.82-1.3 1.26-1.36 1.5-.04.12.28.44.96 1.1zm6.42 8.56l.14.26c.2.32.76.08 1.44-.32.28-.16.56-.32.84-.5l.4-.26-1.12-1.96-.64.36c-1.04.58-1.58.9-1.7 1.1-.06.12.16.5.64 1.32zm3.98 9.92l.08.3c.1.36.7.26 1.44.06.34-.08.66-.18.96-.28l.46-.14-.58-2.18-.7.18c-1.16.3-1.78.46-1.94.62-.08.1.04.52.28 1.44zm1.28 10.62v.3c0 .38.6.44 1.4.44.36 0 .68-.02.98-.02l.48-.02v-2.26h-.72c-1.18-.02-1.82-.04-2.04.1-.1.06-.1.5-.1 1.46zm-1.5 10.58l-.08.3c-.1.36.48.58 1.24.78.3.08.6.16.92.22l.5.12.58-2.18-.7-.2c-1.1-.3-1.7-.48-1.96-.42h-.02c-.12.04-.24.46-.48 1.38zm-4.2 9.84l-.14.26c-.2.32.28.68.94 1.06l.04.02c.3.18.58.32.86.48l.42.22 1.14-1.96-.62-.36c-1.02-.62-1.58-.94-1.82-.94-.12 0-.34.38-.82 1.22zm-25.06 18.82l-.3.08c-.36.1-.28.68-.06 1.44.08.34.18.64.28.96l.14.46 2.18-.58-.18-.7c-.3-1.16-.46-1.78-.64-1.94-.08-.08-.5.04-1.42.28zm-10.62 1.28h-.32c-.36 0-.42.6-.42 1.38 0 .38 0 .68.02 1l.02.48h2.26v-.72c.02-1.18.02-1.82-.1-2.04-.06-.1-.5-.1-1.46-.1zm29.24-11.54l-.22.22c-.26.26.1.72.64 1.26l.04.04c.24.26.48.46.72.68l.26.26.84-.84c.26-.26.52-.52.76-.78l-.42-.44c-.84-.84-1.28-1.3-1.52-1.36-.12-.04-.44.28-1.1.96zm-8.6 6.46l-.26.14c-.34.2-.08.76.3 1.44.18.28.34.56.52.84l.2.32c.66-.36 1.32-.74 1.96-1.14l-.3-.54c-.58-1.04-.88-1.6-1.1-1.72-.1-.06-.5.18-1.32.66zm-20.18-49.18c3.66 0 6.98 1.48 9.38 3.88l.04.04c2.38 2.4 3.86 5.7 3.86 9.36 0 3.66-1.5 6.98-3.9 9.38-2.4 2.4-5.72 3.9-9.38 3.9-3.68 0-6.98-1.5-9.4-3.9-2.4-2.4-3.88-5.72-3.88-9.38 0-3.66 1.48-6.98 3.88-9.4h.02c2.4-2.4 5.72-3.88 9.38-3.88zm-8.82 5.24c1.14.92.7 2.42-.04 4.1l-.36.8c-.18.38-.34.76-.52 1.18-.24.56-.68.98-1.22 1.2-.3.14-.62.2-.96.18 0 .18-.02.38-.02.58 0 .18.02.36.02.54 1.42-.14 2.18 1.22 2.84 2.9l.32.88c.16.4.32.82.46 1.16.22.58.22 1.18 0 1.7-.12.3-.32.58-.56.82l.42.42c.12.14.24.24.38.36.9-1.1 2.4-.66 4.06.08l.8.36c.38.16.76.34 1.18.52.56.24.98.68 1.2 1.2.14.3.2.64.18.96.22.02.42.02.64.02h.5c-.12-1.44 1.24-2.18 2.92-2.84l.82-.3c.4-.16.8-.3 1.22-.48.56-.22 1.18-.2 1.7 0 .3.12.58.32.8.56.16-.14.32-.28.46-.44.12-.1.22-.22.34-.34-1.14-.9-.7-2.42.04-4.08l.36-.8c.18-.38.34-.76.52-1.18.24-.58.68-1 1.2-1.22.32-.12.68-.18 1.02-.16.02-.22.02-.44.02-.64v-.52c-1.44.14-2.18-1.24-2.84-2.92l-.3-.82c-.16-.4-.3-.8-.48-1.22-.22-.56-.2-1.18 0-1.7.14-.3.32-.58.56-.8-.12-.14-.26-.28-.4-.42l-.04-.04-.36-.36c-.92 1.18-2.44.74-4.12 0l-.8-.36a16.1 16.1 0 00-1.18-.52c-.56-.24-.98-.68-1.22-1.22-.12-.32-.18-.66-.16-1.02-.2 0-.38-.02-.58-.02-.18 0-.36.02-.54.02.18 1.46-1.2 2.22-2.9 2.88l-.88.34c-.4.16-.82.3-1.18.46-.56.22-1.16.2-1.7 0-.3-.14-.6-.34-.82-.6-.14.14-.28.26-.42.4-.14.14-.26.26-.38.4zm-1.28 3.56c.44-.98.74-1.84.5-2.34-.52.72-.96 1.48-1.3 2.3-.34.82-.58 1.68-.74 2.58l.18-.06c.2-.08.38-.26.48-.48.14-.38.34-.8.54-1.22l.34-.78zm-.24 8.4c-.38-.96-.78-1.78-1.3-1.96.14.88.38 1.74.72 2.54.34.82.78 1.62 1.28 2.34.04-.06.06-.1.1-.16.08-.22.08-.46-.02-.68-.16-.42-.32-.82-.46-1.22l-.32-.86zm5.8 6.16c-.96-.42-1.84-.72-2.34-.48.72.52 1.48.94 2.32 1.3.8.34 1.66.58 2.56.74l-.06-.18a.936.936 0 00-.48-.48c-.38-.16-.8-.36-1.22-.54l-.78-.36zm14.88-14.02c.38.98.78 1.82 1.3 2-.14-.86-.38-1.72-.72-2.54-.34-.82-.76-1.6-1.28-2.34-.04.04-.06.1-.08.16-.1.2-.1.44 0 .68.14.38.32.82.48 1.24l.3.8zm-6.42 14.28c-.98.38-1.82.78-2 1.3.88-.14 1.72-.38 2.56-.72.8-.32 1.6-.76 2.34-1.28-.06-.04-.12-.06-.16-.08-.22-.1-.46-.1-.68 0-.38.14-.82.32-1.26.48l-.8.3zm6.1-5.8c-.42.96-.72 1.82-.48 2.34.52-.72.96-1.5 1.3-2.32.34-.8.58-1.66.74-2.56-.06 0-.12.02-.18.04-.2.1-.38.26-.48.48-.16.4-.34.82-.54 1.24l-.36.78zm-5.54-14.58c.96.42 1.84.74 2.34.48-.72-.5-1.5-.94-2.32-1.28-.8-.34-1.66-.6-2.56-.74.02.06.04.12.06.16.08.22.24.4.48.48.38.16.8.36 1.22.56l.78.34zm-8.42-.24c.98-.38 1.8-.78 1.98-1.32-.88.16-1.74.4-2.54.74-.84.34-1.62.76-2.34 1.28.04.04.1.06.16.08.2.1.44.1.68 0 .42-.16.82-.32 1.2-.46l.86-.32zm3.94 4.5c2.74 0 4.48 1.5 5.26 3.44.3.74.44 1.54.44 2.34 0 .8-.14 1.58-.44 2.34-.78 1.92-2.52 3.44-5.26 3.44-2.74 0-4.5-1.52-5.28-3.44-.3-.76-.44-1.56-.44-2.34 0-.8.14-1.6.44-2.34.78-1.94 2.54-3.44 5.28-3.44zm4.02 3.94c-.6-1.46-1.92-2.6-4.02-2.6-2.1 0-3.44 1.14-4.02 2.6-.24.58-.34 1.2-.34 1.84 0 .62.1 1.26.34 1.82.58 1.46 1.92 2.6 4.02 2.6 2.1 0 3.42-1.14 4.02-2.6.22-.56.34-1.2.34-1.82 0-.64-.12-1.26-.34-1.84zm-4.02-23.26c6.92 0 13.2 2.82 17.74 7.36 4.54 4.54 7.34 10.8 7.34 17.74 0 6.92-2.8 13.2-7.34 17.74a25.017 25.017 0 01-17.74 7.34c-6.94 0-13.2-2.8-17.74-7.34-4.54-4.54-7.36-10.82-7.36-17.74 0-6.94 2.82-13.2 7.36-17.74 4.54-4.54 10.8-7.36 17.74-7.36zm16.78 8.3c-4.3-4.28-10.24-6.94-16.78-6.94-6.56 0-12.5 2.66-16.8 6.94a23.752 23.752 0 00-6.94 16.8c0 6.54 2.66 12.48 6.94 16.78 4.3 4.3 10.24 6.96 16.8 6.96 6.54 0 12.48-2.66 16.78-6.96 4.3-4.3 6.96-10.24 6.96-16.78 0-6.56-2.66-12.5-6.96-16.8zm-2.42 2.42c-3.68-3.66-8.76-5.94-14.36-5.94-5.62 0-10.7 2.28-14.38 5.94a20.335 20.335 0 00-5.94 14.38c0 5.6 2.28 10.68 5.94 14.36 3.68 3.68 8.76 5.94 14.38 5.94 5.6 0 10.68-2.26 14.36-5.94 3.68-3.68 5.96-8.76 5.96-14.36 0-5.62-2.28-10.7-5.96-14.38zm-77.76-.44v2.48h2.22v-2.48h-2.22zm-1.36 2.48v-2.48h-6.24c-.42.82-.96 1.56-1.6 2.2l-.28.28h8.12zm-83.46 11.98c-1.4.14-3.24.12-5.64.08h-.5c-.28 2.78-2.34 3.26-6.16 4.14-.92.2-1.96.44-3.12.76-3.16.84-4.72.82-7.38.8l-1.12-.02v3.96c8.54 0 9.14-.22 15.84-2.5l2.1-.72c2.14-.72 3.66-1.6 4.62-2.76.82-.98 1.26-2.18 1.36-3.74zm-25.54 3.54h-1.76c-2.24-.04-3.34-.04-3.72.4l-.02.02c-.38.5-.36 1.7-.32 4.06 0 .8.02 1.74.02 2.48 0 1.18 1.28 1.38 2.84 1.38.52 0 .98-.02 1.44-.02.54-.04 1.08-.04 1.52-.04.08 0 .14-.04.18-.08l.02-.02c.04-.04.06-.1.06-.18v-7.74c0-.06-.02-.14-.06-.18h-.02a.254.254 0 00-.18-.08zm28.76-13.32h-11.54v8.5l2.7.02c8.42.1 8.82.1 8.84-8.52zm-12.9 0h-8.52c-.12 0-.22-.02-.3-.06l-11.18-4.32-.12-.06-7.06-2.72v4.48L107 243.4h13.26v-3zm14.1 5.12c-.1.94-.24 1.7-.48 2.32l15.24 15.06h38.86c2.06 0 3.56-.48 4.52-1.36 1.02-.92 1.48-2.3 1.48-4.02V248h-1.94v8.32c0 1.34-.36 2.48-1.14 3.3-.72.76-1.76 1.2-3.18 1.2H150.3c-.16 0-.34-.06-.46-.2l-15.48-15.1zm-42.64-12.8L75.9 226.6v4.12l15.82 6.46v-4.46zm.86-1.1c.04 0 .08.02.12.04l7.06 2.72V219.1l-23.86.22v5.84l16.68 6.46zm15.84-160.56l6.92.08c.38 0 .68.3.68.66l-7.6-.74zm1.88 4.66l-.02.32c0 .32-.02.66-.02 1.08 0 1.46.2 2.84 1.62 2.84 1.4 0 1.62-1.38 1.62-2.84 0-.42-.02-.76-.04-1.08v-.32h-3.16zm4.36-3.24l-1.62-.02-4-.06v1.96h5.62v-1.88zm20.84 172.26l15.08 14.74h37.14c1.02 0 1.74-.3 2.22-.78.52-.56.76-1.38.76-2.38V248h-1.28c-.1 0-.22-.02-.34-.1l-5.46-3.16H135.5zm47.84-25.64H117.1c1.9 3.72 3.82 7.44 5.68 11.18.6 1.16 1.14 2.28 2.26 2.28h54.48c2.6-.02 3.54-.22 3.82-2.22V219.1zm-3.98-1.36h5.6l39.2-48.6c.12-.18.32-.28.54-.28h2.54V94.5h-16.5v22.04c0 1.16-.24 2.3-.7 3.38a9.375 9.375 0 01-1.96 2.92l-12.12 12.42c-1.72 1.76-2.92 1.92-5.52 2.28-.56.08-1.2.16-1.94.28v46.12c0 .14-.04.28-.12.4l-14.22 24.6c-.12.22-.34.34-.58.34h-72.46v8.46h78.24zm5.32 13.06c0 .26-.04.52-.12.78-.28 1.24-.84 1.82-1.92 2.1-.36.14-.78.22-1.2.22h-1.42v5.14h19.6c1.94 0 3.7-.78 4.98-2.06a7.078 7.078 0 002.08-5V219.1H184.7c0 2.3.04 4.12.06 5.64.04 1.3.06 2.42.06 3.2 0 1.16-.04 2.1-.14 2.86zm-6 3.1h-53.64c-1.96 0-2.68-1.48-3.46-3.02-1.94-3.94-4-7.86-5.98-11.78h-14.48v15.8l10.74 4.14h66.82v-5.14zm29.36-6.88h3.82v-6.04c0-.2.1-.38.24-.5l2.36-2.38c.14-.12.32-.2.48-.2h10.7v-.9l-.92-1.6-3.46-.92c-.32-.08-.54-.34-.54-.66v-7.92c0-.38.3-.68.66-.68l8.38-.14v-13.52l-21.72 27.1v8.36zm41.92-119V94.54c0-1.32.18-2.44.72-3.28.2-.3.46-.56.76-.78-1.34-1.02-1.62-2.68-1.22-4.34.16-.66.42-1.34.78-1.94.36-.62.8-1.18 1.28-1.64h-.18c-2.28 0-4.56 1.2-6.26 3.12-1.64 1.86-2.74 4.36-2.74 7.06v15.28h6.86zm3.34-18.14c.12 0 .26-.02.4-.02v.04c.74-.02 1.46-.4 2.08-1 .4-.38.76-.84 1.06-1.34.28-.5.5-1.04.64-1.58.3-1.28.08-2.54-1.02-3.16-.32-.18-.64-.28-.96-.3v.04h-.54c-.62.1-1.22.46-1.74.96-.4.38-.76.84-1.06 1.34-.28.52-.5 1.06-.64 1.58-.3 1.28-.08 2.54 1.02 3.18.24.14.5.22.76.26zM233.76 67.5h4.74v-2.94h-4.74v2.94zm4.74 1.36h-4.74v39.16h4.74V68.86zm-6.1 24.3v-4.28h-3.76c.02.4.04.82.04 1.24 0 .56-.02 1.22-.04 1.88-.02.38-.04.76-.04 1.16h3.8zm-34.06 4.06c.58 0 1.1 0 1.6-.02.52-.02 1.02-.04 1.52-.04 2.18-.02 3.88.36 3.88 2.44v17.1c0 2.56 0 3.02-1.54 4.56l-1.64 1.64c-1.64 1.66-3.3 3.32-4.52 4.4-.58.48-1.2.7-1.82.7-.4 0-.76-.08-1.12-.24-.34-.16-.66-.4-.9-.7a2.89 2.89 0 01-.72-1.94v-22.64c0-1.44.6-2.76 1.54-3.7.96-.96 2.28-1.56 3.72-1.56zm1.64 1.32c-.58.02-1.16.04-1.64.04a3.9 3.9 0 00-2.76 1.14 3.9 3.9 0 00-1.14 2.76v22.64c0 .44.14.8.36 1.06.14.16.3.28.46.36.18.08.36.12.56.12.3 0 .64-.12.94-.38 1.18-1.02 2.82-2.7 4.46-4.34l1.62-1.64c1.16-1.14 1.16-1.5 1.16-3.6V99.6c0-.94-1.12-1.1-2.54-1.1-.44 0-.96.02-1.48.04zm-11.48 37.92c.64-.1 1.24-.18 1.76-.24 2.28-.32 3.34-.48 4.74-1.9l12.12-12.44c.76-.76 1.32-1.6 1.68-2.48.4-.9.58-1.88.58-2.86V94.5H188.5v41.96zm-6.98 2.56l-62.12 10.64c-1.54.28-2.82.54-3.96.76-2.74.56-4.64.94-5.86.58-1.98-.62-2.06-2.66-.5-7.8 1.02-3.38 4.9-13.9 9.44-23.96 2.88-6.42 6.04-12.66 8.92-16.8l.5-.72c1.92-2.78 3.08-4.5 6.08-4.5h41.1c2.48 0 4.24.36 5.42 1.34 1.22 1 1.78 2.56 1.78 4.98l-.24 34.82c0 .34-.24.6-.56.66zm-62.34 9.32l61.56-10.56.22-34.24c0-1.98-.4-3.22-1.28-3.94-.9-.76-2.4-1.02-4.56-1.02h-41.1c-2.3 0-3.3 1.48-4.96 3.9l-.5.72c-2.84 4.08-5.96 10.24-8.82 16.6-4.52 10.02-8.36 20.44-9.36 23.78-1.28 4.2-1.42 5.82-.42 6.12.9.28 2.66-.08 5.22-.6 1.2-.24 2.56-.52 4-.76zM75.9 193.08c1.04-.82 2.1-1.5 3.24-2.06 1.56-.78 3.2-1.36 4.94-1.9a.71.71 0 01.2-.04h6.88c1.84 0 2.46.4 2.46 1.6 0 .5-.18 1.14-.4 1.98-.84 2.92-1.58 5.9-2.36 8.82-.06.22-.2.36-.38.44l-14.18 6.1-.02.02h-.02l-.36.16v9.78l23.86-.22V154.1c-4.04.1-7.4 1.12-10.2 2.76l-.02.06c-.12.32-.46.5-.78.42-2.38 1.56-4.32 3.56-5.9 5.84-5.94 8.52-6.96 20.74-6.96 26.46v3.44zm.78 13.32l12.96-5.58c.76-2.8 1.6-5.68 2.28-8.5.2-.76.34-1.3.34-1.64 0-.18-.26-.24-1.1-.24h-6.78c-1.66.52-3.2 1.06-4.64 1.78-1.08.54-2.1 1.18-3.06 1.96v12.22zm23.26-53.66c3.18-10.68 6.7-21.06 10.98-30.94 4.2-9.64 9.12-18.8 15.2-27.3h-10.18c-5.16 10.18-9.84 20.44-14.16 30.78-4.12 9.86-7.92 19.74-11.54 29.66 2.74-1.34 5.96-2.14 9.7-2.2zm27.84-58.24c-6.28 8.64-11.34 17.98-15.62 27.82-4.32 9.94-7.84 20.42-11.04 31.18v54.44h72.08l13.96-24.18V94.5h-59.38zm99.46-1.34l.04-1.22c.02-.58.04-1.16.04-1.82 0-2.08-.28-3.82-1.98-3.82H122.38c-2.44 0-4.14 3.48-5.54 6.36l-.24.5h110.64zm-1.6 129.62h-8.24l-.74.74v3.5h7.56l1.42-1.4v-2.84zm-10.34 4.24v-3.78c0-.18.06-.34.2-.48l1.14-1.14c.12-.12.3-.2.48-.2h8.52v-2.16h-10.42l-2 2v5.76h2.08zm24.58-42.4h-4.02v34.7h4.02v-34.7zm-5.36 0h-3.4v30.66h3.4v-30.66zm12.78-70.8l.98 15.78h59.7c3.06.02 6.3.02 8.24-3.32l5.74-9.98c.2-.32.28-.64.28-.92s-.08-.54-.2-.76a1.42 1.42 0 00-.58-.56c-.26-.16-.58-.24-.94-.24H247.3zm98.8 93.9v6.96h90.54v-6.96H346.1zm-1.34 6.96v-6.96h-2.88v6.96h2.88zm149.68 22.6c.12.86.48 1.74 1 2.54.66.98 1.56 1.82 2.64 2.4.04.02.08.04.1.06l.02.02c1.52.76 3.36 1.34 5.22 1.74 1.94.4 3.92.6 5.68.66v-1.12h-.22c-3.96 0-7.24-.8-9.52-2.02-.74-.38-1.4-.82-1.94-1.3a.241.241 0 01-.1-.1c-.98-.88-1.58-1.86-1.76-2.88h-1.12zm14.66 8.76a33.62 33.62 0 01-5.94-.68c-1.64-.34-3.24-.82-4.66-1.44v3.28h10.6v-1.16zm-11.96-2.8a8.76 8.76 0 01-2.8-2.68c-.68-1.02-1.14-2.14-1.26-3.28h-.34v9.92h4.4v-3.96zm-.2-5.96c.06.18.12.36.2.52v-.52h-.2zm1.56 2.12c.42.36.92.68 1.48.98 2.12 1.1 5.16 1.84 8.9 1.84h.22v-1.5c0-.38.3-.68.68-.68h8.24v-9.9H498.5v9.26zm-5.76-3.46h4.4v-5.8h-4.4v5.8zm25.28 5.46h-7.56v5.8h7.56v-5.8zm-7.44-27.22v6.16h7.44v-6.16h-7.44zm7.44 7.5h-8.12a.67.67 0 01-.68-.66v-6.84H498.5v11.08h19.52v-3.58zm-20.88 3.58v-11.08h-4.4v11.08h4.4zm-4.4-12.42h25.28v-3.22h-25.28v3.22zm25.28 13.78h-25.28v2.16h25.28v-2.16zm0-20.52h-25.28v2.16h25.28v-2.16zm43.3-17.3v-4.18h-5.22v4.18h5.22zm2.9 7.12a.67.67 0 11-1.34 0v-5.78h-8.34v5.78a.67.67 0 11-1.34 0v-4.2h-8.56v15.08h28.68v-15.08h-9.1v4.2zm29.04 44.12h34.3v-22.96h-34.3v22.96zm34.3 1.34H522.42v6.8h105.14v-6.8zm-49.6-24.3v22.96h13.94v-22.96h-13.94zm-4.64 22.96v-22.96h-28.68v22.96h28.68zm1.34-22.96v22.96h1.94v-22.96h-1.94zm3.3-25.36v15.08h13.94v-15.08h-13.94zm-3.3 0v15.08h1.94v-15.08h-1.94zm-34.64 48.32v-22.96h-14.2v22.96h14.2zm1.34-22.96v22.96h1.94v-22.96h-1.94zm-1.34-10.28v-15.08h-14.2v15.08h14.2zm1.34-15.08v15.08h1.94v-15.08h-1.94zm-16.88 48.32v-22.96h-2.06v22.96h2.06zm-2.06-24.32h105.14v-7.58H522.42v7.58zm-56.7 27.26l.02.66c.02 1.42.02 2.16-.32 2.68-.46.72-1.14.72-2.56.72h-.42c-1.48 0-1.74-1.16-1.74-2.68 0-.26 0-.62.02-1l.02-.38h-8.26v.66c.02 1.42.04 2.16-.3 2.68-.46.72-1.14.72-2.58.72h-.4c-1.48 0-1.76-1.16-1.76-2.68 0-.26.02-.62.02-1l.02-.38h-1.28v5.92h20.82v-5.92h-1.3zm-3.64 0l-.02.44c0 .3-.02.58-.02.94 0 .76.06 1.32.4 1.32h.42c.92 0 1.36 0 1.42-.08.12-.18.12-.8.1-1.96v-.66h-2.3zm-13.26 0v.44c-.02.3-.02.58-.02.94 0 .76.06 1.32.4 1.32h.4c.94 0 1.38 0 1.44-.08.12-.18.12-.8.1-1.96v-.66h-2.32zm-2.62-4.08h20.82v-19.72H446.2v19.72zm20.82 1.36H446.2v1.38h20.82v-1.38zm-21.5-22.42h3.38v-40.5c0-.36.3-.66.68-.66h14.06c.38 0 .68.3.68.66v40.5h3.36c.38 0 .68.3.68.66v30.4h2.04v-74.38c0-1.2-.5-2.28-1.28-3.06a4.294 4.294 0 00-3.04-1.26h-19.52c-1.2 0-2.28.48-3.06 1.26-.58.58-1 1.34-1.16 2.18h-.02v.04c-.06.26-.08.52-.08.8v74.42h2.62v-30.4c0-.36.3-.66.66-.66zm4.72-29.1h12.72v-7.08h-12.72v7.08zm12.72 3.48h-12.72v25.62h12.72v-25.62zm0-2.12h-12.72v.76h12.72v-.76zm-12.72-9.8h12.72v-2.28h-12.72v2.28zm-7.52 78.44h48.56c0-.52-.06-1.1-.56-1.1h-47.44c-.5 0-.56.58-.56 1.1zm2.92-2.46h42.7v-6.02h-42.7v6.02zm-4.76-48.56H438v6.96h2.88v-6.96zm0 8.3H369.2v12.34h9.92v-1.3c0-.36.3-.66.68-.66h3.44c.38 0 .68.3.68.66v1.3h2.22v-6.14c0-.38.3-.68.68-.68h43.76c.38 0 .68.3.68.68v17.22h9.62v-23.42zm138.34-49.12c.32.96.88 1.94 2.38 1.78l10.12-1.66c.76-.14 1.18-.42 1.38-.78.14-.24.22-.52.24-.84-.78-.14-1.26-.66-1.44-1.26-.08-.26-.1-.52-.08-.76.02-.26.08-.5.2-.74.3-.6.9-1.06 1.76-1.02.04-.24.04-.44-.04-.6-.1-.26-.46-.52-1.2-.84l-3.74-1.42c1 .56 1.64 1.46 1.96 2.48.18.6.26 1.24.2 1.88-.04.64-.2 1.26-.46 1.84l-.02.02c-.72 1.5-2.14 2.58-4.22 2.44l-7.04-.52zm24.3-4.56l3.84.28c.9.06 1.44.62 1.64 1.28l.04.12h.94c.22-.02.24-.08.28-.2.04-.18.06-.4.04-.64-.02-.26-.08-.52-.16-.78-.24-.68-.7-1.3-1.38-1.3-.42 0-.92-.02-1.4-.04l-.84-.02c-1.48-.02-2.66.1-3 1.3zm-9.2.68c-.04 0-.08 0-.14-.02l-.44-.02c-.26-.02-.44.1-.52.26-.04.06-.06.16-.06.24 0 .1 0 .18.02.26.06.16.2.32.46.34l13.52.98c.26.02.44-.1.52-.26.04-.08.06-.16.06-.24 0-.1 0-.18-.02-.26-.06-.18-.2-.32-.46-.34l-12.94-.94zm-6.74-4.72l-4.66-1.78c-1.36-.42-2.1.36-2.62 1.2l6.48.46c.28.02.54.06.8.12zm-20.88 6.14a4.8 4.8 0 01-.62-1.24c-.2-.6-.26-1.26-.22-1.88.04-.64.2-1.26.48-1.84.22-.44.5-.86.84-1.2l-14.96-.44c-.08.42-.16.82-.26 1.18l-.92 3.36 15.66 2.06zm19.98-4.92l-7.54-.54-8.56-.6h-.28c-1.34 0-2.28.72-2.74 1.68-.2.42-.32.88-.36 1.34-.02.48.02.96.16 1.38.32.98 1.1 1.82 2.38 2.06l.52.08 16.1 1.14c1.42.1 2.42-.64 2.9-1.66l.02-.02c.2-.42.32-.88.34-1.34.04-.48-.02-.96-.16-1.4-.34-1.1-1.24-2-2.78-2.12zm-66.14-.96c1.22 0 2 .66 2.34 1.54.14.32.2.68.2 1.02 0 .34-.06.7-.2 1.02-.34.88-1.12 1.54-2.34 1.54-1.22 0-2-.66-2.34-1.54-.14-.32-.2-.68-.2-1.02 0-.34.06-.7.2-1.02.34-.88 1.12-1.54 2.34-1.54zm1.1 2.04c-.16-.4-.52-.7-1.1-.7-.58 0-.94.3-1.1.7-.06.16-.1.34-.1.52s.04.36.1.52c.16.4.52.7 1.1.7.58 0 .94-.3 1.1-.7.06-.16.1-.34.1-.52s-.04-.36-.1-.52zm2.48-15.9c1.22 0 2.02.66 2.36 1.54.12.32.2.68.2 1.02 0 .34-.08.7-.2 1.02-.34.86-1.14 1.54-2.36 1.54-1.2 0-2-.66-2.34-1.54-.12-.32-.2-.68-.2-1.02 0-.34.08-.7.2-1.02.34-.88 1.14-1.54 2.34-1.54zm1.1 2.04c-.14-.4-.52-.7-1.1-.7-.56 0-.94.3-1.08.7-.06.16-.1.34-.1.52s.04.36.1.52c.14.4.52.7 1.08.7.58 0 .96-.3 1.1-.7.06-.16.1-.34.1-.52s-.04-.36-.1-.52zm-11.36-12.94c1.22 0 2 .68 2.34 1.54.14.32.2.68.2 1.02 0 .34-.06.7-.2 1.02-.34.88-1.12 1.56-2.34 1.56-1.22 0-2-.68-2.36-1.56a2.962 2.962 0 010-2.04c.36-.86 1.14-1.54 2.36-1.54zm1.1 2.04c-.16-.4-.52-.7-1.1-.7-.58 0-.94.3-1.1.7-.06.16-.1.34-.1.52s.04.36.1.52c.16.4.52.7 1.1.7.58 0 .94-.3 1.1-.7.06-.16.08-.34.08-.52s-.02-.36-.08-.52zm-15.48 2.02c1.22 0 2 .68 2.34 1.56.14.32.2.68.2 1.02 0 .34-.06.7-.2 1.02-.34.86-1.12 1.54-2.34 1.54-1.22 0-2-.68-2.34-1.54-.14-.32-.2-.68-.2-1.02 0-.34.06-.7.2-1.02.34-.88 1.12-1.56 2.34-1.56zm1.1 2.06c-.16-.4-.52-.7-1.1-.7-.58 0-.94.3-1.1.7-.06.16-.1.34-.1.52s.04.36.1.52c.16.4.52.7 1.1.7.58 0 .94-.32 1.1-.7.06-.16.1-.34.1-.52s-.04-.36-.1-.52zm-5.3 12.04c1.22 0 2 .68 2.34 1.56.14.32.2.68.2 1.02 0 .34-.06.7-.2 1.02-.34.86-1.12 1.54-2.34 1.54-1.22 0-2-.68-2.36-1.54a2.962 2.962 0 010-2.04c.36-.88 1.14-1.56 2.36-1.56zm1.1 2.06c-.16-.4-.52-.7-1.1-.7-.58 0-.94.3-1.1.7-.06.16-.1.34-.1.52s.04.36.1.52c.16.4.52.7 1.1.7.58 0 .94-.3 1.1-.7.06-.16.08-.34.08-.52s-.02-.36-.08-.52zm9.74 8.82c1.22 0 2 .68 2.34 1.54.14.32.2.68.2 1.02 0 .34-.06.7-.2 1.02-.34.88-1.12 1.56-2.34 1.56-1.22 0-2-.68-2.34-1.56-.14-.32-.2-.68-.2-1.02 0-.34.06-.7.2-1.02.34-.86 1.12-1.54 2.34-1.54zm1.1 2.04c-.16-.4-.52-.7-1.1-.7-.58 0-.94.3-1.1.7-.06.16-.1.34-.1.52s.04.36.1.52c.16.4.52.7 1.1.7.58 0 .94-.3 1.1-.7.06-.16.1-.34.1-.52s-.04-.36-.1-.52zm34.5-9.56c1.82 0 2.98 1.02 3.5 2.3a4.137 4.137 0 010 3.1c-.52 1.28-1.68 2.3-3.5 2.3s-3-1.02-3.52-2.3c-.2-.5-.28-1.02-.28-1.56 0-.52.08-1.04.28-1.54.52-1.28 1.7-2.3 3.52-2.3zm2.24 2.8c-.32-.8-1.06-1.44-2.24-1.44-1.18 0-1.94.64-2.26 1.44-.14.32-.2.68-.2 1.04 0 .38.06.72.2 1.06.32.8 1.08 1.44 2.26 1.44 1.18 0 1.92-.64 2.24-1.44.14-.34.2-.68.2-1.06 0-.36-.06-.72-.2-1.04zm-49.56-17.48l-.02.02c-1.66 1.72-3.06 3.36-3.32 4.4-.26 1.04-.04 2.44.4 5.22l.14.84.3-1.04c.3-1.02.64-2.22 1.06-3.78.42-1.56.72-2.78.98-3.82.16-.68.32-1.3.46-1.84zm30.02 1.46c-.84-.8-1.82-1.74-2.84-2.78-1.04-1.02-1.98-2-2.78-2.84-1.22-1.28-2.08-2.16-2.8-2.72-.42-.34-.82-.54-1.2-.64-1.06-.28-2.44.12-5.18.9-1.08.32-2.38.7-3.82 1.08-1.42.38-2.72.7-3.8.98h-.04c-2.76.68-4.16 1.02-4.92 1.8l-.06.06h-.02v.02c-.72.78-1.06 2.16-1.72 4.84-.26 1.1-.58 2.4-.98 3.84-.38 1.44-.76 2.74-1.06 3.82-.8 2.74-1.2 4.12-.92 5.16.28 1.06 1.32 2.04 3.38 4.02.82.8 1.8 1.74 2.84 2.76 1.02 1.04 1.96 2.02 2.76 2.84 1.98 2.06 2.96 3.1 4.02 3.38 1.04.28 2.42-.12 5.16-.92 1.08-.3 2.38-.68 3.82-1.06 1.44-.4 2.72-.72 3.82-.98h.02c2.78-.68 4.16-1.02 4.92-1.8.78-.76 1.12-2.16 1.8-4.92.26-1.1.58-2.4.98-3.84.38-1.44.76-2.74 1.08-3.82.8-2.74 1.2-4.12.9-5.16-.28-1.06-1.3-2.06-3.36-4.02zm-92.92-1.38v28.14h35.72v-28.14H431.5zm-9.02-1.36h69V123.6h-69v15.76zm-35.4 23.58v-3.28c0-.36.26-.64.6-.68l12.02-1.34c.38-.04.7.22.74.58.02.08 0 .16 0 .22l-1.3 6.04c-.08.36-.42.6-.78.52l-10.7-1.38a.672.672 0 01-.58-.68zm1.34-2.68v2.1l9.54 1.24.96-4.52-10.5 1.18zm1.88-9.78v-3.3c0-.34.28-.62.6-.66l12.02-1.36c.38-.04.7.24.76.6 0 .08 0 .14-.02.22l-1.3 6.04c-.06.36-.42.58-.78.52l-10.68-1.38a.69.69 0 01-.6-.68zm1.36-2.7v2.12l9.52 1.22.96-4.5-10.48 1.16zm1.82-10.52v-3.3c0-.34.26-.62.6-.66l12.02-1.36c.38-.04.7.24.74.6.02.08.02.16 0 .22l-1.3 6.04c-.06.36-.42.58-.78.52l-10.68-1.38a.69.69 0 01-.6-.68zm1.36-2.68l-.02 2.1 9.54 1.24.96-4.52-10.48 1.18zm-14.36 94.44v10.42h2.08v-11.7h-2.08v1.28zm-1.36.7h-9.92v1.24h9.92v-1.24zm0 2.6h-9.92v7.12h9.92v-7.12zm4.8 7.12h2.22v-7.12h-2.22v7.12zm0-8.48h2.22v-1.24h-2.22v1.24zm-33.36-14.94v23.42h13.92v-23.42h-7.24v10.34c0 .38-.3.68-.68.68h-3.8a.67.67 0 01-.66-.68v-10.34h-1.54zm-4.72 23.42v-23.42h-3.96v23.42h3.96zm1.34-23.42v23.42h2.02v-23.42h-2.02zm6.26 1.36h2.46v-1.36h-2.46v1.36zm2.46 1.36h-2.46v6.94h2.46v-6.94zm11.96-2.72h-2.04v23.42h2.04v-23.42zm19.64 23.42h42.4v-16.56h-42.4v16.56zm302.02-10.58c5.98 0 11.4 2.44 15.32 6.36a21.6 21.6 0 016.34 15.32 21.6 21.6 0 01-6.34 15.32 21.6 21.6 0 01-15.32 6.34 21.6 21.6 0 01-15.32-6.34 21.6 21.6 0 01-6.34-15.32 21.6 21.6 0 016.34-15.32c3.92-3.92 9.34-6.36 15.32-6.36zm0-23.62c9.48 0 18.28 2.92 25.56 7.9h68.96a45.12 45.12 0 0125.56-7.9c9.48 0 18.28 2.92 25.56 7.9h34.4l-.92-7.12-29.5-21.4h-101.2l-10.44 10.44-.02.02-.02.02-.02.02h-.02v.02h-.04v.02h-.02v.02h-.04v.02h-.04l-.02.02h-.04l-.02.02h-.08v.02H695.2v-.02h-.1v-.02h-.06v-.02H695v-.02h-.04v-.02h-.04v-.02h-.02l-.02-.02h-.02v-.02h-.02v-.02h-.02v-.02l-13.26-10.44h-15.1l-28.44 21.72-.82 6.8h26.76a45.12 45.12 0 0125.56-7.9zm27.42 9.24c1.62 1.24 3.16 2.58 4.6 4.02 6.24 6.24 10.66 14.28 12.42 23.28h8.66l.5-2.94v-6.36l-10.72-10.94a.667.667 0 01-.18-.46v-6.6h-15.28zm17.28 28.66c.06.44.14.9.2 1.36v.08l.04.26v.1l.02.04v.12l.02.08v.04l.02.06v.16l.06.44.06.58v.02l.12 1.7v.32l.02.1v.22h6.64l.96-5.68h-8.16zm.6 7.04v.36c0 4.2-.58 8.28-1.66 12.14h1.9c.04-.26.1-.52.18-.76.44-1.3 1.46-2.42 3.1-2.42h1.24l1.6-9.32h-6.36zm-90.44-3.32c.88-11.04 5.72-20.96 13.12-28.36 1.42-1.44 2.96-2.78 4.6-4.02h-25.08l-3.2 26.28 10.56 6.1zm34.18 41.8l.26.06c1.42.38 2.08.56 2.34 1.4v.06c.14.6-.06 1.32-.44 2.66l-.2.72c2.12.44 4.28.72 6.5.84l-.02-.44c0-.4-.02-.78-.02-1.06 0-1.54.28-2.72 1.78-2.72h.3c1.48 0 2.16 0 2.6.76.34.52.32 1.3.3 2.74v.72c2.22-.12 4.38-.4 6.5-.84l-.14-.44c-.12-.36-.22-.72-.3-1-.4-1.5-.44-2.7 1.02-3.1l.3-.08c1.4-.38 2.06-.56 2.7.06.46.42.64 1.18 1 2.56l.2.74c2.08-.68 4.1-1.52 6.02-2.5l-.12-.22c-.2-.3-.4-.62-.56-.88-.78-1.36-1.14-2.52.18-3.28l.26-.16c1.28-.74 1.88-1.08 2.66-.66.54.32.92.98 1.64 2.24l.26.48c1.82-1.2 3.54-2.52 5.18-3.98l-.2-.16c-.28-.26-.56-.52-.76-.72l-.02-.04c-1.08-1.08-1.72-2.12-.66-3.18l.22-.22c1.04-1.04 1.54-1.52 2.38-1.32.62.16 1.16.72 2.16 1.74l.38.4c1.46-1.64 2.8-3.36 4-5.2l-.44-.22c-.34-.18-.66-.36-.9-.5l-.04-.02c-1.32-.78-2.2-1.6-1.44-2.88l.14-.28c.74-1.26 1.08-1.86 1.96-1.88.62 0 1.28.38 2.52 1.12l.68.4c.98-1.94 1.82-3.98 2.52-6.06l-.5-.12h-.02c-.34-.08-.68-.16-.98-.24-1.5-.4-2.58-.96-2.18-2.42v-.04l.06-.26c.38-1.42.56-2.08 1.4-2.34h.08c.58-.16 1.32.06 2.66.44l.76.2c.44-2.12.72-4.28.86-6.5l-.52.02c-.38 0-.76.02-1.04.02-1.56 0-2.72-.28-2.72-1.78v-.3c-.02-1.48-.02-2.16.74-2.62.54-.32 1.3-.3 2.74-.28h.8c-.12-2.22-.42-4.4-.84-6.52l-.52.16c-.34.12-.7.22-1 .3-1.5.4-2.7.44-3.08-1.02l-.08-.3c-.38-1.4-.56-2.08.04-2.7.44-.46 1.18-.64 2.58-1l.78-.2c-.7-2.1-1.54-4.12-2.52-6.08l-.44.28c-.32.2-.62.4-.9.54-1.34.78-2.5 1.14-3.24-.16l-.16-.28c-.74-1.26-1.08-1.86-.66-2.62.3-.56.98-.92 2.24-1.64l.7-.38a46.242 46.242 0 00-4-5.22l-.36.38c-.26.28-.52.56-.72.76l-.04.04c-1.08 1.06-2.1 1.68-3.14.64l-.22-.22c-1.04-1.04-1.54-1.52-1.32-2.38.14-.6.7-1.14 1.72-2.14l.58-.58a41.77 41.77 0 00-4.32-3.38v-.02h-.02c-.28-.2-.58-.4-.86-.6l-.26.48c-.16.3-.32.6-.5.92-.78 1.34-1.6 2.22-2.9 1.46l-.04-.02-.22-.12c-1.28-.74-1.88-1.08-1.88-1.96-.02-.64.38-1.28 1.1-2.52l.42-.7c-1.94-.98-3.98-1.84-6.08-2.52l-.12.52v.02c-.08.34-.16.68-.24.98-.4 1.5-.96 2.58-2.42 2.18h-.04l-.26-.08c-1.42-.36-2.08-.54-2.32-1.4l-.02-.06c-.14-.58.06-1.32.44-2.66l.22-.78c-2.12-.44-4.3-.72-6.52-.84l.02.52c.02.38.04.76.04 1.04 0 1.54-.28 2.72-1.78 2.72h-.32c-1.46 0-2.16.02-2.6-.74-.32-.54-.32-1.3-.3-2.74v-.8c-2.22.12-4.38.42-6.5.86l.14.48c.12.36.22.72.3 1.02.4 1.5.44 2.7-1 3.08l-.3.08c-1.42.38-2.08.56-2.72-.04-.44-.44-.64-1.18-1-2.58l-.2-.76a41.18 41.18 0 00-6.06 2.52l.28.42c.18.32.38.62.54.9.78 1.34 1.12 2.5-.18 3.24l-.26.16c-1.28.74-1.86 1.08-2.64.66-.54-.3-.92-.98-1.62-2.24l-.38-.68c-.28.2-.56.38-.84.58h-.02l-.02.02c-1.5 1.04-2.96 2.18-4.32 3.4l.36.34c.28.26.54.52.74.72l.04.04c1.08 1.08 1.7 2.1.64 3.14l-.22.22c-1.04 1.04-1.52 1.54-2.36 1.32-.62-.16-1.16-.7-2.16-1.72l-.54-.56a45.31 45.31 0 00-3.98 5.2l.42.24c.3.16.6.32.92.5 1.34.76 2.22 1.6 1.48 2.9l-.02.04-.14.22c-.72 1.28-1.08 1.88-1.96 1.88-.62.02-1.28-.38-2.52-1.1l-.66-.4a42.4 42.4 0 00-2.5 6.06l.46.12h.04c.34.08.68.16.98.24 1.5.4 2.56.96 2.18 2.42l-.02.04-.06.26c-.38 1.42-.56 2.08-1.4 2.32l-.06.02c-.6.14-1.34-.06-2.66-.44l-.74-.2c-.46 2.26-.76 4.58-.86 6.94.84-.02 1.98 0 2.6.06.02 0 .56.06.92.3.28.18.42.38.54.68.06.2.12.54.1.98-.02.1-.02.28 0 .44h-1.34v-.48c.04-.64-.7-.68-1.38-.68l-1.48.02v.68c0 .54 0 1 .02 1.54l1.46.02c.64.02 1-.08 1.18-.2.28-.18.2-.68.2-.9h1.34c0 1.02-.06 1.4-.26 1.68-.42.6-1.22.66-1.3.66-.52.08-1.46.06-2.56.06.14 2.06.42 4.16.84 6.12l.44-.12c.36-.12.72-.22 1-.3 1.5-.4 2.7-.44 3.1 1l.08.3c.38 1.42.56 2.08-.06 2.72-.44.44-1.18.64-2.56 1l-.72.18c.68 2.08 1.52 4.1 2.5 6.04l.4-.24c.3-.2.6-.38.88-.54 1.34-.78 2.5-1.12 3.26.18l.14.26c.74 1.28 1.08 1.86.66 2.64-.3.54-.98.92-2.22 1.62l-.64.36c1.2 1.84 2.54 3.56 3.98 5.2l.32-.34c.26-.28.5-.54.7-.74l.04-.04c1.08-1.08 2.1-1.7 3.16-.64l.22.22c1.04 1.04 1.52 1.52 1.3 2.36-.14.62-.7 1.16-1.72 2.16l-.52.5c1.62 1.46 3.36 2.8 5.2 4l.2-.4c.16-.3.32-.6.5-.92.78-1.34 1.6-2.22 2.9-1.48l.04.02.22.14c1.28.72 1.88 1.08 1.9 1.96 0 .62-.38 1.28-1.12 2.52l-.38.64c1.94.96 3.96 1.82 6.06 2.5l.1-.44v-.04c.08-.34.16-.68.24-.98.4-1.5.96-2.56 2.42-2.18l.04.02zm-.08 1.36l-.3-.08c-.36-.1-.58.46-.78 1.22-.08.3-.16.62-.22.94l-.12.5 2.18.58.2-.7c.3-1.1.48-1.72.42-1.96v-.04c-.04-.1-.46-.22-1.38-.46zm-9.84-4.2l-.26-.16c-.32-.18-.68.3-1.08.98-.14.24-.3.56-.48.88l-.22.42 1.96 1.14.36-.62c.62-1.04.94-1.58.94-1.82 0-.12-.4-.34-1.22-.82zm-8.42-6.6l-.2-.22c-.26-.26-.72.1-1.28.64l-.02.04c-.26.26-.46.48-.68.72l-.34.34 1.6 1.6.52-.5c.86-.84 1.3-1.28 1.36-1.52.04-.12-.28-.42-.96-1.1zm-6.42-8.54l-.14-.28c-.2-.32-.74-.08-1.42.32-.3.16-.58.34-.86.52l-.4.26 1.12 1.94.64-.34c1.04-.6 1.6-.9 1.7-1.12.06-.1-.16-.48-.64-1.3zm-3.98-9.94l-.08-.28c-.1-.36-.68-.28-1.44-.08-.34.1-.64.2-.96.3l-.46.12.58 2.2.7-.18c1.16-.3 1.78-.46 1.94-.64.08-.08-.04-.52-.28-1.44zm.22-21.18l.08-.32c.1-.34-.46-.56-1.22-.78-.3-.08-.62-.14-.94-.22l-.5-.1-.58 2.18.7.18c1.1.32 1.7.48 1.96.44l.04-.02c.1-.02.22-.44.46-1.36zm4.2-9.84l.16-.28c.18-.32-.3-.68-.98-1.06-.24-.14-.56-.3-.88-.48l-.42-.22-1.14 1.94.62.38c1.04.6 1.58.94 1.82.92.12 0 .34-.38.82-1.2zm6.6-8.42l.22-.22c.26-.26-.1-.72-.64-1.26l-.04-.04c-.26-.24-.48-.46-.72-.68l-.34-.32-1.6 1.6.5.52c.84.84 1.28 1.3 1.52 1.36.12.02.42-.28 1.1-.96zm8.54-6.42l.28-.16c.32-.18.08-.74-.32-1.42-.16-.28-.34-.56-.52-.84l-.26-.4-1.94 1.12.34.64c.58 1.02.9 1.58 1.12 1.7.1.06.48-.16 1.3-.64zm9.92-4l.3-.08c.36-.08.28-.68.08-1.44l-.3-.96-.14-.46-2.18.6.18.7c.3 1.14.46 1.76.64 1.94.08.08.5-.04 1.42-.3zm10.62-1.28h.32c.36 0 .44-.6.44-1.38-.02-.36-.02-.68-.04-1l-.02-.48h-2.26v.74c-.02 1.18-.02 1.82.1 2.02.06.12.52.1 1.46.1zm10.58 1.52l.3.08c.36.08.58-.48.8-1.24.08-.3.14-.62.22-.94l.1-.48-2.18-.58-.18.68c-.32 1.12-.48 1.72-.44 1.98v.02c.04.12.46.22 1.38.48zm9.84 4.18l.28.16c.32.18.68-.3 1.06-.98.14-.22.3-.54.48-.88l.22-.42-1.96-1.12-.36.62c-.6 1.02-.94 1.58-.92 1.82 0 .12.38.34 1.2.8zm8.42 6.6l.22.22c.26.26.72-.1 1.26-.64l.04-.04c.24-.24.46-.48.68-.7l.32-.36-1.6-1.6-.52.52c-.84.82-1.3 1.26-1.36 1.5-.04.12.28.44.96 1.1zm6.42 8.56l.16.26c.18.32.74.08 1.42-.32.28-.16.56-.32.84-.5l.4-.26-1.12-1.96-.64.36c-1.04.58-1.58.9-1.7 1.1-.06.12.16.5.64 1.32zm3.98 9.92l.08.3c.1.36.7.26 1.46.06.32-.08.64-.18.96-.28l.46-.14-.6-2.18-.7.18c-1.14.3-1.76.46-1.94.62-.08.1.04.52.28 1.44zm1.3 10.62v.3c0 .38.6.44 1.38.44.36 0 .68-.02 1-.02l.46-.02v-2.26h-.72c-1.18-.02-1.82-.04-2.02.1-.12.06-.1.5-.1 1.46zm-1.52 10.58l-.08.3c-.08.36.48.58 1.24.78.3.08.62.16.94.22l.48.12.58-2.18-.68-.2c-1.12-.3-1.72-.48-1.98-.42h-.02c-.12.04-.24.46-.48 1.38zm-4.18 9.84l-.16.26c-.18.32.28.68.94 1.06l.04.02c.32.18.6.32.88.48l.42.22 1.12-1.96-.62-.36c-1.02-.62-1.56-.94-1.82-.94-.12 0-.34.38-.8 1.22zm-25.08 18.82l-.3.08c-.36.1-.26.68-.06 1.44.08.34.18.64.28.96l.14.46 2.18-.58-.18-.7c-.3-1.16-.46-1.78-.62-1.94-.1-.08-.52.04-1.44.28zm-10.62 1.28h-.3c-.38 0-.44.6-.44 1.38 0 .38 0 .68.02 1l.02.48h2.26v-.72c.02-1.18.02-1.82-.1-2.04-.06-.1-.5-.1-1.46-.1zm29.24-11.54l-.22.22c-.26.26.1.72.64 1.26l.04.04c.26.26.48.46.72.68l.26.26c.3-.28.58-.56.86-.84.24-.26.5-.52.76-.78l-.44-.44c-.84-.84-1.28-1.3-1.52-1.36-.12-.04-.42.28-1.1.96zm-8.6 6.46l-.26.14c-.32.2-.08.76.32 1.44.16.28.34.56.52.84l.18.32c.68-.36 1.32-.74 1.98-1.14l-.3-.54c-.58-1.04-.9-1.6-1.12-1.72-.1-.06-.48.18-1.32.66zm-20.18-49.18c3.66 0 6.98 1.48 9.38 3.88l.04.04c2.38 2.4 3.86 5.7 3.86 9.36 0 3.66-1.48 6.98-3.9 9.38-2.4 2.4-5.72 3.9-9.38 3.9-3.66 0-6.98-1.5-9.38-3.9a13.16 13.16 0 01-3.9-9.38c0-3.66 1.48-6.98 3.88-9.4h.02c2.4-2.4 5.72-3.88 9.38-3.88zm-8.82 5.24c1.16.92.7 2.42-.04 4.1l-.36.8c-.16.38-.34.76-.52 1.18-.24.56-.68.98-1.2 1.2-.3.14-.64.2-.98.18v1.12c1.44-.14 2.18 1.22 2.84 2.9l.32.88c.16.4.32.82.46 1.16.24.58.22 1.18 0 1.7-.12.3-.3.58-.56.82l.42.42c.12.14.24.24.38.36.9-1.1 2.4-.66 4.06.08l.8.36c.38.16.76.34 1.18.52.58.24 1 .68 1.22 1.2.12.3.18.64.16.96.22.02.42.02.64.02h.52c-.14-1.44 1.24-2.18 2.92-2.84l.82-.3c.38-.16.78-.3 1.2-.48.58-.22 1.18-.2 1.72 0 .3.12.56.32.8.56.16-.14.3-.28.46-.44.1-.1.22-.22.32-.34-1.14-.9-.7-2.42.04-4.08l.36-.8c.18-.38.36-.76.52-1.18.24-.58.68-1 1.22-1.22.3-.12.66-.18 1-.16.02-.22.02-.44.02-.64v-.52c-1.44.14-2.18-1.24-2.84-2.92l-.3-.82c-.14-.4-.3-.8-.46-1.22a2.18 2.18 0 010-1.7c.12-.3.3-.58.56-.8l-.42-.42-.02-.04c-.12-.12-.26-.24-.38-.36-.9 1.18-2.42.74-4.12 0l-.8-.36a16.1 16.1 0 00-1.18-.52 2.24 2.24 0 01-1.2-1.22c-.14-.32-.2-.66-.18-1.02-.18 0-.38-.02-.58-.02-.18 0-.36.02-.54.02.18 1.46-1.2 2.22-2.9 2.88l-.88.34c-.4.16-.82.3-1.18.46-.56.22-1.16.2-1.7 0-.3-.14-.6-.34-.82-.6-.14.14-.28.26-.42.4-.12.14-.26.26-.38.4zm-1.26 3.56c.42-.98.72-1.84.48-2.34-.52.72-.94 1.48-1.3 2.3-.34.82-.58 1.68-.74 2.58l.18-.06c.2-.08.38-.26.48-.48.16-.38.36-.8.54-1.22l.36-.78zm-.26 8.4c-.38-.96-.78-1.78-1.3-1.96.14.88.38 1.74.72 2.54.34.82.78 1.62 1.3 2.34.02-.06.06-.1.08-.16.08-.22.08-.46 0-.68-.18-.42-.34-.82-.48-1.22l-.32-.86zm5.8 6.16c-.96-.42-1.82-.72-2.34-.48.72.52 1.5.94 2.32 1.3.8.34 1.66.58 2.56.74-.02-.06-.02-.12-.06-.18a.897.897 0 00-.46-.48c-.4-.16-.82-.36-1.24-.54l-.78-.36zm14.88-14.02c.38.98.78 1.82 1.32 2-.16-.86-.4-1.72-.74-2.54-.32-.82-.76-1.6-1.28-2.34-.04.04-.06.1-.08.16-.08.2-.1.44 0 .68.16.38.32.82.48 1.24l.3.8zm-6.42 14.28c-.98.38-1.8.78-1.98 1.3.86-.14 1.72-.38 2.54-.72.82-.32 1.6-.76 2.34-1.28a.599.599 0 00-.16-.08c-.22-.1-.46-.1-.68 0-.38.14-.82.32-1.26.48l-.8.3zm6.12-5.8c-.44.96-.74 1.82-.5 2.34.52-.72.96-1.5 1.3-2.32.34-.8.6-1.66.74-2.56-.06 0-.12.02-.18.04-.2.1-.38.26-.46.48-.16.4-.36.82-.56 1.24l-.34.78zM694 240.5c.96.42 1.84.74 2.34.48-.72-.5-1.48-.94-2.32-1.28-.8-.34-1.66-.6-2.56-.74.02.06.04.12.06.16.08.22.26.4.48.48.38.16.8.36 1.22.56l.78.34zm-8.42-.24c.98-.38 1.8-.78 1.98-1.32-.88.16-1.74.4-2.54.74-.82.34-1.62.76-2.34 1.28.04.04.1.06.16.08.2.1.46.1.68 0 .42-.16.82-.32 1.22-.46l.84-.32zm3.94 4.5c2.74 0 4.5 1.5 5.26 3.44.3.74.46 1.54.46 2.34 0 .8-.16 1.58-.46 2.34-.76 1.92-2.52 3.44-5.26 3.44-2.74 0-4.5-1.52-5.26-3.44-.3-.76-.46-1.56-.46-2.34 0-.8.16-1.6.46-2.34.76-1.94 2.52-3.44 5.26-3.44zm4.02 3.94c-.58-1.46-1.92-2.6-4.02-2.6-2.1 0-3.44 1.14-4.02 2.6-.22.58-.34 1.2-.34 1.84 0 .62.12 1.26.34 1.82.58 1.46 1.92 2.6 4.02 2.6 2.1 0 3.44-1.14 4.02-2.6.22-.56.34-1.2.34-1.82 0-.64-.12-1.26-.34-1.84zm-4.02-23.26c6.92 0 13.2 2.82 17.74 7.36 4.54 4.54 7.34 10.8 7.34 17.74 0 6.92-2.8 13.2-7.34 17.74a25.017 25.017 0 01-17.74 7.34c-6.94 0-13.2-2.8-17.74-7.34-4.54-4.54-7.36-10.82-7.36-17.74 0-6.94 2.82-13.2 7.36-17.74 4.54-4.54 10.8-7.36 17.74-7.36zm16.78 8.3c-4.3-4.28-10.22-6.94-16.78-6.94-6.56 0-12.5 2.66-16.78 6.94-4.3 4.3-6.96 10.24-6.96 16.8 0 6.54 2.66 12.48 6.96 16.78 4.28 4.3 10.22 6.96 16.78 6.96 6.56 0 12.48-2.66 16.78-6.96 4.3-4.3 6.96-10.24 6.96-16.78 0-6.56-2.66-12.5-6.96-16.8zm-2.42 2.42c-3.68-3.66-8.76-5.94-14.36-5.94-5.62 0-10.7 2.28-14.36 5.94a20.269 20.269 0 00-5.96 14.38c0 5.6 2.28 10.68 5.96 14.36 3.66 3.68 8.74 5.94 14.36 5.94 5.6 0 10.68-2.26 14.36-5.94 3.68-3.68 5.96-8.76 5.96-14.36 0-5.62-2.28-10.7-5.96-14.38zm66.08 13.66v.32c0 1.46 0 2.14-.76 2.6-.52.32-1.3.32-2.74.3h-.74c.12 2.2.42 4.38.86 6.48l.44-.12c.36-.12.7-.22 1-.3 1.5-.4 2.7-.44 3.1 1l.08.3c.38 1.42.56 2.08-.06 2.72-.44.44-1.18.64-2.56 1l-.72.18c.68 2.08 1.52 4.1 2.5 6.04l.4-.24c.3-.2.6-.38.88-.54 1.34-.78 2.5-1.12 3.26.18l.14.26c.74 1.28 1.08 1.86.66 2.64-.3.54-.98.92-2.22 1.62l-.64.36c1.2 1.84 2.54 3.56 3.98 5.2l.32-.34c.24-.28.5-.54.7-.74l.04-.04c1.08-1.08 2.1-1.7 3.16-.64l.22.22c1.04 1.04 1.52 1.52 1.32 2.36-.16.62-.72 1.16-1.74 2.16l-.52.5c1.62 1.46 3.36 2.8 5.2 4l.2-.4c.16-.3.32-.6.5-.92.78-1.34 1.6-2.22 2.9-1.48l.04.02.22.14c1.28.72 1.88 1.08 1.9 1.96 0 .62-.38 1.28-1.12 2.52l-.38.64c1.94.96 3.96 1.82 6.06 2.5l.1-.44v-.04c.08-.34.16-.68.24-.98.4-1.5.96-2.56 2.42-2.18l.04.02.26.06c1.42.38 2.08.56 2.32 1.4l.02.06c.14.6-.06 1.32-.44 2.66l-.2.72c2.12.44 4.28.72 6.5.84l-.02-.44c-.02-.4-.02-.78-.02-1.06 0-1.54.28-2.72 1.78-2.72h.3c1.48 0 2.16 0 2.62.76.32.52.3 1.3.28 2.74v.72c2.22-.12 4.38-.4 6.5-.84l-.14-.44c-.12-.36-.22-.72-.3-1-.4-1.5-.44-2.7 1.02-3.1l.3-.08c1.4-.38 2.06-.56 2.7.06.46.42.64 1.18 1 2.56l.18.74c2.1-.68 4.12-1.52 6.04-2.5l-.12-.22c-.2-.3-.4-.62-.56-.88-.78-1.36-1.14-2.52.18-3.28l.28-.16c1.26-.74 1.86-1.08 2.64-.66.54.32.92.98 1.64 2.24l.26.48c1.82-1.2 3.54-2.52 5.18-3.98l-.2-.16c-.28-.26-.56-.52-.76-.72l-.02-.04c-1.1-1.08-1.72-2.12-.66-3.18l.22-.22c1.04-1.04 1.54-1.52 2.38-1.32.62.16 1.16.72 2.16 1.74l.4.4c1.44-1.64 2.78-3.36 3.98-5.2l-.44-.22c-.34-.18-.66-.36-.9-.5l-.04-.02c-1.32-.78-2.2-1.6-1.44-2.88l.14-.28c.74-1.26 1.08-1.86 1.96-1.88.62 0 1.28.38 2.52 1.12l.68.4c.98-1.94 1.82-3.98 2.52-6.06l-.5-.12h-.02c-.34-.08-.68-.16-.98-.24-1.5-.4-2.58-.96-2.2-2.42l.02-.04.06-.26c.38-1.42.56-2.08 1.42-2.34h.04c.6-.16 1.34.06 2.68.44l.76.2c.44-2.12.72-4.28.84-6.5l-.5.02c-.38 0-.76.02-1.04.02-1.54 0-2.74-.28-2.72-1.78v-.3c-.02-1.48-.02-2.16.74-2.62.54-.32 1.3-.3 2.74-.28h.8c-.12-2.22-.42-4.4-.86-6.52l-.5.16c-.36.12-.7.22-1 .3-1.5.4-2.7.44-3.08-1.02l-.08-.3c-.4-1.4-.58-2.08.04-2.7.44-.46 1.18-.64 2.58-1l.78-.2c-.7-2.1-1.54-4.12-2.52-6.08l-.44.28c-.32.2-.62.4-.9.54-1.34.78-2.5 1.14-3.24-.16l-.16-.28c-.74-1.26-1.08-1.86-.66-2.62.3-.56.98-.92 2.22-1.64l.72-.38a48.713 48.713 0 00-4-5.22l-.36.38c-.26.28-.52.56-.72.76l-.04.04c-1.08 1.06-2.1 1.68-3.14.64l-.22-.22c-1.04-1.04-1.54-1.52-1.32-2.38.14-.6.7-1.14 1.72-2.14l.58-.58c-1.36-1.2-2.8-2.34-4.3-3.38h-.02v-.02h-.02c-.28-.2-.58-.4-.86-.6l-.26.48c-.16.3-.32.6-.5.92-.78 1.34-1.6 2.22-2.9 1.46l-.04-.02-.22-.12c-1.28-.74-1.88-1.08-1.88-1.96-.02-.64.38-1.28 1.1-2.52l.42-.7c-1.94-.98-3.98-1.84-6.08-2.52l-.12.52v.02c-.08.34-.16.68-.24.98-.4 1.5-.96 2.58-2.42 2.18h-.04l-.26-.08c-1.42-.36-2.08-.54-2.32-1.4l-.02-.06c-.14-.58.06-1.32.44-2.66l.22-.78c-2.12-.44-4.3-.72-6.52-.84l.02.52c.02.38.04.76.04 1.04-.02 1.54-.28 2.72-1.78 2.72H810c-1.46 0-2.16.02-2.6-.74-.32-.54-.32-1.3-.3-2.74v-.8c-2.22.12-4.38.42-6.5.86l.14.48c.12.36.22.72.3 1.02.4 1.5.44 2.7-1 3.08l-.3.08c-1.42.38-2.08.56-2.72-.04-.44-.44-.64-1.18-1-2.58l-.2-.76a41.18 41.18 0 00-6.06 2.52l.28.42c.18.32.38.62.54.9.78 1.34 1.12 2.5-.18 3.24l-.26.16c-1.28.74-1.86 1.08-2.64.66-.54-.3-.92-.98-1.62-2.24l-.38-.68c-.28.2-.56.38-.84.58h-.02l-.02.02c-1.5 1.04-2.96 2.18-4.32 3.4l.36.34c.28.26.54.52.74.72l.04.04c1.08 1.08 1.7 2.1.64 3.14l-.22.22c-1.04 1.04-1.52 1.54-2.36 1.32-.62-.16-1.16-.7-2.16-1.72l-.54-.56a45.31 45.31 0 00-3.98 5.2l.42.24c.3.16.6.32.92.5 1.34.76 2.22 1.6 1.48 2.9l-.04.04-.12.22c-.74 1.28-1.08 1.88-1.96 1.88-.62.02-1.28-.38-2.52-1.1l-.66-.4a42.4 42.4 0 00-2.5 6.06l.46.12h.04c.34.08.68.16.98.24 1.5.4 2.56.96 2.18 2.42l-.02.04-.06.26c-.38 1.42-.56 2.08-1.4 2.32l-.06.02c-.6.14-1.34-.06-2.66-.44l-.74-.2c-.06.3-.12.62-.18.94v.06h-.02v.02c-.22 1.2-.38 2.42-.5 3.66l-.02.14v.14l-.02.04v.18l-.02.04v.22l-.02.06v.06l-.06.94.46-.02c.4-.02.78-.04 1.04-.04 1.56 0 2.74.28 2.74 1.78zm-1.34.32v-.32c0-.36-.6-.44-1.4-.44-.36.02-.68.02-.98.04l-.48.02v2.24l.72.02c1.18.02 1.82.02 2.04-.1.1-.06.1-.52.1-1.46zm116.34-2.84h20.8v-5.9h-1.24v.64c.02 1.42.02 2.18-.32 2.7-.46.7-1.12.7-2.56.7h-.42c-1.48 0-1.74-1.16-1.74-2.66 0-.26.02-.64.02-1l.02-.38h-8.26l.02.64c0 1.42.02 2.18-.32 2.7-.46.7-1.14.7-2.56.7h-.42c-1.48 0-1.76-1.16-1.76-2.66 0-.26.02-.64.04-1v-.38h-1.3v5.9zm10.06-78.64c0-2.16.04-3.98.06-5.42.04-2.1.06-3.28-.04-3.88-.06-.28-.28-.28-.76-.26l-.64.02h-.02l-.02.02v8.82c.42.32.9.54 1.42.7zm-2.76-2.24v-7.28c0-.36.14-.7.4-.96s.6-.42.98-.42h.6c1.28-.04 1.86-.06 2.12 1.34.14.74.1 1.98.06 4.16-.02 1.38-.06 3.14-.06 5.6h3.32v-9.72c0-.38.16-.72.4-.96.24-.26.6-.42.98-.42h.6c1.28-.04 1.86-.06 2.12 1.34.12.74.1 1.98.06 4.16-.02 1.36-.06 3.14-.06 5.6h3.32v-9.72c0-.38.14-.72.4-.96.24-.26.6-.42.98-.42h.6c1.28-.04 1.86-.06 2.12 1.34.12.74.1 1.98.06 4.16-.02 1.36-.06 3.14-.06 5.6h3.32v-9.72c0-.38.14-.72.4-.96.24-.26.6-.42.98-.42h.6c1.28-.04 1.86-.06 2.12 1.34.12.74.1 1.98.06 4.16-.02 1.36-.06 3.14-.06 5.6h3.32v-9.72c0-.38.14-.72.4-.96.24-.26.6-.42.98-.42h.6c1.28-.04 1.84-.06 2.1 1.34.14.74.12 1.98.08 4.16-.02 1.36-.06 3.14-.06 5.6h3.3v-9.72c0-.38.16-.72.42-.96.24-.26.6-.42.98-.42h.6c1.28-.04 1.84-.06 2.1 1.34.14.74.12 1.98.08 4.16-.02 1.36-.06 3.14-.06 5.6h4.1v-9.76c0-.36.14-.7.38-.94.26-.24.58-.4.96-.4h.54c1.26-.04 1.8-.06 2.06 1.36.12.7.1 1.9.06 4.04-.04 1.38-.06 3.18-.08 5.7h3.76v-9.76c0-.36.16-.7.4-.94.24-.24.56-.4.94-.4h.54c1.26-.04 1.8-.06 2.06 1.36.12.7.1 1.9.06 4.04-.04 1.38-.06 3.18-.08 5.7h3.76v-9.76c0-.36.14-.7.4-.94.24-.24.56-.4.94-.4h.54c1.26-.04 1.82-.06 2.06 1.36.12.7.1 1.9.06 4.04-.04 1.38-.06 3.18-.08 5.7h3.76v-9.76c0-.36.16-.7.4-.94.24-.24.56-.4.94-.4h.54c1.26-.04 1.82-.06 2.06 1.36.12.7.1 1.9.06 4.04-.04 1.38-.06 3.18-.08 5.7h3.76v-9.76c0-.36.16-.7.4-.94.24-.24.56-.4.94-.4h.54c1.26-.04 1.82-.06 2.06 1.36.12.7.1 1.9.06 4.04-.02 1.38-.06 3.18-.06 5.7h3.12l.1-.02v-9.74a1.33 1.33 0 011.34-1.34h.56c1.22-.04 1.76-.06 2 1.26.14.66.12 1.78.08 3.8-.02.94-.04 2.12-.06 3.66.38-.66.6-1.42.6-2.24v-15.96c0-1.26-.52-2.4-1.36-3.24l-.04-.04a4.533 4.533 0 00-3.22-1.32h-.5c.02 2.46.04 4.22.08 5.58.04 2.2.06 3.44-.08 4.16-.26 1.42-.82 1.4-2.12 1.36l-.6-.02c-.38 0-.72-.14-.98-.4l-.04-.04c-.22-.24-.36-.58-.36-.94v-9.7h-3.3c0 2.46.04 4.22.06 5.58.04 2.2.06 3.44-.08 4.16-.26 1.42-.82 1.4-2.1 1.36l-.62-.02c-.38 0-.72-.14-.96-.4l-.04-.04a1.33 1.33 0 01-.38-.94v-9.7h-3.3c0 2.46.04 4.22.06 5.58.04 2.2.06 3.44-.06 4.16-.26 1.42-.84 1.4-2.12 1.36l-.6-.02c-.38 0-.74-.14-.98-.4l-.04-.04c-.24-.24-.36-.58-.36-.94v-9.7h-3.32c0 2.46.04 4.22.06 5.58.04 2.2.06 3.44-.06 4.16-.26 1.42-.84 1.4-2.12 1.36l-.6-.02c-.38 0-.72-.14-.98-.4l-.04-.04c-.22-.24-.36-.58-.36-.94v-9.7h-3.32c.02 2.46.04 4.22.08 5.58.04 2.2.06 3.44-.08 4.16-.26 1.42-.84 1.4-2.12 1.36l-.6-.02c-.38 0-.72-.14-.98-.4l-.04-.04c-.22-.24-.36-.58-.36-.94v-9.7h-3.4c0 2.46.04 4.22.06 5.58.04 2.2.08 3.44-.06 4.16-.26 1.42-.84 1.4-2.12 1.36l-.6-.02c-.38 0-.74-.14-.98-.4l-.04-.04c-.22-.24-.36-.58-.36-.94v-9.7H930c0 2.46.04 4.22.06 5.58.04 2.2.06 3.44-.06 4.16-.28 1.42-.84 1.4-2.12 1.36l-.6-.02c-.38 0-.74-.14-.98-.4l-.04-.04c-.24-.24-.36-.58-.36-.94v-9.7h-3.58c0 2.46.04 4.22.06 5.58.04 2.2.06 3.44-.08 4.16-.26 1.42-.82 1.4-2.1 1.36l-.62-.02c-.38 0-.72-.14-.96-.4l-.06-.04c-.22-.24-.36-.58-.36-.94v-9.7h-3.58c.02 2.46.04 4.22.08 5.58.04 2.2.06 3.44-.08 4.16-.26 1.42-.82 1.4-2.12 1.36l-.6-.02c-.38 0-.72-.14-.98-.4l-.04-.04c-.22-.24-.36-.58-.36-.94v-9.7h-3.58c.02 2.46.04 4.22.06 5.58.06 2.2.08 3.44-.06 4.16-.26 1.42-.84 1.4-2.12 1.36l-.6-.02c-.38 0-.72-.14-.98-.4l-.04-.04c-.22-.24-.36-.58-.36-.94v-9.7h-3.58c0 2.46.04 4.22.06 5.58.04 2.2.08 3.44-.06 4.16-.26 1.42-.84 1.4-2.12 1.36l-.6-.02c-.38 0-.74-.14-.98-.4l-.04-.04c-.22-.24-.36-.58-.36-.94v-9.54c-.8.2-1.52.62-2.1 1.2a4.55 4.55 0 00-1.34 3.24v15.96c0 .78.18 1.52.54 2.18zm10.18 2.44c0-2.26.04-4.14.06-5.62.04-2.1.06-3.28-.04-3.88-.06-.28-.28-.28-.76-.26l-.64.02h-.02l-.02.02v9.72h1.42zm7.4 0c.02-2.26.06-4.14.08-5.62.04-2.1.06-3.28-.06-3.88-.04-.28-.26-.28-.74-.26l-.64.02h-.02l-.02.02v9.72h1.4zm68.18-.86c0-2.08.04-3.84.06-5.22.02-1.9.06-2.96-.06-3.5-.04-.2-.22-.2-.64-.18l-.6.02v9.5a4.8 4.8 0 001.24-.62zm-7.16.86c0-2.32.04-4.24.08-5.72.04-2.04.06-3.2-.06-3.8-.04-.26-.24-.24-.66-.24l-.58.02v9.74h1.22zm-7.68 0c0-2.32.04-4.24.08-5.72.02-2.04.06-3.2-.06-3.8-.04-.26-.24-.24-.66-.24l-.58.02v9.74h1.22zm-7.68 0c0-2.32.04-4.24.06-5.72.04-2.04.08-3.2-.04-3.8-.04-.26-.24-.24-.66-.24l-.6.02v9.74h1.24zm-7.68 0c0-2.32.04-4.24.06-5.72.04-2.04.06-3.2-.04-3.8-.04-.26-.24-.24-.68-.24l-.58.02v9.74h1.24zm-7.68 0c0-2.32.04-4.24.06-5.72.04-2.04.06-3.2-.04-3.8-.04-.26-.24-.24-.68-.24l-.58.02v9.74h1.24zm-43.64-25.18c0 .86-.04 9.7.04 9.74l.64.02c.48 0 .7.02.76-.26.1-.6.08-1.78.04-3.9-.02-1.46-.06-3.34-.06-5.6h-1.42zm7.7 0c0 .86-.06 9.7.02 9.74l.64.02c.5 0 .7.02.76-.26.1-.6.08-1.78.04-3.9-.02-1.46-.06-3.34-.06-5.6h-1.4zm7.68 0c0 .86-.06 9.7.02 9.74l.66.02c.48 0 .68.02.74-.26.12-.6.08-1.78.04-3.9-.02-1.46-.06-3.34-.06-5.6h-1.4zm7.68 0c0 .86-.06 9.7.02 9.74l.66.02c.48 0 .7.02.74-.26.12-.6.1-1.78.06-3.9-.04-1.46-.08-3.34-.08-5.6h-1.4zm7.68 0c0 .86-.06 9.7.04 9.74l.64.02c.48 0 .7.02.74-.26.12-.6.1-1.78.06-3.9-.04-1.46-.06-3.34-.08-5.6h-1.4zm44.86 0c0 .86-.06 9.7.02 9.74l.66.02c.48 0 .68.02.74-.26.12-.6.08-1.78.04-3.9-.02-1.46-.06-3.34-.06-5.6h-1.4zm-7.42 0c0 .86-.06 9.7.02 9.74l.66.02c.48 0 .7.02.74-.26.12-.6.1-1.78.06-3.9-.04-1.46-.06-3.34-.08-5.6h-1.4zm-7.42 0c0 .86-.04 9.7.04 9.74l.64.02c.48 0 .7.02.74-.26.12-.6.1-1.78.06-3.9-.04-1.46-.06-3.34-.08-5.6h-1.4zm-7.42 0c0 .86-.04 9.7.04 9.74l.64.02c.48 0 .7.02.74-.26.12-.6.1-1.78.06-3.9-.02-1.46-.06-3.34-.06-5.6h-1.42zm-7.4 0c0 .86-.06 9.7.02 9.74l.64.02c.5 0 .7.02.76-.26.1-.6.08-1.78.04-3.9-.02-1.46-.06-3.34-.06-5.6h-1.4zm-7.52 0c0 .86-.04 9.7.04 9.74l.64.02c.48 0 .7.02.76-.26.1-.6.08-1.78.04-3.9-.02-1.46-.06-3.34-.08-5.6h-1.4zm15.02 26.52h-17.86v13.12h2.78l8.48-8.48c.12-.14.3-.2.48-.2h6.12v-4.44zm-40.12 0h-1.54c.28.2.54.44.78.68l.04.04c.26.24.5.52.72.82v-1.54zm7.44-1.34c.02-2.26.04-4.14.08-5.62.04-2.1.06-3.28-.06-3.88-.04-.28-.26-.28-.74-.26l-.64.02h-.02l-.02.02v9.72h1.4zm7.42 0c.02-2.26.04-4.14.08-5.62.04-2.1.06-3.28-.06-3.88-.04-.28-.26-.28-.74-.26l-.64.02h-.04v9.74h1.4zm6.74 0h.68c.02-2.26.04-4.14.08-5.62.04-2.1.06-3.28-.06-3.88-.04-.28-.26-.28-.74-.26l-.64.02h-.04v9.74h.72zm4.46 36.2c1.16 0 1.9.66 2.24 1.48.12.3.18.64.18.98 0 .32-.06.66-.18.96-.34.82-1.08 1.48-2.24 1.48-1.16 0-1.9-.66-2.24-1.48-.12-.3-.18-.64-.18-.96 0-.34.06-.66.18-.98.34-.82 1.08-1.48 2.24-1.48zm.98 1.98c-.14-.34-.46-.62-.98-.62s-.84.28-.98.62c-.06.14-.1.3-.1.48 0 .16.04.32.1.46.14.36.46.62.98.62s.84-.26.98-.62c.06-.14.08-.3.08-.46 0-.18-.02-.34-.08-.48zm-.82 22.08v-9.44h-6.44v9.44h6.44zm1.34-9.44v9.44h4.64v-9.44h-4.64zm-9.12 36.6V212.6h-17.1v35.38c0 .38-.3.68-.68.68h-2.88v7.62h20.66zm3.82-45.02h1.52c5.1.06 6.08.08 6.08-4.88 0-2.34-2.22-2.68-4.66-2.68-.68 0-1.28.02-1.86.04l-1.08.02v7.5zm-1.36-41.06h-19.56v41.04h19.56V170.2zm16.14 76.8c-.54-.6-2.02-.58-5.08-.58v8.86l.6.02c.42.02.86.02 1.38.02 1.84 0 3.58-.26 3.58-2.08l.02-1.64c.02-2.66.02-4.02-.5-4.6zm-6.42 1.42H929.6v4.86h10.84v-4.86zm-8.72 9.22h-49.36c-.1 0 .14.08.12.18-.02.12-.04.24-.04.38 0 .12.02.26.04.36.02.1-.22.18-.12.18h49.36c.1 0-.12-.08-.1-.18.02-.1.02-.24.02-.36 0-.14 0-.26-.02-.38-.02-.1.2-.18.1-.18zm-25.96-17.6v-1.38h-20.8v1.38h20.8zm0-2.72v-19.74h-20.8v19.74h20.8zm-2.6 4.08h-2.3v.42c-.02.3-.04.6-.04.96 0 .74.06 1.32.4 1.32h.42c.94 0 1.38 0 1.44-.1.12-.18.1-.8.1-1.94l-.02-.66zm-13.24 0h-2.3l-.02.42c-.02.3-.02.6-.02.96 0 .74.06 1.32.4 1.32h.42c.92 0 1.36 0 1.42-.1.12-.18.12-.8.1-1.94v-.66zm17.2 5.9h2.7v-71.44c0-1.56-.64-2.96-1.68-4l-.02-.02a5.59 5.59 0 00-3.98-1.64H886.5c-1.52.02-2.92.66-3.92 1.66-.54.54-.96 1.18-1.26 1.88v.04c-.26.64-.42 1.34-.42 2.08v71.44h2.7v-30.38c0-.38.3-.68.68-.68h3.36v-40.48c0-.38.32-.68.68-.68h14.08c.36 0 .68.3.68.68v40.48h3.36c.38 0 .68.3.68.68v30.38zM889 187.16h12.72v-7.1H889v7.1zm12.72 3.46H889v25.62h12.72v-25.62zm0-2.12H889v.76h12.72v-.76zM889 178.72h12.72v-2.3H889v2.3zm17.26 69.94h-20.82v7.62h20.82v-7.62zm-36.52-34.18h-32.72c1.62 1.24 3.16 2.58 4.6 4.02 5.72 5.7 9.9 12.92 11.92 21h7.74l10.38-10.38-1.92-14.64zm-133.7-29.86h-8.34v8.34l8.34-8.34zm-41.42 0h-10.88l10.88 8.56v-8.56zm114.98 44.24c5.98 0 11.4 2.44 15.32 6.36a21.6 21.6 0 016.34 15.32 21.6 21.6 0 01-6.34 15.32 21.6 21.6 0 01-15.32 6.34 21.6 21.6 0 01-15.32-6.34 21.6 21.6 0 01-6.34-15.32 21.6 21.6 0 016.34-15.32c3.92-3.92 9.34-6.36 15.32-6.36zm-43.66 33.82a45.954 45.954 0 01-1.64-12.14v-.3l-5.7.02 1.58 9.24h.74c1.66 0 2.66 1.12 3.1 2.42.08.24.14.5.18.76h1.74zm-1.6-13.78c.06-1.96.26-3.88.56-5.76h-7.5l.98 5.76h5.96zm.8-7.12c1.78-9 6.2-17.04 12.42-23.28 1.46-1.44 2.98-2.78 4.62-4.02h-14.62v6.6c0 .16-.06.34-.18.46l-10.72 10.94v6.36l.5 2.94h7.98zm33.42 48.24l-.3-.08c-.36-.1-.58.46-.78 1.22-.08.3-.16.62-.22.94l-.12.5 2.18.58.2-.7c.3-1.1.48-1.72.42-1.96v-.04c-.04-.1-.46-.22-1.38-.46zm-9.84-4.2l-.26-.16c-.32-.18-.68.3-1.08.98-.14.24-.3.56-.48.88l-.22.42 1.96 1.14.36-.62c.62-1.04.94-1.58.94-1.82 0-.12-.4-.34-1.22-.82zm-8.42-6.6l-.22-.22c-.24-.26-.7.1-1.26.64l-.02.04c-.26.26-.46.48-.68.72l-.34.34 1.6 1.6.52-.5c.86-.84 1.3-1.28 1.36-1.52.04-.12-.28-.42-.96-1.1zm-6.42-8.54l-.14-.28c-.2-.32-.74-.08-1.44.32-.28.16-.56.34-.84.52l-.4.26 1.12 1.94.64-.34c1.04-.6 1.6-.9 1.7-1.12.06-.1-.16-.48-.64-1.3zm-3.98-9.94l-.08-.28c-.1-.36-.7-.28-1.44-.08-.34.1-.64.2-.96.3l-.46.12.58 2.2.7-.18c1.16-.3 1.78-.46 1.94-.64.08-.08-.04-.52-.28-1.44zm.22-21.18l.08-.32c.1-.34-.46-.56-1.22-.78-.32-.08-.62-.14-.94-.22l-.5-.1-.58 2.18.7.18c1.1.32 1.7.48 1.96.44l.02-.02c.12-.02.24-.44.48-1.36zm4.2-9.84l.16-.28c.18-.32-.3-.68-.98-1.06-.24-.14-.56-.3-.88-.48l-.42-.22-1.14 1.94.62.38c1.04.6 1.58.94 1.82.92.12 0 .34-.38.82-1.2zm6.6-8.42l.22-.22c.26-.26-.1-.72-.66-1.26l-.02-.04c-.26-.24-.48-.46-.72-.68l-.34-.32-1.6 1.6.5.52c.84.84 1.28 1.3 1.52 1.36.1.02.42-.28 1.1-.96zm8.54-6.42l.28-.16c.32-.18.08-.74-.32-1.42-.16-.28-.34-.56-.52-.84l-.26-.4-1.96 1.12.36.64c.58 1.02.9 1.58 1.12 1.7.1.06.48-.16 1.3-.64zm9.92-4l.3-.08c.36-.08.28-.68.08-1.44l-.3-.96-.14-.46-2.18.6.18.7c.3 1.14.46 1.76.64 1.94.08.08.5-.04 1.42-.3zM810 209.6h.32c.36 0 .44-.6.44-1.38-.02-.36-.02-.68-.04-1l-.02-.48h-2.26v.74c-.02 1.18-.02 1.82.1 2.02.06.12.52.1 1.46.1zm10.58 1.52l.3.08c.36.08.58-.48.78-1.24.1-.3.16-.62.24-.94l.1-.48-2.18-.58-.18.68c-.32 1.12-.48 1.72-.44 1.98v.02c.04.12.46.22 1.38.48zm9.84 4.18l.28.16c.32.18.66-.3 1.06-.98.14-.22.3-.54.48-.88l.22-.42-1.96-1.12-.36.62c-.6 1.02-.94 1.58-.94 1.82.02.12.4.34 1.22.8zm8.42 6.6l.22.22c.26.26.72-.1 1.26-.64l.04-.04c.24-.24.46-.48.68-.7l.32-.36-1.6-1.6-.52.52c-.84.82-1.3 1.26-1.36 1.5-.02.12.28.44.96 1.1zm6.42 8.56l.16.26c.18.32.74.08 1.42-.32.28-.16.56-.32.84-.5l.4-.26-1.12-1.96-.64.36c-1.04.58-1.58.9-1.7 1.1-.06.12.16.5.64 1.32zm3.98 9.92l.08.3c.1.36.7.26 1.46.06.32-.08.64-.18.96-.28l.44-.14-.58-2.18-.7.18c-1.14.3-1.76.46-1.94.62-.08.1.04.52.28 1.44zm1.3 10.62v.3c0 .38.6.44 1.38.44.36 0 .68-.02 1-.02l.46-.02v-2.26h-.72c-1.18-.02-1.82-.04-2.02.1-.12.06-.12.5-.1 1.46zm-1.52 10.58l-.08.3c-.1.36.48.58 1.24.78.3.08.62.16.92.22l.5.12.58-2.18-.68-.2c-1.12-.3-1.72-.48-1.98-.42h-.02c-.12.04-.24.46-.48 1.38zm-4.18 9.84l-.16.26c-.18.32.28.68.94 1.06l.04.02c.32.18.58.32.88.48l.42.22 1.12-1.96-.62-.36c-1.02-.62-1.58-.94-1.82-.94-.12 0-.34.38-.8 1.22zm-25.08 18.82l-.3.08c-.36.1-.26.68-.06 1.44.08.34.18.64.28.96l.14.46 2.18-.58-.18-.7c-.3-1.16-.46-1.78-.62-1.94-.1-.08-.52.04-1.44.28zm-10.62 1.28h-.3c-.38 0-.44.6-.44 1.38 0 .38.02.68.02 1l.02.48h2.26v-.72c.02-1.18.02-1.82-.1-2.04-.06-.1-.5-.1-1.46-.1zm29.24-11.54l-.22.22c-.26.26.1.72.64 1.26l.04.04c.26.26.48.46.72.68l.26.26c.28-.28.58-.56.86-.84.24-.26.5-.52.76-.78l-.44-.44c-.82-.84-1.28-1.3-1.52-1.36-.12-.04-.42.28-1.1.96zm-8.6 6.46l-.26.14c-.32.2-.08.76.32 1.44.16.28.34.56.52.84l.18.32c.68-.36 1.32-.74 1.98-1.14l-.3-.54c-.6-1.04-.9-1.6-1.12-1.72-.1-.06-.48.18-1.32.66zm-20.18-49.18c3.66 0 6.98 1.48 9.38 3.88l.04.04c2.38 2.4 3.86 5.7 3.86 9.36 0 3.66-1.5 6.98-3.9 9.38-2.4 2.4-5.72 3.9-9.38 3.9-3.66 0-6.98-1.5-9.38-3.9a13.16 13.16 0 01-3.9-9.38c0-3.66 1.48-6.98 3.88-9.4h.02c2.4-2.4 5.72-3.88 9.38-3.88zm-8.82 5.24c1.14.92.7 2.42-.04 4.1l-.36.8c-.16.38-.34.76-.52 1.18-.24.56-.68.98-1.2 1.2-.3.14-.64.2-.98.18v1.12c1.44-.14 2.18 1.22 2.84 2.9l.32.88c.16.4.32.82.46 1.16.24.58.22 1.18 0 1.7-.12.3-.3.58-.56.82l.42.42c.12.14.24.24.38.36.92-1.1 2.4-.66 4.06.08l.8.36c.38.16.76.34 1.18.52.58.24 1 .68 1.22 1.2.12.3.18.64.16.96.22.02.42.02.64.02h.52c-.14-1.44 1.22-2.18 2.92-2.84l.82-.3c.38-.16.78-.3 1.2-.48.56-.22 1.18-.2 1.72 0 .3.12.56.32.8.56.14-.14.3-.28.46-.44.1-.1.22-.22.32-.34-1.14-.9-.7-2.42.04-4.08l.36-.8c.18-.38.36-.76.52-1.18.24-.58.68-1 1.22-1.22.3-.12.66-.18 1-.16.02-.22.02-.44.02-.64v-.52c-1.44.14-2.18-1.24-2.84-2.92l-.3-.82c-.14-.4-.3-.8-.46-1.22a2.18 2.18 0 010-1.7c.12-.3.3-.58.54-.8-.12-.14-.26-.28-.4-.42l-.02-.04c-.12-.12-.26-.24-.38-.36-.92 1.18-2.42.74-4.12 0l-.8-.36a16.1 16.1 0 00-1.18-.52 2.24 2.24 0 01-1.2-1.22c-.14-.32-.2-.66-.18-1.02-.18 0-.38-.02-.58-.02-.18 0-.36.02-.54.02.18 1.46-1.2 2.22-2.9 2.88l-.88.34c-.4.16-.82.3-1.18.46-.56.22-1.16.2-1.7 0-.3-.14-.6-.34-.82-.6-.14.14-.28.26-.42.4-.12.14-.26.26-.38.4zm-1.26 3.56c.42-.98.72-1.84.48-2.34-.52.72-.96 1.48-1.3 2.3-.34.82-.58 1.68-.74 2.58l.18-.06c.2-.08.38-.26.48-.48.16-.38.36-.8.54-1.22l.36-.78zm-.26 8.4c-.38-.96-.78-1.78-1.3-1.96.14.88.38 1.74.72 2.54.34.82.78 1.62 1.3 2.34.02-.06.06-.1.08-.16.08-.22.08-.46 0-.68-.18-.42-.34-.82-.48-1.22l-.32-.86zm5.8 6.16c-.96-.42-1.82-.72-2.34-.48.72.52 1.5.94 2.32 1.3.8.34 1.66.58 2.56.74l-.06-.18a.868.868 0 00-.48-.48c-.38-.16-.8-.36-1.22-.54l-.78-.36zm14.88-14.02c.38.98.78 1.82 1.32 2-.16-.86-.4-1.72-.74-2.54-.32-.82-.76-1.6-1.28-2.34-.04.04-.06.1-.08.16-.08.2-.1.44 0 .68.16.38.32.82.48 1.24l.3.8zm-6.42 14.28c-.98.38-1.8.78-2 1.3.88-.14 1.74-.38 2.56-.72.82-.32 1.6-.76 2.34-1.28a.599.599 0 00-.16-.08c-.22-.1-.46-.1-.68 0-.38.14-.82.32-1.26.48l-.8.3zm6.12-5.8c-.42.96-.74 1.82-.5 2.34.52-.72.96-1.5 1.3-2.32.34-.8.58-1.66.74-2.56-.06 0-.12.02-.16.04-.22.1-.4.26-.48.48-.16.4-.36.82-.56 1.24l-.34.78zm-5.56-14.58c.96.42 1.84.74 2.34.48-.72-.5-1.48-.94-2.32-1.28-.8-.34-1.66-.6-2.56-.74.02.06.04.12.06.16.08.22.26.4.48.48.38.16.8.36 1.22.56l.78.34zm-8.4-.24c.96-.38 1.78-.78 1.96-1.32-.88.16-1.74.4-2.54.74-.84.34-1.62.76-2.34 1.28.04.04.1.06.16.08.2.1.46.1.68 0 .42-.16.82-.32 1.22-.46l.86-.32zm3.92 4.5c2.74 0 4.5 1.5 5.26 3.44.3.74.46 1.54.46 2.34 0 .8-.16 1.58-.46 2.34-.76 1.92-2.52 3.44-5.26 3.44-2.74 0-4.5-1.52-5.26-3.44-.3-.76-.46-1.56-.46-2.34 0-.8.16-1.6.46-2.34.76-1.94 2.52-3.44 5.26-3.44zm4.02 3.94c-.58-1.46-1.92-2.6-4.02-2.6-2.1 0-3.44 1.14-4.02 2.6-.22.58-.34 1.2-.34 1.84 0 .62.12 1.26.34 1.82.58 1.46 1.92 2.6 4.02 2.6 2.1 0 3.44-1.14 4.02-2.6.22-.56.34-1.2.34-1.82 0-.64-.12-1.26-.34-1.84zm-4.02-23.26c6.92 0 13.2 2.82 17.74 7.36 4.54 4.54 7.34 10.8 7.34 17.74 0 6.92-2.8 13.2-7.34 17.74a25.017 25.017 0 01-17.74 7.34c-6.92 0-13.2-2.8-17.74-7.34-4.54-4.54-7.36-10.82-7.36-17.74 0-6.94 2.82-13.2 7.36-17.74 4.54-4.54 10.82-7.36 17.74-7.36zm16.78 8.3c-4.3-4.28-10.22-6.94-16.78-6.94-6.56 0-12.5 2.66-16.78 6.94-4.3 4.3-6.96 10.24-6.96 16.8 0 6.54 2.66 12.48 6.96 16.78 4.28 4.3 10.22 6.96 16.78 6.96 6.56 0 12.48-2.66 16.78-6.96 4.3-4.3 6.96-10.24 6.96-16.78 0-6.56-2.66-12.5-6.96-16.8zm-2.42 2.42c-3.68-3.66-8.76-5.94-14.36-5.94-5.62 0-10.7 2.28-14.36 5.94a20.269 20.269 0 00-5.96 14.38c0 5.6 2.28 10.68 5.96 14.36 3.66 3.68 8.74 5.94 14.36 5.94 5.6 0 10.68-2.26 14.36-5.94 3.68-3.68 5.96-8.76 5.96-14.36 0-5.62-2.28-10.7-5.96-14.38zm-68.02 6.46c-.02-.02-.02-.06-.02-.08l-.6-3.54v-6.78c0-.22.08-.4.22-.52l10.68-10.9v-6.32h-32.66v6.32l10.68 10.9c.14.12.22.3.22.52V239l-.6 3.54-.02.06-2.88 16.9h17.86l-1.66-9.76c-.02-.04-.02-.06-.02-.1l-1.2-7.02zm-18.92 22.1h25.22c.28 0 .48-.28.6-.66.04-.14.06-.28.06-.44a1.18 1.18 0 01-.04-.28c0-.08.02-.18.04-.26-.02-.24-.08-.5-.16-.74-.26-.8-.86-1.48-1.82-1.48h-22.58c-.96 0-1.56.68-1.82 1.48-.08.24-.14.5-.16.74a.639.639 0 010 .54c0 .16.04.3.08.44.1.38.3.66.58.66zm-41.06-70.82h30.38v-9.28h-30.38v9.28zm188.7-49.74l32.46-27.34-6.14-7.52-32.18 27.78 5.86 7.08zm-3.62-10.8l25.22-21.76-8.6-10.4-8.08 6.7L872 122.44l9.04 10.92zM868.22 31.7c-1.1-.02-2.18-.02-3.16-.04-1.24-.02-2.34-.04-3.58-.04-6.86 0-7.64.8-7.7 7.4l14.44-7.32zm-14.76 9c-.04 0-.06.02-.1.04l-3.98 2.02c-.04.02-.06.02-.08.04l-6.96 3.52-53.44 27.1h-.04c-.98.52-2.36.64-3.88.64-.6 0-1.32-.02-2.06-.06-.46-.02-.92-.02-1.4-.04V91.6l4.52.08 84.08-42.2V32.24l-16.66 8.46zm-1.02-1c0-8.42.68-9.42 9.04-9.42.9 0 2.16.02 3.6.04 1.58.02 3.38.04 5.7.04h7.54c0-2.06-.04-3.66-.06-4.96-.04-1.7-.06-2.96-.02-3.92H849.7v19.6l2.74-1.38zm2.66 105.08h-9.92c-.36 0-.68-.3-.68-.66v-5.34c0-.36.32-.68.68-.68h10.48l.44-4.98h-9.9c-.38 0-.68-.32-.68-.68v-5.34c0-.36.3-.66.68-.66h10.48l.4-4.72h-9.9c-.38 0-.68-.32-.68-.68v-5.34c0-.36.3-.66.68-.66h10.48l.32-3.76c.04-.36.06-.7.06-1 .08-4.28-1.78-8.14-4.74-11.02-2.96-2.9-7.06-4.82-11.42-5.2-.42-.04-.84-.06-1.24-.06l-54.48-.98-4.64-.08v56.04c0 .78.02 1.5.06 2.24.02.84.06 1.68.06 2.42 0 .8-.04 1.58-.12 2.3v.64c0 .64.26 1.24.68 1.66l.02.04c.44.44 1.04.7 1.7.7h67.62c.64 0 1.26-.22 1.72-.6.44-.34.72-.8.76-1.32l1.08-12.28zm-9.24-1.34h9.34l.1-1.12.26-2.86h-9.7v3.98zm1-11.68h9.36l.1-1.18.24-2.8h-9.7v3.98zm1-11.4h9.34l.1-1.04.24-2.94h-9.68v3.98zm23.18-69.82l-82.12 41.18 51.74.92c.48.02.92.04 1.34.08 4.68.4 9.06 2.46 12.24 5.58 3.22 3.12 5.22 7.34 5.14 12 0 .38-.02.76-.04 1.1l-1.84 21.28 13.1-10.84.02-.02 26.7-22.08.02-.02 23.1-19.12V31.72h-48.96V49.9c0 .3-.18.54-.44.64zm8.62-20.18h14.18l-9.14-10.4c-.94-.02-1.74-.06-2.42-.1h-.02c-1.48-.08-2.22-.12-2.42.3-.08.14-.14.34-.18.58v9.62zM790.4 71.14l44.98-22.8h-44.96V70.6c0 .2 0 .38-.02.54zm.02-24.14h47.62l9.1-4.62 1.22-.62V21.48h-71.6c.68.4 1.32.9 1.88 1.46l.04.04a9.576 9.576 0 012.84 6.84v5.36h8.24c.36 0 .66.3.66.68V47zm-8.9 25.62l1.44.04c.66.02 1.32.04 2.02.04 2.26 0 4.1-.3 4.1-2.1V36.52h-7.56v36.1zm-1.36 83.16v-6.24H610.62l-.02 1.02c-.02.6-.04 1.24-.04 1.96 0 3.2.48 6.46 4.1 6.46h9.98v-.52c-.02-.46-.04-.9-.04-1.24 0-1.98.34-3.62 2.42-3.62h60.52c2.08 0 2.42 1.64 2.42 3.62 0 .34-.02.78-.04 1.24l-.02.52h87.44c1.86 0 2.58-1.34 2.82-3.2zm-67.54-10.56v-2c0-.04.02-.06.02-.1l.28-109.62v-.42h-59.78c-6.72 0-11.74 11.56-17.38 24.58l-.24.56c-3.4 7.86-6.32 16.6-8.42 24.54-2.28 8.58-3.6 16.22-3.6 20.78v44.64h89.12v-2.96zm60.26-1.34h-58.9v4.3h61.08v-.9c0-1.58-.22-3.4-2.18-3.4zm-84.32 15.1l.02-.56c0-.38.02-.76.02-1.2 0-1.24-.14-2.28-1.06-2.28h-60.52c-.92 0-1.06 1.04-1.06 2.28 0 .44 0 .82.02 1.2l.02.56h62.56zm29.24-120.5h24.46c2.64 0 4.12.3 5.02 1.32.88 1 1.02 2.54 1.02 5.1v15.72c0 1.56 0 2.34-.3 2.98-.3.68-.78 1.04-1.76 1.72l-11.58 8.08c-2.72 1.88-2.74 1.88-5.78 1.86l-11.08.02c-.36 0-.66-.32-.66-.68V39.16c0-.38.3-.68.66-.68zm24.46 1.34h-23.78v34.1h10.4c2.6 0 2.64 0 5-1.64l11.58-8.08c.78-.52 1.16-.8 1.32-1.14.16-.38.16-1.06.16-2.44V44.9c0-2.22-.1-3.54-.68-4.22-.58-.66-1.76-.86-4-.86zm.76-6.74h-28.76v45.9h16.44c2.96.02 3 .02 5.66-1.84 4.22-2.94 8.9-5.96 12.98-9.04.88-.62 1.32-.94 1.5-1.32.2-.46.2-1.22.2-2.78l-.02-22.64c0-3.56-.24-5.68-1.32-6.82-1.08-1.14-3.12-1.46-6.68-1.46zm-87.18 4.74h43.48c2.16 0 4.12.88 5.56 2.3 1.42 1.42 2.3 3.4 2.3 5.56v32.78c0 .96-.38 1.76-1 2.38-.64.64-1.54 1.06-2.52 1.24l-59.96 10.9c-2.42.44-4.48.18-6.1-.52-1.22-.54-2.2-1.32-2.92-2.26a7.293 7.293 0 01-1.42-3.24c-.3-1.58-.1-3.3.62-4.94.46-1.06 1.32-3.42 2.44-6.5 4.64-12.74 13.72-37.7 19.52-37.7zm43.48 1.36h-43.48c-4.86 0-13.74 24.36-18.26 36.78-1.12 3.12-1.98 5.48-2.46 6.6a7.139 7.139 0 00-.54 4.18c.18.96.56 1.86 1.16 2.64.6.76 1.4 1.4 2.4 1.84 1.4.62 3.18.82 5.32.44l59.96-10.9c.72-.14 1.36-.44 1.82-.88.36-.36.58-.84.58-1.42V45.68c0-1.8-.72-3.42-1.9-4.6a6.467 6.467 0 00-4.6-1.9zm-83.44 65.04l-5.24 19.56v24.4h11.5v-43.96h-6.26zm24.56-1.34c2.82 0 4.6 2.1 5.38 4.82.28 1 .42 2.1.42 3.18s-.14 2.18-.42 3.18c-.78 2.72-2.56 4.84-5.38 4.84-2.84 0-4.62-2.12-5.38-4.84-.3-1-.44-2.1-.44-3.18s.14-2.18.44-3.18c.76-2.72 2.54-4.82 5.38-4.82zm4.08 5.18c-.62-2.16-1.98-3.84-4.08-3.84-2.12 0-3.48 1.68-4.1 3.84-.24.88-.36 1.86-.36 2.82 0 .96.12 1.94.36 2.82.62 2.16 1.98 3.84 4.1 3.84 2.1 0 3.46-1.68 4.08-3.84.24-.88.38-1.86.38-2.82 0-.96-.14-1.94-.38-2.82zm338.16-34.2c.64-.1 1.26-.18 1.84-.24 3.54-.46 5.5-.7 5.5-3.4 0-1.46-1.5-2.22-3.18-3.04-.4-.2-.8-.4-1.14-.58a.664.664 0 01-.36-.64l-.06-11.5c0-.04-.02-.1-.02-.14l.02-1.48-.02-1.48c0-.06.02-.1.02-.14l.06-11.5c-.02-.26.12-.52.36-.66.34-.18.74-.38 1.14-.58 1.68-.82 3.18-1.56 3.18-3.02 0-2.72-1.96-2.96-5.5-3.4-.58-.08-1.2-.14-1.84-.24v42.04zM952 36.76c3.76 0 7.16 1.52 9.62 3.98l.04.04c2.44 2.46 3.94 5.84 3.94 9.58 0 3.76-1.52 7.16-3.98 9.62a13.557 13.557 0 01-9.62 3.98c-3.76 0-7.16-1.52-9.62-3.98a13.557 13.557 0 01-3.98-9.62c0-3.76 1.52-7.16 3.98-9.62h.02c2.46-2.46 5.86-3.98 9.6-3.98zm8.66 4.94a12.214 12.214 0 00-17.32 0 12.197 12.197 0 00-3.58 8.66c0 3.38 1.36 6.44 3.58 8.66a12.214 12.214 0 0017.32 0c2.22-2.22 3.6-5.28 3.6-8.66 0-3.36-1.36-6.42-3.56-8.64l-.04-.02zm1.68-11.34l-5.18-2.98H945.1l-5.18 2.98h22.42zm-35.24 40.6h54.22V31.72H927.1v39.24zm54.22 1.36H927.1v4.62h54.22v-4.62zm-55.58 4.62V31.72h-3.94v45.22h3.94zM966.5 94.8h9.82v-8.94h-9.82v8.94zm2.34-16.5h-39.46v16.5h35.76v-9.62c0-.36.3-.66.68-.66h3.02V78.3zm29.82 0h-28.48v6.22h6.8c.38 0 .68.3.68.66v9.62h21V78.3zm-229.58 82.04H645.72v8.52h123.36v-8.52z" fill="#F7B726"/></svg>