<svg width="822" height="1000" fill="none" xmlns="http://www.w3.org/2000/svg"><path d="M666.6 954.34c-5.58 5.58-13.26 9.02-21.78 9.02-8.48 0-16.18-3.44-21.74-9.02a30.617 30.617 0 01-9.02-21.76c0-8.5 3.44-16.18 9.02-21.76 5.56-5.56 13.26-9.02 21.74-9.02 8.52 0 16.2 3.46 21.78 9.02 5.56 5.58 9.02 13.26 9.02 21.76 0 8.5-3.46 16.2-9.02 21.76zM115.4 22.42c.94-2.4 3.14-4.26 6.56-4.26 3.42 0 5.6 1.86 6.58 4.26.36.94.56 1.96.54 2.98 0 1.02-.18 2.04-.54 2.98-.96 2.38-3.16 4.24-6.58 4.24s-5.62-1.86-6.56-4.24c-.38-.94-.58-1.96-.58-2.98 0-1.04.2-2.06.58-2.98zm6.56 11.38c3.98 0 6.54-2.18 7.66-4.98.44-1.1.64-2.26.64-3.42 0-1.18-.2-2.34-.64-3.42-1.12-2.82-3.68-5-7.66-5s-6.54 2.18-7.66 5a9.052 9.052 0 00-.66 3.42c0 1.16.22 2.34.66 3.42 1.12 2.8 3.68 4.98 7.66 4.98zm529.26 564.7c-.74 1.84-2.42 3.28-5.08 3.28-2.64 0-4.32-1.44-5.06-3.28-.3-.72-.44-1.52-.44-2.3 0-.8.14-1.58.44-2.32.74-1.84 2.42-3.26 5.06-3.26 2.66 0 4.34 1.42 5.08 3.26.28.74.42 1.52.42 2.32 0 .78-.14 1.58-.42 2.3zm1.1-5.04c-.92-2.26-2.96-4.02-6.18-4.02-3.2 0-5.26 1.76-6.16 4.02-.36.86-.52 1.8-.52 2.74 0 .94.16 1.88.52 2.74.9 2.26 2.96 4.02 6.16 4.02 3.22 0 5.26-1.76 6.18-4.02.34-.86.5-1.8.5-2.74 0-.94-.16-1.88-.5-2.74zm-11.24-130.82c.74-1.84 2.42-3.28 5.06-3.28 2.66 0 4.34 1.44 5.08 3.28.28.72.42 1.52.42 2.3 0 .8-.14 1.6-.42 2.32-.74 1.84-2.42 3.28-5.08 3.28-2.64 0-4.32-1.44-5.06-3.28a6.06 6.06 0 01-.44-2.32c0-.78.14-1.58.44-2.3zm5.06 9.08c3.22 0 5.26-1.76 6.18-4.02.34-.88.52-1.82.52-2.76 0-.92-.18-1.86-.52-2.74-.92-2.26-2.96-4.02-6.18-4.02-3.2 0-5.26 1.76-6.16 4.02-.36.88-.52 1.82-.52 2.74 0 .94.16 1.88.52 2.76.9 2.26 2.96 4.02 6.16 4.02zm-5.06-140.32c.74-1.84 2.42-3.28 5.06-3.28 2.66 0 4.34 1.44 5.08 3.28.28.72.42 1.52.42 2.3 0 .8-.14 1.58-.42 2.3-.74 1.86-2.42 3.28-5.08 3.28-2.64 0-4.32-1.42-5.06-3.28-.3-.72-.44-1.5-.44-2.3 0-.78.14-1.58.44-2.3zm5.06 9.06c3.22 0 5.26-1.76 6.18-4.02.34-.86.52-1.8.52-2.74 0-.92-.18-1.88-.52-2.74-.92-2.26-2.96-4.02-6.18-4.02-3.2 0-5.26 1.76-6.16 4.02-.36.86-.52 1.82-.52 2.74 0 .94.16 1.88.52 2.74.9 2.26 2.96 4.02 6.16 4.02zm-462.46 1.64c-.74 1.84-2.42 3.28-5.06 3.28-2.66 0-4.34-1.44-5.08-3.28-.28-.72-.44-1.52-.44-2.3 0-.8.16-1.6.44-2.32.74-1.82 2.42-3.28 5.08-3.28 2.64 0 4.32 1.46 5.06 3.28.3.72.44 1.52.44 2.32 0 .78-.14 1.58-.44 2.3zm-5.06-9.08c-3.2 0-5.26 1.78-6.18 4.02a7.68 7.68 0 00-.52 2.76c0 .92.18 1.88.52 2.74.92 2.26 2.98 4.02 6.18 4.02 3.2 0 5.26-1.76 6.16-4.02.34-.86.52-1.82.52-2.74 0-.94-.18-1.88-.52-2.76-.9-2.24-2.96-4.02-6.16-4.02zm5.06 140.32c-.74 1.84-2.42 3.28-5.06 3.28-2.66 0-4.34-1.44-5.08-3.28-.28-.72-.44-1.5-.44-2.3 0-.78.16-1.58.44-2.3.74-1.84 2.42-3.28 5.08-3.28 2.64 0 4.32 1.44 5.06 3.28.3.72.44 1.52.44 2.3 0 .8-.14 1.58-.44 2.3zm-5.06-9.06c-3.2 0-5.26 1.76-6.18 4.02a7.495 7.495 0 000 5.48c.92 2.26 2.98 4.02 6.18 4.02 3.2 0 5.26-1.76 6.16-4.02a7.495 7.495 0 000-5.48c-.9-2.26-2.96-4.02-6.16-4.02zm5.06 140.32c-.74 1.84-2.42 3.28-5.06 3.28-2.66 0-4.34-1.44-5.08-3.28-.28-.74-.44-1.52-.44-2.3 0-.8.16-1.6.44-2.32.74-1.84 2.42-3.28 5.08-3.28 2.64 0 4.32 1.44 5.06 3.28.3.72.44 1.52.44 2.32 0 .78-.14 1.56-.44 2.3zm-5.06-9.08c-3.2 0-5.26 1.76-6.18 4.02a7.68 7.68 0 00-.52 2.76c0 .92.18 1.86.52 2.74.92 2.24 2.98 4.02 6.18 4.02 3.2 0 5.26-1.78 6.16-4.02.34-.88.52-1.82.52-2.74 0-.94-.18-1.88-.52-2.76-.9-2.26-2.96-4.02-6.16-4.02zm534.9 279.82c-.46 1.16-1.52 2.06-3.2 2.06-1.68 0-2.74-.9-3.2-2.06l-.02-.02c-.16-.46-.26-.94-.26-1.44s.1-1.02.28-1.46c.46-1.16 1.52-2.08 3.2-2.08 1.68 0 2.74.92 3.2 2.08.18.46.26.96.26 1.46s-.08 1-.26 1.46zm1.1-3.36c-.64-1.58-2.06-2.8-4.3-2.8-2.24 0-3.66 1.22-4.3 2.8-.24.6-.36 1.26-.36 1.9 0 .62.12 1.28.34 1.86l.02.04c.64 1.58 2.06 2.8 4.3 2.8 2.24 0 3.66-1.22 4.3-2.8.24-.6.36-1.26.36-1.9 0-.64-.12-1.28-.34-1.88l-.02-.02zm-603.38.44c.46-1.18 1.52-2.08 3.2-2.08 1.68 0 2.74.9 3.2 2.08l.02.02c.16.44.26.94.26 1.44s-.1 1.02-.28 1.46c-.46 1.16-1.52 2.06-3.2 2.06-1.68 0-2.74-.9-3.2-2.06v-.02c-.18-.44-.26-.94-.26-1.44 0-.52.08-1 .26-1.46zm-1.1 3.36c.64 1.58 2.08 2.8 4.3 2.8 2.24 0 3.66-1.22 4.3-2.8.24-.6.36-1.26.36-1.9 0-.64-.12-1.28-.34-1.88l-.02-.04c-.64-1.56-2.06-2.8-4.3-2.8-2.22 0-3.66 1.24-4.3 2.8-.24.62-.36 1.28-.36 1.92 0 .62.12 1.28.36 1.88v.02zm71.32 63.36c.18-.4.36-.76.54-1.16.28-.6.56-1.22.8-1.82.18-.42.54-.76.94-.94.28-.12.6-.16.9-.12-.22 1.54-.62 3.02-1.2 4.42-.6 1.42-1.38 2.76-2.3 3.98-1.04-.8-.5-2.46.32-4.36zm3.2-8.96c-1.3.16-2.1-1.4-2.84-3.3-.16-.42-.3-.82-.46-1.2-.22-.64-.46-1.28-.7-1.86-.18-.46-.18-.94 0-1.34.1-.28.3-.52.54-.74.96 1.26 1.7 2.6 2.28 4 .58 1.42.98 2.92 1.18 4.44zm-4.94 15.3c-.38.38-.8.64-1.2.98-.32-.44-.66-.92-1.16-1.14-.68-.26-1.48-.3-2.22.02-.62.26-1.24.48-1.82.7-.42.16-.86.32-1.22.46-2.48.96-4.34 2.08-3.94 4.18-.44.04-.88.16-1.36.16-.48 0-.94-.12-1.42-.16.1-.54.08-1.12-.12-1.62-.3-.68-.84-1.28-1.58-1.58-.62-.26-1.2-.52-1.78-.78-.4-.2-.82-.38-1.18-.54-2.44-1.06-4.56-1.6-5.76.18-.34-.3-.72-.54-1.04-.86-.38-.36-.66-.8-.98-1.2.44-.32.92-.64 1.12-1.14.3-.7.3-1.5 0-2.24-.26-.62-.48-1.22-.7-1.82-.16-.42-.32-.84-.46-1.2-.96-2.48-2.08-4.36-4.2-3.94-.02-.46-.12-.9-.12-1.36 0-.48.1-.94.14-1.42.54.1 1.1.08 1.62-.12.68-.3 1.26-.86 1.58-1.58.24-.62.52-1.22.78-1.78.2-.42.38-.82.54-1.2 1.08-2.42 1.58-4.54-.18-5.76.28-.34.54-.72.86-1.04.36-.36.8-.64 1.18-.98.34.46.66.92 1.16 1.14.7.28 1.48.3 2.22 0 .64-.26 1.22-.48 1.84-.7.42-.16.84-.32 1.2-.48 2.48-.94 4.36-2.08 3.94-4.18.46-.04.88-.14 1.34-.14.5 0 .96.1 1.44.14-.1.56-.1 1.12.12 1.62.28.7.84 1.28 1.58 1.58.62.26 1.2.54 1.78.8.42.18.82.38 1.2.54 2.42 1.06 4.54 1.58 5.74-.2.34.3.72.54 1.06.86.36.38.64.8.98 1.2-.46.32-.92.64-1.14 1.16-.28.68-.3 1.48 0 2.22.26.62.48 1.22.7 1.82.16.42.32.84.46 1.22.96 2.46 2.1 4.34 4.2 3.94.04.44.14.88.14 1.34 0 .48-.12.94-.14 1.44-.56-.12-1.14-.1-1.64.1-.68.3-1.26.86-1.56 1.6-.26.62-.54 1.2-.8 1.78-.18.4-.38.82-.54 1.18-1.06 2.42-1.58 4.56.2 5.76-.3.34-.54.72-.86 1.04zm-10.5 4.96c-.16-1.3 1.4-2.1 3.3-2.84.42-.18.82-.32 1.2-.46.64-.24 1.28-.48 1.86-.72.44-.18.92-.16 1.32 0 .3.12.56.3.74.56-1.24.94-2.58 1.68-3.98 2.26-1.42.6-2.92.98-4.44 1.2zm-13.32-3.54c.8-1.04 2.46-.5 4.34.34.4.18.78.34 1.16.52.62.28 1.24.58 1.82.8.44.2.78.54.94.96.12.28.18.6.14.9-1.56-.22-3.04-.62-4.44-1.22-1.42-.58-2.74-1.36-3.96-2.3zm-6.94-11.9c1.3-.18 2.1 1.4 2.84 3.3.16.42.3.8.46 1.2.22.62.46 1.28.72 1.86.18.44.16.92 0 1.32-.12.28-.32.54-.56.74-.94-1.24-1.7-2.6-2.26-3.98-.6-1.44-1-2.92-1.2-4.44zm3.2-9c-.18.42-.36.8-.54 1.18-.28.62-.56 1.24-.8 1.82-.18.44-.54.78-.94.94-.28.12-.6.16-.9.12.22-1.54.62-3.02 1.2-4.42.6-1.42 1.38-2.76 2.3-3.96 1.04.78.5 2.46-.32 4.32zm12.24-11.26c.16 1.3-1.38 2.08-3.3 2.82-.4.18-.8.32-1.2.46-.64.24-1.28.48-1.86.72-.44.18-.92.16-1.34 0-.28-.12-.52-.3-.72-.54 1.24-.96 2.58-1.72 3.98-2.28 1.42-.58 2.92-.98 4.44-1.18zm13.32 3.52c-.8 1.04-2.46.5-4.34-.34-.4-.16-.78-.34-1.16-.52-.62-.28-1.24-.58-1.82-.8-.44-.18-.78-.54-.94-.94-.12-.28-.18-.6-.12-.92 1.54.22 3.02.64 4.4 1.22 1.44.6 2.78 1.38 3.98 2.3zm-10.92-5.1c-5.36 0-10.22 2.18-13.72 5.7-3.52 3.5-5.7 8.36-5.7 13.72 0 5.36 2.18 10.22 5.7 13.74A19.28 19.28 0 00166.8 952c5.38 0 10.24-2.16 13.74-5.68a19.38 19.38 0 005.7-13.74c0-5.36-2.18-10.22-5.7-13.72a19.31 19.31 0 00-13.74-5.7zm25.4 44.8c-6.5 6.5-15.48 10.52-25.38 10.52-9.92 0-18.9-4.02-25.38-10.52-6.5-6.5-10.52-15.46-10.52-25.38 0-9.9 4.02-18.88 10.52-25.38 6.48-6.48 15.46-10.52 25.38-10.52 9.9 0 18.88 4.04 25.38 10.52 6.48 6.5 10.5 15.48 10.5 25.38 0 9.92-4.02 18.88-10.5 25.38zm-25.38-62.44c-10.24 0-19.52 4.14-26.24 10.84-6.7 6.72-10.84 15.98-10.84 26.22a36.97 36.97 0 0010.84 26.22c6.72 6.72 16 10.86 26.24 10.86 10.22 0 19.5-4.14 26.22-10.86a36.97 36.97 0 0010.84-26.22c0-10.24-4.14-19.5-10.84-26.22-6.72-6.7-16-10.84-26.22-10.84zm6.38 39.96c-.92 2.32-3.06 4.14-6.38 4.14-3.34 0-5.48-1.82-6.4-4.14-.36-.9-.54-1.9-.54-2.9 0-.98.18-1.98.54-2.9.92-2.32 3.06-4.12 6.4-4.12 3.32 0 5.46 1.8 6.38 4.12.36.92.54 1.92.54 2.9 0 1-.18 2-.54 2.9zm-6.38-11.1c-3.9 0-6.4 2.14-7.5 4.86-.42 1.06-.62 2.2-.62 3.34 0 1.14.2 2.28.62 3.34 1.1 2.74 3.6 4.88 7.5 4.88s6.38-2.14 7.48-4.88c.42-1.06.64-2.2.64-3.34 0-1.14-.22-2.28-.64-3.34-1.1-2.72-3.58-4.86-7.48-4.86zm21.76 29.96c-5.58 5.58-13.26 9.02-21.78 9.02-8.48 0-16.18-3.44-21.76-9.02-5.56-5.56-9.02-13.26-9.02-21.76 0-8.5 3.46-16.18 9.02-21.76 5.58-5.56 13.28-9.02 21.76-9.02 8.52 0 16.2 3.46 21.78 9.02 5.56 5.58 9 13.26 9 21.76 0 8.5-3.44 16.2-9 21.76zm-21.78-53.72a31.88 31.88 0 00-22.6 9.36c-5.78 5.8-9.34 13.78-9.34 22.6 0 8.84 3.56 16.82 9.34 22.6a31.88 31.88 0 0022.6 9.36c8.84 0 16.82-3.58 22.62-9.36 5.78-5.78 9.36-13.76 9.36-22.6 0-8.82-3.58-16.8-9.36-22.6-5.8-5.78-13.78-9.36-22.62-9.36zm-139.52 31.8c-.9.9-2.1 1.36-3.3 1.36-1.2 0-2.4-.46-3.3-1.36l-9.26-9.26c-1.56-1.56-1.7-3.42-1.06-4.94.26-.58.64-1.14 1.12-1.62.46-.46 1.02-.84 1.62-1.1 1.52-.64 3.34-.5 4.9 1.04l9.28 9.28a4.664 4.664 0 010 6.58v.02zm.84.84a5.826 5.826 0 001.7-4.14c0-1.5-.56-3-1.7-4.14l-9.26-9.26-.02-.02c-1.96-1.94-4.3-2.1-6.22-1.28-.74.3-1.42.78-1.98 1.36-.58.56-1.04 1.24-1.36 2-.82 1.92-.64 4.26 1.32 6.22l9.24 9.26a5.826 5.826 0 004.14 1.7c1.5 0 2.98-.56 4.12-1.7h.02zm364.82-72.84h4.76c-.2.34-.46.68-.46 1.12 0 1.6-.02 2.78-.04 3.78-.04 2.66-.06 4.1.36 4.98h-4.62v-9.88zm9.78 0v9.88h-2.94c-.58-.04-.98-.14-1.12-.42-.34-.58-.32-1.94-.28-4.56.02-1.1.04-2.42.04-3.78 0-.3.12-.6.32-.78.22-.2.48-.34.8-.34h3.18zm-3.18-1.18h-7.18c-.34 0-.6.28-.6.6v11.06c0 .32.26.6.6.6h10.94c.34 0 .6-.28.6-.6v-11.06c0-.32-.26-.6-.6-.6h-3.76zm85.6 11.06h-4.62c.42-.88.42-2.32.36-4.98-.02-1-.04-2.18-.04-3.78 0-.44-.24-.78-.44-1.12h4.74v9.88zm-9.76-9.88h3.18c.3 0 .58.14.78.34.2.2.32.48.32.78 0 1.34.04 2.68.04 3.78.04 2.62.06 3.98-.28 4.56-.14.28-.54.38-1.12.42h-2.92v-9.88zm3.18-1.18h-3.78c-.32 0-.6.28-.6.6v11.06c0 .32.28.6.6.6.74 0 1.24 0 1.66.02.2 0 .28-.02.48-.02h8.82c.32 0 .6-.28.6-.6v-11.06c0-.32-.28-.6-.6-.6h-7.18zm-79 59.52c0 .36-.02.7-.02.96 0 .3-.12.58-.32.78l-.02.04c-.2.18-.48.3-.78.3h-18.34c-1 0-1.16-1.06-1.16-2.22 0-.38.02-.68.02-.98.02-.34.02-.7.02-.94 0-.32.14-.6.34-.8.2-.2.48-.32.78-.32h18.34c1.02 0 1.16 1.04 1.16 2.2 0 .38 0 .68-.02.98zm-1.14-4.38h-18.34c-.64 0-1.2.28-1.62.7-.42.4-.68.98-.68 1.62 0 .34-.02.62-.02.92-.02.36-.02.74-.02 1 0 1.8.3 3.4 2.34 3.4h18.34c.62 0 1.18-.24 1.6-.64l.04-.04c.4-.42.68-1 .68-1.62 0-.36 0-.64.02-.92 0-.36.02-.74.02-1.02 0-1.78-.32-3.4-2.36-3.4zm-25.94 4.38c-.02.36-.02.7-.02.96 0 .3-.14.58-.34.78l-.02.04c-.2.18-.46.3-.76.3h-18.36c-1 0-1.14-1.06-1.14-2.22 0-.38 0-.68.02-.98 0-.34.02-.7.02-.94 0-.32.12-.6.32-.8.2-.2.48-.32.78-.32h18.36c1 0 1.16 1.04 1.16 2.2 0 .38-.02.68-.02.98zm-1.14-4.38h-18.36c-.62 0-1.2.28-1.6.7-.44.4-.7.98-.7 1.62v.92c-.02.36-.04.74-.04 1 0 1.8.32 3.4 2.34 3.4h18.36c.62 0 1.18-.24 1.6-.64l.02-.04c.42-.42.68-1 .68-1.62 0-.36 0-.64.02-.92.02-.36.02-.74.02-1.02 0-1.78-.3-3.4-2.34-3.4zm28.22-6.54c0 .36-.02.7-.02.96 0 .3-.12.58-.32.78l-.02.04c-.2.18-.48.3-.78.3h-18.34c-1 0-1.16-1.06-1.16-2.22 0-.38.02-.68.02-.98.02-.36.02-.7.02-.94 0-.32.14-.6.34-.8.2-.2.48-.32.78-.32h18.34c1.02 0 1.16 1.04 1.16 2.2 0 .38 0 .68-.02.98zm-1.14-4.38h-18.34c-.64 0-1.2.26-1.62.7-.42.4-.68.98-.68 1.62 0 .34-.02.62-.02.9-.02.38-.02.74-.02 1.02 0 1.8.3 3.4 2.34 3.4h18.34c.62 0 1.18-.24 1.6-.64l.04-.04c.4-.42.68-1 .68-1.62 0-.36 0-.64.02-.92 0-.38.02-.74.02-1.02 0-1.78-.32-3.4-2.36-3.4zm-25.94 4.38c-.02.36-.02.7-.02.96 0 .3-.14.58-.34.78l-.02.04c-.2.18-.46.3-.76.3h-18.36c-1 0-1.14-1.06-1.14-2.22 0-.38 0-.68.02-.98 0-.36.02-.7.02-.94 0-.32.12-.6.32-.8.2-.2.48-.32.78-.32h18.36c1 0 1.16 1.04 1.16 2.2 0 .38-.02.68-.02.98zm-1.14-4.38h-18.36c-.62 0-1.2.26-1.6.7-.44.4-.7.98-.7 1.62v.9c-.02.38-.04.74-.04 1.02 0 1.8.32 3.4 2.34 3.4h18.36c.62 0 1.18-.24 1.6-.64l.02-.04c.42-.42.68-1 .68-1.62 0-.36 0-.64.02-.92.02-.38.02-.74.02-1.02 0-1.78-.3-3.4-2.34-3.4zm28.22-6.46c0 .34-.02.7-.02.94 0 .32-.12.6-.32.8l-.02.02c-.2.2-.48.3-.78.3h-18.34c-1 0-1.16-1.02-1.16-2.2 0-.38.02-.68.02-.98.02-.36.02-.7.02-.96 0-.3.14-.58.34-.78.2-.2.48-.32.78-.32h18.34c1.02 0 1.16 1.02 1.16 2.2 0 .38 0 .68-.02.98zm-1.14-4.38h-18.34c-.64 0-1.2.28-1.62.68-.42.42-.68 1-.68 1.62 0 .36-.02.64-.02.92-.02.36-.02.74-.02 1.02 0 1.8.3 3.4 2.34 3.4h18.34c.62 0 1.18-.26 1.6-.64l.04-.04c.4-.42.68-1 .68-1.64 0-.34 0-.62.02-.9 0-.36.02-.74.02-1.02 0-1.78-.32-3.4-2.36-3.4zM372.48 897c-.02.34-.02.7-.02.94 0 .32-.14.6-.34.8l-.02.02c-.2.2-.46.3-.76.3h-18.36c-1 0-1.14-1.02-1.14-2.2 0-.38 0-.68.02-.98 0-.36.02-.7.02-.96 0-.3.12-.58.32-.78.2-.2.48-.32.78-.32h18.36c1 0 1.16 1.02 1.16 2.2 0 .38-.02.68-.02.98zm-1.14-4.38h-18.36c-.62 0-1.2.28-1.6.68-.44.42-.7 1-.7 1.62v.92c-.02.36-.04.74-.04 1.02 0 1.8.32 3.4 2.34 3.4h18.36c.62 0 1.18-.26 1.6-.64l.02-.04c.42-.42.68-1 .68-1.64 0-.34 0-.62.02-.9.02-.36.02-.74.02-1.02 0-1.78-.3-3.4-2.34-3.4zm28.22-6.46c0 .34-.02.7-.02.94 0 .32-.12.6-.32.8l-.02.02c-.2.18-.48.3-.78.3h-18.34c-1 0-1.16-1.04-1.16-2.2 0-.38.02-.68.02-.98.02-.36.02-.7.02-.96 0-.3.14-.58.34-.78.2-.22.48-.34.78-.34h18.34c1.02 0 1.16 1.04 1.16 2.22 0 .38 0 .68-.02.98zm-1.14-4.38h-18.34c-.64 0-1.2.26-1.62.68-.42.42-.68 1-.68 1.62 0 .36-.02.64-.02.92-.02.36-.02.74-.02 1.02 0 1.78.3 3.4 2.34 3.4h18.34c.62 0 1.18-.26 1.6-.64l.04-.04c.4-.42.68-1 .68-1.64 0-.34 0-.62.02-.92 0-.36.02-.74.02-1 0-1.8-.32-3.4-2.36-3.4zm-25.94 4.38c-.02.34-.02.7-.02.94 0 .32-.14.6-.34.8l-.02.02c-.2.18-.46.3-.76.3h-18.36c-1 0-1.14-1.04-1.14-2.2 0-.38 0-.68.02-.98 0-.36.02-.7.02-.96 0-.3.12-.58.32-.78.2-.22.48-.34.78-.34h18.36c1 0 1.16 1.04 1.16 2.22 0 .38-.02.68-.02.98zm-1.14-4.38h-18.36c-.62 0-1.2.26-1.6.68-.44.42-.7 1-.7 1.62v.92c-.02.36-.04.74-.04 1.02 0 1.78.32 3.4 2.34 3.4h18.36c.62 0 1.18-.26 1.6-.64l.02-.04c.42-.42.68-1 .68-1.64 0-.34 0-.62.02-.92.02-.36.02-.74.02-1 0-1.8-.3-3.4-2.34-3.4zm173.2-33.68c-.02 1.54-.06 3.42-.06 5.46 0 1.18-1.2 1.36-2.58 1.36h-.68c-.02-.02-.02-.06-.04-.06l-.9.02c-.42 0-.84-.06-1.2-.18-.1-.04-.18-.06-.26-.1-.36-.2-.64-.48-.64-1.04v-10.28c.22-1.56.96-1.62 2.98-1.62h.02c.02 0 .02-.04.02-.04 1.86-.02 2.76-.04 3.08.66.36.8.32 2.52.26 5.82zm-5.18 20.76c-.76.76-1.82 1.22-2.98 1.22H494.8c-1.16 0-2.2-.46-2.96-1.22a4.208 4.208 0 01-1.24-2.96v-35.26c0-1.16.48-2.22 1.24-2.98.76-.76 1.8-1.22 2.96-1.22h41.58c1.16 0 2.22.46 2.98 1.22.76.76 1.22 1.82 1.22 2.98v9.82c-.32 0-.62.02-1.1.02-.08 0-.14.08-.24.08-1.4.16-2.02.68-2.24 2.36v.26c-.06.56-.1 1.16-.1 2.04 0 .64.02 1.58.04 2.7.02 1.46.06 3.26.06 5.64 0 1.82 1.16 2.32 2.38 2.44.04 0 .06.04.1.04.4 0 .74.02 1.1.02v9.84c0 1.14-.46 2.2-1.22 2.96zm2.42-28.4v-9.82c0-1.5-.62-2.84-1.6-3.82-.96-.98-2.3-1.58-3.8-1.58H494.8c-1.46 0-2.82.6-3.8 1.58-.98.98-1.58 2.32-1.58 3.82v35.26c0 1.48.6 2.82 1.58 3.8.96.96 2.32 1.56 3.8 1.56h41.58c1.48 0 2.82-.6 3.8-1.56.98-.98 1.6-2.32 1.6-3.8v-9.8h.12c2.02 0 3.78-.34 3.78-2.54 0-2.3.02-4.02.04-5.46.06-3.44.08-5.26-.38-6.32-.56-1.26-1.6-1.34-3.56-1.32zm268.78 82.7l-9.26 9.26c-.88.9-2.1 1.36-3.28 1.36-1.2 0-2.4-.46-3.3-1.36l-.02-.02c-.88-.92-1.34-2.1-1.34-3.28 0-1.2.46-2.4 1.36-3.3l9.26-9.26.02-.02c1.56-1.54 3.38-1.68 4.9-1.04.6.26 1.16.64 1.62 1.12.48.46.86 1.02 1.1 1.62.66 1.52.52 3.36-1.06 4.92zm.8-7.38c-.58-.58-1.26-1.06-2-1.36-1.92-.82-4.24-.66-6.2 1.28l-9.28 9.28a5.847 5.847 0 00-1.72 4.14c0 1.5.58 3 1.72 4.14a5.826 5.826 0 004.14 1.7c1.48 0 3-.56 4.12-1.7l9.26-9.26c1.96-1.96 2.14-4.3 1.32-6.24-.32-.74-.78-1.42-1.36-1.98zm-7.76 25.78h-8.92l-7.64-7.66 3.58-2.16c.18-.1.28-.3.28-.5v-18.16l8.5-8.48 6.98.02 13.52 11.74.04 9.36-16.34 15.84zm-28.4 9.08c-2.74-.78-4.9-2.92-6.76-5.54l8.32-5.02 9 7.84c-4.34 2.86-7.78 3.52-10.56 2.72zm11.58-3.38l-8.96-7.82 8.16-4.9 7.58 7.54-6.78 5.18zm-34.4-3.56V784.46h37.34V930.9l-37.34 22.5v-9.7zm-41.54 1.76c.62-3.22.98-6.52 1.12-9.88.1-.12.3-.14.3-.3v-5.38c0-.16-.2-.2-.3-.3-.18-3.96-.66-7.82-1.48-11.58.04-.12.2-.16.16-.28l-1.38-5.2c-.04-.1-.18-.06-.24-.14-1.2-3.78-2.74-7.4-4.54-10.88 0-.12.14-.2.08-.32l-2.68-4.66c-.08-.12-.24-.04-.36-.1-.64-.98-1.3-1.96-1.98-2.9l40.4 26.02c.04.02.06.02.08.02.1.1.14.28.3.28.1 0 .1-.14.18-.18h10.7v1.2h-7.74c-1.84 0-3.02 1.02-3.54 2.32-.2.5-.3 1.02-.3 1.58 0 .52.1 1.06.3 1.56.52 1.3 1.7 2.32 3.54 2.32h7.74v7.86h-7.74c-1.84 0-3.02 1.02-3.54 2.32a4.265 4.265 0 000 3.14c.52 1.3 1.7 2.32 3.54 2.32h7.74v1.16h-40.36zm-159.72-8.36v-36.84h34.54l-.56.94c-.06.12.08.2.08.34-1.8 3.46-3.34 7.08-4.54 10.86-.06.08-.2.04-.22.14l-1.4 5.2c-.04.12.12.16.16.28-.82 3.76-1.3 7.62-1.48 11.58-.1.1-.28.14-.28.3v5.38c0 .14.18.18.28.28.04.52.04 1.04.08 1.54h-26.66zm-79.52 0V796.52h7.46c.1.04.14.2.26.16l.6-.16h70.02v85.6c-.08.1-.24.12-.24.24 0 .16.16.16.24.26v16.56c-.26.06-.5.22-.5.48 0 .28.24.42.5.5v36.94H471.6zm-63.72-141.16v-64.72h62.52V937.1h-62.52V795.94zm-79.52 40.74v-40.16h78.34V937.1h-78.34V836.68zm-94.42 98.88c.1-.1.28-.14.28-.28v-5.38c0-.16-.18-.2-.28-.3-.18-3.96-.64-7.82-1.48-11.58.04-.12.2-.16.18-.28l-1.4-5.2c-.04-.1-.16-.06-.24-.14-1-3.18-2.3-6.22-3.72-9.18h67.78c.24 0 .44-.14.54-.34l5.46-9.48h26.12v43.7h-93.32c.02-.5.06-1.02.08-1.54zM70.8 945.48v-1.18h7.74c1.84 0 3.02-1.02 3.54-2.32a4.265 4.265 0 000-3.14c-.52-1.3-1.7-2.32-3.54-2.32H70.8v-7.86h7.74c1.84 0 3.02-1.02 3.54-2.32.2-.5.3-1.04.3-1.56 0-.56-.1-1.08-.3-1.58-.52-1.3-1.7-2.32-3.54-2.32H70.8v-1.76l38.9-22.46-2.62 4.54c-.06.12.08.2.08.32-1.8 3.48-3.34 7.1-4.54 10.88-.06.08-.2.04-.22.14l-1.42 5.2c-.02.12.14.16.18.28-.82 3.76-1.3 7.62-1.48 11.58-.1.1-.28.14-.28.3v5.38c0 .16.18.18.28.28.16 3.38.5 6.7 1.12 9.92h-30zm-1.18 7.92l-37.34-22.5V784.46h37.34V953.4zm-22.6-2.58c-2.5.88-5.62.26-9.72-2.84l8.02-7.84 8.24 4.96c-2 2.56-4.04 4.84-6.54 5.72zm-10.74-3.5l-7.8-5.26 7.54-7.52 8.26 4.98-8 7.8zm-34.22-21.6l.04-9.36 13.5-11.74 7-.02 8.5 8.48v18.16c0 .2.1.4.28.5l3.58 2.18-7.64 7.64H18.4L2.06 925.72zM70.8 937.7h7.74c1.28 0 2.08.7 2.44 1.58.14.36.22.74.22 1.12 0 .4-.08.78-.22 1.14-.36.88-1.16 1.56-2.44 1.56H70.8v-5.4zm0-15.64h7.74c1.28 0 2.08.7 2.44 1.58.14.36.22.74.22 1.14 0 .38-.08.76-.22 1.12-.36.88-1.16 1.58-2.44 1.58H70.8v-5.42zm11.52-139.38h11.5v12.54h-5.46c-.32 0-.58.26-.58.6v76.7c0 .34.26.6.58.6h12.22v27.44l-18.26 10.56V782.68zm12.7-8.22h3.74v93.9h-3.74v-93.9zm4.94-43.24H406.7v5.32H105.96c-.32 0-.6.26-.6.58v131.24h-5.4V731.22zm245.62-65.74l25.58 6.86 38.94 10.42-175.84 47.12-62.16-16.66c-.32-.08-.64.1-.72.42l-3.9 14.56-3.76-13.98 181.86-48.74zm-173.22-82.22l61.74 16.56 178.12 47.72 66.8 17.9 182.02 48.78-4.24 15.82h-65.66L163.72 615.52l8.64-32.26zm-4.88 13.7l-3.76-14 181.86-48.72 64.52 17.28-175.84 47.1-62.16-16.64c-.32-.08-.64.1-.72.4l-3.9 14.58zm420.74 2.28l-175.84 47.12-175.84-47.12 175.84-47.12 175.84 47.12zM172.36 452.02l61.74 16.56 178.12 47.7 66.8 17.92 182.02 48.76-4.32 16.14-4.32 16.12-488.68-130.94 8.64-32.26zm-4.88 13.7l-3.76-14.02 181.86-48.72 39 10.44 25.52 6.84-175.84 47.12-62.16-16.66a.6.6 0 00-.72.42l-3.9 14.58zm4.88-144.96l61.74 16.56 178.12 47.72 66.8 17.9 182.02 48.76-4.32 16.14-4.32 16.12-239.86-64.26-61.1-16.38-187.72-50.3 8.64-32.26zm-4.88 13.7l-3.76-14 181.86-48.72 38.7 10.36 25.82 6.92-175.84 47.12-62.16-16.66a.57.57 0 00-.72.42l-3.9 14.56zm-.08-126.38h4.48c0 .16-.04.32-.04.48 0 1.62.6 3.16 1.6 4.34 1 1.18 2.4 2.04 4.02 2.32.38.06.76.1 1.16.1.4 0 .78-.04 1.16-.1a6.795 6.795 0 004.02-2.32 6.837 6.837 0 001.58-4.34c0-.16-.02-.32-.04-.48h56.28l419.42 112.38-4.32 16.14-4.32 16.12-61.74-16.54-178.12-47.74-61.1-16.36-187.72-50.3 3.68-13.7zm16.8.48c0 1.34-.5 2.6-1.32 3.58-.8.96-1.96 1.68-3.3 1.9-.32.06-.64.08-.96.08-.34 0-.66-.02-.98-.08-1.32-.22-2.48-.94-3.3-1.9-.82-.98-1.3-2.24-1.3-3.58 0-.16 0-.32.02-.48h11.12c0 .16.02.32.02.48zm-52.76-7.4h564.8l-27.36 5.72H160.34l-28.9-5.72zM86.1 175.74c-.16.12-.28.3-.28.5v7.54h-7.26v-33.56h13.02v21.7l-5.48 3.82zm4.16 33.12H84.6l-6.04-10.44v-13.44h7.64l4.06 3.38v20.5zM78.56 1.18H746.2v147.86h-7.26V9.02a.58.58 0 00-.58-.58H86.42c-.34 0-.6.26-.6.58v140.02h-7.26V1.18zm661.6 207.68h-5.66v-20.5l4.06-3.38h7.64v13.44l-6.04 10.44zm-6.98-36.94v-21.7h13.02v33.56h-7.26v-7.54c0-.2-.12-.38-.28-.5l-5.48-3.82zM87 87.74h4.58v61.3H87v-61.3zm4.58-9.64h-4.56V9.62h4.56V78.1zm304.34.6v79.7h-7.26V9.62h7.26V78.7zm93.42 0v79.7h-7.24V9.62h7.24V78.7zm235.4 80.3v-8.78H732v30h-7.26V159zm-1.18-9.36v8.76H502.68v-8.46c0-.32-.28-.6-.6-.6h-11.56v-61.6h233.04v61.9zM397.1 87.74h83.8v70.66h-83.8V87.74zm9.52-4.46c0 .9-.38 1.7-.96 2.3-.6.6-1.4.96-2.3.96h-6.26V79.3l2.02-.06c.72-.02 1.38-.04 2.12-.04 3.22 0 5.38.5 5.38 4.08zm11.2 3.26h-11.5c.06-.04.12-.06.16-.12.82-.8 1.32-1.92 1.32-3.14 0-2.04-.58-3.22-1.5-3.98h11.52v7.24zm63.08 0h-61.88V79.3h61.88v7.24zM376.52 159v-8.46h10.96v29.68h-10.96V159zm10.96-9.66h-11.56c-.32 0-.58.28-.58.6v8.46H101.2V87.74h286.28v61.6zm-290 30.88h-4.72v-30h7.26v30h-2.54zm3.72-20.64h274.12v20.64H101.2v-20.64zm287.46 20.64v-20.64h100.68v20.64H388.66zm101.86 0v-29.68h10.96v29.68h-10.96zm12.16-20.64h220.88v20.64H502.68v-20.64zm230.5-71.84h4.58v61.3h-4.58v-61.3zm4.58-9.64h-4.58V9.62h4.58V78.1zm-101.5 1.2h87.88c.34 0 .6-.28.6-.6V9.62H732V78.7c0 .32.26.6.58.6h5.18v7.24h-5.18c-.32 0-.58.26-.58.6v61.9h-7.26v-61.9c0-.34-.26-.6-.6-.6H490.52V79.3h137.3c.34 0 .6-.28.6-.6V9.62h7.26V78.7c0 .32.26.6.58.6zm87.3-1.2h-86.7V9.62h86.7V78.1zm-96.32 0h-136.7V9.62h136.7V78.1zM480.9 9.62V78.1h-77.54c-.02 0-.02.04-.04.04-.66-.06-1.32-.14-2.08-.14-.6 0-1.36.04-2.16.06-.6.02-1.28.02-1.98.04V9.62h83.8zM387.48 78.1H225.66V9.62h161.82V78.1zM100.02 17.58V78.7c0 .32.28.6.6.6h116.02c.32 0 .58-.28.58-.6V9.62h7.26V78.7c0 .32.26.6.6.6h162.4v7.24H100.62c-.32 0-.6.26-.6.6v61.9h-7.26v-61.9c0-.34-.26-.6-.58-.6H87V79.3h5.18c.32 0 .58-.28.58-.6V9.62h7.26v7.96zm38.22 7.04l-15-15h15v15zm-37.04-6.44c3.1.2 5.08 1.98 5.98 4.24.38.94.56 1.96.56 2.96 0 1.04-.18 2.06-.56 2.98-.9 2.24-2.88 4.04-5.98 4.24V18.18zm114.84-8.56V78.1H101.2V43.68h37.64c.32 0 .6-.26.6-.58V9.62h76.6zm-94.48 0l16.68 16.68v16.2H101.2v-8.78c3.64-.22 6.02-2.26 7.08-4.9.44-1.1.66-2.26.64-3.44 0-1.16-.2-2.32-.64-3.4-1.06-2.66-3.44-4.7-7.08-4.92V9.62h20.36zM92.94 181.4h638.88l-4.98 18.56H97.92l-4.98-18.56zm558.78 27.16c0 1.34-.48 2.6-1.3 3.58-.82.96-1.98 1.68-3.3 1.9-.32.06-.64.08-.98.08-.32 0-.64-.02-.96-.08-1.34-.22-2.48-.94-3.3-1.9a5.488 5.488 0 01-1.32-3.58c0-.16.02-.32.02-.48h11.14v.48zm9.32 13.22l-181.86 48.74-36.68-9.84-27.84-7.46 168.48-45.14h56.28c-.02.16-.04.32-.04.48 0 1.62.6 3.16 1.58 4.34 1.02 1.18 2.42 2.04 4.02 2.32.38.06.78.1 1.16.1.4 0 .8-.04 1.16-.1a6.795 6.795 0 004.02-2.32c1-1.18 1.6-2.72 1.6-4.34 0-.16-.04-.32-.04-.48h4.5l3.66 13.7zm-414.86-13.7h332.4l-166.2 44.52-166.2-44.52zm342.04 128.66l-175.84 47.12-175.84-47.12 175.84-47.1 175.84 47.1zm72.82 16.28l-181.86 48.74-7.76-2.08-56.76-15.22 175.84-47.1 62.16 16.66c.32.08.64-.12.74-.42l3.9-14.56 3.74 13.98zM588.22 468l-175.84 47.1L236.54 468l175.84-47.12L588.22 468zm72.82 16.28L479.18 533l-14.3-3.82-50.22-13.46L590.5 468.6l62.16 16.66c.32.08.64-.1.74-.42l3.9-14.56 3.74 14zm0 131.24l-181.86 48.74-64.52-17.3 175.84-47.1 62.16 16.66c.32.08.64-.12.74-.42l3.9-14.56 3.74 13.98zm74.5 158.34v94.5h-5.4V737.12c0-.32-.28-.58-.6-.58H471.6v-5.32h263.94v42.64zm4.94 94.5h-3.76v-93.9h3.76v93.9zm-151.74 29.4l.78.4c.46.26.92.5 1.34.74 1.22.7 2.06 1.38 1.6 2.16l-.22.42c-.8 1.38-1.16 2.02-1.58 2.02-.5 0-1.34-.5-2.94-1.46l-1.14-.66c.66-1.24 1.42-2.42 2.16-3.62zm-37.62-14.8h39.8l5.82 2.38-1.48 1.48c-.1.1 0 .24 0 .4-2.62 2.86-5 5.94-7.1 9.22-.14.06-.3-.02-.36.1l-1.46 2.54h-35.22v-16.12zm-49.32-92.3h60.02v26.98l-10.7-2.86v-18.84c0-.34-.26-.6-.58-.6h-66.2l17.46-4.68zM485.56 758l-13.96 3.74v-24.02h13.96V758zm-13.96 4.96l13.96-3.74v24.04H471.6v-20.3zm257.34 85.06h-67.36l.76-2.82c.08-.32-.1-.66-.42-.74l-92.58-24.8v-47.1l92.58-24.8c.32-.08.5-.42.42-.72l-2.5-9.32h69.1v110.3zm-26.52 25.84c0-2.16.9-4.14 2.32-5.56a7.844 7.844 0 015.58-2.32c2.16 0 4.14.88 5.56 2.32a7.815 7.815 0 012.34 5.56v7.92h-15.8v-7.92zm-42.06-25.84h-91.02v-27.14l91.7 24.58-.68 2.56zm-91.02 1.18h159.6v5.64h-159.6v-5.64zm-7.52 4.24l-10.7-2.86V816l10.7 2.88v34.56zm0-78.86v8.68h-32.38l32.38-8.68zM492 757.48l69.82-18.7v34.56l-36.96 9.92H492v-25.78zm108.3 127.54c.38.34.74.68 1.1 1.04l.02.04c1 .98 1.62 1.84.98 2.5l-.32.32c-1.12 1.12-1.64 1.66-2.06 1.56-.46-.12-1.16-.84-2.46-2.18l-.88-.9c.48-.5.92-1.04 1.42-1.56.5-.48 1.06-.94 1.56-1.42l.64.6zm13.48-12.08c-.12-.02-.22-.16-.32-.1l-4.66 2.7c-.14.08-.06.24-.1.36-3.28 2.1-6.36 4.48-9.24 7.12-.14 0-.28-.12-.4 0l-1.4 1.4-6.36-2.58a.616.616 0 00-.26-.06h-39.92V851.8l10.7 2.86v.78c0 .32.28.58.6.58h4.5l52.84 14.18c-2.04.82-4.04 1.74-5.98 2.74zm.36 2.18c.26.44.54.86.78 1.3l.02.02c.7 1.22 1.08 2.22.3 2.68l-.4.22c-1.38.8-2.02 1.18-2.38.98-.42-.24-.92-1.12-1.82-2.74l-.62-1.1c1.18-.74 2.38-1.48 3.62-2.16l.5.8zm15.92-5.98c.14.48.3.96.42 1.44.36 1.38.48 2.46-.38 2.68l-.46.14c-1.54.42-2.26.6-2.56.32-.34-.34-.58-1.3-1.04-3.12l-.32-1.28c1.32-.38 2.7-.72 4.06-1.04l.28.86zm17.76-3.68c-.1-.1-.14-.3-.3-.3h-5.38c-.16 0-.18.2-.3.3-3.96.18-7.82.64-11.58 1.48-.1-.06-.16-.2-.28-.16l-5.2 1.38c-.1.04-.06.16-.14.24-1 .32-1.96.72-2.96 1.08l-50.2-13.46h86.72l-2.72 10.22c-2.52-.42-5.06-.66-7.66-.78zm-.84 2.02c.02.48.04.98.04 1.5 0 1.42-.16 2.5-1.08 2.5h-.46c-1.6 0-2.34 0-2.54-.36-.26-.42-.24-1.42-.22-3.26v-1.26c.72-.02 1.4-.1 2.1-.1.72 0 1.42.08 2.12.1l.04.88zm12.56 2.02l.34-1.22c1.38.32 2.76.66 4.08 1.04l-.2.94c-.12.48-.24.98-.36 1.46-.36 1.36-.8 2.36-1.68 2.12l-.44-.12h-.04c-1.52-.4-2.22-.6-2.34-.98-.14-.48.14-1.44.64-3.24zm21.34 6.04l-4.66-2.7c-.12-.06-.2.08-.34.1-3.46-1.8-7.08-3.36-10.86-4.54-.08-.08-.04-.2-.14-.24l-5.2-1.38c-.12-.04-.16.1-.28.16-.92-.2-1.84-.38-2.74-.54l2.78-10.38h14.78l34.14 9.16c-1.68.4-3.26 1.08-4.46 2.28a9.06 9.06 0 00-2.66 6.4v7.74l-19.48-5.22c-.26-.16-.54-.32-.78-.48-.06-.12.02-.28-.1-.36zm-4.84-1.22c1.24.68 2.42 1.42 3.62 2.18l-.4.78c-.26.46-.5.92-.74 1.32-.7 1.22-1.38 2.08-2.18 1.62l-.4-.22c-1.38-.82-2.02-1.18-2.02-1.58-.02-.5.5-1.36 1.44-2.96l.68-1.14zm8.48 4.04l12.8 3.42h-8.48c-1.4-1.2-2.84-2.34-4.32-3.42zm8.46 9.06l-.58.64c-.36.36-.68.72-1.06 1.1l-.02.02c-.98.98-1.86 1.62-2.5.98l-.32-.34c-1.14-1.12-1.66-1.64-1.56-2.04.12-.48.84-1.16 2.18-2.46l.88-.9c.52.5 1.06.94 1.58 1.42.48.52.92 1.06 1.4 1.58zm26.42-5.64v-7.92a9.06 9.06 0 00-2.66-6.4c-1.18-1.16-2.7-1.86-4.36-2.26-.06-.04-.02-.16-.1-.2l-33.5-8.98h50.16v25.76h-9.54zm16.14 0h-5.4v-12.24h5.4v12.24zM652.4 746.46l-32.64-8.74h34.98l-2.34 8.74zm-37.22-8.74l37.48 10.04c.32.08.64-.1.74-.42l2.58-9.62h2.64l2.42 9.04-91.7 24.58v-33.62h45.84zm-47.02 117.12h-5.14V737.72h5.14v117.12zm-6.92-117.12L492 756.28v-18.56h69.24zm-70.44 0v46.14c0 .34.28.6.6.6h70.42v5.02H471.6v-5.02h14.56c.32 0 .58-.26.58-.6v-46.14h4.06zm-318.44-23.2l57.96 15.52H168.2l4.16-15.52zm172.62 80.82l-17.46-4.68h79.18v4.68h-61.72zm-17.2 0c-.34 0-.6.26-.6.6v4.5l-10.72 2.86v-12.64h6.5l17.46 4.68h-12.64zm-21.94 75.16h21.34v21.72h-21.34V870.5zm-80.76 30.88l-.82.52c-.42.26-.86.52-1.28.78l-.02.02c-1.22.7-2.22 1.06-2.68.3l-.24-.42c-.78-1.36-1.16-2-.96-2.36.24-.44 1.12-.92 2.74-1.84l1.08-.6c.76 1.18 1.5 2.36 2.18 3.6zm-10.12-13.96l-.6.64c-.34.36-.66.72-1.02 1.1l-.04.02c-1 .98-1.86 1.62-2.5.98l-.32-.34c-1.14-1.12-1.66-1.64-1.56-2.04.12-.48.84-1.16 2.16-2.46l.9-.9c.52.5 1.06.94 1.56 1.42.5.52.94 1.06 1.42 1.58zm-104.8 8.98l-.04.04c-.04.02-.06.02-.1.04l.14-.08zm.56 1.36l.78.4c.46.26.92.5 1.32.74 1.24.7 2.08 1.38 1.62 2.16l-.22.42c-.8 1.38-1.16 2.02-1.58 2.02-.48 0-1.34-.5-2.94-1.46l-1.14-.66c.66-1.24 1.42-2.42 2.16-3.62zm-4.16-14.8h14.92c0 .02-.02.04-.04.06-.14 0-.28-.12-.4 0l-3.8 3.8c-.12.1 0 .24 0 .4-2.02 2.2-3.92 4.52-5.64 6.98l-5.04 2.92v-14.16zm55.86-135.92c-.08.3.12.64.42.72l146.12 39.16v18.4l-146.12 39.14c-.3.08-.5.42-.42.74l.76 2.82h-56.62v-110.3h58.36l-2.5 9.32zm96.52-9.32l50.02 13.4v34.56l-145.24-38.92 2.42-9.04h92.8zm50.02 12.18l-45.44-12.18h45.44v12.18zm7.5 3.24l69.84 18.7v11.42h-69.84v-30.12zm10.72 83.1l-10.72 2.86v-34.58l10.72-2.86v34.58zm-10.72 6.18v-2.1l10.72-2.86v4.96h-10.72zm-7.5 6.78v5.64h-202.4v-5.64h202.4zm0-1.18h-21.2l21.2-5.68v5.68zm-145.24-2.56l145.24-38.92v34.58l-25.76 6.9H164.4l-.68-2.56zm-49.28 20.52c2.18 0 4.14.88 5.58 2.32a7.88 7.88 0 012.32 5.56v7.92h-15.78v-7.92c0-2.16.88-4.14 2.32-5.56a7.797 7.797 0 015.56-2.32zm7.84 19.04c.38.34.72.68 1.1 1.04l.02.04c1 .98 1.62 1.84.98 2.5l-.32.32c-1.12 1.12-1.64 1.66-2.04 1.56-.48-.12-1.18-.84-2.48-2.18l-.88-.9c.48-.5.92-1.04 1.42-1.56.5-.48 1.06-.94 1.56-1.42l.64.6zm13.84-9.9c.26.44.54.86.78 1.3l.02.02c.7 1.22 1.08 2.22.3 2.68l-.4.22c-1.38.8-2.02 1.18-2.38.98-.42-.24-.92-1.12-1.82-2.74l-.62-1.1c1.18-.74 2.38-1.48 3.62-2.16l.5.8zm16.14-8.18c-.12-.06-.16-.2-.3-.16l-5.2 1.38c-.1.04-.06.16-.14.24-3.78 1.18-7.4 2.74-10.86 4.54-.12-.02-.2-.16-.32-.1l-4.66 2.7c-.14.08-.06.24-.1.36a65.51 65.51 0 00-7.16 5.22v-7.26a9.06 9.06 0 00-2.66-6.4c-1.2-1.2-2.78-1.88-4.46-2.28l34.16-9.16h6.82v10.02c-1.72.26-3.44.52-5.12.9zm-.24 2.2c.16.48.3.96.44 1.44.36 1.38.48 2.46-.4 2.68l-.44.14c-1.54.42-2.26.6-2.54.32-.36-.34-.6-1.3-1.06-3.12l-.34-1.28c1.34-.38 2.72-.72 4.1-1.04l.24.86zm16.94-1.66c.02.48.04.98.04 1.5 0 1.42-.18 2.5-1.08 2.5h-.46c-1.6 0-2.34 0-2.54-.36-.26-.42-.26-1.42-.22-3.26v-1.26c.72-.02 1.4-.1 2.12-.1.7 0 1.4.08 2.1.1l.04.88zm12.56 2.02l.34-1.22c1.38.32 2.76.66 4.08 1.04l-.2.94c-.12.48-.22.98-.36 1.46-.36 1.36-.8 2.36-1.68 2.12l-.44-.12h-.04c-1.52-.4-2.24-.6-2.34-.98-.14-.48.14-1.44.64-3.24zm16.5 4.82c1.24.68 2.42 1.42 3.62 2.18l-.42.78c-.24.46-.48.92-.72 1.32-.7 1.22-1.4 2.08-2.18 1.62l-.4-.22c-1.38-.82-2.02-1.18-2.02-1.58-.02-.5.5-1.36 1.44-2.96l.68-1.14zm46.42-3.82H271v10.54h-29.44V870.5h2.88zm27.16-1.18h-30.64c-.04 0-.02.06-.08.06-.02 0-.04-.06-.08-.04l-34.12 9.14c-1.22-.9-2.46-1.76-3.74-2.58-.04-.12.04-.28-.1-.36l-4.64-2.7c-.12-.06-.22.08-.34.1-3.46-1.8-7.08-3.36-10.86-4.54-.06-.08-.04-.2-.14-.24l-5.2-1.38c-.14-.04-.18.1-.3.16-3.74-.84-7.62-1.3-11.56-1.48-.1-.1-.14-.3-.3-.3h-5.38c-.16 0-.18.2-.3.3-1.76.08-3.52.2-5.26.4v-9.84h157.32c.32 0 .58-.26.58-.58V843.6h10.72v25.72H271.6zm121.14-95.76l13.96 3.74v5.96h-13.96v-9.7zm13.96-35.84v38.36l-13.96-3.74v-34.62h13.96zm-15.14 0v46.14c0 .34.26.6.58.6h14.56v5.02h-90.24v-5.02h70.44c.32 0 .58-.26.58-.6v-46.14h4.08zm-5.26 0v32.9l-69.84-18.72v-14.18h69.84zm-71.02 0v117.12h-5.12V737.72h5.12zm-214.1 134.22H88.96v-75.52h4.86v72.52c0 .34.28.6.6.6h11.54c.32 0 .6-.26.6-.6v-12.92H146L112.5 865c-.08.04-.06.14-.1.2-1.66.4-3.2 1.1-4.38 2.26a9.06 9.06 0 00-2.66 6.4v23.94l-3.6 2.08v-27.36a.58.58 0 00-.58-.58zm2.38 41.52l.92.2c.5.12.98.24 1.46.34 1.38.38 2.36.82 2.12 1.7l-.1.44-.02.02c-.4 1.54-.58 2.24-.98 2.36-.46.14-1.44-.14-3.22-.64l-1.24-.36c.32-1.36.66-2.74 1.06-4.06zm-2.84 19.12c0-.7.1-1.4.1-2.1l.88-.04c.5-.02.98-.04 1.5-.04 1.42 0 2.5.16 2.5 1.08v.46c0 1.58.02 2.34-.34 2.54-.42.26-1.42.24-3.28.22h-1.26c0-.72-.1-1.4-.1-2.12zm1.78 15.04l.86-.26c.5-.16.98-.3 1.46-.42 1.36-.36 2.44-.48 2.68.38l.12.46c.4 1.54.6 2.24.32 2.54-.34.36-1.3.6-3.1 1.06l-1.28.32c-.4-1.34-.74-2.7-1.06-4.08zm6.06 16.16l.8-.5c.42-.26.86-.54 1.28-.8h.04c1.2-.7 2.22-1.08 2.66-.3l.24.4c.78 1.38 1.16 2.02.96 2.38-.24.42-1.1.92-2.74 1.82l-1.08.62c-.76-1.2-1.5-2.38-2.16-3.62zm11.52 15.54c-.5-.5-.94-1.04-1.42-1.58l.6-.62c.34-.38.66-.74 1.02-1.1l.04-.04c1-.98 1.86-1.62 2.5-.96l.32.32c1.14 1.12 1.66 1.64 1.56 2.04-.12.48-.84 1.18-2.16 2.48l-.9.88c-.52-.48-1.06-.94-1.56-1.42zm11.9 9.36l.42-.78c.24-.46.48-.92.72-1.34.72-1.22 1.4-2.06 2.18-1.6l.4.22c1.38.8 2.02 1.16 2.02 1.58.02.48-.48 1.34-1.44 2.94l-.68 1.14c-1.24-.66-2.42-1.42-3.62-2.16zm15.7 7.16l.2-.92c.12-.5.24-.98.36-1.48.38-1.36.8-2.36 1.68-2.12l.46.12h.02c1.52.42 2.24.6 2.34 1 .14.46-.14 1.42-.64 3.22l-.34 1.22c-1.38-.32-2.76-.64-4.08-1.04zm19.14 2.84c-.72 0-1.42-.1-2.12-.12l-.04-.86c-.02-.5-.02-1-.02-1.52 0-1.4.16-2.48 1.06-2.5h.46c1.6 0 2.34 0 2.54.36.26.42.26 1.42.22 3.28v1.24c-.7.02-1.4.12-2.1.12zm15.02-1.8l-.24-.84c-.16-.5-.3-.98-.44-1.46-.36-1.36-.48-2.44.4-2.68l.44-.12c1.54-.42 2.26-.62 2.56-.32.34.32.58 1.3 1.04 3.1l.34 1.28c-1.34.4-2.72.74-4.1 1.04zm16.16-6.04l-.48-.8c-.28-.44-.56-.86-.8-1.28l-.02-.04c-.7-1.22-1.08-2.22-.3-2.68l.42-.22c1.36-.8 2-1.16 2.36-.96.44.22.92 1.1 1.82 2.72l.62 1.1c-1.18.74-2.36 1.5-3.62 2.16zm15.54-11.52c-.5.5-1.06.94-1.56 1.42l-.64-.6c-.38-.34-.74-.68-1.1-1.04l-.04-.02c-.98-1-1.6-1.86-.96-2.5l.32-.34c1.12-1.12 1.66-1.64 2.06-1.54.46.1 1.16.82 2.46 2.16l.88.9c-.48.52-.92 1.06-1.42 1.56zm9.36-11.9l-.76-.42c-.48-.26-.94-.5-1.36-.74-1.22-.7-2.06-1.38-1.6-2.16l.22-.4c.8-1.38 1.18-2.02 1.58-2.04.48 0 1.34.5 2.96 1.46l1.14.66c-.68 1.24-1.44 2.44-2.18 3.64zm7.16-15.7l-.92-.22c-.5-.1-.98-.22-1.46-.34-1.36-.38-2.36-.8-2.12-1.68l.1-.46.02-.02c.4-1.52.58-2.24.98-2.34.48-.14 1.44.12 3.22.64l1.24.34c-.32 1.36-.66 2.74-1.06 4.08zm2.84-19.14c0 .72-.08 1.42-.1 2.12l-.88.02c-.48.02-.98.04-1.5.04-1.42 0-2.5-.16-2.5-1.06v-.48c0-1.58 0-2.32.34-2.54.42-.24 1.42-.24 3.28-.2h1.26c.02.7.1 1.4.1 2.1zm-4.4-19.94c-2.02.52-3.1.78-3.66 1.38-.76.78-.52 1.7.02 3.68l.12.44c.5 1.84 2.12 1.78 4.14 1.24.44-.12.96-.28 1.48-.46.26-.06.54-.14.8-.22.76 3.42 1.16 6.98 1.34 10.6-.46 0-.86 0-1.18-.02-2.08-.02-3.2-.04-3.9.4-.94.54-.92 1.5-.92 3.54v.48c0 1.9 1.58 2.26 3.68 2.26.44 0 .98-.04 1.54-.04.24-.02.52-.02.78-.04-.18 3.62-.6 7.16-1.34 10.6-.4-.1-.86-.22-1.2-.32-2-.56-3.06-.88-3.86-.64-1.04.3-1.28 1.2-1.8 3.16l-.12.48c-.5 1.86.94 2.58 2.96 3.14.44.12.98.24 1.52.36.26.06.54.12.8.2-1.1 3.42-2.5 6.7-4.12 9.86-.36-.22-.74-.44-1.04-.62-1.78-1.06-2.76-1.64-3.58-1.62-1.08.02-1.56.86-2.58 2.64l-.2.36-.04.02c-.94 1.66.26 2.76 2.06 3.78.42.26.9.5 1.38.76.24.12.46.26.7.38-1.94 3-4.14 5.82-6.52 8.46l-.84-.84c-1.44-1.5-2.22-2.3-3.02-2.48-1.06-.28-1.72.4-3.16 1.86l-.34.32c-1.34 1.34-.48 2.7.98 4.16l.02.04c.32.32.72.68 1.12 1.08.2.16.38.34.58.52-2.64 2.4-5.46 4.58-8.46 6.52-.2-.36-.42-.74-.6-1.06-1.02-1.82-1.56-2.78-2.28-3.18-.94-.52-1.78-.04-3.54.98l-.42.22c-1.62.96-1.14 2.5-.12 4.28l.02.04c.24.42.52.88.82 1.32.12.24.26.46.42.7-3.16 1.62-6.44 3.02-9.88 4.12-.1-.4-.22-.84-.3-1.22-.52-2-.8-3.08-1.38-3.66-.78-.76-1.7-.5-3.68.02l-.44.12c-1.86.5-1.78 2.14-1.24 4.14.12.46.28.98.44 1.5.08.26.16.54.24.8-3.44.74-6.98 1.14-10.6 1.32 0-.46 0-.84.02-1.18.02-2.08.04-3.18-.4-3.88-.56-.94-1.5-.94-3.56-.94h-.46c-1.92 0-2.26 1.6-2.26 3.68 0 .44.02 1 .04 1.56.02.24.02.52.02.76-3.62-.18-7.16-.58-10.6-1.32.12-.42.24-.86.34-1.2.56-2 .86-3.08.64-3.86-.3-1.04-1.22-1.3-3.18-1.82l-.48-.12c-1.84-.5-2.58.94-3.12 2.96-.12.46-.24.98-.36 1.52-.06.26-.14.54-.2.82-3.42-1.1-6.72-2.5-9.86-4.12.2-.36.44-.74.62-1.06 1.06-1.78 1.62-2.74 1.6-3.56 0-1.08-.84-1.56-2.6-2.58l-.38-.22h-.04c-1.64-.96-2.74.22-3.78 2.04-.24.42-.5.88-.74 1.36-.14.24-.26.48-.4.72-3-1.94-5.8-4.14-8.44-6.54.28-.28.62-.6.84-.82 1.48-1.46 2.3-2.22 2.48-3.04.26-1.04-.4-1.72-1.86-3.16l-.32-.34c-1.36-1.32-2.7-.46-4.18.98l-.02.04c-.32.32-.7.72-1.06 1.12-.18.18-.38.38-.54.56-2.4-2.64-4.6-5.44-6.54-8.44.38-.22.74-.42 1.08-.6 1.8-1.02 2.78-1.56 3.18-2.28.52-.96.04-1.78-.98-3.56l-.24-.4c-.94-1.64-2.48-1.16-4.28-.14l-.02.02c-.42.26-.88.54-1.34.82-.22.14-.46.28-.7.42-1.6-3.16-3-6.44-4.1-9.86.42-.12.84-.22 1.2-.32 2.02-.5 3.1-.78 3.66-1.36.76-.8.52-1.72-.02-3.68l-.12-.46c-.5-1.84-2.12-1.76-4.12-1.22-.46.12-.98.28-1.5.44-.26.06-.54.16-.8.24-.74-3.44-1.16-7-1.34-10.62.46.02.86.02 1.18.02 2.08.04 3.2.04 3.9-.38.92-.56.92-1.52.92-3.56v-.46c0-1.92-1.58-2.26-3.68-2.26-.44 0-.98.02-1.54.04-.24 0-.52 0-.78.02.18-3.62.6-7.16 1.34-10.6.4.12.86.24 1.2.34 2 .56 3.08.86 3.86.62 1.04-.28 1.28-1.2 1.8-3.16l.14-.48c.48-1.84-.96-2.58-2.98-3.12-.44-.12-.98-.26-1.52-.38-.26-.06-.54-.12-.8-.18 1.1-3.44 2.5-6.72 4.12-9.88.36.22.74.44 1.04.62 1.8 1.06 2.76 1.64 3.58 1.62 1.08-.02 1.56-.84 2.58-2.62l.2-.38.02-.02c.96-1.66-.24-2.74-2.04-3.78-.42-.26-.9-.5-1.38-.76-.24-.12-.46-.26-.7-.38 1.94-3 4.14-5.82 6.52-8.44.28.28.62.62.84.82 1.46 1.5 2.22 2.3 3.02 2.5 1.06.26 1.74-.42 3.18-1.88l.32-.32c1.34-1.34.48-2.7-.98-4.16l-.02-.04c-.32-.32-.72-.68-1.12-1.06-.2-.16-.38-.36-.58-.54 2.64-2.38 5.46-4.58 8.46-6.52.2.36.42.74.6 1.06 1.02 1.82 1.56 2.78 2.3 3.18.94.54 1.76.04 3.52-.98l.42-.22c1.62-.96 1.14-2.5.12-4.28l-.02-.04c-.24-.42-.52-.88-.8-1.32-.14-.24-.28-.46-.42-.68 3.14-1.64 6.42-3.04 9.84-4.14.12.42.24.86.32 1.22.52 2 .8 3.08 1.4 3.68.76.74 1.68.48 3.66-.04l.46-.12c1.84-.5 1.76-2.12 1.22-4.14-.12-.46-.28-.98-.44-1.5-.08-.24-.16-.54-.24-.8 3.44-.74 6.98-1.14 10.6-1.32v1.18c-.04 2.08-.06 3.2.38 3.9.56.92 1.52.92 3.56.92h.46c1.92 0 2.26-1.6 2.26-3.68 0-.44-.02-1-.04-1.54-.02-.26-.02-.54-.02-.78 3.6.18 7.16.58 10.6 1.32-.12.42-.24.86-.34 1.2-.56 2.02-.86 3.08-.64 3.88.3 1.02 1.22 1.28 3.18 1.8l.48.12c1.84.5 2.58-.94 3.12-2.96.12-.46.26-.98.36-1.52.06-.26.14-.54.2-.8 3.42 1.08 6.72 2.5 9.86 4.12-.2.36-.42.74-.62 1.04-1.06 1.8-1.62 2.74-1.6 3.58 0 1.06.84 1.56 2.62 2.56l.36.22.04.02c1.64.96 2.74-.24 3.78-2.04.24-.44.5-.9.74-1.4.14-.22.26-.44.4-.68 3 1.94 5.8 4.14 8.44 6.52-.28.28-.62.62-.84.82-1.48 1.46-2.28 2.24-2.48 3.04-.26 1.06.4 1.72 1.86 3.18l.34.32c1.34 1.34 2.7.48 4.16-.98l.02-.04c.32-.32.7-.7 1.08-1.12.16-.18.36-.38.52-.56 2.4 2.64 4.6 5.46 6.54 8.46-.38.2-.74.42-1.06.6-1.82 1.02-2.8 1.56-3.2 2.28-.52.96-.04 1.76.98 3.54l.24.4c.94 1.64 2.48 1.18 4.28.14l.02-.02c.42-.24.88-.52 1.34-.82.22-.14.46-.28.7-.42 1.62 3.16 3 6.44 4.1 9.86-.4.12-.84.22-1.2.32zm2.62 4.9l-.86.26c-.48.16-.98.3-1.44.42-1.38.38-2.46.5-2.7-.38l-.12-.44c-.4-1.54-.6-2.26-.32-2.56.34-.34 1.3-.58 3.12-1.06l1.26-.32c.42 1.34.74 2.7 1.06 4.08zm69.6-25.32c-.2 0-.4.12-.52.3l-5.48 9.52H226.7c-.08-.16-.16-.34-.24-.5 0-.14.14-.22.08-.34l-2.7-4.66c-.06-.12-.22-.04-.34-.1a66.25 66.25 0 00-7.12-9.22c0-.16.12-.3 0-.4l-3.8-3.8c-.12-.12-.26 0-.4 0a61.439 61.439 0 00-4.3-3.62l32.5-8.72v10.96c0 .32.26.6.58.6h30.64c.32 0 .58-.28.58-.6V870.5h32.48v21.72h-3.94zM407.3 730.04H238.2l174.18-46.66 174.18 46.66H407.3zm64.3 65.3v-4.68h25.64l-17.46 4.68h-8.18zm109.98 118.12l.92.2c.5.12.98.24 1.46.34 1.38.38 2.36.82 2.14 1.7l-.12.44-.02.02c-.4 1.54-.58 2.24-.98 2.36-.46.14-1.42-.14-3.22-.64l-1.22-.36c.32-1.36.64-2.74 1.04-4.06zm-2.84 19.12c0-.7.08-1.4.12-2.1l.86-.04c.5-.02.98-.04 1.5-.04 1.42 0 2.5.16 2.5 1.08v.46c.02 1.58.02 2.34-.36 2.54-.4.26-1.4.24-3.26.22h-1.24c-.04-.72-.12-1.4-.12-2.12zm1.78 15.04l.86-.26c.5-.16.96-.3 1.46-.42 1.36-.36 2.44-.48 2.68.38l.12.46c.42 1.54.6 2.24.32 2.54-.32.36-1.3.6-3.1 1.06l-1.28.32c-.4-1.34-.74-2.7-1.06-4.08zm6.06 16.16l.8-.5c.44-.26.86-.54 1.28-.8h.04c1.2-.7 2.22-1.08 2.66-.3l.24.4c.78 1.38 1.16 2.02.96 2.38-.22.42-1.1.92-2.72 1.82l-1.1.62c-.74-1.2-1.5-2.38-2.16-3.62zm11.52 15.54c-.5-.5-.94-1.04-1.42-1.58l.6-.62c.34-.38.68-.74 1.04-1.1l.02-.04c1-.98 1.86-1.62 2.5-.96l.34.32c1.1 1.12 1.64 1.64 1.54 2.04-.12.48-.82 1.18-2.16 2.48l-.9.88c-.52-.48-1.06-.94-1.56-1.42zm11.92 9.36l.4-.78c.24-.46.5-.92.72-1.34.72-1.22 1.38-2.06 2.18-1.6l.4.22c1.38.8 2.02 1.16 2.02 1.58.02.48-.48 1.34-1.44 2.94l-.68 1.14c-1.24-.66-2.42-1.42-3.6-2.16zm15.68 7.16l.2-.92c.12-.5.24-.98.36-1.48.36-1.36.8-2.36 1.68-2.12l.46.12h.02c1.52.42 2.22.6 2.34 1 .14.46-.12 1.42-.64 3.22l-.34 1.22c-1.36-.32-2.74-.64-4.08-1.04zm19.12 2.84c-.7 0-1.4-.1-2.1-.12l-.02-.86c-.02-.5-.04-1-.04-1.52 0-1.4.16-2.48 1.06-2.5h.46c1.6 0 2.34 0 2.56.36.24.42.22 1.42.2 3.28v1.24c-.72.02-1.4.12-2.12.12zm15.06-1.8l-.26-.84c-.16-.5-.3-.98-.42-1.46-.38-1.36-.5-2.44.38-2.68l.44-.12c1.54-.42 2.26-.62 2.56-.32.34.32.58 1.3 1.04 3.1l.34 1.28c-1.34.4-2.72.74-4.08 1.04zm16.14-6.04l-.5-.8c-.26-.44-.54-.86-.78-1.28l-.02-.04c-.7-1.22-1.08-2.22-.3-2.68l.4-.22c1.38-.8 2.02-1.16 2.38-.96.42.22.92 1.1 1.84 2.72l.6 1.1c-1.18.74-2.38 1.5-3.62 2.16zm15.56-11.52c-.52.5-1.06.94-1.58 1.42l-.64-.6c-.38-.34-.74-.68-1.1-1.04l-.02-.02c-.98-1-1.62-1.86-.98-2.5l.32-.34c1.14-1.12 1.64-1.64 2.06-1.54.48.1 1.16.82 2.46 2.16l.88.9c-.48.52-.92 1.06-1.4 1.56zm9.34-11.9l-.78-.42c-.46-.26-.92-.5-1.34-.74-1.2-.7-2.06-1.38-1.6-2.16l.24-.4c.78-1.38 1.16-2.02 1.56-2.04.48 0 1.36.5 2.96 1.46l1.14.66c-.68 1.24-1.44 2.44-2.18 3.64zm7.18-15.7l-.94-.22c-.48-.1-.98-.22-1.46-.34-1.36-.38-2.36-.8-2.14-1.68l.14-.46V949c.4-1.52.6-2.24.98-2.34.48-.14 1.44.12 3.24.64l1.22.34a93.69 93.69 0 01-1.04 4.08zm2.82-19.14c0 .72-.08 1.42-.1 2.12l-.88.02c-.5.02-.98.04-1.5.04-1.42 0-2.5-.16-2.5-1.06v-.48c0-1.58 0-2.32.36-2.54.42-.24 1.42-.24 3.26-.2h1.26c.02.7.1 1.4.1 2.1zm-1.78-15.04l-.86.26c-.5.16-.96.3-1.44.42-1.38.38-2.46.5-2.7-.38l-.12-.44c-.42-1.54-.6-2.26-.32-2.56.34-.34 1.3-.58 3.1-1.06l1.3-.32c.38 1.34.72 2.7 1.04 4.08zm-9.88-20.18c-1.82 1.02-2.78 1.56-3.18 2.28-.54.96-.06 1.76.96 3.54l.24.4c.96 1.64 2.48 1.18 4.28.14l.02-.02c.44-.24.88-.52 1.34-.82.22-.14.46-.28.68-.42a65.82 65.82 0 014.14 9.86c-.42.12-.86.22-1.22.32-2.02.52-3.08.78-3.68 1.38-.74.78-.48 1.7.04 3.68l.12.44c.5 1.84 2.12 1.78 4.14 1.24.44-.12.96-.28 1.48-.46.26-.06.56-.14.82-.22.74 3.42 1.14 6.98 1.32 10.6-.46 0-.86 0-1.18-.02-2.08-.02-3.2-.04-3.9.4-.94.54-.92 1.5-.92 3.54v.48c0 1.9 1.6 2.26 3.68 2.26.44 0 1-.04 1.54-.04.24-.02.52-.02.78-.04-.18 3.62-.6 7.16-1.32 10.6-.42-.1-.86-.22-1.22-.32-2-.56-3.06-.88-3.86-.64-1.04.3-1.28 1.2-1.8 3.16l-.12.48c-.5 1.86.94 2.58 2.96 3.14.46.12.96.24 1.5.36.26.06.54.12.82.2-1.1 3.42-2.48 6.7-4.12 9.86-.36-.22-.74-.44-1.04-.62-1.8-1.06-2.74-1.64-3.58-1.62-1.08.02-1.56.86-2.58 2.64l-.22.36v.02c-.96 1.66.24 2.76 2.04 3.78.44.26.9.5 1.38.76.24.12.46.26.7.38-1.94 3-4.14 5.82-6.52 8.46-.28-.28-.62-.62-.82-.84-1.46-1.5-2.24-2.3-3.04-2.48-1.06-.28-1.74.4-3.18 1.86l-.32.32c-1.34 1.34-.48 2.7.98 4.16l.04.04c.3.32.7.68 1.12 1.08.18.16.38.34.56.52-2.64 2.4-5.46 4.58-8.44 6.52-.22-.36-.44-.74-.62-1.06-1.02-1.82-1.56-2.78-2.28-3.18-.96-.52-1.76-.04-3.54.98l-.4.22c-1.64.96-1.18 2.5-.14 4.28l.02.04c.24.42.52.88.82 1.32.14.24.28.46.42.7-3.16 1.62-6.44 3.02-9.86 4.12-.12-.4-.24-.84-.32-1.22-.52-2-.78-3.08-1.38-3.66-.78-.76-1.7-.5-3.68.02l-.46.12c-1.84.5-1.76 2.14-1.22 4.14.14.46.28.98.44 1.5.08.26.16.54.24.8-3.42.74-6.98 1.14-10.6 1.32 0-.46 0-.84.02-1.18.02-2.08.02-3.18-.4-3.88-.56-.94-1.52-.94-3.56-.94h-.46c-1.9 0-2.26 1.6-2.26 3.68 0 .44.02 1 .04 1.56.02.24.02.52.02.76-3.6-.18-7.16-.58-10.6-1.32.12-.42.24-.86.34-1.2.56-2 .88-3.08.64-3.86-.3-1.04-1.22-1.3-3.18-1.82l-.46-.12c-1.84-.5-2.6.94-3.14 2.96-.12.46-.24.98-.36 1.52-.06.26-.14.54-.2.82-3.42-1.1-6.7-2.5-9.86-4.12.22-.36.44-.74.62-1.06 1.06-1.78 1.62-2.74 1.62-3.56-.02-1.08-.86-1.56-2.64-2.58l-.36-.22h-.04c-1.64-.96-2.74.22-3.78 2.04-.24.42-.48.88-.76 1.36-.1.24-.24.48-.38.72-3-1.94-5.8-4.14-8.44-6.54.28-.28.62-.6.84-.82 1.5-1.46 2.3-2.22 2.48-3.04.26-1.04-.4-1.72-1.86-3.16l-.32-.34c-1.34-1.32-2.7-.46-4.16.98l-.04.04c-.32.32-.7.72-1.08 1.12-.16.18-.34.38-.52.56a65.02 65.02 0 01-6.52-8.44c.36-.22.74-.42 1.04-.6 1.82-1.02 2.8-1.56 3.2-2.28.52-.96.04-1.78-.98-3.56l-.24-.4c-.96-1.64-2.48-1.16-4.26-.14l-.04.02c-.42.26-.88.54-1.32.82l-.7.42c-1.62-3.16-3.02-6.44-4.12-9.86.4-.12.84-.22 1.2-.32 2.02-.5 3.1-.78 3.68-1.36.74-.8.5-1.72-.04-3.68l-.12-.46c-.5-1.84-2.12-1.76-4.12-1.22-.46.12-.98.28-1.5.44-.26.06-.54.16-.8.24-.74-3.44-1.14-7-1.32-10.62.44.02.84.02 1.16.02 2.08.04 3.2.04 3.9-.38.94-.56.94-1.52.94-3.56v-.46c0-1.92-1.6-2.26-3.7-2.26-.44 0-.98.02-1.54.04-.24 0-.52 0-.76.02.18-3.62.58-7.16 1.32-10.6.4.12.86.24 1.2.34 2 .56 3.06.86 3.86.62 1.04-.28 1.3-1.2 1.82-3.16l.12-.48c.5-1.84-.96-2.58-2.96-3.12-.46-.12-1-.26-1.52-.38-.28-.06-.54-.12-.82-.18 1.1-3.44 2.5-6.72 4.12-9.88.36.22.74.44 1.06.62 1.78 1.06 2.74 1.64 3.56 1.62 1.08-.02 1.56-.84 2.58-2.62l.22-.38v-.02c.96-1.66-.24-2.74-2.04-3.78-.42-.26-.9-.5-1.38-.76-.24-.12-.46-.26-.7-.38 1.94-3 4.14-5.82 6.54-8.44.28.28.6.62.82.82 1.46 1.5 2.22 2.3 3.04 2.5 1.04.26 1.72-.42 3.16-1.88l.32-.32c1.34-1.34.48-2.7-.96-4.16l-.04-.04c-.32-.32-.72-.68-1.14-1.06-.18-.16-.36-.36-.54-.54 2.64-2.38 5.44-4.58 8.44-6.52.22.36.42.74.6 1.06 1.02 1.82 1.56 2.78 2.28 3.18.96.54 1.78.04 3.56-.98l.38-.22c1.66-.96 1.18-2.5.16-4.28l-.02-.04c-.26-.42-.54-.88-.82-1.32-.14-.24-.28-.46-.42-.68a64.41 64.41 0 019.84-4.14c.12.42.22.86.32 1.22.52 2 .8 3.08 1.38 3.68.8.74 1.72.48 3.68-.04l.46-.12c1.84-.5 1.76-2.12 1.22-4.14-.12-.46-.28-.98-.44-1.5-.08-.24-.16-.54-.24-.8 3.44-.74 7-1.14 10.6-1.32v1.18c-.04 2.08-.04 3.2.38 3.9.56.92 1.52.92 3.56.92h.46c1.92 0 2.26-1.6 2.26-3.68 0-.44-.02-1-.04-1.54-.02-.26-.02-.54-.02-.78 3.62.18 7.16.6 10.6 1.32-.12.42-.24.86-.34 1.2-.56 2.02-.86 3.08-.62 3.88.28 1.02 1.2 1.28 3.16 1.8l.46.12c1.86.5 2.6-.94 3.14-2.96.12-.46.24-.98.36-1.52.06-.26.14-.54.2-.8 3.42 1.08 6.72 2.5 9.88 4.12-.22.36-.44.74-.62 1.04-1.06 1.8-1.64 2.74-1.62 3.58.02 1.06.84 1.56 2.62 2.56l.38.22.02.02c1.66.96 2.74-.24 3.78-2.04.26-.44.5-.9.76-1.4.12-.22.24-.46.38-.68 3 1.94 5.82 4.14 8.44 6.52-.28.28-.62.62-.84.82-1.5 1.46-2.28 2.24-2.48 3.04-.26 1.06.42 1.72 1.86 3.18l.34.32c1.34 1.34 2.7.48 4.16-.98l.02-.04c.32-.32.7-.7 1.08-1.12.16-.18.36-.38.54-.56 2.38 2.64 4.58 5.46 6.52 8.46-.36.2-.74.42-1.06.6zm3.84 4.02l-.8.52c-.44.26-.88.52-1.3.78l-.02.02c-1.22.7-2.22 1.06-2.68.3l-.22-.42c-.82-1.36-1.18-2-.98-2.36.24-.44 1.12-.92 2.74-1.84l1.1-.6c.74 1.18 1.48 2.36 2.16 3.6zM739.72 918l-42.16-27.16c-.02 0-.02.02-.02 0-1-1.24-2.06-2.44-3.14-3.62 0-.16.12-.3 0-.4l-3.8-3.8c-.1-.12-.26 0-.4 0l-.04-.06h45.38v.04c0 .18.2.22.34.34l3.84 9.58V918zm11.48 9.48h-7.74c-1.28 0-2.1-.7-2.44-1.58a2.73 2.73 0 01-.22-1.12c0-.4.06-.78.22-1.14.34-.88 1.16-1.58 2.44-1.58h7.74v5.42zm0 15.62h-7.74c-1.28 0-2.1-.68-2.44-1.56a2.76 2.76 0 01-.22-1.14c0-.38.06-.76.22-1.12.34-.88 1.16-1.58 2.44-1.58h7.74v5.4zm69.88-27.02c0-.16-.06-.32-.2-.44L807 903.58a.644.644 0 00-.4-.14l-7.4-.02c-.18-.02-.36.04-.46.16l-7.84 7.82V783.86c0-.34-.26-.6-.58-.6h-38.54c-.32 0-.58.26-.58.6V918.5h-10.3v-25.7c0-.06-.02-.14-.04-.22l-4.14-10.32v-12.72h4.36c.32 0 .58-.26.58-.6v-95.08a.58.58 0 00-.58-.58h-4.36v-42.64c0-.32-.26-.6-.58-.6h-78.12l4.32-16.1c.08-.32-.1-.64-.42-.72l-180.46-48.34 180.46-48.36c.32-.08.5-.42.42-.74l-4.44-16.54 4.44-16.54c.08-.32-.1-.64-.42-.72l-180.46-48.36 180.46-48.36c.32-.08.5-.4.42-.72L657.9 468l4.44-16.56c.08-.3-.1-.64-.42-.72l-180.46-48.34 180.46-48.36c.32-.08.5-.42.42-.72l-4.44-16.54 4.44-16.56c.08-.32-.1-.64-.42-.72l-180.46-48.36 180.46-48.36c.32-.08.5-.4.42-.72l-3.74-13.96h10.34c.06 0 .1 0 .16-.02l32.92-6.9h25.26c.16 0 .16-.18.28-.26.1-.08.26-.04.3-.18l5.3-19.76c0-.04-.06-.04-.06-.08.02-.04.08-.04.08-.08v-7.44l4.58 3.2v7.54l-4.2 3.5c-.14.1-.24.28-.24.48v21.38c0 .32.28.6.6.6l6.58-.02c.2 0 .4-.1.52-.28l6.24-10.84c.08-.1.12-.22.12-.34V.6c0-.34-.26-.6-.58-.6H77.98c-.34 0-.6.26-.6.6v197.98c0 .12.04.24.12.34l6.24 10.84c.12.18.32.28.52.3h6.58c.34 0 .6-.28.6-.6v-21.38c0-.2-.1-.38-.24-.48l-4.2-3.5v-7.54l4.58-3.2v7.44c0 .04.06.04.08.08 0 .04-.06.04-.06.08l5.3 19.76c.04.12.2.1.3.18.12.08.12.26.28.26h27.86l34.84 6.92h5.98l-3.74 13.96a.6.6 0 00.42.72l180.46 48.36-180.46 48.36a.6.6 0 00-.42.72l4.44 16.54-4.44 16.56c-.08.3.12.64.42.72l180.46 48.36-180.46 48.34c-.3.08-.5.42-.42.72l4.44 16.56-4.44 16.54a.6.6 0 00.42.72l180.46 48.36-180.46 48.36a.6.6 0 00-.42.72l4.44 16.54-4.44 16.54c-.08.32.12.66.42.74l180.46 48.36-180.46 48.34a.6.6 0 00-.42.72l4.32 16.1H99.36c-.32 0-.6.28-.6.6v42.64h-4.34c-.32 0-.6.26-.6.58v7.64H81.74c-.34 0-.6.26-.6.58V911.8l-10.34 5.96v-133.9c0-.34-.26-.6-.58-.6H31.68c-.32 0-.58.26-.58.6V911.4l-7.84-7.82a.549.549 0 00-.46-.16l-7.42.02c-.14 0-.28.06-.38.14L1.12 915.64c-.14.12-.2.28-.2.44l-.06 9.88c0 .18.08.32.18.42l16.7 16.2c.12.1.28.16.42.16h9.22l8.62 5.8c4.8 3.8 8.4 4.44 11.4 3.38 2.84-.98 5.04-3.46 7.18-6.2l15.3 9.22c.1.06.2.1.34.1.32 0 .58-.26.58-.6v-7.78h30.24l.12.48c-.04.12-.2.18-.18.28l1.42 5.22c.02.08.16.06.22.14 1.2 3.78 2.74 7.4 4.54 10.86 0 .12-.14.22-.08.32l2.7 4.66c.06.12.22.06.34.1 2.1 3.28 4.5 6.36 7.12 9.22 0 .16-.12.3 0 .4l3.8 3.82c.12.1.26 0 .4 0 2.88 2.62 5.94 5 9.24 7.1.04.14-.02.3.1.36l4.66 2.7c.1.06.2-.08.32-.1 3.46 1.82 7.08 3.36 10.86 4.54.08.08.04.22.14.24l5.2 1.4c.14.02.18-.12.3-.16 3.74.82 7.62 1.28 11.56 1.46.12.1.14.3.3.3h5.38c.16 0 .2-.2.3-.3 3.96-.18 7.82-.64 11.56-1.46.12.04.16.18.3.16l5.2-1.4c.1-.02.08-.16.14-.24 3.78-1.18 7.4-2.72 10.86-4.54.12.02.22.16.34.1l4.64-2.7c.12-.06.06-.22.1-.36 3.3-2.1 6.36-4.48 9.24-7.1.14 0 .28.1.4 0l3.8-3.82c.12-.1 0-.24 0-.4a66.25 66.25 0 007.12-9.22c.12-.04.28.02.34-.1l2.7-4.66c.06-.1-.08-.2-.08-.32 1.8-3.46 3.34-7.08 4.54-10.86.08-.08.2-.06.24-.14l1.4-5.22c.02-.1-.14-.16-.18-.28.64-2.88 1.08-5.84 1.34-8.86h344.04c.26 3.02.7 5.98 1.34 8.86-.04.12-.2.18-.16.28l1.4 5.22c.02.08.16.06.22.14 1.2 3.78 2.74 7.4 4.54 10.86 0 .12-.14.22-.08.32l2.7 4.66c.06.12.22.06.36.1 2.1 3.28 4.48 6.36 7.1 9.22 0 .16-.1.3 0 .4l3.8 3.82c.12.1.26 0 .4 0 2.88 2.62 5.96 5 9.24 7.1.04.14-.04.3.1.36l4.66 2.7c.1.06.2-.08.32-.1 3.46 1.82 7.08 3.36 10.86 4.54.08.08.04.22.14.24l5.2 1.4c.12.02.18-.12.3-.16 3.74.82 7.6 1.28 11.56 1.46.12.1.14.3.3.3h5.38c.16 0 .2-.2.3-.3 3.96-.18 7.84-.64 11.58-1.46.12.04.16.18.28.16l5.2-1.4c.1-.02.06-.16.14-.24 3.78-1.18 7.4-2.72 10.86-4.54.14.02.22.16.34.1l4.66-2.7c.12-.06.04-.22.08-.36a67.86 67.86 0 009.24-7.1c.14 0 .3.1.4 0l3.8-3.82c.12-.1 0-.24 0-.4a66.25 66.25 0 007.12-9.22c.12-.04.28.02.36-.1l2.68-4.66c.06-.1-.08-.2-.08-.32 1.8-3.46 3.34-7.08 4.54-10.86.06-.08.2-.06.24-.14l1.38-5.22c.04-.1-.12-.16-.16-.28.04-.16.1-.32.12-.48h40.6v7.78c0 .34.26.6.58.6.12 0 .24-.04.34-.1l15.3-9.22c2 2.84 4.38 5.2 7.46 6.06 3.24.92 7.2.2 12.16-3.26l7.6-5.78h9.18c.16 0 .3-.06.42-.16l16.72-16.2c.1-.1.18-.24.18-.42l-.06-9.88zm-161.6 23.06c.18-.4.36-.76.54-1.16.28-.6.58-1.22.8-1.82.2-.42.54-.76.96-.94.26-.12.58-.16.88-.12-.2 1.54-.62 3.02-1.2 4.42-.6 1.42-1.38 2.76-2.3 3.98-1.04-.8-.5-2.46.32-4.36zm3.2-8.96c-1.3.16-2.08-1.4-2.84-3.3-.16-.42-.3-.82-.44-1.2-.24-.64-.48-1.28-.72-1.86-.18-.46-.18-.94 0-1.34.12-.28.3-.52.56-.74.92 1.26 1.68 2.6 2.26 4 .58 1.42.98 2.92 1.18 4.44zm-4.96 15.3c-.36.38-.8.64-1.18.98-.34-.44-.66-.92-1.16-1.14-.68-.26-1.48-.3-2.22 0-.62.28-1.24.5-1.82.7-.44.16-.84.32-1.22.48-2.46.96-4.34 2.08-3.92 4.18-.48.04-.9.16-1.36.16-.5 0-.96-.12-1.42-.16.08-.54.06-1.12-.14-1.62-.28-.68-.84-1.28-1.56-1.58-.64-.26-1.22-.52-1.8-.78-.4-.2-.82-.38-1.18-.54-2.44-1.06-4.56-1.6-5.76.18-.34-.3-.74-.54-1.06-.86-.36-.36-.64-.8-.98-1.2.46-.32.94-.64 1.14-1.14.28-.7.32-1.5 0-2.24-.24-.62-.48-1.22-.7-1.82-.16-.42-.3-.84-.46-1.2-.96-2.48-2.08-4.36-4.2-3.94-.02-.46-.12-.9-.12-1.36 0-.48.1-.94.14-1.42.56.1 1.12.08 1.62-.12.68-.3 1.26-.86 1.58-1.58.24-.62.52-1.22.78-1.78.18-.42.38-.82.54-1.2 1.06-2.42 1.6-4.54-.2-5.76.3-.34.54-.72.86-1.04.38-.36.8-.64 1.2-.98.32.46.66.92 1.16 1.14.7.28 1.48.3 2.24 0 .6-.26 1.22-.48 1.8-.7.44-.16.86-.32 1.22-.46 2.48-.96 4.34-2.1 3.94-4.2.46-.04.88-.14 1.36-.14.48 0 .94.1 1.42.14-.1.56-.08 1.12.12 1.62.3.7.84 1.28 1.58 1.58.62.26 1.2.54 1.8.8.4.18.8.38 1.16.54 2.44 1.06 4.56 1.58 5.76-.2.34.3.72.54 1.04.86.38.38.66.8 1 1.2-.46.32-.94.64-1.14 1.16-.28.68-.3 1.48 0 2.22.26.62.48 1.22.7 1.82.16.42.32.84.46 1.22.96 2.48 2.1 4.34 4.2 3.94.02.44.14.88.14 1.34 0 .5-.12.94-.16 1.44-.54-.12-1.1-.1-1.62.1-.68.3-1.26.86-1.58 1.6-.24.62-.52 1.2-.78 1.78-.2.4-.36.82-.54 1.18-1.06 2.42-1.58 4.56.2 5.76-.3.34-.56.72-.88 1.04zm-10.48 4.96c-.18-1.3 1.4-2.1 3.3-2.84.42-.18.8-.32 1.2-.46.64-.24 1.28-.48 1.86-.72.46-.18.92-.16 1.34 0 .28.12.52.3.72.56a18.26 18.26 0 01-8.42 3.46zm-13.32-3.54c.8-1.04 2.46-.5 4.34.34.4.18.78.34 1.18.52.6.28 1.24.58 1.82.8.44.2.76.54.92.96.12.28.18.6.14.9-1.56-.22-3.04-.62-4.42-1.22-1.44-.58-2.78-1.36-3.98-2.3zm-6.94-11.9c1.32-.18 2.1 1.4 2.84 3.3.16.42.3.8.46 1.2.24.62.48 1.28.72 1.86.18.44.16.92 0 1.32-.12.28-.32.54-.56.74-.94-1.24-1.7-2.6-2.26-3.98-.58-1.44-.98-2.92-1.2-4.44zm3.2-9c-.18.42-.36.8-.52 1.18-.3.62-.58 1.24-.82 1.82-.18.44-.52.78-.94.94-.28.12-.6.16-.9.12.22-1.54.64-3.02 1.2-4.42.6-1.42 1.38-2.76 2.3-3.96 1.04.78.5 2.46-.32 4.32zm12.24-11.26c.18 1.3-1.4 2.08-3.3 2.82-.42.18-.82.32-1.2.46-.64.24-1.28.48-1.86.72-.44.18-.92.18-1.34 0-.28-.12-.52-.3-.72-.54 1.24-.96 2.58-1.7 3.98-2.28 1.44-.58 2.92-.98 4.44-1.18zm13.34 3.52c-.8 1.04-2.48.5-4.36-.34-.4-.16-.78-.34-1.16-.52-.62-.28-1.24-.58-1.82-.8-.44-.18-.76-.54-.94-.94-.12-.28-.16-.6-.12-.92 1.54.22 3.02.64 4.4 1.22 1.44.6 2.76 1.38 4 2.3zm-10.92-5.1a19.38 19.38 0 00-13.74 5.7c-3.52 3.5-5.7 8.36-5.7 13.72 0 5.36 2.18 10.22 5.7 13.74 3.52 3.52 8.38 5.68 13.74 5.68 5.36 0 10.22-2.16 13.74-5.68 3.52-3.52 5.68-8.38 5.68-13.74 0-5.36-2.16-10.22-5.68-13.72a19.38 19.38 0 00-13.74-5.7zm25.38 44.8c-6.5 6.5-15.48 10.52-25.4 10.52-9.9 0-18.88-4.02-25.38-10.52-6.48-6.5-10.5-15.46-10.5-25.38 0-9.9 4.02-18.88 10.5-25.38 6.5-6.48 15.48-10.52 25.38-10.52 9.92 0 18.9 4.04 25.4 10.52 6.5 6.5 10.5 15.48 10.5 25.38 0 9.92-4 18.88-10.5 25.38zm-25.4-62.44c-10.22 0-19.5 4.14-26.2 10.84-6.72 6.72-10.86 15.98-10.86 26.22 0 10.24 4.14 19.52 10.86 26.22a36.893 36.893 0 0026.2 10.86c10.26 0 19.52-4.14 26.22-10.86 6.72-6.7 10.88-15.98 10.88-26.22 0-10.24-4.16-19.5-10.88-26.22a36.936 36.936 0 00-26.22-10.84zm6.4 39.96c-.92 2.32-3.06 4.14-6.4 4.14-3.32 0-5.44-1.82-6.38-4.14-.36-.9-.54-1.9-.54-2.9 0-.98.18-1.98.54-2.9.94-2.32 3.06-4.12 6.38-4.12 3.34 0 5.48 1.8 6.4 4.12.36.92.54 1.92.54 2.9 0 1-.18 2-.54 2.9zm-6.4-11.1c-3.88 0-6.38 2.14-7.48 4.86-.42 1.06-.64 2.2-.64 3.34 0 1.14.22 2.28.64 3.34 1.1 2.74 3.6 4.88 7.48 4.88 3.9 0 6.4-2.14 7.5-4.88.42-1.06.64-2.2.64-3.34 0-1.14-.22-2.28-.64-3.34-1.1-2.72-3.6-4.86-7.5-4.86zm0-23.76c-8.8 0-16.8 3.58-22.6 9.36-5.78 5.8-9.34 13.78-9.34 22.6 0 8.84 3.56 16.82 9.34 22.6 5.8 5.78 13.8 9.36 22.6 9.36 8.84 0 16.82-3.58 22.62-9.36 5.78-5.78 9.36-13.76 9.36-22.6 0-8.82-3.58-16.8-9.36-22.6-5.8-5.78-13.78-9.36-22.62-9.36z" fill="#F7B726"/></svg>