<svg width="348" height="166" fill="none" xmlns="http://www.w3.org/2000/svg"><path d="M292.341 137.239l1.079-3.633-7.127-5.519-1.253 3.591 7.301 5.561zM60.712 117.403l-.362 3.592-.007.146 8.025 4.085.564-3.765-8.213-4.093-.007.035zm-.89 3.856l.027-.264a42.53 42.53 0 01.369-3.682l.035-.341c.007-.035.014-.07.028-.098l.007-.014a42.052 42.052 0 013.723-11.908l-11.588 1.816c-.014.007-.028.007-.042.007l-3.925.62-2.986.466-.007.007c-.014 0-.028 0-.042.007l-24.06 3.779-4.567 8.519h5.443c.14 0 .25.119.25.251v1.51h37.321l.02-.584c-.007-.028-.007-.056-.007-.091zm.974-4.413l8.512 4.246c.097.049.16.153.146.265l-.64 4.273a.137.137 0 01-.028.09.244.244 0 01-.334.112l-8.137-4.141c-.02.591-.034 1.183-.034 1.774 0 3.731.487 7.35 1.398 10.795l9.522.425a.25.25 0 01.23.188l1.155 4.162a.41.41 0 01.014.09.25.25 0 01-.265.237l-9.138-.48a42.248 42.248 0 006.368 10.934l8.86-3.473c.105-.035.216-.014.286.076l2.742 3.334a.18.18 0 01.056.084.247.247 0 01-.147.32l-8.533 3.264a42.325 42.325 0 009.849 7.218l6.772-6.71a.261.261 0 01.292-.041l3.85 1.983a.25.25 0 01.069.049.252.252 0 01-.007.355l-6.55 6.382a41.848 41.848 0 0012.974 2.777l3.327-8.909a.255.255 0 01.243-.174l4.322.188a.14.14 0 01.091.014.247.247 0 01.146.32l-3.264 8.54a41.649 41.649 0 0013.099-2.972l-.752-9.493c-.014-.111.049-.209.153-.258l3.988-1.656a.347.347 0 01.091-.028.26.26 0 01.271.237l.647 9.117a41.994 41.994 0 009.584-7.175c.3-.3.592-.606.884-.919l-4.656-8.296c-.049-.098-.042-.216.035-.293l2.93-3.18a.205.205 0 01.069-.063.256.256 0 01.342.104l4.405 8.004a41.763 41.763 0 005.812-10.802l-7.587-5.769a.26.26 0 01-.083-.286l1.427-4.085a.175.175 0 01.041-.077.255.255 0 01.355-.049l7.232 5.603a42.427 42.427 0 001.1-9.612c0-1.204-.049-2.401-.147-3.584l-9.291-2.067a.252.252 0 01-.202-.216l-.411-4.308a.2.2 0 010-.091.263.263 0 01.307-.188l8.908 2.061a41.72 41.72 0 00-4.009-11.206l-9.354 1.712a.262.262 0 01-.278-.125l-2.06-3.807a.199.199 0 01-.028-.084.248.248 0 01.202-.292c2.992-.522 6.027-1.002 9.006-1.566a42.042 42.042 0 00-1.754-2.373.255.255 0 01-.209-.251v-.007a40.688 40.688 0 00-1.984-2.283l-.02-.02a43.454 43.454 0 00-4.664-4.294l-7.864 5.365a.252.252 0 01-.293-.014l-3.431-2.645a.445.445 0 01-.056-.062.25.25 0 01.07-.348l7.593-5.088a42.074 42.074 0 00-10.746-4.705l-5.185 7.976a.254.254 0 01-.286.119l-4.182-1.121c-.028-.007-.049-.02-.077-.035a.255.255 0 01-.07-.348l5.046-7.621a45.208 45.208 0 00-3.347-.39h-.007l-.188-.014h-.021l-.091-.007h-.007l-.097-.007h-.007l-.09-.007h-.007l-.098-.007h-.007a45.56 45.56 0 00-2.589-.076c-.619 0-1.232.014-1.844.042h-.126l-.104.007c-1.316.07-2.63.195-3.946.382l-.056.007c-.39.056-.78.119-1.17.181l-1.245 9.445a.25.25 0 01-.202.216l-4.246.793c-.034 0-.062.007-.097 0a.244.244 0 01-.209-.278l1.267-9.062a41.61 41.61 0 00-10.183 4.58l2.36 9.2c.042.112 0 .23-.098.293l-3.66 2.325a.244.244 0 01-.376-.146l-2.2-8.874a42.213 42.213 0 00-3.577 3.201 41.804 41.804 0 00-4.74 5.645l5.805 7.537c.07.084.076.202.014.3l-2.436 3.57a.284.284 0 01-.063.07.262.262 0 01-.355-.049l-5.52-7.287a41.79 41.79 0 00-4.502 13.307zM45.26 57.909h.752V33.208c0-.14.11-.25.25-.25h2.52v-6.25c0-.14.111-.251.25-.251.14 0 .25.111.25.25v1.747h.216c.181-.006.383-.014.592-.014 1.4 0 2.993.23 2.993 2.172v2.346H57.6v-6.25a.254.254 0 01.508 0v1.746h.209c.188-.006.39-.014.598-.014 1.392 0 2.986.23 2.986 2.172v2.346h4.232c.174 0 .341.007.508.027l2.158-8.77h-1.037a.256.256 0 01-.258-.25v-2.36c0-.138.118-.25.258-.25h24.172v-2.763c0-.14.111-.25.25-.25h19.453c1.587 0 1.768 1.294 1.768 2.422 0 .132 0 .306-.007.473v.118h1.086a.25.25 0 01.251.25v6.849h2.303c.098 0 .188.056.23.147l14.477 32.238.021.042 4.795 10.684.007.007v.007l.007.007 2.123 4.725c.014.021.028.035.035.063l.021.063.689 1.538.007.007v.007l6.438 14.33 61.783-10.28.188-.5-5.08-1.998-5.227.828h-.028l-5.443.863-.007.007h-.014l-23.17 3.668h-.014l-.007.007-5.442.863h-.021l-6.271.995a.254.254 0 01-.16-.028l-15.73-8.254a.217.217 0 01-.125-.132l-3.118-7.907-.007-.007v-.014l-1.942-4.914-.007-.014-3.925-9.938v-.014l-.007-.007-1.935-4.914h-.007l-.007-.014-6.25-15.834-5.742-10.224c-.007-.007-.014-.021-.021-.028-2.652-4.594-5.317-8.491-8.61-11.24-3.285-2.736-7.203-4.33-12.381-4.33H48.83a.256.256 0 01-.25-.257V.259c0-.139.111-.257.25-.257h5.54c.035 0 .07.014.105.028l7.6 2.986h51.442c12.465 0 13.286.835 27.624 15.437 1.677 1.712 3.542 3.612 5.637 5.721h186.925c.112 0 .202.063.237.16l4.99 10.204.021.041 9.013 18.444a.266.266 0 01.035.133v4.099a.25.25 0 01-.251.25l-11.79-.09h-.014l-40.98 9.82h-.021l-5.38 1.288c-.014.007-.021.007-.035.007a.21.21 0 01-.16-.028h-.007l-.021-.014v-.007h-.007v-.007h-.007l-.007-.007-.014-.013-.007-.007-.007-.014-.007-.007-.007-.007-.013-.021v-.007a.1.1 0 01-.014-.042v-.007l-.007-.02-.362-2.284-9.16 6.097c1.615.46 3.627 1.211 3.947 3.453v.014c.362 2.686-.634 5.268-1.664 7.955-.132.355-.271.71-.403 1.065l2.352-.362a.255.255 0 01.285.215l1.706 12.55c.689.87 1.35 1.767 1.969 2.693.014.007.021.02.028.035l.028.034a45.032 45.032 0 012.13 3.529l.076.139a.21.21 0 01.028.07 42.25 42.25 0 014.768 15.869l.035.25c0 .035 0 .063-.007.091v.007c.111 1.225.16 2.471.16 3.723a42.41 42.41 0 01-2.422 14.192l-.021.062c-.007.021-.014.049-.028.07a42.57 42.57 0 01-6.132 11.331.213.213 0 01-.035.049l-.048.062a43.881 43.881 0 01-2.527 3.014l-.195.23a.172.172 0 01-.076.062l-.007.007a42.573 42.573 0 01-14.839 10.259l-.07.035c-.027.007-.048.021-.076.021a42.327 42.327 0 01-13.725 3.076c-.021 0-.042.007-.063.007h-.09a44.75 44.75 0 01-2.172.056c-.592 0-1.176-.014-1.761-.042h-.299c-.035 0-.063 0-.091-.014h-.007a42.186 42.186 0 01-17.413-4.712l-.105-.048a.159.159 0 01-.076-.042 42.964 42.964 0 01-10.322-7.6c-.014-.014-.035-.028-.049-.042l-.083-.098a41.225 41.225 0 01-2.624-2.902l-.181-.195a.252.252 0 01-.056-.09l-.007-.007a42.467 42.467 0 01-7.962-15.521l-.028-.104a.204.204 0 01-.014-.063 41.623 41.623 0 01-.731-3.216l-6.605-3.243c-.007-.007-.021-.014-.034-.021l-11.401-5.596h-6.312v11.971c0 .14-.111.251-.25.251h-31.084a.249.249 0 01-.25-.251v-11.971h-10.064a42.414 42.414 0 01-2.415 15.215l-.021.062c-.007.021-.014.049-.028.07a42.57 42.57 0 01-6.132 11.331l-.028.049-.055.062a41.969 41.969 0 01-2.527 3.014l-.195.23a.201.201 0 01-.069.062l-.014.007a42.573 42.573 0 01-14.839 10.259l-.07.035c-.021.007-.048.021-.076.021a42.327 42.327 0 01-13.725 3.076c-.021 0-.042.007-.063.007h-.09a44.75 44.75 0 01-2.172.056c-.592 0-1.176-.014-1.761-.042h-.299c-.028 0-.063 0-.091-.014h-.007a42.193 42.193 0 01-17.413-4.712l-.105-.048a.165.165 0 01-.076-.042 42.767 42.767 0 01-10.322-7.6.306.306 0 00-.049-.042l-.083-.098a41.373 41.373 0 01-2.624-2.902l-.181-.195c-.021-.028-.042-.056-.056-.09l-.007-.007a42.347 42.347 0 01-7.955-15.521l-.035-.104c-.007-.021-.014-.042-.014-.063a44.17 44.17 0 01-.529-2.199l-6.647-2.833h-2.638a.25.25 0 01-.25-.251v-2.658a1.21 1.21 0 01-.578-.314 1.19 1.19 0 01-.34-.828v-2.993H32.182v1.448a.25.25 0 01-.25.251h-5.019l-4.524 2.971a.284.284 0 01-.153.049h-11.47v23.782a.25.25 0 01-.25.251H7.962a.25.25 0 01-.25-.251v-21.68c-.188 0-.37.007-.55.014-.313.007-.627.021-.898.021-1.496 0-2.874-.251-2.874-1.928v-3.543c0-1.677 1.378-1.928 2.874-1.928.271 0 .585.007.898.021.18.007.362.014.55.014v-1.51c0-.132.111-.251.25-.251h3.278l1.35-2.533v-7.183l-7.405-4.218-2.888 5.394v3.689l1.531 1.531a.252.252 0 010 .355l-.014.007-.007.007-1.239 1.211a.251.251 0 01-.355 0l-2.136-2.136a.254.254 0 01-.077-.181v-4.538a.23.23 0 01.028-.119l12.563-23.44v-29.08c0-.139.118-.25.257-.25h1.517v-.536c0-.237-.007-.446-.014-.654-.006-.23-.013-.46-.013-.648 0-.417.027-.793.139-1.093V26.04c0-.139.111-.25.25-.25h27.569c.905 0 1.636.292 2.15.8v.007c.523.522.815 1.267.815 2.158V57.91zm.752.501h-.752v6.049h.752V58.41zm92.818 25.683l.014-.627c.007-.668.014-1.023-.063-1.169-.041-.084-.243-.084-.675-.084l-.236.007c-.23 0-.272.348-.272.822 0 .209.007.403.014.605l.014.467h.07c.292-.014.584-.021.842-.021h.292zm.251.536h-1.699c-.02 0-.034 0-.055-.007-.132.007-.258.007-.362.007-.404 0-.766.16-1.03.424a1.473 1.473 0 00-.425 1.03v9.542h5.443v-9.542c0-1.079-.807-1.392-1.789-1.468-.028.007-.049.014-.083.014zm-1.956-.502c0-.16-.007-.313-.014-.459-.007-.23-.014-.445-.014-.626 0-.766.125-1.33.773-1.33h.229c.648 0 .947-.007 1.128.362.132.25.125.654.111 1.4v.647c1.163.11 2.116.535 2.116 1.962v6.974l3.925-.654-6.284-13.983-7.935 3.564c.021.028.035.056.056.09.125.25.118.654.111 1.4-.007.173-.007.375-.007.647.766.076 1.448.285 1.817.828l1.872 1.705v-.57a1.946 1.946 0 011.956-1.957h.16zm71.201-2.4l-.23.619h-.007v.014h-.007l-.334.911 4.169 1.552.696-1.85c-.55.062-1.12 0-1.663-.217l-2.624-1.03zm-.982 1.927l-.007-.007-.02-.007-1.747-.647-1.031 2.721 8.158 3.077 1.037-2.75-1.747-.654-.014-.007h-.014l-4.608-1.726h-.007zm-.069-.564l.195-.508-1.079.181.884.327zM49.284 40.544v2.819H50.8v-2.819h-1.517zm-.501 2.819v-8.13h-.495v8.13h.495zm.5 2.283v9.159h1.518v-9.16h-1.517zm-.5 9.159v-9.16h-.495v9.16h.495zm11.484-14.261h-.627a9.2 9.2 0 01-.626.02 20.9 20.9 0 01-.62-.013c-.097 0-.188-.007-.285-.007v2.819h2.158v-2.819zm-2.158-.508h1.49c.96-.07 1.802-.404 1.802-1.657v-3.145H58.11v4.802zm2.659.271v3.056h3.313l1.942-7.879c-.404-.18-.94-.25-1.58-.25h-2.54v3.145c0 1.107-.467 1.657-1.135 1.928zM57.6 43.363v-8.13h-4.517v8.13H57.6zm.508 2.283v9.159h2.158v-9.16h-2.158zm-.508 9.159v-9.16h-4.517v9.16H57.6zm3.167-9.16v9.16h1.949v-5.874c0-.014 0-.035.007-.056l.793-3.23h-2.75zm.633-12.687v-2.346c0-1.496-1.33-1.663-2.485-1.663-.201-.007-.396 0-.584.007l-.223.006v3.996H61.4zm-8.825 0v-2.346c0-1.496-1.323-1.663-2.485-1.663-.195-.007-.397 0-.584.007l-.223.006v3.996h3.292zm-3.292 2.276v4.802H50.8v-4.803h-1.517zm3.292 8.129v-8.13h-1.274v8.131h1.274zM50.8 62.3v-6.995h-2.513V62.3H50.8zm2.283-6.995V62.3h9.633v-6.995h-9.633zm-.508 6.995V45.646h-1.274V62.3h1.274zm33.735 0v-6.995h-9.18V62.3h9.18zm0-7.496v-9.16h-9.18v9.16h9.18zm-9.681-9.16h-1.852v9.16h1.852v-9.16zm-2.353 0h-1.58v9.16h1.58v-9.16zm-1.58-2.282h1.58v-8.074c-.39.063-.71.174-.96.348-.397.279-.62.745-.62 1.469v6.257zm2.081 0h1.852v-8.13H75.16c-.132 0-.258 0-.383.007v8.123zm2.353 0h1.928v-8.13H77.13v8.13zm19.314 0h1.795v-8.13h-1.788l-.007 8.13zm2.304 0h2.637v-8.13h-2.637v8.13zm11.755 2.283h-5.728v9.159h5.728v-9.16zm-5.728 9.66V62.3h5.728v-6.995h-5.728zm-2.276 6.995v-6.995h-3.751V62.3h3.751zm0-7.496v-9.16h-3.751v9.16h3.751zm-4.26-9.16h-9.646v9.16h9.646v-9.16zm-9.646 9.661V62.3h9.646v-6.995h-9.646zm-.508 6.995V45.389c0-.14.111-.251.25-.251h14.415c.14 0 .258.11.258.25v16.913h1.267V45.389c0-.14.111-.251.25-.251h5.979V43.87h-5.979a.255.255 0 01-.25-.258v-8.38h-1.267v8.38c0 .14-.118.258-.258.258H88.336a.255.255 0 01-.25-.258v-8.38h-1.267v8.38a.26.26 0 01-.25.258H72.697v1.267h13.871c.133 0 .251.11.251.25V62.3h1.267zm24.102 0V35.916c0-.752-.229-1.372-.661-1.796a2.036 2.036 0 00-.793-.501h-.014v-.007h-.014c-.23-.077-.794-.126-1.531-.153H73.477c-.766 0-1.378.236-1.803.66-.425.425-.661 1.045-.661 1.797V62.3h1.183V37.106c0-.905.292-1.504.828-1.88.383-.264.877-.41 1.469-.466h.014c.209-.02.424-.035.654-.035h32.879c.898 0 1.622.14 2.137.502.536.375.828.974.828 1.879V62.3h1.183zm-39.49-6.995V62.3h1.58v-6.995h-1.58zM70.511 62.3v-6.995h-1.413V62.3h1.413zm0-7.496v-18.89c0-.883.285-1.628.807-2.15.515-.515 1.253-.807 2.158-.807h.8v-8.742h-4.962l-2.186 8.874c.46.132.842.362 1.156.668.522.529.814 1.274.814 2.158v18.889h1.413zm4.266-21.847h1.852v-8.742h-1.852v8.742zm2.353 0h1.92v-4.225c0-.703.293-1.337.752-1.796l.014-.014a2.545 2.545 0 011.782-.737H93.91a2.55 2.55 0 011.796.751c.46.46.745 1.093.745 1.796v4.225h1.788v-8.742H77.13v8.742zm21.618 0h2.637V28.14c0-.41.167-.786.439-1.058a1.493 1.493 0 011.058-.438h6.681c.411 0 .78.167 1.051.438l.014.014c.265.272.432.64.432 1.044v5.067c.313.132.584.32.814.55h.007c.522.529.814 1.274.814 2.158v28.543h.446c.139 0 .25.119.25.258v.71h.842v-41.21H98.749v8.742zm10.259 0h.723c.293 0 .564.027.822.09V28.14a.992.992 0 00-.279-.689l-.014-.014a1.001 1.001 0 00-.696-.285h-6.681c-.272 0-.522.111-.703.285a.995.995 0 00-.293.703v4.81l1.058-.007c1.664-.021 4.267-.056 6.063.014zM66.906 45.646h-2.874l-.814 3.313v5.846h3.688v-9.16zm-2.31-2.283h2.31v-6.257c0-.613-.153-1.037-.438-1.323l-1.872 7.58zm2.31.508H48.288v1.267h18.618V43.87zM47.78 62.3V35.233h-1.266v27.068h1.266zm20.81 0V35.916c0-.752-.229-1.372-.66-1.796-.418-.425-1.03-.661-1.796-.661h-19.62v1.266h17.929c.814 0 1.482.119 1.983.404h.007v.007h.007l.007.007c.049.028.09.056.132.084.536.375.829.974.829 1.879V62.3h1.183zm-1.684 0v-6.995h-3.688V62.3h3.688zM44.753 36.68v-7.927c0-.752-.23-1.371-.661-1.803-.418-.418-1.03-.661-1.796-.661H14.978v1.274h25.627c.898 0 1.621.139 2.136.5.536.377.829.975.829 1.873v5.811c.361.14.689.355.953.648.084.09.16.18.23.285zm-1.684-1.072v-5.672c0-.717-.216-1.183-.613-1.462-.425-.299-1.051-.41-1.851-.41H29.587v8.665h10.551a3.035 3.035 0 011.552-1.044c.453-.132.933-.16 1.379-.077zM27.31 28.065H16.753v8.665H27.31v-8.665zM16.25 55.132V28.064h-1.273V55.21c.125-.049.278-.077.452-.077h.822zm.502-16.126v8.101H27.31v-8.101H16.753zm0 10.377v5.75H27.31v-5.75H16.753zm26.733-1.775H36.59l-.682 1.274h7.58v-1.274zm-7.28-.348l.02-.041 4.887-9.132c.222-.376.57-.654.953-.773.258-.083.53-.104.787-.041a1.3 1.3 0 01.703.452c.264.313.438.8.438 1.483v25.25h.759V38.45c0-.752-.23-1.322-.592-1.712a2.034 2.034 0 00-.905-.564l-.014-.007h-.006l-.14-.042a2.532 2.532 0 00-1.266.042 2.59 2.59 0 00-1.358.947c0 .014-.007.02-.02.035-.05.07-.098.146-.14.222l-.8 1.49a.157.157 0 00-.021.034l-4.587 8.561-.02.042-.933 1.733a.153.153 0 01-.021.035l-3.327 6.215a8.14 8.14 0 01-.02.042l-1.47 2.735-.02.042-4.51 8.415a.15.15 0 01-.021.034l-9.71 18.117-.02.042-1.754 3.271a.154.154 0 01-.021.035L.501 111.633v4.378l1.893 1.893.898-.877-1.427-1.426a.25.25 0 01-.076-.174v-3.849a.27.27 0 01.041-.139l3.028-5.652.007-.007v-.007l.007-.007 7.74-14.456.02-.042 1.754-3.27.021-.043.341-.64.007-.014h.007l9.89-18.472.007-.02h.007l1.225-2.29.021-.042 4.503-8.415c.007-.014.014-.028.028-.041l1.462-2.736.02-.041 3.327-6.209.021-.042.933-1.733zm.647-.153h6.633v-7.9c0-.556-.125-.932-.313-1.169a.86.86 0 00-.439-.278.976.976 0 00-.508.028c-.271.09-.522.285-.675.55l-4.698 8.77zm-2.603.501h-4.663v1.274h3.988l.675-1.274zm-4.663-.5h4.935l4.343-8.102h-9.278v8.101zm-2.276.5H16.753v1.274H27.31v-1.274zm5.993 1.775h-3.717v5.75h.633l3.084-5.75zm10.182 0h-7.85l-3.077 5.75h10.927v-5.75zM39.81 37.238H29.587v1.267h9.542l.682-1.267zm-12.5 0H16.753v1.267H27.31v-1.267zm1.775 17.894V28.064h-1.274v27.068h1.274zM13.099 91.463v18.702l1.266.724V89.09L13.1 91.463zm0 19.28v5.957l1.266-2.373v-2.861l-1.266-.723zm1.774-22.593v23.024l.905.515 9.654-18.026-10.357-5.888-.201.375zm0 23.602v1.635l.669-1.252-.668-.383zm-1.795 6.048l-.021.042-1.253 2.331h4.427l4.746-8.867 14.088-26.308c-.564-.154-.926-.502-.926-1.212V78.47l-8.032 14.999 1.72.974a.25.25 0 01.09.341.25.25 0 01-.341.098l-1.706-.975-9.653 18.034 1.712.974c.125.07.167.223.097.341a.26.26 0 01-.34.098l-1.706-.975-1.134 2.123h-.007v.007l-1.761 3.292zm-.487-7.921V92.403L5.42 105.8l7.17 4.078zm1.774-25.174V59.19H13.1v27.889l1.266-2.374zm.508-17.838v16.905l9.056-16.905h-9.055zm10.343 1.97l8.923 5.073v-1.127c0-1.149.946-1.337 2.123-1.337.25 0 .535.007.828.021l.223.007 2.47-4.607H26.274l-1.058 1.97zm8.923 5.65l-9.16-5.205-9.667 18.047 10.357 5.888 8.47-15.806v-2.923zm-9.94-8.121l4.267-7.956H14.873v7.956H24.2zm4.532-8.457l1.218-2.276H15.43c-.508 0-.591.543-.591 1.218 0 .223.007.425.014.634l.014.424H28.73zm3.556-2.276L31.07 57.91h12.417v-2.276h-11.2zm-1.489 2.777l-4.26 7.956h13.51l.946-1.768a.25.25 0 01.223-.14h2.27V58.41h-12.69zm9.633 8.304l-.021.041-2.534 4.726h.049c.14 0 .25.119.25.258v.5h3.035v-.96c0-.139.111-.25.25-.25h2.026v-6.062H41.37l-.94 1.747zm3.563-.007h2.019v-1.74h-2.019v1.74zm2.019 3.118h-2.019v1.204h2.019v-1.204zm0-2.61h-2.019v2.109h2.019v-2.11zm.5 2.61v1.204h5.854c.132 0 .25.111.25.25v25.418h1.1l2.52-7.336v-.014l.007-.006v-.007l1.935-5.645V69.825h-1.573v10.14a.25.25 0 01-.25.251.25.25 0 01-.251-.25V69.824h-1.337v10.14a.25.25 0 01-.25.251.25.25 0 01-.25-.25V69.824h-7.754zm19.802 19.697l.522.911h1.072a.25.25 0 01.25.25v.384h2.353v-.383c0-.14.111-.25.25-.25h4.754c.118-.091.23-.189.348-.28l-5.568-2.93-3.981 2.297zm8.596 1.412h-3.898v.39c0 .132-.112.25-.25.25h-2.854a.254.254 0 01-.25-.25v-.39h-.968a.264.264 0 01-.216-.125l-.647-1.127h-9.104v2.644h16.614c.515-.473 1.037-.94 1.573-1.392zm1.635-4.955l3.111 1.475.056-.034a.319.319 0 01.07-.035 42.501 42.501 0 019.04-4.267.55.55 0 01-.139-.118c-.174-.202-.167-.501-.16-1.093l.007-.327h-2.36l.008.32c.007.55.007.842-.112 1.044-.174.272-.424.272-.946.265h-.209c-.543 0-.647-.432-.647-1.016 0-.112.007-.265.014-.418l.007-.195h-2.722v.32c.007.55.014.842-.111 1.037-.167.279-.418.279-.947.272h-.201c-.55 0-.648-.432-.648-1.016 0-.112.007-.265.007-.418l.007-.195H77.16l-.613 1.406v2.993zm2.617 1.802l-2.93-1.392h-4.49l-.939.536 5.492 2.889a43.523 43.523 0 012.867-2.032zm-6.354 5.046H56.724v3.063h13.203a43.511 43.511 0 012.304-2.499c.195-.188.383-.376.578-.564zm-3.3 3.564H56.725v1.754h11.407c.446-.599.905-1.183 1.379-1.754zm-1.023-15.8h7.329l-2.603-2.38a.25.25 0 01-.028-.34l1.699-2.388H64.728l1.712 2.394a.263.263 0 01-.035.335l-1.072.974v1.406h3.153zm-.076.502h-3.076v4.385c0 1.447-.8 2.373-1.817 2.784a3.466 3.466 0 01-1.239.236 3.41 3.41 0 01-1.239-.236c-1.023-.41-1.816-1.337-1.816-2.784V81.58h-.536v2.15a.249.249 0 01-.014.077l-1.845 5.373h9.076l4.253-2.456.007-.007h.007l1.364-.787a.251.251 0 01.14-.042h4.363v-2.7h-4.301a.225.225 0 01-.153-.049l-3.174-2.046zm8.213-.446c.007.007.014.014.027.021l.439.404h2.84c.139 0 .25.118.25.258 0 .132-.007.299-.014.466 0 .125-.007.25-.007.397 0 .292.021.515.147.515h.208c.334 0 .494.007.515-.028.049-.077.042-.32.035-.773v-.577c0-.14.111-.258.25-.258h3.223c.14 0 .258.118.258.258 0 .132-.007.299-.014.466-.007.125-.014.25-.014.397 0 .292.028.515.146.515h.209c.334 0 .494.007.515-.028.049-.077.049-.32.042-.78l-.007-.57c0-.14.111-.258.25-.258h2.86c.14 0 .251.118.251.258 0 .167 0 .39-.007.584-.007.466-.007.703.042.759.042.049.237.049.64.042l.425-.007c1.462-.439 2.958-.8 4.482-1.08l.167-.034c.021-.007.049-.007.077-.007.376-.063.745-.125 1.12-.18v-.676L76.79 75.483h-1.288l-1.789 2.506 2.91 2.658zm-.258.446h-7.03l2.471 1.594h4.323l.563-1.295-.327-.3zM64.902 78.9l.02-.02.975-.891-1.782-2.506h-2.094a.256.256 0 01-.258-.25v-1.67l-.96.96a.226.226 0 01-.174.076h-1.942v6.473h3.835l2.38-2.172zm-5.178 2.68v3.898c0 1.21.661 1.983 1.503 2.317.327.133.69.195 1.051.195.362 0 .724-.062 1.051-.195.842-.334 1.496-1.106 1.496-2.317v-5.833l-2.039 1.865a.257.257 0 01-.167.07h-2.895zm-1.037-7.489h1.837l1.239-1.239v-3.027h-3.076v4.266zm18.381.947l18.91 5.171v-.905l-4.558-9.48H77.068v5.214zM67.77 98.646H56.543c-.529.306-.919.543-1.218.724-.494.306-.759.466-1.03.557-.327.111-.613.104-1.225.097-.118 0-.25-.007-.452-.007v2.805h12.5a42.19 42.19 0 012.074-3.355l.118-.195a.362.362 0 01.07-.076c.125-.188.257-.369.39-.55zm-15.151.87l.459.007c.557.007.814.007 1.058-.07.223-.076.466-.222.933-.508.285-.18.66-.403 1.155-.696v-7.315l-2.088 6.083a.249.249 0 01-.244.181h-1.273v2.318zm12.221 3.814H52.618v2.902l11.665-1.83c.18-.362.368-.717.556-1.072zm10.99-33.505c0 .327.014.584.021.8.021.69.035 1.03-.209 1.253-.23.216-.584.202-1.294.174a24.623 24.623 0 00-1.183-.028c-.46 0-.564-.466-.564-1.107 0-.18.007-.41.02-.64.008-.146.008-.3.015-.452H62.27v5.157h14.296v-5.157h-.738zm-2.693 0l-.014.473c-.007.209-.021.41-.021.62 0 .347.014.605.063.605.466 0 .876.014 1.197.028.577.02.863.028.946-.042.07-.07.063-.334.042-.863-.014-.23-.02-.508-.028-.821h-2.185zm41.238 3.292v9.32h3.883v-.224c0-.758.119-1.69 1.274-1.69h.341v-4.455h-2.443a.249.249 0 01-.174-.077l-2.881-2.874zm-.501 9.32V70.673l-4.337 9.013v1.865c1.337.223 2.645.515 3.926.863l.076.021h.335zM93.911 26.693H81.6c-.557 0-1.058.222-1.427.584l-.014.014a2.03 2.03 0 00-.598 1.44v4.226h16.39v-4.225a2.042 2.042 0 00-2.04-2.04zm2.033 16.669l.007-8.13h-7.357v8.13h7.35zm-16.384 0h6.751v-8.13H79.56v8.13zm25.216-8.13v8.13h5.728v-6.257c0-.724-.216-1.19-.613-1.469-.424-.292-1.051-.404-1.851-.404h-3.264zm-2.889 0v8.13h.613v-8.13h-.613zm12.849-6.277v6.152h2.582c.327 0 .619.132.835.341.216.216.348.515.348.835v12.779c0 .327-.132.62-.348.835a1.173 1.173 0 01-.835.348h-2.582v7.65h14.386a.25.25 0 01.25.25v2.568h1.768l-14.261-31.758h-2.143zM76.63 62.3v-6.995h-1.852V62.3h1.852zm35.558 2.157V62.81H46.514v1.65h65.674zm-7.134 10.322l.007-.564c.021-.765.028-1.134-.188-1.252-.271-.153-.884-.14-2.053-.119a74.96 74.96 0 01-1.914.028c-.397 0-.466.446-.466 1.002 0 .202.007.376.014.557l.007.348h4.593zm-5.094 0c0-.118-.007-.222-.007-.327-.007-.209-.021-.41-.021-.578 0-.835.146-1.51.974-1.51.807 0 1.406-.007 1.907-.02 1.26-.022 1.914-.036 2.297.173.487.272.48.738.452 1.712 0 .153-.007.334-.007.55h2.617c.369 0 .703.146.947.39l.021.007c.243.25.396.591.396.967v2.388l4.19-8.707h-21.75l4.002 8.324v-2.005a1.363 1.363 0 011.365-1.364h2.617zm9.075 6.689v-5.325a.858.858 0 00-.25-.605l-.014-.014a.848.848 0 00-.599-.244H97.343a.864.864 0 00-.863.863v5.186a43.468 43.468 0 0112.555.139zm8.847-11.644v1.336l1.224 1.225h.766v-2.561h-1.99zm1.99 3.069h-.87a.279.279 0 01-.181-.077l-1.371-1.37a.252.252 0 01-.077-.182v-1.44h-2.999v2.582l3.16 3.16h2.338v-2.673zm-1.107 9.542h3.453c2.784 0 3.132.968 3.132 3.09 0 .265-.007.606-.014.982-.007.348-.021.73-.021 1.19.571.362 1.127.745 1.677 1.134V81.79a.75.75 0 00-.223-.536.755.755 0 00-.542-.223h-6.696c-.696 0-.773.648-.773 1.183l.007.223zm6.049 4.942l.021-.884c.007-.327.013-.633.013-.968 0-1.781-.292-2.589-2.63-2.589h-6.995a42.377 42.377 0 019.591 4.44zm.64-6.856h.773a1.271 1.271 0 011.266 1.267v2.986l.077-.077c.348-.355.842-.57 1.378-.57h.167c-.007-.16-.014-.314-.014-.46a10.56 10.56 0 01-.021-.626c0-.759.125-1.309.752-1.33l-2.673-5.909a.256.256 0 01.125-.334l.251-.111-2.081-4.615v9.78zm-5.081-10.697v10.697h4.573V69.825h-4.573zm7.614 5.88l-.013.008-.021.007-.23.104 1.956 4.336 8.484-3.807-1.949-4.343-8.227 3.696zm-2.401-5.88l2.408 5.331 8.018-3.605-4.642-10.336h-1.998v4.211h.669c.243 0 .473.104.633.264l.007.007a.92.92 0 01.264.634v2.589c0 .25-.104.473-.264.64h-.007a.89.89 0 01-.633.265h-4.455zm4.935 11.894l8.366-3.758-.515-1.155-8.484 3.814.494 1.092c.048 0 .097.007.139.007zm-.272.495a.095.095 0 01-.062 0h-.098l-.236.006c-.223 0-.272.348-.272.822 0 .209.007.403.014.605l.021.467h.063c.292-.014.591-.021.849-.021h.292l.007-.627c.007-.668.014-1.023-.063-1.169-.034-.07-.194-.084-.515-.084zm4.761 5.122l-1.573-1.44c0 .062.007.125.007.187v8.415l.167.18 1.399-.291v-7.051zm-2.401-2.192l-.118-.119c-.335-.257-.815-.369-1.344-.41a.248.248 0 01-.076.014h-1.705c-.014 0-.035 0-.049-.007-.139.007-.258.007-.369.007-.397 0-.766.167-1.023.424a1.45 1.45 0 00-.432 1.03v3.111c.272.202.543.404.808.613l.195.132c.027.021.055.042.076.077l.007.007a42.564 42.564 0 013.8 3.368c.188.195.376.383.557.578v-7.886c0-.417-.118-.724-.327-.94zM60.705 3.016L54.323.51h-5.241v2.506h11.623zm-11.623.508V8.45h48.08c5.303 0 9.326 1.643 12.702 4.455 3.32 2.77 6.006 6.674 8.665 11.268h27.541a4656.035 4656.035 0 01-5.29-5.373C126.588 4.345 125.774 3.524 113.518 3.524H49.082zm62.556 15.319H92.436v2.512h20.462v-.125c.007-.132.007-.271.007-.466 0-.891-.132-1.921-1.267-1.921zm2.596 3.013H68.013v1.859h46.221v-1.859zm.502 13.753v14.136h2.582a.672.672 0 00.48-.202.674.674 0 00.202-.48V36.284a.647.647 0 00-.202-.473.672.672 0 00-.48-.202h-2.582zm14.135 22.787h-14.135v7.03h14.135v-7.03zm1.17 7.531h-16.649v3.397h16.649a.379.379 0 00.278-.119.392.392 0 00.118-.285v-2.59a.399.399 0 00-.111-.278v-.007a.44.44 0 00-.285-.118zm-17.15-.96H46.514v4.357h66.376v-4.357zm-60.775 41.349v-9.118H50.85v4.469l.007.654c0 .912-.146 1.949-1.441 1.949-.264 0-.508.007-.745.007v2.575l3.446-.536zm-6.458-2.005v3.014l2.512-.39v-2.658l-1.225.021c-.487.007-.919.013-1.287.013zm-.251-.542h3.014a.13.13 0 01.048.007c.307-.007.62-.007.947-.007.842 0 .94-.773.94-1.448 0-.16 0-.265-.007-.362v-.042h-6.87c0 1.072.035 1.559.501 1.74.272.105.682.139 1.295.153a.219.219 0 01.132-.041zm-.25 3.64v-3.104c-.613-.014-1.044-.063-1.358-.181-.821-.314-.821-.961-.821-2.45v-4.476h-1.517a.25.25 0 01-.25-.25V84.434h-3.035v.403a.254.254 0 01-.251.251c-.292 0-.564.007-.835.014-.293.014-.578.02-.828.02-.237 0-.467-.006-.682-.027l-13.92 26.002 23.497-3.688zm1.057-19.23v3.326h1.4v-3.327h-1.4zm1.9 0v3.326h2.555v-3.327h-2.554zm-2.4 3.326v-3.327h-2.562v3.327h2.561zM42.9 87.677h8.025c.14 0 .25.111.25.25v3.829c0 .139-.11.257-.25.257h-8.024a.256.256 0 01-.25-.257v-3.828c0-.14.111-.25.25-.25zm.578 9.521v4.211h6.863v-4.21h-6.863zm8.638-25.668H41.71v25.167h10.405V71.53zM41.21 72.74h-3.034v11.186h3.034V72.74zm-3.535-.758h-.16a.257.257 0 01-.126-.007l-.32-.007a14.77 14.77 0 00-.807-.02c-.898 0-1.622.118-1.622.835v11.003c0 .717.724.836 1.622.836.285 0 .55-.007.807-.021.209-.007.41-.014.605-.014V71.983zm17.121 54.4l5.29 2.248a43.609 43.609 0 01-.293-6.188H55.27c0 .522.007.933.014 1.288.028 1.392.035 2.088-.313 2.492a.79.79 0 01-.174.16zm5.366 2.825l-5.811-2.477v2.338l6.229 2.659a37.965 37.965 0 01-.418-2.52zm-8.672-3.104h2.561c.272-.028.439-.09.543-.209.223-.257.209-.89.188-2.157-.007-.39-.014-.842-.014-1.295h-4.023v2.993a.67.67 0 00.202.473.674.674 0 00.46.195h.083zm.174.501v2.381h2.185v-2.367c-.32.014-.716.007-1.197 0a37.238 37.238 0 00-.988-.014zm-24.972-2.916c.007 0 .014-.007.027-.014l1.88-1.232h-6.111v4.002l4.204-2.756zm.988-.049h4.002v-1.197h-2.165l-1.837 1.197zm-19.968-1.204l-.571-.014a17.33 17.33 0 00-.877-.02c-1.232 0-2.373.18-2.373 1.426v3.543c0 1.239 1.141 1.42 2.373 1.42.32 0 .599-.007.877-.014l.57-.021v-6.32zm2.554-1.754H8.213v30.012h2.053v-30.012zm11.72 0H10.768v5.979h11.22v-5.979zm125.496-9.73c.836 0 .954.648.954 1.33 0 .097 0 .222-.007.348v.048h.397c.313 0 .598.126.8.334.209.209.334.488.334.801v5.763c0 .313-.125.598-.334.807a1.115 1.115 0 01-.55.299v1.253h2.492c0-.515-.007-.891-.007-1.239-.021-1.74-.028-2.672.327-3.229.432-.668 1.246-.682 3-.682v-16.12h-4.663a.249.249 0 01-.251-.25c0-.139.111-.258.251-.258h2.589v-3.43c0-.14.111-.251.25-.251h1.824v-1.532c0-.139.111-.25.25-.25h26.309c0-.174-.007-.341-.014-.508-.007-.237-.021-.474-.021-.669 0-.807.133-1.398.815-1.398.522 0 .918-.014 1.239-.021.939-.021 1.412-.035 1.698.222.313.272.299.71.278 1.594-.007.216-.014.467-.014.78h.794a.25.25 0 01.25.25v1.323l3.884-2.499a7.984 7.984 0 015.15-1.246c1.852.181 3.536.995 4.622 2.227l.334.37 4.573-12.132-63.58 10.58v2.06h1.218c.682 0 .8.535.8 1.224 0 .126-.007.286-.013.453a8.71 8.71 0 00-.014.46c0 .215-.084.41-.223.549l-.007.007a.798.798 0 01-.543.223h-1.218v8.289a42.396 42.396 0 013.188 12.563l.035.25c.006.035 0 .063 0 .091l-.007.007c.062.724.111 1.454.139 2.192h1.079v-1.253a1.179 1.179 0 01-.55-.299 1.165 1.165 0 01-.334-.807v-5.763c0-.313.132-.592.334-.801.209-.208.494-.334.8-.334h.404v-.041c-.007-.133-.014-.258-.014-.355 0-.682.125-1.33.953-1.33zm.453 1.33c0-.425-.056-.829-.453-.829-.389 0-.445.404-.445.829 0 .139 0 .236.007.334v.062h.884v-.062c0-.098.007-.195.007-.334zm-1.545 8.428v1.225h2.185v-1.225h-2.185zm2.436-7.53h-2.687a.65.65 0 00-.445.187.644.644 0 00-.181.446v5.763c0 .174.069.334.181.445a.613.613 0 00.438.188h2.701a.59.59 0 00.438-.188.609.609 0 00.188-.445v-5.763a.625.625 0 00-.188-.446.636.636 0 00-.445-.187zm34.654-20.581c-.362.007-.794.02-1.253.02-.258 0-.307.377-.307.898 0 .223.007.432.014.655l.021.522h2.972c0-.286.007-.557.014-.794.021-.73.028-1.092-.104-1.204-.146-.125-.55-.118-1.357-.097zm-28.592 4.378h-1.573v3.18h1.573v-3.18zm33.665 3.18h2.596c.14 0 .251.119.251.258s-.111.25-.251.25h-4.677v16.12c1.747 0 2.569.014 3 .682.355.557.348 1.489.327 3.229 0 .348-.007.724-.007 1.239h8.958l7.092-3.062c.014-.007.021-.014.035-.014l4.747-2.053a42.17 42.17 0 011.844-7.35l-4.921-5.568-3.313 8.776-1.266 3.383a.259.259 0 01-.328.146l-.452-.174a4.469 4.469 0 01-.954 3.348 4.463 4.463 0 01-2.519 1.58 4.66 4.66 0 01-.988.111c-1.135 0-2.095-.383-2.833-.995a4.525 4.525 0 01-1.427-2.109 4.57 4.57 0 01-.09-2.54 4.33 4.33 0 011.343-2.2l-.71-.264a.252.252 0 01-.146-.327l1.274-3.383 5.122-13.593-.508-.57c-1.002-1.135-2.568-1.887-4.294-2.054a7.491 7.491 0 00-4.831 1.163l-3.549 2.29h1.225a.25.25 0 01.25.25v3.431zm-.501-3.18h-1.58v3.18h1.58v-3.18zm-53.042-.703v-1.371l-1.009.208c.341.383.682.773 1.009 1.163zm5.944 2.269h-4.19a28.6 28.6 0 01.849 1.211l.028.034a45.34 45.34 0 012.13 3.529l.076.139a.21.21 0 01.028.07c.383.71.738 1.434 1.079 2.172v-7.155zm-4.559-.508h6.278a.257.257 0 00.188-.077h.007a.272.272 0 00.076-.195c0-.132.007-.306.014-.48.007-.14.007-.278.007-.432 0-.403-.041-.724-.292-.724h-7.162v.766c.299.376.599.759.884 1.142zm-8.47-7.88l-.007-.006-3.097-2.165-7.489 5.011 3.013 2.325 7.58-5.164zm173.241-45.587c.787 0 1.288.438 1.51.988a1.826 1.826 0 010 1.337c-.222.55-.723.98-1.51.98-.779 0-1.287-.43-1.503-.98a1.723 1.723 0 01-.132-.669c0-.222.041-.452.132-.668.216-.55.724-.988 1.503-.988zm1.044 1.176c-.146-.376-.494-.668-1.044-.668-.543 0-.891.292-1.044.668a1.358 1.358 0 00-.083.48c0 .167.027.334.083.48.153.376.501.669 1.044.669.55 0 .898-.293 1.044-.668.063-.147.091-.314.091-.48 0-.168-.028-.335-.091-.48zm-20.622 29.135c.57 0 .932.313 1.099.716.056.154.091.32.091.48 0 .168-.035.328-.091.481-.167.41-.529.724-1.099.724-.571 0-.933-.313-1.1-.724a1.246 1.246 0 01-.09-.48c0-.16.027-.327.09-.48.167-.404.529-.717 1.1-.717zm.633.904c-.09-.23-.299-.403-.633-.403s-.543.174-.634.403a.857.857 0 00-.055.293c0 .104.021.209.055.299.091.223.3.404.634.404s.543-.181.633-.404a.842.842 0 00.056-.3.834.834 0 00-.056-.292zm-69.029 7.079l-.808 2.143 1.761.655a.256.256 0 01.153.32l-1.211 3.208-.007.007v.021l-5.338 14.143 4.921 5.554a42.355 42.355 0 014.858-9.445l.118-.195a.367.367 0 01.07-.076 42.999 42.999 0 014.851-5.805 42.595 42.595 0 013.898-3.445l.041-.042.084-.055a43.368 43.368 0 013.285-2.311l.174-.118a.217.217 0 01.07-.035 42.306 42.306 0 0114.831-5.756l.167-.035c.021-.007.049-.007.077-.007l.731-.125c-.007-1.371.076-2.93 3.883-4.19l10.6-3.313-45.177 7.357a3.504 3.504 0 01-1.601 1.385 3.216 3.216 0 01-.431.16zm-.668 6.396l-8.158-3.076-8.672 23.002 8.157 3.063 3.369-8.916.007-.021 5.297-14.052zM198.938 114.8l-.856-.32a1.928 1.928 0 00-.355-.028c-.996 0-1.636.543-1.914 1.239a2.432 2.432 0 000 1.74c.278.696.918 1.232 1.914 1.232 1.002 0 1.635-.536 1.914-1.232.111-.271.16-.571.16-.87 0-.299-.049-.598-.16-.87a1.921 1.921 0 00-.703-.891zm-1.991-.751l-1.684-.634c-.745.585-1.204 1.33-1.399 2.116a4.061 4.061 0 00.083 2.269 4.081 4.081 0 001.267 1.879c.654.536 1.503.87 2.513.87.306 0 .598-.028.884-.09a3.978 3.978 0 002.234-1.406 4.005 4.005 0 00.807-3.237l-1.698-.633c.056.097.104.209.153.32.132.334.202.696.202 1.058 0 .355-.07.717-.202 1.058-.348.87-1.141 1.552-2.38 1.552-1.232 0-2.033-.682-2.381-1.552a2.94 2.94 0 01-.195-1.058c0-.362.063-.724.195-1.058.272-.675.808-1.232 1.601-1.454zm6.73-1.33l-8.164-3.069-1.092 2.916.877.327.007.007h.013l2.882 1.086c.383.056.71.188.988.369l2.77 1.044h.007l.62.236 1.092-2.916zm.46 8.31c1.058 0 1.74.585 2.039 1.33.118.292.174.605.174.912 0 .306-.056.619-.174.904-.299.752-.981 1.337-2.039 1.337-1.065 0-1.747-.585-2.046-1.337a2.36 2.36 0 01-.174-.904c0-.307.055-.62.174-.912.299-.745.981-1.33 2.046-1.33zm1.573 1.518c-.223-.571-.752-1.016-1.573-1.016-.828 0-1.35.445-1.58 1.016a1.955 1.955 0 00-.139.724c0 .25.048.494.139.716.23.578.752 1.024 1.58 1.024.821 0 1.35-.446 1.573-1.024a1.91 1.91 0 00.139-.716c0-.251-.049-.495-.139-.724zm.842-3.439a4.592 4.592 0 012.116 2.527 5.034 5.034 0 01-.905 4.816 4.585 4.585 0 01-2.582 1.518l5.533 2.721a43.288 43.288 0 01-.606-7.225c0-.71.014-1.412.049-2.115-.007-.028-.007-.063-.007-.091l.028-.25c.07-1.218.188-2.43.362-3.62l-3.988 1.719zm-2.186 8.464c1.302-.07 2.318-.634 3.014-1.448a4.532 4.532 0 00.968-2.053 4.59 4.59 0 00-.154-2.276c-.348-.995-1.078-1.893-2.241-2.429l-7.029 3.041a.285.285 0 01-.126.035h-4.872l10.44 5.13zm12.487-50.265l-1.357 3.452 48.309-7.858c.021-.007.042-.007.063-.007 1.753 0 3.236.425 4.447 1.12 1.378.794 2.401 1.956 3.076 3.272a9.45 9.45 0 011.003 4.224c0 1.372-.307 2.708-.891 3.828a42.688 42.688 0 013.772 2.123h.007l.007.007.007.007c.967.606 1.9 1.253 2.812 1.935l-1.594-9.667-11.609-10.05-2.109.334h-.007l-.007.007-5.457.862h-.007l-27.144 4.302h-.014l-.014.007-5.442.863h-.021l-7.83 1.239zm-13.099 2.074l7.378 2.909a2.946 2.946 0 001.809.118h.007c.16-.041.32-.097.473-.167a2.96 2.96 0 001.42-1.273l.007-.007v-.007c.063-.112.119-.23.167-.355l1.26-3.202-12.521 1.984zm78.328 9.236l2.164-.355-.473-3.466-2.262.348.571 3.473zm2.234.146l-2.151.348.738 4.482a42.136 42.136 0 012.436 2.68l-1.023-7.51zm-3.341-3.773l-.007-.02v-.014l-2.088-12.674-.007-.021-.765-4.657-3.007.474 3.591 21.77.133.091c.027.021.055.042.076.077l.007.007a44.246 44.246 0 013.39 2.965l-.669-4.044-.007-.007-.647-3.947zm-68.688-6.396c.738 0 1.211.41 1.427.933a1.74 1.74 0 010 1.253c-.216.529-.689.932-1.427.932-.738 0-1.218-.403-1.427-.932a1.739 1.739 0 010-1.253c.209-.522.689-.933 1.427-.933zm.96 1.114c-.139-.341-.459-.613-.96-.613-.501 0-.821.272-.961.613a1.22 1.22 0 000 .89c.14.342.46.613.961.613.501 0 .821-.271.96-.612a1.2 1.2 0 00.084-.446 1.2 1.2 0 00-.084-.445zm68.069 4.26l.223-.592c1.002-2.624 1.977-5.158 1.629-7.712v-.007c-.279-1.997-2.221-2.665-3.731-3.076l1.879 11.386zm-8.728-13.621c.884 0 1.455.494 1.706 1.113a2.015 2.015 0 010 1.51c-.251.627-.822 1.114-1.706 1.114s-1.447-.487-1.698-1.113a2.015 2.015 0 010-1.51c.251-.62.814-1.114 1.698-1.114zm1.239 1.301c-.181-.445-.591-.793-1.239-.793-.64 0-1.058.348-1.232.793a1.473 1.473 0 00-.111.57c0 .196.035.39.111.565.174.445.592.8 1.232.8.648 0 1.058-.355 1.239-.8a1.586 1.586 0 000-1.135zm-8.275-2.06l10.837 9.382-1.789-10.809-9.048 1.427zm13.753 2.22l8.672-5.77-9.375 1.483.703 4.287zM155.8 62.405c3.02-.737 3.974.39 4.447 2.158.146.543.244 1.148.341 1.782l.049.285 4.969-.786-4.92-30.924h-4.845c-.014 1.149-.16 2.332-.654 3.41-.515 1.128-1.406 2.137-2.93 2.861l.995 4.858a5.195 5.195 0 011.107-.125c.912 0 1.726.278 2.38.807.647.53 1.142 1.309 1.413 2.318.153.578.237 1.239.237 1.97v.007c0 1.225-.126 2.498-.655 3.66-.515 1.128-1.412 2.13-2.937 2.861l1.003 4.858zm4.913 4.72c.968 6.04 1.914 12.082 2.875 18.116l4.969-.786-.821-5.2-.007-.006v-.007l-2.046-12.904-4.97.786zm2.381 18.193l-.794-4.977-2.491.39a.279.279 0 01-.154-.028l-14.219-7.482a.24.24 0 01-.111-.125l-1.879-4.76-4.893 2.15 2.999 7.6 15.584 8.178 5.958-.946zm-.87-5.47c-.71-4.476-1.413-8.951-2.13-13.427-.098-.612-.188-1.204-.327-1.733-.411-1.531-1.274-2.485-4.079-1.74l-11.783 5.178 1.851 4.698 14.06 7.399 2.408-.376zm3.904-13.893a.13.13 0 01.014.056c.007.02.007.041.007.062l2.039 12.848 22.704-3.521-2.053-12.939c0-.014-.007-.028-.007-.042v-.041l-4.357-27.458h-23.281l4.934 31.035zm2.137 13.46l.786 4.963 22.697-3.598-.773-4.886-22.71 3.522zm26.511-18.005c.014.02.014.042.02.063v.062l2.061 12.939 26.677-4.134-5.623-35.42h-27.346l4.211 26.49zm-.446.39l-4.962.786 2.874 18.117 4.97-.786-.815-5.109v-.007L194.33 61.8zm-5.039.292l4.963-.786-4.197-26.386h-5.074l4.308 27.172zm7.642 12.876l.773 4.865 5.053-.8h.021l13.843-2.193h.007v-.007h.007l7.733-1.225-.759-4.781-26.678 4.141zm30.457-18.75c.014.028.021.056.028.083a.198.198 0 010 .09l2.074 13.023 26.685-4.141-2.088-13.161c0-.008-.007-.021-.007-.035v-.035L251.36 34.92h-27.359l3.389 21.298zm-.438.41l-4.963.787 2.875 18.117 4.969-.787-2.881-18.117zm-5.046.293l4.962-.787-3.375-21.214h-5.081l3.494 22zm7.663 12.987l.758 4.76 26.671-4.23-.745-4.671-26.684 4.141zm44.168-42.428c1.009 0 1.656.557 1.942 1.267.111.271.16.57.16.863 0 .292-.049.584-.16.856-.286.717-.933 1.274-1.942 1.274s-1.657-.557-1.942-1.274a2.26 2.26 0 01-.16-.856c0-.293.049-.585.16-.863.285-.71.933-1.267 1.942-1.267zm1.475 1.455c-.215-.536-.703-.954-1.475-.954-.773 0-1.26.418-1.476.954a1.883 1.883 0 000 1.35c.216.529.703.947 1.476.947.772 0 1.26-.418 1.475-.947a1.862 1.862 0 000-1.35zm-94.12-1.455c1.009 0 1.657.557 1.942 1.267a2.301 2.301 0 010 1.719c-.285.717-.933 1.274-1.942 1.274s-1.656-.557-1.942-1.274a2.26 2.26 0 01-.16-.856c0-.293.049-.585.16-.863.286-.71.933-1.267 1.942-1.267zm1.476 1.455c-.216-.536-.703-.954-1.476-.954-.772 0-1.26.418-1.475.954a1.862 1.862 0 000 1.35c.215.529.703.947 1.475.947.773 0 1.26-.418 1.476-.947a1.883 1.883 0 000-1.35zm77.458 22.125l.02.07v.077l2.088 13.14 25.843-4.009-2.088-13.21-.007-.007v-.014l-1.928-12.187h-26.497l2.569 16.14zm-.446.397l-4.962.787 2.874 18.117 4.97-.787-2.882-18.117zm-5.039.293l4.956-.787-2.548-16.043h-5.081l2.673 16.83zm7.677 13.091l.738 4.657 11.804-1.873h.021l3.487-.556h.014l10.502-1.664-.73-4.573-25.836 4.01zm29.176-18.34l-4.976.787 2.895 18.277.007.021.376 2.394 4.914-1.176-1.121-7.064v-.007l-2.095-13.231zm-5.053.293l4.97-.786-1.754-11.088h-5.095l1.879 11.874zm3.724-11.874l3.884 24.492 41.607-6.458-8.638-18.034h-36.853zm3.96 24.987l1.072 6.779 40.591-9.73V53.44l-41.663 6.466zm33.443-24.987l8.616 17.978h11.262l-8.784-17.978h-11.094zm8.728 18.486v3.508l11.303.09V53.4l-11.303.007zm-178.308-2.387c0-.69-.077-1.309-.223-1.845-.244-.904-.675-1.593-1.239-2.053-.564-.46-1.274-.696-2.067-.696a4.84 4.84 0 00-1.218.167l-15.117 6.654 3.744 9.486 12.633-5.554.007-.007h.007l.013-.007c1.497-.675 2.36-1.621 2.847-2.686.494-1.079.613-2.283.613-3.452v-.007zm-19.523 18.994l16.954-7.455-.988-4.802-12.584 5.533h-.007l-.014.007-5.122 2.255 1.761 4.462zm-1.942-4.928l4.886-2.15-3.745-9.487-4.892 2.15 3.751 9.487zm-3.932-9.96l20.281-8.916-.988-4.809-15.911 7.002h-.007l-.021.007-5.115 2.255 1.761 4.461zm-1.949-4.928l4.893-2.15-5.179-13.127h-5.742l6.028 15.277zm5.352-2.352l15.987-7.03c1.503-.675 2.367-1.628 2.854-2.693.459-1.002.591-2.116.605-3.202h-24.548l5.102 12.925zm202.418-13.426l-4.761-9.744H118.814l5.478 9.744h214.02zm-183.424 82.866c-1.566 0-2.297.014-2.582.452-.272.432-.265 1.316-.244 2.958l.007 1.239h2.819v-4.649zm34.16.452c-.279-.438-1.017-.452-2.576-.452v4.649h2.819l.007-1.239c.021-1.642.028-2.526-.25-2.958zm-3.077-22.543h-30.582v38.969h30.582V95.194zm77.917-21.799l-13.927 4.357c-3.389 1.114-3.542 2.45-3.542 3.64a42.45 42.45 0 016.215-.452c3.863 0 7.6.515 11.157 1.475l.104.021a.14.14 0 01.056.028 41.554 41.554 0 017.099 2.659c.557-1.051.835-2.311.835-3.613a8.87 8.87 0 00-.939-3.995c-.634-1.238-1.594-2.324-2.882-3.069-1.127-.647-2.519-1.044-4.176-1.05zm-171.89 38.357c.229-.738.779-1.086 1.363-1.142a1.96 1.96 0 01.669.07c.215.069.424.174.598.313.466.376.731.974.508 1.719l-.007.014c-.23.738-.78 1.086-1.364 1.142a1.822 1.822 0 01-.668-.07 1.831 1.831 0 01-.599-.313c-.466-.369-.73-.975-.508-1.719l.007-.014zm1.405-.641c-.397.035-.772.279-.925.787l-.007.014c-.154.515.027.925.34 1.176.126.104.272.181.425.223.16.048.327.069.487.055.397-.034.773-.278.926-.786l.007-.014c.153-.515-.028-.926-.341-1.176a1.129 1.129 0 00-.425-.223c-.16-.049-.32-.07-.487-.056zm-6.257 8.686c-.243-.737.014-1.35.466-1.733.175-.139.376-.25.592-.327.216-.069.439-.097.668-.083.592.035 1.156.376 1.4 1.12.236.738-.015 1.351-.467 1.726a1.758 1.758 0 01-.592.328 1.677 1.677 0 01-.668.083c-.591-.035-1.155-.376-1.399-1.114zm.787-1.343c-.307.258-.474.675-.307 1.183.167.515.55.752.954.78.16.007.327-.014.48-.07.153-.048.3-.125.425-.229.306-.258.473-.675.306-1.191-.167-.515-.55-.744-.954-.772a1.246 1.246 0 00-.48.063c-.153.048-.3.132-.424.236zm-.105 10.809c-.626-.459-.772-1.107-.626-1.677a1.808 1.808 0 01.786-1.065c.501-.313 1.163-.362 1.789.097.626.467.773 1.107.626 1.678-.062.222-.16.431-.292.612-.14.181-.306.341-.494.459-.508.307-1.162.355-1.789-.104zm-.139-1.552c-.104.39 0 .828.439 1.148.431.321.883.293 1.225.077a1.274 1.274 0 00.564-.766c.097-.382 0-.828-.44-1.141-.43-.327-.883-.292-1.224-.084a1.442 1.442 0 00-.355.328 1.336 1.336 0 00-.209.438zm29.587.195c.209.752-.077 1.343-.55 1.698a1.757 1.757 0 01-1.274.348c-.591-.063-1.134-.431-1.343-1.183-.202-.752.077-1.35.55-1.705.181-.133.39-.237.606-.293a1.72 1.72 0 01.675-.055c.584.069 1.134.438 1.336 1.19zm-.849 1.301c.32-.243.508-.654.369-1.169-.146-.522-.515-.779-.912-.821a1.266 1.266 0 00-.919.25c-.32.237-.515.648-.369 1.17.14.522.508.772.912.821.16.021.327 0 .48-.042a1.27 1.27 0 00.439-.209zm.383-11.525c.626.466.772 1.106.626 1.684-.063.216-.16.425-.292.605a1.925 1.925 0 01-.494.46c-.508.306-1.163.355-1.789-.105-.627-.466-.773-1.106-.627-1.677.063-.223.161-.431.293-.612.139-.181.306-.334.494-.453.508-.313 1.162-.362 1.789.098zm.139 1.552c.104-.383 0-.829-.439-1.149-.431-.32-.884-.285-1.225-.076a1.264 1.264 0 00-.563.765c-.105.39 0 .829.438 1.149.432.32.884.292 1.225.076a1.266 1.266 0 00.564-.765zm-16.015-11.31c.626-.467 1.281-.425 1.789-.119.188.119.362.279.494.46.139.181.243.383.299.605.153.571.007 1.211-.612 1.678-.62.466-1.281.424-1.789.118a1.814 1.814 0 01-.494-.459 1.805 1.805 0 01-.3-.599c-.153-.578-.007-1.218.613-1.684zm1.524.313c-.341-.209-.793-.237-1.225.083-.431.328-.529.766-.424 1.156.041.153.118.306.208.431.105.133.223.244.362.327.341.209.794.237 1.225-.083.432-.327.529-.766.425-1.155a1.23 1.23 0 00-.209-.432 1.242 1.242 0 00-.362-.327zm8.074 1.963c.779 0 1.28.431 1.503.981v.014a1.784 1.784 0 010 1.308c-.223.55-.724.982-1.503.982-.773 0-1.274-.432-1.497-.982l-.007-.014a1.808 1.808 0 01.007-1.308c.223-.55.724-.981 1.497-.981zm1.037 1.169c-.153-.376-.494-.668-1.037-.668-.536 0-.884.292-1.03.668a1.318 1.318 0 00-.007.94l.007.006c.146.376.494.669 1.03.669.543 0 .884-.293 1.037-.669a1.33 1.33 0 00.007-.939l-.007-.007zm-9.25.759c5.373 0 8.811 2.944 10.322 6.709a12.67 12.67 0 010 9.257c-1.511 3.765-4.949 6.709-10.322 6.709-5.373 0-8.818-2.944-10.322-6.709a12.517 12.517 0 01-.877-4.629c0-1.58.293-3.166.877-4.628 1.504-3.765 4.949-6.709 10.322-6.709zm9.855 6.897c-1.44-3.591-4.726-6.396-9.855-6.396-5.136 0-8.422 2.805-9.862 6.396a12.037 12.037 0 00-.836 4.44c0 1.525.279 3.042.836 4.441 1.44 3.591 4.726 6.396 9.862 6.396 5.129 0 8.415-2.805 9.855-6.396.557-1.399.836-2.916.836-4.441 0-1.524-.279-3.041-.836-4.44zm-9.855-2.074c3.083 0 5.067 1.691 5.937 3.856.334.842.501 1.754.501 2.658 0 .912-.167 1.817-.501 2.659-.87 2.165-2.854 3.863-5.937 3.863-3.09 0-5.074-1.698-5.937-3.863a7.221 7.221 0 010-5.317c.863-2.165 2.847-3.856 5.937-3.856zm5.471 4.044c-.801-1.991-2.624-3.543-5.471-3.543-2.854 0-4.677 1.552-5.47 3.543a6.626 6.626 0 00-.467 2.47c0 .85.153 1.692.466 2.471.794 1.991 2.617 3.543 5.471 3.543 2.847 0 4.67-1.552 5.471-3.543a6.774 6.774 0 000-4.941zm-5.485-17.734a20.146 20.146 0 0114.289 5.916 20.154 20.154 0 015.916 14.288 20.158 20.158 0 01-5.916 14.289 20.146 20.146 0 01-14.289 5.916 20.158 20.158 0 01-14.289-5.916 20.158 20.158 0 01-5.916-14.289 20.154 20.154 0 015.916-14.288 20.158 20.158 0 0114.289-5.916zm13.934 6.277a19.631 19.631 0 00-13.934-5.769 19.602 19.602 0 00-13.927 5.769 19.603 19.603 0 00-5.77 13.927 19.63 19.63 0 005.77 13.934 19.628 19.628 0 0013.927 5.77 19.657 19.657 0 0013.934-5.77 19.66 19.66 0 005.77-13.934 19.634 19.634 0 00-5.77-13.927zM93.911 136.62c-.772-.014-1.266-.453-1.482-1.002a1.981 1.981 0 01-.118-.662 1.73 1.73 0 01.139-.661c.222-.55.73-.974 1.51-.96.78.007 1.274.445 1.483 1.002l.006.021a1.802 1.802 0 01-.02 1.301c-.23.543-.738.968-1.518.961zm-1.016-1.183c.146.375.487.675 1.023.675.543.014.891-.279 1.044-.648.063-.146.098-.313.098-.473 0-.16-.021-.313-.077-.459l-.007-.021c-.146-.369-.487-.668-1.023-.675-.543-.007-.89.278-1.044.647-.063.153-.09.313-.097.473 0 .167.027.334.083.481zm9.849 3.64c-.648.417-1.288.334-1.775-.007a1.828 1.828 0 01-.467-.481l-.014-.013a1.828 1.828 0 01-.243-.606c-.125-.585.063-1.218.71-1.643.647-.431 1.301-.348 1.789-.006.18.125.341.292.466.48s.216.403.264.619c.119.585-.062 1.218-.71 1.643l-.02.014zm-1.49-.418c.327.23.773.285 1.218-.007l.014-.007c.445-.292.578-.731.494-1.12a1.146 1.146 0 00-.188-.446 1.144 1.144 0 00-.334-.348c-.334-.23-.779-.285-1.232.014-.445.292-.577.731-.494 1.121.035.153.098.306.181.438l.007.007c.09.139.202.258.334.348zm10.433-2.7c-.285.71-.863 1.016-1.455 1.023a1.82 1.82 0 01-.661-.126 1.717 1.717 0 01-.57-.355c-.432-.403-.648-1.03-.369-1.753l.007-.014c.285-.717.863-1.023 1.454-1.023.223-.007.446.041.661.118.209.083.404.209.571.362.432.403.647 1.023.369 1.754l-.007.014zm-1.455.522c.397-.007.794-.216.989-.71l.007-.014c.195-.501.048-.926-.244-1.204a1.294 1.294 0 00-.41-.251 1.155 1.155 0 00-.481-.09c-.396 0-.793.215-.988.71l-.007.007c-.195.508-.049.932.244 1.204.118.111.257.201.41.257.153.063.32.091.48.091zm-7.927-30.972c4.963 0 9.452 2.011 12.702 5.261a17.927 17.927 0 015.255 12.695c0 4.963-2.012 9.452-5.255 12.702a17.924 17.924 0 01-12.702 5.255 17.921 17.921 0 01-12.695-5.255 17.904 17.904 0 01-5.262-12.702c0-4.955 2.012-9.444 5.262-12.695a17.901 17.901 0 0112.695-5.261zm12.34 5.616a17.376 17.376 0 00-12.34-5.115 17.4 17.4 0 00-12.34 5.115 17.402 17.402 0 00-5.116 12.34c0 4.824 1.956 9.188 5.116 12.34a17.4 17.4 0 0012.34 5.116c4.823 0 9.187-1.956 12.34-5.116a17.373 17.373 0 005.116-12.34c0-4.816-1.956-9.18-5.116-12.34zm-20.107-28.96l-3.69.87-1.245 8.922 3.738-.695 1.197-9.097zm-14.832 5.874l-3.104 2.178 2.171 8.75 3.209-2.04-2.276-8.888zM67.554 99.836l-1.984 3.223 5.443 7.182 2.144-3.139-5.603-7.266zm76.574 19.523l-.536-3.751-8.784-2.026.369 3.786 8.951 1.991zm-4.893-15.959l-1.963-3.244-8.874 1.552 1.81 3.341 9.027-1.649zM113.1 82.854l-3.696-.808-4.976 7.51 3.675.989 4.997-7.691zm-51.267 51.914l1.183 3.599 8.992.48L71 135.179l-9.166-.411zm8.066 15.459l2.527 2.791.014.013 8.421-3.215-2.422-2.937-8.54 3.348zm13.252 10.648l3.452 1.573 6.452-6.291-3.382-1.74-6.522 6.458zm17.449 4.58l3.793-.014 3.223-8.414-3.801-.168-3.215 8.596zm17.929-3.222l3.431-1.622-.647-8.985-3.508 1.461.724 9.146zm14.741-10.35l2.429-2.909-4.343-7.893-2.575 2.798 4.489 8.004zm8.742-14.644l1.079-3.633-7.127-5.519-1.253 3.591 7.301 5.561zm100.314-25.487c.23-.738.78-1.086 1.364-1.142.223-.014.453.007.669.07.215.069.424.174.598.313.467.376.731.974.508 1.719l-.007.014c-.229.738-.779 1.086-1.364 1.142a1.821 1.821 0 01-.668-.07 1.831 1.831 0 01-.599-.313c-.466-.369-.73-.975-.508-1.719l.007-.014zm1.406-.641c-.396.035-.772.279-.925.787l-.007.014c-.154.515.027.925.341 1.176.125.104.271.181.424.223.16.048.32.069.487.055.397-.034.773-.278.926-.786l.007-.014c.153-.515-.028-.926-.341-1.176a1.122 1.122 0 00-.425-.223 1.291 1.291 0 00-.487-.056zm-6.257 8.686c-.243-.737.014-1.35.467-1.733.174-.139.375-.25.591-.327.216-.069.439-.097.668-.083.592.035 1.156.376 1.392 1.12.244.738-.007 1.351-.459 1.726a1.757 1.757 0 01-.592.328 1.69 1.69 0 01-.668.083c-.591-.035-1.155-.376-1.399-1.114zm.787-1.343c-.307.258-.474.675-.307 1.183.167.515.55.752.954.78.16.007.327-.014.48-.07.153-.048.299-.125.425-.229.306-.258.473-.675.306-1.191-.167-.515-.55-.744-.954-.772a1.245 1.245 0 00-.48.063 1.267 1.267 0 00-.424.236zm-.105 10.809c-.626-.459-.772-1.107-.626-1.677a1.819 1.819 0 01.786-1.065c.501-.313 1.163-.362 1.789.097.626.467.773 1.107.626 1.678-.062.222-.16.431-.292.612a1.921 1.921 0 01-.494.459c-.508.307-1.162.355-1.789-.104zm-.139-1.552c-.104.39 0 .828.432 1.148.438.321.89.293 1.232.077.132-.084.257-.195.354-.327.098-.132.168-.279.209-.439.098-.382-.007-.828-.438-1.141-.432-.327-.884-.292-1.225-.084a1.323 1.323 0 00-.355.328 1.329 1.329 0 00-.209.438zm29.587.195c.209.752-.077 1.343-.55 1.698-.181.139-.39.237-.605.299a1.829 1.829 0 01-.675.049c-.585-.063-1.128-.431-1.337-1.183-.202-.752.077-1.35.55-1.705.181-.133.39-.237.606-.293a1.72 1.72 0 01.675-.055c.584.069 1.134.438 1.336 1.19zm-.849 1.301c.32-.243.508-.654.369-1.169-.146-.522-.515-.779-.919-.821a1.24 1.24 0 00-.912.25c-.32.237-.515.648-.369 1.17.14.522.509.772.912.821.16.021.327 0 .48-.042.154-.042.307-.111.439-.209zm.383-11.525c.626.466.772 1.106.626 1.684-.063.216-.16.425-.292.605a1.845 1.845 0 01-.501.46c-.501.306-1.156.355-1.782-.105-.626-.466-.773-1.106-.626-1.677a1.766 1.766 0 01.786-1.065c.508-.313 1.162-.362 1.789.098zm.139 1.552c.104-.383 0-.829-.439-1.149-.431-.32-.883-.285-1.225-.076a1.307 1.307 0 00-.354.327 1.248 1.248 0 00-.209.438c-.105.39 0 .829.438 1.149.432.32.877.292 1.225.076a1.266 1.266 0 00.564-.765zm-16.015-11.31c.626-.467 1.281-.425 1.789-.119.188.119.362.279.494.46.139.181.236.383.299.605.153.571.014 1.211-.612 1.678-.627.466-1.281.424-1.789.118a1.814 1.814 0 01-.494-.459 1.681 1.681 0 01-.3-.599c-.153-.578-.006-1.218.613-1.684zm1.524.313c-.341-.209-.793-.237-1.225.083-.431.328-.529.766-.424 1.156.041.153.111.306.208.431.098.133.223.244.362.327.341.209.794.237 1.225-.083.432-.327.529-.766.425-1.155a1.23 1.23 0 00-.209-.432 1.242 1.242 0 00-.362-.327zm8.074 1.963c.779 0 1.28.431 1.503.981v.014a1.784 1.784 0 010 1.308c-.223.55-.724.982-1.503.982-.773 0-1.274-.432-1.497-.982l-.007-.014a1.808 1.808 0 01.007-1.308c.223-.55.724-.981 1.497-.981zm1.037 1.169c-.153-.376-.494-.668-1.037-.668-.536 0-.884.292-1.03.668a1.318 1.318 0 00-.007.94l.007.006c.146.376.494.669 1.03.669.543 0 .884-.293 1.037-.669.056-.146.083-.306.083-.473 0-.16-.027-.32-.083-.466v-.007zm-9.25.759c5.373 0 8.811 2.944 10.322 6.709.577 1.462.87 3.048.87 4.628s-.293 3.167-.87 4.629c-1.511 3.765-4.949 6.709-10.322 6.709-5.373 0-8.818-2.944-10.322-6.709a12.531 12.531 0 01-.877-4.629c0-1.58.293-3.166.877-4.628 1.504-3.765 4.942-6.709 10.322-6.709zm9.855 6.897c-1.44-3.591-4.725-6.396-9.855-6.396-5.136 0-8.422 2.805-9.862 6.396a12.033 12.033 0 00-.836 4.44c0 1.525.279 3.042.836 4.441 1.44 3.591 4.726 6.396 9.862 6.396 5.13 0 8.415-2.805 9.855-6.396.557-1.399.836-2.916.836-4.441 0-1.524-.279-3.041-.836-4.44zm-9.855-2.074c3.083 0 5.067 1.691 5.93 3.856.341.842.508 1.754.508 2.658 0 .912-.167 1.817-.508 2.659-.863 2.165-2.847 3.863-5.93 3.863-3.09 0-5.074-1.698-5.937-3.863a7.083 7.083 0 01-.508-2.659c0-.904.167-1.816.508-2.658.863-2.165 2.847-3.856 5.937-3.856zm5.471 4.044c-.801-1.991-2.624-3.543-5.471-3.543-2.854 0-4.677 1.552-5.478 3.543a6.767 6.767 0 00-.459 2.47c0 .85.153 1.692.459 2.471.801 1.991 2.624 3.543 5.478 3.543 2.847 0 4.67-1.552 5.471-3.543a6.774 6.774 0 000-4.941zm-5.485-17.734a20.158 20.158 0 0114.289 5.916 20.154 20.154 0 015.916 14.288 20.158 20.158 0 01-5.916 14.289 20.158 20.158 0 01-14.289 5.916 20.158 20.158 0 01-14.289-5.916 20.158 20.158 0 01-5.916-14.289 20.154 20.154 0 015.916-14.288 20.158 20.158 0 0114.289-5.916zm13.927 6.277a19.6 19.6 0 00-13.927-5.769 19.631 19.631 0 00-13.934 5.769 19.634 19.634 0 00-5.77 13.927 19.66 19.66 0 005.77 13.934 19.657 19.657 0 0013.934 5.77 19.627 19.627 0 0013.927-5.77 19.632 19.632 0 005.777-13.934 19.607 19.607 0 00-5.777-13.927zM244.24 136.62c-.772-.014-1.266-.453-1.482-1.002a1.812 1.812 0 01-.118-.662 1.73 1.73 0 01.139-.661c.222-.55.731-.974 1.51-.96.78.007 1.274.445 1.483 1.002l.006.021c.077.202.112.424.112.64a1.97 1.97 0 01-.132.661c-.23.543-.738.968-1.518.961zm-1.016-1.183c.146.375.487.675 1.023.675.543.014.891-.279 1.044-.648.063-.146.098-.313.098-.473 0-.16-.021-.313-.077-.459l-.007-.021c-.146-.369-.487-.668-1.023-.675-.543-.007-.891.278-1.044.647-.063.153-.09.313-.097.473 0 .167.027.334.083.481zm9.849 3.64c-.648.417-1.295.334-1.775-.007a1.828 1.828 0 01-.467-.481l-.013-.013a1.986 1.986 0 01-.251-.606c-.118-.585.063-1.218.717-1.643.647-.431 1.301-.348 1.789-.006.181.125.341.292.466.48s.216.403.264.619c.119.585-.062 1.218-.717 1.643l-.013.014zm-1.49-.418c.327.23.773.285 1.218-.007l.014-.007c.445-.292.578-.731.494-1.12a1.261 1.261 0 00-.188-.446 1.144 1.144 0 00-.334-.348c-.334-.23-.779-.285-1.232.014-.445.292-.577.731-.494 1.121.035.153.091.306.181.438l.007.007c.091.139.202.258.334.348zm10.433-2.7c-.285.71-.863 1.016-1.454 1.023-.223 0-.453-.042-.662-.126a1.727 1.727 0 01-.57-.355c-.432-.403-.655-1.03-.369-1.753l.007-.014c.285-.717.863-1.023 1.447-1.023a1.761 1.761 0 011.239.48c.432.403.648 1.023.369 1.754l-.007.014zm-1.454.522c.396-.007.793-.216.988-.71v-.014c.202-.501.056-.926-.237-1.204a1.376 1.376 0 00-.41-.251 1.155 1.155 0 00-.481-.09c-.396 0-.793.215-.988.71l-.007.007c-.195.508-.049.932.244 1.204.118.111.257.201.41.257.153.063.32.091.481.091zm-7.928-30.972c4.963 0 9.452 2.011 12.695 5.261a17.904 17.904 0 015.262 12.695c0 4.963-2.012 9.452-5.262 12.702a17.895 17.895 0 01-12.695 5.255 17.91 17.91 0 01-12.695-5.255 17.905 17.905 0 01-5.262-12.702c0-4.955 2.012-9.444 5.262-12.695a17.89 17.89 0 0112.695-5.261zm12.34 5.616a17.376 17.376 0 00-12.34-5.115 17.388 17.388 0 00-12.34 5.115 17.402 17.402 0 00-5.116 12.34c0 4.824 1.956 9.188 5.116 12.34a17.39 17.39 0 0012.34 5.116c4.823 0 9.187-1.956 12.34-5.116a17.373 17.373 0 005.116-12.34c0-4.816-1.956-9.18-5.116-12.34zm-20.107-28.96l-3.689.87-1.246 8.922 3.738-.695 1.197-9.097zm.522-.105l-1.246 9.445a.251.251 0 01-.202.216l-4.246.793c-.034 0-.062.007-.097 0a.254.254 0 01-.216-.278l1.274-9.062a41.5 41.5 0 00-10.183 4.58l2.36 9.2c.042.112 0 .23-.098.293l-3.661 2.325a.242.242 0 01-.076.034.254.254 0 01-.306-.18l-2.193-8.874a42.283 42.283 0 00-8.317 8.846l5.805 7.537a.253.253 0 01.014.3l-2.436 3.57a.284.284 0 01-.063.07.262.262 0 01-.355-.049l-5.519-7.287a41.584 41.584 0 00-4.503 13.307l8.512 4.246c.097.049.16.153.146.265l-.64 4.273a.187.187 0 01-.021.09.256.256 0 01-.341.112l-8.137-4.141c-.02.591-.034 1.183-.034 1.774 0 3.731.487 7.35 1.399 10.795l9.521.425a.252.252 0 01.23.188l1.155 4.162a.198.198 0 01.007.09.24.24 0 01-.258.237l-9.138-.48a42.043 42.043 0 006.368 10.934l8.86-3.473c.105-.035.216-.014.286.076l2.742 3.334a.178.178 0 01.056.084.247.247 0 01-.147.32l-8.533 3.264a42.343 42.343 0 009.849 7.218l6.772-6.71a.252.252 0 01.285-.041l3.856 1.983a.251.251 0 01.07.049.253.253 0 01-.007.355l-6.55 6.382a41.809 41.809 0 0012.974 2.777l3.327-8.909c.028-.104.132-.174.243-.174l4.323.188a.138.138 0 01.09.014.247.247 0 01.146.32l-3.264 8.54a41.649 41.649 0 0013.099-2.972l-.752-9.493c-.014-.111.049-.209.153-.258l3.988-1.656a.347.347 0 01.091-.028.26.26 0 01.271.237l.647 9.117a41.972 41.972 0 009.584-7.175c.3-.3.592-.606.884-.919l-4.656-8.296a.24.24 0 01.035-.293l2.93-3.18a.199.199 0 01.07-.063.255.255 0 01.341.104l4.405 8.004a41.975 41.975 0 005.812-10.802l-7.587-5.769a.26.26 0 01-.083-.286l1.427-4.085a.175.175 0 01.041-.077.255.255 0 01.355-.049l7.225 5.603a42.035 42.035 0 001.107-9.612c0-1.204-.049-2.401-.147-3.584l-9.291-2.067a.252.252 0 01-.202-.216l-.411-4.308a.2.2 0 010-.091.259.259 0 01.3-.188l8.915 2.061a41.72 41.72 0 00-4.009-11.206l-9.354 1.712a.262.262 0 01-.278-.125l-2.06-3.807a.199.199 0 01-.028-.084.243.243 0 01.202-.292c2.992-.522 6.027-1.002 9.006-1.566a42.742 42.742 0 00-4.949-5.958 44.319 44.319 0 00-3.682-3.271l-7.864 5.366a.264.264 0 01-.3-.014l-3.431-2.645c-.021-.02-.035-.041-.049-.062a.255.255 0 01.063-.348l7.6-5.088a42.074 42.074 0 00-10.746-4.705l-5.185 7.976a.254.254 0 01-.285.119l-4.183-1.121a.261.261 0 01-.077-.035.249.249 0 01-.07-.348l5.046-7.621a42.369 42.369 0 00-6.556-.508c-2.471 0-4.893.216-7.245.62zm-15.354 5.979l-3.104 2.178 2.164 8.75 3.216-2.04-2.276-8.888zm-18.994 29.364l-.362 3.599-.007.139 8.025 4.085.557-3.765-8.206-4.093-.007.035zm6.842-17.567l-1.984 3.223 5.443 7.182 2.144-3.139-5.603-7.266zm76.574 19.523l-.536-3.751-8.784-2.026.362 3.786 8.958 1.991zm-4.9-15.959l-1.956-3.244-8.874 1.552 1.81 3.341 9.02-1.649zm-11.303-13.245l-3.104-2.172-7.489 5.011 3.013 2.325 7.58-5.164zm-14.825-7.301l-3.703-.808-4.969 7.51 3.675.989 4.997-7.691zm-51.274 51.914l1.183 3.599 8.999.48-1.016-3.668-9.166-.411zm8.073 15.459l2.527 2.791.014.013 8.421-3.215-2.422-2.937-8.54 3.348zm13.252 10.648l3.452 1.573 6.452-6.291-3.382-1.74-6.522 6.458zm17.449 4.58l3.793-.014 3.223-8.414-3.808-.168-3.208 8.596zm17.929-3.222l3.424-1.622-.64-8.985-3.508 1.461.724 9.146zm14.741-10.35l2.429-2.909-4.343-7.893-2.575 2.798 4.489 8.004z" fill="#000"/></svg>