<svg width="535" height="255" fill="none" xmlns="http://www.w3.org/2000/svg"><path d="M449.069 210.5l1.655-5.57-10.935-8.463-1.922 5.506 11.202 8.527zM93.684 180.085l-.555 5.507-.011.224 12.312 6.264.865-5.773-12.6-6.275-.011.053zm-1.367 5.912l.043-.405c.106-1.91.299-3.789.566-5.646l.053-.523a.563.563 0 01.043-.149l.01-.021a64.429 64.429 0 015.714-18.26l-17.78 2.785c-.022.011-.043.011-.064.011l-6.023.95-4.581.715-.011.01c-.021 0-.043 0-.064.011l-36.916 5.795-7.005 13.063h8.35a.39.39 0 01.385.384v2.316h57.259l.032-.897c-.011-.043-.011-.085-.011-.139zm1.495-6.766l13.06 6.51a.402.402 0 01.224.406l-.982 6.552a.215.215 0 01-.043.139.374.374 0 01-.512.171l-12.484-6.35a76.934 76.934 0 00-.053 2.721c0 5.721.747 11.27 2.146 16.553l14.609.651c.16.01.309.117.352.288l1.773 6.382c.01.042.021.096.021.138a.383.383 0 01-.406.363l-14.02-.736a64.78 64.78 0 009.77 16.766l13.594-5.326c.16-.053.331-.021.438.118l4.207 5.112a.272.272 0 01.086.128.38.38 0 01-.225.491l-13.092 5.005a64.97 64.97 0 0015.111 11.067l10.39-10.288a.398.398 0 01.448-.064l5.906 3.041a.406.406 0 01.106.075.386.386 0 01-.01.544l-10.049 9.786a64.273 64.273 0 0019.905 4.259l5.105-13.661a.39.39 0 01.373-.266l6.632.288a.215.215 0 01.139.021.38.38 0 01.224.491l-5.008 13.095a63.975 63.975 0 0020.097-4.557l-1.154-14.557c-.021-.171.075-.32.235-.395l6.119-2.54a.526.526 0 01.139-.042.4.4 0 01.417.362l.993 13.981a64.39 64.39 0 0014.704-11.003c.459-.459.908-.929 1.356-1.409l-7.144-12.721c-.074-.149-.064-.331.054-.448l4.495-4.877a.295.295 0 01.107-.096.39.39 0 01.523.16l6.76 12.273a64.02 64.02 0 008.917-16.563l-11.64-8.847a.396.396 0 01-.128-.438l2.189-6.264a.258.258 0 01.064-.118.39.39 0 01.545-.074l11.095 8.59a65.01 65.01 0 001.687-14.738c0-1.846-.075-3.681-.224-5.496l-14.256-3.169a.386.386 0 01-.31-.331l-.63-6.606a.296.296 0 010-.139.4.4 0 01.47-.288l13.668 3.159a63.98 63.98 0 00-6.15-17.182l-14.352 2.625a.403.403 0 01-.428-.192l-3.161-5.837a.311.311 0 01-.042-.128.382.382 0 01.309-.449c4.592-.8 9.248-1.536 13.819-2.401a65.05 65.05 0 00-2.691-3.639.39.39 0 01-.321-.384v-.011a63.274 63.274 0 00-3.043-3.5l-.032-.032a64.951 64.951 0 00-4.346-4.226 67.715 67.715 0 00-2.809-2.359l-12.067 8.228a.383.383 0 01-.448-.021l-5.265-4.055a.666.666 0 01-.085-.096.382.382 0 01.107-.534l11.65-7.801a64.591 64.591 0 00-16.488-7.215l-7.955 12.231a.39.39 0 01-.438.181l-6.418-1.718c-.043-.011-.075-.032-.118-.054a.389.389 0 01-.106-.533l7.742-11.686a69.514 69.514 0 00-5.137-.598h-.01l-.289-.021h-.032l-.139-.011h-.01l-.15-.01h-.011l-.138-.011h-.011l-.15-.011h-.01a70.618 70.618 0 00-3.973-.117c-.95 0-1.89.021-2.829.064h-.193l-.16.011a67.795 67.795 0 00-6.055.587l-.085.01c-.598.086-1.196.182-1.794.278l-1.912 14.482a.383.383 0 01-.309.33l-6.514 1.217c-.054 0-.096.011-.15 0a.374.374 0 01-.32-.427l1.943-13.895a63.902 63.902 0 00-15.622 7.022l3.62 14.109a.37.37 0 01-.15.448l-5.617 3.564a.374.374 0 01-.576-.224l-3.375-13.606a64.597 64.597 0 00-5.489 4.909 64.148 64.148 0 00-7.272 8.655l8.906 11.557c.107.129.118.31.021.459l-3.737 5.475a.421.421 0 01-.096.107.401.401 0 01-.545-.075l-8.468-11.174a64.056 64.056 0 00-6.909 20.405zm-23.835-90.37h1.154V50.986c0-.213.17-.384.384-.384h3.866v-9.584c0-.213.17-.384.384-.384s.385.17.385.384v2.679h.33c.278-.01.588-.021.908-.021 2.147 0 4.592.352 4.592 3.33v3.596h6.93v-9.584a.39.39 0 01.78 0v2.679h.32c.289-.01.598-.021.919-.021 2.135 0 4.58.352 4.58 3.33v3.596h6.494c.266 0 .523.01.779.042l3.31-13.446h-1.591a.392.392 0 01-.395-.385v-3.617c0-.214.182-.384.395-.384h37.087v-4.237c0-.214.171-.384.385-.384h29.846c2.435 0 2.713 1.985 2.713 3.713 0 .203 0 .47-.011.726v.181h1.666c.214 0 .384.171.384.385v10.501h3.535c.15 0 .288.085.352.224l22.212 49.433.032.064 7.358 16.381.01.011v.011l.011.01 3.257 7.247c.021.032.043.053.053.096l.032.096 1.058 2.358.01.011v.011l9.878 21.973 94.794-15.762.288-.769-7.795-3.063-8.02 1.27h-.042l-8.351 1.324-.011.01h-.021l-35.549 5.625h-.022l-.01.01-8.351 1.324h-.032l-9.621 1.526a.394.394 0 01-.246-.043l-24.134-12.657a.33.33 0 01-.192-.203l-4.784-12.123-.011-.011v-.021l-2.979-7.535-.011-.021-6.022-15.24v-.02l-.011-.012-2.969-7.534h-.01l-.011-.021-9.59-24.28-8.809-15.676c-.011-.011-.022-.032-.032-.043-4.069-7.044-8.159-13.02-13.21-17.235-5.04-4.194-11.052-6.638-18.997-6.638H75.456a.392.392 0 01-.385-.395V.465c0-.214.17-.395.384-.395h8.5a.43.43 0 01.16.043L95.778 4.69h78.926c19.125 0 20.385 1.28 42.383 23.67 2.574 2.626 5.436 5.54 8.65 8.773h286.796c.171 0 .309.096.363.245l7.656 15.645.032.064 13.829 28.281a.41.41 0 01.054.203v6.286a.383.383 0 01-.385.384l-18.089-.139h-.022l-62.876 15.058h-.032l-8.254 1.975c-.021.01-.032.01-.054.01a.321.321 0 01-.245-.042h-.011l-.032-.022v-.01h-.011v-.011h-.01l-.011-.011-.021-.021-.011-.011-.011-.021-.01-.011-.011-.01-.021-.032v-.011a.148.148 0 01-.022-.064v-.011l-.01-.032-.556-3.5-14.053 9.348c2.478.705 5.564 1.857 6.055 5.294v.021c.555 4.119-.972 8.079-2.552 12.198-.203.544-.417 1.089-.619 1.633l3.609-.555a.392.392 0 01.438.331l2.616 19.242a63.684 63.684 0 013.022 4.13c.021.01.032.032.043.053l.042.053a69.309 69.309 0 013.268 5.411l.118.213a.311.311 0 01.042.107 64.746 64.746 0 017.315 24.332l.054.385c0 .053 0 .096-.011.138v.011a63.06 63.06 0 01.245 5.709c0 7.631-1.302 14.952-3.716 21.761l-.032.096c-.01.032-.021.074-.042.106a65.294 65.294 0 01-9.408 17.374.3.3 0 01-.054.075l-.074.096a67.29 67.29 0 01-3.877 4.621l-.299.352a.257.257 0 01-.117.096l-.011.011a65.333 65.333 0 01-22.767 15.731l-.107.053c-.042.011-.074.032-.117.032a64.995 64.995 0 01-21.058 4.717c-.032 0-.064.011-.096.011h-.139a69.568 69.568 0 01-3.332.085 56.31 56.31 0 01-2.702-.064h-.459c-.053 0-.096 0-.139-.021h-.01a64.801 64.801 0 01-26.718-7.225l-.16-.075a.258.258 0 01-.118-.064 65.845 65.845 0 01-15.836-11.654c-.022-.021-.054-.043-.075-.064l-.128-.149a63.58 63.58 0 01-4.026-4.451l-.278-.298a.387.387 0 01-.085-.139l-.011-.011a65.104 65.104 0 01-12.216-23.798l-.043-.16a.301.301 0 01-.021-.096 63.117 63.117 0 01-1.121-4.931l-10.134-4.973c-.011-.011-.033-.021-.054-.032l-17.491-8.58h-9.686v18.355a.383.383 0 01-.384.385h-47.691a.383.383 0 01-.385-.385v-18.355h-15.442a65.008 65.008 0 01-3.705 23.329l-.032.096c-.011.032-.022.074-.043.106a65.237 65.237 0 01-9.408 17.374c-.011.022-.032.054-.043.075l-.085.096a64.537 64.537 0 01-3.876 4.621l-.3.352a.3.3 0 01-.106.096l-.022.011c-.48.512-.971 1.025-1.473 1.526a65.343 65.343 0 01-21.293 14.205l-.107.053c-.032.011-.075.032-.118.032a64.989 64.989 0 01-21.058 4.717c-.032 0-.064.011-.096.011h-.139c-1.11.053-2.21.085-3.332.085-.907 0-1.804-.021-2.701-.064h-.46c-.042 0-.096 0-.138-.021h-.011a64.801 64.801 0 01-26.718-7.225l-.16-.075a.258.258 0 01-.118-.064 65.58 65.58 0 01-15.836-11.654c-.021-.021-.043-.043-.075-.064l-.128-.149a63.83 63.83 0 01-4.026-4.451l-.277-.298a.65.65 0 01-.086-.139l-.01-.011a64.912 64.912 0 01-12.206-23.798l-.054-.16c-.01-.032-.02-.064-.02-.096a67.546 67.546 0 01-.813-3.373l-10.198-4.343h-4.047a.383.383 0 01-.384-.384v-4.077a1.86 1.86 0 01-.886-.48 1.827 1.827 0 01-.524-1.27v-4.589h-27.71v2.219a.384.384 0 01-.385.385h-7.7l-6.94 4.557a.443.443 0 01-.236.074H17.054v36.466c0 .214-.17.385-.384.385h-3.92a.383.383 0 01-.384-.385V198.27c-.288 0-.566.011-.843.022-.481.01-.962.032-1.378.032-2.296 0-4.41-.385-4.41-2.957v-5.432c0-2.572 2.114-2.956 4.41-2.956.416 0 .897.011 1.378.032.277.011.555.022.843.022v-2.316a.39.39 0 01.385-.384h5.029l2.072-3.885v-11.014L8.49 162.967l-4.432 8.271v5.656l2.35 2.348a.387.387 0 010 .544l-.022.011-.01.011-1.901 1.857a.388.388 0 01-.545 0l-3.278-3.277a.385.385 0 01-.118-.277v-6.958c0-.064.01-.128.043-.182l19.275-35.943V90.44c0-.213.181-.384.395-.384h2.328v-.822c0-.362-.01-.683-.021-1.003a35.15 35.15 0 01-.022-.992c0-.64.043-1.217.214-1.676V39.994c0-.214.17-.384.384-.384h42.298c1.388 0 2.51.448 3.3 1.227v.01c.8.8 1.25 1.943 1.25 3.309V88.86zm1.154.768h-1.154v9.274h1.154V89.63zm142.41 39.38l.021-.961c.011-1.024.022-1.568-.096-1.792-.064-.129-.374-.129-1.036-.129l-.363.011c-.352 0-.416.534-.416 1.259 0 .321.01.619.021.929l.021.715h.107a28.3 28.3 0 011.292-.032h.449zm.384.822h-2.605c-.032 0-.054 0-.086-.011-.203.011-.395.011-.555.011a2.22 2.22 0 00-1.581.651 2.26 2.26 0 00-.651 1.579v14.631h8.351v-14.631c0-1.654-1.239-2.134-2.745-2.252-.042.011-.074.022-.128.022zm-3-.769c0-.245-.011-.48-.022-.704-.01-.352-.021-.683-.021-.961 0-1.173.192-2.038 1.185-2.038h.353c.993 0 1.452-.011 1.729.555.203.384.193 1.003.171 2.145v.993c1.784.17 3.247.821 3.247 3.009v10.693l6.022-1.003-9.642-21.44-12.174 5.464c.032.043.053.086.085.139.193.384.182 1.003.171 2.145-.01.267-.01.576-.01.993 1.174.117 2.221.437 2.787 1.27l2.872 2.614v-.875a2.985 2.985 0 013.001-2.999h.246zm109.242-3.682l-.352.95h-.011v.022h-.011l-.512 1.398 6.396 2.379 1.068-2.838c-.844.096-1.719 0-2.552-.331l-4.026-1.58zm-1.506 2.957l-.01-.011-.033-.011-2.68-.992-1.58 4.173 12.515 4.717 1.591-4.216-2.68-1.003-.021-.011h-.022l-7.069-2.646h-.011zm-.107-.865l.299-.779-1.655.278 1.356.501zM76.15 62.234v4.322h2.328v-4.322H76.15zm-.77 4.322V54.092h-.757v12.464h.758zm.77 3.5v14.045h2.328V70.057H76.15zm-.77 14.045V70.057h-.757V84.1h.758zM93 62.234h-.96c-.31.022-.641.032-.962.032-.267 0-.62-.01-.95-.021-.15 0-.288-.01-.438-.01v4.321H93v-4.322zm-3.31-.779h2.285c1.474-.107 2.766-.619 2.766-2.54v-4.823h-5.05v7.363zm4.08.416v4.685h5.082l2.98-12.08c-.62-.278-1.442-.384-2.424-.384H95.51v4.823c0 1.697-.716 2.54-1.74 2.956zm-4.86 4.685V54.092h-6.93v12.464h6.93zm.78 3.5v14.045H93V70.057h-3.31zm-.78 14.045V70.057h-6.93V84.1h6.93zm4.86-14.044V84.1h2.99v-9.007c0-.021 0-.053.01-.085l1.217-4.952H93.77zm.971-19.455v-3.597c0-2.294-2.04-2.55-3.812-2.55-.31-.011-.609 0-.897.01l-.342.011v6.126h5.051zm-13.54 0v-3.597c0-2.294-2.03-2.55-3.813-2.55-.299-.011-.608 0-.897.01l-.341.011v6.126h5.05zm-5.051 3.49v7.363h2.328v-7.363H76.15zm5.05 12.464V54.092h-1.954v12.464h1.955zm-2.722 29.039V84.87h-3.855v10.725h3.855zM81.98 84.87v10.725h14.78V84.87H81.98zm-.78 10.725V70.057h-1.954v25.538h1.955zm51.76 0V84.87h-14.085v10.725h14.085zm0-11.494V70.057h-14.085V84.1h14.085zm-14.854-14.044h-2.841V84.1h2.841V70.057zm-3.609 0h-2.425V84.1h2.425V70.057zm-2.425-3.5h2.425v-12.38c-.598.096-1.09.267-1.474.534-.609.426-.951 1.141-.951 2.251v9.594zm3.193 0h2.841V54.091h-2.253c-.203 0-.395 0-.588.01v12.454zm3.61 0h2.958V54.091h-2.958v12.464zm29.633 0h2.755V54.091h-2.744l-.011 12.464zm3.535 0h4.047V54.091h-4.047v12.464zm18.036 3.5h-8.789V84.1h8.789V70.057zM161.29 84.87v10.725h8.789V84.87h-8.789zm-3.492 10.725V84.87h-5.755v10.725h5.755zm0-11.494V70.057h-5.755V84.1h5.755zm-6.535-14.044h-14.801V84.1h14.801V70.057zM136.462 84.87v10.725h14.801V84.87h-14.801zm-.779 10.725V69.662c0-.214.171-.384.384-.384h22.116c.213 0 .395.17.395.384v25.933h1.943V69.662c0-.214.171-.384.385-.384h9.173v-1.943h-9.173a.392.392 0 01-.385-.394V54.09h-1.943v12.85a.401.401 0 01-.395.394h-22.116a.392.392 0 01-.384-.394V54.09h-1.944v12.85a.399.399 0 01-.384.394h-21.283v1.943h21.283a.39.39 0 01.384.384v25.933h1.944zm36.98 0V55.137c0-1.152-.352-2.102-1.014-2.753a3.12 3.12 0 00-1.218-.768h-.021v-.011h-.022c-.352-.117-1.217-.192-2.349-.235h-54.771c-1.174 0-2.114.363-2.765 1.014-.652.651-1.015 1.6-1.015 2.753v40.458h1.816V56.962c0-1.387.448-2.305 1.27-2.881.588-.406 1.346-.63 2.254-.715h.021c.32-.032.651-.054 1.004-.054h50.446c1.377 0 2.488.214 3.278.769.822.576 1.271 1.494 1.271 2.881v38.633h1.815zM112.072 84.87v10.725h2.425V84.87h-2.425zm-3.353 10.725V84.87h-2.167v10.725h2.167zm0-11.494V55.137c0-1.355.438-2.497 1.239-3.297.79-.79 1.922-1.238 3.31-1.238h1.229V37.198h-7.614l-3.353 13.606a4.134 4.134 0 011.772 1.025c.801.811 1.25 1.953 1.25 3.308v28.964h2.167zm6.546-33.5h2.841V37.199h-2.841v13.404zm3.61 0h2.947v-6.477a3.89 3.89 0 011.153-2.754l.022-.02a3.903 3.903 0 012.733-1.132h18.891a3.91 3.91 0 012.755 1.152 3.877 3.877 0 011.143 2.754v6.478h2.744V37.198h-32.388v13.404zm33.168 0h4.047v-7.384a2.293 2.293 0 012.296-2.295h10.251c.63 0 1.196.256 1.613.673l.021.02c.406.417.662.983.662 1.602v7.769c.481.203.897.49 1.249.843h.011c.801.811 1.25 1.953 1.25 3.308v43.766h.683c.214 0 .384.182.384.395v1.089h1.293V37.198h-23.76v13.404zm15.74 0h1.11c.449 0 .865.043 1.261.14v-7.524a1.52 1.52 0 00-.428-1.057l-.021-.021a1.538 1.538 0 00-1.068-.438h-10.251c-.417 0-.801.171-1.079.438a1.523 1.523 0 00-.448 1.078v7.374l1.623-.01c2.552-.033 6.546-.086 9.301.02zm-64.595 19.456h-4.41l-1.25 5.08V84.1h5.66V70.057zm-3.546-3.5h3.546v-9.595c0-.939-.235-1.59-.673-2.027l-2.873 11.621zm3.546.778H74.623v1.943h28.565v-1.943zm-29.345 28.26V54.09h-1.944v41.504h1.944zm31.929 0V55.137c0-1.152-.352-2.102-1.014-2.753-.641-.651-1.581-1.014-2.755-1.014H71.9v1.942h27.507c1.249 0 2.274.182 3.043.62h.011v.01h.01l.011.01c.075.043.139.086.203.129.822.576 1.271 1.494 1.271 2.881v38.633h1.815zm-2.584 0V84.87h-5.66v10.725h5.66zM69.198 56.31V44.156c0-1.153-.353-2.102-1.015-2.764-.64-.64-1.58-1.014-2.755-1.014H23.515v1.953h39.318c1.378 0 2.488.213 3.279.768.822.577 1.27 1.494 1.27 2.871v8.911a3.798 3.798 0 011.463.993c.129.139.246.277.353.437zm-2.584-1.643V45.97c0-1.1-.332-1.814-.94-2.241-.652-.459-1.613-.63-2.84-.63H45.928v13.287h16.189a4.658 4.658 0 012.381-1.6 4.593 4.593 0 012.115-.118zM42.437 43.099h-16.2v13.287h16.2V43.099zM25.47 84.603V43.1h-1.954v41.62c.192-.075.427-.117.694-.117h1.26zm.769-24.727v12.422h16.2V59.876h-16.2zm0 15.912v8.815h16.2v-8.815h-16.2zm41.016-2.722H56.672l-1.047 1.953h11.63v-1.953zm-11.17-.533l.032-.064 7.497-14.002c.342-.576.876-1.003 1.463-1.185.395-.128.811-.16 1.207-.064.405.107.779.32 1.078.694.406.48.673 1.227.673 2.273v38.718h1.164V59.022c0-1.153-.353-2.028-.908-2.625a3.12 3.12 0 00-1.388-.865l-.022-.01h-.01c-.075-.022-.139-.043-.214-.064a3.878 3.878 0 00-1.943.064 3.974 3.974 0 00-2.083 1.45c0 .022-.01.033-.032.054a3.67 3.67 0 00-.213.342l-1.228 2.284a.233.233 0 00-.032.053l-7.038 13.127-.032.064-1.43 2.657a.229.229 0 01-.032.053l-5.105 9.53-.032.064-2.253 4.194-.032.064-6.92 12.903a.194.194 0 01-.032.053l-14.897 27.78-.032.064-2.69 5.015a.232.232 0 01-.033.054L1.303 171.238v6.713l2.905 2.903 1.377-1.345-2.189-2.188a.383.383 0 01-.117-.267v-5.901c0-.086.032-.16.064-.214l4.645-8.665.01-.011v-.011l.011-.01 11.875-22.166a3.18 3.18 0 01.032-.064l2.69-5.016c.012-.021.022-.043.033-.064l.523-.982.01-.021h.012l15.174-28.324.01-.032h.011l1.88-3.511.032-.064L47.2 89.096a.202.202 0 01.042-.064l2.243-4.194.032-.064 5.104-9.52.032-.064 1.431-2.657zm.993-.235h10.177V60.185c0-.854-.192-1.43-.48-1.793a1.321 1.321 0 00-.673-.427 1.499 1.499 0 00-.78.043 1.91 1.91 0 00-1.035.843l-7.209 13.447zm-3.993.768H45.93v1.953h6.119l1.036-1.953zm-7.155-.768h7.57l6.664-12.422H45.929v12.422zm-3.492.768h-16.2v1.953h16.2v-1.953zm9.194 2.722H45.93v8.815h.972l4.73-8.815zm15.623 0H55.21l-4.72 8.815h16.765v-8.815zm-5.638-18.623H45.929v1.942h14.64l1.047-1.942zm-19.179 0h-16.2v1.942h16.2v-1.942zm2.723 27.438V43.1h-1.954v41.502h1.954zm-24.53 55.707v28.675l1.944 1.11V136.67l-1.944 3.64zm0 29.561v9.135l1.944-3.639v-4.386l-1.944-1.11zm2.723-34.641v35.303l1.389.789 14.81-27.64-15.889-9.029-.31.577zm0 36.188v2.508l1.026-1.921-1.026-.587zm-2.755 9.274l-.032.064-1.922 3.576h6.792l7.283-13.597 21.613-40.34c-.865-.234-1.42-.768-1.42-1.857v-8.153L40.59 143.384l2.637 1.494a.384.384 0 01.14.523.385.385 0 01-.524.15l-2.616-1.495-14.812 27.652 2.627 1.494a.378.378 0 01.15.523.398.398 0 01-.523.149l-2.617-1.494-1.74 3.255H23.3v.011l-2.702 5.047zm-.747-12.144V141.75l-11 20.544 11 6.254zm2.723-38.601V90.824H20.63v42.763l1.944-3.639zm.78-27.352v25.922l13.892-25.922H23.354zm15.868 3.02l13.69 7.78v-1.729c0-1.761 1.452-2.049 3.257-2.049.384 0 .822.011 1.27.032l.342.011 3.791-7.065H40.846l-1.623 3.02zm13.69 8.666l-14.053-7.983-14.833 27.672 15.89 9.03 12.996-24.236v-4.482zm-15.25-12.455l6.547-12.198H23.354v12.198h14.31zm6.953-12.966l1.868-3.49H24.21c-.78 0-.908.833-.908 1.868 0 .341.01.65.021.97l.022.652h21.272zm5.456-3.49l-1.868 3.49h19.05v-3.49H50.072zm-2.285 4.258l-6.535 12.198h20.727l1.452-2.71a.385.385 0 01.342-.214h3.481V89.63H47.787zm14.78 12.732l-.033.064-3.887 7.246h.075c.214 0 .384.182.384.395v.769h4.656v-1.473c0-.214.171-.384.385-.384h3.107v-9.296h-3.246l-1.442 2.679zm5.467-.011h3.097v-2.668h-3.098v2.668zm3.097 4.781h-3.097v1.847h3.097v-1.847zm0-4.002h-3.097v3.234h3.097v-3.234zm.769 4.002v1.847h8.98a.39.39 0 01.385.384v38.974h1.687l3.865-11.248v-.022l.011-.01v-.011l2.969-8.655V107.13h-2.413v15.549a.383.383 0 01-.385.385.383.383 0 01-.384-.385V107.13h-2.05v15.549a.383.383 0 01-.385.385.383.383 0 01-.385-.385V107.13H71.9zm30.38 30.202l.801 1.398h1.645c.213 0 .384.171.384.384v.587h3.609v-.587c0-.213.171-.384.385-.384h7.293c.182-.139.353-.288.534-.427l-8.543-4.493-6.108 3.522zm13.188 2.167h-5.98v.597a.39.39 0 01-.384.384h-4.378a.39.39 0 01-.385-.384v-.597h-1.484a.404.404 0 01-.331-.193l-.993-1.728H87.565v4.055h25.49a75.333 75.333 0 012.413-2.134zm2.51-7.599l4.773 2.263.086-.054a.477.477 0 01.106-.053 65.197 65.197 0 0113.872-6.542.84.84 0 01-.214-.182c-.267-.309-.256-.768-.245-1.675l.01-.502h-3.62l.011.491c.011.843.011 1.292-.171 1.601-.267.416-.651.416-1.452.406h-.321c-.832 0-.993-.662-.993-1.559 0-.17.011-.405.022-.64l.01-.299h-4.175v.491c.011.843.021 1.292-.171 1.59-.256.427-.641.427-1.452.417h-.31c-.843 0-.993-.662-.993-1.559 0-.17.011-.405.011-.64l.01-.299h-3.855l-.939 2.156v4.589zm4.015 2.764l-4.496-2.134h-6.888l-1.441.821 8.425 4.429a67.035 67.035 0 014.4-3.116zm-9.75 7.737H87.565v4.696h20.257a66.795 66.795 0 013.535-3.831c.299-.288.587-.577.886-.865zm-5.061 5.464H87.565v2.69h17.502a65.506 65.506 0 012.115-2.69zm-1.57-24.225h11.244l-3.993-3.65a.382.382 0 01-.043-.523l2.606-3.66h-15.58l2.626 3.671a.403.403 0 01-.053.512l-1.645 1.494v2.156h4.838zm-.118.768h-4.72v6.724c0 2.219-1.228 3.639-2.787 4.268a5.315 5.315 0 01-1.9.363 5.228 5.228 0 01-1.901-.363c-1.57-.629-2.787-2.049-2.787-4.268v-5.977h-.823v3.298a.37.37 0 01-.021.117l-2.83 8.239h13.925l6.525-3.767.01-.011h.011l2.093-1.206a.391.391 0 01.214-.064h6.695v-4.14h-6.599a.348.348 0 01-.235-.075l-4.87-3.138zm12.601-.683c.011.011.022.022.043.032l.673.619h4.357c.213 0 .384.182.384.395 0 .203-.011.459-.021.715 0 .192-.011.384-.011.608 0 .449.032.79.224.79h.321c.512 0 .758.011.79-.042.075-.118.064-.491.053-1.185v-.886c0-.213.171-.395.385-.395h4.944c.213 0 .395.182.395.395 0 .203-.011.459-.021.715-.011.192-.022.384-.022.608 0 .449.043.79.224.79h.321c.512 0 .758.011.79-.042.075-.118.075-.491.064-1.196l-.011-.875c0-.213.171-.395.385-.395h4.389c.213 0 .384.182.384.395 0 .256 0 .598-.01.897-.011.715-.011 1.077.064 1.163.064.075.363.075.982.064l.651-.011a64.083 64.083 0 016.877-1.654l.257-.053c.032-.011.075-.011.117-.011.577-.096 1.143-.192 1.719-.277v-1.036l-29.44-8.046h-1.976l-2.744 3.842 4.463 4.076zm-.395.683h-10.785l3.791 2.444h6.631l.865-1.985-.502-.459zm-17.588-3.361l.032-.032 1.495-1.366-2.733-3.842H95.69a.392.392 0 01-.395-.385v-2.561l-1.473 1.473a.346.346 0 01-.267.117h-2.98v9.925h5.885l3.652-3.329zm-7.944 4.108v5.977c0 1.857 1.014 3.041 2.306 3.553a4.322 4.322 0 001.613.299 4.32 4.32 0 001.612-.299c1.292-.512 2.296-1.696 2.296-3.553v-8.942l-3.129 2.86a.394.394 0 01-.256.106h-4.442zm-1.592-11.483h2.82l1.9-1.899v-4.643h-4.72v6.542zm28.203 1.452l29.013 7.929v-1.387l-6.994-14.536h-22.019v7.994zm-14.267 36.199H87.287c-.811.47-1.41.832-1.868 1.11-.759.47-1.164.715-1.58.854-.503.17-.94.16-1.88.149-.182 0-.385-.011-.694-.011v4.301h19.178a65.004 65.004 0 013.183-5.144l.181-.298a.547.547 0 01.107-.118c.192-.288.395-.565.598-.843zm-23.247 1.334l.704.011c.855.01 1.25.01 1.624-.107.341-.117.715-.341 1.43-.779a74.909 74.909 0 011.773-1.067V139.5l-3.203 9.327a.381.381 0 01-.374.277h-1.954v3.554zm18.751 5.848H81.265v4.451l17.897-2.807c.278-.555.566-1.099.854-1.644zm16.862-51.375c0 .502.021.897.032 1.228.032 1.056.053 1.579-.32 1.921-.353.33-.897.309-1.987.266a38.41 38.41 0 00-1.815-.042c-.705 0-.865-.715-.865-1.697 0-.278.011-.63.032-.982.011-.224.011-.459.021-.694h-15.9v7.908h21.934v-7.908h-1.132zm-4.133 0l-.021.726c-.011.32-.032.63-.032.95 0 .533.021.928.096.928.715 0 1.345.022 1.837.043.886.032 1.324.043 1.452-.064.107-.107.096-.512.064-1.323a36.686 36.686 0 01-.043-1.26h-3.353zm63.271 5.048v14.29h5.959v-.342c0-1.163.181-2.593 1.954-2.593h.523v-6.83h-3.748a.386.386 0 01-.267-.117l-4.421-4.408zm-.769 14.29v-18.035l-6.653 13.821v2.86c2.051.341 4.058.789 6.023 1.323l.118.032h.512zm-30.626-85.472H125.73a3.11 3.11 0 00-2.189.896l-.021.022a3.112 3.112 0 00-.918 2.209v6.478h25.148v-6.478a3.134 3.134 0 00-3.129-3.127zm3.118 25.56l.011-12.465h-11.288v12.464h11.277zm-25.137 0h10.358V54.091h-10.358v12.464zm38.688-12.465v12.464h8.789v-9.594c0-1.11-.331-1.825-.94-2.252-.651-.448-1.612-.618-2.84-.618h-5.009zm-4.431 0v12.464h.939V54.092h-.939zm19.712-9.627V53.9h3.962c.502 0 .951.203 1.282.523.331.331.534.79.534 1.281v19.594c0 .501-.203.95-.534 1.28a1.8 1.8 0 01-1.282.534h-3.962V88.84h22.073c.214 0 .385.171.385.385v3.938h2.712L179.86 44.465h-3.289zm-58.465 51.13V84.87h-2.841v10.725h2.841zm54.557 3.308v-2.529H71.899v2.53h100.764zm-10.946 15.827l.011-.865c.032-1.174.043-1.739-.288-1.921-.417-.234-1.356-.213-3.15-.181-.844.021-1.848.043-2.937.043-.609 0-.716.683-.716 1.536 0 .31.011.577.022.854l.011.534h7.047zm-7.816 0c0-.182-.011-.342-.011-.502-.011-.32-.032-.629-.032-.886 0-1.28.224-2.315 1.495-2.315 1.239 0 2.157-.011 2.926-.032 1.933-.032 2.937-.054 3.524.266.747.417.737 1.132.694 2.626 0 .234-.011.512-.011.843h4.015c.566 0 1.079.224 1.453.597l.032.011c.374.384.608.907.608 1.484v3.66l6.429-13.351h-33.371l6.14 12.764v-3.073c0-.577.235-1.1.62-1.484a2.085 2.085 0 011.473-.608h4.016zm13.925 10.256v-8.164c0-.363-.15-.694-.385-.929l-.021-.021a1.3 1.3 0 00-.919-.374h-16.616a1.329 1.329 0 00-1.324 1.324v7.95a66.745 66.745 0 0119.265.214zm13.572-17.855v2.049l1.88 1.879h1.174v-3.928h-3.054zm3.054 4.707h-1.335a.425.425 0 01-.277-.118l-2.104-2.102a.387.387 0 01-.117-.278v-2.209h-4.603v3.96l4.848 4.845h3.588v-4.098zm-1.698 14.631h5.297c4.271 0 4.805 1.483 4.805 4.738 0 .406-.01.929-.021 1.505-.011.534-.032 1.121-.032 1.825.876.555 1.73 1.142 2.573 1.74v-10.8c0-.321-.128-.609-.341-.822a1.16 1.16 0 00-.833-.342h-10.273c-1.068 0-1.185.993-1.185 1.814l.01.342zm9.28 7.577l.032-1.355c.011-.502.021-.971.021-1.484 0-2.732-.448-3.97-4.036-3.97h-10.732a65.042 65.042 0 0114.715 6.809zm.982-10.512h1.186a1.954 1.954 0 011.943 1.943v4.578l.118-.118a2.961 2.961 0 012.114-.875h.256c-.01-.245-.021-.48-.021-.704a16.583 16.583 0 01-.032-.961c0-1.163.192-2.006 1.153-2.038l-4.1-9.06a.392.392 0 01.192-.513l.384-.17-3.193-7.076v14.994zm-7.795-16.403v16.404h7.016v-16.403h-7.016zm11.682 9.018l-.021.011-.032.011-.352.16 3 6.648 13.018-5.837-2.99-6.66-12.623 5.667zm-3.684-9.018l3.695 8.175 12.302-5.528-7.123-15.848h-3.064v6.457h1.025c.373 0 .726.16.971.405l.011.011c.246.256.406.597.406.971v3.97c0 .384-.16.726-.406.982h-.011a1.364 1.364 0 01-.971.405h-6.835zm7.572 18.239l12.835-5.763-.79-1.772-13.017 5.849.758 1.675c.075 0 .149.011.214.011zm-.417.757a.144.144 0 01-.096 0h-.15l-.363.011c-.341 0-.416.534-.416 1.259 0 .321.011.619.021.929l.032.715h.096c.449-.021.908-.032 1.303-.032h.449l.01-.961c.011-1.024.022-1.568-.096-1.792-.053-.107-.299-.129-.79-.129zm7.304 7.855l-2.413-2.209c0 .096.011.192.011.288v12.903l.256.277 2.146-.448v-10.811zm-3.684-3.362l-.181-.181c-.513-.395-1.25-.566-2.061-.63a.376.376 0 01-.118.022h-2.616c-.021 0-.054 0-.075-.011-.213.011-.395.011-.566.011-.609 0-1.175.256-1.57.651-.405.405-.662.96-.662 1.579v4.771c.417.309.833.618 1.239.939l.299.202a.414.414 0 01.118.118l.01.01a65.206 65.206 0 015.831 5.166c.288.299.576.587.854.885V132.06c0-.64-.182-1.11-.502-1.441zM93.674 4.69L83.88.85h-8.04v3.84h17.833zm-17.834.78v7.556h73.768c8.137 0 14.309 2.518 19.488 6.83 5.094 4.247 9.216 10.234 13.295 17.278h42.256c-2.99-3.031-5.681-5.763-8.116-8.24C194.757 6.73 193.508 5.47 174.703 5.47H75.84zm95.979 23.489h-29.462v3.853h31.395v-.193c.011-.202.011-.416.011-.715 0-1.366-.203-2.945-1.944-2.945zm3.984 4.62h-70.917v2.85h70.917v-2.85zm.768 21.089v21.675h3.962c.288 0 .545-.118.737-.31.192-.192.31-.448.31-.736V55.703a.99.99 0 00-.31-.726 1.034 1.034 0 00-.737-.31h-3.962zm21.689 34.94h-21.689v10.779h21.689V89.608zm1.794 11.547H174.51v5.208h25.544c.16 0 .32-.064.427-.181a.607.607 0 00.181-.438v-3.97c0-.16-.064-.32-.17-.427v-.011a.678.678 0 00-.438-.181zm-26.312-1.473H71.899v6.681h101.844v-6.681zm-93.246 63.403v-13.981h-1.944v6.852l.01 1.003c0 1.398-.223 2.988-2.21 2.988-.405 0-.78.011-1.142.011v3.948l5.286-.821zm-9.91-3.074v4.621l3.855-.598v-4.076c-.705.01-1.324.021-1.88.032-.747.01-1.409.021-1.975.021zm-.384-.832h4.623c.022 0 .043 0 .075.01.47-.01.95-.01 1.452-.01 1.293 0 1.442-1.185 1.442-2.22 0-.246 0-.406-.01-.555v-.064h-10.54c0 1.643.053 2.39.768 2.668.417.16 1.047.213 1.987.235a.327.327 0 01.203-.064zm-.385 5.581V160c-.94-.021-1.602-.096-2.082-.277-1.26-.48-1.26-1.473-1.26-3.757v-6.862h-2.328a.382.382 0 01-.385-.384v-19.188h-4.656v.619a.39.39 0 01-.384.384c-.449 0-.865.011-1.281.021-.449.022-.887.032-1.271.032-.363 0-.716-.01-1.047-.042l-21.357 39.87 36.051-5.656zm1.623-29.487v5.102h2.147v-5.102H71.44zm2.916 0v5.102h3.919v-5.102h-3.92zm-3.685 5.102v-5.102h-3.93v5.102h3.93zm-4.314-5.87H78.67c.213 0 .384.171.384.384v5.87c0 .213-.17.395-.384.395H66.357a.392.392 0 01-.384-.395v-5.87c0-.213.17-.384.384-.384zm.887 14.599v6.457h10.529v-6.457h-10.53zm13.252-39.358H64.53v38.59h15.965v-38.59zm-16.734 1.857h-4.656v17.15h4.656v-17.15zm-5.424-1.163h-.246a.405.405 0 01-.192-.011l-.491-.011a23.166 23.166 0 00-1.24-.032c-1.377 0-2.487.182-2.487 1.281v16.872c0 1.1 1.11 1.281 2.488 1.281.438 0 .843-.011 1.239-.032.32-.011.63-.021.929-.021V110.44zm26.269 83.412l8.116 3.447a66.81 66.81 0 01-.47-7.919c0-.522 0-1.045.021-1.568h-6.94c0 .8.01 1.43.02 1.974.043 2.134.054 3.202-.48 3.821-.075.096-.16.17-.267.245zm8.233 4.333l-8.916-3.799v3.585l9.557 4.077a58.24 58.24 0 01-.64-3.863zm-13.305-4.76h3.93c.416-.043.672-.139.832-.32.342-.395.32-1.366.289-3.308-.011-.598-.022-1.292-.022-1.985h-6.172v4.589a1.039 1.039 0 001.014 1.024h.129zm.267.769v3.649h3.353v-3.628c-.492.021-1.1.011-1.837 0a56.277 56.277 0 00-1.516-.021zm-38.315-4.472c.01 0 .021-.011.042-.021l2.884-1.889h-9.376v6.136l6.45-4.226zm1.516-.075h6.14v-1.835h-3.32l-2.82 1.835zm-30.637-1.846l-.875-.021a25.94 25.94 0 00-1.346-.032c-1.89 0-3.641.277-3.641 2.187v5.432c0 1.9 1.75 2.178 3.64 2.178.492 0 .92-.011 1.347-.022l.875-.032v-9.69zm3.92-2.689h-3.151v46.017h3.15v-46.017zm17.982 0H17.054v9.167h17.214v-9.167zm192.546-14.92c1.282 0 1.463.993 1.463 2.039 0 .149 0 .341-.01.533v.075h.608a1.7 1.7 0 011.228.512c.321.32.513.747.513 1.227v8.837c0 .48-.192.918-.513 1.238a1.72 1.72 0 01-.843.459v1.921h3.823c0-.79-.011-1.366-.011-1.9-.032-2.668-.043-4.098.502-4.952.662-1.024 1.911-1.046 4.602-1.046v-24.716h-7.154a.383.383 0 01-.385-.384c0-.214.171-.395.385-.395h3.972v-5.261c0-.214.171-.385.385-.385h2.797v-2.347c0-.214.171-.385.385-.385h40.365c0-.266-.011-.523-.021-.779-.011-.363-.032-.725-.032-1.024 0-1.238.203-2.145 1.249-2.145.801 0 1.41-.022 1.901-.032 1.441-.032 2.168-.054 2.605.341.481.416.46 1.089.428 2.444-.011.331-.022.715-.022 1.195h1.218c.213 0 .384.171.384.385v2.027l5.959-3.831a12.256 12.256 0 017.902-1.91c2.84.277 5.425 1.526 7.09 3.415l.513.565 7.016-18.601-97.549 16.222v3.158h1.868c1.047 0 1.228.822 1.228 1.879 0 .192-.01.437-.021.693a13.15 13.15 0 00-.021.705c0 .331-.128.629-.342.843l-.011.01a1.224 1.224 0 01-.833.342h-1.868v12.71a64.931 64.931 0 014.89 19.263l.054.385c.011.053 0 .096 0 .138l-.011.011c.096 1.11.171 2.23.214 3.362h1.655v-1.921a1.826 1.826 0 01-.844-.459 1.79 1.79 0 01-.512-1.238v-8.837c0-.48.203-.907.512-1.227a1.74 1.74 0 011.228-.512h.62v-.064c-.011-.203-.022-.395-.022-.544 0-1.046.193-2.039 1.463-2.039zm.694 2.039c0-.651-.085-1.27-.694-1.27-.598 0-.683.619-.683 1.27 0 .213 0 .362.011.512v.096h1.356v-.096c0-.15.01-.299.01-.512zm-2.37 12.923v1.879h3.353v-1.879h-3.353zm3.737-11.547h-4.122a1 1 0 00-.683.288.99.99 0 00-.278.683v8.837a.968.968 0 00.951.971h4.143a.913.913 0 00.673-.288.935.935 0 00.288-.683v-8.837a.983.983 0 00-.972-.971zm53.169-31.557c-.555.011-1.217.032-1.922.032-.395 0-.47.576-.47 1.377 0 .341.011.661.022 1.003l.032.8h4.559c0-.437.011-.853.022-1.216.032-1.121.042-1.676-.16-1.846-.225-.193-.844-.182-2.083-.15zm-43.868 6.713h-2.413v4.877h2.413v-4.877zm51.653 4.877h3.983c.214 0 .385.181.385.395a.383.383 0 01-.385.384h-7.176v24.716c2.68 0 3.94.022 4.602 1.046.545.854.534 2.284.502 4.952 0 .534-.01 1.11-.01 1.9h13.743l10.882-4.696c.021-.011.032-.021.053-.021l7.283-3.149a64.766 64.766 0 012.83-11.269l-7.55-8.538-5.083 13.457-1.944 5.187a.395.395 0 01-.502.224l-.694-.267c.043.289.054.566.054.833a6.855 6.855 0 01-1.517 4.301 6.843 6.843 0 01-3.865 2.422 7.088 7.088 0 01-1.517.171c-1.74 0-3.214-.587-4.346-1.526a6.925 6.925 0 01-2.189-3.234 6.999 6.999 0 01-.139-3.895 6.65 6.65 0 012.061-3.372l-1.089-.406a.387.387 0 01-.224-.502l1.954-5.186 7.859-20.843-.779-.875c-1.538-1.739-3.941-2.892-6.589-3.148a11.5 11.5 0 00-7.411 1.782l-5.446 3.511h1.879c.214 0 .385.171.385.385v5.261zm-.769-4.877h-2.424v4.877h2.424v-4.877zm-81.382-1.078v-2.102l-1.548.32a80.52 80.52 0 011.548 1.782zm9.12 3.479h-6.429c.438.587.855 1.185 1.271 1.804.011.01.021.032.032.053l.043.053a68.991 68.991 0 013.267 5.411l.118.213a.333.333 0 01.043.107 60.66 60.66 0 011.655 3.33v-10.971zm-6.995-.779h9.632a.398.398 0 00.289-.117h.01a.42.42 0 00.118-.299c0-.203.011-.47.021-.737.011-.213.011-.427.011-.661 0-.619-.064-1.11-.449-1.11h-10.988v1.174a70.01 70.01 0 011.356 1.75zm-12.996-12.081l-.01-.01-4.752-3.319-11.49 7.683 4.623 3.565 11.629-7.919zm265.802-69.901c1.207 0 1.976.672 2.317 1.515.129.33.193.672.193 1.025 0 .341-.064.693-.193 1.024-.341.843-1.11 1.505-2.317 1.505-1.196 0-1.975-.662-2.306-1.505a2.652 2.652 0 01-.203-1.024c0-.342.064-.694.203-1.025.331-.843 1.11-1.515 2.306-1.515zm1.602 1.803c-.224-.576-.758-1.024-1.602-1.024-.833 0-1.367.448-1.602 1.024-.085.224-.128.48-.128.737 0 .256.043.512.128.736.235.576.769 1.025 1.602 1.025.844 0 1.378-.449 1.602-1.025.096-.224.139-.48.139-.736 0-.257-.043-.513-.139-.737zM432.57 114.88c.876 0 1.431.48 1.687 1.099.086.235.139.491.139.737 0 .256-.053.501-.139.736-.256.63-.811 1.11-1.687 1.11-.875 0-1.431-.48-1.687-1.11a1.922 1.922 0 01-.139-.736c0-.246.043-.502.139-.737.256-.619.812-1.099 1.687-1.099zm.972 1.388c-.139-.353-.459-.619-.972-.619-.512 0-.833.266-.972.619a1.286 1.286 0 00-.085.448c0 .16.032.32.085.459.139.341.46.619.972.619.513 0 .833-.278.972-.619.053-.139.085-.299.085-.459 0-.15-.032-.31-.085-.448zM327.631 127.12l-1.238 3.287 2.701 1.003a.394.394 0 01.235.491l-1.858 4.92-.011.011v.032l-8.19 21.685 7.55 8.516a64.945 64.945 0 017.453-14.482l.182-.298c.032-.043.064-.086.107-.118a65.96 65.96 0 017.443-8.9 65.347 65.347 0 015.98-5.283l.064-.064.128-.085a66.337 66.337 0 015.04-3.543l.267-.182c.032-.021.064-.043.107-.053a64.94 64.94 0 0122.756-8.826l.256-.053c.032-.011.075-.011.118-.011l1.121-.192c-.01-2.102.118-4.493 5.959-6.425l16.263-5.08-69.315 11.281a5.38 5.38 0 01-2.456 2.124 4.866 4.866 0 01-.662.245zm-1.025 9.808l-12.515-4.717-13.306 35.27 12.516 4.696 5.168-13.671.011-.032 8.126-21.546zm-20.845 39.166l-1.313-.491a2.966 2.966 0 00-.545-.043c-1.527 0-2.509.833-2.936 1.9a3.745 3.745 0 000 2.668c.427 1.067 1.409 1.889 2.936 1.889 1.538 0 2.51-.822 2.937-1.889.171-.416.246-.875.246-1.334 0-.459-.075-.918-.246-1.334a2.937 2.937 0 00-1.079-1.366zm-3.054-1.153l-2.584-.971c-1.143.897-1.847 2.038-2.146 3.244a6.216 6.216 0 00.128 3.479 6.253 6.253 0 001.943 2.882c1.004.822 2.307 1.334 3.855 1.334.47 0 .919-.043 1.357-.139a6.09 6.09 0 003.427-2.156 6.136 6.136 0 001.346-3.82 5.96 5.96 0 00-.107-1.142l-2.605-.971c.085.149.16.32.234.491a4.42 4.42 0 01.31 1.622c0 .544-.107 1.099-.31 1.622-.533 1.334-1.751 2.38-3.652 2.38-1.89 0-3.118-1.046-3.652-2.38a4.495 4.495 0 01-.299-1.622c0-.555.096-1.11.299-1.622.417-1.036 1.239-1.889 2.456-2.231zm10.327-2.038l-12.526-4.706-1.677 4.471 1.346.502.01.01h.022l4.421 1.665a3.74 3.74 0 011.516.566l4.25 1.601h.011l.95.362 1.677-4.471zm.704 12.742c1.624 0 2.67.897 3.129 2.039.182.448.267.928.267 1.398 0 .469-.085.949-.267 1.387-.459 1.153-1.505 2.049-3.129 2.049-1.633 0-2.68-.896-3.139-2.049a3.637 3.637 0 01-.267-1.387c0-.47.085-.95.267-1.398.459-1.142 1.506-2.039 3.139-2.039zm2.414 2.327c-.342-.875-1.154-1.558-2.414-1.558-1.27 0-2.071.683-2.424 1.558a3.03 3.03 0 00-.213 1.11c0 .384.075.757.213 1.099.353.886 1.154 1.569 2.424 1.569 1.26 0 2.072-.683 2.414-1.569.139-.342.213-.715.213-1.099a3.01 3.01 0 00-.213-1.11zm1.292-5.272c1.655.939 2.712 2.326 3.246 3.874a7.709 7.709 0 01-1.388 7.385 7.037 7.037 0 01-3.962 2.326l8.49 4.173a66.333 66.333 0 01-.929-11.078c0-1.088.021-2.166.074-3.244-.01-.043-.01-.096-.01-.139l.042-.384c.107-1.867.289-3.724.556-5.549l-6.119 2.636zm-3.353 12.977c1.997-.107 3.556-.971 4.624-2.22a6.929 6.929 0 001.484-3.148 7.03 7.03 0 00-.235-3.49c-.534-1.526-1.655-2.903-3.438-3.724l-10.786 4.663a.436.436 0 01-.192.054h-7.475l16.018 7.865zm19.157-77.073l-2.082 5.293 74.12-12.049c.032-.01.064-.01.096-.01 2.691 0 4.966.651 6.824 1.718 2.114 1.216 3.684 2.999 4.72 5.016a14.477 14.477 0 011.538 6.478c0 2.102-.47 4.151-1.367 5.869a65.71 65.71 0 015.788 3.255h.01l.011.011.011.011a62.864 62.864 0 014.314 2.966l-2.446-14.823-17.812-15.41-3.235.512h-.011l-.01.01-8.373 1.324h-.01l-41.647 6.595h-.021l-.022.011-8.35 1.323h-.032l-12.014 1.9zm-20.097 3.18l11.319 4.461c.919.363 1.88.405 2.777.181h.011a4.51 4.51 0 00.726-.256 4.539 4.539 0 002.178-1.953l.011-.01v-.011c.096-.171.181-.352.256-.544l1.933-4.91-19.211 3.042zm120.177 14.162l3.321-.545-.726-5.314-3.47.533.875 5.326zm3.428.224l-3.3.533 1.132 6.873a64.875 64.875 0 013.738 4.109l-1.57-11.515zm-5.126-5.784l-.01-.032v-.022l-3.204-19.433-.011-.032-1.174-7.14-4.613.726 5.51 33.382.203.138c.042.032.085.064.117.118l.011.01a67.727 67.727 0 015.2 4.547l-1.025-6.201-.01-.01-.994-6.051zm-105.387-9.808c1.132 0 1.858.63 2.189 1.43a2.639 2.639 0 010 1.921c-.331.811-1.057 1.43-2.189 1.43-1.132 0-1.869-.619-2.189-1.43a2.637 2.637 0 010-1.921c.32-.8 1.057-1.43 2.189-1.43zm1.474 1.708c-.214-.523-.705-.94-1.474-.94s-1.26.417-1.474.94a1.854 1.854 0 00-.128.683c0 .234.043.469.128.683.214.523.705.939 1.474.939s1.26-.416 1.474-.939c.085-.214.128-.449.128-.683 0-.235-.043-.47-.128-.683zm104.437 6.531l.341-.907c1.538-4.024 3.033-7.908 2.499-11.825v-.011c-.427-3.062-3.406-4.087-5.724-4.717l2.884 17.46zm-13.391-20.885c1.356 0 2.232.757 2.616 1.707.149.374.224.769.224 1.163 0 .385-.075.79-.224 1.153-.384.961-1.26 1.708-2.616 1.708s-2.221-.747-2.606-1.708a3.085 3.085 0 01-.224-1.153c0-.394.075-.789.224-1.163.385-.95 1.25-1.707 2.606-1.707zm1.9 1.995c-.277-.683-.907-1.216-1.9-1.216-.983 0-1.623.533-1.89 1.216a2.237 2.237 0 00-.171.875c0 .299.053.598.171.865.267.683.907 1.227 1.89 1.227.993 0 1.623-.544 1.9-1.227a2.444 2.444 0 000-1.74zm-12.696-3.159l16.626 14.386-2.744-16.573-13.882 2.187zm21.101 3.405l13.305-8.847-14.384 2.273 1.079 6.574zM239.575 95.755c4.635-1.131 6.098.598 6.824 3.308.224.833.374 1.761.523 2.732l.075.438 7.624-1.206-7.549-47.416h-7.433c-.021 1.761-.245 3.575-1.003 5.23-.791 1.728-2.157 3.276-4.496 4.386l1.527 7.449a7.96 7.96 0 011.698-.192c1.399 0 2.648.427 3.652 1.238.993.81 1.751 2.006 2.168 3.553.235.886.363 1.9.363 3.02v.011c0 1.879-.192 3.832-1.004 5.614-.79 1.729-2.168 3.265-4.506 4.386l1.537 7.449zm7.539 7.236c1.485 9.263 2.937 18.526 4.411 27.779l7.624-1.206-1.26-7.972-.011-.011v-.01l-3.139-19.786-7.625 1.206zm3.652 27.896l-1.217-7.63-3.823.597a.42.42 0 01-.235-.042l-21.816-11.473a.365.365 0 01-.171-.192l-2.883-7.299-7.507 3.297 4.602 11.654 23.91 12.54 9.14-1.452zm-1.334-8.388c-1.09-6.862-2.168-13.724-3.268-20.586-.149-.939-.288-1.847-.502-2.658-.63-2.347-1.954-3.81-6.258-2.668l-18.078 7.94 2.84 7.204 21.571 11.344 3.695-.576zm5.99-21.301a.193.193 0 01.022.085c.01.032.01.064.01.096l3.129 19.701 34.834-5.4-3.15-19.84c0-.021-.011-.042-.011-.064v-.064l-6.685-42.1h-35.72l7.571 47.586zm3.279 20.639l1.206 7.609 34.823-5.517-1.185-7.492-34.844 5.4zm40.675-27.608c.021.032.021.064.032.096v.096l3.161 19.839 40.931-6.339-8.629-54.31h-41.956l6.461 40.618zm-.684.597l-7.614 1.206 4.411 27.78 7.624-1.206-1.249-7.834v-.01l-3.172-19.936zm-7.731.449l7.614-1.206-6.44-40.458h-7.784l6.61 41.664zm11.725 19.743l1.185 7.46 7.753-1.228h.032l21.24-3.361h.011v-.011h.01L344.781 116l-1.164-7.332-40.931 6.35zm46.73-28.75a.58.58 0 01.042.128.296.296 0 010 .138l3.183 19.968 40.941-6.35-3.203-20.18c0-.012-.011-.033-.011-.054v-.054l-4.175-26.253h-41.978l5.201 32.657zm-.673.63l-7.614 1.205 4.41 27.779 7.625-1.206-4.421-27.779zm-7.742.447l7.614-1.206-5.179-32.528h-7.796l5.361 33.734zm11.757 19.914l1.164 7.3 40.921-6.489-1.143-7.16-40.942 6.349zm67.767-65.056c1.548 0 2.541.854 2.979 1.942.171.416.246.875.246 1.323 0 .449-.075.897-.246 1.313-.438 1.1-1.431 1.953-2.979 1.953-1.549 0-2.542-.854-2.98-1.953a3.45 3.45 0 01-.245-1.313c0-.448.074-.896.245-1.323.438-1.088 1.431-1.942 2.98-1.942zm2.264 2.23c-.331-.821-1.079-1.462-2.264-1.462-1.186 0-1.933.64-2.264 1.462a2.79 2.79 0 00-.192 1.035c0 .353.064.705.192 1.036.331.81 1.078 1.451 2.264 1.451 1.185 0 1.933-.64 2.264-1.451.128-.331.192-.683.192-1.035a2.79 2.79 0 00-.192-1.036zm-144.408-2.23c1.549 0 2.542.854 2.98 1.942a3.514 3.514 0 010 2.636c-.438 1.1-1.431 1.953-2.98 1.953-1.548 0-2.541-.854-2.979-1.953a3.45 3.45 0 01-.246-1.313c0-.448.075-.896.246-1.323.438-1.088 1.431-1.942 2.979-1.942zm2.264 2.23c-.331-.821-1.078-1.462-2.264-1.462-1.185 0-1.932.64-2.263 1.462a2.77 2.77 0 00-.193 1.035c0 .353.064.705.193 1.036.331.81 1.078 1.451 2.263 1.451 1.186 0 1.933-.64 2.264-1.451a2.873 2.873 0 000-2.07zM399.488 78.36c.01.032.021.074.032.106v.118l3.203 20.148 39.65-6.147-3.203-20.255-.011-.01v-.022l-2.958-18.687h-40.654l3.941 24.749zm-.684.608l-7.614 1.206 4.411 27.779 7.624-1.206-4.421-27.78zm-7.731.448l7.603-1.206-3.908-24.599h-7.796l4.101 25.805zm11.779 20.074l1.131 7.14 18.111-2.871h.032l5.35-.854h.022l16.114-2.55-1.121-7.012-39.639 6.147zm44.764-28.12l-7.635 1.205 4.442 28.025.011.032.577 3.671 7.539-1.803-1.719-10.832v-.011l-3.215-20.287zm-7.752.448l7.624-1.206-2.691-17h-7.817l2.884 18.206zm5.713-18.207l5.958 37.555 63.837-9.904-13.252-27.65h-56.543zm6.076 38.313l1.644 10.394 62.278-14.92V82.01l-63.922 9.915zm51.311-38.313l13.22 27.566h17.278l-13.477-27.566h-17.021zm13.391 28.345v5.379l17.342.139v-5.529l-17.342.011zm-273.576-3.66c0-1.057-.118-2.007-.342-2.829-.374-1.387-1.036-2.443-1.901-3.148-.865-.704-1.954-1.067-3.171-1.067-.588 0-1.218.085-1.869.256l-23.194 10.203 5.745 14.546 19.382-8.517.011-.01h.01l.022-.011c2.296-1.035 3.62-2.487 4.367-4.12.758-1.654.94-3.5.94-5.293v-.01zm-29.954 29.123l26.013-11.43-1.516-7.363-19.307 8.484h-.011l-.021.011-7.859 3.458 2.701 6.84zm-2.979-7.555l7.496-3.298-5.745-14.546-7.507 3.298 5.756 14.546zm-6.033-15.272l31.117-13.67-1.516-7.375-24.412 10.736h-.01l-.032.01-7.849 3.458 2.702 6.841zm-2.99-7.556l7.507-3.297-7.945-20.128h-8.81l9.248 23.425zm8.211-3.607l24.529-10.779c2.307-1.035 3.631-2.497 4.378-4.13.705-1.536.908-3.244.93-4.909h-37.664l7.827 19.818zm310.567-20.586l-7.304-14.94H182.829l8.404 14.94h328.368zM238.176 179.904c-2.402 0-3.524.021-3.961.693-.417.662-.406 2.017-.374 4.536l.011 1.9h4.324v-7.129zm52.411.693c-.427-.672-1.559-.693-3.951-.693v7.129h4.325l.011-1.9c.032-2.519.042-3.874-.385-4.536zm-4.72-34.566h-46.922v59.752h46.922v-59.752zm119.547-33.425l-21.368 6.681c-5.2 1.707-5.435 3.756-5.435 5.581 3.108-.459 6.3-.693 9.536-.693 5.927 0 11.661.789 17.118 2.262l.16.032c.032.011.064.021.086.043a63.835 63.835 0 0110.892 4.076c.854-1.611 1.281-3.543 1.281-5.538 0-2.081-.47-4.216-1.441-6.126-.972-1.9-2.446-3.565-4.421-4.706-1.73-.993-3.866-1.601-6.408-1.612zm-263.73 58.813c.353-1.131 1.196-1.664 2.093-1.75.342-.021.694.011 1.025.107.331.107.652.267.919.48.715.577 1.121 1.494.779 2.636l-.01.022c-.353 1.131-1.196 1.664-2.093 1.75a2.78 2.78 0 01-1.025-.107 2.808 2.808 0 01-.919-.48c-.715-.566-1.121-1.494-.779-2.636l.01-.022zm2.157-.981c-.608.053-1.185.427-1.42 1.206l-.011.021c-.234.79.043 1.419.524 1.803.192.161.416.278.651.342.246.075.502.107.748.085.608-.053 1.185-.427 1.42-1.206l.011-.021c.234-.79-.043-1.419-.524-1.803a1.722 1.722 0 00-.651-.342 1.953 1.953 0 00-.748-.085zm-9.6 13.318c-.373-1.131.022-2.07.716-2.657a3.16 3.16 0 01.907-.502 2.792 2.792 0 011.026-.128c.907.054 1.772.577 2.146 1.719.363 1.131-.021 2.07-.715 2.646a2.716 2.716 0 01-.908.502c-.331.106-.673.16-1.025.128-.908-.054-1.773-.576-2.147-1.708zm1.207-2.059c-.47.394-.726 1.035-.47 1.814.256.79.844 1.152 1.463 1.195.246.011.502-.021.737-.107.235-.074.459-.192.651-.352.47-.395.726-1.035.47-1.825-.256-.789-.843-1.142-1.463-1.184a1.907 1.907 0 00-.737.096 1.946 1.946 0 00-.651.363zm-.16 16.573c-.961-.704-1.186-1.697-.961-2.572a2.81 2.81 0 011.206-1.633c.769-.48 1.784-.555 2.745.15.961.715 1.185 1.697.961 2.572a2.942 2.942 0 01-.449.939 2.945 2.945 0 01-.758.704c-.779.47-1.783.545-2.744-.16zm-.214-2.38c-.16.598 0 1.27.673 1.761.662.491 1.356.448 1.879.118a1.947 1.947 0 00.865-1.174c.15-.587 0-1.27-.672-1.751-.662-.501-1.357-.448-1.88-.128-.203.128-.395.31-.544.502a2.05 2.05 0 00-.321.672zm45.395.299c.32 1.153-.117 2.06-.844 2.604a2.685 2.685 0 01-1.954.534c-.907-.096-1.74-.662-2.061-1.815-.309-1.152.118-2.07.844-2.614.278-.203.598-.363.929-.448a2.645 2.645 0 011.036-.086c.897.107 1.74.673 2.05 1.825zm-1.303 1.996c.492-.374.78-1.003.566-1.793-.224-.8-.79-1.195-1.399-1.259a1.917 1.917 0 00-1.409.384c-.491.363-.79.992-.566 1.793.213.8.779 1.184 1.399 1.259.245.032.502 0 .737-.064.245-.064.469-.171.672-.32zm.588-17.673c.961.715 1.185 1.697.961 2.583a2.99 2.99 0 01-.449.928c-.213.278-.47.523-.758.704-.78.47-1.783.545-2.744-.16-.961-.715-1.186-1.696-.961-2.572a2.94 2.94 0 01.448-.939c.214-.277.47-.512.758-.693.78-.481 1.784-.555 2.745.149zm.213 2.38c.16-.587 0-1.27-.673-1.761-.662-.491-1.356-.438-1.879-.117a2.022 2.022 0 00-.545.501 1.962 1.962 0 00-.32.673c-.16.597 0 1.269.673 1.76.662.491 1.356.449 1.879.118a1.966 1.966 0 00.865-1.174zm-24.571-17.342c.961-.715 1.965-.651 2.744-.182.288.182.555.427.758.705.214.277.374.587.459.928.235.875.011 1.857-.939 2.572-.951.715-1.965.651-2.745.182a2.81 2.81 0 01-.758-.705 2.75 2.75 0 01-.459-.918c-.235-.885-.011-1.867.94-2.582zm2.338.48c-.523-.32-1.217-.363-1.879.128-.662.502-.812 1.174-.652 1.772.065.235.182.469.321.661.16.203.342.374.555.502.523.32 1.217.363 1.88-.128.662-.502.811-1.174.651-1.772a1.914 1.914 0 00-.32-.661 1.916 1.916 0 00-.556-.502zm12.387 3.01c1.197 0 1.965.661 2.307 1.504v.022c.128.32.192.651.192.992 0 .342-.064.694-.192 1.014-.342.843-1.11 1.505-2.307 1.505-1.185 0-1.954-.662-2.295-1.505l-.011-.021a2.9 2.9 0 01-.182-.993c0-.341.064-.693.193-1.014.341-.843 1.11-1.504 2.295-1.504zm1.592 1.793c-.235-.577-.759-1.025-1.592-1.025-.822 0-1.356.448-1.58 1.025a1.83 1.83 0 00-.139.725c0 .246.043.491.128.715l.011.011c.224.576.758 1.024 1.58 1.024.833 0 1.357-.448 1.592-1.024a2.007 2.007 0 00.01-1.441l-.01-.01zm-14.192 1.163c8.244 0 13.519 4.514 15.836 10.288a19.4 19.4 0 011.346 7.096c0 2.423-.46 4.856-1.346 7.097-2.317 5.774-7.592 10.288-15.836 10.288s-13.53-4.514-15.837-10.288a19.175 19.175 0 01-1.345-7.097c0-2.422.448-4.855 1.345-7.096 2.307-5.774 7.593-10.288 15.837-10.288zm15.121 10.576c-2.211-5.507-7.251-9.808-15.121-9.808-7.881 0-12.921 4.301-15.132 9.808a18.45 18.45 0 00-1.281 6.808c0 2.338.427 4.664 1.281 6.809 2.211 5.507 7.251 9.808 15.132 9.808 7.87 0 12.91-4.301 15.121-9.808a18.452 18.452 0 001.281-6.809 18.45 18.45 0 00-1.281-6.808zm-15.121-3.181c4.73 0 7.774 2.594 9.109 5.913.512 1.291.768 2.689.768 4.076 0 1.398-.256 2.786-.768 4.077-1.335 3.319-4.379 5.923-9.109 5.923-4.742 0-7.785-2.604-9.109-5.923a11.06 11.06 0 010-8.153c1.324-3.319 4.367-5.913 9.109-5.913zm8.393 6.201c-1.228-3.052-4.026-5.432-8.393-5.432-4.379 0-7.176 2.38-8.394 5.432a10.17 10.17 0 00-.715 3.788c0 1.302.235 2.594.715 3.789 1.218 3.052 4.015 5.432 8.394 5.432 4.367 0 7.165-2.38 8.393-5.432a10.38 10.38 0 000-7.577zm-8.415-27.192a30.92 30.92 0 0121.924 9.071c5.606 5.613 9.076 13.35 9.076 21.909s-3.47 16.297-9.076 21.91a30.92 30.92 0 01-21.924 9.071c-8.564 0-16.306-3.468-21.923-9.071-5.606-5.613-9.077-13.351-9.077-21.91s3.471-16.296 9.077-21.909c5.617-5.603 13.359-9.071 21.923-9.071zm21.379 9.626c-5.478-5.475-13.028-8.847-21.379-8.847-8.35 0-15.9 3.372-21.368 8.847a30.045 30.045 0 00-8.852 21.354c0 8.346 3.374 15.891 8.852 21.366 5.468 5.464 13.018 8.847 21.368 8.847 8.351 0 15.901-3.383 21.379-8.847 5.467-5.475 8.853-13.02 8.853-21.366 0-8.345-3.386-15.89-8.853-21.354zm-34.257 41.525c-1.185-.022-1.944-.694-2.275-1.537a3.046 3.046 0 01-.181-1.014c.011-.352.075-.704.213-1.014.342-.843 1.122-1.494 2.318-1.473 1.196.011 1.954.683 2.274 1.537l.011.032a2.774 2.774 0 01-.032 1.996c-.353.832-1.132 1.483-2.328 1.473zm-1.559-1.815c.224.577.747 1.035 1.57 1.035.833.022 1.366-.426 1.601-.992.097-.224.15-.48.15-.726 0-.245-.032-.48-.118-.704l-.01-.032c-.224-.566-.748-1.025-1.57-1.035-.833-.011-1.367.427-1.602.992-.096.235-.139.48-.149.726 0 .256.042.512.128.736zm15.11 5.582c-.993.64-1.975.512-2.723-.011a2.754 2.754 0 01-.715-.736l-.022-.022a2.813 2.813 0 01-.374-.928c-.192-.897.097-1.868 1.09-2.519.993-.661 1.997-.533 2.744-.01.278.192.523.448.716.736.192.288.331.619.405.95.182.896-.096 1.867-1.089 2.518l-.032.022zm-2.285-.641c.502.353 1.185.438 1.869-.01l.021-.011c.683-.448.886-1.12.758-1.718a1.761 1.761 0 00-.288-.683 1.743 1.743 0 00-.513-.534c-.512-.352-1.196-.437-1.89.022-.683.448-.886 1.12-.758 1.718.053.235.149.469.278.672l.01.011c.139.213.31.395.513.533zm16.007-4.14c-.438 1.088-1.324 1.558-2.232 1.568-.341 0-.683-.064-1.014-.192a2.66 2.66 0 01-.876-.544c-.662-.619-.993-1.579-.566-2.689l.011-.022c.438-1.099 1.324-1.568 2.232-1.568.341-.011.683.064 1.014.181.321.128.62.32.876.555.662.619.993 1.569.566 2.689l-.011.022zm-2.232.8c.609-.011 1.218-.331 1.517-1.088l.01-.022c.299-.768.075-1.419-.373-1.846a1.997 1.997 0 00-.63-.384 1.772 1.772 0 00-.737-.139c-.609 0-1.218.331-1.517 1.089l-.01.01c-.299.779-.075 1.43.373 1.846.182.171.396.31.63.395.235.096.492.139.737.139zm-12.163-47.49a27.48 27.48 0 0119.489 8.068c4.976 4.984 8.062 11.867 8.062 19.465 0 7.61-3.086 14.493-8.062 19.477a27.516 27.516 0 01-19.489 8.057c-7.603 0-14.491-3.084-19.477-8.057-4.987-4.984-8.074-11.867-8.074-19.477 0-7.598 3.087-14.481 8.074-19.465 4.986-4.984 11.874-8.068 19.477-8.068zm18.934 8.612a26.671 26.671 0 00-18.934-7.844c-7.389 0-14.085 2.999-18.933 7.844-4.848 4.845-7.849 11.536-7.849 18.921a26.638 26.638 0 007.849 18.922c4.848 4.845 11.544 7.844 18.933 7.844a26.671 26.671 0 0018.934-7.844 26.638 26.638 0 007.848-18.922c0-7.385-3-14.076-7.848-18.921zm-30.851-44.406l-5.66 1.334-1.911 13.681 5.734-1.067 1.837-13.948zm-22.756 9.007l-4.763 3.34 3.332 13.415 4.923-3.127-3.492-13.628zm-18.645 18.089l-3.043 4.941 8.35 11.014 3.289-4.813-8.596-11.142zm117.486 29.935l-.822-5.752-13.476-3.106.566 5.806 13.732 3.052zm-7.507-24.471l-3.011-4.973-13.615 2.38 2.776 5.122 13.85-2.529zm-40.098-31.504l-5.67-1.238-7.636 11.515 5.639 1.516 7.667-11.793zm-78.659 79.603l1.816 5.517 13.796.737-1.548-5.625-14.064-.629zm12.377 23.702l3.876 4.28.021.021 12.921-4.93-3.716-4.504-13.102 5.133zm20.332 16.328l5.296 2.412 9.899-9.647-5.189-2.668-10.006 9.903zm26.771 7.023l5.82-.022 4.944-12.902-5.83-.256-4.934 13.18zm27.508-4.942l5.265-2.486-.993-13.778-5.382 2.241 1.11 14.023zm22.618-15.869l3.726-4.461-6.663-12.102-3.951 4.29 6.888 12.273zm13.412-22.454l1.655-5.57-10.935-8.463-1.922 5.506 11.202 8.527zm153.911-39.081c.352-1.131 1.196-1.664 2.093-1.75.342-.021.694.011 1.025.107.331.107.652.267.919.48.715.577 1.121 1.494.779 2.636l-.011.022c-.352 1.131-1.196 1.664-2.093 1.75a2.782 2.782 0 01-1.025-.107 2.813 2.813 0 01-.918-.48c-.716-.566-1.121-1.494-.78-2.636l.011-.022zm2.157-.981c-.609.053-1.185.427-1.42 1.206l-.011.021c-.235.79.043 1.419.523 1.803.193.161.417.278.652.342.245.075.491.107.747.085.609-.053 1.186-.427 1.421-1.206l.01-.021c.235-.79-.042-1.419-.523-1.803a1.722 1.722 0 00-.651-.342 1.978 1.978 0 00-.748-.085zm-9.6 13.318c-.374-1.131.021-2.07.715-2.657.267-.213.577-.384.908-.502a2.79 2.79 0 011.025-.128c.908.054 1.773.577 2.136 1.719.374 1.131-.011 2.07-.705 2.646a2.711 2.711 0 01-.907.502c-.331.106-.684.16-1.026.128-.907-.054-1.772-.576-2.146-1.708zm1.207-2.059c-.47.394-.726 1.035-.47 1.814.256.79.843 1.152 1.463 1.195.245.011.502-.021.737-.107.235-.074.459-.192.651-.352.47-.395.726-1.035.47-1.825-.256-.789-.844-1.142-1.463-1.184a1.905 1.905 0 00-.737.096 1.946 1.946 0 00-.651.363zm-.16 16.573c-.962-.704-1.186-1.697-.962-2.572.086-.331.246-.651.449-.928.203-.278.459-.523.758-.705.769-.48 1.783-.555 2.745.15.961.715 1.185 1.697.961 2.572a2.963 2.963 0 01-.449.939c-.213.277-.47.523-.758.704-.78.47-1.783.545-2.744-.16zm-.214-2.38c-.16.598 0 1.27.662 1.761.673.491 1.367.448 1.89.118a1.966 1.966 0 00.865-1.174c.15-.587-.011-1.27-.673-1.751-.662-.501-1.356-.448-1.879-.128a2.04 2.04 0 00-.545.502 2.067 2.067 0 00-.32.672zm45.395.299c.32 1.153-.118 2.06-.844 2.604a2.784 2.784 0 01-.929.459 2.845 2.845 0 01-1.036.075c-.897-.096-1.73-.662-2.05-1.815-.31-1.152.117-2.07.844-2.614.277-.203.598-.363.929-.448a2.64 2.64 0 011.035-.086c.898.107 1.741.673 2.051 1.825zm-1.303 1.996c.491-.374.78-1.003.566-1.793-.224-.8-.79-1.195-1.41-1.259a1.913 1.913 0 00-1.398.384c-.492.363-.791.992-.566 1.793.213.8.779 1.184 1.398 1.259.246.032.502 0 .737-.064s.47-.171.673-.32zm.587-17.673c.961.715 1.186 1.697.961 2.583-.096.33-.245.651-.448.928-.214.278-.47.523-.769.704-.769.47-1.773.545-2.734-.16-.961-.715-1.185-1.696-.961-2.572.086-.341.246-.661.449-.939.213-.277.47-.512.758-.693.779-.481 1.783-.555 2.744.149zm.214 2.38c.16-.587 0-1.27-.673-1.761-.662-.491-1.356-.438-1.879-.117a2.022 2.022 0 00-.545.501 1.962 1.962 0 00-.32.673c-.16.597 0 1.269.672 1.76.663.491 1.346.449 1.88.118a1.966 1.966 0 00.865-1.174zm-24.572-17.342c.961-.715 1.965-.651 2.745-.182.288.182.555.427.758.705.214.277.363.587.459.928.235.875.022 1.857-.94 2.572-.961.715-1.964.651-2.744.182a2.81 2.81 0 01-.758-.705 2.543 2.543 0 01-.459-.918c-.235-.885-.011-1.867.939-2.582zm2.339.48c-.523-.32-1.217-.363-1.879.128-.663.502-.812 1.174-.652 1.772.064.235.171.469.321.661a1.9 1.9 0 00.555.502c.523.32 1.217.363 1.879-.128.662-.502.812-1.174.652-1.772a1.899 1.899 0 00-.321-.661 1.9 1.9 0 00-.555-.502zm12.387 3.01c1.196 0 1.965.661 2.307 1.504v.022c.128.32.192.651.192.992 0 .342-.064.694-.192 1.014-.342.843-1.111 1.505-2.307 1.505-1.185 0-1.954-.662-2.296-1.505l-.01-.021a2.9 2.9 0 01-.182-.993c0-.341.064-.693.192-1.014.342-.843 1.111-1.504 2.296-1.504zm1.591 1.793c-.235-.577-.758-1.025-1.591-1.025-.822 0-1.356.448-1.58 1.025a1.83 1.83 0 00-.139.725c0 .246.043.491.128.715l.011.011c.224.576.758 1.024 1.58 1.024.833 0 1.356-.448 1.591-1.024.086-.224.128-.47.128-.726 0-.245-.042-.491-.128-.715v-.01zm-14.192 1.163c8.244 0 13.52 4.514 15.837 10.288a19.39 19.39 0 011.335 7.096 19.39 19.39 0 01-1.335 7.097c-2.317 5.774-7.593 10.288-15.837 10.288-8.243 0-13.529-4.514-15.836-10.288a19.175 19.175 0 01-1.345-7.097c0-2.422.448-4.855 1.345-7.096 2.307-5.774 7.582-10.288 15.836-10.288zm15.121 10.576c-2.21-5.507-7.25-9.808-15.121-9.808-7.88 0-12.921 4.301-15.131 9.808a18.451 18.451 0 00-1.282 6.808c0 2.338.428 4.664 1.282 6.809 2.21 5.507 7.251 9.808 15.131 9.808 7.871 0 12.911-4.301 15.121-9.808.855-2.145 1.282-4.471 1.282-6.809 0-2.337-.427-4.663-1.282-6.808zm-15.121-3.181c4.731 0 7.774 2.594 9.099 5.913.523 1.291.779 2.689.779 4.076 0 1.398-.256 2.786-.779 4.077-1.325 3.319-4.368 5.923-9.099 5.923-4.741 0-7.784-2.604-9.108-5.923a10.84 10.84 0 01-.78-4.077c0-1.387.256-2.785.78-4.076 1.324-3.319 4.367-5.913 9.108-5.913zm8.394 6.201c-1.228-3.052-4.026-5.432-8.394-5.432-4.378 0-7.176 2.38-8.404 5.432a10.364 10.364 0 00-.704 3.788c0 1.302.234 2.594.704 3.789 1.228 3.052 4.026 5.432 8.404 5.432 4.368 0 7.166-2.38 8.394-5.432a10.379 10.379 0 000-7.577zm-8.415-27.192c8.564 0 16.306 3.468 21.923 9.071 5.607 5.613 9.077 13.35 9.077 21.909s-3.47 16.297-9.077 21.91c-5.617 5.603-13.359 9.071-21.923 9.071-8.564 0-16.306-3.468-21.923-9.071-5.606-5.613-9.077-13.351-9.077-21.91s3.471-16.296 9.077-21.909c5.617-5.603 13.359-9.071 21.923-9.071zm21.368 9.626a30.08 30.08 0 00-21.368-8.847c-8.351 0-15.9 3.372-21.379 8.847-5.467 5.464-8.852 13.009-8.852 21.354 0 8.346 3.385 15.891 8.852 21.366 5.479 5.464 13.028 8.847 21.379 8.847s15.901-3.383 21.368-8.847c5.478-5.475 8.863-13.02 8.863-21.366 0-8.345-3.385-15.89-8.863-21.354zm-34.246 41.525c-1.186-.022-1.944-.694-2.275-1.537a2.792 2.792 0 01-.181-1.014c.01-.352.074-.704.213-1.014.342-.843 1.121-1.494 2.317-1.473 1.196.011 1.955.683 2.275 1.537l.011.032c.117.31.17.651.17.982-.01.341-.074.694-.202 1.014-.353.832-1.132 1.483-2.328 1.473zm-1.559-1.815c.224.577.747 1.035 1.569 1.035.833.022 1.367-.426 1.602-.992.096-.224.15-.48.15-.726 0-.245-.032-.48-.118-.704l-.011-.032c-.224-.566-.747-1.025-1.569-1.035-.833-.011-1.367.427-1.602.992a2.16 2.16 0 00-.15.726c0 .256.043.512.129.736zm15.11 5.582c-.993.64-1.986.512-2.723-.011a2.772 2.772 0 01-.716-.736l-.021-.022a3.022 3.022 0 01-.384-.928c-.182-.897.096-1.868 1.099-2.519.994-.661 1.997-.533 2.745-.01.277.192.523.448.715.736.193.288.331.619.406.95.182.896-.096 1.867-1.1 2.518l-.021.022zm-2.285-.641c.501.353 1.185.438 1.868-.01l.022-.011c.683-.448.886-1.12.758-1.718a1.945 1.945 0 00-.288-.683 1.755 1.755 0 00-.513-.534c-.513-.352-1.196-.437-1.89.022-.684.448-.886 1.12-.758 1.718.053.235.139.469.277.672l.011.011c.139.213.31.395.513.533zm16.007-4.14c-.438 1.088-1.324 1.558-2.232 1.568-.342 0-.694-.064-1.014-.192a2.66 2.66 0 01-.876-.544c-.662-.619-1.004-1.579-.566-2.689l.011-.022c.437-1.099 1.324-1.568 2.221-1.568.352-.011.694.064 1.014.181.331.128.63.32.887.555.662.619.993 1.569.566 2.689l-.011.022zm-2.232.8c.609-.011 1.217-.331 1.516-1.088v-.022c.31-.768.086-1.419-.363-1.846a2.103 2.103 0 00-.63-.384 1.77 1.77 0 00-.737-.139c-.608 0-1.217.331-1.516 1.089l-.011.01c-.299.779-.074 1.43.374 1.846.182.171.395.31.63.395.235.096.491.139.737.139zm-12.163-47.49a27.435 27.435 0 0119.478 8.068c4.987 4.984 8.073 11.867 8.073 19.465 0 7.61-3.086 14.493-8.073 19.477a27.471 27.471 0 01-19.478 8.057 27.49 27.49 0 01-19.478-8.057c-4.987-4.984-8.073-11.867-8.073-19.477 0-7.598 3.086-14.481 8.073-19.465a27.454 27.454 0 0119.478-8.068zm18.933 8.612a26.669 26.669 0 00-18.933-7.844 26.686 26.686 0 00-18.933 7.844c-4.848 4.845-7.849 11.536-7.849 18.921a26.638 26.638 0 007.849 18.922 26.686 26.686 0 0018.933 7.844c7.4 0 14.096-2.999 18.933-7.844a26.638 26.638 0 007.849-18.922c0-7.385-3.001-14.076-7.849-18.921zm-30.85-44.406l-5.66 1.334-1.911 13.681 5.734-1.067 1.837-13.948zm.801-.16l-1.912 14.482a.384.384 0 01-.31.33l-6.513 1.217c-.054 0-.097.011-.15 0a.39.39 0 01-.331-.427l1.954-13.895a63.74 63.74 0 00-15.623 7.022l3.62 14.109a.371.371 0 01-.149.448L352 152.743a.387.387 0 01-.118.054.39.39 0 01-.469-.278l-3.364-13.606a64.812 64.812 0 00-12.761 13.564l8.906 11.557c.107.129.117.31.021.459l-3.737 5.475a.463.463 0 01-.096.107.401.401 0 01-.545-.075l-8.468-11.174a63.79 63.79 0 00-6.909 20.405l13.06 6.51a.404.404 0 01.224.406l-.982 6.552a.288.288 0 01-.033.139.392.392 0 01-.523.171l-12.483-6.35a77.175 77.175 0 00-.054 2.721c0 5.721.748 11.27 2.147 16.553l14.608.651c.16.01.31.117.353.288l1.772 6.382c.011.042.022.096.011.138a.368.368 0 01-.395.363l-14.021-.736a64.486 64.486 0 009.771 16.766l13.594-5.326c.16-.053.331-.021.438.118l4.207 5.112a.264.264 0 01.085.128.379.379 0 01-.224.491l-13.092 5.005a64.986 64.986 0 0015.11 11.067l10.391-10.288a.384.384 0 01.437-.064l5.916 3.041a.395.395 0 01.107.075.386.386 0 01-.01.544l-10.049 9.786a64.205 64.205 0 0019.905 4.259l5.104-13.661c.043-.16.203-.266.374-.266l6.631.288a.213.213 0 01.139.021.38.38 0 01.225.491l-5.009 13.095a63.962 63.962 0 0020.097-4.557l-1.153-14.557c-.021-.171.075-.32.235-.395l6.119-2.54a.514.514 0 01.139-.042.399.399 0 01.416.362l.993 13.981a64.396 64.396 0 0014.705-11.003c.459-.459.907-.929 1.356-1.409l-7.144-12.721a.37.37 0 01.053-.448l4.496-4.877a.295.295 0 01.107-.096.391.391 0 01.523.16l6.76 12.273a64.35 64.35 0 008.916-16.563l-11.639-8.847a.396.396 0 01-.128-.438l2.189-6.264a.249.249 0 01.064-.118.388.388 0 01.544-.074l11.085 8.59a64.45 64.45 0 001.698-14.738c0-1.846-.075-3.681-.225-5.496l-14.256-3.169a.385.385 0 01-.309-.331l-.63-6.606a.296.296 0 010-.139.394.394 0 01.459-.288l13.679 3.159a64.016 64.016 0 00-6.151-17.182l-14.352 2.625a.401.401 0 01-.427-.192l-3.161-5.837c-.021-.043-.042-.086-.042-.128a.374.374 0 01.309-.449c4.592-.8 9.248-1.536 13.818-2.401a65.552 65.552 0 00-7.592-9.135 68.333 68.333 0 00-5.649-5.016l-12.067 8.228a.401.401 0 01-.459-.021l-5.265-4.055c-.032-.032-.053-.064-.075-.096a.39.39 0 01.097-.534l11.661-7.801a64.606 64.606 0 00-16.488-7.215l-7.956 12.231a.39.39 0 01-.438.181l-6.417-1.718a.387.387 0 01-.118-.054.38.38 0 01-.107-.533l7.742-11.686a65.087 65.087 0 00-10.059-.779c-3.791 0-7.507.331-11.116.95zm-23.557 9.167l-4.763 3.34 3.321 13.415 4.933-3.127-3.491-13.628zm-29.142 45.025l-.556 5.518-.01.213 12.312 6.264.854-5.773-12.59-6.275-.01.053zm10.497-26.936l-3.044 4.941 8.351 11.014 3.289-4.813-8.596-11.142zm117.486 29.935l-.822-5.752-13.477-3.106.556 5.806 13.743 3.052zm-7.518-24.471l-3-4.973-13.616 2.38 2.777 5.122 13.839-2.529zm-17.342-20.309l-4.763-3.329-11.49 7.683 4.624 3.565 11.629-7.919zm-22.745-11.195l-5.681-1.238-7.625 11.515 5.638 1.516 7.668-11.793zm-78.67 79.603l1.816 5.517 13.807.737-1.559-5.625-14.064-.629zm12.387 23.702l3.877 4.28.021.021 12.921-4.93-3.716-4.504-13.103 5.133zm20.332 16.328l5.297 2.412 9.899-9.647-5.19-2.668-10.006 9.903zm26.772 7.023l5.82-.022 4.944-12.902-5.841-.256-4.923 13.18zm27.508-4.942l5.254-2.486-.983-13.778-5.382 2.241 1.111 14.023zm22.617-15.869l3.727-4.461-6.663-12.102-3.951 4.29 6.887 12.273z" fill="#000"/></svg>