<svg width="532" height="221" fill="none" xmlns="http://www.w3.org/2000/svg"><path d="M489.256 144.43a11.75 11.75 0 018.316 3.439 11.762 11.762 0 013.437 8.32c0 3.248-1.315 6.188-3.437 8.321a11.697 11.697 0 01-7.797 3.428l11.022 7.886h3.416v-9.457a.38.38 0 01.382-.382h19.221a6.602 6.602 0 004.678-1.952 6.605 6.605 0 001.942-4.681 6.64 6.64 0 00-1.942-4.68 6.63 6.63 0 00-4.678-1.942h-18.383a.392.392 0 01-.361-.245l-13.334-26.002a.175.175 0 01-.043-.074l-5.516-10.751a2.095 2.095 0 01-.106-.212l-9.43-18.382a.225.225 0 01-.053-.085l-2.355-4.585c-1.061-2.218-2.875-3.365-4.774-3.64a6.49 6.49 0 00-2.991.275 6.235 6.235 0 00-3.607 3.1.343.343 0 01-.074.18c-.531 1.178-.711 2.621-.371 4.266v.011c.138.892.275 1.783.403 2.664v.064c1.273 8.936 1.686 17.426 1.474 25.906-.244 9.191-1.23 18.382-2.715 28.157l6.874-.945c1.326-.095 2.482.351 3.394 1.104.785.648 1.39 1.539 1.74 2.515.36.966.467 2.038.276 3.057a4.907 4.907 0 01-1.942 3.11l-5.516 3.651 5.156.307.074-.01a.51.51 0 01.127.021l12.677.743a11.805 11.805 0 01-3.501-2.42 11.73 11.73 0 01-3.448-8.321 11.73 11.73 0 013.448-8.32 11.753 11.753 0 018.317-3.439zM160.039 75.614h6.662a.38.38 0 01.382.383v1.942a.38.38 0 01-.382.382h-6.949a.38.38 0 01-.381-.382v-.01c-.022-.34-.032-.532-.043-.648-.021-.17-.032-.244-.01-.34a.764.764 0 01.074-.244c.053-.117.138-.329.276-.807a.384.384 0 01.371-.275zm6.269.765h-5.993c-.106.329-.17.498-.212.605l-.032.063.042.51h6.195v-1.178zm-6.524 2.706h6.917a.38.38 0 01.382.382v1.942a.38.38 0 01-.382.382h-7.023a.38.38 0 01-.382-.382v-.074c.032-.297.053-.605.075-.913.01-.329.031-.647.031-.955a.38.38 0 01.382-.382zm6.524.764h-6.152l-.022.605-.042.573h6.216V79.85zm-6.831 2.706h7.224a.38.38 0 01.382.382v1.943a.38.38 0 01-.382.382h-7.627a.38.38 0 01-.361-.499c.074-.318.148-.626.212-.923.064-.319.127-.648.18-.966a.385.385 0 01.372-.319zm6.831.765h-6.503c-.042.223-.084.445-.137.668l-.106.51h6.746V83.32zm35.749-.722h9.303a.38.38 0 01.382.382v1.942a.38.38 0 01-.382.382h-9.303a.38.38 0 01-.382-.382V82.98a.38.38 0 01.382-.382zm8.921.764h-8.539v1.178h8.539v-1.178zm-8.921-4.213h9.303a.38.38 0 01.382.382v1.942a.38.38 0 01-.382.382h-9.303a.38.38 0 01-.382-.382V79.53a.38.38 0 01.382-.382zm8.921.764h-8.539v1.178h8.539v-1.178zm-8.921-4.298h9.303a.38.38 0 01.382.382v1.942a.38.38 0 01-.382.382h-9.303a.38.38 0 01-.382-.382v-1.942a.38.38 0 01.382-.382zm8.921.764h-8.539v1.178h8.539v-1.178zm-21.301 6.219h9.304a.38.38 0 01.381.382v1.942a.38.38 0 01-.381.382h-9.304a.38.38 0 01-.381-.382V82.98a.38.38 0 01.381-.382zm8.922.764h-8.54v1.178h8.54v-1.178zm-8.922-4.213h9.304a.38.38 0 01.381.382v1.942a.38.38 0 01-.381.382h-9.304a.38.38 0 01-.381-.382V79.53a.38.38 0 01.381-.382zm8.922.764h-8.54v1.178h8.54v-1.178zm-8.922-4.298h9.304a.38.38 0 01.381.382v1.942a.38.38 0 01-.381.382h-9.304a.38.38 0 01-.381-.382v-1.942a.38.38 0 01.381-.382zm8.922.764h-8.54v1.178h8.54v-1.178zm-21.481 6.219h9.292a.39.39 0 01.393.382v1.942a.39.39 0 01-.393.382h-9.292a.39.39 0 01-.393-.382V82.98a.39.39 0 01.393-.382zm8.91.764H177.5v1.178h8.528v-1.178zm-8.91-4.213h9.292a.39.39 0 01.393.382v1.942a.39.39 0 01-.393.382h-9.292a.39.39 0 01-.393-.382V79.53a.39.39 0 01.393-.382zm8.91.764H177.5v1.178h8.528v-1.178zm-8.91-4.298h9.292a.39.39 0 01.393.382v1.942a.39.39 0 01-.393.382h-9.292a.39.39 0 01-.393-.382v-1.942a.39.39 0 01.393-.382zm8.91.764H177.5v1.178h8.528v-1.178zm-1.368-20.622h-13.249v2.282c.297.467.466.998.498 1.528a3.19 3.19 0 01-.498 1.89v3.8h13.249v-9.5zm-13.249-.774h13.249V11.5h-13.249v43.482zM182.91 5.377h.371c.764.01 1.156.01 1.273-.085.095-.096.095-.467.085-1.22V3.89h-1.729v1.486zm2.492-1.486v.17c.011.987.022 1.475-.339 1.804-.329.297-.827.286-1.793.276h-.36v.785c3.118 0 3.437 0 3.447-3.035h-.955zm1.73-.382c0 4.181-.255 4.181-4.222 4.181v3.036h2.132a.38.38 0 01.382.382v54.148h10.735l-.011-.573c0-.191 0-.382.011-.573V49.729h-3.724a.394.394 0 01-.381-.382c0-1.794 1.474-3.566 3.776-4.86 2.153-1.221 5.049-2.039 8.115-2.039h.021c3.055 0 5.951.818 8.105 2.038 2.302 1.295 3.776 3.067 3.776 4.861 0 .202-.18.382-.382.382h-3.723v12.099h8.21c1.889 0 2.111 1.518 2.111 2.855l-.01.573h6.906a.38.38 0 01.381.382v42.824h.966l7.945-101.08h-3.543a.38.38 0 01-.382-.381V1.843a.38.38 0 01.382-.383h108.996a.38.38 0 01.382.383V7a.38.38 0 01-.382.382h-3.574V73.11h3.479a.37.37 0 01.297.148l18.818 23.71a.36.36 0 01.096.255v22.786h4.413v-8.108c0-2.229 1.251-4.776 3.055-6.718 1.506-1.635 3.416-2.855 5.304-3.163h.021l24.313-3.725h.011l14.013-2.038-.382-2.229a.386.386 0 01.318-.446l6.705-1.135a.392.392 0 01.445.308l.647 3.842c2.079-.35 3.002-.435 3.564.53l36.969-5.412a6.958 6.958 0 011.167-1.624 7.216 7.216 0 012.843-1.783 7.136 7.136 0 013.341-.308c2.133.297 4.169 1.592 5.357 4.065l2.26 4.404h7.68v-4.786a.38.38 0 01.382-.382h2.843a.38.38 0 01.382.382v4.786h8.486c.902 0 1.729.361 2.323.966.594.594.955 1.412.955 2.314v31.924h6.428a.38.38 0 01.382.382v19.91h16.771a7.36 7.36 0 015.219 2.176 7.357 7.357 0 012.164 5.211 7.364 7.364 0 01-2.164 5.222 7.36 7.36 0 01-5.219 2.175h-18.829v9.075h1.772a.39.39 0 01.382.392v7.048a.38.38 0 01-.382.382h-5.707c-.085 5.582-1.984 10.178-5.007 14.073-3.077 3.969-7.309 7.206-11.966 10.04a148.991 148.991 0 01-13.377 7.185c-4.115 1.931-8.433 3.704-12.634 5.052-.965.36-1.686.477-2.174.414-.318-.043-.552-.17-.711-.372-.159-.202-.212-.467-.159-.764.064-.414.329-.934.806-1.528h.011c.923-1.094 1.994-2.335 3.108-3.63 2.917-3.375 6.152-7.121 8.423-10.093-.446-.722-.531-1.433-.054-1.932a196.018 196.018 0 012.822-4.171c4.275-6.177 6.291-9.106 4.816-18.339-.191-1.178-.063-1.804.509-2.165.446-.297 1.125-.34 2.143-.351l-.01-2.579-5.983-.435a.39.39 0 01-.361-.382v-6.75l-5.919-.339-6.344 4.202a.483.483 0 01-.159.064l-71.211 9.839.085 2.939 1.528 1.242a.357.357 0 01.137.34l-.413 3.162a.376.376 0 01-.234.298l-1.771.796-.721 3.077 1.209 1.539a.365.365 0 01.053.382l-1.093 2.972a.38.38 0 01-.307.255l-1.899.382-1.422 2.812.764 1.815a.376.376 0 01-.053.393l-1.824 2.568a.349.349 0 01-.329.159l-1.963-.116-2.132 2.324.244 1.953a.362.362 0 01-.159.361l-2.472 1.974a.365.365 0 01-.382.053l-1.824-.658-2.652 1.708-.202 1.953a.392.392 0 01-.233.319l-2.854 1.369a.415.415 0 01-.371-.021l-1.655-1.072-2.981 1.029-.7 1.836a.382.382 0 01-.297.244l-3.108.595a.402.402 0 01-.361-.117l-1.315-1.444-3.119.361-.986 1.688a.418.418 0 01-.361.191l-3.15.074a.417.417 0 01-.329-.18l-1.05-1.624-3.119-.011-1.019 1.645a.375.375 0 01-.36.181h-3.14a.39.39 0 01-.329-.181l-1.018-1.645h-3.108l-1.019 1.645a.369.369 0 01-.35.181h-3.15a.403.403 0 01-.329-.181l-1.008-1.645h-3.119l-1.007 1.645a.387.387 0 01-.361.181h-3.151a.385.385 0 01-.318-.181l-1.018-1.645h-3.108l-1.019 1.645a.375.375 0 01-.36.181h-3.14a.388.388 0 01-.329-.181l-1.008-1.645h-3.119l-1.018 1.645a.369.369 0 01-.35.181h-3.151a.404.404 0 01-.329-.181l-1.007-1.645h-3.119l-1.008 1.645a.396.396 0 01-.36.181h-3.14a.374.374 0 01-.329-.181l-1.019-1.645h-3.108l-1.018 1.645a.376.376 0 01-.361.181h-3.14a.404.404 0 01-.329-.181l-1.007-1.645h-3.119l-1.018 1.645a.37.37 0 01-.35.181h-3.151a.37.37 0 01-.318-.181l-1.019-1.645h-3.118l-1.008 1.645a.386.386 0 01-.361.181h-3.15a.385.385 0 01-.319-.181l-1.018-1.645h-3.108l-1.018 1.645a.392.392 0 01-.329.181h-3.172a.393.393 0 01-.339-.191l-.998-1.635h-3.118l-1.008 1.645a.397.397 0 01-.361.181h-3.15a.372.372 0 01-.319-.181l-1.018-1.645h-3.119l-1.007 1.645a.397.397 0 01-.361.181h-3.14a.39.39 0 01-.329-.181l-1.018-1.645h-3.108l-1.019 1.645a.369.369 0 01-.35.181h-3.15a.39.39 0 01-.329-.181l-1.008-1.645h-3.119l-1.007 1.645a.397.397 0 01-.361.181h-3.151a.372.372 0 01-.318-.181l-1.018-1.645h-3.108l-1.019 1.645a.369.369 0 01-.35.181h-3.15a.39.39 0 01-.329-.181l-1.018-1.645h-3.109l-1.018 1.645a.369.369 0 01-.35.181h-3.151a.403.403 0 01-.328-.181l-1.019-1.645h-3.108l-1.008 1.645a.395.395 0 01-.36.181h-3.151a.404.404 0 01-.329-.181l-1.007-1.645h-3.119l-1.008 1.645a.386.386 0 01-.361.181h-3.14a.388.388 0 01-.328-.181l-1.019-1.645h-3.108l-1.018 1.645a.369.369 0 01-.35.181h-3.151a.404.404 0 01-.329-.181l-1.007-1.645-3.13.011-1.05 1.624a.392.392 0 01-.329.18l-3.182-.074a.404.404 0 01-.318-.191l-.987-1.688-3.129-.361-1.316 1.444a.39.39 0 01-.36.117l-3.119-.595a.357.357 0 01-.287-.244l-.7-1.836-2.98-1.019-1.655 1.062a.379.379 0 01-.382.01l-2.854-1.369a.351.351 0 01-.212-.308l-.212-1.953-2.652-1.708-1.846.668a.397.397 0 01-.36-.063l-2.483-1.985a.37.37 0 01-.138-.371l.287-2.272-74.797 7.005h-.02l-3.64.35a.399.399 0 01-.424-.35l-.307-4.128H59.04a.38.38 0 01-.382-.383v-1.623H43.564l-1.75 1.401a.361.361 0 01-.234.074H31.047L7.55 219.783c-.997.68-2.143.818-3.193.563a4.694 4.694 0 01-1.708-.807 4.757 4.757 0 01-1.273-1.411c-.785-1.338-.87-3.067.382-4.67l7.84-10.104a.393.393 0 01.307-.148h2.843l9.558-68.72a.35.35 0 01.138-.276v-.011l.01-.011h.01l.011-.01h.011l.01-.011.032-.01v-.011l21.513-10.709a4.062 4.062 0 012.005-.552 3.41 3.41 0 011.634.404c.488.265.923.668 1.22 1.188.318.542.498 1.21.498 2.006v10.518c0 .637-.116 1.316-.403 1.921-.254.52-.636.976-1.188 1.295l-4 2.398v6.018l14.512 5.147a.391.391 0 01.234.488l-1.93 4.458 3.871.605 1.125-1.942a.377.377 0 01.328-.191h3.3l3.84-6.793a.374.374 0 01.487-.17l.87.361 15.615-17.501v-62.13c0-2.822 2.44-2.918 4.01-2.907a2.971 2.971 0 01.87-1.932 2.965 2.965 0 012.11-.87h49.179l19.455-21.82a.394.394 0 01.531-.043l.01.01.011.011.01.01 7.797 7.112a.381.381 0 01.021.53l-2.779 3.131 3.363 3.004V11.108a.38.38 0 01.382-.382h2.142V3.89h-3.84a.389.389 0 01-.381-.393l-.022-.806c0-1.157.191-2.473 1.857-2.473h14.511c1.655 0 1.846 1.316 1.846 2.473 0 .265-.01.53-.01.796v.02zm-17.429-.393h16.665l.01-.424c0-.796-.116-1.71-1.082-1.71h-14.511c-.976 0-1.093.914-1.093 1.71l.011.424zm12.432 7.61V3.89h-8.2v6.835h8.2zM170.732 58.4c-.011-.021-.022-.032-.032-.053a1.984 1.984 0 00-.35-.382l-3.575-3.205-.902 1.008c.212.18.425.36.647.541.329.266.647.541.955.817 1.432 1.274 2.419 2.59 1.114 4.044l-4.18 4.68a.177.177 0 01-.053.075l-5.548 6.208c-.01.011-.021.032-.042.043l-8.974 10.05c0 .011-.011.022-.022.032l-.01.01-8.858 9.935c-.021.01-.032.032-.042.042l-.021.021-23.815 26.671c-1.305 1.465-2.716.626-4.137-.647-.319-.276-.616-.563-.913-.849a25.529 25.529 0 00-.594-.573l-1.103 1.241 3.575 3.184a2.343 2.343 0 001.708.595 2.411 2.411 0 001.623-.764l44.139-49.458.053-.053 5.548-6.219.032-.032 3.586-4.022a.99.99 0 00.159-.202c.01-.01.021-.021.032-.042.307-.446.445-.966.413-1.486a2.305 2.305 0 00-.413-1.21zm-.085 6.856V62.37l-2.578 2.887h2.578zm40.331-11.07h-14.055v8.035c.318-.244.742-.393 1.336-.393h12.719v-7.641zm-14.055-.774h14.055v-3.683h-14.055v3.683zm14.448-4.458h3.681c-.202-1.369-1.475-2.738-3.353-3.8-2.047-1.167-4.816-1.93-7.743-1.93-2.939 0-5.707.763-7.755 1.93-1.877 1.062-3.14 2.431-3.352 3.8h18.522zm-14.448 15.24v1.062h24.366v-.053c.011-.138.011-.287.011-.52 0-.977-.138-2.09-1.348-2.09h-21.693c-1.008 0-1.273.774-1.336 1.602zm142.432 8.916V7.383h-6.927V73.11h6.927zm-7.298-66.492h11.266V2.225H235.09v4.393h96.967zM281.34 62.391h42.358c.838 0 1.602-.35 2.153-.903a3.014 3.014 0 00.902-2.165V17.454c0-.838-.34-1.602-.902-2.165a3.036 3.036 0 00-2.153-.891H281.34c-.838 0-1.612.34-2.164.891a3.097 3.097 0 00-.901 2.165v41.87c0 .848.35 1.613.901 2.164a3.073 3.073 0 002.164.903zm42.358.764H281.34a3.791 3.791 0 01-2.705-1.125 3.82 3.82 0 01-1.124-2.707V17.454a3.86 3.86 0 011.124-2.706 3.835 3.835 0 012.705-1.125h42.358c1.05 0 2.005.435 2.705 1.125a3.85 3.85 0 011.114 2.707v41.868a3.812 3.812 0 01-1.114 2.707 3.81 3.81 0 01-2.705 1.125zm-146.58 68.858h9.292a.39.39 0 01.393.382v1.953a.39.39 0 01-.393.382h-9.292a.39.39 0 01-.393-.382v-1.953a.39.39 0 01.393-.382zm8.91.774H177.5v1.179h8.528v-1.179zm3.649-.774h9.304a.38.38 0 01.381.382v1.953a.38.38 0 01-.381.382h-9.304a.38.38 0 01-.381-.382v-1.953a.38.38 0 01.381-.382zm8.922.774h-8.54v1.179h8.54v-1.179zm3.458-.774h9.303a.38.38 0 01.382.382v1.953a.38.38 0 01-.382.382h-9.303a.38.38 0 01-.382-.382v-1.953a.38.38 0 01.382-.382zm8.921.774h-8.539v1.179h8.539v-1.179zm-47.873-11.759h3.596a.38.38 0 01.382.382v1.942a.38.38 0 01-.382.382h-2.08a.355.355 0 01-.307-.169l-1.506-1.921a.366.366 0 01.063-.531.32.32 0 01.234-.085zm3.203.764h-2.418l.922 1.168h1.496v-1.168zm-5.983-4.309h6.376a.38.38 0 01.382.382v1.943a.38.38 0 01-.382.382h-4.859a.37.37 0 01-.307-.16l-1.507-1.931a.366.366 0 01.064-.531.321.321 0 01.233-.085zm5.983.764h-5.198l.923 1.179h4.275v-1.179zm-8.762-4.308h9.155a.38.38 0 01.382.382v1.942a.38.38 0 01-.382.382h-7.638a.358.358 0 01-.308-.17l-1.506-1.921a.366.366 0 01.064-.531.319.319 0 01.233-.084zm8.762.764h-7.977l.923 1.178h7.054v-1.178zm-11.541-4.309h11.934a.38.38 0 01.382.382v1.942a.38.38 0 01-.382.382h-10.417a.357.357 0 01-.308-.17l-1.517-1.921a.377.377 0 01.074-.53.32.32 0 01.234-.085zm11.541.764h-10.756l.923 1.178h9.833v-1.178zm-7.68-25.132h8.073a.38.38 0 01.382.382v1.942a.38.38 0 01-.382.382h-8.816a.38.38 0 01-.328-.573c.116-.286.244-.584.371-.913.117-.307.233-.636.339-.955a.372.372 0 01.361-.265zm7.68.764h-7.404c-.085.244-.17.488-.265.732l-.181.446h7.85V86.79zm-9.154 2.706h9.547a.38.38 0 01.382.383v1.942a.38.38 0 01-.382.382h-10.683a.39.39 0 01-.392-.382c0-.096.032-.18.085-.244.191-.287.382-.595.562-.913.191-.319.371-.637.541-.966a.393.393 0 01.34-.201zm9.154.765h-8.921c-.149.265-.297.54-.446.796l-.233.382h9.6V90.26zm-11.393 2.706h11.786a.38.38 0 01.382.382v1.942a.38.38 0 01-.382.382h-13.483a.38.38 0 01-.382-.382c0-.117.053-.223.138-.286.286-.308.573-.605.838-.924.276-.307.541-.636.806-.966a.372.372 0 01.297-.148zm11.393.764h-11.202c-.233.297-.477.573-.721.86l-.276.308h12.199V93.73zm-14.734 2.707h15.127a.38.38 0 01.382.382v1.942a.38.38 0 01-.382.382h-17.8a.38.38 0 01-.382-.382.39.39 0 01.201-.34c.456-.286.891-.584 1.326-.891.446-.33.881-.669 1.284-.998a.352.352 0 01.244-.096zm14.734.764h-14.596c-.403.34-.807.647-1.21.944l-.328.234h16.134v-1.178zm-19.762 2.706h20.155a.38.38 0 01.382.382v1.942a.38.38 0 01-.382.382h-18.638a.374.374 0 01-.319-.17l-1.506-1.92a.375.375 0 01.064-.531.36.36 0 01.244-.085zm19.762.764h-18.977l.912 1.178h18.065v-1.178zm-17.047 2.706h17.44a.38.38 0 01.382.383v1.942a.38.38 0 01-.382.382h-15.923a.371.371 0 01-.307-.159l-1.507-1.932a.366.366 0 01.064-.531.321.321 0 01.233-.085zm17.047.765h-16.262l.923 1.178h15.339v-1.178zm-14.321 2.706h14.714a.38.38 0 01.382.382v1.942a.38.38 0 01-.382.382h-13.197a.353.353 0 01-.307-.17l-1.517-1.92a.385.385 0 01.063-.531.43.43 0 01.244-.085zm14.321.764h-13.536l.913 1.178h12.623v-1.178zm10.81 20.897h9.292a.39.39 0 01.393.382v1.953a.39.39 0 01-.393.382h-9.292a.389.389 0 01-.393-.382v-1.953a.39.39 0 01.393-.382zm8.91.775H177.5v1.168h8.528v-1.168zm-8.91-4.213h9.292a.39.39 0 01.393.382v1.942a.39.39 0 01-.393.382h-9.292a.39.39 0 01-.393-.382v-1.942a.39.39 0 01.393-.382zm8.91.764H177.5v1.178h8.528v-1.178zm-8.91-4.214h9.292a.39.39 0 01.393.383v1.942a.39.39 0 01-.393.382h-9.292a.39.39 0 01-.393-.382v-1.942a.39.39 0 01.393-.383zm8.91.765H177.5v1.178h8.528v-1.178zm-8.91-4.214h9.292a.39.39 0 01.393.382v1.942a.39.39 0 01-.393.383h-9.292a.39.39 0 01-.393-.383v-1.942a.39.39 0 01.393-.382zm8.91.764H177.5v1.178h8.528v-1.178zm-8.91-4.298h9.292a.39.39 0 01.393.382v1.942a.39.39 0 01-.393.382h-9.292a.389.389 0 01-.393-.382v-1.942a.39.39 0 01.393-.382zm8.91.764H177.5v1.178h8.528v-1.178zm3.649 13.107h9.304a.38.38 0 01.381.382v1.953a.38.38 0 01-.381.382h-9.304a.38.38 0 01-.381-.382v-1.953a.38.38 0 01.381-.382zm8.922.775h-8.54v1.168h8.54v-1.168zm-8.922-4.213h9.304a.38.38 0 01.381.382v1.942a.38.38 0 01-.381.382h-9.304a.38.38 0 01-.381-.382v-1.942a.38.38 0 01.381-.382zm8.922.764h-8.54v1.178h8.54v-1.178zm-8.922-4.214h9.304a.38.38 0 01.381.383v1.942a.38.38 0 01-.381.382h-9.304a.38.38 0 01-.381-.382v-1.942a.38.38 0 01.381-.383zm8.922.765h-8.54v1.178h8.54v-1.178zm-8.922-4.214h9.304a.38.38 0 01.381.382v1.942a.38.38 0 01-.381.383h-9.304a.38.38 0 01-.381-.383v-1.942a.38.38 0 01.381-.382zm8.922.764h-8.54v1.178h8.54v-1.178zm-8.922-4.298h9.304a.38.38 0 01.381.382v1.942a.38.38 0 01-.381.382h-9.304a.38.38 0 01-.381-.382v-1.942a.38.38 0 01.381-.382zm8.922.764h-8.54v1.178h8.54v-1.178zm3.458 13.107h9.303a.38.38 0 01.382.382v1.953a.38.38 0 01-.382.382h-9.303a.38.38 0 01-.382-.382v-1.953a.38.38 0 01.382-.382zm8.921.775h-8.539v1.168h8.539v-1.168zm-8.921-4.213h9.303a.38.38 0 01.382.382v1.942a.38.38 0 01-.382.382h-9.303a.38.38 0 01-.382-.382v-1.942a.38.38 0 01.382-.382zm8.921.764h-8.539v1.178h8.539v-1.178zm-8.921-4.214h9.303a.38.38 0 01.382.383v1.942a.38.38 0 01-.382.382h-9.303a.38.38 0 01-.382-.382v-1.942a.38.38 0 01.382-.383zm8.921.765h-8.539v1.178h8.539v-1.178zm-8.921-4.214h9.303a.38.38 0 01.382.382v1.942a.38.38 0 01-.382.383h-9.303a.38.38 0 01-.382-.383v-1.942a.38.38 0 01.382-.382zm8.921.764h-8.539v1.178h8.539v-1.178zm-8.921-4.298h9.303a.38.38 0 01.382.382v1.942a.38.38 0 01-.382.382h-9.303a.38.38 0 01-.382-.382v-1.942a.38.38 0 01.382-.382zm8.921.764h-8.539v1.178h8.539v-1.178zm-8.921-25.917h9.303a.38.38 0 01.382.382v1.953a.38.38 0 01-.382.382h-9.303a.38.38 0 01-.382-.382v-1.953a.38.38 0 01.382-.382zm8.921.775h-8.539v1.178h8.539V90.26zm-8.921-4.214h9.303a.38.38 0 01.382.382v1.942a.38.38 0 01-.382.383h-9.303a.38.38 0 01-.382-.383V86.43a.38.38 0 01.382-.382zm8.921.764h-8.539v1.178h8.539v-1.178zm-21.301 13.012h9.304c.212 0 .381.18.381.393v1.942a.38.38 0 01-.381.382h-9.304a.38.38 0 01-.381-.382v-1.942c0-.213.169-.393.381-.393zm8.922.775h-8.54v1.178h8.54v-1.178zm-8.922-4.214h9.304a.38.38 0 01.381.382v1.943a.38.38 0 01-.381.382h-9.304a.38.38 0 01-.381-.382v-1.943a.38.38 0 01.381-.382zm8.922.764h-8.54v1.179h8.54v-1.178zm-8.922-4.213h9.304a.38.38 0 01.381.382v1.942a.389.389 0 01-.381.393h-9.304a.389.389 0 01-.381-.393v-1.942a.38.38 0 01.381-.382zm8.922.764h-8.54v1.178h8.54V93.7zm-8.922-4.213h9.304a.38.38 0 01.381.382v1.953a.38.38 0 01-.381.382h-9.304a.38.38 0 01-.381-.382v-1.953a.38.38 0 01.381-.382zm8.922.775h-8.54v1.178h8.54V90.26zm-8.922-4.214h9.304a.38.38 0 01.381.382v1.942a.38.38 0 01-.381.383h-9.304a.38.38 0 01-.381-.383V86.43a.38.38 0 01.381-.382zm8.922.764h-8.54v1.178h8.54v-1.178zm-21.481 13.012h9.292c.212 0 .393.18.393.393v1.942a.39.39 0 01-.393.382h-9.292a.39.39 0 01-.393-.382v-1.942c0-.213.18-.393.393-.393zm8.91.775H177.5v1.178h8.528v-1.178zm-8.91-4.214h9.292a.39.39 0 01.393.382v1.943a.39.39 0 01-.393.382h-9.292a.39.39 0 01-.393-.382v-1.943a.39.39 0 01.393-.382zm8.91.764H177.5v1.179h8.528v-1.178zm-8.91-4.213h9.292a.39.39 0 01.393.382v1.942a.4.4 0 01-.393.393h-9.292a.399.399 0 01-.393-.393v-1.942a.39.39 0 01.393-.382zm8.91.764H177.5v1.178h8.528V93.7zm-8.91-4.213h9.292a.39.39 0 01.393.382v1.953a.39.39 0 01-.393.382h-9.292a.39.39 0 01-.393-.382v-1.953a.39.39 0 01.393-.382zm8.91.775H177.5v1.178h8.528V90.26zm-8.91-4.214h9.292a.39.39 0 01.393.382v1.942a.39.39 0 01-.393.383h-9.292a.39.39 0 01-.393-.383V86.43a.39.39 0 01.393-.382zm8.91.764H177.5v1.178h8.528v-1.178zm7.192 115.397c.022 0 .053-.011.075-.011h.01l1.273-.116h.053l2.26-.213 8.253-.774h.021l.636-.064c.022-.011.053-.011.075-.011h.01l7.627-.711c.022-.01.053-.01.085-.01h.011l.265-.022c.021-.01.043-.01.053-.01l12.146-1.136h.021c.032-.01.053-.01.085-.01l44.893-4.214-.764-7.981a8.465 8.465 0 01-.138-1.475l-.827-8.565-120.962 10.656a.381.381 0 01-.191.01l-23.529 2.08a.366.366 0 01-.19.011l-57.326 5.052 1.464 19.199 74.839-7.015c.021 0 .032-.011.053-.011l11.414-1.061c.021-.011.043-.011.064-.011l35.144-3.3h.085l3.012-.287zm.457.722v9.626a7.484 7.484 0 004.412 1.433h7.405v-12.163l-.085.011a6.622 6.622 0 01-1.602 1.867 7.071 7.071 0 01-3.5 1.476 6.48 6.48 0 01-3.819-.69 6.7 6.7 0 01-2.005-1.635l-.806.075zm-.764 8.978v-8.904l-2.323.223v3.258c0 2.07.838 3.948 2.196 5.307l.127.116zm13.355-10.156v12.237h6.938v-12.885l-6.938.648zm-2.938 1.358c.424-.34.806-.743 1.114-1.189l-9.006.849a5.91 5.91 0 001.41 1.051 5.788 5.788 0 003.374.595 6.241 6.241 0 003.108-1.306zm30.964-1.422v12.301h11.807v-12.301a6.317 6.317 0 01-1.188 1.603 6.68 6.68 0 01-4.721 1.942 6.686 6.686 0 01-4.646-1.879 6.843 6.843 0 01-1.252-1.666zm-.774 12.301v-14.795l-6.959.658v14.137h6.959zm13.345-14.997v14.997h6.386v-14.997h-6.386zm-2.78-.785c.701.01 1.411.01 2.196.01h126.235a25.178 25.178 0 004.635-10.814h-18.489a8.24 8.24 0 01-.913 1.103h-.01a7.606 7.606 0 01-5.4 2.24c-2.111 0-4.02-.86-5.41-2.24l-.01-.01a8.134 8.134 0 01-.902-1.093h-51.024v3.247a.4.4 0 01-.191.329l-5.028 2.898a.453.453 0 01-.17.063l-18.065 1.698h-.021l-27.433 2.569zm.287 4.542a5.801 5.801 0 001.718-3.757h-9.218c-.891.021-1.75.074-2.556.138a5.79 5.79 0 001.76 3.672 5.885 5.885 0 004.116 1.656 5.888 5.888 0 004.18-1.709zm-30.392-1.04v12.28h11.807v-12.301a6.36 6.36 0 01-1.973 2.229 7.107 7.107 0 01-3.342 1.252c-1.199.127-2.429-.042-3.532-.562-1.199-.552-2.26-1.508-2.96-2.898zm9.399 1.582a5.66 5.66 0 002.259-3.354l-11.159 1.05c.626 1.433 1.623 2.388 2.779 2.93a5.99 5.99 0 003.129.488 6.436 6.436 0 002.992-1.114zm30.635-1.603v12.301h11.818v-12.301a6.886 6.886 0 01-1.188 1.603 6.701 6.701 0 01-4.721 1.942 6.677 6.677 0 01-5.909-3.545zm12.581-2.696v14.997h7.373v-14.997h-7.373zm-2.492 3.757a5.801 5.801 0 001.718-3.757h-11.796a5.802 5.802 0 001.719 3.757 5.903 5.903 0 004.179 1.709 5.907 5.907 0 004.18-1.709zm50.674-1.061v12.301h7.404a7.421 7.421 0 004.413-1.444v-10.857a6.605 6.605 0 01-1.199 1.603 6.673 6.673 0 01-4.71 1.942 6.677 6.677 0 01-4.72-1.942 6.27 6.27 0 01-1.188-1.603zm-.775 12.301v-14.997h-6.375v14.997h6.375zm-18.956-12.301v12.301h11.817v-12.301a6.68 6.68 0 01-5.909 3.545 6.697 6.697 0 01-4.72-1.942 6.83 6.83 0 01-1.188-1.603zm-.764 12.301v-14.997h-6.969v14.997h6.969zm33.076-14.997v12.916l.116-.116a7.496 7.496 0 002.207-5.307v-7.493h-2.323zm-2.493 3.757a5.845 5.845 0 001.708-3.757h-11.786a5.802 5.802 0 001.719 3.757 5.886 5.886 0 004.179 1.709 5.927 5.927 0 004.18-1.709zm-19.731 0a5.796 5.796 0 001.718-3.757h-11.796a5.802 5.802 0 001.719 3.757 5.905 5.905 0 004.179 1.709 5.906 5.906 0 004.18-1.709zm-30.402-1.061v12.301h11.817v-12.301a6.68 6.68 0 01-5.909 3.545 6.697 6.697 0 01-4.72-1.942 6.83 6.83 0 01-1.188-1.603zm10.088 1.061a5.801 5.801 0 001.718-3.757h-11.785a5.84 5.84 0 001.708 3.757 5.905 5.905 0 004.179 1.709 5.907 5.907 0 004.18-1.709zm-63.711-52.1h82.137l51.926 6.506a25.929 25.929 0 0115.466 7.472 25.999 25.999 0 017.648 18.467c0 1.337-.106 2.664-.297 3.948 0 .021-.01.042-.01.063a26.004 26.004 0 01-4.954 11.707c-.011.01-.022.032-.032.042a24.67 24.67 0 01-2.355 2.696 25.97 25.97 0 01-18.447 7.652h-.043l-22.17.011a8.338 8.338 0 01-1.963 3.12 8.242 8.242 0 01-5.834 2.43H198.089a8.248 8.248 0 01-5.844-2.43 8.338 8.338 0 01-1.963-3.12l-23.581-.011c-1.867 0-4.254-.329-6.461-.828-2.142-.477-4.126-1.125-5.346-1.804l-11.043 1.04-.286 2.25 2.153 1.719 1.804-.647a.407.407 0 01.35.032l2.97 1.91a.403.403 0 01.17.287l.201 1.921 2.482 1.188 1.613-1.04a.4.4 0 01.35-.042l3.32 1.135a.39.39 0 01.233.234l.69 1.804 2.705.51 1.305-1.423a.403.403 0 01.329-.127l3.5.403h.043v.011h.042v.011h.021v.01h.022l.021.011a.336.336 0 01.148.148l.976 1.667 2.748.063 1.05-1.613a.377.377 0 01.329-.18l3.511-.011a.397.397 0 01.361.181l1.007 1.645h2.748l1.018-1.645a.383.383 0 01.318-.181h3.522a.369.369 0 01.35.181l1.019 1.645h2.747l1.008-1.645a.4.4 0 01.329-.181h3.511a.387.387 0 01.361.181l1.007 1.645h2.758l1.008-1.645a.387.387 0 01.329-.181h3.511a.397.397 0 01.361.181l1.008 1.645h2.747l1.018-1.645a.387.387 0 01.329-.181h3.511a.371.371 0 01.351.181l1.018 1.645h2.747l1.019-1.645a.4.4 0 01.329-.181h3.5a.386.386 0 01.361.181l1.018 1.645h2.748l1.007-1.645a.387.387 0 01.329-.181h3.543c.128 0 .255.064.319.181l1.018 1.645h2.747l1.019-1.645a.381.381 0 01.318-.181h3.522a.369.369 0 01.35.181l1.018 1.645h2.748l1.007-1.645a.402.402 0 01.329-.181h3.511a.397.397 0 01.361.181l1.008 1.645h2.747l1.019-1.645a.386.386 0 01.329-.181h3.511a.394.394 0 01.36.181l1.008 1.645h2.748l1.018-1.645a.383.383 0 01.318-.181h3.522a.369.369 0 01.35.181l1.018 1.645h2.748l1.008-1.645a.4.4 0 01.329-.181h3.511a.384.384 0 01.36.181l1.008 1.645h2.758l1.008-1.645a.387.387 0 01.329-.181h3.511a.369.369 0 01.35.181l1.018 1.645h2.748l1.018-1.645a.383.383 0 01.319-.181h3.521a.369.369 0 01.35.181l1.019 1.645h2.747l1.008-1.645a.4.4 0 01.329-.181h3.511a.387.387 0 01.361.181l1.007 1.645h2.748l1.018-1.645a.402.402 0 01.329-.181h3.511a.397.397 0 01.361.181l1.008 1.645h2.747l1.019-1.645a.381.381 0 01.318-.181h3.511a.377.377 0 01.361.181l1.018 1.645h2.748l1.007-1.645a.402.402 0 01.329-.181h3.511a.397.397 0 01.361.181l1.008 1.645h2.747l1.019-1.645a.384.384 0 01.328-.181h3.512a.37.37 0 01.35.181l1.018 1.645h2.748l1.018-1.645a.383.383 0 01.318-.181l3.543.011h.085l.011.01h.021l.01.011h.022v.011h.021l.01.01h.011v.011h.021v.01h.011l.011.011h.01v.011l.011.01h.01v.011l.022.021h.01v.011h.011v.01l.01.011v.011h.011v.01l1.05 1.613 2.748-.063.976-1.667a.382.382 0 01.286-.191l3.511-.403a.42.42 0 01.329.117l1.305 1.433 2.705-.51.689-1.793a.382.382 0 01.234-.245l3.331-1.135a.36.36 0 01.328.032l1.623 1.05 2.483-1.188.201-1.921a.374.374 0 01.181-.287l2.959-1.91a.359.359 0 01.329-.032l1.825.647 2.153-1.719-.233-1.921a.34.34 0 01.095-.297l2.355-2.568a.342.342 0 01.318-.149l1.931.117 1.591-2.24-.753-1.783a.398.398 0 01.011-.329l1.591-3.131a.367.367 0 01.265-.201l1.899-.382.944-2.59-1.199-1.518a.402.402 0 01-.063-.329l.795-3.428a.398.398 0 01.223-.265l1.761-.796.36-2.728-1.495-1.22a.384.384 0 01-.149-.287l-.095-3.417c-.011-.021-.011-.042-.011-.064v-.032c0-.106.043-.222.138-.297l1.464-1.263-.435-2.717-1.793-.743a.389.389 0 01-.222-.244l-.87-3.014a.405.405 0 01.042-.35l1.114-1.581-1.082-2.526-1.909-.287a.373.373 0 01-.276-.191l-1.294-2.229-.011-.01-.011-.011-.275-.477a.394.394 0 01-.022-.329l.7-1.805-1.654-2.197-1.931.181a.394.394 0 01-.308-.117l-1.188-1.22-.01-.011-.987-1.008a.416.416 0 01-.127-.329l.233-1.921-2.153-1.72-1.793.648a.376.376 0 01-.35-.021l-2.694-1.645a.402.402 0 01-.181-.287l-.244-1.921-2.503-1.136-1.602 1.072a.345.345 0 01-.339.053l-1.899-.605-.075-.031-1.029-.329a.356.356 0 01-.169-.107h-.011v-.01l-.01-.011-.011-.01v-.011l-.011-.011v-.01h-.01v-.011l-.011-.01v-.022l-.01-.01v-.011l-.679-1.804-2.705-.531-1.305 1.422a.37.37 0 01-.34.117l-3.14-.499a.384.384 0 01-.286-.223l-.806-1.761-2.737-.34-1.188 1.486a.379.379 0 01-.361.159l-3.161-.393a.357.357 0 01-.297-.223l-.806-1.761-2.726-.34-1.199 1.486a.389.389 0 01-.361.17l-3.161-.404a.382.382 0 01-.297-.212l-.796-1.762-2.736-.35-1.199 1.486a.389.389 0 01-.361.17l-3.15-.404a.398.398 0 01-.308-.212l-.796-1.762-2.736-.35-1.188 1.497c-.085.106-.223.18-.361.159l-3.161-.393a.4.4 0 01-.297-.223l-.807-1.761-2.736-.34-1.188 1.486c-.085.106-.223.18-.361.159l-3.161-.393a.4.4 0 01-.297-.223l-.806-1.761-2.727-.34-1.198 1.496a.407.407 0 01-.34.149l-3.161-.191a.378.378 0 01-.308-.191l-1.007-1.645h-2.758l-.998 1.624a.398.398 0 01-.339.212h-3.182a.4.4 0 01-.329-.191l-1.008-1.645h-2.758l-1.008 1.634a.385.385 0 01-.329.202h-3.182a.401.401 0 01-.329-.191l-1.008-1.645h-2.758l-.997 1.624a.4.4 0 01-.339.212h-3.183a.403.403 0 01-.329-.191l-1.007-1.645h-2.758l-.998 1.624a.397.397 0 01-.339.212h-3.182a.4.4 0 01-.329-.191l-1.008-1.645h-2.758l-.997 1.624a.403.403 0 01-.35.212h-3.172a.403.403 0 01-.35-.212l-.987-1.624h-2.758l-1.018 1.645a.383.383 0 01-.318.191h-3.183a.403.403 0 01-.35-.212l-.997-1.624h-2.747l-1.019 1.645a.383.383 0 01-.318.191h-3.182a.415.415 0 01-.35-.212l-.997-1.624h-2.748l-1.018 1.645a.385.385 0 01-.319.191h-3.182a.387.387 0 01-.339-.202l-1.008-1.634h-2.748l-1.018 1.645a.387.387 0 01-.329.191h-3.172a.403.403 0 01-.35-.212l-.986-1.624h-2.758l-1.019 1.645a.373.373 0 01-.297.191l-1.559.095h-.074l-1.538.096a.374.374 0 01-.329-.149l-1.199-1.496-2.737.34-.806 1.761a.402.402 0 01-.297.223l-3.161.393a.373.373 0 01-.35-.159l-1.199-1.486-2.737.34-.795 1.761a.403.403 0 01-.308.213l-3.15.403a.381.381 0 01-.361-.159l-1.199-1.497-2.737.35-.795 1.762a.4.4 0 01-.308.212l-3.15.404a.389.389 0 01-.361-.17l-1.199-1.486-2.726.35-.806 1.762a.366.366 0 01-.297.212l-3.161.404a.412.412 0 01-.361-.17l-1.188-1.486-2.737.34-.806 1.761a.357.357 0 01-.297.223l-3.151.393a.387.387 0 01-.371-.159l-1.188-1.486-2.737.34-.796 1.761a.419.419 0 01-.297.223l-3.129.499a.358.358 0 01-.339-.117l-1.316-1.422-2.705.531-.679 1.815a.345.345 0 01-.244.223l-3.002.965a.35.35 0 01-.339-.053l-1.602-1.072-2.503 1.136-.244 1.921a.402.402 0 01-.181.287l-2.694 1.645a.374.374 0 01-.35.021l-1.793-.648-2.153 1.72.233 1.921a.385.385 0 01-.127.329l-2.186 2.239a.39.39 0 01-.307.117l-1.931-.181-1.655 2.197.616 1.571c.01.021.01.032.021.042l.074.192a.395.395 0 01-.032.329l-1.262 2.175c-.011.011-.011.032-.021.043l-.297.509a.418.418 0 01-.276.191l-1.92.287-1.082 2.526 1.114 1.581a.375.375 0 01.042.35l-.87 3.014a.364.364 0 01-.223.244l-1.792.743-.435 2.717 1.474 1.263a.442.442 0 01.128.351l-.266 1.602 7.468 2.388a26.059 26.059 0 017.002-19.082 25.987 25.987 0 0116.993-8.204l52.393-6.411a.154.154 0 01.095 0h4zm3.087.765a5.77 5.77 0 011.379 1.029 6.525 6.525 0 011.686 3.004 6.523 6.523 0 01-.021 3.438c-.414 1.422-1.337 2.728-2.853 3.63v1.507h1.739a.38.38 0 01.382.382v3.152h67.721v-3.152a.38.38 0 01.382-.382h1.729v-1.507c-1.517-.902-2.44-2.208-2.843-3.63a6.638 6.638 0 01-.032-3.438 6.536 6.536 0 011.687-3.004 5.75 5.75 0 011.379-1.029h-72.335zm-6.376 11.101c-1.517-.902-2.44-2.208-2.843-3.63a6.638 6.638 0 01-.032-3.438 6.536 6.536 0 011.687-3.004 5.75 5.75 0 011.379-1.029h-.923l-47.141 5.773a25.903 25.903 0 019.992 3.417 26.24 26.24 0 019.484 9.669l11.478-2.696c.031-.01.063-.021.106-.021h14.702v-3.152a.38.38 0 01.382-.382h1.729v-1.507zm7.214-9.531c-.955-.955-2.281-1.57-3.925-1.57-1.645 0-2.981.615-3.936 1.57a5.924 5.924 0 00-1.464 5.689 5.408 5.408 0 002.111 2.929v-4.617l.011-.063v-.075l.01-.063.011-.064v-.011l.011-.063.01-.064.011-.064.01-.063c.223-1.136.976-1.889 1.889-2.25a3.592 3.592 0 012.652 0c.944.382 1.708 1.167 1.909 2.377l.011.064.01.063v.075l.011.063v.075l.011.063v4.617c1.103-.775 1.792-1.815 2.11-2.929a5.809 5.809 0 00.032-3.046 5.781 5.781 0 00-1.495-2.643zm-1.411 11.038v-7.037l-.011-.053v-.053l-.01-.053-.011-.053v-.042l-.011-.053-.01-.053-.011-.043-.011-.053-.01-.042-.011-.053-.01-.043-.022-.042v-.011l-.01-.042-.021-.043-.011-.042-.021-.043-.021-.042a2.275 2.275 0 00-1.263-1.21 2.811 2.811 0 00-1.039-.191c-.361 0-.722.063-1.051.191l-.021.01c-.647.266-1.188.796-1.379 1.603v.011l-.01.042-.011.043v.053h-.011v.053l-.01.042v.011l-.011.042v.053l-.01.053v.106l-.011.054v6.93h5.039zm2.111 15.93v-15.166h-9.261v15.983l9.261-.817zm-10.025.892v-12.513h-14.66l-24.016 5.646a3.7 3.7 0 01.562 1.974v8.246l38.114-3.353zm10.799-12.513v11.558l43.143-3.8h.063l16.559-.042a.367.367 0 01.297.116l7.659 7.652v-15.484h-67.721zm76.207-16.917c.52.275.976.626 1.379 1.029a6.518 6.518 0 011.687 3.004c.287 1.114.297 2.313-.032 3.438-.403 1.422-1.326 2.728-2.843 3.63v1.507h1.729a.38.38 0 01.382.382v3.152h14.236l11.138 1.178a26.187 26.187 0 019.335-8.586 25.88 25.88 0 019.367-2.982l-45.943-5.752h-.435zm.838 1.57c-.954-.955-2.28-1.57-3.935-1.57-1.634 0-2.97.615-3.925 1.57a5.674 5.674 0 00-1.485 2.643 5.818 5.818 0 00.021 3.046c.318 1.114 1.008 2.154 2.111 2.929v-4.617l.011-.063v-.075l.01-.063.011-.075v-.063l.01-.064.011-.064.021-.063c.223-1.136.976-1.889 1.878-2.25a3.584 3.584 0 012.662 0c.945.382 1.708 1.167 1.91 2.377l.011.064.01.063v.075l.011.063v.075l.01.063v4.628a5.372 5.372 0 002.111-2.94 5.809 5.809 0 00.032-3.046c-.265-.987-.764-1.91-1.496-2.643zm-1.41 11.038v-6.984l-.011-.053v-.053l-.011-.053v-.053l-.01-.053-.011-.042v-.053l-.01-.053-.011-.043-.011-.053c-.191-.807-.742-1.348-1.4-1.613a2.87 2.87 0 00-1.05-.191c-.361 0-.711.063-1.04.191-.657.265-1.209.806-1.4 1.613l-.011.053-.01.043-.011.053v.053l-.01.042-.011.053v.053l-.011.053v.053l-.01.053v6.984h5.039zm2.111 22.606v-21.842h-9.261v21.842h9.261zm.763-18.297v18.297h31.835a16.393 16.393 0 01-.403-3.545c0-3.64 1.241-7.047 3.362-9.764 2.111-2.717 5.092-4.755 8.582-5.636a16.035 16.035 0 013.946-.488c1.422 0 2.801.181 4.095.531a15.767 15.767 0 018.518 5.71c2.079 2.727 3.289 6.102 3.289 9.647 0 1.168-.128 2.356-.404 3.545h9.441c.16-1.157.244-2.335.244-3.534a25.279 25.279 0 00-7.425-17.926 25.3 25.3 0 00-14.575-7.206h-.043l-.509-.064a26.75 26.75 0 00-2.779-.148 25.266 25.266 0 00-12.104 3.067 25.448 25.448 0 00-9.165 8.501.225.225 0 00-.043.064h-.01v.01h-.011a.354.354 0 01-.382.117l-11.233-1.178h-14.226zm-172.591 13.394l.202-1.285-1.411-1.22-3.957-1.656-1.58 3.959 1.177.382.52-1.401a.372.372 0 01.467-.233l4.582 1.454zm-1.315-3.375l.435-2.664a.353.353 0 01.233-.287l1.804-.753.785-2.675-1.125-1.592a.396.396 0 01-.042-.393l1.252-2.918a.378.378 0 01.297-.234l.594-.085h-7.585l-2.673 6.835 2.885 1.21a.376.376 0 01.202.488l-.626 1.571 3.564 1.497zm5.909-12.365l.954-1.634h-39.96a2.81 2.81 0 01-2.79-2.802V131.62l-4.391 4.925v27.222c0 .605.244 1.157.647 1.56.18.181.382.329.615.435l.424.149.053.021c.149.032.308.053.478.053h43.97zm.859-2.409l-.499-1.252a.379.379 0 01.043-.382l1.92-2.547a.392.392 0 01.339-.149l1.963.18 1.941-1.995-.233-1.953a.355.355 0 01.138-.339l2.492-1.985a.365.365 0 01.361-.053l1.856.658 2.377-1.454.244-1.932a.388.388 0 01.222-.318l2.896-1.316a.39.39 0 01.372.032l1.623 1.093 2.662-.849.679-1.804a.38.38 0 01.297-.276l3.119-.616a.389.389 0 01.35.117l1.315 1.433 2.737-.435.796-1.741a.368.368 0 01.307-.255l3.162-.392a.355.355 0 01.339.138l1.22 1.507 2.726-.34.796-1.73a.368.368 0 01.307-.255l3.162-.392a.357.357 0 01.339.138l1.209 1.507 2.737-.34.785-1.73a.418.418 0 01.318-.255l3.162-.392a.394.394 0 01.339.138l1.209 1.517 2.737-.35.785-1.73a.4.4 0 01.318-.254l3.151-.393a.386.386 0 01.35.148l1.209 1.508 2.726-.351.796-1.73a.358.358 0 01.318-.244l3.151-.403a.366.366 0 01.339.149l1.22 1.507 2.726-.351.796-1.73a.356.356 0 01.308-.244l3.161-.403a.39.39 0 01.339.149l1.22 1.517 1.019-.063v-32.445c0-.212.18-.382.381-.382h7.744v-36.18h-63.011c-14.702 16.43-29.426 32.848-44.044 49.351a3.175 3.175 0 01-2.143 1.019 3.189 3.189 0 01-2.28-.796c-1.178-1.072-2.366-2.123-3.554-3.184l-3.235 3.619-.011.021h-.011v.011l-.01.011-.011.01-.021.011-.011.01-.021.011-.011.011h-.021l-.01.01-.022.011h-.031v.01a.42.42 0 01-.35-.084c-.011-.011-.022-.032-.032-.043l-1.326-1.231-8.646 9.69v30.799a2.03 2.03 0 002.026 2.027h39.865zm79.57-22.33l.986-.064.998-1.634a.382.382 0 01.35-.212h3.182c.117 0 .244.063.318.18l1.019 1.645h2.747l.997-1.613a.395.395 0 01.35-.212h3.172c.138 0 .255.063.329.18l1.018 1.645h2.748l.997-1.613a.394.394 0 01.35-.212h3.172c.138 0 .254.063.329.18l1.018 1.645h2.747l1.008-1.624a.39.39 0 01.34-.201h3.182c.127 0 .244.063.318.18l1.019 1.645h2.758l.986-1.613a.395.395 0 01.35-.212h3.183c.127 0 .244.063.318.18l1.018 1.645h2.758l1.008-1.645a.39.39 0 01.329-.18h3.172c.159 0 .286.085.35.212l.997 1.613h2.758l1.008-1.645a.388.388 0 01.328-.18h3.172c.159 0 .287.085.35.212l.997 1.613h2.758l1.008-1.645a.391.391 0 01.329-.18h3.182c.149 0 .276.085.34.212l.997 1.613h2.748l1.018-1.645a.389.389 0 01.329-.18h3.182c.149 0 .276.085.34.212l.997 1.613h2.758l1.008-1.645a.388.388 0 01.328-.18h3.183c.148 0 .276.085.339.212l1.008 1.634 2.769.17 1.22-1.517a.372.372 0 01.35-.138l3.15.392a.384.384 0 01.318.244l.785 1.73 2.737.351 1.21-1.507a.365.365 0 01.339-.149l3.161.403a.358.358 0 01.308.244l.795 1.73 2.737.351 1.209-1.508a.369.369 0 01.34-.148l3.161.393a.4.4 0 01.308.254l.785 1.73 2.737.35 1.209-1.517a.403.403 0 01.35-.138l3.15.392a.418.418 0 01.319.255l.785 1.73 2.737.34 1.209-1.507a.376.376 0 01.35-.138l3.15.392a.418.418 0 01.319.255l.785 1.73 2.737.34 1.209-1.507a.355.355 0 01.339-.138l3.161.392a.368.368 0 01.308.255l.796 1.741 2.737.435 1.315-1.433a.418.418 0 01.361-.117l3.118.616a.41.41 0 01.297.276l.669 1.804.392.127v-21.746H217.449v13.85zm145.371 8.14l1.506.478 1.623-1.093a.39.39 0 01.371-.032l2.896 1.316c.138.064.213.18.223.318l.244 1.932 2.387 1.454 1.846-.658a.363.363 0 01.36.053l2.493 1.985a.36.36 0 01.138.339l-.233 1.953.435.446 5.336-16.45v-20.654h-8.434l-11.191 6.464v22.149zm14.893 9.117l.913.923 1.952-.18a.394.394 0 01.339.149l1.92 2.547a.379.379 0 01.042.382l-.71 1.815.063.106 78.563-10.762c.297-2.016.594-4.001.848-5.965l-39.419-8.787c-.594 1.273-1.973 1.178-3.172.944-.169-.031-.381-.085-.562-.127l-.063-.011-.86 4.32a.39.39 0 01-.445.308l-6.673-1.338a.37.37 0 01-.307-.445l.594-2.993-27.528-6.177v8.278c0 .053-.01.096-.032.149l-5.463 16.864zm4.933 6.463l.923 1.582 1.941.286a.378.378 0 01.297.234l1.263 2.918a.4.4 0 01-.053.393l-1.125 1.592.785 2.675 1.814.753c.127.053.212.17.233.287l.499 3.141a.386.386 0 01-.127.35l-.722.637 70.267-9.721 12.825-8.491a4.167 4.167 0 001.655-2.632 5.185 5.185 0 00-.244-2.664c-.318-.849-.838-1.624-1.517-2.186a4.013 4.013 0 00-2.853-.923l-85.861 11.769zm-206.144 8.342l12.146-2.855a25.584 25.584 0 00-9.091-9.191 25.217 25.217 0 00-12.856-3.512c-.594 0-1.178.021-1.751.053l-.212.021h-.074a25.216 25.216 0 00-16.474 7.96 25.296 25.296 0 00-6.821 17.31c0 .509.011 1.008.042 1.496l6.842 2.186 7.543-.658v-10.167c0-1.029.424-1.974 1.103-2.664l.021-.01a3.718 3.718 0 012.642-1.094h14.267c1.04 0 1.973.425 2.663 1.115l.01.01zm.329 10.953v-8.31c0-.743-.276-1.433-.732-1.953l-.021-.021a1.229 1.229 0 00-.117-.127l-.01-.011a2.973 2.973 0 00-2.122-.881h-14.267c-.817 0-1.56.329-2.101.86l-.021.021a2.996 2.996 0 00-.881 2.112v10.093l20.272-1.783zm153.613 14.731v7.493a8.49 8.49 0 01-.233 1.964l21.937-.011h.043c6.99 0 13.323-2.844 17.906-7.429a25.03 25.03 0 001.824-2.017h-41.477zm-140.385 9.457a7.981 7.981 0 01-.244-1.964v-3.194l-33.425 3.141c1.103.446 2.524.86 4.02 1.199 2.154.489 4.477.807 6.291.807l23.358.011zm162.28-33.007c2.111 0 4.021.859 5.41 2.239v.011a7.576 7.576 0 012.239 5.402 7.616 7.616 0 01-.87 3.534h7.924c.297-1.178.435-2.367.435-3.545 0-3.375-1.157-6.591-3.13-9.18-1.983-2.6-4.794-4.564-8.104-5.434a15.139 15.139 0 00-3.904-.51c-1.305 0-2.567.16-3.766.467-3.309.839-6.152 2.781-8.168 5.36a15.18 15.18 0 00-3.182 9.297c0 1.168.127 2.356.414 3.545h7.924a7.484 7.484 0 01-.87-3.534c0-2.112.849-4.023 2.238-5.413l.011-.011a7.606 7.606 0 015.399-2.228zm4.869 2.78a6.898 6.898 0 00-4.869-2.016 6.88 6.88 0 00-6.884 6.888 6.87 6.87 0 001.071 3.693c.011.011.021.032.032.053.265.403.573.786.912 1.125a6.877 6.877 0 004.869 2.017 6.895 6.895 0 004.869-2.017 7.8 7.8 0 00.913-1.135l.01-.032h.011a6.887 6.887 0 00-.934-8.576zm-62.979 9.128a.366.366 0 01-.202-.329.37.37 0 01.202-.34v-1.783l-8.083-8.087-3.161.01a9.248 9.248 0 012.906 1.964 9.182 9.182 0 012.695 6.516 9.187 9.187 0 01-2.695 6.517 9.203 9.203 0 01-2.949 1.984l6.503-.615 4.784-2.76v-3.077zM65.862 157.654a.305.305 0 01-.117.202l-1.23 2.197 2.864.944 1.623-4.659a.373.373 0 01.488-.233l2.376.827.254-.732c.064-.191.287-.297.488-.233l2.737.955a.374.374 0 01.234.488l-.807 2.335 15.658 5.444a2.946 2.946 0 01-.361-1.422v-4.086l-3.745-1.571a.233.233 0 01-.053-.031l-10.883-4.575a.168.168 0 01-.053-.021l-4.901-2.059-.064-.032-.785-.329-3.723 6.591zm-1.05.308H62.17l-.859 1.496 2.44.393 1.06-1.889zm-8.635 10.082h-.053a3.525 3.525 0 00-.478-.032c-1.4 0-3.479 1.391-5.028 2.431-.838.562-1.527 1.029-1.962 1.157a.296.296 0 01-.138.032h-4.71v13.553H47l11.17-10.953a3.576 3.576 0 001.093-2.569c0-.488-.096-.965-.276-1.401a3.564 3.564 0 00-2.811-2.218zm-.17-.785l1.358-2.25-2.716-1.741-2.121 4.882a.372.372 0 01-.478.202l-7.372-2.611-.01-.01-.86-.298v5.424h4.657c.329-.106.965-.531 1.729-1.051 1.633-1.093 3.83-2.558 5.452-2.558.117 0 .244 0 .361.011zm1.994-1.826l-1.188 1.964a4.13 4.13 0 011.93 1.136 4.385 4.385 0 011.21 2.334l3.246-2.738-2.036-.679-.043-.011-.01-.01h-.011v-.011c-.021 0-.032-.01-.043-.021l-3.055-1.964zm6.047 2.972l-4.02 3.407c-.032 1.051-.446 2.101-1.327 2.961l-11.276 11.07a.37.37 0 01-.265.106h-3.352v4.043c1.729 1.688 3.946 2.876 6.301 3.672 2.98 1.019 6.174 1.412 8.932 1.412H62.7l-.17-2.324a.372.372 0 01.35-.404l3.65-.297a.381.381 0 01.413.35l.138 1.529 57.187-5.041.7-1.879-3.734-1.231-.339 1.04a.386.386 0 01-.478.244l-27.305-9.042c-.498 1.21-1.283 2.112-2.238 2.632-1.05.583-2.302.7-3.585.254l-17.737-6.166-.816 2.335a.378.378 0 01-.488.234l-2.748-.945a.4.4 0 01-.233-.488l.254-.722-2.376-.828a.378.378 0 01-.233-.488l1.814-5.211-.68-.223zm-8.434 1.03c1.04 0 1.698.562 1.995 1.305.116.276.17.573.17.87 0 .308-.054.605-.17.881-.297.733-.955 1.306-1.995 1.306s-1.697-.573-1.994-1.306a2.247 2.247 0 01-.17-.881c0-.297.053-.594.17-.87.297-.743.955-1.305 1.995-1.305zm1.284 1.581c-.18-.456-.615-.817-1.284-.817-.668 0-1.103.361-1.283.817a1.634 1.634 0 00-.106.594c0 .213.032.414.106.595.18.467.615.827 1.283.827.669 0 1.104-.36 1.284-.827a1.566 1.566 0 000-1.189zm-28.355-36.138l5.453 16.918a.43.43 0 01.01.116v51.294h9.038v-64.305a4.014 4.014 0 00-1.177-2.834 4.02 4.02 0 00-2.843-1.189h-10.48zm4.7 68.328v-51.241l-5.496-17.087h-4.72l-9.505 68.328h19.72zm-13.844.764L8.887 218.404l21.916-9.096a.288.288 0 01.17-.042h10.47l1.601-1.274v-4.022H19.4zM8.144 218.128l10.311-14.158h-8.359l-7.733 9.955c-1.03 1.316-.966 2.727-.33 3.821.266.456.637.859 1.072 1.178.425.318.913.562 1.432.679.457.117.934.127 1.411.042a.22.22 0 01.106-.063l1.114-.467c.35-.244.68-.573.976-.987zm35.664-14.53v4.192h14.851v-11.95c-2.737-.032-5.866-.456-8.794-1.443-2.228-.764-4.328-1.858-6.057-3.365v12.566zm15.615 4.585v1.613h4.402l-1.06-13.956h-3.342v12.343zm6.927-13.829l-.138-1.517-2.896.244.18 2.335v.031l1.432 18.796 2.918-.276-1.496-19.581v-.032zm-26.403-57.905c1.04 0 1.707.573 1.994 1.305.117.287.17.584.17.881 0 .297-.053.595-.17.881-.287.732-.955 1.306-1.994 1.306-1.03 0-1.698-.574-1.995-1.306a2.547 2.547 0 01-.17-.881c0-.297.064-.594.17-.881.297-.732.966-1.305 1.995-1.305zm1.283 1.592c-.18-.467-.604-.828-1.283-.828-.669 0-1.104.361-1.284.828a1.6 1.6 0 00-.106.594c0 .202.032.414.106.595.18.467.615.827 1.284.827.678 0 1.103-.36 1.283-.827.074-.181.117-.393.117-.595 0-.201-.043-.414-.117-.594zm2.578 3.683l3.617-2.165c.414-.244.69-.584.88-.966.234-.488.33-1.061.33-1.592v-10.518c0-.658-.149-1.199-.393-1.624a2.433 2.433 0 00-.923-.902 2.725 2.725 0 00-1.273-.307c-.54 0-1.103.148-1.633.456L24.31 134.114h14.713c1.315 0 2.514.541 3.373 1.412l.01.01c.87.86 1.4 2.059 1.4 3.365v2.823zm0 7.726v15.166l.785.287 5.696-13.15-6.481-2.303zm7.203 2.558l-5.697 13.15 6.662 2.356 2.143-4.946c.01-.011.01-.032.021-.043l1.58-3.64.011-.032 1.941-4.478-6.661-2.367zm5.293 7.44l-1.347 3.109 6.142 3.959 2.323-5.943-2.769-.446h-.01l-4.339-.679zm13.833 2.462l1.474-4.256-2.015-.7-1.496 4.287 2.037.669zm1.464-1.9l-.743 2.133 2.026.68 1.846-5.307-2.016-.7-1.113 3.194zm-6.153 8.862l-1.697 4.85 2.026.711.827-2.388.87-2.504-2.026-.669zm-.127-.849h.01l.456.149 2.281.764h.021l.244.085 51.958 17.193 1.793-5.476.01-.011.234-.743-58.153-19.242-2.387 6.114 3.522 1.167h.01zm2.885 1.762l-.838 2.398-1.252 3.577 2.026.701 2.09-6.008-.148-.053-1.878-.615zm25.756-3.036c.34.287.626.627.87.988.488.764.753 1.666.732 2.589l27.368 9.053a.392.392 0 01.244.488l-.244.743 2.026.669 1.74-4.341v-.011l.011-.021v-.01l.615-1.55-2.843-1.189-.021-.01c-.011-.011-.032-.011-.043-.021l-17.534-7.377h-12.92zm-2.164-.275l-17.27-6.007-.901 2.589 21.173 7.015a3.852 3.852 0 00-.615-1.921 3.776 3.776 0 00-1.825-1.485 2.791 2.791 0 01-.562-.191zm-1.283 13.51c.785-.435 1.442-1.189 1.867-2.197l-13.165-4.362-8.242-2.727-1.156 3.322 17.736 6.166c1.06.371 2.09.276 2.96-.202zm33.871-6.697l2.546-6.538h-18.087l15.541 6.538zm2.206 9.34l-3.893-1.284-1.22 3.714 3.755 1.231 1.358-3.661zm19.699 4.33l-5.368-1.719h-.01l-8.285-2.643-.032-.011-4.635-1.475-.52 1.401v.011l-2.334 6.293 21.184-1.857zm-75.104-36.042l4.222 1.772 10.735-12.035.021-.032 3.978-4.458.032-.031 5.134-5.753a.138.138 0 01.032-.042l8.741-9.796-3.172-2.951-4.996 5.604-.01.011-.022.021-5.134 5.752c-.01.022-.021.032-.032.043l-3.967 4.447a.138.138 0 01-.032.042l-15.53 17.406zm4.965 2.09l9.907 4.161v-15.272l-9.907 11.111zm10.671 4.49l3.246 1.358v-21.449l-3.246 3.63v16.461zm18.033-37.274l.011.011.021.011 1.337 1.252 2.97-3.332-7.309-6.528-2.832 3.174 5.802 5.412zm-18.033 12.015l3.246-3.63V68.822c-1.294-.01-3.246.074-3.246 2.144v61.27zm4.01-4.49l4.392-4.935V78.406c0-.764.318-1.465.816-1.974a2.827 2.827 0 011.973-.817h.191V71.9a.38.38 0 01.382-.382h29.193l5.209-5.413a.223.223 0 01.116-.085H93.05c-.615 0-1.167.244-1.57.648a2.205 2.205 0 00-.647 1.57v59.508zm5.155-5.795l4.371-4.882-2.09-1.952a.386.386 0 01-.032-.542l3.32-3.725.011-.011h.011l12.814-14.38c-2.387-2.516-3.808-5.806-4.636-9.35-.816-3.513-1.039-7.26-1.06-10.73H98.014c-.551 0-1.06.233-1.432.594a2.05 2.05 0 00-.594 1.433v43.545zm6.407-10.878l7.288 6.506 26.318-29.483-7.054-6.803-4.816 5.402a.085.085 0 01-.042.042l-.011.01-8.868 9.945-.011.01v.011h-.01l-12.794 14.36zm7.065-34.694c.022 3.428.244 7.121 1.04 10.56.795 3.396 2.143 6.548 4.402 8.947l8.402-9.414c-1.602-1.932-1.57-5.52-1.549-9.043.011-.318.011-.605.011-1.05H109.46zm13.6 27.392l.233.234c.573.541 1.326 1.125 2.016.403l7.213-7.504c.689-.71.106-1.454-.552-2.09a11.976 11.976 0 00-.435-.393l-.074-.074-8.401 9.424zm8.91-9.987l.075.064c.159.138.318.286.456.424.923.881 1.729 1.964.573 3.163l-7.214 7.493c-1.177 1.22-2.281.414-3.097-.371l-.213-.213-10.66 11.951c.201.201.413.392.615.594.307.287.604.584.891.838 1.114.987 2.196 1.677 3.066.701l23.592-26.427-3.49-3.364-4.594 5.147zm-9.441-17.405l-.01 1.05c-.022 3.333-.053 6.718 1.304 8.459l4.572-5.116-4.561-4.393h-1.305zm18.034 15.05l8.401-9.415-3.5-3.364-8.391 9.414 3.49 3.364zm8.91-9.977l8.179-9.17h-6.503l-5.176 5.795 3.5 3.375zm8.869-9.934l4.9-5.498h-6.513l-4.901 5.498h6.514zm5.59-6.262l4.095-4.595c.859-.966.063-1.974-1.051-2.972-.307-.265-.625-.53-.944-.796-.222-.18-.445-.372-.668-.552l-7.945 8.915h6.513zm3.458.764l-4.911 5.498h62.714a.38.38 0 01.382.382v36.562h3.002V66.02H167.39zm-30.879 21.502l8.39-9.413-7.054-6.793-8.391 9.414 7.055 6.792zm8.9-9.976l18.309-20.505 5.527-6.198-7.246-6.612-19.295 21.64-.032.032-4.318 4.84 7.055 6.803zM128.905 80.2l8.391-9.413-4.032-3.885-5.028 5.243c-.021.01-.031.032-.053.042l-3.649 3.8 4.371 4.213zm8.9-9.987l3.744-4.192h-8.136a.28.28 0 01.117.075l4.275 4.117zm-13.971 5.403l3.204-3.333H98.969v3.333h24.865zm82.169 17.978h8.264a.38.38 0 01.381.382V98.9a.389.389 0 01-.381.392h-8.264a.39.39 0 01-.382-.392v-4.925a.38.38 0 01.382-.382zm7.882.764h-7.5v4.16h7.5v-4.16zm65.493 85.967c2.355 0 3.861 1.294 4.53 2.961.254.637.381 1.326.381 2.016s-.127 1.38-.381 2.017c-.669 1.666-2.175 2.961-4.53 2.961-2.355 0-3.872-1.295-4.53-2.961a5.258 5.258 0 01-.392-2.017c0-.69.127-1.379.392-2.016.658-1.667 2.175-2.961 4.53-2.961zm3.819 3.237c-.552-1.38-1.825-2.463-3.819-2.463s-3.267 1.083-3.829 2.463a4.846 4.846 0 00-.319 1.74c0 .595.106 1.189.319 1.73.562 1.391 1.835 2.473 3.829 2.473 1.994 0 3.267-1.082 3.819-2.473a4.775 4.775 0 00.329-1.73c0-.594-.117-1.188-.329-1.74zm-5.75 10.751a9.143 9.143 0 01-4.582-2.494 8.947 8.947 0 01-1.517-1.985l.488 5.009 5.611-.53zm-6.81-11.94a9.185 9.185 0 012.228-3.587 9.217 9.217 0 012.864-1.953l-5.622.021.53 5.519zm14.713-3.046a8.434 8.434 0 00-5.972-2.473 8.415 8.415 0 00-5.972 2.473 8.42 8.42 0 00-2.472 5.975v.138l.127 1.348a8.41 8.41 0 002.345 4.489 8.41 8.41 0 005.972 2.473 8.43 8.43 0 005.972-2.473 8.467 8.467 0 002.472-5.975 8.42 8.42 0 00-2.472-5.975zM246.621 13.623h14.204c.7 0 1.336.287 1.792.754.457.456.743 1.093.743 1.783v80.957c0 .7-.286 1.326-.743 1.793a2.531 2.531 0 01-1.792.743h-20.611l-.202-.01a2.572 2.572 0 01-1.634-.743 2.28 2.28 0 01-.71-1.635l.01-.18 6.407-80.947c.053-.7.34-1.337.796-1.793l.021-.021c.446-.435 1.04-.7 1.719-.7zm14.204.775h-14.204c-.467 0-.87.18-1.178.478l-.01.01a2.098 2.098 0 00-.584 1.306l-6.407 80.956v.117c0 .414.18.807.477 1.093.297.298.711.489 1.157.52l.138.011h20.611a1.77 1.77 0 001.251-.52 1.77 1.77 0 00.52-1.252V16.16a1.79 1.79 0 00-.52-1.253 1.76 1.76 0 00-1.251-.51zm6.874 94.064V7.382h-28.674l-7.945 101.08h36.619zm.774-101.08v101.08h3.84V7.382h-3.84zm4.604 0v101.08h6.651V79.573c0-1.23.499-2.345 1.305-3.152a4.477 4.477 0 013.15-1.305h3.692v-1.624a.39.39 0 01.392-.382h43.397V7.383h-58.587zm-42.389 101.844h-13.239v9.043h70.426v-9.043h-57.187zm57.187-33.346h-3.692a3.697 3.697 0 00-3.691 3.693v28.889h7.383V75.88zm.382 43.153h-70.808v7.599H322.51v-7.599h-34.253zm53.305 9.828h14.013a1.98 1.98 0 011.4.583l.011.011c.35.361.572.849.572 1.39v5.413c0 .541-.222 1.04-.583 1.401l-.011.01c-.36.351-.848.574-1.389.574h-14.013c-.541 0-1.04-.223-1.401-.584l-.01-.011a1.994 1.994 0 01-.573-1.39v-5.413c0-.541.223-1.04.583-1.401l.011-.01a1.97 1.97 0 011.39-.573zm14.013.764h-14.013c-.34 0-.637.138-.86.361-.222.222-.36.53-.36.859v5.413c0 .329.138.637.36.86.223.222.52.36.86.36h14.013c.329 0 .636-.138.859-.36.223-.223.361-.531.361-.86v-5.413c0-.329-.138-.637-.361-.859a1.22 1.22 0 00-.859-.361zm-32.301-10.592v7.599h38.782v-7.599h-38.782zm-29.247-36.148c1.061 0 1.857-.022 2.515-.032 1.697-.043 2.567-.064 3.076.307.594.436.573 1.168.53 2.654-.021.446-.032.966-.032 1.655 0 .361-.137.68-.371.913l-.032.021c-.222.213-.541.35-.88.35-1.05 0-1.846.022-2.504.043-1.707.032-2.567.053-3.086-.318-.584-.435-.563-1.168-.52-2.654.01-.445.021-.965.021-1.655 0-.35.148-.68.382-.913a1.31 1.31 0 01.901-.371zm2.525.732c-.711.01-1.57.032-2.525.032a.553.553 0 00-.36.148.538.538 0 00-.159.372c0 .605-.011 1.188-.021 1.677-.043 1.22-.054 1.814.212 2.016.307.223 1.082.202 2.609.17a83.9 83.9 0 012.525-.043.517.517 0 00.35-.138l.011-.01a.523.523 0 00.159-.372c0-.605.01-1.178.032-1.676.031-1.221.042-1.815-.223-2.006-.297-.223-1.082-.213-2.61-.17zm-5.495-7.005h28.642a.38.38 0 01.382.382v17.724a.38.38 0 01-.382.382h-28.642a.39.39 0 01-.392-.382V76.994a.39.39 0 01.392-.382zm28.26.764h-27.878v16.96h27.878v-16.96zm3.193 22.84h-33.861v18.053h33.861v-18.053zm-33.861-.775h33.861V73.885h-33.861V99.44zm34.625-25.556v44.384h38.782V97.361l-18.627-23.477h-20.155zm39.546 46.888v5.583l9.664-5.583h-9.664zm17.344-18.679c.7.191 1.336.563 1.835 1.072a4.125 4.125 0 011.209 2.908v9.191l18.044-2.621-1.601-13.532-19.487 2.982zm3.044 13.946v3.969h2.376l.255-1.05a.393.393 0 01.456-.287l27.337 6.156.201-.987a.373.373 0 01.446-.298l6.672 1.327c.212.043.35.244.308.446l-.7 3.534c2.238.446 3.097.711 3.161 2.07l38.867 8.67c.488-4.86.817-9.626.944-14.38.213-8.342-.191-16.674-1.41-25.44l-35.346 5.169c.074 1.645-1.358 2.09-2.641 2.313-.202.032-.393.053-.573.085h-.053l.689 4.065a.381.381 0 01-.318.435l-6.704 1.146a.394.394 0 01-.446-.318l-.244-1.454-33.277 4.829zm-9.292 3.969h8.529v-13.935c0-.923-.382-1.762-.987-2.367a3.344 3.344 0 00-2.376-.987h-2.62c-.213 0-.425.011-.637.043l-.095.01h-.022c-1.707.276-3.458 1.412-4.858 2.93-1.687 1.815-2.853 4.16-2.853 6.198v8.108h5.919zm9.292.764v9.075l2.196-9.075h-2.196zm3.055-.318c0 .021 0 .032-.01.053l-2.886 11.95 27.517 6.177 2.599-13.054-26.986-6.081-.234.955zm35.346 17.756v-.011c0-.021.011-.053.032-.074.01-.064.032-.127.042-.191.223-1.136.446-2.144.626-2.993.127-.616.244-1.157.35-1.688.584-2.918.287-3.141-2.259-3.65l-1.825 9.18.074.021c.159.032.34.074.541.117.955.191 2.048.276 2.419-.711zm.838-.212l39.302 8.766c.276-2.165.531-4.298.753-6.41l-38.814-8.661a16.24 16.24 0 01-.276 1.709c-.095.456-.212 1.04-.36 1.698-.17.817-.372 1.773-.605 2.898zm-2.016-12.45l-5.929-1.178-3.533 17.788 5.919 1.178 3.543-17.788zm-6.354-28.538l-13.673 1.995 1.602 13.532 14.352-2.081-2.281-13.446zm12.592 7.163l35.345-5.168c-.116-.754-.233-1.518-.35-2.293-.318-1.57-.212-2.971.202-4.17l-36.311 5.317c.149.498.286 1.146.424 1.974.075.445.17 1.04.266 1.708.116.743.254 1.603.424 2.632zm-4.943-2.738l-.732-4.34v-.011l-.647-3.82-5.962 1.007.382 2.23v.031l2.652 15.623 5.961-1.009-1.654-9.711zm3.5-1.475c-.498-2.93-.859-3.035-3.416-2.61l1.57 9.233.075-.011c.18-.021.371-.053.551-.085 1.029-.17 2.196-.52 1.973-1.815-.191-1.114-.35-2.133-.488-3.014l-.265-1.698zm36.194 58.022c-.01-.021-.01-.042-.01-.053l-.446-1.91-2.302.52 1.92 8.405 2.302-.53-1.464-6.432zm.626-.711l4.031-2.356c1.348-.722 2.695-.51 3.724.191.466.318.87.743 1.177 1.231.308.478.509 1.029.594 1.592.181 1.231-.244 2.547-1.57 3.502a3.84 3.84 0 01-.923.489 3.88 3.88 0 01-1.029.212l-4.89.053.552 2.441a.392.392 0 01-.287.456l-3.055.69a.375.375 0 01-.456-.286l-2.079-9.149a.387.387 0 01.286-.456l3.045-.701a.397.397 0 01.467.297l.413 1.794zm.944 4.15l5.007-.043a3.14 3.14 0 00.817-.18 2.88 2.88 0 00.732-.393c1.072-.764 1.411-1.804 1.273-2.77a3.384 3.384 0 00-.488-1.295 3.293 3.293 0 00-.955-.997c-.816-.552-1.877-.722-2.938-.149l-4.222 2.462.774 3.365zm25.788-61.238c1.443 0 2.376.796 2.78 1.815.159.392.233.817.233 1.241 0 .414-.074.839-.233 1.232-.404 1.018-1.326 1.814-2.78 1.814-1.442 0-2.376-.796-2.779-1.814a3.302 3.302 0 01-.233-1.232c0-.424.074-.849.233-1.241.403-1.019 1.337-1.815 2.779-1.815zm2.069 2.101c-.297-.753-.987-1.337-2.069-1.337-1.082 0-1.771.584-2.068 1.337a2.627 2.627 0 00-.181.955c0 .319.064.648.181.945.297.754.986 1.337 2.068 1.337s1.772-.583 2.069-1.337c.127-.297.18-.626.18-.945 0-.329-.053-.658-.18-.955zm-2.069 8.714c1.454 0 2.376.796 2.78 1.815.159.392.233.817.233 1.231 0 .424-.074.849-.233 1.241-.404 1.019-1.337 1.815-2.78 1.815-.403 0-.774-.063-1.092-.18l4.667 9.095 7.118 5.286V99.749a2.52 2.52 0 00-.732-1.783 2.561 2.561 0 00-1.782-.733h-19.381l8.264 16.101a4.02 4.02 0 01.159-.52c.403-1.019 1.337-1.815 2.779-1.815zm2.069 2.101c-.297-.753-.987-1.337-2.069-1.337-1.082 0-1.771.584-2.068 1.337a2.614 2.614 0 00-.181.945 2.627 2.627 0 00.244 1.103l.043.085c.339.637.997 1.104 1.962 1.104 1.082 0 1.772-.584 2.069-1.337.127-.297.18-.626.18-.955 0-.319-.053-.648-.18-.945zm-22.722 90.679c.021.021.031.042.042.063.18.245.424.489.7.722.34.308.753.584 1.188.817 1.422.754 3.193 1.009 4.424-.18l6.863-13.309c.902-1.751 1.347-2.95 1.326-4.097-.021-1.146-.52-2.303-1.506-4.022l-3.395-5.933c-.965 0-1.591.021-1.888.212-.265.17-.308.584-.17 1.412 1.528 9.531-.551 12.534-4.943 18.891a193.943 193.943 0 00-2.832 4.182l-.043.064c-.222.223-.127.615.159 1.061.022.042.053.074.075.117zm-.276.87c-2.26 2.95-5.442 6.633-8.317 9.966a557.159 557.159 0 00-3.108 3.619c-.392.477-.605.87-.647 1.157-.011.085-.011.148.011.18.031.032.106.064.222.085.361.053.955-.064 1.793-.382h.021c4.169-1.337 8.465-3.11 12.55-5.031a143.716 143.716 0 0013.312-7.142c4.583-2.781 8.741-5.965 11.754-9.849 2.949-3.8 4.805-8.289 4.848-13.755l-16.071-8.522-5.856-.425.011 2.802 3.458 6.039c1.04 1.825 1.57 3.088 1.602 4.394.032 1.295-.446 2.589-1.411 4.457l-6.884 13.341c-.022.042-.043.085-.075.127-1.527 1.518-3.67 1.242-5.357.351a6.962 6.962 0 01-1.336-.913 5.757 5.757 0 01-.52-.499zm20.59-36.721l-16.411-.956v6.336l12.327.913a.24.24 0 01.148.043l16.262 8.617h5.612v-6.283h-5.697a.394.394 0 01-.222-.074l-12.019-8.596zm-.732-71.459v-4.404h-2.079v4.404h2.079zm-14.204 43.015l.774 5.795c.191 1.847-.679 3.258-1.941 4.076a5.07 5.07 0 01-1.899.742 5.117 5.117 0 01-2.047-.084c-1.443-.372-2.705-1.454-3.151-3.365a4.607 4.607 0 01-.106-1.252c.011-.425.096-.839.223-1.231l2.323-5.116-2.853-.212a.38.38 0 01-.35-.414l.275-3.778a.38.38 0 01.414-.35l11.308.849c.212.01.371.191.361.403l-.287 3.778a.37.37 0 01-.403.35l-2.641-.191zm-5.018-.382l-2.408 5.328a3.538 3.538 0 00-.18.998c-.021.339.011.69.085 1.04.371 1.602 1.411 2.494 2.599 2.802a4.15 4.15 0 001.729.074 4.51 4.51 0 001.612-.626c1.04-.679 1.751-1.836 1.591-3.365l-.795-5.932-4.233-.319zm-3.224-1.008l3.002.223h.01l.021.011 7.521.562.223-3.014-10.555-.786-.222 3.004zm7.16-38.356l-.552-5.858c-.191-1.497-1.124-2.452-2.27-2.876a4.307 4.307 0 00-1.686-.234 3.95 3.95 0 00-1.634.446c-1.072.562-1.867 1.645-1.867 3.258 0 .36.042.7.138 1.019.085.329.223.637.392.923l3.501 4.564 3.978-1.242zm-4.763 1.486l-3.352-4.394a4.872 4.872 0 01-.499-1.125 4.728 4.728 0 01-.169-1.231c0-1.942.975-3.258 2.291-3.937a4.73 4.73 0 011.941-.531 4.897 4.897 0 011.994.286c1.401.51 2.536 1.667 2.769 3.492l.53 5.731 2.493-.775a.377.377 0 01.478.245l1.103 3.566a.377.377 0 01-.255.477l-10.671 3.322a.377.377 0 01-.478-.244l-1.103-3.566a.383.383 0 01.255-.478l2.673-.838zm7.86-1.645l-2.556.796h-.011l-.01.011h-.011l-7.362 2.292.881 2.834 9.939-3.099-.87-2.834zm24.335 32.858a.384.384 0 01-.255-.095l-6.46-4.787 12.528 24.41h.615v-19.528h-6.428zm-2.822 15.973a10.989 10.989 0 00-7.775-3.216 10.991 10.991 0 00-7.776 3.216 11 11 0 00-3.214 7.779c0 3.036 1.23 5.785 3.214 7.78a10.991 10.991 0 007.776 3.216c3.034 0 5.781-1.231 7.775-3.216a11.001 11.001 0 003.214-7.78 11 11 0 00-3.214-7.779z" fill="#000"/></svg>