<svg width="161" height="459" fill="none" xmlns="http://www.w3.org/2000/svg"><path d="M106.889 424.658h.675c.41 0 .465.404.465.789l-.009.468c0 .386-.347.45-.721.459h-.41v-1.716zM46.651 204.705a.776.776 0 01.757-.496c.41 0 .665.22.765.496a.886.886 0 010 .707c-.1.284-.355.495-.765.495-.392 0-.648-.211-.757-.495a.886.886 0 010-.707zm.757 1.661c.62 0 1.02-.339 1.184-.78.073-.165.1-.349.1-.523a1.38 1.38 0 00-.1-.533c-.164-.431-.565-.78-1.184-.78-.611 0-1.012.349-1.185.78a1.53 1.53 0 00-.1.533c0 .174.036.358.1.523.173.441.574.78 1.185.78zm-4.795-43.834H38.43v-5.214h4.183v5.214zm-4.183 3.121h4.183v4.774H38.43v-4.774zm4.183-.459H38.43V163h4.183v2.194zm-4.639-8.106v13.568c0 .129.11.23.228.23h4.64a.227.227 0 00.227-.23v-13.568c0-.128-.1-.239-.228-.239h-4.64c-.118 0-.227.111-.227.239zm8.677 157.391a.778.778 0 01.757-.495c.41 0 .665.22.765.495a.897.897 0 010 .707c-.1.285-.355.496-.765.496-.392 0-.648-.211-.757-.487a1 1 0 01-.073-.358.93.93 0 01.073-.358zm.757 1.662c.62 0 1.02-.34 1.184-.78.073-.166.1-.349.1-.524 0-.183-.027-.358-.1-.532-.164-.432-.565-.78-1.184-.78-.611 0-1.012.348-1.185.78a1.57 1.57 0 00-.1.532c0 .175.036.358.1.524.173.44.574.78 1.185.78zM159.68 434.847c-.337.469-.811.762-1.312.817l-11.047.01v-19.177h9.032c.593 0 1.112.247 1.504.633.419.431.693 1.028.775 1.68l1.577 13.577.036.533c0 .789-.219 1.45-.565 1.927zm-60.858 3.195H68.854v-1.909h29.969v1.909zm-1.33 1.221h-.43c-.109 0-.2.083-.218.202l-.164.56h-.857l-.173-.597a.245.245 0 00-.219-.165H94.34a.22.22 0 00-.22.202l-.163.56H93.1l-.173-.597c-.028-.101-.119-.156-.219-.165h-1.094c-.11 0-.21.083-.228.202l-.164.56h-.847l-.173-.597c-.028-.101-.119-.156-.228-.165h-1.085c-.11 0-.21.083-.228.202l-.164.56h-.847l-.174-.597c-.027-.101-.118-.156-.218-.165h-1.094c-.11 0-.21.083-.228.202l-.164.56h-.848l-.173-.597a.257.257 0 00-.228-.165h-1.085a.228.228 0 00-.227.202l-.164.56h-.848l-.173-.597a.255.255 0 00-.219-.165h-1.094a.22.22 0 00-.219.202l-.173.56h-.856l-.174-.597c-.018-.101-.118-.156-.21-.165h-1.093c-.11 0-.21.083-.228.202l-.164.56h-.857l-.164-.597a.255.255 0 00-.218-.165h-1.094c-.11 0-.21.083-.228.202l-.164.56h-.857l-.173-.597c-.028-.101-.119-.156-.219-.165h-1.084a.228.228 0 00-.228.202l-.165.56h-.856l-.173-.597c-.028-.101-.119-.156-.22-.165h-.41v-.762h27.007v.762zm.665 1.056a.243.243 0 00.227.183h1.194c.1 0 .192-.064.22-.165l.154-.532.675.064.1.541c.009.101.1.184.2.193l1.076.101c.1.009.2-.055.237-.147l.191-.523.684.074.091.541c.009.101.1.175.201.193l1.084.101a.24.24 0 00.228-.147l.191-.523.684.064.091.551c.009.101.091.174.201.193l1.084.091c.092.019.192-.045.228-.137l.192-.524.683.065.091.541a.224.224 0 00.201.193l1.085.11c.1.009.191-.055.227-.156l.201-.514.674.064.092.551c.018.092.1.175.2.184l1.085.101c.1.009.2-.046.237-.138l.182-.523.684.064.091.542c.027.101.1.183.2.193l1.085.11c.1 0 .2-.055.237-.156l.191-.514.675.064.091.541c.018.101.1.184.2.193l1.085.101c.1.009.201-.046.237-.147l.191-.523.675.073.091.542c.018.101.1.184.21.184l1.075.11c.1.009.201-.046.237-.147l.192-.523.683.073.091.542c.009.101.101.183.201.193l1.084.101a.223.223 0 00.228-.147l.192-.524.683.065.073.541c.018.092.101.184.201.184l1.075.138c.11.009.201-.046.237-.138l.219-.542.547.055.027.56c0 .101.073.202.173.221l1.039.229a.22.22 0 00.274-.11l.255-.496.319.12-.146.569a.235.235 0 00.101.266l.92.532.018.01v.009h.019l.009.009h.009l.009.009h.018v.009h.092l.019-.009h.027l.009-.009.009-.009h.018v-.009h.009l.01-.01.009-.009h.009l.009-.009v-.009h.009l.456-.459.273.193-.31.541a.252.252 0 00.028.294l.774.771a.218.218 0 00.274.037l.583-.34.192.248-.438.441a.234.234 0 00-.027.275l.528.936c.055.092.155.147.265.12l.629-.175.136.313-.474.284h-.009l-.009.009h-.018l-.009.009-.009.01v.009h-.009l-.028.027v.019l-.009.018-.009.009v.019h-.009v.046l-.009.009v.027l.009.009v.046l.282 1.028v.028l.01.009v.009l.009.019v.009l.009.009v.009l.009.009a.123.123 0 00.064.056l.009.009.018.009.018.009a.18.18 0 00.073.009h.574l.046.404-.428.11a.236.236 0 00-.192.23l.009 1.101c0 .101.055.193.155.221l.465.119-.055.422h-.474c-.1 0-.191.074-.218.175l-.283 1.055c-.027.092.009.212.1.258l.401.229-.145.349-.538-.138a.205.205 0 00-.255.101l-.547.946a.211.211 0 00.036.275l.374.376-.21.267-.474-.276c-.091-.055-.209-.055-.291.028l-.766.78a.222.222 0 00-.036.276l.264.459-.283.211-.392-.386c-.072-.083-.191-.101-.273-.046l-.948.551c-.082.046-.128.156-.109.257l.136.505-.355.138-.255-.459a.24.24 0 00-.265-.101l-1.03.275a.229.229 0 00-.182.23v.468l-.364.046-.128-.469a.224.224 0 00-.219-.192h-1.094c-.1 0-.191.073-.218.165l-.137.514h-.684l-.127-.487a.234.234 0 00-.228-.192h-1.103c-.1 0-.191.073-.219.165l-.136.514h-.884l-.128-.487a.234.234 0 00-.228-.192h-1.103c-.1 0-.191.073-.219.165l-.136.514h-.875l-.137-.487a.234.234 0 00-.228-.192h-1.094c-.109 0-.2.073-.227.165l-.128.514h-.893l-.128-.487a.231.231 0 00-.219-.192h-1.112c-.091 0-.182.073-.218.165l-.128.514h-.893l-.128-.487a.226.226 0 00-.228-.192h-1.093a.246.246 0 00-.228.165l-.137.514h-.875l-.137-.487a.224.224 0 00-.219-.192h-1.102a.246.246 0 00-.228.165l-.128.514h-.884l-.137-.487a.224.224 0 00-.218-.192h-1.103a.246.246 0 00-.228.165l-.128.514h-.884l-.137-.487a.226.226 0 00-.227-.192h-1.094c-.1 0-.201.073-.219.165l-.137.514h-.884l-.137-.487a.226.226 0 00-.227-.192h-1.094c-.1 0-.192.073-.219.165l-.137.514h-.884l-.136-.487a.225.225 0 00-.22-.192h-1.102c-.1 0-.192.073-.219.165l-.136.514h-.885l-.136-.487a.224.224 0 00-.22-.192h-1.102c-.1 0-.191.073-.219.165l-.136.514h-.885l-.136-.487a.224.224 0 00-.219-.192H91.44c-.1 0-.191.073-.219.165l-.136.514H90.2l-.128-.487c-.027-.11-.119-.192-.228-.192H88.76c-.1 0-.191.064-.227.156l-.165.523h-.893l-.146-.487a.217.217 0 00-.218-.192h-1.094c-.1 0-.191.064-.219.165l-.146.514h-.902l-.146-.487c-.009-.11-.11-.192-.219-.192h-1.093c-.1 0-.192.064-.22.165l-.145.514h-.902l-.146-.487a.219.219 0 00-.219-.192h-1.094c-.1 0-.191.064-.218.165l-.146.514h-.903l-.145-.487a.225.225 0 00-.22-.192h-1.093c-.1 0-.191.064-.219.165l-.154.514h-.894l-.146-.487a.227.227 0 00-.227-.192h-1.085c-.1 0-.192.073-.219.165l-.137.514h-.884l-.136-.487a.227.227 0 00-.228-.192h-1.094c-.1 0-.191.073-.219.165l-.136.514h-.885l-.127-.487c-.028-.11-.119-.192-.228-.192H69.72c-.1 0-.191.073-.219.165l-.136.514h-.875l-.137-.487a.225.225 0 00-.219-.192h-1.103c-.1 0-.191.073-.219.165l-.136.514H65.8l-.128-.487a.234.234 0 00-.228-.192h-1.102c-.1 0-.192.073-.22.165l-.136.514h-.875l-.128-.487c-.027-.11-.118-.192-.227-.192h-1.103c-.1 0-.192.073-.22.165l-.136.514h-.875l-.127-.487a.227.227 0 00-.228-.192h-1.094c-.11 0-.2.073-.228.165l-.137.514h-.866l-.136-.487a.234.234 0 00-.228-.192h-1.094c-.1 0-.2.073-.228.165l-.136.514h-.866l-.137-.487a.232.232 0 00-.219-.192h-1.112c-.1 0-.182.073-.219.165l-.136.514h-.875l-.128-.487a.227.227 0 00-.228-.192h-1.093c-.1 0-.192.073-.22.165l-.136.514h-.875l-.137-.487a.225.225 0 00-.218-.192h-1.103c-.1 0-.2.073-.219.165l-.137.514h-.875l-.136-.487a.225.225 0 00-.22-.192H45.53c-.1 0-.191.073-.219.165l-.136.514h-.739l-.127-.487c-.028-.11-.119-.192-.228-.192h-1.103c-.1 0-.192.073-.219.165l-.137.514h-.701l-.128-.487a.227.227 0 00-.228-.192h-1.084c-.1 0-.192.073-.22.165l-.127.496-.364-.046v-.468a.219.219 0 00-.174-.221l-1.039-.284a.232.232 0 00-.264.101l-.264.459-.356-.129.137-.505a.236.236 0 00-.1-.266l-.948-.551a.222.222 0 00-.274.046l-.4.386-.283-.202.255-.45a.215.215 0 00-.018-.294l-.775-.78a.23.23 0 00-.274-.028l-.483.276-.21-.267.375-.376a.237.237 0 00.036-.275l-.538-.937a.226.226 0 00-.264-.119l-.538.147-.146-.349.392-.229c.082-.046.128-.157.11-.258l-.283-1.037c-.018-.101-.11-.193-.219-.193h-.483l-.054-.422.446-.119c.1-.019.182-.11.182-.221v-1.101a.225.225 0 00-.164-.22l-.455-.12.045-.404h.584a.245.245 0 00.218-.165l.274-1.056a.224.224 0 00-.1-.266l-.484-.284.128-.313.62.166c.1.036.21-.01.264-.101l.538-.928a.224.224 0 00-.027-.293l-.438-.441.2-.248.566.331c.082.064.21.055.291-.028l.766-.771a.223.223 0 00.036-.275l-.319-.56.283-.193.465.468a.246.246 0 00.273.037l.939-.551c.082-.055.137-.156.11-.257l-.156-.588.32-.119.255.496a.243.243 0 00.255.128l1.057-.238a.228.228 0 00.183-.221l.018-.56.547-.055.21.524c.036.1.136.174.245.156l1.085-.138c.091-.009.182-.083.191-.184l.082-.541.675-.065.191.505a.23.23 0 00.237.166l1.085-.101a.244.244 0 00.2-.193l.091-.542.675-.064.191.496c.028.101.128.183.237.165l1.085-.11c.1 0 .182-.083.2-.184l.092-.542.674-.073.192.505a.22.22 0 00.237.165l1.084-.101a.233.233 0 00.2-.193l.092-.541.674-.064.192.504a.23.23 0 00.237.166l1.084-.11c.1-.01.192-.083.2-.193l.092-.542.684-.064.182.496a.24.24 0 00.246.174l1.075-.11a.234.234 0 00.21-.184l.082-.551.684-.064.182.505a.246.246 0 00.246.165l1.076-.11a.214.214 0 00.2-.193l.1-.541.675-.065.191.505a.23.23 0 00.237.166l1.085-.101a.244.244 0 00.2-.193l.092-.551.674-.064.182.505a.246.246 0 00.246.165l1.085-.101a.243.243 0 00.2-.193l.092-.541.683-.074.146.441a.218.218 0 00.228.165l1.094-.073a.234.234 0 00.2-.184l.1-.514.784-.074.146.496c.019.11.11.193.22.193l1.202-.009a.213.213 0 00.21-.156l.173-.597h.757l.164.569c.018.11.109.193.227.193l1.185-.009c.1 0 .192-.055.22-.156l.172-.597h.757l.164.569c.018.11.11.193.228.193l1.185-.009c.1 0 .2-.055.218-.156l.174-.597h.756l.164.569c.018.11.11.193.219.193l1.194-.009c.1 0 .191-.055.228-.156l.164-.597h.756l.164.569c.019.11.11.193.228.193l1.194-.009c.091 0 .192-.055.21-.156l.182-.597h.748l.164.569c.018.11.109.193.227.193l1.194-.009a.232.232 0 00.22-.156l.172-.597h.748l.164.569c.018.11.11.193.228.193l1.194-.009c.1 0 .191-.055.219-.156l.164-.597h.756l.164.569c.018.11.11.193.228.193l1.185-.009c.1 0 .191-.055.228-.156l.173-.597h.747l.164.569c.019.11.11.193.228.193l1.194-.009c.091 0 .192-.055.219-.156l.173-.597h.748l.164.569c.018.11.118.193.228.193l1.194-.009c.1 0 .191-.055.218-.156l.174-.597h.747l.164.569c.018.11.118.193.228.193l1.194-.009c.1 0 .182-.055.219-.156l.173-.597h.747l.164.569c.018.11.119.193.228.193l1.194-.009c.1 0 .182-.055.219-.156l.173-.597h.757l.164.597zm-57.313-5.618v7.344l-.073-.202a.24.24 0 00-.237-.138l-.911.092c-.11.009-.2.11-.2.22l-.028.588-.72.165-.274-.524a.225.225 0 00-.273-.11l-.401.156v-7.591h3.117zm-5.98-3.021v-42.43h8.787v44.992h-8.786v-2.562zm-5.632-4.571h5.177v4.333h-5.177v-4.333zm-8.586 5.746v-.954h2.79l-2.79.954zm5.742 5.94c.246.055.42.147.51.248.046.046.074.11.074.156 0 .055-.019.11-.055.165a.734.734 0 01-.392.275l-5.879 2.02v-3.957l5.742 1.093zm0 8.767c.265.055.429.147.52.257a.38.38 0 01.064.156.34.34 0 01-.064.174v.009a.685.685 0 01-.365.248l-5.897 1.396v-3.333l5.742 1.093zm-9.251 5.379v-7.105l3.053.551v6.554h-3.053zm8.896.45h.601c.155 0 .246.083.283.193l.027.137-.027.147a.288.288 0 01-.283.184h-.018l-5.97.404v-1.065h5.387zm-8.896 2.938v-2.938h3.053v2.938h-3.053zm9.16.459h.337c.155 0 .246.082.283.183l.027.147-.027.138c-.037.101-.137.183-.283.183-.009 0-.009.019-.018.019s-.009-.019-.009-.019l-6.59.872c.018-.027.055-.055.082-.091.283-.432.456-.983.502-1.432h5.697zm-7.948 1.753c-.273 0-.538-.239-.747-.569l-.01-.009a3.005 3.005 0 01-.419-1.175h2.972a2.79 2.79 0 01-.428 1.184c-.21.33-.474.569-.739.569h-.629zm-7.784-2.396l-.027-.138.027-.147c.037-.11.137-.183.283-.183.01 0 .01-.009.018-.009 0 0 0 .009.01.009l5.796-.459v1.111H10.85a.288.288 0 01-.283-.184zm.53-3.204c-.265-.055-.448-.156-.53-.275a.12.12 0 01-.036-.092l.036-.073c.092-.111.31-.202.666-.248l5.441-1.148v1.836h-5.578zm.026-8.638c-.246-.074-.428-.202-.52-.349a.365.365 0 01-.072-.239c0-.073.027-.156.073-.22.11-.138.319-.257.638-.321l5.432-.928v3.048l-5.55-.991zm9.07-6.665v8.29l-3.054-.551v-8.29l3.053.551zm-9.07-2.084a.884.884 0 01-.528-.358.367.367 0 01-.064-.229.42.42 0 01.073-.221l.009-.009c.11-.128.319-.248.629-.312l5.432-.927v3.048l-5.55-.992zm9.07-3.653v5.278l-3.054-.551v-4.727h3.053zm-9.963-9.392h18.54v8.933h-18.54v-8.933zm6.444-.89v.432h-2.488l2.488-.432zm3.518-5.49v5.922h-3.053v-6.463l3.053.541zm-9.069-2.083c-.246-.065-.428-.202-.52-.349a.339.339 0 01-.072-.239c0-.073.027-.147.073-.22l.018-.009c.1-.138.31-.239.62-.303l5.432-.937v3.048l-5.55-.991zm9.07-7.51v9.134l-3.054-.55v-9.134l3.053.55zm-9.07-2.084c-.246-.064-.428-.202-.52-.358a.327.327 0 01-.072-.229c0-.074.027-.156.073-.22.11-.138.319-.257.638-.322l5.432-.927v3.048l-5.55-.992zm9.07-7.518v9.134l-3.054-.542v-9.134l3.053.542zm-9.07-2.084a.884.884 0 01-.528-.358.367.367 0 01-.064-.229.42.42 0 01.073-.221l.009-.009c.11-.128.319-.248.629-.303l5.432-.936v3.048l-5.55-.992zm9.07-7.509v9.125l-3.054-.533v-9.143l3.053.551zm-9.07-2.093c-.246-.064-.428-.193-.528-.349a.367.367 0 01-.064-.229.42.42 0 01.073-.221l.009-.018c.11-.129.319-.239.629-.303l5.432-.927v3.048l-5.55-1.001zm9.07-7.5v9.125l-3.054-.542v-9.134l3.053.551zm-9.07-2.093a.866.866 0 01-.52-.349.337.337 0 01-.072-.239c0-.064.027-.147.082-.22.11-.138.31-.257.629-.312l5.432-.937v3.048l-5.55-.991zm9.07-7.509v9.134l-3.054-.551v-9.134l3.053.551zm-9.07-2.084c-.246-.074-.428-.202-.52-.349a.365.365 0 01-.072-.239c0-.073.027-.156.073-.22.11-.138.319-.257.638-.321l5.432-.928v3.048l-5.55-.991zm9.07-7.51v9.135l-3.054-.551v-9.134l3.053.55zm-9.07-2.093c-.246-.064-.428-.192-.528-.358a.352.352 0 01-.064-.229c0-.074.027-.147.073-.211l.009-.019c.11-.128.319-.247.629-.303l5.432-.936v3.048l-5.55-.992zm9.07-7.509v9.134l-3.054-.551v-9.134l3.053.551zm-9.07-2.084c-.246-.073-.428-.202-.52-.358a.327.327 0 01-.072-.229.42.42 0 01.073-.221l.018-.009c.1-.128.31-.248.62-.303l5.432-.936v3.048l-5.55-.992zm9.07-7.509v9.125l-3.054-.542v-9.134l3.053.551zm-9.07-2.093c-.246-.064-.428-.193-.52-.349a.336.336 0 01-.072-.238c0-.065.027-.147.082-.221.11-.128.31-.257.629-.312l5.432-.936v3.057l-5.55-1.001zm9.07-7.509v9.134l-3.054-.551v-9.134l3.053.551zm-9.07-2.084c-.246-.074-.428-.202-.528-.358a.37.37 0 01-.064-.23c0-.073.027-.156.073-.22l.009-.009c.11-.138.319-.248.629-.312l5.432-.927v3.047l-5.55-.991zm9.07-7.509v9.125l-3.054-.542v-9.134l3.053.551zm-9.07-2.093a.889.889 0 01-.528-.358.37.37 0 01-.064-.23.37.37 0 01.073-.211l.009-.018c.11-.129.319-.239.629-.303l5.432-.937v3.048l-5.55-.991zm9.07-7.51v9.135l-3.054-.551v-9.134l3.053.55zm-9.07-2.083c-.246-.074-.428-.202-.52-.358a.33.33 0 01-.072-.23c0-.073.027-.147.073-.22l.018-.009c.1-.138.31-.248.62-.313l5.432-.927v3.048l-5.55-.991zm9.07-7.51v9.125l-3.054-.541v-9.135l3.053.551zm-9.07-2.093a.866.866 0 01-.52-.349.327.327 0 01-.072-.229c0-.083.027-.156.073-.23.11-.137.319-.247.638-.312l5.432-.936v3.057l-5.55-1.001zm9.07-7.509v9.134l-3.054-.551v-9.125l3.053.542zm-9.07-2.084a.884.884 0 01-.528-.358.367.367 0 01-.064-.229.42.42 0 01.073-.221l.009-.009c.11-.138.319-.248.629-.312l5.432-.927v3.048l-5.55-.992zm9.07-7.509v9.125l-3.054-.542v-9.134l3.053.551zm-9.07-2.093a.866.866 0 01-.52-.349.327.327 0 01-.072-.229c0-.074.027-.157.073-.221l.018-.018c.1-.129.31-.239.62-.303l5.432-.936v3.047l-5.55-.991zm9.07-7.509v9.134l-3.054-.542v-9.134l3.053.542zm-9.07-2.084c-.246-.074-.428-.202-.52-.349-.054-.083-.081-.156-.072-.239 0-.073.027-.147.082-.229.11-.129.31-.248.629-.312l5.432-.928v3.048l-5.55-.991zm9.07-7.509v9.124l-3.054-.541v-9.134l3.053.551zm-9.07-2.084c-.246-.074-.428-.202-.52-.358a.33.33 0 01-.072-.23c0-.073.027-.156.073-.22.11-.147.319-.257.638-.321l5.432-.937v3.057l-5.55-.991zm9.07-7.519v9.134l-3.054-.55v-9.125l3.053.541zm-9.07-2.084a.884.884 0 01-.528-.358.35.35 0 01-.064-.229c0-.064.027-.147.073-.22l.009-.01c.11-.137.319-.247.629-.303l5.432-.936v3.057l-5.55-1.001zm9.07-7.426v9.051l-3.054-.551v-9.051l3.053.551zm-9.07-2.093c-.246-.065-.428-.202-.52-.349a.33.33 0 01-.072-.23.37.37 0 01.082-.229c.11-.129.31-.248.629-.312l5.432-.937v3.057l-5.55-1zm9.07-7.427v9.052l-3.054-.551v-9.042l3.053.541zm-9.07-2.084c-.246-.073-.428-.202-.528-.358a.367.367 0 01-.064-.229.42.42 0 01.073-.221l.009-.009c.11-.137.319-.248.629-.312l5.432-.927v3.048l-5.55-.992zm9.07-7.436v9.052l-3.054-.542v-9.051l3.053.541zm-9.07-2.083c-.246-.065-.428-.202-.52-.349a.33.33 0 01-.072-.23c0-.082.027-.156.073-.229.11-.129.319-.248.638-.312l5.432-.928v3.039l-5.55-.991zm9.07-7.427v9.051l-3.054-.55v-9.043l3.053.542zm-9.07-2.084c-.246-.073-.428-.202-.528-.367a.328.328 0 01-.064-.22.42.42 0 01.073-.221l.009-.009c.11-.138.319-.248.629-.312l5.432-.927v3.048l-5.55-.992zm9.07-7.436v9.061l-3.054-.551v-9.051l3.053.541zm-9.07-2.084a.87.87 0 01-.52-.348.339.339 0 01-.072-.239c0-.074.027-.147.073-.22.11-.138.319-.248.638-.313l5.432-.936v3.048l-5.55-.992zm9.07-7.426v9.042l-3.054-.541v-9.052l3.053.551zm-9.07-2.093a.884.884 0 01-.528-.358.345.345 0 01-.064-.221c0-.073.027-.156.073-.22l.009-.018c.11-.129.319-.239.629-.303l5.432-.927v3.047l-5.55-1zm9.07-7.427v9.052l-3.054-.542v-9.051l3.053.541zm-9.07-2.084c-.246-.073-.428-.202-.52-.349a.363.363 0 01-.072-.238.42.42 0 01.073-.221c.11-.137.319-.257.638-.321l5.432-.927v3.048l-5.55-.992zm9.07-7.426v9.051l-3.054-.551v-9.051l3.053.551zm-9.07-2.093a.889.889 0 01-.528-.358.355.355 0 01-.064-.23c0-.064.027-.147.073-.22l.009-.009c.11-.129.319-.239.629-.303l5.432-.937v3.048l-5.55-.991zm9.07-7.427v9.052l-3.054-.551v-9.052l3.053.551zm-9.07-2.084c-.246-.073-.428-.202-.52-.358a.327.327 0 01-.072-.229.4.4 0 01.073-.221c.11-.137.319-.257.638-.321l5.432-.927v3.048l-5.55-.992zm9.07-7.436v9.052l-3.054-.542v-9.051l3.053.541zm-9.07-2.083c-.246-.074-.428-.202-.52-.349a.367.367 0 01-.072-.239c0-.073.027-.147.073-.22l.018-.009c.1-.138.31-.248.62-.313l5.432-.927v3.048l-5.55-.991zm9.07-7.537v9.161l-3.054-.55v-9.162l3.053.551zm-9.07-2.084c-.246-.074-.428-.202-.528-.358a.37.37 0 01-.064-.23c0-.073.027-.156.073-.22l.009-.018c.11-.129.319-.239.629-.303l5.432-.937v3.057l-5.55-.991zm16.26-11.402l-6.99 1.809h-3.464l-6.99-1.809h17.445zM6.083 134a.827.827 0 01-.246-.596v-4.039c0-.23.091-.441.246-.597a.795.795 0 01.583-.248h23.799c.227 0 .437.092.583.248a.851.851 0 01.255.597v4.039c0 .229-.1.44-.255.596v.01a.856.856 0 01-.584.238H6.666a.791.791 0 01-.583-.248zm-.328-45.927c.164-.156.383-.248.565-.376.264-.202.51-.423.82-.551.51-.22 1.067-.34 1.65-.34h6.7a4.98 4.98 0 00-1.268.9c-.009.018-.036.027-.063.046v.009c-.338.34-.584.77-.803 1.193-.054.12-.164.202-.21.322a4.679 4.679 0 00-.373 1.854c0 1.313.538 2.506 1.386 3.378.392.386.838.707 1.34.937H8.788c-.583 0-1.14-.12-1.65-.331a4.47 4.47 0 01-1.148-.78c-.073-.065-.164-.083-.237-.156a4.326 4.326 0 01-1.258-3.048c0-1.194.483-2.268 1.258-3.057zM4.952 12.86h-3.7a.474.474 0 01-.31-.128.462.462 0 01-.128-.313c0-.238-.028-.587-.018-.816 0-.46.063-.873.455-.873h3.7c.11 0 .22.046.302.129a.488.488 0 01.127.312v.955c-.018.394-.09.734-.428.734zM1.479 5.985c0-.872.356-1.661.92-2.249a3.176 3.176 0 012.234-.927h.747v3.213c-.21.165-.41.349-.538.588a1.918 1.918 0 00-.227.908v2.754H1.479V5.985zm4.357-4.039H8.56v.404H5.836v-.404zm2.725-.459H5.827V.468H8.56v1.02zM19.29 3.745a3.17 3.17 0 01.93 2.24v4.287h-3.026V7.518c0-.532-.21-1.01-.556-1.358-.347-.34-.83-.56-1.35-.56h-6.27V2.81h8.039a3.13 3.13 0 012.233.935zm2.005 12.017h-5.186v-5.03h5.186v5.03zm1.513 2.12h-8.203v-1.66h8.203v1.66zm-1.513 68.465h-5.186V18.333h5.186v68.014zM9.017 7.077V6.06h6.27a1.449 1.449 0 011.45 1.46v2.753h-.857a.227.227 0 00-.228.23v5.26h-1.276a.239.239 0 00-.228.23v2.12c0 .12.11.22.228.22h1.276v68.015H9.017V7.077zm-3.637 0v3.379a.993.993 0 00-.319-.138v-2.8c0-.257.064-.486.173-.688.037-.064.1-.101.146-.156v.404zM8.561 5.6H5.827V2.81H8.56V5.6zm-2.725.459H8.56v.79H5.836v-.79zm1.02 80.729c-.364.165-.72.358-1.02.606l-.01-75.065c.01-.11.02-.23.02-.35-.01-.256-.01-.55-.01-.816h-.01V7.307h2.735v79.05a4.712 4.712 0 00-1.577.357c-.009 0-.009.01-.018.01-.045.018-.073.045-.11.064zm17.273.964a4.783 4.783 0 00-1.395 3.378c0 1.313.538 2.506 1.395 3.378h.018c.037.046.091.064.128.101.355.33.747.624 1.185.836h-7.94c-.418 0-.801-.13-1.184-.24-.155-.045-.337-.036-.492-.11a4.186 4.186 0 01-1.358-.917 4.326 4.326 0 01-.92-4.728c.081-.202.245-.349.355-.532.182-.285.328-.597.565-.845a4.404 4.404 0 011.349-.918c.173-.073.364-.064.537-.12.374-.1.739-.229 1.149-.229h7.939c-.492.239-.948.56-1.331.946zm15.413-.946v8.639H27.483c-.392 0-.738-.12-1.103-.22-.182-.056-.392-.047-.565-.13-.346-.137-.62-.385-.911-.605-.137-.12-.32-.184-.447-.312a4.334 4.334 0 01-1.267-3.048c0-1.194.492-2.268 1.267-3.057a4.405 4.405 0 011.349-.918c.164-.073.355-.064.529-.11.373-.11.738-.239 1.148-.239h12.059zm4.694 1.047c0 .284-.119.55-.301.734a1.054 1.054 0 01-.73.303h-3.208v-2.084h4.239v1.047zm-4.239 5.517h3.209c.282 0 .537.11.729.303.182.183.3.44.3.734v1.038h-4.238V93.37zM61.5 88.073a4.31 4.31 0 011.258 3.048c0 .936-.301 1.808-.803 2.515a4.262 4.262 0 01-2.114 1.579l-6.116 1.717L43.27 99.86h-8.04l-21.647-3.617-2.032-.34h32.913a.226.226 0 00.227-.229v-1.267a1.5 1.5 0 00-1.486-1.505h-3.208v-3.553h3.209c.4 0 .784-.165 1.048-.44.273-.276.437-.643.437-1.056v-1.047h13.782a4.25 4.25 0 013.026 1.267zm-2.607 8.602c0 .422-.182.807-.456 1.092a1.56 1.56 0 01-.884.413c-.146.018-.282.037-.483.046h-1.303a18.54 18.54 0 01-.347-.028 1.583 1.583 0 01-.866-.293c-.191-.156-.3-.386-.41-.615l4.749-1.332v.717zm-1.176 1.955c.037.67.027 2.57.018 3.626l-.009.652c0 .624-.328 1.019-.765 1.193a1.518 1.518 0 01-1.085 0c-.428-.174-.766-.569-.766-1.193v-.652c-.009-1.056-.027-2.956.019-3.626.036.01.1.01.145.018.073.01.146.037.22.037h.2c.237.01.483.018.729.018s.492-.009.72-.018h.2c.055 0 .1-.028.155-.037.073 0 .155-.009.22-.018zm-14.647 3.736c0 .569-.228 1.074-.592 1.451a2.02 2.02 0 01-1.431.596h-3.573a2.02 2.02 0 01-1.431-.596 2.08 2.08 0 01-.602-1.451v-2.047h7.629v2.047zm-5.36 2.506h3.1v1.506h-3.1v-1.506zm-14.328 21.95c0-.322.137-.615.347-.827l.009-.009c.21-.211.501-.339.82-.339h2.98c.329 0 .62.137.83.348.21.212.346.505.346.827v1.239h-5.332v-1.239zm-6.808-14.798c.027.018.073.018.1.036.228.101.465.175.702.248.146.046.292.101.447.138.146.027.3.027.446.055.237.027.465.073.711.073.237 0 .474-.046.711-.082.146-.019.3-.019.438-.046.155-.037.3-.101.455-.147.228-.064.465-.138.684-.239.036-.018.082-.018.11-.036v16.037h-4.804v-16.037zm8.24 4.131h1.53l-1.64 1.542v-1.57c.037.009.073.028.11.028zm-1.997-5.132v3.112c0 .56.228 1.065.593 1.423.219.229.52.376.838.477v2.093l-2.406 2.268v-8.648c.346-.202.675-.45.975-.725zm-2.032.716c-.565.22-1.167.367-1.805.367-.647 0-1.248-.147-1.814-.367-.118-.046-.237-.092-.346-.147-.556-.257-1.066-.578-1.495-1.01a5.17 5.17 0 01-1.513-3.672c0-.716.146-1.395.401-2.01.073-.165.2-.285.283-.432.237-.431.474-.872.82-1.221.182-.183.42-.284.62-.431.319-.248.62-.514.993-.679.246-.101.529-.11.784-.175.41-.11.811-.257 1.267-.257 1.422 0 2.716.588 3.646 1.524.173.175.264.422.42.624.628.863 1.066 1.882 1.084 3.085a5.135 5.135 0 01-1.504 3.644c-.42.432-.939.753-1.486 1.01-.118.055-.237.101-.355.147zm1.057 12.007v-2.726l9.197-8.657v2.717l-9.197 8.666zm5.56 1.442h-2.698v-3.516l2.698-2.543v6.059zm7.01-6.959h-2.918v-8.886h2.917v8.886zm1.312-14.091c.392.395.93.633 1.522.688v1.552h-2.607a.226.226 0 00-.228.229v2.277h-3.144a.234.234 0 00-.228.239v2.607l-4.211 3.966h-2.015c-.419 0-.81-.175-1.084-.459a1.555 1.555 0 01-.456-1.102v-3.617a5.667 5.667 0 001.313-3.47c0-.009.009-.009.009-.018-.028-2.819 0-5.655 0-8.483l10.39 1.735v2.084c0 .689.283 1.322.739 1.772zm-11.585-5.664v6.206a5.744 5.744 0 00-1.14-1.717c-.008-.009-.018-.028-.027-.037l-.018-.018a5.51 5.51 0 00-3.974-1.662l-.136.009c-.165 0-.329.037-.493.055-.182.019-.383.028-.565.074-.182.037-.346.11-.529.165-.173.055-.346.092-.51.165-.173.074-.319.175-.483.267-.155.082-.31.156-.456.257-.155.101-.291.238-.428.358-.119.101-.255.183-.365.303l-.009.009c-.018.009-.018.018-.027.027-.01.01-.018.01-.027.019 0 .009-.01.027-.019.036a5.576 5.576 0 00-1.112 1.671c0 .009-.009.009-.009.009v-7.922l10.327 1.726zM5.836 128.373V94.857c.3.248.656.44 1.012.606.036.018.073.055.118.073a4.714 4.714 0 001.595.367v32.158H6.665c-.319 0-.61.119-.83.312zm3.18-.312V95.949l4.34.726v10.355c0 .009.009.009.009.018a5.694 5.694 0 001.64 3.865c.328.321.711.596 1.103.835v16.313H9.017zm12.825 0v-3.69l2.406-2.268v3.149c-.319.064-.61.193-.829.404l-.01.009a1.63 1.63 0 00-.482 1.157v1.239H21.84zm-1.194 288.16l5.742 1.083c.246.056.42.147.51.248.046.046.074.11.074.166 0 .045-.019.11-.055.165-.073.11-.2.202-.392.275l-5.879 2.011v-3.948zm0-9.602l5.742 1.083c.246.064.42.147.51.257a.227.227 0 01.074.156c0 .046-.019.11-.055.165a.73.73 0 01-.392.276l-5.879 2.01v-3.947zm0-9.602l5.742 1.083c.256.064.42.156.51.257.046.055.074.11.074.165 0 .046-.019.11-.055.165a.73.73 0 01-.392.276l-5.879 2.01v-3.956zm0-9.593l5.742 1.083c.256.055.42.147.51.257a.275.275 0 01.074.156.35.35 0 01-.055.174l-.01.009a.789.789 0 01-.382.258l-5.879 2.01v-3.947zm0-9.594l5.742 1.084c.246.055.42.147.51.248.046.055.074.11.074.165a.321.321 0 01-.055.165.785.785 0 01-.392.275l-5.879 2.011v-3.948zm0-9.602l5.742 1.083c.256.065.42.156.51.257a.227.227 0 01.074.156.298.298 0 01-.055.166.734.734 0 01-.392.275l-5.879 2.02v-3.957zm0-9.593l5.742 1.083c.246.055.42.147.51.248.046.055.074.11.074.165a.324.324 0 01-.055.166.785.785 0 01-.392.275l-5.879 2.01v-3.947zm0-9.602l5.742 1.083c.246.055.42.147.51.257a.227.227 0 01.074.156c0 .055-.019.11-.055.165a.735.735 0 01-.392.276l-5.879 2.01v-3.947zm0-9.602l5.742 1.092c.246.055.42.147.51.248.046.055.074.11.074.156a.325.325 0 01-.055.174.74.74 0 01-.392.276l-5.879 2.01v-3.956zm0-9.584l5.742 1.083c.256.055.42.147.51.248.046.046.074.11.074.156 0 .055-.019.11-.055.165a.734.734 0 01-.392.275l-5.879 2.011v-3.938zm0-9.603l5.742 1.084c.246.055.42.146.51.247a.269.269 0 01.074.166c0 .046-.019.11-.055.165a.734.734 0 01-.392.275l-5.879 2.011v-3.948zm0-9.602l5.742 1.083c.246.065.42.147.51.257a.227.227 0 01.074.156c0 .055-.019.12-.055.175-.073.11-.2.202-.392.275l-5.879 2.001v-3.947zm0-9.593l5.742 1.083c.256.055.42.147.51.257a.227.227 0 01.074.156c0 .046-.019.11-.055.166a.734.734 0 01-.392.275l-5.879 2.01v-3.947zm0-9.602l5.742 1.083c.256.064.42.156.51.257a.227.227 0 01.074.156.35.35 0 01-.055.174.784.784 0 01-.392.267l-5.879 2.019v-3.956zm0-9.593l5.742 1.083c.256.055.42.147.51.257a.275.275 0 01.074.156c0 .046-.019.11-.055.165l-.01.018a.789.789 0 01-.382.258l-5.879 2.01v-3.947zm0-9.603l5.742 1.084c.246.064.42.156.51.257.046.055.074.101.074.156a.35.35 0 01-.055.174.785.785 0 01-.392.275l-5.879 2.011v-3.957zm0-9.593l5.742 1.083c.256.055.42.147.51.257a.227.227 0 01.074.157c0 .055-.019.11-.055.165a.734.734 0 01-.392.275l-5.879 2.011v-3.948zm0-9.602l5.742 1.092c.246.055.42.147.51.248a.227.227 0 01.074.156c0 .055-.019.11-.055.175a.726.726 0 01-.392.266l-5.879 2.019v-3.956zm0-9.511l5.742 1.084c.246.055.42.147.51.247.046.056.074.111.074.166 0 .046-.019.11-.055.165a.734.734 0 01-.392.275l-5.879 2.011v-3.948zm0-9.519l5.742 1.083c.246.055.42.156.51.257.046.055.074.101.074.156 0 .055-.019.11-.055.165a.74.74 0 01-.392.276l-5.879 2.019v-3.956zm0-9.52l5.742 1.083c.246.065.42.156.51.257.046.055.074.101.074.156 0 .055-.019.12-.055.175a.734.734 0 01-.392.275l-5.879 2.011v-3.957zm0-9.51l5.742 1.083c.246.055.42.147.51.257a.227.227 0 01.074.156c0 .046-.019.11-.055.165a.74.74 0 01-.392.276l-5.879 2.01v-3.947zm0-9.52l5.742 1.083c.246.064.42.156.51.257.046.055.074.11.074.156 0 .055-.019.11-.055.166a.69.69 0 01-.392.275l-5.879 2.02v-3.957zm0-9.511l5.742 1.084c.256.055.42.147.51.257a.275.275 0 01.074.156c0 .055-.019.11-.055.165l-.01.009c-.072.11-.2.202-.382.266l-5.879 2.011v-3.948zm0-9.519l5.742 1.083c.246.055.42.156.51.257.046.046.074.11.074.156 0 .055-.019.11-.055.165a.73.73 0 01-.392.276l-5.879 2.019v-3.956zm0-9.511l5.742 1.084c.256.055.42.146.51.247a.338.338 0 01.074.166c0 .046-.019.11-.055.165l-.01.009a.79.79 0 01-.382.266l-5.879 2.011v-3.948zm0-9.519l5.742 1.083c.256.055.42.147.51.257a.227.227 0 01.074.156c0 .055-.019.11-.055.165a.8.8 0 01-.392.285l-5.879 2.001v-3.947zm0-9.511l5.742 1.083c.256.056.42.147.51.248.046.055.064.11.074.156a.353.353 0 01-.055.175l-.01.009a.79.79 0 01-.382.266l-5.879 2.011v-3.948zm0-9.63l5.742 1.084c.246.055.42.146.51.257a.227.227 0 01.074.156c0 .055-.019.11-.055.165a.734.734 0 01-.392.275l-5.879 2.02v-3.957zm-.456-8.445h-3.053v-2.855h3.053v2.855zm.456.459h5.788c.219 0 .374.064.456.156a.193.193 0 01.073.147.477.477 0 01-.019.192l-.009.01c-.055.128-.191.257-.4.339l-5.889 1.432v-2.276zm-3.509 0h3.053v7.436l-3.053-.542v-6.894zm11.858 281.762h-8.349v-1.405l6.025-2.056c.291-.101.51-.276.629-.459a.88.88 0 00.127-.441.78.78 0 00-.182-.441c-.146-.174-.4-.312-.765-.394l-5.834-1.102v-4.7l6.025-2.066c.291-.101.51-.266.629-.459a.848.848 0 00.127-.44.78.78 0 00-.182-.432c-.146-.174-.4-.321-.765-.404l-5.834-1.092v-4.7l6.025-2.066c.291-.101.51-.275.629-.459a.873.873 0 00.127-.44.731.731 0 00-.182-.432c-.155-.165-.4-.321-.747-.404l-5.852-1.101v-4.701l6.025-2.065c.273-.092.492-.248.61-.431l.019-.028a.83.83 0 00.127-.441.75.75 0 00-.182-.431c-.155-.175-.4-.321-.765-.395l-5.834-1.111v-4.691l6.025-2.065c.291-.101.51-.276.629-.459a.88.88 0 00.127-.441.775.775 0 00-.182-.44c-.146-.166-.4-.313-.765-.395l-5.834-1.102v-4.7l6.025-2.056c.291-.11.51-.276.629-.468a.854.854 0 00.127-.441.775.775 0 00-.182-.431c-.155-.166-.4-.313-.747-.395l-5.852-1.102v-4.709l6.025-2.056c.291-.111.51-.276.629-.46a.873.873 0 00.127-.44.731.731 0 00-.182-.432c-.146-.174-.4-.321-.765-.404l-5.834-1.101v-4.7l6.025-2.066c.291-.101.51-.266.629-.45a.88.88 0 00.127-.449.755.755 0 00-.182-.432c-.146-.165-.4-.321-.765-.395l-5.834-1.11v-4.691l6.025-2.066c.291-.101.51-.266.629-.459a.88.88 0 00.127-.441.777.777 0 00-.182-.44c-.146-.165-.4-.312-.765-.395l-5.834-1.102v-4.7l6.025-2.056c.291-.101.51-.275.629-.459a.88.88 0 00.127-.441.73.73 0 00-.191-.44c-.146-.165-.392-.312-.738-.395l-5.852-1.111v-4.7l6.025-2.056c.291-.101.51-.276.629-.459a.854.854 0 00.127-.441.75.75 0 00-.182-.431c-.146-.175-.4-.322-.765-.404l-5.834-1.102v-4.7l6.025-2.066c.291-.101.51-.266.629-.459a.817.817 0 00.127-.431.78.78 0 00-.182-.441c-.146-.165-.4-.321-.765-.394l-5.834-1.102v-4.7l6.025-2.066c.291-.101.51-.266.629-.459a.873.873 0 00.127-.44.712.712 0 00-.191-.432c-.146-.174-.392-.321-.738-.394l-5.852-1.111v-4.691l6.025-2.066c.291-.101.51-.275.629-.468a.817.817 0 00.127-.431.735.735 0 00-.191-.441c-.146-.165-.392-.312-.738-.395l-5.852-1.101v-4.701l6.025-2.065c.273-.092.492-.257.61-.431l.019-.028a.854.854 0 00.127-.441.707.707 0 00-.191-.431c-.146-.175-.392-.321-.756-.404l-5.834-1.102v-4.7l6.025-2.056c.291-.11.51-.276.629-.459a.88.88 0 00.127-.441.775.775 0 00-.182-.44c-.146-.166-.4-.313-.765-.404l-5.834-1.093v-4.7l6.025-2.065c.291-.101.51-.267.629-.459a.88.88 0 00.127-.441.712.712 0 00-.191-.432c-.146-.174-.392-.312-.738-.394l-5.852-1.111v-4.7l6.025-2.056c.291-.101.51-.276.629-.459a.88.88 0 00.127-.441.78.78 0 00-.182-.441c-.146-.165-.4-.321-.765-.395l-5.834-1.101v-4.618l6.025-2.065c.291-.101.51-.266.629-.459a.88.88 0 00.127-.441.8.8 0 00-.182-.44c-.146-.166-.4-.313-.765-.395l-5.834-1.102v-4.617l6.025-2.057c.291-.11.51-.275.629-.459a.88.88 0 00.127-.449.755.755 0 00-.182-.432c-.146-.174-.4-.321-.765-.395l-5.834-1.11v-4.609l6.025-2.065c.291-.101.51-.276.629-.459a.88.88 0 00.127-.441.78.78 0 00-.182-.441c-.155-.165-.4-.312-.765-.394l-5.834-1.102v-4.617l6.025-2.066c.291-.101.51-.266.629-.459a.852.852 0 00.127-.441.752.752 0 00-.182-.431c-.155-.174-.4-.321-.765-.404l-5.834-1.102v-4.617l6.025-2.056c.291-.101.51-.276.629-.469a.817.817 0 00.127-.431.78.78 0 00-.182-.441c-.155-.165-.4-.312-.765-.394l-5.834-1.102v-4.618l6.025-2.065c.273-.092.492-.257.61-.432l.019-.027a.854.854 0 00.127-.441.686.686 0 00-.191-.431c-.146-.175-.392-.321-.756-.404l-5.834-1.102v-4.617l6.025-2.057c.291-.11.51-.275.629-.459a.88.88 0 00.127-.449.755.755 0 00-.182-.432c-.155-.174-.4-.321-.765-.404l-5.834-1.092v-4.618l6.025-2.065c.273-.101.492-.257.61-.441l.019-.018a.854.854 0 00.127-.441.707.707 0 00-.191-.431c-.146-.175-.392-.322-.756-.404l-5.834-1.102v-4.617l6.025-2.066c.291-.101.51-.266.629-.459a.825.825 0 00.127-.441.688.688 0 00-.191-.431c-.146-.174-.392-.312-.738-.395l-5.852-1.111v-4.617l6.025-2.056c.273-.101.492-.257.61-.441l.019-.018a.88.88 0 00.127-.441.714.714 0 00-.191-.441c-.146-.174-.392-.321-.756-.394l-5.834-1.102v-4.728l6.025-2.065c.291-.101.51-.266.629-.45a.911.911 0 00.127-.45.75.75 0 00-.182-.431c-.155-.175-.4-.322-.765-.395l-5.834-1.102v-4.782l6.034-1.469c.337-.129.565-.349.674-.597l.01-.009a.795.795 0 00.045-.432.695.695 0 00-.191-.403c-.164-.175-.429-.294-.784-.294h-5.788v-2.919l8.568-2.204h1.248c.347 0 .666-.147.903-.376l.009-.009c.237-.23.374-.56.374-.918v-4.039a1.27 1.27 0 00-.374-.918 1.276 1.276 0 00-.912-.386H29.17v-1.239a1.66 1.66 0 00-.474-1.157c-.227-.22-.52-.349-.847-.413v-6.545l3.19-3.002v2.754c0 .128.1.229.228.229h3.144V426.65h-5.177v-4.379c0-.12-.1-.22-.237-.22zm14.656-219.806v104.734h-1.449a.227.227 0 00-.228.23v10.447c0 .128.1.229.228.229.61-.009 1.048 0 1.45 0v70.906h-8.787V106.837h8.786v95.408zm1.869.229l2.525.744c.127.036.255.091.364.156.392.229.63.606.73 1.01.109.422.09.872-.019 1.248a1.703 1.703 0 01-.155.376l-3.582 6.564-1.276 2.203v-12.301h1.413zm2.15-9.272l.01-.009c.219-.183.51-.275.82-.239.31.037.584.193.775.423.182.229.292.523.273.853l-.173 1.827-2.287-.202.164-1.863c.027-.322.191-.606.419-.79zm-.892 6.169l.264-3.066 2.288.211-.283 3.066-2.27-.211zm2.078 2.185c-.037.542-.347.872-.739.992-.154.055-.319.064-.492.055a1.25 1.25 0 01-.474-.138c-.346-.184-.601-.551-.547-1.093l.137-1.542 2.26.202-.145 1.524zm-4.749 21.445v-6.683l4.904 6.683h-4.904zm12.514 1.009c.22.147.41.312.566.496.1.11.173.239.246.367.191.331.328.689.382 1.065.01.11.055.202.064.312 0 .083-.018.156-.027.239-.01.285-.064.551-.155.799-.027.082-.046.156-.082.229-.073.156-.182.276-.273.413a3.222 3.222 0 01-.502.569c-.492.413-1.103.689-1.795.689H44.108v-5.719h10.938c.601 0 1.12.229 1.576.541zm1.723 1.937c0-.661.273-1.257.693-1.689a2.377 2.377 0 014.056 1.689c0 .661-.265 1.258-.693 1.689a2.324 2.324 0 01-1.677.707 2.344 2.344 0 01-1.686-.707 2.426 2.426 0 01-.693-1.689zm-1.54-2.423a4.651 4.651 0 011.586-1.57 4.532 4.532 0 012.333-.633 4.56 4.56 0 013.245 1.349 4.639 4.639 0 011.358 3.277c0 1.166-.392 2.148-1.003 2.91l-.009.01a4.704 4.704 0 01-2.15 1.468 4.683 4.683 0 01-2.617.101c-.884-.22-1.723-.734-2.388-1.56.037-.028.055-.083.091-.12.037-.027.092-.045.128-.082.11-.101.164-.257.255-.377.1-.137.246-.257.328-.394.028-.065.037-.129.064-.193.036-.092.064-.184.1-.276.028-.082.064-.156.082-.238.137.284.292.551.51.771a2.816 2.816 0 004.001 0c.52-.514.83-1.23.83-2.02 0-.78-.319-1.496-.829-2.01a2.816 2.816 0 00-4.001 0c-.301.303-.502.679-.638 1.083-.028-.055-.073-.092-.1-.138-.083-.165-.146-.348-.256-.495-.054-.074-.146-.12-.21-.193-.045-.064-.072-.156-.136-.211-.091-.092-.21-.129-.3-.202-.101-.083-.165-.193-.274-.257zm-12.697 12.815v-6.692h4.904l-4.904 6.692zm-.456 81.087h-1.221v-9.988h1.221v9.988zm1.796-9.988l3.518 6.454.01.009c.054.11.109.229.145.358.11.367.128.826.018 1.248-.1.404-.337.79-.738 1.019-.1.055-.228.111-.355.156l-2.407.698-.118.037-1.413.009v-9.988h1.34zm8.841 34.499l-8.294-24.226c.437-.111 1.02-.276 1.969-.533l8.276 24.144-1.95.615zm14.857 35.416l-.41.138-2.38.78c-.017 0-.027-.027-.045-.018-.009 0 0 .027-.009.036l-.456.147-12.095-35.848 3.272-1.037 12.123 35.802zm-.292 1.203l-1.987.624-.182-.533 1.978-.66.191.569zm1.659 2.882c-.01 0-.01 0-.018-.009-.091-.037-.2-.037-.31-.064a2.039 2.039 0 00-.483-.101h-.274c-.154-.009-.31-.019-.474-.009l-.428.009c-.328 0-.629.101-.911.238-.028.019-.064.01-.092.028l-.018.009c-.11.074-.2.165-.31.248-.027.028-.063.037-.09.064-.01.009-.01.019-.01.028-.018.009-.027.009-.036.027l-.657-2.093.392-.128h.01l2.88-.909.829 2.662zm.738 6.637l-.328.322-2.652 2.598a.614.614 0 01-.438.156 1.1 1.1 0 01-.392-.074.945.945 0 01-.319-.202.534.534 0 01-.154-.358v-7.234c0-.33.127-.615.31-.872.1-.147.227-.275.382-.385.055-.037.11-.083.164-.11.21-.111.447-.193.702-.193v-.009h.61c.238 0 .475 0 .684.027.064.009.128.028.192.046.246.055.474.156.683.33.028.028.073.028.1.065.274.284.456.67.456 1.101v4.792zm4.175 9.483c-2.005.009-3.929.046-5.57.12l-1.01-1.185c-.438-.505-.903-1.083-1.186-1.771-.273-.661-.373-1.442-.137-2.341l1.067-1.056 2.853-2.8 3.983 9.033zm2.707.459c3.737.037 7.42.193 9.807.514v1.148c-.72-.156-2.078-.294-3.719-.386a101.302 101.302 0 00-6.599-.183l-1.212.009c-3.126.027-6.635.064-9.497.248-.839.064-1.577.183-2.224.404a4.725 4.725 0 00-1.686.936c-1.103.964-2.124 4.361-2.972 8.372-1.285 6.096-2.178 13.66-2.242 16.139l-.009 4.672c0 .569.1 1.12.392 1.542.073.111.2.175.3.258h-1.704v-6.335c.064-2.487.593-6.591 1.322-10.795.72-4.141 1.65-8.382 2.534-11.319.528-1.745 1.02-2.874 1.84-3.599.812-.734 1.988-1.092 3.875-1.285 2.233-.23 7.036-.386 11.794-.34zm12.195 1.937c.483.661.738 1.515.82 2.534l.994 13.55H91.02l-.866-11.925c-.091-1.083-.219-1.965-.492-2.672a3.054 3.054 0 00-1.276-1.588v-1.221c.875.285 1.513.735 1.941 1.322zm13.025 14.964h2.315v1.12h-2.315v-1.12zm-.948-5.49h4.411v5.031h-4.411v-5.031zm.027-.835c.62-.441 1.395-.661 2.179-.661.784 0 1.558.22 2.178.661.164.101.319.238.456.376h-5.259c.136-.138.282-.275.446-.376zm8.659 5.379c0-.551.228-1.065.583-1.432a2.029 2.029 0 011.422-.587h3.218v4.039h-5.223v-2.02zm14.283-3.727c0-.34.136-.652.364-.872.219-.23.529-.367.866-.367h1.468v1.111h-.137c-.593-.01-.902-.01-1.112.183-.228.211-.228.533-.219 1.193h-1.23v-1.248zm6.325 2.304c.356.358.584.872.584 1.423v2.02h-5.223v-4.039h3.208c.556 0 1.058.229 1.431.596zm1.249 15.368v3.773h-21.31v-15.193h21.31v11.42zm2.889-15.983a6.024 6.024 0 014.302-1.79c1.677 0 3.2.679 4.302 1.79a6.074 6.074 0 011.769 4.104h-.875c-.064-1.359-.593-2.589-1.486-3.498l-.009-.009a5.188 5.188 0 00-3.701-1.542 5.207 5.207 0 00-3.709 1.542 5.28 5.28 0 00-1.513 3.507h-.857a6.17 6.17 0 011.777-4.104zm5.77 4.104h-2.935a1.41 1.41 0 01.419-.827c.264-.275.638-.44 1.048-.44.41 0 .784.165 1.049.44.218.221.364.505.419.827zm.419 0c-.055-.441-.219-.854-.51-1.157a1.96 1.96 0 00-1.377-.569c-.537 0-1.02.22-1.376.569-.292.303-.465.716-.519 1.157h-2.89a4.856 4.856 0 011.395-3.186 4.81 4.81 0 013.39-1.414c1.322 0 2.516.542 3.382 1.423a4.817 4.817 0 011.403 3.177h-2.898zm4.84 11.649h-13.462v-11.19h13.462v11.19zm-13.462 2.653h13.471v1.35h-13.471v-1.35zm13.462-.459h-13.462v-1.726h13.462v1.726zm-69.472-3.066c-5.769 2.818-12.286 4.663-17.773 4.847-.529-.028-.884-.211-1.075-.487-.237-.33-.31-.798-.31-1.285l.009-4.663c.064-2.46.948-9.979 2.233-16.056.83-3.929 1.814-7.225 2.816-8.124.429-.368.93-.652 1.522-.845h.019a8.497 8.497 0 012.105-.367c2.871-.202 6.362-.23 9.48-.257l.974-.009v27.246zm-13.462 4.875c4.412-.726 9.133-2.286 13.462-4.379v4.379H63.932zm28.228 0H77.85v-4.581a.478.478 0 01.073-.028c5.651-2.809 10.546-6.554 13.007-10.584h1.23v15.193zm19.013-15.193v15.193H92.616v-15.193h18.557zm15.431-.505h-9.834v-4.039h9.834v4.039zm-38.536-15.817c.574.33.939.807 1.175 1.432.247.651.365 1.496.465 2.552l.875 12.044c-2.388 3.947-7.182 7.619-12.733 10.401v-27.035c1.933-.009 4.32.055 6.344.183 1.841.11 3.336.257 3.874.423zm-31.3 35.499v-3.526h90.098v3.526H56.768zm-11.02-47.094v1.579l-.847 3.47h-.793V383.54h.793l.848 3.47v1.57zm13.663 11.126a2.142 2.142 0 01-.4.312c-.365.212-.72.239-1.03.157h-.019a1.757 1.757 0 01-.775-.45.808.808 0 01-.182-.23l-12.897-24.758v-1.772l22.404 10.474v7.078c0 .257.118.496.291.68h.01c.127.128.291.229.464.312.119.046.265.055.401.073l-8.267 8.124zm.192 5.554l-2.206-4.911c.155.101.274.229.465.275h.01a1.82 1.82 0 001.357-.202 2.21 2.21 0 00.502-.394l1.002-.992.593 1.313c-.429.716-.784 1.597-1.14 2.763a57.218 57.218 0 00-.583 2.148zm7.629-10.364c.31.744.802 1.368 1.276 1.9l.775.909a61.118 61.118 0 00-2.99.193c-1.996.211-3.236.597-4.129 1.395-.2.184-.374.386-.547.606l-.538-1.193 5.943-5.839c-.082.753-.027 1.442.21 2.029zm-21.693-77.094l8.322 24.272-.474.147a.229.229 0 00-.137.294l12.24 36.289c.037.11.165.174.283.137l.484-.156.182.542-.383.11c-.118.046-.191.174-.146.294l.83 2.671c-.092.175-.128.367-.164.551l-22.468-10.484v-54.584c.638 0 1.03-.018 1.431-.083zm23.087 120.699h1.404v.762h-.219a.228.228 0 00-.228.202l-.164.56h-.856l-.174-.597c-.027-.101-.118-.156-.218-.165h-1.085a.228.228 0 00-.228.202l-.164.56h-.857l-.164-.542c-.018-.11-.127-.174-.228-.165l-1.139.11a.233.233 0 00-.2.184l-.1.514-.74.046-.145-.45a.235.235 0 00-.237-.156l-1.039.101c-.1 0-.182.092-.2.193l-.092.541-.738.074-.191-.523c-.037-.092-.137-.157-.228-.147l-1.03.101a.222.222 0 00-.2.183l-.092.542-.738.073-.191-.514a.228.228 0 00-.237-.147l-1.021.092a.224.224 0 00-.2.193l-.092.551-.738.064-.192-.514a.228.228 0 00-.237-.147l-1.02.092a.216.216 0 00-.201.193l-.091.541-.738.074-.2-.524c-.028-.091-.128-.147-.229-.137l-1.02.091a.234.234 0 00-.21.193l-.082.542-.748.073-.191-.523a.22.22 0 00-.228-.138l-1.03.092a.233.233 0 00-.2.193l-.092.542-.738.073-.182-.523c-.046-.092-.137-.156-.237-.147l-1.03.101a.234.234 0 00-.2.183l-.092.551-.738.074-.191-.514c-.037-.111-.137-.156-.237-.156l-1.021.1a.235.235 0 00-.2.184l-.092.551-.738.073-.192-.523a.228.228 0 00-.237-.147l-1.03.101c-.109.009-.182.092-.2.193l-.073.532-.42.055v-7.646h2.58a.232.232 0 00.228-.23v-40.383h.966c.119 0 .21-.092.228-.202.593-2.432.902-2.983.902-5.306 0-2.322-.31-2.864-.902-5.306a.228.228 0 00-.228-.193h-.966v-7.371c4.156 7.959 8.513 15.982 12.496 23.996l2.817 6.261c-.638 2.552-1.258 5.554-1.778 8.51-.738 4.232-1.267 8.363-1.33 10.878v10.548c0 .129.1.23.227.23h11.858v2.139c0 .128.1.229.228.229zm92.039-6.169l-1.586-13.568c-.082-.762-.401-1.45-.893-1.946l-.009-.018a2.533 2.533 0 00-1.823-.762h-9.698c-.064-1.735-.765-3.287-1.896-4.425a6.481 6.481 0 00-4.621-1.928 6.47 6.47 0 00-4.621 1.928 6.602 6.602 0 00-1.896 4.425h-.884v-2.066c0-.679-.282-1.303-.72-1.753a2.455 2.455 0 00-1.75-.726h-3.208c0-.523 0-.78.073-.853.073-.074.319-.074.802-.064h.364a.226.226 0 00.228-.23v-1.57c0-.128-.1-.229-.218-.229h-1.705c-.465 0-.884.193-1.194.495a1.714 1.714 0 00-.492 1.203v1.248h-11.822c-.674 0-1.294.276-1.741.726a2.49 2.49 0 00-.72 1.753v2.066h-4.511v-1.12h.92a.226.226 0 00.228-.23v-5.26h.456a.233.233 0 00.228-.229.222.222 0 00-.055-.147 3.526 3.526 0 00-.848-.845c-.701-.486-1.576-.734-2.442-.734-.866 0-1.741.248-2.443.734-.328.239-.62.523-.857.863a.235.235 0 00.055.321.25.25 0 00.137.037h.446v5.26c0 .129.1.23.237.23h.72v1.12H92.598l-1.003-13.587c-.082-1.101-.364-2.029-.902-2.763l-.01-.009c-.537-.744-1.33-1.267-2.47-1.579 0 0 0 .018-.009.018-.009-.009-.009-.018-.009-.018-2.406-.349-6.216-.514-10.062-.542h-2.206l-4.21-9.538c-.01-.009-.01 0-.01-.009v-4.728c0-.541-.228-1.037-.583-1.404l-1.076-3.461a.238.238 0 00-.282-.156l-.474.156-.192-.569.41-.138c.119-.037.174-.174.137-.284l-12.259-36.234c-.036-.119-.173-.184-.292-.147l-.428.138-8.267-24.162c.073-.027.146-.055.219-.092l.018-.009c.51-.294.811-.78.948-1.294a2.9 2.9 0 00-.036-1.506 2.223 2.223 0 00-.183-.45l-3.582-6.563a.234.234 0 00-.2-.129h-1.477V237.11l5.469-7.463h5.469c.647 0 1.212-.23 1.722-.56.748.945 1.677 1.542 2.67 1.799a5.142 5.142 0 002.863-.119 5.171 5.171 0 002.36-1.607l.019-.018c.674-.835 1.093-1.919 1.093-3.195 0-1.404-.565-2.68-1.476-3.598a5.024 5.024 0 00-3.573-1.487c-.939 0-1.814.257-2.57.697a5.157 5.157 0 00-1.732 1.763c-.428-.193-.884-.321-1.376-.321h-5.47l-5.431-7.39c1.804-3.112 3.49-6.215 5.213-9.382a2.17 2.17 0 00.2-.468c.128-.441.156-.983.028-1.488-.137-.523-.438-1-.957-1.303-.064-.037-.146-.055-.219-.092.474-.211.857-.606.903-1.285l.164-1.726c0-.009.009-.009.009-.018 0-.01-.01-.01-.01-.019l.53-5.572a1.738 1.738 0 00-.374-1.166h-.01a1.615 1.615 0 00-1.066-.597 1.596 1.596 0 00-1.158.331l-.018.018a1.642 1.642 0 00-.583 1.102l-.182 2.093-.31 3.516s-.01 0-.01.009.01.009.01.018l-.155 1.754c-.028.349.045.642.173.881-.61-.156-1.048-.193-2.215-.202v-95.408a.232.232 0 00-.228-.229h-2.607v-1.552a2.488 2.488 0 001.523-.688c.446-.45.729-1.083.729-1.772v-2.102l10.18-2.855c.138.321.302.643.575.854l.01.009c.118.092.263.156.41.22-.074.588-.056 2.626-.046 3.773v.643c0 .835.464 1.377 1.057 1.615.219.092.465.138.71.138.238 0 .484-.046.712-.138.592-.238 1.057-.78 1.048-1.615l.01-.643c0-1.138.017-3.148-.047-3.764a1.999 1.999 0 001.204-1.826v-.845l.647-.184a4.822 4.822 0 002.333-1.744c.556-.79.884-1.744.884-2.781a4.754 4.754 0 00-1.385-3.37 4.694 4.694 0 00-3.354-1.404H21.75V18.333h1.276a.225.225 0 00.228-.22v-2.121c0-.12-.1-.23-.228-.23H21.75v-5.26c0-.129-.1-.23-.219-.23h-.857V5.985c0-1-.41-1.91-1.066-2.57a3.568 3.568 0 00-2.552-1.065h-8.04V.23A.23.23 0 008.79 0H5.61a.232.232 0 00-.229.23v2.12h-.747c-.994 0-1.896.404-2.552 1.065a3.635 3.635 0 00-1.058 2.57v4.343c-.556.119-.683.651-.683 1.276.018.266.009.56.018.826 0 .238.1.468.264.633a.91.91 0 00.63.257h3.7a.87.87 0 00.428-.1v74.623a4.74 4.74 0 00-1.34 3.287c0 1.267.52 2.423 1.34 3.286v38.988a1.296 1.296 0 001.285 1.303h1.44c3.956 1.019 5.87 1.735 8.568 2.066v6.811l-5.514.946c-.438.083-.73.266-.902.477l-.01.009a.804.804 0 00-.173.496c0 .165.046.331.128.468l.018.019c.155.248.428.45.802.551l5.651 1.009v5.655l-5.514.937c-.438.091-.73.266-.902.477l-.01.018a.778.778 0 00-.173.487.9.9 0 00.146.496c.155.238.428.44.802.541l5.651 1.019v5.536l-5.514.945c-.447.092-.748.276-.912.487a.818.818 0 00-.173.495c0 .175.046.34.146.487.155.248.428.45.802.551l5.651 1.01v5.544l-5.514.946c-.438.083-.73.257-.902.468l-.01.018a.784.784 0 00-.173.496c0 .165.046.321.128.468l.018.019c.155.238.428.45.802.541l5.651 1.019v5.536l-5.514.945c-.447.092-.748.276-.912.487a.82.82 0 00-.173.496c0 .174.046.339.146.495.155.239.428.441.802.542l5.651 1.019v5.535l-5.514.946c-.438.083-.73.266-.902.477l-.01.01a.8.8 0 00-.173.495c0 .166.046.322.128.468l.018.019c.155.248.428.45.802.541l5.651 1.019v5.545l-5.514.936c-.447.092-.748.276-.912.496a.784.784 0 00-.173.496c0 .165.046.33.146.486.155.239.428.45.802.542l5.651 1.019v5.536l-5.514.945c-.438.092-.73.266-.902.478l-.01.009a.781.781 0 00-.173.495c0 .166.046.331.128.478l.018.009c.155.248.428.45.802.551l5.651 1.019v5.535l-5.514.946c-.447.092-.748.266-.912.486a.784.784 0 00-.173.496.87.87 0 00.146.487c.155.238.428.449.802.55l5.651 1.01v5.545l-5.514.936c-.438.092-.73.267-.902.478l-.01.009a.82.82 0 00-.173.496c0 .165.046.33.128.477l.018.009c.155.248.428.459.802.551l5.651 1.019v5.535l-5.514.946c-.438.083-.73.257-.902.477l-.01.009a.784.784 0 00-.173.496c0 .165.046.34.146.487.155.238.428.45.802.551l5.651 1.009v5.536l-5.514.945c-.438.092-.73.276-.902.478l-.01.009a.825.825 0 00-.173.505c0 .156.046.321.128.468l.018.018c.155.239.428.45.802.542l5.651 1.019v5.618l-5.514.946c-.447.082-.748.266-.912.486a.802.802 0 00-.173.496c0 .165.046.34.146.487.155.238.428.449.802.55l5.651 1.01v5.627l-5.514.946c-.438.083-.73.257-.902.468l-.01.019a.78.78 0 00-.173.495c0 .166.046.331.146.487.155.238.428.44.802.541l5.651 1.019v5.619l-5.514.945c-.438.092-.73.257-.902.477l-.01.01a.8.8 0 00-.173.495c0 .166.046.34.146.487.155.239.428.45.802.551l5.651 1.01v5.627l-5.514.936c-.438.092-.73.266-.902.478l-.01.009a.825.825 0 00-.173.505c0 .156.046.321.128.468l.018.018c.155.239.428.441.802.542l5.651 1.019v5.618l-5.514.945c-.447.083-.748.267-.912.487a.821.821 0 00-.173.496c0 .165.046.339.146.486.155.239.428.45.802.551l5.651 1.01v5.618l-5.514.955c-.438.082-.73.257-.902.468l-.01.018a.784.784 0 00-.173.496.89.89 0 00.146.487c.155.238.428.449.802.541l5.651 1.019v5.618l-5.514.946c-.438.082-.73.266-.902.477l-.01.009a.802.802 0 00-.173.496c0 .165.046.321.128.468l.018.019c.155.238.428.449.802.55l5.651 1.01v5.618l-5.514.946c-.438.092-.73.266-.902.477l-.01.019a.781.781 0 00-.173.495c0 .156.046.322.128.469l.018.018c.155.239.428.45.802.542l5.651 1.019v5.618l-5.514.945c-.438.083-.73.266-.902.478l-.01.009a.82.82 0 00-.173.496c0 .165.046.33.146.486.155.248.428.45.802.542l5.651 1.019v5.618l-5.514.945c-.438.092-.73.267-.902.478l-.01.009a.8.8 0 00-.173.496c0 .165.046.339.146.486.155.248.428.459.802.551l5.651 1.019v5.618l-5.514.946c-.438.082-.73.266-.902.468l-.01.018a.782.782 0 00-.173.496c0 .165.046.321.128.468l.018.018c.155.248.428.45.802.551l5.651 1.01v5.618l-5.514.946c-.447.092-.748.275-.912.486a.827.827 0 00-.173.505.89.89 0 00.146.487c.155.238.428.44.802.541l5.651 1.019v5.618l-5.514.946c-.438.083-.73.257-.902.468l-.01.019a.8.8 0 00-.173.495c0 .166.046.331.146.487.155.238.428.45.802.551l5.651 1.009v5.619l-5.514.945c-.438.092-.73.266-.902.477l-.01.01a.818.818 0 00-.173.495c0 .166.046.331.128.469l.018.018c.155.248.428.45.802.551l5.651 1.009v5.628l-5.514.945c-.438.083-.73.257-.902.469l-.01.018a.782.782 0 00-.173.496c0 .165.046.321.128.468l.018.018c.155.239.428.45.802.551l5.651 1.01v5.618l-5.514.945c-.447.083-.748.276-.912.496a.782.782 0 00-.173.496c0 .165.046.33.146.486.155.239.428.441.802.542l5.651 1.01v5.627l-5.514.946c-.438.082-.73.257-.902.468l-.01.018a.784.784 0 00-.173.496.89.89 0 00.146.487c.155.238.428.449.802.541l5.651 1.019v5.655l-5.195.891H10c-.127 0-.228.1-.228.22v9.409c0 .12.1.221.228.221h6.672v1.129l-5.514.945c-.438.092-.73.276-.902.478l-.01.009a.807.807 0 00-.173.505c0 .156.046.321.128.468l.018.018c.155.239.428.45.802.551l5.651 1.01v4.764l-5.514.946c-.447.092-.748.275-.912.496a.773.773 0 00-.173.486c0 .175.046.34.146.496.155.239.428.45.802.541l5.651 1.019v4.875l-5.514 1.166c-.465.064-.775.211-.93.395a.543.543 0 00-.155.376c0 .129.046.266.128.376.155.193.437.358.82.432l5.651.009v1.359l-5.833.468c-.01 0-.01.009-.01.009-.355.009-.592.202-.692.468a.865.865 0 00-.055.312.98.98 0 00.055.312l.01.01a.723.723 0 00.701.459h5.87c.045.44.21.982.492 1.413l.01.019c.29.45.683.78 1.13.78h.628c.164 0 .31-.083.456-.165.009 0 .009.018.018.018l7.21-.955v-.009c.355-.018.583-.211.683-.468a.86.86 0 00.064-.303.91.91 0 00-.064-.312l-.009-.018a.725.725 0 00-.702-.459h-5.987v-1.414l5.998-.413h.009a.732.732 0 00.692-.468.96.96 0 00.064-.313.91.91 0 00-.064-.312l-.009-.009c-.1-.266-.346-.459-.702-.459h-5.988v-2.671l6.016-1.423c.273-.083.492-.248.62-.432l.009-.018a.725.725 0 00.127-.431.675.675 0 00-.164-.432c-.136-.183-.392-.339-.774-.422l-5.834-1.102v-3.874l6.025-2.056c.291-.11.51-.275.629-.459a.905.905 0 00.127-.441.775.775 0 00-.182-.44c-.146-.175-.4-.322-.765-.395l-5.834-1.102v-3.901l4.202-1.441h9.561v2.57c0 .129.1.23.228.23h2.634v7.913l.01.055v.009l.163.606-.638.376-.483-.477a.215.215 0 00-.3-.019l-.593.432c-.091.073-.118.202-.064.294l.328.578-.52.523-.6-.339a.212.212 0 00-.292.055l-.447.56a.234.234 0 00.018.293l.456.459-.365.652-.647-.174c-.11-.037-.219.027-.273.128l-.283.689c-.045.101 0 .22.091.284l.502.294-.183.707h-.601c-.119 0-.219.101-.228.23l-.1.789c-.019.119.063.22.173.248l.465.128v.735l-.474.128a.238.238 0 00-.164.248l.109.845c.027.11.118.183.228.183h.492l.182.726-.41.238c-.1.055-.136.184-.09.294l.3.716c.045.101.164.147.264.129l.556-.156.374.642-.392.395c-.091.092-.091.239-.01.321l.457.579c.072.082.2.1.3.036l.492-.284.52.532-.282.487c-.046.101-.028.229.063.284l.611.459a.235.235 0 00.3-.027l.402-.404.638.376-.137.523a.22.22 0 00.137.276l.729.284a.234.234 0 00.283-.11l.264-.459.71.193v.496c0 .128.092.22.21.229l.766.083c.11 0 .21-.074.237-.184l.128-.486h.738l.137.514a.224.224 0 00.218.165h1.049c.109 0 .2-.083.218-.193l.137-.486h.757l.136.514a.224.224 0 00.219.165h1.085c.109 0 .2-.083.227-.193l.128-.486h.757l.136.514a.224.224 0 00.22.165h1.22c.11 0 .201-.083.22-.193l.136-.486h.756l.128.514a.243.243 0 00.228.165h1.212c.119 0 .21-.083.228-.193l.128-.486h.756l.146.514a.224.224 0 00.219.165h1.221c.11 0 .2-.083.219-.193l.136-.486h.748l.137.514a.241.241 0 00.218.165h1.222c.118 0 .21-.083.228-.193l.136-.486h.748l.136.514a.232.232 0 00.22.165h1.22c.12 0 .21-.083.228-.193l.128-.486h.757l.136.514a.224.224 0 00.219.165h1.221c.11 0 .21-.083.228-.193l.128-.486h.756l.137.514a.224.224 0 00.219.165h1.221c.11 0 .21-.083.228-.193l.128-.486h.756l.137.514a.224.224 0 00.219.165h1.221c.11 0 .21-.083.228-.193l.127-.486h.757l.137.514a.224.224 0 00.218.165h1.222c.11 0 .2-.083.219-.193l.136-.486h.757l.136.514a.224.224 0 00.22.165h1.23c.11 0 .2-.083.218-.193l.137-.486h.757l.136.514a.224.224 0 00.22.165h1.23c.109 0 .2-.083.218-.193l.137-.486h.748l.145.514a.241.241 0 00.22.165h1.239c.118 0 .21-.083.227-.193l.137-.486h.757l.146.514a.243.243 0 00.227.165h1.23c.12 0 .21-.083.229-.193l.146-.486h.747l.155.514c.027.101.11.165.219.165h1.23c.119 0 .21-.083.228-.193l.146-.486h.747l.155.514a.222.222 0 00.21.165h1.24c.118 0 .21-.083.227-.193l.146-.486h.748l.154.514a.224.224 0 00.22.165h1.23c.1 0 .191-.064.218-.165l.164-.514h.748l.137.514a.224.224 0 00.218.165h1.23c.11 0 .201-.083.22-.193l.136-.486h.757l.136.514a.224.224 0 00.22.165h1.23c.11 0 .2-.083.218-.193l.137-.486h.757l.136.514a.224.224 0 00.22.165h1.23c.109 0 .2-.083.218-.193l.137-.486h.757l.136.514c.019.101.119.165.22.165h1.23c.109 0 .2-.083.218-.193l.137-.486h.757l.136.514c.019.101.119.165.219.165h1.23c.11 0 .201-.083.219-.193l.137-.486h.756l.137.514c.018.101.119.165.219.165h1.23c.11 0 .201-.083.219-.193l.137-.486h.747l.137.514c.027.101.128.165.228.165h1.23c.11 0 .201-.083.219-.193l.137-.486h.747l.137.514c.027.101.118.165.228.165h1.221c.119 0 .21-.083.228-.193l.137-.486h.747l.137.514c.027.101.118.165.228.165h1.221c.109 0 .21-.083.228-.193l.128-.486h.756l.137.514a.223.223 0 00.218.165h1.231c.109 0 .21-.083.228-.193l.137-.486h.747l.137.514a.223.223 0 00.218.165h1.231c.109 0 .21-.083.228-.193l.136-.486h.748l.137.514a.223.223 0 00.218.165h1.231c.118 0 .2-.083.228-.193l.127-.486h.757l.136.514a.225.225 0 00.219.165h1.03c.119 0 .21-.083.228-.193l.128-.486h.747l.119.495a.25.25 0 00.237.175l.783-.083a.235.235 0 00.201-.229v-.496l.711-.193.273.468a.221.221 0 00.265.101l.711-.275.027-.009h.009l.046-.037.009-.009h.009v-.009l.009-.009h.009l.009-.01.009-.009v-.009l.009-.009v-.009l.009-.01v-.009l.01-.009v-.138l-.146-.523.647-.376.401.404v.009h.009v.009h.009l.028.018.018.01.009.009.018.009h.027l.01.009h.072l.01-.009h.027l.009-.009h.009l.018-.009.009-.01.019-.009.009-.009h.009l.574-.431.009-.01.009-.009h.01v-.009h.009v-.009l.009-.009.009-.01.009-.009.009-.009v-.009l.009-.009v-.009l.009-.01v-.009l.009-.009v-.128l-.009-.01v-.009l-.009-.009v-.009l-.009-.009v-.01l-.009-.009-.264-.468.519-.532.501.293a.233.233 0 00.292-.055l.465-.587a.25.25 0 00-.018-.303l-.401-.386.373-.651.556.156c.11.018.228-.028.274-.129l.301-.725a.23.23 0 00-.092-.285l-.419-.238.192-.726h.492c.118 0 .209-.091.228-.211l.109-.817a.242.242 0 00-.173-.248l-.474-.128v-.735l.474-.137h.027l.009-.009h.009l.019-.01.027-.027h.009l.009-.019.009-.009h.009v-.018l.01-.009.009-.019h.009v-.018l.009-.018v-.028h.009v-.073l-.009-.009-.1-.79a.245.245 0 00-.228-.202h-.593l-.191-.707.51-.294a.231.231 0 00.082-.302l-.282-.661v-.019l-.009-.009-.009-.009v-.009l-.009-.01v-.009h-.01v-.009h-.009v-.009l-.009-.009h-.009l-.009-.009-.009-.01h-.009l-.009-.009-.01-.009h-.009l-.009-.009h-.027v-.009h-.109l-.01.009h-.009l-.629.174-.373-.652.455-.459h.01v-.009h.009v-.009h.009l.009-.009v-.018h.009v-.01l.009-.027.009-.009v-.12l-.018-.036v-.019h-.009v-.009l-.018-.018v-.009l-.009-.01-.01-.009-.428-.541c-.073-.083-.2-.111-.292-.056l-.601.349-.52-.523.328-.578a.237.237 0 00-.054-.294l-.611-.441a.222.222 0 00-.292.028l-.474.477-.638-.376.155-.606.009-.073v-.037h-.009v-.009l-.009-.019v-.018l-.009-.009v-.009l-.009-.01v-.009l-.009-.009-.009-.009h-.009v-.009l-.009-.01v-.009l-.037-.027h-.027l-.009-.009h-.019l-.665-.257-.018-.01h-.028l-.009-.009h-.009a.23.23 0 00-.155.037h-.009l-.027.018v.009l-.028.028v.009l-.009.009-.009.009v.01l-.264.514-.729-.165-.018-.588a.236.236 0 00-.21-.22l-.912-.092a.22.22 0 00-.227.138l-.219.541-.729-.092-.073-.532a.225.225 0 00-.21-.193l-1.03-.101a.247.247 0 00-.246.165l-.182.505-.739-.073-.082-.551a.233.233 0 00-.2-.184l-1.03-.1a.227.227 0 00-.237.165l-.191.505-.739-.074-.091-.551c-.009-.101-.1-.174-.2-.183l-1.021-.101a.221.221 0 00-.237.165l-.192.505-.738-.073-.091-.542a.232.232 0 00-.201-.193l-1.02-.092a.222.222 0 00-.246.156l-.183.505-.738-.073-.091-.542a.233.233 0 00-.201-.193l-1.03-.091c-.1-.019-.2.055-.237.165l-.182.496-.738-.074-.091-.541a.234.234 0 00-.201-.193l-1.021-.092c-.118-.009-.218.055-.246.165l-.182.496-.738-.064-.091-.551a.234.234 0 00-.201-.193l-1.03-.092a.23.23 0 00-.237.166l-.182.495-.739-.073-.091-.542a.232.232 0 00-.209-.183l-1.021-.101a.227.227 0 00-.237.165l-.192.505-.729-.074-.1-.541c-.009-.101-.1-.193-.2-.193l-1.021-.101a.245.245 0 00-.246.165l-.183.505-.738-.073-.082-.542c-.027-.11-.109-.184-.21-.193l-1.03-.101a.231.231 0 00-.246.175l-.155.541h-.856l-.183-.615c-.027-.101-.118-.156-.218-.165h-.21v-.762h1.103a.234.234 0 00.237-.229v-2.139h58.871l.255-.01c.638-.073 1.221-.431 1.632-1 .401-.551.656-1.313.656-2.203 0-.184-.009-.377-.037-.588zM38.238 101.889c.146-.367.483-.652 1.021-.652.529 0 .875.285 1.012.652.064.156.091.312.091.477 0 .165-.027.331-.091.478-.137.367-.483.661-1.012.661-.538 0-.875-.294-1.02-.661a1.207 1.207 0 01-.092-.478c0-.165.028-.321.091-.477zm1.021 2.065c.748 0 1.23-.413 1.44-.945a1.71 1.71 0 00.119-.643c0-.22-.037-.44-.119-.642-.21-.533-.692-.955-1.44-.955-.756 0-1.23.422-1.45.955a1.709 1.709 0 00-.118.642c0 .221.037.441.119.643.219.532.693.945 1.45.945zm17.637-14.229a1.84 1.84 0 012.607 0 1.9 1.9 0 01.537 1.313 1.9 1.9 0 01-.537 1.313 1.84 1.84 0 01-2.607 0 1.9 1.9 0 01-.538-1.313c0-.505.21-.973.538-1.313zm1.303 3.626c.638 0 1.203-.257 1.623-.679.419-.413.674-1 .674-1.634a2.28 2.28 0 00-.674-1.634 2.264 2.264 0 00-1.623-.68c-.638 0-1.212.258-1.622.68a2.28 2.28 0 00-.675 1.634c0 .633.256 1.221.675 1.634.41.422.984.68 1.622.68zm-29.002-2.313c0 .514-.21.973-.538 1.313-.337.33-.793.541-1.303.541-.51 0-.967-.21-1.304-.541a1.883 1.883 0 01-.538-1.313c0-.514.21-.973.538-1.313.337-.33.793-.541 1.303-.541.51 0 .967.21 1.304.541.328.34.538.799.538 1.313zm-3.464-1.634a2.28 2.28 0 00-.674 1.634c0 .633.255 1.212.674 1.634.41.422.994.68 1.622.68.63 0 1.213-.258 1.623-.68.42-.422.674-1 .674-1.634a2.28 2.28 0 00-.674-1.634 2.264 2.264 0 00-1.623-.68c-.628 0-1.212.258-1.622.68zm-18.42.321c.328-.33.792-.541 1.294-.541a1.856 1.856 0 011.85 1.854 1.856 1.856 0 01-1.85 1.854 1.83 1.83 0 01-1.294-.541 1.86 1.86 0 01-.538-1.313c0-.505.2-.973.537-1.313zm1.294 3.626c.638 0 1.212-.257 1.631-.679a2.319 2.319 0 000-3.268 2.285 2.285 0 00-3.254 0 2.31 2.31 0 00-.665 1.634c0 .633.255 1.221.665 1.634.42.422.994.68 1.623.68zm10.363-1a1.84 1.84 0 01-1.303.541c-.502 0-.966-.21-1.295-.541a1.869 1.869 0 01-.546-1.313 1.858 1.858 0 011.841-1.854 1.855 1.855 0 011.85 1.854c0 .505-.21.973-.547 1.313zm-1.303-3.626a2.28 2.28 0 00-1.623.679 2.318 2.318 0 000 3.268 2.28 2.28 0 003.245 0c.42-.413.674-1 .674-1.634a2.28 2.28 0 00-.674-1.634 2.248 2.248 0 00-1.622-.68zm52.28 298.717c-.081.239-.309.422-.646.422a.65.65 0 01-.638-.422.768.768 0 01-.055-.294c0-.11.018-.211.055-.303a.652.652 0 01.638-.422c.337 0 .565.184.647.422a.67.67 0 01.064.303.632.632 0 01-.064.294zm-.646-1.469c-.547 0-.903.303-1.067.698a1.387 1.387 0 00-.09.477c0 .156.036.321.09.468.165.395.52.707 1.067.707.565 0 .92-.312 1.075-.707a1.419 1.419 0 000-.945c-.155-.395-.52-.698-1.075-.698zm-8.823 2.993a2.905 2.905 0 01-4.129 0 2.94 2.94 0 01-.857-2.075 2.937 2.937 0 012.917-2.947c.811 0 1.54.34 2.069.863.529.533.857 1.267.857 2.084a2.94 2.94 0 01-.857 2.075zm-2.07-5.481a3.36 3.36 0 00-2.378 1.001 3.405 3.405 0 00-.984 2.405c0 .936.373 1.781.984 2.396a3.35 3.35 0 002.379.992c.939 0 1.777-.377 2.388-.992.61-.615.984-1.46.984-2.396 0-.936-.373-1.79-.984-2.405a3.35 3.35 0 00-2.388-1.001zm3.61 7.032a5.068 5.068 0 01-7.21 0 5.144 5.144 0 01-1.494-3.635c0-1.414.574-2.699 1.495-3.626a5.027 5.027 0 013.6-1.506c1.413 0 2.689.569 3.61 1.506a5.139 5.139 0 011.494 3.626 5.144 5.144 0 01-1.495 3.635zm-3.61-9.226a5.513 5.513 0 00-3.928 1.644 5.598 5.598 0 00-1.622 3.947c0 1.542.62 2.947 1.623 3.957a5.516 5.516 0 003.928 1.643c1.54 0 2.926-.625 3.928-1.643a5.577 5.577 0 001.632-3.957c0-1.533-.62-2.938-1.632-3.957a5.513 5.513 0 00-3.928-1.634zm2.763 67.18h-7.912v-1.708h7.912v1.708zm-8.14-2.176a.232.232 0 00-.228.229v2.176c0 .138.1.239.228.239h8.367c.128 0 .228-.101.228-.239v-2.176c0-.119-.1-.229-.228-.229h-8.367zm52.965.459h7.921v1.717h-7.921v-1.717zm8.149 2.185c.118 0 .218-.101.218-.239v-2.176c0-.119-.1-.229-.218-.229h-8.377c-.118 0-.219.11-.219.229v2.176c0 .138.101.239.219.239h8.377zm7.665 1.257c0-.89.355-1.689.93-2.267a3.172 3.172 0 014.502 0l.009.009c.575.578.93 1.377.93 2.258 0 .891-.365 1.689-.939 2.268a3.172 3.172 0 01-4.502 0 3.2 3.2 0 01-.93-2.268zm5.751 2.589a3.63 3.63 0 001.067-2.589 3.638 3.638 0 00-1.058-2.579l-.009-.009a3.616 3.616 0 00-5.14 0 3.667 3.667 0 00-1.067 2.588c0 1.01.41 1.928 1.067 2.589a3.616 3.616 0 005.14 0zm-22.285-10.052l2.434 2.433c.045.046.1.073.155.073h10.099v6.646h-13.335c-.027-.165-.073-.321-.182-.431a.695.695 0 00-.493-.202h-.683v-7.509a.876.876 0 00-.255-.624.877.877 0 00-.629-.267h-5.642a.876.876 0 00-.63.267.925.925 0 00-.263.624v7.509h-.684a.654.654 0 00-.465.193l-.018.009a.712.712 0 00-.182.431H73.466a.79.79 0 00-.173-.431.727.727 0 00-.492-.202h-.684v-7.509a.925.925 0 00-.264-.624.86.86 0 00-.629-.267h-5.642a.856.856 0 00-.62.267.885.885 0 00-.264.624v7.509h-.684a.727.727 0 00-.492.202c-.11.11-.155.266-.173.431H48.465v-6.453h11.721a.218.218 0 00.164-.064l2.871-2.929 2.644-.238h6.234l1.422 2.487a.228.228 0 00.2.111h20.217a.228.228 0 00.2-.111l1.422-2.487h3.746l5.97.532zm24.956 7.61a5.9 5.9 0 01-1.723 4.186 5.797 5.797 0 01-4.147 1.735H48.465v-2.744h14.884c.027.348.164.679.401.918a1.47 1.47 0 001.04.431h7.236a1.45 1.45 0 001.03-.431 1.52 1.52 0 00.41-.918h21.037c.036.348.173.679.41.918.264.266.629.431 1.039.431h7.228c.401 0 .756-.156 1.021-.413l.027-.018a1.57 1.57 0 00.401-.918h12.387v1.441c0 .119.1.22.228.22h5.824a.222.222 0 00.218-.22v-.432c.529.202 1.103.34 1.705.34a4.602 4.602 0 003.281-1.368 4.638 4.638 0 001.367-3.305c0-1.285-.519-2.46-1.367-3.314a4.597 4.597 0 00-3.281-1.358c-.602 0-1.176.128-1.705.339v-.853c0-.129-.1-.239-.218-.239h-4.649v-.881l6.617.578a5.872 5.872 0 013.71 1.946 5.937 5.937 0 011.486 3.929zm-95.293 0a5.9 5.9 0 011.495-3.929 5.85 5.85 0 013.7-1.946l.547-.046v.606c-1.33.055-2.552.588-3.436 1.487a5.178 5.178 0 00-1.513 3.681c0 1.432.574 2.745 1.513 3.691.4.404.875.707 1.394.964.028.091.073.174.173.174.028 0 .028-.037.046-.046a5.064 5.064 0 001.823.432v.844a5.88 5.88 0 01-4.02-1.726 5.925 5.925 0 01-1.722-4.186zm2.625 3.213a4.77 4.77 0 01-1.386-3.36 4.81 4.81 0 011.386-3.369c.291-.284.665-.477 1.02-.688v8.106c-.355-.202-.729-.395-1.02-.689zm3.345 1.396a4.548 4.548 0 01-1.869-.395v-8.721a4.554 4.554 0 011.869-.404h7.1v10.832h-6.872v-1.083c0-.119-.1-.229-.228-.229zm22.413-1.891H48.465v-.716h14.857v.716zm54.642-8.29h-9.999l-1.978-1.974 11.977 1.056v.918zm4.867 1.285c-.374.193-.666.459-.957.716-.046.046-.119.074-.164.11-.009.01-.009.019-.019.028-.355.367-.656.771-.856 1.212-.028.055-.046.119-.064.174a2.48 2.48 0 00-.091.248c-.183.505-.31 1.028-.31 1.57-.009.027-.018.046-.018.082 0 .037.018.065.018.092 0 .523.127 1.047.31 1.552.027.082.054.174.082.247.027.065.045.129.073.184.2.441.492.845.847 1.203.009.009.009.018.019.018l.009.009c.045.046.109.064.155.11.291.267.592.524.966.726v.394h-5.36v-1.211h.72a.233.233 0 00.228-.23v-8.051h4.412v.817zm-.802 7.124l-.009-.009c-.347-.349-.602-.771-.812-1.221a4.352 4.352 0 01-.392-1.754c0-.605.146-1.202.392-1.753.21-.459.474-.881.821-1.23a4.18 4.18 0 012.962-1.239c1.157 0 2.206.477 2.962 1.239a4.226 4.226 0 011.231 2.983 4.242 4.242 0 01-1.231 2.984 4.158 4.158 0 01-2.962 1.23 4.172 4.172 0 01-2.962-1.23zm-4.065-.835v.716h-13.308v-.716h13.308zm-15.149-1.093h-6.499v-7.509a.435.435 0 01.429-.432h5.642a.434.434 0 01.428.432v7.509zm-6.726.459h7.865c.073 0 .128.028.174.074.045.036.063.1.063.165v1.441c0 .275-.109.532-.291.725h-.009a1.003 1.003 0 01-.711.294h-7.228c-.283 0-.538-.11-.72-.294a1.062 1.062 0 01-.301-.725v-1.441c0-.065.027-.129.073-.165l.009-.019a.322.322 0 01.155-.055h.92zm-1.614 1.35H73.494v-.716h20.981v.716zm-22.823-1.809h-6.498v-7.509c0-.11.054-.22.127-.303a.449.449 0 01.301-.129h5.642c.118 0 .228.055.31.129a.469.469 0 01.118.303v7.509zm-6.726.459H72.8c.064 0 .127.028.164.074.045.036.073.1.073.165v1.441c0 .275-.119.532-.301.725a1.001 1.001 0 01-.71.294h-7.238a.998.998 0 01-.71-.294 1.063 1.063 0 01-.302-.725v-1.441c0-.065.028-.129.064-.165a.232.232 0 01.173-.074h.912zm-16.689-6.729h-7.1v-.597l21.383-1.881-2.425 2.478H48.237zm46.794-2.781l-1.23 2.139H73.849l-1.221-2.139H95.03zm-29.166-.45h-.055l-25.712 2.258v.009h-.01a6.278 6.278 0 00-4 2.093 6.368 6.368 0 00-1.605 4.232c0 1.763.711 3.36 1.86 4.517l.009.009a6.32 6.32 0 004.466 1.854h83.544c1.75 0 3.327-.716 4.475-1.872a6.384 6.384 0 001.851-4.508 6.366 6.366 0 00-1.605-4.232 6.298 6.298 0 00-4.001-2.093v-.009l-25.721-2.258H65.865zm71.686-15.377h-1.24a.93.93 0 00.11-.45c-.019-.137 0-.339.009-.477 0-.284-.037-.56-.137-.789h1.258v1.716zm-2.725-1.716h.683c.41 0 .465.404.465.789l-.018.477c0 .368-.347.441-.711.45h-.419v-1.716zm.683-.469h-.911a.235.235 0 00-.228.239v2.176c0 .128.1.229.228.229.155-.009.382.009.556.019.054 0 .1-.019.155-.019h2.47a.227.227 0 00.228-.229v-2.176c0-.128-.101-.239-.228-.239h-2.27zm-59.719-1.615v.073c0 2.901 0 3.305-3.363 4.535l-.018.009h-.01c-1.13.413-2.478.845-3.837 1.23a44.666 44.666 0 01-3.8.955l-.857.156-.848.12-.802.073-.72.028c-.702.009-1.148-.092-1.385-.358-.255-.258-.337-.744-.337-1.534v-.018l.127-6.72c.037-1.037.164-1.551.556-1.781.42-.257 1.185-.257 2.443-.257l11.52.01c1.204 0 1.359.348 1.359 1.578.036.579-.019 1.304-.028 1.901zm-1.33-3.938H62.939c-1.33 0-2.142 0-2.67.312-.557.33-.748.945-.776 2.166l-.136 6.729v.018c0 .9.118 1.488.456 1.846.346.376.893.505 1.722.505l.748-.028.829-.073.866-.129.875-.156a50.812 50.812 0 003.837-.964 65.86 65.86 0 003.883-1.248l.009-.01h.018c3.646-1.331 3.646-1.771 3.646-4.957v-.073c.01-.624 0-1.276.028-1.901 0-1.588-.21-2.037-1.814-2.037zm15.513 10.244a.773.773 0 01-.237.57.779.779 0 01-.556.238h-2.917a.77.77 0 01-.565-.248.784.784 0 01-.237-.56v-4.112c0-.221.091-.423.246-.569a.76.76 0 01.556-.239h2.917a.797.797 0 01.793.808v4.112zm.09-5.012a1.236 1.236 0 00-.883-.367h-2.917c-.346 0-.656.138-.884.367-.228.23-.365.551-.365.9v4.112c0 .34.137.652.356.882l.009.009c.228.229.538.376.884.376h2.917c.337 0 .647-.147.875-.367l.009-.009c.228-.23.374-.551.374-.891v-4.112c0-.349-.146-.67-.374-.9zm-29.448-8.06c.273-1.818.628-3.663.975-5.398a114.2 114.2 0 011.203-5.186c.337-1.396.83-2.305 1.54-2.837.72-.542 1.696-.734 2.972-.734h8.485v14.072c0 .606-.109.946-.319 1.12-.2.175-.528.202-.911.202H61.945c-.747 0-1.148-.018-1.312-.165-.137-.128-.119-.459-.018-1.074zm1.33 1.698H74.56c.474 0 .884-.045 1.203-.312.31-.257.492-.707.492-1.469v-14.302a.236.236 0 00-.237-.239h-8.713c-1.377 0-2.425.23-3.236.836-.811.606-1.349 1.588-1.714 3.093a99.347 99.347 0 00-1.203 5.205 117.382 117.382 0 00-.993 5.417c-.119.78-.119 1.211.164 1.478.282.266.766.293 1.622.293zm25.612-15.266c.328.404.447 1.01.502 1.79l.856 10.071v.046c.155 1.872.183 2.267-.774 3.387-1.513 1.753-4.211 4.039-6.308 5.177-.647.358-1.23.597-1.695.671-.401.064-.693 0-.83-.23-.072-.11-.118-.294-.118-.523l.01-18.966c0-.964.045-1.487.273-1.735.218-.248.674-.275 1.467-.275h4.876c.894 0 1.431.201 1.741.587zm-8.422-.624c-.328.367-.392.973-.392 2.047l-.009 18.966c0 .312.064.569.183.762l.009.009c.246.404.702.523 1.285.431.51-.073 1.148-.339 1.841-.716 2.133-1.156 4.885-3.488 6.435-5.278 1.094-1.267 1.048-1.698.884-3.727l-.857-10.117c-.063-.862-.21-1.551-.601-2.038-.401-.504-1.048-.771-2.097-.761H80.94c-.93 0-1.467.055-1.805.422zm30.48 24.758h-1.24c.055-.119.1-.266.1-.459-.009-.128.009-.33.019-.468 0-.284-.037-.56-.137-.789h1.258v1.716zm-2.407.468h2.634c.128 0 .228-.11.228-.238v-2.176c0-.128-.1-.229-.228-.229h-3.181a.226.226 0 00-.227.229v2.176c0 .128.1.238.227.238.155-.018.383 0 .547 0z" fill="#000"/></svg>