<svg width="350" height="111" fill="none" xmlns="http://www.w3.org/2000/svg"><path d="M348.419 68.863c-.658.89-1.554 1.45-2.548 1.568a3.58 3.58 0 01-.392.021h-17.528V34.85h14.175a4.06 4.06 0 012.905 1.218c.805.806 1.33 1.947 1.484 3.2l2.919 24.947c.042.343.063.68.063 1.001 0 1.484-.413 2.737-1.078 3.647zm-57.253 23.814h-1.889V90.34h1.889v2.338zm-12.424-2.338h1.883v2.338h-1.883V90.34zm10.031 2.338h-7.644V90.34h7.644v2.338zm2.645-2.842H278.49a.247.247 0 00-.252.252v2.842a.25.25 0 00.252.252h12.928c.14 0 .252-.119.252-.252v-2.842a.251.251 0 00-.252-.252zm-72.526 2.842h-1.89V90.34h1.89v2.338zM206.46 90.34h1.89v2.338h-1.89V90.34zm10.031 2.338h-7.637V90.34h7.637v2.338zm2.653-2.842h-12.936a.251.251 0 00-.252.252v2.842c0 .133.112.252.252.252h12.936a.26.26 0 00.252-.252v-2.842a.255.255 0 00-.252-.252zm11.851 4.277c-.007.4-.014.854-.014 1.288a.79.79 0 01-.238.56.783.783 0 01-.56.231h-3.955V91.81c.651 0 1.267-.014 1.792-.02 1.554-.029 2.338-.043 2.681.202.329.238.315.861.294 2.121zm-2.982-2.828c-.546.007-1.19.021-2.03.021h-.007a.251.251 0 00-.252.252v4.886c0 .147.112.252.252.252h4.207c.357 0 .679-.147.917-.378.238-.238.385-.56.385-.917 0-.539.007-.93.014-1.274.028-1.442.042-2.142-.497-2.534-.483-.35-1.33-.336-2.989-.308zm93.274 3.073a9.606 9.606 0 01-2.828 6.811 9.606 9.606 0 01-6.818 2.821 9.614 9.614 0 01-6.811-2.821 9.594 9.594 0 01-2.814-6.81 9.596 9.596 0 012.814-6.812 9.62 9.62 0 0113.629 0 9.608 9.608 0 012.828 6.811zm-25.655 9.632c.084-.049.189-.077.273-.133l.021-.014a3.663 3.663 0 001.134-1.316 3.67 3.67 0 00.427-1.701c0-.56-.175-1.134-.462-1.673h5.74c.469.868 1.015 1.68 1.715 2.373 1.141 1.148 2.576 1.974 4.165 2.464h-13.013zm-11.122 0c.084-.049.196-.077.273-.133l.021-.014a3.682 3.682 0 001.141-1.316 3.75 3.75 0 00.42-1.701c0-.56-.175-1.134-.469-1.673h4.745c-.287.54-.462 1.113-.462 1.673 0 .595.147 1.183.42 1.701.273.525.665.987 1.155 1.33.084.056.189.084.28.133h-7.524zm-13.391 0c.084-.049.196-.077.28-.133l.014-.014a3.682 3.682 0 001.141-1.316c.273-.518.42-1.106.42-1.701 0-.56-.175-1.134-.462-1.673h7.007c-.294.54-.462 1.113-.462 1.673 0 .595.147 1.183.413 1.701.273.525.672.987 1.162 1.33.084.056.189.084.28.133h-9.793zm-7.623 0v-4.837h2.632c-.287.54-.462 1.113-.462 1.673 0 .595.147 1.183.42 1.701.273.525.665.987 1.155 1.33.084.056.189.084.28.133h-4.025zm-5.229-.133l.014-.014a3.682 3.682 0 001.141-1.316c.273-.518.42-1.106.42-1.701 0-.56-.175-1.134-.462-1.673h3.612v4.837h-5.005c.091-.049.196-.077.28-.133zm-9.226.133v-4.837h3.955c-.287.54-.462 1.113-.462 1.673 0 .595.147 1.183.42 1.701.273.525.665.987 1.155 1.33.084.056.189.084.28.133h-5.348zm-5.726-.133l.021-.014a3.751 3.751 0 001.141-1.316 3.656 3.656 0 00.413-1.701c0-.56-.168-1.134-.462-1.673h4.109v4.837h-5.495c.084-.049.189-.077.273-.133zm-13.083.133c.098-.049.203-.077.28-.133l.021-.014a3.682 3.682 0 001.141-1.316 3.75 3.75 0 00.42-1.701c0-.56-.175-1.134-.469-1.673h6.419c-.28.54-.455 1.113-.455 1.673 0 .595.147 1.183.42 1.701.273.525.665.987 1.155 1.33.084.056.189.084.28.133h-9.212zm-13.664 0c.091-.049.196-.077.28-.133l.014-.014c.49-.343.875-.798 1.141-1.316.273-.518.42-1.106.42-1.701 0-.56-.175-1.134-.462-1.673h7.28c-.28.54-.455 1.113-.455 1.673 0 .595.147 1.183.42 1.701a3.64 3.64 0 001.155 1.33c.084.056.189.084.28.133h-10.073zm-12.355 0c.091-.049.196-.077.28-.133l.021-.014a3.751 3.751 0 001.141-1.316 3.743 3.743 0 00.413-1.701c0-.56-.175-1.134-.462-1.673h5.971c-.287.54-.462 1.113-.462 1.673 0 .595.154 1.183.42 1.701.273.525.665.987 1.162 1.33.077.056.182.084.273.133h-8.757zm-9.499 0l3.57-4.837h.938c-.287.54-.462 1.113-.462 1.673 0 .595.154 1.183.42 1.701.273.525.665.987 1.162 1.33.084.056.189.084.28.133h-5.908zm-9.093 0a9.742 9.742 0 01-2.968-.469 9.469 9.469 0 01-2.555-1.267V88.988h17.808v9.835l-3.822 5.166h-8.463zm-6.027-2.114c-1.75-1.386-2.821-3.157-3.304-5.026a9.955 9.955 0 01.189-5.453c.567-1.743 1.596-3.339 3.031-4.529 1.582-1.323 3.654-2.149 6.111-2.149a9.61 9.61 0 014.473 1.1 9.655 9.655 0 013.171 2.666h-13.419a.253.253 0 00-.252.26v13.131zm117.788-15.652h-25.003c.007-.049.007-.105.007-.147.007-.182.007-.37.007-.518 0-1.225-.196-2.625-1.911-2.625h-1.652v-2.849l28.552 3.06v3.08zm.504-3.03l11.655 1.245a10.14 10.14 0 00-8.036 9.919c0 1.54.371 2.99.987 4.291h-4.606V83.192zm-103.872 3.15l3.892-.722v2.864h-3.892v-2.143zm4.109-1.268h-.014l-4.396.812a.248.248 0 00-.203.245v1.946c-.875-1.099-1.932-2.05-3.185-2.709-.805-.42-1.701-.707-2.618-.903l25.137-2.485-14.721 3.094zm38.269-2.142h-3.836v-2.877h3.836v2.877zm27.594 0h-27.09v-2.877h27.09v2.877zm4.34 3.29h-3.836v-2.779h3.836v2.78zm-5.439.504h7.035v1.862h-7.035v-1.862zm-4.725-3.29h5.824v2.786h-5.824v-2.786zm-27.209 3.29h7.042v1.862h-7.042v-1.862zm1.603-3.29h3.836v2.786h-3.836v-2.786zm-3.234 2.625c-.007-.147-.007-.3-.007-.504 0-.987.147-2.12 1.407-2.12h1.337v2.785h-2.737v-.16zm8.925.161h-1.351v-2.786h6.146v2.786h-4.795zm5.299-2.786h14.112v2.786h-14.112v-2.786zm28.336 2.625l-.007.161h-3.045v-2.786h1.652c1.267 0 1.407 1.134 1.407 2.121 0 .203 0 .364-.007.504zm-3.556-3.129h-3.836v-2.877h3.836v2.877zm-36.267-2.849v2.85h-1.337c-1.715 0-1.911 1.4-1.911 2.624 0 .147 0 .33.007.518v.147H198.41v-.693l19.054-4.004 14.595-1.442zm-31.983 19.068h4.536v1.491c0 .455-.182.868-.483 1.162a1.629 1.629 0 01-1.162.483h-1.246c-.448 0-.861-.182-1.162-.483l-.014-.007a1.672 1.672 0 01-.469-1.155v-1.49zm2.338 4.837a3.1 3.1 0 01-1.785-.546 3.21 3.21 0 01-1.358-2.618c0-.42.119-.847.301-1.253v1.071c0 .581.238 1.113.616 1.505l.014.014a2.15 2.15 0 001.519.637h1.246c.595 0 1.127-.245 1.519-.637.392-.392.63-.924.63-1.519v-1.386c.301.497.448 1.036.448 1.568a3.21 3.21 0 01-.357 1.47c-.231.448-.567.84-.987 1.134l-.014.014a3.09 3.09 0 01-1.792.546zm10.01-4.837h4.543v1.491c0 .455-.182.868-.483 1.162a1.629 1.629 0 01-1.162.483h-1.246c-.455 0-.861-.182-1.169-.483l-.007-.007a1.648 1.648 0 01-.476-1.155v-1.49zm2.345 4.837a3.083 3.083 0 01-2.786-1.694 3.216 3.216 0 01-.364-1.47c0-.42.119-.847.301-1.253v1.071c0 .581.238 1.113.623 1.505l.014.014a2.15 2.15 0 001.519.637h1.246a2.15 2.15 0 001.519-.637c.392-.392.63-.924.63-1.519v-1.386c.301.504.448 1.036.448 1.568a3.13 3.13 0 01-.364 1.47c-.231.448-.567.84-.98 1.134l-.021.014a3.067 3.067 0 01-1.785.546zm11.326-4.837h4.536v1.491c0 .455-.182.868-.483 1.162a1.613 1.613 0 01-1.155.483h-1.246c-.455 0-.868-.182-1.169-.483l-.014-.007a1.672 1.672 0 01-.469-1.155v-1.49zm2.345 4.837a3.105 3.105 0 01-1.792-.546 3.134 3.134 0 01-.994-1.148 3.13 3.13 0 01-.364-1.47c0-.42.119-.847.301-1.253v1.071c0 .581.238 1.113.616 1.505l.014.014c.392.392.931.637 1.526.637h1.246a2.15 2.15 0 001.519-.637 2.16 2.16 0 00.63-1.519v-1.386c.294.497.448 1.036.448 1.568a3.216 3.216 0 01-1.351 2.604l-.014.014a3.083 3.083 0 01-1.785.546zm10.458-4.837h4.543v1.491c0 .455-.189.868-.49 1.162a1.617 1.617 0 01-1.162.483h-1.239c-.455 0-.868-.182-1.162-.483l-.014-.007a1.648 1.648 0 01-.476-1.155v-1.49zm2.345 4.837a3.09 3.09 0 01-1.792-.546 3.21 3.21 0 01-1.358-2.618c0-.42.119-.847.301-1.253v1.071c0 .581.238 1.113.616 1.505l.014.014c.392.392.931.637 1.526.637h1.239c.595 0 1.134-.245 1.519-.637.392-.392.637-.924.637-1.519v-1.386c.294.497.448 1.036.448 1.568 0 .518-.133 1.022-.364 1.47-.238.448-.567.84-.98 1.134l-.021.014a3.083 3.083 0 01-1.785.546zm12.6-4.837h4.543v1.491a1.646 1.646 0 01-1.652 1.645h-1.239c-.455 0-.868-.182-1.169-.483l-.007-.007a1.648 1.648 0 01-.476-1.155v-1.49zm2.345 4.837a3.083 3.083 0 01-2.786-1.694 3.216 3.216 0 01-.364-1.47c0-.42.119-.847.301-1.253v1.071c0 .581.238 1.113.616 1.505l.014.014c.392.392.931.637 1.526.637h1.239a2.16 2.16 0 002.156-2.156v-1.386c.294.497.448 1.036.448 1.568 0 .518-.133 1.022-.364 1.47-.231.448-.567.84-.98 1.134l-.021.014a3.083 3.083 0 01-1.785.546zm10.794-4.837h4.536v1.491a1.646 1.646 0 01-1.652 1.645h-1.239c-.455 0-.868-.182-1.162-.483l-.014-.007a1.642 1.642 0 01-.469-1.155v-1.49zm2.338 4.837a3.122 3.122 0 01-1.792-.546 3.2 3.2 0 01-.994-1.148 3.13 3.13 0 01-.364-1.47c0-.42.119-.847.308-1.253v1.071c0 .581.231 1.113.616 1.505l.014.014c.385.392.924.637 1.519.637h1.239c.595 0 1.141-.245 1.526-.637.392-.392.63-.924.63-1.519v-1.386c.301.497.448 1.036.448 1.568a3.13 3.13 0 01-.364 1.47c-.231.448-.567.84-.98 1.134l-.014.014a3.105 3.105 0 01-1.792.546zm11.046-4.837h4.543v1.491c0 .455-.189.868-.49 1.162a1.617 1.617 0 01-1.162.483h-1.239c-.455 0-.868-.182-1.169-.483l-.007-.007a1.648 1.648 0 01-.476-1.155v-1.49zm2.345 4.837a3.09 3.09 0 01-1.792-.546 3.2 3.2 0 01-.994-1.148 3.13 3.13 0 01-.364-1.47c0-.42.119-.847.301-1.253v1.071c0 .581.238 1.113.616 1.505l.014.014c.392.392.931.637 1.526.637h1.239c.595 0 1.134-.245 1.519-.637.392-.392.637-.924.637-1.519v-1.386c.294.504.448 1.036.448 1.568 0 .518-.133 1.022-.364 1.47-.238.448-.567.84-.98 1.134l-.021.014a3.083 3.083 0 01-1.785.546zm8.777-4.837h4.543v1.491a1.646 1.646 0 01-1.652 1.645h-1.246c-.448 0-.861-.182-1.155-.483l-.014-.007a1.648 1.648 0 01-.476-1.155v-1.49zm2.345 4.837a3.105 3.105 0 01-1.792-.546 3.2 3.2 0 01-.994-1.148 3.13 3.13 0 01-.364-1.47c0-.42.119-.847.301-1.253v1.071c0 .581.238 1.113.616 1.505l.021.014c.385.392.924.637 1.512.637h1.246a2.16 2.16 0 002.156-2.156v-1.386c.294.497.448 1.036.448 1.568 0 .518-.133 1.022-.364 1.47-.231.448-.56.84-.98 1.134l-.014.014a3.122 3.122 0 01-1.792.546zm2.793-5.34H198.41V86.726h32.039v2.107c0 .14.119.26.259.26h7.539c.14 0 .252-.12.252-.26v-2.107h23.884v2.107c0 .14.112.26.252.26h7.539a.258.258 0 00.259-.26v-2.107h26.949v11.921h-.756zm-28.048-19.104h-36.274v.007h-.042l-47.425 4.697c-.028 0-.049.028-.07.035-2.205.175-4.102.966-5.579 2.198-1.505 1.253-2.59 2.926-3.185 4.76a10.297 10.297 0 00-.196 5.733c.546 2.107 1.792 4.088 3.878 5.6 0 0 .007 0 .007.007.007 0 .007 0 .007.007a9.925 9.925 0 002.8 1.407 10.11 10.11 0 003.122.497h126.02c2.807 0 5.341-1.134 7.175-2.968a10.103 10.103 0 002.968-7.168c0-2.8-1.134-5.334-2.968-7.175-1.561-1.56-3.654-2.569-5.971-2.849-.035-.02-.063-.056-.105-.056l-15.106-1.617h-.007l-29.049-3.108v-.007zm49.776 14.812a6.675 6.675 0 01-1.96 4.74 6.686 6.686 0 01-4.753 1.966 6.666 6.666 0 01-4.739-1.967 6.681 6.681 0 01-1.967-4.739 6.71 6.71 0 011.967-4.746 6.694 6.694 0 014.739-1.967 6.704 6.704 0 016.713 6.713zm-11.809-5.103a7.183 7.183 0 00-2.114 5.103 7.204 7.204 0 007.21 7.21 7.195 7.195 0 005.103-2.107 7.19 7.19 0 002.121-5.103 7.19 7.19 0 00-2.121-5.103 7.171 7.171 0 00-5.103-2.114 7.18 7.18 0 00-5.096 2.114zm-152.361 2.093c.133.322.196.68.196 1.036 0 .357-.063.707-.196 1.036-.329.82-1.085 1.47-2.275 1.47s-1.946-.65-2.282-1.47a2.89 2.89 0 01-.189-1.036c0-.357.063-.714.189-1.036.336-.826 1.092-1.477 2.282-1.477s1.946.651 2.275 1.477zm-5.019-.189a3.339 3.339 0 000 2.443c.399 1.008 1.316 1.792 2.744 1.792 1.428 0 2.345-.784 2.744-1.792a3.339 3.339 0 000-2.443c-.399-1.008-1.316-1.792-2.744-1.792-1.428 0-2.345.784-2.744 1.792zm-13.993 5.551c.161-.392.518-.693 1.085-.693s.924.301 1.085.693c.063.154.091.33.091.497 0 .175-.028.343-.091.497-.161.392-.518.7-1.085.7s-.924-.308-1.085-.7a1.456 1.456 0 01-.091-.497c0-.168.035-.343.091-.497zm1.085 2.198c.805 0 1.323-.448 1.547-1.015.091-.217.133-.455.133-.686 0-.23-.042-.462-.133-.679-.224-.574-.742-1.015-1.547-1.015-.805 0-1.323.441-1.547 1.015a1.89 1.89 0 00-.133.68c0 .23.049.468.133.685.224.567.742 1.015 1.547 1.015zm-15.281-4.802c-.238.588-.784 1.05-1.631 1.05-.854 0-1.393-.462-1.631-1.05a2.026 2.026 0 01-.14-.742c0-.259.049-.51.14-.749.238-.588.777-1.043 1.631-1.043.847 0 1.393.455 1.631 1.043.091.238.14.49.14.75 0 .258-.049.51-.14.741zm-1.631-3.038c-1.092 0-1.792.602-2.1 1.365a2.646 2.646 0 00-.175.931c0 .315.063.637.175.931.308.77 1.008 1.365 2.1 1.365s1.792-.595 2.1-1.365c.112-.294.175-.616.175-.93 0-.316-.063-.638-.175-.932-.308-.763-1.008-1.365-2.1-1.365zm-77.532-.917c-.161.406-.532.714-1.113.714-.588 0-.96-.308-1.113-.714a1.288 1.288 0 01-.098-.518c0-.175.028-.35.098-.51.154-.4.525-.715 1.113-.715.58 0 .952.315 1.113.714.07.161.098.336.098.511 0 .182-.028.357-.098.518zm.469.182a1.83 1.83 0 00.133-.7c0-.23-.042-.476-.133-.693-.231-.58-.756-1.043-1.582-1.043-.82 0-1.351.462-1.582 1.043a1.847 1.847 0 00-.133.693c0 .238.042.483.133.7.23.588.763 1.036 1.582 1.036.826 0 1.35-.448 1.582-1.036zM4.958 64.537c-.154.392-.518.693-1.085.693-.56 0-.924-.3-1.078-.693a1.31 1.31 0 010-.994c.154-.392.518-.693 1.078-.693.567 0 .93.301 1.085.693.063.154.09.322.09.497s-.027.343-.09.497zm.469-1.183c-.231-.567-.75-1.015-1.554-1.015-.805 0-1.316.448-1.547 1.015a1.928 1.928 0 00-.133.686c0 .231.049.462.133.686.23.567.742 1.015 1.547 1.015.805 0 1.323-.448 1.554-1.022a1.92 1.92 0 000-1.365zM119.38 11.072c.238-.588.777-1.043 1.624-1.043.847 0 1.386.454 1.617 1.043.098.23.14.483.14.735 0 .258-.042.51-.14.742-.231.588-.77 1.043-1.617 1.043s-1.386-.456-1.624-1.043a2.022 2.022 0 01-.133-.742c0-.252.042-.505.133-.736zm1.624 3.024c1.085 0 1.785-.595 2.086-1.358.119-.294.175-.617.175-.931 0-.316-.056-.63-.175-.925-.301-.762-1.001-1.358-2.086-1.358s-1.785.596-2.086 1.359a2.462 2.462 0 00-.175.924c0 .314.056.636.175.93.301.764 1.001 1.358 2.086 1.358zM51.424 58.51c-.175.4-.49.735-.91.98-.203.112-.434.21-.686.28l-14.483 3.934a2.102 2.102 0 01-1.946-.51 2.431 2.431 0 01-.595-.876 2.148 2.148 0 01-.126-1.05c.077-.658.49-1.323 1.344-1.77 2.289-1.289 9.597-5.657 11.55-6.308 2.569-1.442 3.479-.686 4.396.938.189.35.37.7.567 1.078.224.434.462.903.72 1.38l.015.013c.112.196.196.4.252.602a1.9 1.9 0 01-.098 1.31zm.28-2.17h-.007c-.266-.483-.497-.938-.714-1.365a35.5 35.5 0 00-.581-1.092c-1.064-1.904-2.121-2.793-5.075-1.134l-11.543 6.307c-1.022.54-1.512 1.337-1.61 2.156-.056.434.014.882.16 1.281.162.406.407.77.722 1.071a2.58 2.58 0 002.4.63l14.505-3.94c.294-.078.56-.19.805-.33a2.701 2.701 0 001.12-1.21 2.434 2.434 0 00.119-1.646 3.03 3.03 0 00-.301-.728zm157.717 1.225c-.427.588-1.435 1.036-3.024 1.036s-2.59-.448-3.017-1.036l-.007-.014a1.072 1.072 0 01-.217-.63c0-.224.077-.44.224-.644.427-.588 1.428-1.043 3.017-1.043s2.597.455 3.024 1.043c.147.203.217.427.217.644 0 .217-.07.441-.217.644zm.406-1.589c-.518-.7-1.666-1.253-3.43-1.253-1.764 0-2.912.553-3.423 1.253a1.604 1.604 0 00-.322.945c0 .315.105.63.308.924l.014.021c.511.7 1.659 1.246 3.423 1.246s2.912-.546 3.43-1.253c.217-.294.322-.616.322-.938 0-.329-.105-.65-.322-.945zm50.302.14a1.645 1.645 0 01-1.652 1.652h-5.39c-.455 0-.868-.182-1.169-.483l-.014-.007a1.69 1.69 0 01-.469-1.162v-7.553c0-.455.189-.868.483-1.169.301-.3.714-.49 1.169-.49h5.39c.455 0 .868.19 1.169.49l.007.014c.294.294.476.707.476 1.155v7.553zm-.126-9.079a2.177 2.177 0 00-1.526-.63h-5.39a2.19 2.19 0 00-1.526.63c-.392.392-.63.931-.63 1.526v7.553c0 .588.238 1.127.616 1.512l.014.014c.392.392.938.63 1.526.63h5.39a2.148 2.148 0 002.156-2.156v-7.553a2.15 2.15 0 00-.623-1.512l-.007-.014zm32.255 7.364h-4.073c.385-.294.665-.707.665-1.42 0-.19.007-.35.014-.519 0-.217.007-.455.007-.644 0-.854-.133-1.708-.672-2.233h4.059v4.816zm-7.314-4.816h1.981c1.281 0 1.442 1.155 1.442 2.233 0 .245-.007.441-.007.63-.007.203-.014.392-.014.532 0 1.078-.833 1.358-1.792 1.421h-1.61v-4.816zm7.566-.504h-7.818a.257.257 0 00-.259.252v5.32c0 .14.119.252.259.252h.007c.217 0 .406.007.609.014.252.007.511.014.735.014.154 0 .294-.02.448-.028h6.019a.255.255 0 00.252-.252v-5.32a.255.255 0 00-.252-.252zm4.06 5.32v-4.816h4.046c-.525.525-.672 1.38-.672 2.233 0 .19.014.427.014.644.007.168.014.33.014.518 0 .714.28 1.127.665 1.421h-4.067zm7.308-4.816v4.816h-1.624c-.945-.063-1.778-.343-1.778-1.42 0-.14-.007-.33-.007-.533a15.99 15.99 0 01-.014-.63c0-1.078.161-2.233 1.442-2.233h1.981zm.252-.504h-7.819a.251.251 0 00-.252.252v5.32c0 .14.112.252.252.252h6.013c.154.007.301.028.455.028.217 0 .483-.007.735-.014.203-.007.392-.014.616-.014.14 0 .252-.112.252-.252v-5.32a.251.251 0 00-.252-.252zm-31.359 24.682h-17.857v-2.807h17.857v2.807zm-1.946 2.352l-.896-.09-.189-1.1a.245.245 0 00-.231-.21l-1.862-.175a.242.242 0 00-.266.175l-.336 1.113h-1.785l-.35-1.218a.26.26 0 00-.245-.189h-1.981a.263.263 0 00-.252.203l-.343 1.17h-1.785l-.343-1.19a.27.27 0 00-.245-.183h-1.974a.263.263 0 00-.252.203l-.343 1.17h-1.785l-.343-1.19a.263.263 0 00-.245-.183H252.8a.255.255 0 00-.245.203l-.343 1.17h-1.792l-.343-1.19a.261.261 0 00-.238-.183h-1.981a.255.255 0 00-.245.203l-.343 1.17h-1.785l-.35-1.19a.254.254 0 00-.238-.183h-1.981a.26.26 0 00-.245.203l-.343 1.17h-1.785l-.35-1.19a.254.254 0 00-.238-.183h-1.981a.26.26 0 00-.245.203l-.343 1.17h-1.785l-.35-1.19a.248.248 0 00-.238-.183h-1.974a.263.263 0 00-.252.203l-.343 1.17h-1.785l-.315-1.093a.252.252 0 00-.273-.175l-2.051.19a.261.261 0 00-.224.202l-.203 1.036-.861.056v-1.736h44.093v1.841zm.826.581a.248.248 0 00.259-.168l.392-1.043 1.47.14.189 1.106a.253.253 0 00.224.203l1.967.19a.266.266 0 00.259-.162l.385-1.05 1.477.14.189 1.1a.245.245 0 00.217.21l1.967.188a.266.266 0 00.259-.16l.392-1.05 1.47.14.182 1.105a.254.254 0 00.231.203l1.96.19a.25.25 0 00.259-.162l.392-1.05 1.47.14.189 1.106a.246.246 0 00.224.203l1.96.19a.25.25 0 00.259-.162l.391-1.05 1.477.14.182 1.106a.269.269 0 00.231.21l1.953.182c.119.007.224-.049.266-.16l.385-1.05 1.477.14.189 1.098a.246.246 0 00.224.21l1.96.19a.25.25 0 00.259-.162l.392-1.05 1.47.14.189 1.106a.239.239 0 00.224.203l1.96.19c.112.006.224-.05.259-.162l.392-1.05 1.47.14.189 1.106a.253.253 0 00.224.203l1.967.19c.105.013.21-.057.252-.162l.399-1.05 1.477.14.147 1.071c.014.12.105.21.224.224l1.96.238a.247.247 0 00.259-.16l.441-1.086.609.063h.021c.14.014.28.028.406.035l.21.028.042 1.17a.26.26 0 00.203.237l1.918.42a.245.245 0 00.28-.126l.532-1.029c.154.05.294.105.441.154.133.05.273.112.413.168l-.315 1.183a.24.24 0 00.119.28l1.687.98c.098.07.238.063.322-.028l.945-.938c.119.077.238.168.364.26.126.09.245.174.357.265l-.637 1.106a.255.255 0 00.028.322l1.393 1.393c.084.077.21.098.308.035l1.183-.679c.091.112.182.217.273.33l.252.335-.889.89a.254.254 0 00-.042.3l.973 1.694a.255.255 0 00.294.133l1.274-.336c.063.126.119.266.182.4.056.14.112.28.168.412l-.98.567a.26.26 0 00-.14.294l.511 1.89a.248.248 0 00.245.203h1.183a12.523 12.523 0 01.133 1.001l-.945.26a.254.254 0 00-.21.244v1.974c0 .112.077.21.189.245l.966.252-.063.525c-.021.182-.049.35-.077.525h-.994a.247.247 0 00-.245.19l-.511 1.896a.26.26 0 00.119.287l.84.483c-.056.147-.119.294-.182.448-.063.14-.126.287-.189.434l-1.12-.294a.24.24 0 00-.28.112l-.973 1.694a.247.247 0 00.028.322l.777.777-.266.357c-.098.112-.189.231-.287.35l-.987-.574a.254.254 0 00-.322.028l-1.4 1.393a.253.253 0 00-.035.308l.553.959c-.119.091-.238.189-.364.273a6.386 6.386 0 01-.378.273l-.812-.812a.254.254 0 00-.301-.042l-1.701.98a.269.269 0 00-.126.294l.287 1.043c-.154.063-.308.126-.455.182-.147.056-.301.119-.455.168l-.539-.931a.246.246 0 00-.287-.126l-1.897.504a.249.249 0 00-.196.245v1.001c-.154.014-.301.035-.448.049h-.014c-.154.021-.322.035-.483.049l-.266-1.008a.256.256 0 00-.245-.189h-1.953a.255.255 0 00-.259.189l-.28 1.036h-1.484l-.28-1.029a.254.254 0 00-.245-.196h-1.995a.246.246 0 00-.238.189l-.287 1.036h-1.841l-.28-1.029a.254.254 0 00-.245-.196h-1.995a.254.254 0 00-.245.189l-.28 1.036h-1.841l-.28-1.029a.256.256 0 00-.252-.196h-1.995a.26.26 0 00-.245.189l-.28 1.036h-1.841l-.28-1.029a.254.254 0 00-.245-.196h-1.995a.254.254 0 00-.245.189l-.28 1.036h-1.84l-.28-1.029a.254.254 0 00-.245-.196h-1.995a.254.254 0 00-.245.189l-.28 1.036h-1.841l-.287-1.029a.249.249 0 00-.245-.196h-1.995a.26.26 0 00-.245.189l-.28 1.036h-1.841l-.28-1.029a.254.254 0 00-.245-.196h-2.002a.252.252 0 00-.238.189l-.28 1.036h-1.841l-.287-1.029a.247.247 0 00-.238-.196h-2.002a.26.26 0 00-.245.189l-.28 1.036h-1.841l-.28-1.029a.254.254 0 00-.245-.196h-1.995a.26.26 0 00-.245.189l-.28 1.036h-1.841l-.28-1.029a.254.254 0 00-.245-.196h-2.002a.246.246 0 00-.238.189l-.28 1.036h-1.848l-.28-1.029a.254.254 0 00-.245-.196h-1.995a.26.26 0 00-.245.189l-.28 1.036h-1.841l-.28-1.029a.254.254 0 00-.245-.196h-1.995a.254.254 0 00-.245.189l-.28 1.036h-1.841l-.28-1.029a.263.263 0 00-.252-.196h-1.995a.26.26 0 00-.245.189l-.273 1.036h-1.848l-.28-1.029a.254.254 0 00-.245-.196h-1.995a.254.254 0 00-.245.189l-.28 1.036h-1.841l-.28-1.022a.26.26 0 00-.245-.203h-2.002a.252.252 0 00-.238.189l-.287 1.036h-1.82l-.28-1.022a.26.26 0 00-.245-.203h-1.995a.254.254 0 00-.245.189l-.287 1.036h-1.82l-.28-1.022a.26.26 0 00-.245-.203h-1.995a.254.254 0 00-.245.189l-.28 1.036h-1.834l-.273-1.029a.254.254 0 00-.245-.196h-2.002a.246.246 0 00-.238.189l-.287 1.036h-1.827l-.273-1.029a.254.254 0 00-.245-.196h-2.002a.252.252 0 00-.238.189l-.287 1.036h-1.82l-.28-1.022a.26.26 0 00-.245-.203h-2.002a.246.246 0 00-.238.189l-.287 1.036h-1.827l-.273-1.022a.263.263 0 00-.252-.203h-1.995a.252.252 0 00-.238.189l-.287 1.036h-1.82l-.287-1.029a.247.247 0 00-.238-.196h-1.995a.254.254 0 00-.245.189l-.287 1.036h-1.827l-.28-1.029a.249.249 0 00-.245-.196h-1.995a.246.246 0 00-.238.189l-.287 1.036h-1.827l-.273-1.022a.26.26 0 00-.245-.203h-2.002a.246.246 0 00-.238.189l-.287 1.036h-1.575l-.28-1.029a.254.254 0 00-.245-.196h-1.995a.26.26 0 00-.245.189l-.28 1.036h-1.512l-.273-1.022a.255.255 0 00-.245-.203h-1.974a.26.26 0 00-.245.189l-.266 1.001a5.62 5.62 0 01-.483-.042c-.147-.014-.301-.028-.462-.049v-1.001c0-.105-.07-.21-.182-.238l-1.904-.511a.26.26 0 00-.287.112l-.539.945c-.154-.049-.308-.112-.462-.168-.147-.056-.294-.119-.448-.182l.28-1.043a.25.25 0 00-.119-.287l-1.687-.973a.246.246 0 00-.322.028l-.812.812a6.386 6.386 0 01-.378-.273c-.119-.091-.245-.182-.364-.273l.546-.945a.247.247 0 00-.028-.322l-1.393-1.393a.243.243 0 00-.301-.035l-1.008.581-.287-.35c-.091-.112-.175-.231-.273-.357l.784-.777a.264.264 0 00.042-.308l-.98-1.694a.263.263 0 00-.294-.133l-1.106.301c-.07-.147-.133-.287-.203-.434-.056-.147-.119-.3-.175-.448l.826-.476a.251.251 0 00.126-.294l-.504-1.883a.255.255 0 00-.245-.203h-1.001c-.028-.175-.049-.343-.077-.525a55.852 55.852 0 01-.063-.525l.952-.252a.248.248 0 00.203-.245v-1.974a.263.263 0 00-.182-.245l-.973-.259c.021-.168.042-.336.063-.49v-.007c.021-.168.049-.336.077-.504h1.183a.26.26 0 00.245-.189l.504-1.904a.257.257 0 00-.119-.287l-.994-.574c.049-.133.105-.273.168-.413.056-.133.119-.273.182-.399l1.267.336a.257.257 0 00.287-.119l.98-1.687a.263.263 0 00-.035-.322l-.889-.889.252-.336.273-.329 1.162.665a.245.245 0 00.322-.02l1.393-1.394a.264.264 0 00.042-.308l-.651-1.12c.119-.09.238-.175.364-.266.119-.09.245-.182.364-.259l.945.938a.254.254 0 00.301.042l1.701-.98a.26.26 0 00.126-.294l-.322-1.183c.14-.056.28-.119.42-.168.147-.049.287-.105.434-.154l.532 1.022a.254.254 0 00.28.14l1.918-.427a.254.254 0 00.203-.238l.049-1.169 1.246-.126.434 1.078a.246.246 0 00.266.168l1.96-.238a.252.252 0 00.217-.21l.154-1.085 1.477-.14.385 1.036a.252.252 0 00.266.175l1.953-.189a.233.233 0 00.231-.203l.189-1.106 1.47-.14.392 1.036c.028.112.14.19.259.175l1.953-.182a.254.254 0 00.238-.21l.182-1.106 1.477-.14.385 1.036a.252.252 0 00.266.175l1.946-.182a.253.253 0 00.238-.217l.189-1.099 1.47-.14.385 1.036a.265.265 0 00.266.175l1.953-.182a.246.246 0 00.231-.21l.189-1.106 1.47-.14.385 1.036c.042.112.147.19.266.175l1.953-.189a.26.26 0 00.238-.203l.182-1.106 1.477-.14.385 1.036c.035.112.14.19.259.175l1.953-.182a.26.26 0 00.238-.21l.182-1.106 1.477-.14.385 1.036c.035.112.14.182.266.175l1.953-.189a.246.246 0 00.238-.21l.182-1.099 1.47-.14.385 1.036a.265.265 0 00.266.175l1.953-.189c.112-.007.217-.084.231-.203l.189-1.106 1.477-.14.322.917a.245.245 0 00.252.175l1.96-.133a.246.246 0 00.238-.203l.203-1.043 1.666-.16.308 1.056a.255.255 0 00.245.203h2.163a.26.26 0 00.245-.182l.343-1.19h1.603l.343 1.17a.255.255 0 00.245.202h2.163a.24.24 0 00.238-.182l.35-1.19h1.603l.343 1.17a.255.255 0 00.245.202h2.163c.105 0 .203-.07.238-.182l.35-1.19h1.603l.343 1.17a.255.255 0 00.245.202h2.163c.105 0 .21-.07.238-.182l.35-1.19h1.603l.343 1.17a.249.249 0 00.245.202h2.156c.112 0 .21-.07.245-.182l.35-1.19h1.596l.343 1.17a.26.26 0 00.245.202h2.17c.105 0 .203-.07.238-.182l.35-1.19h1.596l.343 1.17a.26.26 0 00.245.202h2.163c.112 0 .21-.07.245-.182l.343-1.19h1.61l.35 1.218c.035.105.133.19.245.19l2.149.006a.262.262 0 00.259-.182l.329-1.106 1.47.147.189 1.106a.24.24 0 00.224.203l1.96.19zm-46.865-5.74h29.624v2.807h-29.624v-2.807zm-26.481-7.329h129.142v6.825H198.305v-6.825zm-15.099-26.803l4.382-5.431 11.256 9.085c-.42 3.073-.728 5.887-.903 8.26l-14.735-11.913zm-4.228-4.654c0-.008.007.006.014 0l3.171-3.928.602-.748 4.438 3.584-4.389 5.432-4.445-3.591.609-.75zm-2.303-2.199l2.051-2.534.567-.693.245-.308 2.079 1.68-2.87 3.535-2.072-1.68zM164.88 14.614c.014-.162.035-.323.035-.484 0-.945-.343-1.827-.924-2.506a3.885 3.885 0 00-2.324-1.322 4.773 4.773 0 00-.63-.05 3.854 3.854 0 00-2.751 1.141c-.7.7-1.134 1.673-1.134 2.744 0 .525.105 1.015.28 1.463a3.826 3.826 0 001.442 1.758 3.85 3.85 0 002.163.665c.427 0 .861-.099 1.288-.253l2.555 2.093a6.765 6.765 0 01-3.801 1.17 7.102 7.102 0 01-3.136-.742 7.053 7.053 0 01-2.478-2.066c-.819-1.106-1.323-2.499-1.323-4.088 0-1.904.77-3.626 2.016-4.879a6.87 6.87 0 014.879-2.016c1.043 0 2.016.224 2.877.616a6.98 6.98 0 012.926 2.563 6.976 6.976 0 011.092 3.73 6.9 6.9 0 01-.497 2.555l-2.555-2.092zm-3.808-2.675a1.91 1.91 0 00-1.057.252 2.12 2.12 0 00-.637.532 2.167 2.167 0 00-.406.736 2.022 2.022 0 00-.091.539c-.021.546.196 1.113.756 1.568l2.247 1.84c-.28.078-.567.113-.847.113a3.45 3.45 0 01-1.89-.574 3.396 3.396 0 01-1.246-1.534 3.305 3.305 0 01-.245-1.274 3.4 3.4 0 01.987-2.394 3.375 3.375 0 012.394-.986c.189 0 .371.014.546.042a3.384 3.384 0 012.828 3.332v.098l-2.212-1.806a2.066 2.066 0 00-1.127-.483zm15.743 17.053l-11.361-9.31-2.898-2.373-2.597-2.129a1.647 1.647 0 01-.336-.37 1.328 1.328 0 01-.238-.799 1.49 1.49 0 01.07-.398 1.768 1.768 0 01.805-.987c.238-.127.497-.196.777-.175.28.02.567.133.847.356l2.569 2.114h.007l2.912 2.387 11.368 9.31-.455.568-1.47 1.805zm-21.154 1.378c-6.713.68-13.181 1.925-19.166 3.983l-80.62 25.361c-.013.007-.034.014-.055.021-.833.49-1.204 1.162-1.547 1.771-.175.322-.343.63-.567.854-.84.763-1.848.896-3.038 1.05-.287.035-.588.07-.847.112l-14.89 1.876c-1.077.12-2.001-.168-2.701-.7a3.917 3.917 0 01-1.484-3.717c.14-.868.602-1.715 1.435-2.352L44.9 49.424c1.666-1.07 2.625-.819 3.64-.553 1.106.294 2.289.61 4.368-.476l52.381-24.269 18.844-8.729c1.316-.553 2.73-1.155 4.102-1.736 12.117-5.152 20.258-8.61 33.698-8.428 8.176.112 15.001 1.064 21.504 3.164 6.461 2.094 12.607 5.335 19.453 10.031a248.5 248.5 0 00-2.618 12.915 258.14 258.14 0 00-.777 4.655l-9.436-3.255-7.175-5.796a.253.253 0 00-.35.036l-.602.748-2.275-1.84a.241.241 0 00-.35.042l-.252.3-11.228-9.204c.399-.953.609-1.925.609-2.877a7.457 7.457 0 00-1.176-3.997 7.371 7.371 0 00-3.143-2.752 7.32 7.32 0 00-3.08-.665 7.362 7.362 0 00-5.236 2.17 7.369 7.369 0 00-2.163 5.23c0 1.7.539 3.191 1.428 4.388a7.497 7.497 0 002.653 2.212 7.513 7.513 0 003.36.799c1.428 0 2.884-.434 4.193-1.351l11.228 9.198-.301.37c-6.944-.175-13.867-.056-20.538.616zm-40.39 25.823c-.175-.3-.224-.553-.203-.777.021-.238.126-.469.259-.7.161-.273.546-.357 1.029-.336.532.014 1.169.161 1.743.315l7.749 2.156c.413.105.805.308 1.148.644.315.308.588.728.798 1.288 0 .007.007.028.014.035l1.869 4.718c-.007.014-.021.028-.021.042-.021.112.049.21.14.252l.112.294c.077.182.126.371.147.54.049.342 0 .643-.14.888-.133.238-.364.434-.679.553-.14.05-.301.091-.483.12l-2.345.146c-.525.028-.833.035-1.099-.028-.259-.07-.518-.23-.938-.525l-6.72-5.096-2.38-4.529zm4.186-6.629c.266.896.294 1.73.091 2.492-.21.763-.658 1.456-1.358 2.093l-8.155-5.229 9.422.644zm.462 2.87l6.069 1.792 1.071 2.695c-.343-.259-.7-.462-1.078-.553-2.373-.595-4.935-1.33-7.315-2.037.595-.58 1.015-1.21 1.253-1.897zm.049-2.75l4.774 1.406 1.008 2.541-5.691-1.68c.147-.714.112-1.47-.091-2.268zm33.53 13.544c1.477 2.478 2.205 5.642 2.107 9.646-.077 2.982-.952 2.99-1.995 3.003h-.056c-.798.007-1.694-.21-2.429-.56-.679-.329-1.218-.763-1.407-1.239l-.259-.644c-1.54-3.878-2.149-5.404-6.825-7.322-3.437-1.4-7.728-2.016-10.787-2.45-.63-.098-1.183-.175-1.673-.252l-1.869-4.697c-.007-.042-.028-.077-.042-.112l-.007-.014-2.905-7.315 21.63 6.37c2.849 1.31 5.054 3.115 6.517 5.586zm.371 21.714c-.021.854.098 2.107.371 3.248.21.91.518 1.743.924 2.282v.007c.462.875.567 1.771.399 2.583a4 4 0 01-1.043 1.981 4.036 4.036 0 01-1.939 1.127c-.805.203-1.708.14-2.597-.287-.07-.042-.147-.028-.21.007l-5.929 1.967-13.461-33.908c.441.07.875.133 1.386.21 3.038.434 7.301 1.043 10.668 2.422 4.487 1.827 5.068 3.304 6.559 7.042l.259.644c.238.602.861 1.127 1.652 1.498.805.385 1.778.623 2.653.61h.049c.616 0 1.183-.022 1.624-.386-.098.504-.203 1.022-.315 1.575-.462 2.233-.994 4.802-1.05 7.378zm-14.308 20.706a3.09 3.09 0 00-.847-.861l-1.183-.826 6.293-5.572 5.082-1.687-9.345 8.946zm-.098 2.583c-.154.49-.434.938-.833 1.274a2.655 2.655 0 01-1.743.623c-.343 0-.672-.063-.973-.182a2.759 2.759 0 01-.854-.525l-13.692-12.537a.236.236 0 00-.28-.042 3.781 3.781 0 01-1.729.413c-.735 0-1.442-.21-2.051-.588a3.83 3.83 0 01-1.848-3.304 3.89 3.89 0 011.134-2.75 3.895 3.895 0 012.751-1.142 3.862 3.862 0 013.073 1.512 3.868 3.868 0 01.693 3.36.242.242 0 00.098.266l15.218 10.591c.574.399.931.938 1.078 1.505a2.822 2.822 0 01-.042 1.526zm-45.185-7.805l.287-1.806 34.125 5.649 2.471 2.261-36.883-6.104zm-3.5.231l.616-3.829 2.877.462-.161 1.001-.371 2.303-.084.518-2.877-.455zm-6.041.126l.09-.588.813-5.033.105-.665 5.376.861-.182 1.141-.427 2.632-.4 2.513-5.375-.861zm-42.35-7.945a4.48 4.48 0 00.924-.679l3.514-3.164L85.1 95.323l-.728 4.536-41.986-7.02zm-3.038-.378L15.122 81.45l33.229 5.494-5.383 4.851c-.518.497-1.113.82-1.743.924-.602.112-1.246.028-1.876-.259zm55.25 4.375l-3.121-.504.182-1.14a.257.257 0 00-.21-.288l-5.873-.938a.248.248 0 00-.287.203l-.105.658-37.877-6.258 1.673-1.519 74.34 12.3 4.69 4.29-33.37-5.516.169-1a.259.259 0 00-.21-.288zm38.27 1.505c.182.616.56 1.127 1.057 1.52l-2.695-.379.399-7.266 1.351.47-.252 4.612c-.007.371.042.721.14 1.043zm-.896 1.757l3.577.497c.042.007.07-.014.098-.021.168.021.315.077.483.077a4.842 4.842 0 001.54-.217l4.935-1.638-5.502 4.872-5.131-3.57zm-1.512-34.594l12.901 32.515-5.831 1.94a4.76 4.76 0 01-1.386.195c-.693-.021-1.309-.23-1.792-.574a2.542 2.542 0 01-1.001-1.386 2.789 2.789 0 01-.119-.889l.266-4.78c0-.029-.007-.064-.014-.099l-9.128-26.019c.315.203.567.35.826.42.336.091.679.084 1.246.042l2.38-.147c.217-.028.42-.077.609-.147.427-.168.742-.434.938-.777.049-.09.07-.196.105-.294zM8.43 70.214c0-2.89.735-4.57 2.163-5.684 1.456-1.127 3.654-1.708 6.524-2.373l14.196-3.297c-.546.616-.945 1.302-1.064 2.044a4.46 4.46 0 00.259 2.324 4.34 4.34 0 001.414 1.87c.805.608 1.848.937 3.066.804l14.91-1.876c.252-.042.448-.07.65-.09L131.14 92.04l-.399 7.196-7.105-4.942c.07-.315.098-.63.098-.938a4.387 4.387 0 00-3.283-4.242 4.48 4.48 0 00-1.106-.147c-1.211 0-2.31.497-3.101 1.295a4.358 4.358 0 00-.826 5.068 4.408 4.408 0 003.941 2.43 4.34 4.34 0 001.792-.393l1.484 1.358L8.43 79.832v-9.618zm-7.917-5.95a3.497 3.497 0 01.553-1.764 3.696 3.696 0 011.302-1.246 3.267 3.267 0 011.715-.44l12.488.958c-2.71.637-4.83 1.232-6.286 2.36-1.561 1.217-2.36 3.016-2.36 6.082v8.834l-6.9-12.788c-.385-.672-.54-1.358-.511-1.995zm56.525-26.116l1.008 2.141-46.683 20.58-4.676-.364 50.35-22.358zm5.628-4.838l2.926 5.901-6.16 2.85-.82-1.744-2.03-4.325 6.084-2.681zm43.799-12.999l-40.411 18.69-2.926-5.893 49.805-21.952c-.931.636-1.729 1.287-2.429 2.03-1.337 1.428-2.331 3.15-3.388 5.593l-.651 1.532zM52.684 47.947c-1.918.994-2.996.707-4.018.441-1.127-.3-2.191-.58-4.046.623l-12.712 9.191-13.713 3.185-5.768-.44 45.836-20.203.819 1.757a.246.246 0 00.336.12l46.746-21.617-1.19 2.758c-17.48 7.994-35.133 15.785-52.29 24.185zm79.205-40.95c1.05.021 2.121.042 3.143.042h9.17c-5.159 1.491-10.178 3.62-16.17 6.16-1.26.533-2.569 1.092-4.095 1.736a1283.087 1283.087 0 01-18.284 8.52l1.932-4.48c1.029-2.388 1.995-4.068 3.29-5.44 1.295-1.379 2.926-2.463 5.285-3.668l.007-.007c5.264-3.045 10.143-2.954 15.722-2.863zm67.032 32.9l-7.714-6.222 8.211 2.828a287.105 287.105 0 00-.497 3.394zm6.538-29.273c.994-3.242 1.911-5.342 3.451-6.714 1.54-1.365 3.731-2.03 7.273-2.394 3.521-.37 10.584-.714 19.355-.637 6.286.056 13.447.336 20.811.987v1.988a115.485 115.485 0 00-7.091-.546c-2.45-.119-4.928-.189-7.441-.252l-.007.007c-.007 0-.007-.007-.014-.007h-7.7c-1.484.105-3.507.14-5.768.182-3.514.07-7.588.147-11.06.483-1.54.154-2.891.378-4.067.75-1.19.377-2.212.902-3.073 1.658-1.953 1.715-3.766 7.498-5.243 14.301-2.233 10.235-3.745 22.834-3.864 27.286v12.061c0 1.008.035 1.94.427 2.653.126.224.301.42.504.588.021.014.028.028.049.035a.497.497 0 00.098.07h-3.794V51.321c.126-4.585 1.099-12.137 2.464-19.893 1.337-7.617 3.052-15.422 4.69-20.805zm51.394-8.66c1.771.532 3.031 1.393 3.892 2.562.91 1.24 1.379 2.828 1.547 4.746v.007l1.876 25.326c0 4.425-.329 6.846-1.099 8.155-.7 1.183-1.827 1.435-3.458 1.456V27.62l-1.337-15.49c-.175-1.96-.336-3.473-.553-4.747-.217-1.26-.483-2.289-.868-3.297v-2.12zm21.854 29.995h4.62v2.387h-4.62V31.96zm-1.764-10.087h8.498v9.584h-8.498v-9.584zm.098-1.512l.021-.006c1.176-.826 2.653-1.24 4.13-1.24 1.477 0 2.954.413 4.137 1.24a5.89 5.89 0 011.12 1.008h-10.507a5.971 5.971 0 011.099-1.002zm12.208 10.024c0-1.064.441-2.037 1.14-2.744a3.904 3.904 0 012.744-1.14h6.125v7.776h-10.009v-3.892zm13.271-6.846c0-.672.28-1.288.721-1.736a2.484 2.484 0 011.743-.72h2.884v2.393l-.434-.007c-1.064-.006-1.61-.014-1.946.294-.357.33-.35.904-.35 2.066v.168h-2.618v-2.457zm25.165 4.102a3.874 3.874 0 011.141 2.744v3.892h-10.01V26.5h6.125c1.064 0 2.044.442 2.744 1.142zm-33.019 7.21h4.214v4.704c0 .14.112.252.245.252h23.856a.25.25 0 00.252-.252V34.85h4.214v28.273h-32.781V34.85zm26.25 0h1.813v4.453h-1.813V34.85zm-21.539 0h1.813v4.453h-1.813V34.85zm2.317 0h1.631v4.453h-1.631V34.85zm2.135 0h1.631v4.453h-1.631V34.85zm2.142 0h1.631v4.453h-1.631V34.85zm2.128 0h1.638v4.453h-1.638V34.85zm2.142 0h1.631v4.453h-1.631V34.85zm2.128 0h1.638v4.453h-1.638V34.85zm2.142 0h1.631v4.453h-1.631V34.85zm2.135 0h1.631v4.453h-1.631V34.85zm2.135 0h1.631v4.453h-1.631V34.85zm-16.513-8.35h16.044v7.776h-18.55V26.5h2.506zM256.412 4.364c.35.945.609 1.918.812 3.101.21 1.253.371 2.751.546 4.712l1.337 15.483v16.555h-12.369c-1.932 0-3.311-.679-4.242-1.729-1.134-1.274-1.61-3.1-1.61-4.886l-1.05-30.387 2.107-3.647c2.457.056 4.879.126 7.287.238a118.5 118.5 0 017.182.56zM236.833 7.06h-2.45v-3.5h2.45v3.5zm-2.45.504h2.45v31.493h-2.45V7.564zm-.511 28.651h-28.805c.112-.763.21-1.512.336-2.282 1.141-7.23 2.779-14.79 4.06-19.663h.007c.623-2.61 1.554-4.284 2.912-5.306l.014-.007c1.365-1.022 3.185-1.393 5.6-1.393h15.876v28.651zm-11.2 17.171h-13.776c-1.617 0-2.828-.385-3.626-1.162-.805-.777-1.225-1.974-1.253-3.584-.077-3.164.336-7.406.973-11.92h28.882v11.675l-11.2 4.991zm-20.783 8.8c-.336-.603-.364-1.47-.364-2.409V47.723c.119-4.43 1.624-16.982 3.85-27.188 1.463-6.713 3.227-12.397 5.082-14.028.812-.707 1.764-1.204 2.898-1.554 1.141-.364 2.464-.58 3.962-.728 3.458-.343 7.518-.42 11.018-.483 2.156-.042 4.088-.077 5.537-.168V7.06h-15.876c-2.52 0-4.438.4-5.901 1.491l-.014.014c-1.456 1.092-2.443 2.857-3.101 5.58-1.288 4.878-2.926 12.453-4.081 19.711-.133.868-.252 1.715-.371 2.57-.007.014-.021.02-.021.041 0 .008.014.014.014.014-.658 4.606-1.085 8.94-1.015 12.166.042 1.757.511 3.066 1.414 3.941.903.875 2.226 1.302 3.976 1.302h12.642l-19.397 8.624a1.466 1.466 0 01-.252-.329zm2.142.937c-.616 0-1.071-.09-1.421-.266l31.262-13.909v14.175h-29.841zm30.352-23.561h2.45v23.561h-2.45V39.562zm2.947 23.561V3.56h4.032l-1.995 3.465a.175.175 0 00-.035.133l1.05 30.444c0 1.897.511 3.842 1.736 5.221 1.022 1.148 2.527 1.897 4.62 1.897h12.614l.007.007h.007c1.946-.007 3.269-.259 4.13-1.708.28-.462.49-1.064.672-1.806v21.91H237.33zm27.335 0V34.85h29.497v28.273h-29.497zm85.273 1.036l-2.926-24.948c-.161-1.364-.735-2.61-1.624-3.5a4.543 4.543 0 00-3.262-1.358H329.33v-3.969a4.406 4.406 0 00-1.288-3.1 4.406 4.406 0 00-3.101-1.288h-19.299v-.168c0-1.015-.007-1.512.196-1.694.182-.175.665-.169 1.596-.162l.686.008a.26.26 0 00.252-.253V20.83a.255.255 0 00-.252-.252h-3.136c-.819 0-1.561.33-2.093.868a2.96 2.96 0 00-.875 2.093v2.457h-8.883a4.402 4.402 0 00-3.1 1.288 4.4 4.4 0 00-1.281 3.101v3.97h-4.921V31.96h1.862c.14 0 .252-.111.252-.258v-9.829h1.015c.14 0 .245-.111.245-.252a.285.285 0 00-.056-.168 6.317 6.317 0 00-1.533-1.519c-1.267-.881-2.849-1.323-4.424-1.323-1.575 0-3.15.442-4.417 1.323l-.021.015a6.197 6.197 0 00-1.526 1.526.248.248 0 00.063.35.335.335 0 00.14.048h1.008v9.829c0 .146.112.258.252.258h1.505v2.394h-13.545l-1.855-25.109V9.23c-.175-2.002-.672-3.682-1.645-5.005-.98-1.33-2.436-2.289-4.487-2.835-.014-.007-.014 0-.021 0-.007 0-.014-.007-.021-.007C249.16.718 241.901.438 235.538.375c-8.792-.077-15.876.273-19.411.637-3.654.378-5.922 1.078-7.553 2.52-1.624 1.442-2.576 3.612-3.591 6.944-.658 2.15-1.323 4.683-1.974 7.434-6.818-4.662-12.964-7.896-19.418-9.989-6.552-2.12-13.426-3.08-21.651-3.192-6.083-.077-11.074.61-15.841 1.82-.014 0-.021-.014-.035-.014h-11.032c-1.127 0-2.142-.02-3.136-.035-5.096-.09-9.625-.147-14.406 2.121-.021 0-.035-.007-.056 0l-61.292 27.02a.24.24 0 00-.12.33l.806 1.722L5.63 60.428l-1.533-.119a3.772 3.772 0 00-1.981.511 4.259 4.259 0 00-1.477 1.414 4.104 4.104 0 00-.637 2.01 4.224 4.224 0 00.588 2.26l7.364 13.657a.219.219 0 00.189.12c.007.006 0 .013.007.013l5.054.84 25.935 11.781c.728.336 1.47.434 2.177.301a.405.405 0 00.098-.035l42.882 7.175-.098.595a.257.257 0 00.21.287l5.873.938c.14.021.266-.07.287-.203l.133-.819 3.122.504a.258.258 0 00.287-.217l.084-.518 37.646 6.23 2.884 2.639a3.223 3.223 0 002.163.84c.833 0 1.54-.287 2.072-.749.469-.392.805-.924.987-1.505a3.337 3.337 0 00.042-1.799c-.042-.154-.133-.294-.203-.448l10.178-9.744c.938.4 1.883.483 2.737.273a4.485 4.485 0 002.177-1.267 4.566 4.566 0 001.183-2.226 4.34 4.34 0 00-.455-2.919c0-.014-.014-.014-.021-.02 0-.008.007-.015.007-.015-.371-.476-.658-1.267-.861-2.135-.259-1.106-.378-2.303-.364-3.129.063-2.527.588-5.068 1.043-7.28.266-1.295.455-2.408.574-3.423a9.79 9.79 0 00.126-1.365v-.007l-.007-.007c.105-4.088-.651-7.336-2.17-9.898-1.519-2.569-3.815-4.438-6.755-5.789l-.035-.014-27.426-8.085c-.007 0-.021.007-.035.007-.007-.007-.007-.014-.014-.014l-10.577-.72a.252.252 0 00-.273.23c0 .098.049.19.126.238l8.001 5.124c-.196-.028-.392-.063-.574-.07-.651-.028-1.204.12-1.477.588-.168.287-.294.581-.329.903-.028.322.042.672.273 1.071l2.394 4.564a.223.223 0 00.077.084l6.342 4.81 9.184 26.207-81.2-28.322c.896-.154 1.687-.392 2.415-1.05l.014-.014c.273-.273.455-.609.658-.973.3-.539.63-1.14 1.337-1.56l80.598-25.347c5.95-2.052 12.376-3.29 19.054-3.963 6.664-.671 13.58-.797 20.517-.615l2.205 1.777-.609.764a.24.24 0 00.035.35l4.837 3.906 15.197 12.291c-.035.7-.07 1.358-.091 1.967v19.391c0 .14.112.251.252.251h26.229v3.06c0 .14.112.258.252.258h1.694v1.771l-.217.021-.322-.93a.249.249 0 00-.266-.176l-1.862.182c-.119.007-.203.098-.224.21l-.189 1.1-1.575.153-.392-1.05a.25.25 0 00-.259-.16l-1.855.174a.24.24 0 00-.224.21l-.189 1.1-1.582.153-.392-1.05a.245.245 0 00-.252-.16l-1.862.174a.26.26 0 00-.224.21l-.189 1.106-1.575.147-.392-1.05c-.035-.105-.147-.168-.259-.16l-1.855.174a.26.26 0 00-.231.21l-.182 1.1-1.575.153-.392-1.05a.25.25 0 00-.259-.16l-1.862.174a.252.252 0 00-.224.21l-.182 1.1-1.575.153-.392-1.05a.256.256 0 00-.259-.16l-1.862.174a.26.26 0 00-.224.21l-.182 1.106-1.582.147-.385-1.05a.269.269 0 00-.266-.16l-1.855.174a.268.268 0 00-.224.21l-.189 1.106-1.575.147-.392-1.05a.26.26 0 00-.259-.16l-1.855.174a.253.253 0 00-.224.21l-.189 1.1-1.575.153-.392-1.043a.256.256 0 00-.259-.168l-1.869.182a.24.24 0 00-.224.21l-.154 1.085-1.575.19-.441-1.079c-.035-.112-.14-.168-.252-.154l-1.652.161a.25.25 0 00-.224.245l-.056 1.183-1.547.35-.546-1.05a.246.246 0 00-.294-.126 16.017 16.017 0 00-1.302.491.24.24 0 00-.14.293l.322 1.211-1.372.791-.945-.945a.256.256 0 00-.336-.02c-.189.125-.371.251-.546.377-.182.133-.364.266-.546.413a.249.249 0 00-.056.322l.658 1.141-1.12 1.127-1.197-.693a.255.255 0 00-.315.05 80 80 0 00-.42.503c-.133.168-.266.343-.399.525a.248.248 0 00.028.33l.903.902-.791 1.372-1.281-.343a.257.257 0 00-.301.147 9.497 9.497 0 00-.273.61 8.436 8.436 0 00-.252.63.237.237 0 00.105.3l1.015.588-.406 1.533h-1.204a.244.244 0 00-.245.224c-.042.238-.084.476-.112.714l-.007.007c-.035.252-.056.497-.077.728a.253.253 0 00.203.273l.966.26v1.581l-.98.266c-.126.035-.203.147-.189.26.021.251.049.503.084.762.035.252.07.504.119.75.021.125.133.21.252.21h1.008l.413 1.532-.861.49a.256.256 0 00-.105.322c.091.217.175.441.266.651.091.217.189.434.294.651a.242.242 0 00.287.126l1.127-.301.798 1.372-.805.798a.256.256 0 00-.014.336c.126.175.259.357.406.532.14.182.287.357.434.525.077.091.21.112.315.056l1.015-.595 1.127 1.127-.567.98a.246.246 0 00.056.315c.182.147.364.294.546.427.182.14.378.273.574.399.098.07.231.056.315-.028l.826-.819 1.372.784-.287 1.071a.257.257 0 00.147.301c.21.091.434.182.658.273.224.084.448.168.679.238a.244.244 0 00.294-.105l.553-.959 1.526.413v1.022c0 .133.105.238.231.252.217.035.448.063.686.084.238.021.476.042.707.056a.245.245 0 00.259-.189l.273-1.015h1.589l.273 1.043a.248.248 0 00.245.182h1.897a.248.248 0 00.245-.189l.28-1.036h1.603l.287 1.043a.246.246 0 00.238.182h1.967a.248.248 0 00.245-.189l.28-1.036h1.61l.28 1.043a.248.248 0 00.245.182h2.212a.248.248 0 00.245-.189l.28-1.036h1.61l.28 1.043a.248.248 0 00.245.182h2.212a.248.248 0 00.245-.189l.28-1.036h1.61l.28 1.043a.248.248 0 00.245.182h2.212a.248.248 0 00.245-.189l.28-1.036h1.61l.28 1.043a.254.254 0 00.245.182h2.212a.248.248 0 00.245-.189l.28-1.036h1.61l.28 1.043a.254.254 0 00.245.182h2.212c.119 0 .224-.077.245-.189l.28-1.036h1.61l.28 1.043a.254.254 0 00.245.182h2.212a.248.248 0 00.245-.189l.28-1.036h1.61l.28 1.043a.254.254 0 00.245.182h2.212a.248.248 0 00.245-.189l.28-1.036h1.61l.28 1.043a.248.248 0 00.245.182h2.212a.248.248 0 00.245-.189l.28-1.036h1.61l.28 1.043a.248.248 0 00.245.182h2.212a.248.248 0 00.245-.189l.28-1.036h1.61l.28 1.043a.248.248 0 00.245.182h2.226c.119 0 .224-.077.245-.189l.287-1.036h1.61l.273 1.043a.26.26 0 00.245.182h2.233a.248.248 0 00.245-.189l.28-1.036h1.61l.28 1.043a.248.248 0 00.245.182h2.226a.248.248 0 00.245-.189l.28-1.036h1.61l.28 1.043a.254.254 0 00.245.182h2.233a.248.248 0 00.245-.189l.28-1.036h1.61l.28 1.043a.248.248 0 00.245.182h2.226a.248.248 0 00.245-.189l.28-1.036h1.61l.28 1.043a.254.254 0 00.245.182h2.233c.119 0 .21-.077.245-.189l.28-1.036h1.603l.287 1.043a.24.24 0 00.238.182h2.233a.248.248 0 00.245-.189l.28-1.036h1.61l.28 1.043a.248.248 0 00.245.182h2.226c.119 0 .224-.077.245-.189l.28-1.036h1.61l.28 1.043a.26.26 0 00.245.182h2.233a.248.248 0 00.245-.189l.28-1.036h1.61l.28 1.043a.246.246 0 00.238.182h2.233a.248.248 0 00.245-.189l.28-1.036h1.61l.28 1.043a.254.254 0 00.245.182h2.232a.24.24 0 00.238-.189l.287-1.036h1.603l.287 1.043a.248.248 0 00.245.182h2.226a.248.248 0 00.245-.189l.28-1.036h1.61l.28 1.043a.254.254 0 00.245.182h2.226c.119 0 .224-.077.245-.189l.28-1.036h1.61l.28 1.043a.254.254 0 00.245.182h2.233a.248.248 0 00.245-.189l.28-1.036h1.603l.287 1.043a.248.248 0 00.245.182h1.869a.249.249 0 00.245-.196l.273-1.029h1.589l.273 1.022a.245.245 0 00.266.182c.231-.014.462-.035.693-.056h.007c.238-.028.476-.056.693-.084a.25.25 0 00.217-.252v-1.022l1.533-.413.546.959a.27.27 0 00.315.105c.224-.077.448-.154.658-.238.231-.091.455-.182.665-.273a.264.264 0 00.147-.301l-.287-1.064 1.365-.791.833.819a.256.256 0 00.336.021c.189-.133.371-.259.546-.392.182-.133.364-.28.546-.427a.241.241 0 00.063-.315l-.567-.98 1.12-1.127 1.022.595a.256.256 0 00.315-.056c.147-.168.294-.343.434-.525.14-.175.273-.357.413-.539a.264.264 0 00-.028-.329l-.798-.798.791-1.372 1.134.301a.248.248 0 00.294-.14c.098-.21.196-.427.287-.637.098-.217.182-.44.266-.665a.254.254 0 00-.112-.308l-.854-.49.406-1.533h1.015a.251.251 0 00.252-.224c.042-.245.084-.49.112-.735.042-.259.07-.51.091-.763.014-.119-.084-.238-.203-.266l-.973-.259V93.44l.987-.266a.252.252 0 00.189-.266 14.806 14.806 0 00-.203-1.463.248.248 0 00-.245-.21h-1.197l-.413-1.533 1.022-.588c.105-.056.147-.189.105-.3a8.436 8.436 0 00-.252-.63c-.091-.21-.182-.42-.28-.624a.255.255 0 00-.294-.133l-1.288.343-.791-1.372.91-.903a.259.259 0 00.014-.35c-.133-.175-.259-.343-.385-.504-.14-.175-.287-.343-.42-.504a.248.248 0 00-.329-.042l-1.183.686-1.12-1.127.658-1.14a.249.249 0 00-.063-.323c-.182-.147-.357-.28-.546-.413a11.095 11.095 0 00-.553-.392.263.263 0 00-.322.035l-.952.945-1.372-.79.329-1.212c.028-.126-.035-.259-.154-.3-.203-.085-.413-.176-.63-.253a12.274 12.274 0 00-.658-.23.252.252 0 00-.301.132l-.546 1.043-1.547-.35-.049-1.19c0-.119-.098-.217-.217-.238a10.002 10.002 0 00-.427-.049 44.75 44.75 0 01-.427-.042l-.805-.07a.249.249 0 00-.259.154l-.434 1.078-1.575-.189-.154-1.085a.254.254 0 00-.238-.217l-1.855-.175a.26.26 0 00-.266.175l-.385 1.036-1.582-.154-.182-1.099a.252.252 0 00-.231-.21l-1.848-.175a.247.247 0 00-.266.175l-.385 1.036-1.582-.147-.182-1.106a.26.26 0 00-.238-.21l-1.848-.175a.243.243 0 00-.259.175l-.385 1.036-1.582-.147-.189-1.106a.246.246 0 00-.231-.21l-1.848-.175a.252.252 0 00-.266.175l-.385 1.036-1.575-.154-.189-1.099a.254.254 0 00-.238-.21l-1.841-.175a.251.251 0 00-.265.175l-.392 1.036-1.575-.154-.182-1.099a.254.254 0 00-.238-.21l-1.848-.175a.243.243 0 00-.259.175l-.392 1.036-1.575-.147-.182-1.106a.26.26 0 00-.238-.21l-1.848-.175a.243.243 0 00-.259.175l-.392 1.036-1.575-.154-.189-1.106a.254.254 0 00-.238-.203l-1.841-.175a.252.252 0 00-.266.175l-.385 1.036-1.575-.154-.189-1.099a.254.254 0 00-.238-.21l-1.841-.182a.26.26 0 00-.266.182l-.385 1.036-.182-.02v-1.884h1.694c.14 0 .252-.119.252-.259v-3.059h72.204c.147 0 .301-.007.448-.028 1.134-.133 2.156-.763 2.898-1.77.728-.988 1.176-2.346 1.176-3.942 0-.343-.021-.693-.063-1.057z" fill="#000"/></svg>