<svg width="1000" height="328" fill="none" xmlns="http://www.w3.org/2000/svg"><path d="M616.74 15.84h52.9v142.44h-52.9V15.84zm210.2 247.46c-.08.28-.22.54-.4.78-.18.22-.4.42-.64.56-.62.34-1.42.38-2.16-.2-.74-.6-.88-1.36-.7-2.04.08-.28.22-.54.42-.76.16-.24.4-.44.64-.58.6-.36 1.4-.38 2.14.22.74.58.9 1.36.7 2.02zm-6.48 4.5c-.4 1.04-.98 2.04-1.68 2.96 0 .04-.04.04-.04.08-1.4 1.8-3.34 3.22-5.82 3.98-.04.02-.12.06-.18.06-1.24.38-2.6.58-4.1.58-1.54 0-2.9-.2-4.14-.58-.06-.02-.16-.04-.22-.06-3.72-1.18-6.22-3.84-7.5-7.02-.68-1.68-1-3.52-1-5.36 0-1.84.32-3.68 1-5.36 1.72-4.3 5.68-7.68 11.86-7.68 4.54 0 7.88 1.86 10.02 4.58.04.1.14.16.2.26.66.88 1.22 1.84 1.6 2.84.68 1.68 1.02 3.52 1.02 5.36 0 1.84-.34 3.68-1.02 5.36zm-.08 2.98c.24-.18.5-.32.78-.4.28-.08.58-.12.86-.08.7.06 1.36.5 1.62 1.4.28.94-.04 1.66-.6 2.08-.24.2-.5.32-.78.4-.26.1-.56.12-.86.1-.7-.08-1.36-.52-1.64-1.42-.1-.44-.08-.82 0-1.16.14-.16.22-.36.34-.52.1-.14.14-.32.28-.4zm-6.42 5.5c.26.12.52.26.74.44.52.48.78 1.22.46 2.12-.34.9-1.02 1.28-1.74 1.3-.28.02-.56-.04-.84-.14-.28-.1-.54-.26-.74-.44-.54-.48-.8-1.22-.46-2.12.28-.76.84-1.1 1.44-1.2.14-.06.3-.04.44-.08.24.02.48.04.7.12zm-9.24.48l.02.02c.14.24.24.5.3.76.16.7-.08 1.46-.86 1.98-.82.52-1.6.44-2.18.04-.22-.18-.44-.4-.6-.62-.16-.26-.28-.52-.32-.8-.16-.7.06-1.46.86-1.98.54-.36 1.02-.38 1.48-.26.26.1.48.22.76.28.2.16.4.34.54.58zm-7.72-4.04c-.28.64-.92 1.14-1.86 1.12-.96-.04-1.56-.56-1.8-1.24-.08-.26-.14-.56-.12-.84 0-.3.08-.58.18-.86.28-.64.92-1.12 1.86-1.1.96.02 1.54.56 1.8 1.22.08.26.14.56.12.86 0 .28-.08.58-.18.84zm-3.1-8.48c-.16.26-.38.46-.6.62-.6.38-1.38.46-2.16-.08-.8-.54-1.02-1.3-.86-1.98.06-.28.18-.56.34-.8.18-.24.38-.46.62-.62.58-.38 1.38-.46 2.16.08.78.54 1 1.3.84 2-.06.28-.18.54-.34.78zm-.8-10.24c-.3-.88-.02-1.64.5-2.1.22-.18.46-.34.74-.42.28-.1.58-.16.86-.14.7.02 1.38.44 1.7 1.32.32.92.04 1.66-.48 2.12-.22.18-.48.32-.74.42-.28.1-.58.16-.86.14-.7-.02-1.4-.42-1.72-1.34zm9.8-4.8c-.28.04-.58.02-.86-.06s-.56-.2-.78-.36c-.56-.42-.9-1.14-.66-2.08.26-.9.9-1.36 1.6-1.44.28-.04.6-.02.88.06s.54.2.76.38c.56.42.9 1.14.66 2.06-.12.44-.32.76-.6.98-.22.08-.36.22-.56.28-.16.06-.28.16-.44.18zm9.52-.68c-.24-.14-.44-.34-.62-.58-.18-.24-.3-.5-.38-.78-.18-.68 0-1.46.78-2 .76-.58 1.54-.52 2.14-.16.24.16.46.38.64.6.16.24.3.5.38.78.16.68-.02 1.44-.78 2.02-.38.28-.76.4-1.12.4-.18-.06-.38-.08-.54-.14-.18-.04-.34-.04-.5-.14zm7.5 3.26c.26-.64.88-1.16 1.82-1.16.96 0 1.56.52 1.84 1.16v.04c.1.24.14.52.14.82 0 .3-.04.6-.14.84-.28.66-.88 1.18-1.84 1.18-.82 0-1.32-.42-1.64-.92-.06-.12-.12-.28-.22-.4-.06-.22-.12-.46-.12-.7 0-.3.06-.58.16-.86zm3.5 8.12c-.3.16-.52.4-.76.66-.16-1.36-.44-2.72-.94-3.98-.1-.24-.28-.46-.38-.7.16.02.24.14.4.14 1.6 0 2.62-.9 3.08-2.04.18-.42.26-.88.26-1.34 0-.44-.08-.9-.24-1.32l-.02-.04c-.46-1.14-1.48-2-3.08-2-1.58 0-2.62.86-3.08 2.02-.08.22-.08.46-.12.68-.98-.96-2.14-1.76-3.44-2.38.08-.06.18-.04.28-.12 1.28-.94 1.58-2.26 1.28-3.44-.12-.44-.32-.86-.58-1.24-.3-.36-.62-.68-1.02-.94-1.04-.64-2.38-.76-3.66.2-1.3.94-1.58 2.26-1.28 3.44.08.3.24.56.4.82-.64-.06-1.2-.26-1.88-.26-1.14 0-2.08.24-3.06.42.06-.14.18-.2.22-.38.42-1.54-.16-2.76-1.14-3.5-.38-.26-.8-.48-1.24-.58-.44-.14-.92-.18-1.36-.12-1.22.16-2.34.92-2.76 2.46-.4 1.54.18 2.76 1.14 3.5.2.12.4.18.6.28a12.94 12.94 0 00-2.84 2.34c-.02-.1.02-.16 0-.26-.54-1.52-1.72-2.18-2.94-2.22-.46-.02-.92.04-1.36.2-.44.16-.84.38-1.2.68-.9.82-1.4 2.08-.86 3.58.52 1.52 1.7 2.18 2.92 2.24.26 0 .52-.08.76-.14v.02c-.54 1.36-.8 2.8-.96 4.26-.16-.16-.18-.36-.4-.5-1.32-.9-2.66-.74-3.68-.06-.36.26-.7.58-.96.96-.28.38-.46.82-.56 1.26-.26 1.2.08 2.5 1.4 3.42 1.32.88 2.66.74 3.68.06.26-.18.44-.42.64-.64.18 1 .46 2 .84 2.96.04.1.12.18.16.28-.14-.02-.22-.12-.36-.14-1.62-.04-2.68.8-3.16 1.92-.18.44-.28.88-.3 1.34 0 .46.06.94.22 1.36.42 1.16 1.42 2.06 3.02 2.12 1.58.06 2.64-.8 3.14-1.92.08-.22.1-.44.14-.68.88.94 1.9 1.72 3.08 2.36-.08.06-.16.04-.26.1-1.32.86-1.7 2.16-1.46 3.36.08.46.28.88.54 1.26.26.4.58.74.96 1 .98.7 2.34.88 3.68 0 1.32-.9 1.7-2.2 1.44-3.38-.04-.3-.2-.56-.34-.82.86.14 1.66.36 2.62.36.64 0 1.16-.18 1.78-.26-.1.16-.24.24-.32.42-.56 1.5-.08 2.76.84 3.58.34.3.74.56 1.16.72.44.14.92.22 1.36.22 1.22-.04 2.4-.7 2.96-2.18.56-1.5.08-2.78-.82-3.58-.18-.18-.42-.26-.62-.4 1.34-.62 2.52-1.42 3.5-2.4.02.1-.02.18 0 .3.46 1.52 1.58 2.26 2.8 2.38.46.04.92 0 1.36-.14.46-.12.88-.34 1.24-.62.94-.76 1.5-1.98 1.06-3.52-.44-1.52-1.58-2.28-2.78-2.38-.3-.04-.58.04-.86.08.14-.26.32-.48.42-.74.42-1.04.7-2.14.86-3.26.14.16.16.32.32.46 1.26.98 2.62.92 3.66.3.42-.22.76-.54 1.04-.9.3-.36.52-.76.64-1.22.34-1.16.1-2.5-1.16-3.46-1.26-1-2.6-.94-3.66-.32zm-11.34 4.12c-.52 1.24-1.64 2.22-3.44 2.22-1.82 0-2.96-.98-3.46-2.22-.2-.5-.3-1.04-.3-1.58s.1-1.08.3-1.58c.5-1.24 1.64-2.22 3.46-2.22 1.8 0 2.92.98 3.44 2.22.2.5.28 1.04.28 1.58s-.08 1.08-.28 1.58zm-3.44-6.74c-2.46 0-4.04 1.36-4.72 3.08-.26.66-.4 1.36-.4 2.08 0 .7.14 1.42.4 2.08.68 1.74 2.26 3.08 4.72 3.08 2.44 0 4-1.34 4.68-3.08.28-.66.4-1.38.4-2.08 0-.72-.12-1.42-.4-2.08-.68-1.72-2.24-3.08-4.68-3.08zm19.8 24.98a27.898 27.898 0 01-19.82 8.22c-7.74 0-14.74-3.14-19.82-8.22a27.898 27.898 0 01-8.22-19.82c0-7.74 3.14-14.76 8.22-19.82 5.08-5.08 12.08-8.22 19.82-8.22s14.76 3.14 19.82 8.22c5.1 5.06 8.22 12.08 8.22 19.82s-3.12 14.76-8.22 19.82zm-19.82-49.22c-8.12 0-15.46 3.3-20.78 8.6a29.323 29.323 0 00-8.6 20.8c0 8.12 3.28 15.46 8.6 20.78s12.66 8.62 20.78 8.62c8.12 0 15.48-3.3 20.8-8.62 5.32-5.32 8.6-12.66 8.6-20.78 0-8.12-3.28-15.48-8.6-20.8-5.32-5.3-12.68-8.6-20.8-8.6zm6.92 32.54c-1 2.52-3.3 4.48-6.9 4.48-3.62 0-5.94-1.96-6.94-4.48-.38-.98-.58-2.06-.58-3.14s.2-2.16.58-3.14c1-2.5 3.32-4.46 6.94-4.46 3.6 0 5.9 1.96 6.9 4.46.4.98.6 2.06.6 3.14s-.2 2.16-.6 3.14zm-6.9-12.12c-4.26 0-7 2.34-8.18 5.34-.46 1.16-.7 2.4-.7 3.64 0 1.24.24 2.48.7 3.64 1.18 3 3.92 5.32 8.18 5.32 4.24 0 6.96-2.32 8.16-5.32.46-1.16.68-2.4.68-3.64 0-1.24-.22-2.48-.68-3.64-1.2-3-3.92-5.34-8.16-5.34zm23.4 32.4c-5.98 6-14.26 9.7-23.4 9.7-9.16 0-17.44-3.7-23.44-9.7-5.98-6-9.7-14.26-9.7-23.42 0-9.14 3.72-17.44 9.7-23.42 6-6 14.28-9.7 23.44-9.7 9.14 0 17.42 3.7 23.4 9.7 6 5.98 9.7 14.28 9.7 23.42 0 9.16-3.7 17.42-9.7 23.42zm-23.4-57.9c-9.54 0-18.16 3.86-24.4 10.1-6.22 6.24-10.08 14.86-10.08 24.38s3.86 18.14 10.08 24.38c6.24 6.24 14.86 10.1 24.4 10.1 9.5 0 18.12-3.86 24.36-10.1 6.24-6.24 10.1-14.86 10.1-24.38s-3.86-18.14-10.1-24.38c-6.24-6.24-14.86-10.1-24.36-10.1zM668.52 263.3c-.08.28-.2.54-.4.78-.18.22-.4.42-.64.56-.62.34-1.4.38-2.14-.2-.76-.6-.92-1.36-.72-2.04.08-.28.22-.54.4-.76.18-.24.42-.44.66-.58.6-.36 1.4-.38 2.14.22.74.58.9 1.36.7 2.02zm-6.48 4.5c-.4 1.04-.98 2.04-1.68 2.96 0 .04-.02.04-.04.08-1.4 1.8-3.34 3.22-5.8 3.98-.08.02-.12.06-.2.06-1.22.38-2.6.58-4.12.58-1.5 0-2.88-.2-4.12-.58-.06-.02-.14-.04-.22-.06-3.72-1.18-6.22-3.84-7.5-7.02-.68-1.68-1-3.52-1-5.36 0-1.84.32-3.68 1-5.36 1.72-4.3 5.68-7.68 11.84-7.68 4.58 0 7.92 1.86 10.04 4.58h.02c.02.1.12.16.18.24.66.88 1.2 1.86 1.6 2.86.7 1.68 1.02 3.52 1.02 5.36 0 1.84-.32 3.68-1.02 5.36zm-.08 2.98c.22-.18.48-.32.78-.4.28-.08.58-.12.86-.08.7.06 1.36.5 1.62 1.4.28.94-.04 1.66-.6 2.08-.22.2-.48.32-.78.4-.28.1-.56.12-.84.1-.72-.08-1.38-.52-1.64-1.42-.12-.44-.1-.82 0-1.16.12-.16.2-.36.32-.52.1-.14.16-.32.28-.4zm-6.42 5.5c.28.12.52.26.74.44.52.48.8 1.22.46 2.12-.34.9-1.02 1.28-1.72 1.3-.3.02-.58-.04-.86-.14s-.54-.26-.74-.44c-.52-.48-.8-1.22-.46-2.12.28-.76.84-1.1 1.44-1.2.14-.06.3-.04.44-.08.22.02.48.04.7.12zm-9.24.48l.02.02c.14.24.24.5.3.76.14.7-.08 1.46-.86 1.98-.8.52-1.6.44-2.18.04-.24-.18-.44-.4-.6-.62-.16-.26-.28-.52-.32-.8-.16-.7.08-1.46.86-1.98.54-.36 1.02-.38 1.48-.26.26.1.48.22.76.28.2.16.4.34.54.58zm-7.72-4.04c-.3.64-.9 1.14-1.86 1.12-.96-.04-1.54-.56-1.8-1.24-.08-.26-.12-.56-.12-.84 0-.3.08-.58.18-.86.3-.64.9-1.12 1.86-1.1.96.02 1.56.56 1.78 1.22.1.26.14.56.14.86 0 .28-.06.58-.18.84zm-3.1-8.48c-.18.26-.38.46-.6.62-.6.38-1.38.46-2.18-.08-.78-.54-1-1.3-.84-1.98.06-.28.18-.56.34-.8.18-.24.38-.46.62-.62.58-.38 1.38-.46 2.16.08.8.54 1 1.3.86 2-.06.28-.2.54-.36.78zM634.7 254c-.34-.88-.06-1.64.48-2.1.22-.18.48-.34.76-.42.28-.1.56-.16.84-.14.7.02 1.4.44 1.72 1.32.3.92.02 1.66-.5 2.12-.22.18-.48.32-.76.42-.26.1-.56.16-.84.14-.72-.02-1.4-.42-1.7-1.34zm9.78-4.8c-.28.04-.58.02-.86-.06s-.56-.2-.78-.36c-.56-.42-.9-1.14-.64-2.08.24-.9.88-1.36 1.58-1.44.3-.04.58-.02.86.06.3.08.56.2.8.38.56.42.88 1.14.64 2.06-.12.44-.34.76-.6.98-.22.08-.36.22-.58.3-.14.04-.26.14-.42.16zm9.52-.68a2.41 2.41 0 01-.62-.58c-.16-.24-.3-.5-.38-.78-.16-.68 0-1.46.78-2 .76-.58 1.54-.52 2.14-.16.24.16.46.38.64.6.18.24.3.5.36.78.18.68 0 1.44-.76 2.02-.38.28-.76.4-1.12.4-.18-.06-.36-.08-.56-.14-.16-.04-.32-.04-.48-.14zm7.5 3.26c.26-.64.88-1.16 1.82-1.16.96 0 1.56.52 1.84 1.16v.04c.1.24.14.52.14.82 0 .3-.06.6-.14.84-.28.66-.88 1.18-1.84 1.18-.8 0-1.32-.42-1.64-.94-.08-.12-.12-.26-.2-.38-.08-.22-.14-.46-.14-.7 0-.3.06-.58.16-.86zm3.5 8.12c-.3.16-.52.4-.76.66-.16-1.36-.44-2.72-.94-3.98-.1-.24-.28-.46-.38-.7.16.02.24.14.4.14 1.6 0 2.62-.9 3.08-2.04.18-.42.26-.88.26-1.34 0-.44-.06-.9-.24-1.32l-.02-.04c-.46-1.14-1.48-2-3.08-2s-2.62.86-3.06 2.02c-.1.22-.1.46-.14.68-.98-.96-2.12-1.76-3.44-2.38.08-.06.18-.04.28-.12 1.28-.94 1.58-2.26 1.28-3.44-.12-.44-.32-.86-.6-1.24-.26-.36-.62-.68-1-.94-1.02-.64-2.38-.76-3.68.2-1.26.94-1.58 2.26-1.26 3.44.08.3.24.56.38.82-.62-.06-1.18-.26-1.88-.26-1.12 0-2.06.24-3.04.42.06-.14.18-.2.24-.38.4-1.54-.18-2.76-1.16-3.5-.38-.26-.8-.48-1.24-.58-.46-.14-.92-.18-1.38-.12-1.2.16-2.34.92-2.74 2.46-.42 1.54.18 2.76 1.16 3.5.16.12.38.18.58.28a12.94 12.94 0 00-2.84 2.34c-.02-.1.02-.16-.02-.26-.52-1.52-1.7-2.18-2.92-2.22-.46-.02-.92.04-1.36.2-.44.16-.84.38-1.2.68-.9.82-1.4 2.08-.86 3.58.52 1.52 1.7 2.18 2.92 2.24.26 0 .52-.08.76-.14v.02c-.54 1.36-.8 2.8-.96 4.26-.16-.16-.18-.36-.4-.5-1.32-.9-2.66-.74-3.66-.06-.4.26-.72.58-1 .96-.24.38-.44.82-.54 1.26-.26 1.2.1 2.5 1.4 3.42 1.32.88 2.66.74 3.68.06.26-.18.44-.42.64-.64.18 1 .46 2 .84 2.96.04.1.12.18.16.28-.14-.02-.22-.12-.38-.14-1.6-.04-2.66.8-3.14 1.92-.18.44-.28.88-.28 1.34-.02.46.04.94.2 1.36.42 1.16 1.42 2.06 3.02 2.12 1.58.06 2.64-.8 3.14-1.92.08-.22.1-.44.14-.68.88.94 1.9 1.72 3.08 2.36-.08.06-.16.04-.24.1-1.34.86-1.72 2.16-1.48 3.36.1.46.28.88.54 1.26.24.4.58.74.94 1 1 .7 2.36.88 3.7 0 1.32-.9 1.7-2.2 1.46-3.38-.06-.3-.22-.56-.34-.82.86.14 1.64.36 2.58.36.66 0 1.18-.18 1.78-.26-.08.16-.22.24-.3.42-.56 1.5-.08 2.76.84 3.58.34.3.74.56 1.18.72.42.14.88.22 1.34.22 1.22-.04 2.42-.7 2.96-2.18.56-1.5.1-2.78-.82-3.58-.18-.18-.42-.26-.64-.38 1.36-.64 2.52-1.44 3.52-2.42.02.1-.04.18 0 .3.44 1.52 1.58 2.26 2.8 2.38.46.04.92 0 1.36-.14.46-.12.88-.34 1.24-.62.96-.76 1.52-1.98 1.06-3.52-.44-1.52-1.58-2.28-2.78-2.38-.3-.04-.58.04-.84.08.1-.26.3-.48.4-.74.42-1.04.7-2.14.88-3.26.12.16.14.32.3.46 1.26.98 2.62.92 3.68.3.38-.22.74-.54 1.02-.9s.52-.76.64-1.22c.36-1.16.08-2.5-1.16-3.46-1.26-1-2.6-.94-3.66-.32zm-11.34 4.12c-.5 1.24-1.66 2.22-3.46 2.22-1.78 0-2.94-.98-3.44-2.22-.2-.5-.3-1.04-.3-1.58s.1-1.08.3-1.58c.5-1.24 1.66-2.22 3.44-2.22 1.82 0 2.96.98 3.46 2.22.18.5.3 1.04.3 1.58s-.12 1.08-.3 1.58zm-3.46-6.74c-2.44 0-4.02 1.36-4.7 3.08-.26.66-.4 1.36-.4 2.08 0 .7.14 1.42.4 2.08.68 1.74 2.26 3.08 4.7 3.08 2.44 0 4.02-1.34 4.7-3.08.28-.66.4-1.38.4-2.08 0-.72-.12-1.42-.4-2.08-.68-1.72-2.26-3.08-4.7-3.08zm19.84 24.98c-5.08 5.08-12.1 8.22-19.84 8.22s-14.76-3.14-19.82-8.22a27.898 27.898 0 01-8.22-19.82c0-7.74 3.14-14.76 8.22-19.82a27.898 27.898 0 0119.82-8.22c7.74 0 14.76 3.14 19.84 8.22 5.06 5.06 8.22 12.08 8.22 19.82s-3.16 14.76-8.22 19.82zm-19.84-49.22c-8.12 0-15.46 3.3-20.78 8.6a29.323 29.323 0 00-8.6 20.8c0 8.12 3.28 15.46 8.6 20.78s12.66 8.62 20.78 8.62c8.12 0 15.48-3.3 20.78-8.62 5.32-5.32 8.62-12.66 8.62-20.78 0-8.12-3.3-15.48-8.62-20.8-5.3-5.3-12.66-8.6-20.78-8.6zm6.92 32.54c-1 2.52-3.3 4.48-6.92 4.48-3.6 0-5.92-1.96-6.92-4.48-.38-.98-.58-2.06-.58-3.14s.2-2.16.58-3.14c1-2.5 3.32-4.46 6.92-4.46 3.62 0 5.92 1.96 6.92 4.46.4.98.6 2.06.6 3.14s-.2 2.16-.6 3.14zm-6.92-12.12c-4.24 0-6.98 2.34-8.16 5.34-.48 1.16-.7 2.4-.7 3.64 0 1.24.22 2.48.7 3.64 1.18 3 3.92 5.32 8.16 5.32 4.26 0 6.98-2.32 8.18-5.32.46-1.16.68-2.4.68-3.64 0-1.24-.22-2.48-.68-3.64-1.2-3-3.92-5.34-8.18-5.34zm23.42 32.4c-5.98 6-14.26 9.7-23.4 9.7-9.16 0-17.44-3.7-23.44-9.7-6-6-9.7-14.26-9.7-23.42 0-9.14 3.7-17.44 9.7-23.42 6-6 14.28-9.7 23.44-9.7 9.14 0 17.42 3.7 23.4 9.7 6 5.98 9.7 14.28 9.7 23.42 0 9.16-3.7 17.42-9.7 23.42zm-23.4-57.9a34.42 34.42 0 00-24.4 10.1c-6.24 6.24-10.1 14.86-10.1 24.38s3.86 18.14 10.1 24.38a34.42 34.42 0 0024.4 10.1c9.5 0 18.12-3.86 24.36-10.1 6.26-6.24 10.12-14.86 10.12-24.38s-3.86-18.14-10.12-24.38c-6.24-6.24-14.86-10.1-24.36-10.1zm181.92-38.8h-12.48c-.02 0-.08-.24-.14-.54-.02-.2-.06-.4-.06-.64s.04-.44.06-.64c.06-.32.12-.54.14-.54h12.52c.02.02.02.04.02.06 0 .22.02.52.02.82.02.22.02.44.02.7 0 .44-.02.78-.1.78zm1.42-2.3c0-.38-.16-.72-.4-.98l-.02-.04c-.26-.24-.6-.4-1-.4h-12.48c-.82 0-1.3.72-1.46 1.66-.06.28-.08.58-.08.88 0 .3.02.6.08.88.16.94.64 1.66 1.46 1.66h12.48c1.24 0 1.46-.92 1.46-2.14l-.02-.76c0-.22-.02-.44-.02-.76zm16.88 2.3h-12.48c-.02 0-.08-.24-.14-.54-.02-.2-.04-.4-.04-.64s.02-.44.04-.64c.06-.32.12-.54.14-.54h12.54c0 .02.02.04.02.06 0 .22 0 .52.02.82 0 .22.02.44.02.7 0 .44-.02.78-.12.78zm1.44-2.3c0-.38-.16-.72-.42-.98l-.02-.04c-.24-.24-.6-.4-1-.4h-12.48c-.82 0-1.3.72-1.46 1.66-.06.28-.08.58-.08.88 0 .3.02.6.08.88.16.94.64 1.66 1.46 1.66h12.48c1.24 0 1.46-.92 1.46-2.14l-.02-.76v-.76zm17.22-.06v.06c0 .22.02.52.04.82 0 .22.02.44.02.7 0 .44-.02.78-.12.78h-12.5s-.06-.24-.12-.54a3.522 3.522 0 010-1.3c.06-.3.12-.54.12-.54h12.5c.02 0 .04.02.06.02zm-14 .3c-.06.28-.08.58-.08.88 0 .3.02.6.08.88.16.94.64 1.66 1.44 1.66h12.5c1.24 0 1.46-.92 1.46-2.14l-.02-.74c-.02-.24-.02-.48-.02-.78 0-.38-.14-.74-.4-.98l-.02-.02c-.26-.26-.62-.42-1-.42h-12.5c-.8 0-1.28.72-1.44 1.66zm-37.28-5.48c-.04-.2-.06-.42-.06-.64 0-.24.02-.46.06-.64.06-.32.1-.56.12-.56h12.5s.02.02.04.02c.02.02.02.04.02.06 0 .22.02.52.02.82 0 .22.02.42.02.7 0 .44-.02.78-.1.78h-12.5c-.02 0-.06-.24-.12-.54zm14.08-.24l-.04-.76v-.76c0-.38-.16-.74-.42-1v-.02c-.26-.24-.62-.4-1-.4h-12.5c-.8 0-1.28.72-1.44 1.64-.06.3-.1.6-.1.9 0 .3.04.58.1.88.16.94.64 1.66 1.44 1.66h12.5c1.24 0 1.46-.94 1.46-2.14zm-15.68-6.58c-.04-.18-.06-.42-.06-.64 0-.24.02-.46.06-.64.04-.3.1-.56.12-.56h12.48c.04 0 .04.02.06.02.02.02.02.04.02.06 0 .22.02.52.02.82 0 .22.02.42.02.7 0 .44-.02.78-.12.78h-12.48c-.02 0-.08-.24-.12-.54zm14.08-.24l-.02-.74c-.02-.24-.02-.48-.02-.78 0-.38-.16-.74-.42-1v-.02c-.26-.24-.62-.4-1.02-.4h-12.48c-.8 0-1.28.72-1.44 1.64-.06.3-.1.6-.1.9 0 .3.04.58.1.88.16.94.64 1.66 1.44 1.66h12.48c1.24 0 1.48-.92 1.48-2.14zm-15.7-6.58c-.02-.18-.04-.42-.04-.64 0-.24.02-.46.04-.64.08-.32.12-.54.14-.54h12.54c.02.02.02.04.02.06 0 .22.02.52.02.82 0 .22.02.44.02.7 0 .44-.02.78-.12.78h-12.48c-.02 0-.06-.24-.14-.54zm14.1-.24l-.02-.74c-.02-.24-.02-.48-.02-.78 0-.38-.16-.74-.42-.98v-.04c-.26-.24-.62-.4-1.02-.4h-12.48c-.8 0-1.28.72-1.46 1.64-.04.3-.08.6-.08.9 0 .3.04.6.08.88.18.94.66 1.66 1.46 1.66h12.48c1.24 0 1.48-.92 1.48-2.14zm-15.7-7.86c.06-.32.12-.56.14-.56h12.48c.02 0 .04.02.06.04 0 0 .02.02.02.04 0 .22.02.52.02.82 0 .22.02.44.02.7 0 .44-.02.78-.12.78h-12.48c-.02 0-.08-.24-.14-.54-.02-.2-.04-.42-.04-.64 0-.22.02-.46.04-.64zm.14 3.18h12.48c1.24 0 1.46-.92 1.46-2.14l-.02-.74v-.78c0-.4-.16-.74-.42-1v-.02c-.26-.24-.62-.42-1.02-.42h-12.48c-.8 0-1.28.74-1.46 1.68-.04.28-.08.58-.08.88 0 .28.04.6.08.88.18.94.66 1.66 1.46 1.66zm-1.74-10c.06-.3.12-.56.14-.56h12.48c.02 0 .04.02.06.04 0 0 .02.02.02.04 0 .22 0 .52.02.82 0 .22.02.44.02.7 0 .46-.02.78-.12.78h-12.48c-.02 0-.08-.24-.14-.54-.02-.2-.06-.42-.06-.64 0-.22.04-.44.06-.64zm.14 3.18h12.48c1.24 0 1.46-.92 1.46-2.14v-.74c-.02-.24-.02-.48-.02-.78 0-.38-.16-.74-.42-1h-.02c-.26-.26-.6-.42-1-.42h-12.48c-.82 0-1.28.72-1.46 1.66-.06.28-.08.58-.08.88 0 .28.02.58.08.88.18.94.64 1.66 1.46 1.66zm-1.74-10c.06-.3.12-.54.14-.54h12.48c.02 0 .04 0 .06.02 0 0 .02.02.02.04 0 .22 0 .52.02.82 0 .22.02.44.02.72 0 .44-.02.76-.12.76h-12.48c-.02 0-.08-.24-.14-.54-.02-.2-.06-.42-.06-.64 0-.24.04-.46.06-.64zm.14 3.18h12.48c1.24 0 1.46-.92 1.46-2.12l-.02-.76c0-.24-.02-.48-.02-.78 0-.38-.14-.74-.4-.98l-.02-.02c-.26-.26-.6-.42-1-.42h-12.48c-.82 0-1.28.72-1.46 1.66-.06.28-.08.6-.08.88 0 .3.02.58.08.88.18.94.64 1.66 1.46 1.66zm-1.74-8.72c-.04-.2-.04-.4-.04-.64 0-.22 0-.44.04-.64.06-.3.12-.54.12-.54h12.54c.02.02.04.04.04.06 0 .22 0 .52.02.82v.7c0 .44 0 .78-.1.78h-12.5s-.06-.24-.12-.54zm14.08-.24l-.02-.74c0-.24-.02-.46-.02-.78 0-.38-.14-.72-.4-1h-.02c-.26-.26-.6-.42-1-.42h-12.5c-.8 0-1.26.72-1.44 1.66-.06.28-.08.58-.08.88 0 .28.02.6.08.88.18.94.64 1.66 1.44 1.66h12.5c1.24 0 1.46-.92 1.46-2.14zm-3.02-8.38c.02 0 .02.02.02.04 0 .22.02.52.04.84v.7c0 .42 0 .76-.1.76h-12.48c-.02 0-.08-.24-.12-.54-.06-.18-.08-.4-.08-.64 0-.22.02-.44.08-.64.04-.3.1-.54.12-.54h12.48c.02 0 .04 0 .04.02zm-13.98.28c-.06.28-.08.6-.08.88 0 .3.02.6.08.88.16.94.64 1.66 1.46 1.66h12.48c1.24 0 1.46-.92 1.46-2.12l-.02-.76c0-.24-.02-.48-.02-.78 0-.38-.14-.74-.4-.98l-.02-.02c-.26-.26-.6-.42-1-.42h-12.48c-.82 0-1.3.72-1.46 1.66zm12.4-7.1v.04c0 .22.02.54.04.84v.7c0 .44 0 .78-.1.78h-12.5s-.06-.26-.12-.56c-.04-.2-.06-.42-.06-.64 0-.22.02-.44.06-.64.06-.3.12-.54.12-.54h12.5c.02 0 .04 0 .06.02zm-14 .28c-.06.28-.08.6-.08.88 0 .3.02.6.08.88.16.94.64 1.66 1.44 1.66h12.5c1.24 0 1.46-.92 1.46-2.12l-.02-.76c0-.24-.02-.48-.02-.78 0-.38-.14-.72-.4-.98l-.02-.02c-.24-.26-.6-.42-1-.42h-12.5c-.8 0-1.28.72-1.44 1.66zm-.28-6.58c.06-.3.12-.54.12-.54h12.5c.02 0 .04.02.06.02v.04c0 .22.02.54.04.82v.72c0 .44 0 .78-.1.78h-12.5s-.06-.26-.12-.56c-.04-.18-.04-.4-.04-.64 0-.22 0-.44.04-.64zm.12 3.18h12.5c1.24 0 1.46-.92 1.46-2.12l-.02-.76c0-.24-.02-.46-.02-.78 0-.38-.14-.74-.4-.98l-.02-.02c-.24-.26-.62-.42-1-.42h-12.5c-.8 0-1.28.72-1.44 1.66-.06.28-.08.58-.08.88 0 .3.02.6.08.9.16.92.64 1.64 1.44 1.64zm32.6 59.48c-.04-.2-.06-.42-.06-.64 0-.24.02-.46.06-.64.06-.32.1-.56.12-.56h12.5c.02 0 .02.02.04.02.02.02.02.04.02.06 0 .22.02.52.02.82.02.22.02.42.02.7 0 .44-.02.78-.1.78h-12.5c-.02 0-.06-.24-.12-.54zm14.08-.24l-.02-.76c0-.22-.02-.46-.02-.76 0-.38-.14-.74-.4-1l-.02-.02c-.26-.24-.6-.4-1-.4h-12.5c-.8 0-1.28.72-1.44 1.64-.06.3-.1.6-.1.9 0 .3.04.58.1.88.16.94.64 1.66 1.44 1.66h12.5c1.24 0 1.46-.94 1.46-2.14zm-15.68-6.58c-.04-.18-.06-.42-.06-.64 0-.24.02-.46.06-.64.06-.3.1-.56.12-.56h12.5c.02 0 .02.02.04.02.02.02.02.04.02.06 0 .22.02.52.04.82v.7c0 .44 0 .78-.1.78h-12.5c-.02 0-.06-.24-.12-.54zm14.08-.24l-.02-.74c0-.24-.02-.48-.02-.78 0-.38-.14-.74-.4-1l-.02-.02c-.26-.24-.62-.4-1-.4h-12.5c-.8 0-1.28.72-1.44 1.64-.06.3-.1.6-.1.9 0 .3.04.58.1.88.16.94.64 1.66 1.44 1.66h12.5c1.24 0 1.46-.92 1.46-2.14zm-3.02-8.4c.02.02.02.04.02.06 0 .22.02.52.02.82.02.22.02.44.02.7 0 .44-.02.78-.1.78h-12.5c-.02 0-.06-.24-.12-.54-.04-.2-.06-.42-.06-.64 0-.24.02-.46.06-.64.06-.32.1-.56.12-.56h12.5c.02 0 .02.02.04.02zm-13.98.3c-.06.28-.1.58-.1.88 0 .28.04.6.1.88.16.92.64 1.66 1.44 1.66h12.5c1.24 0 1.46-.92 1.46-2.14l-.02-.74c0-.24-.02-.48-.02-.78 0-.4-.14-.74-.4-1h-.02c-.26-.28-.62-.44-1-.44h-12.5c-.8 0-1.28.74-1.44 1.68zm12.34-4.76h-12.5s-.06-.24-.12-.54c-.04-.2-.06-.42-.06-.64 0-.22.02-.46.06-.64.06-.32.12-.54.12-.54h12.54c.02.02.02.04.02.06 0 .22.02.52.02.82.02.22.02.42.02.7 0 .44-.02.78-.1.78zm1.42-2.3c0-.38-.16-.74-.4-1h-.02c-.26-.26-.62-.42-1-.42h-12.5c-.8 0-1.28.72-1.44 1.64-.06.3-.1.6-.1.9 0 .28.04.6.1.88.16.92.64 1.66 1.44 1.66h12.5c1.24 0 1.46-.92 1.46-2.14l-.02-.74c-.02-.24-.02-.48-.02-.78zm-3.02-4.52h-12.5s-.06-.24-.12-.54c-.04-.2-.06-.42-.06-.64 0-.22.02-.44.06-.64.06-.3.12-.54.12-.54h12.54c0 .02.02.04.02.06 0 .22.02.54.02.82.02.22.02.42.02.7 0 .44-.02.78-.1.78zm1.42-2.3c0-.38-.16-.74-.4-1h-.02c-.26-.26-.62-.42-1-.42h-12.5c-.8 0-1.28.72-1.46 1.66-.04.28-.08.58-.08.88 0 .28.04.6.08.88.18.94.66 1.66 1.46 1.66h12.5c1.22 0 1.46-.92 1.46-2.14l-.02-.74c-.02-.24-.02-.46-.02-.78zm-3.04-4.52h-12.48c-.02 0-.06-.22-.12-.54-.04-.18-.06-.42-.06-.64 0-.22.02-.46.06-.64.06-.32.1-.54.12-.54h12.48c.04 0 .06 0 .06.02 0 0 .02.02.02.04 0 .22.02.52.02.82.02.22.02.44.02.7 0 .46-.02.78-.12.78zm1.44-2.3c0-.38-.16-.74-.4-.98l-.02-.02c-.26-.26-.62-.42-1.02-.42h-12.48c-.8 0-1.28.74-1.46 1.66-.04.28-.08.6-.08.88 0 .3.04.6.08.88.18.94.66 1.66 1.46 1.66h12.48c1.24 0 1.48-.92 1.48-2.14l-.02-.74c-.02-.22-.02-.46-.02-.78zm-3.04-4.52h-12.48c-.02 0-.06-.22-.12-.54-.04-.18-.06-.4-.06-.64 0-.22.02-.44.06-.64.06-.32.1-.54.12-.54h12.48c.04 0 .06 0 .06.02 0 0 .02.02.02.04 0 .22.02.52.02.84.02.2.02.42.02.7 0 .42-.02.76-.12.76zm1.44-2.3c0-.38-.16-.74-.4-.98l-.02-.02c-.26-.26-.62-.42-1.02-.42h-12.48c-.82 0-1.28.72-1.46 1.66-.04.28-.08.6-.08.88 0 .3.04.6.08.88.18.94.64 1.66 1.46 1.66h12.48c1.24 0 1.46-.92 1.46-2.12v-.76c-.02-.24-.02-.46-.02-.78zm-2.98-6.86s.02.02.02.04c0 .22 0 .52.02.84.02.2.02.42.02.7 0 .42-.02.76-.12.76h-12.48c-.02 0-.08-.24-.12-.54-.04-.18-.06-.4-.06-.64 0-.22.02-.44.06-.64.04-.3.1-.54.12-.54h12.48c.02 0 .04 0 .06.02zm-14 .28c-.04.28-.08.6-.08.88 0 .3.04.6.08.88.18.94.64 1.66 1.46 1.66h12.48c1.24 0 1.46-.92 1.46-2.12l-.02-.76c0-.24-.02-.48-.02-.78 0-.38-.14-.74-.4-.98v-.02c-.26-.26-.62-.42-1.02-.42h-12.48c-.82 0-1.28.72-1.46 1.66zm12.4-7.1s.02.02.02.04c0 .22 0 .54.02.84 0 .2.02.42.02.7 0 .44-.02.78-.12.78h-12.48c-.02 0-.06-.26-.14-.56-.04-.2-.04-.42-.04-.64 0-.22 0-.44.04-.64.08-.3.12-.54.14-.54h12.48c.02 0 .04 0 .06.02zm-14 .28c-.06.28-.08.6-.08.88 0 .3.02.6.08.88.18.94.64 1.66 1.46 1.66h12.48c1.24 0 1.46-.92 1.46-2.12l-.02-.76c0-.24-.02-.48-.02-.78 0-.38-.14-.72-.4-.98l-.02-.02c-.26-.26-.6-.42-1-.42h-12.48c-.82 0-1.28.72-1.46 1.66zm-.28-6.58c.08-.3.12-.54.14-.54h12.48c.02 0 .04.02.04.02.02 0 .04.02.04.04 0 .22 0 .54.02.82 0 .22.02.44.02.72 0 .44-.02.78-.12.78h-12.48c-.02 0-.06-.26-.14-.56-.04-.18-.04-.4-.04-.64 0-.22 0-.44.04-.64zm.14 3.18h12.48c1.24 0 1.46-.92 1.46-2.12l-.02-.76c0-.24-.02-.46-.02-.78 0-.38-.14-.74-.4-.98l-.02-.02c-.24-.26-.6-.42-1-.42h-12.48c-.82 0-1.3.72-1.46 1.66-.06.28-.08.58-.08.88 0 .3.02.6.08.9.16.92.64 1.64 1.46 1.64zm45.54 57.66c.02.02.02.04.02.06 0 .22.02.52.02.82.02.22.02.42.02.7 0 .44-.02.78-.1.78h-12.5c-.02 0-.06-.24-.12-.54-.04-.2-.06-.42-.06-.64 0-.24.02-.46.06-.66.06-.3.1-.54.12-.54h12.5s.02.02.04.02zm-13.98.28c-.06.3-.1.6-.1.9 0 .3.04.58.1.88.16.94.64 1.64 1.44 1.64h12.5c1.24 0 1.46-.9 1.46-2.12l-.02-.76c-.02-.22-.02-.46-.02-.76 0-.38-.14-.74-.4-1l-.02-.02c-.26-.26-.62-.4-1-.4h-12.5c-.8 0-1.28.72-1.44 1.64zm12.38-7.1c.02.02.02.04.02.06 0 .22 0 .52.02.82 0 .22.02.42.02.7 0 .44-.02.78-.1.78h-12.5c-.02 0-.06-.24-.12-.54-.04-.2-.06-.42-.06-.64 0-.24.02-.46.06-.66.06-.3.1-.54.12-.54h12.5s.02.02.04.02zm-13.98.3c-.06.28-.1.58-.1.88 0 .3.04.58.1.88.16.94.64 1.66 1.44 1.66h12.5c1.24 0 1.46-.92 1.46-2.14l-.04-.74v-.78c0-.38-.16-.74-.4-1l-.02-.02c-.26-.26-.62-.42-1-.42h-12.5c-.8 0-1.28.74-1.44 1.68zm12.38-7.12c.02.02.02.04.02.06 0 .22.02.52.02.82 0 .22.02.44.02.7 0 .44-.02.78-.1.78h-12.5c-.02 0-.06-.24-.12-.54-.04-.2-.06-.42-.06-.64 0-.24.02-.46.06-.64.06-.32.1-.56.12-.56h12.5s.02.02.04.02zm-13.98.3c-.06.28-.1.58-.1.88 0 .28.04.6.1.88.16.92.64 1.66 1.44 1.66h12.5c1.22 0 1.46-.92 1.46-2.14l-.04-.74v-.78c0-.4-.16-.74-.42-1h-.02c-.24-.28-.6-.44-.98-.44h-12.5c-.8 0-1.28.74-1.44 1.68zm12.38-7.1c.02 0 .02.02.02.04 0 .22 0 .52.02.82 0 .22.02.44.02.7 0 .44-.02.78-.1.78h-12.5c-.02 0-.08-.24-.14-.54-.02-.2-.04-.42-.04-.64 0-.24.02-.46.04-.64.06-.32.12-.54.14-.54h12.5c.02 0 .02 0 .04.02zm-14 .26c-.04.3-.08.6-.08.9 0 .3.04.6.08.88.16.92.66 1.66 1.46 1.66h12.5c1.24 0 1.46-.92 1.46-2.14l-.04-.74v-.78c0-.38-.16-.74-.42-.98v-.02c-.26-.26-.62-.42-1-.42h-12.5c-.8 0-1.3.72-1.46 1.64zm12.4-7.1c0 .02.02.04.02.06 0 .22 0 .52.02.82 0 .22.02.44.02.7 0 .44-.02.78-.12.78h-12.48c-.02 0-.08-.24-.14-.54-.02-.2-.04-.42-.04-.64 0-.24.02-.46.04-.64.06-.32.12-.54.14-.54h12.54zm-14 .3c-.04.28-.08.58-.08.88 0 .3.04.6.08.88.18.94.66 1.66 1.46 1.66h12.48c1.24 0 1.46-.92 1.46-2.14l-.02-.74v-.78c0-.38-.16-.74-.42-.98v-.02c-.26-.26-.62-.42-1.02-.42h-12.48c-.8 0-1.28.72-1.46 1.66zm12.4-7.12c0 .02.02.04.02.06 0 .22.02.52.02.82 0 .22.02.44.02.7 0 .44-.02.78-.12.78h-12.48c-.02 0-.08-.24-.14-.54-.02-.2-.04-.4-.04-.64 0-.22.02-.46.04-.64.06-.32.12-.54.14-.54h12.54zm-14 .3c-.04.28-.08.58-.08.88 0 .28.04.6.08.88.18.94.64 1.66 1.46 1.66h12.48c1.24 0 1.46-.92 1.46-2.14v-.74c-.02-.24-.02-.46-.02-.78 0-.38-.16-.74-.42-.98l-.02-.02c-.26-.26-.6-.42-1-.42h-12.48c-.82 0-1.28.72-1.46 1.66zm12.4-7.12c0 .02.02.04.02.06 0 .22.02.52.02.82 0 .22.02.44.02.7 0 .44-.02.78-.12.78h-12.48c-.02 0-.08-.24-.14-.54-.02-.18-.04-.4-.04-.64 0-.22.02-.46.04-.64.06-.32.12-.54.14-.54h12.54zm-14 .3c-.06.28-.08.58-.08.88 0 .28.02.6.08.88.18.94.64 1.66 1.46 1.66h12.48c1.24 0 1.46-.92 1.46-2.14l-.02-.74c0-.24-.02-.46-.02-.78 0-.38-.14-.74-.4-.98v-.02c-.26-.26-.62-.42-1.02-.42h-12.48c-.82 0-1.28.72-1.46 1.66zm12.4-7.1s.02.02.02.04v.84c.02.2.02.42.02.7 0 .42-.02.76-.1.76h-12.48c-.02 0-.08-.24-.14-.54-.04-.18-.06-.4-.06-.64 0-.22.02-.44.06-.64.06-.3.12-.54.14-.54h12.48c.02 0 .04 0 .06.02zm-14 .28c-.06.28-.08.6-.08.88 0 .3.02.6.08.88.18.94.64 1.66 1.46 1.66h12.48c1.24 0 1.46-.92 1.46-2.12l-.02-.76c0-.24-.02-.48-.02-.78 0-.38-.14-.74-.4-.98l-.02-.02c-.26-.26-.6-.42-1-.42h-12.48c-.82 0-1.28.72-1.46 1.66zm12.38-7.1c.02 0 .04.02.04.04 0 .22 0 .54.02.84v.7c0 .44 0 .78-.1.78h-12.48c-.02 0-.08-.26-.14-.56-.02-.2-.06-.42-.06-.64 0-.22.04-.44.06-.64.06-.3.12-.54.14-.54h12.48c.02 0 .04 0 .04.02zm-13.98.28c-.06.28-.08.6-.08.88 0 .3.02.6.08.88.16.94.64 1.66 1.46 1.66h12.48c1.24 0 1.46-.92 1.46-2.12l-.02-.76c0-.24-.02-.48-.02-.78 0-.38-.14-.72-.4-.98l-.02-.02c-.26-.26-.6-.42-1-.42h-12.48c-.82 0-1.3.72-1.46 1.66zm-.28-6.58c.06-.3.12-.54.12-.54h12.5c.02 0 .04.02.04.02.02 0 .04.02.04.04v.82c.02.22.02.44.02.72 0 .44-.02.78-.1.78h-12.5s-.06-.26-.12-.56c-.04-.18-.06-.4-.06-.64 0-.22.02-.44.06-.64zm.12 3.18h12.5c1.24 0 1.46-.92 1.46-2.12l-.02-.76c0-.24-.02-.46-.02-.78 0-.38-.14-.74-.4-.98l-.02-.02c-.24-.26-.6-.42-1-.42h-12.5c-.8 0-1.28.72-1.44 1.66-.06.28-.08.58-.08.88 0 .3.02.6.08.9.16.92.64 1.64 1.44 1.64zm-43.64 2.9c.84.82 1.4 2.02 1.7 3.34l12.26 52.18c.06.32.1.62.1.94 0 1.02-.38 2-1 2.8-.62.76-1.46 1.34-2.34 1.54-.24.06-.46.08-.72.08H736.6v-61.96h57.58c1.08 0 1.94.42 2.6 1.08zm-60.84-2.44c-.38 0-.68.3-.68.68v63.32c0 .38.3.68.68.68h70.84c.36 0 .7-.04 1.04-.12 1.18-.28 2.26-1.02 3.08-2.04.8-1 1.3-2.26 1.3-3.62 0-.4-.06-.82-.14-1.24l-12.28-52.18c-.36-1.54-1.02-2.98-2.04-4h-.02c-.9-.92-2.08-1.48-3.54-1.48h-58.24zM31.52 276.14c-.34.88-1.14 1.54-2.38 1.54s-2.02-.66-2.36-1.54c-.14-.32-.2-.7-.2-1.08 0-.38.06-.76.2-1.1.34-.86 1.12-1.52 2.36-1.52 1.24 0 2.04.66 2.38 1.52v.02c.14.34.2.7.2 1.08 0 .38-.06.76-.2 1.08zm1.56-1.08c0-.52-.1-1.06-.3-1.56l-.02-.04c-.52-1.34-1.74-2.38-3.62-2.38-1.88 0-3.08 1.04-3.62 2.38-.2.5-.3 1.06-.3 1.6s.1 1.08.3 1.6c.54 1.34 1.74 2.36 3.62 2.36 1.88 0 3.1-1.02 3.62-2.36.22-.52.32-1.06.32-1.6zm410.68-18.8c.32-.8 1.04-1.42 2.2-1.42 1.14 0 1.88.62 2.2 1.42.12.3.18.66.18 1 0 .36-.06.72-.18 1.04-.32.78-1.06 1.4-2.2 1.4-1.16 0-1.88-.62-2.2-1.4-.14-.32-.2-.68-.2-1.04 0-.34.06-.7.2-1zm2.2 4.8c1.78 0 2.94-1 3.46-2.26.18-.5.28-1 .28-1.54 0-.5-.1-1.02-.28-1.5-.52-1.28-1.68-2.28-3.46-2.28-1.8 0-2.94 1-3.46 2.28-.18.48-.3 1-.3 1.5 0 .54.12 1.04.3 1.54.52 1.26 1.66 2.26 3.46 2.26zM404.4 126.54l.02-.02c.36-.88 1.2-1.58 2.48-1.58 1.3 0 2.14.7 2.5 1.6.14.36.2.76.2 1.16 0 .38-.06.78-.2 1.14l-.02.04c-.36.88-1.18 1.56-2.48 1.56s-2.14-.7-2.5-1.6c-.14-.36-.2-.76-.2-1.14 0-.4.06-.8.2-1.16zm2.5 5.26c1.94 0 3.18-1.06 3.74-2.42v-.04c.22-.52.34-1.08.34-1.64 0-.56-.12-1.14-.34-1.66-.54-1.38-1.78-2.46-3.74-2.46-1.92 0-3.18 1.06-3.72 2.42l-.02.04c-.22.52-.32 1.1-.32 1.66 0 .56.1 1.12.32 1.64.54 1.38 1.8 2.46 3.74 2.46zm325.9 127.68c-.5 1.24-1.64 2.22-3.44 2.22s-2.94-.98-3.44-2.22c-.18-.5-.28-1.02-.28-1.58 0-.54.1-1.08.28-1.56.5-1.26 1.64-2.22 3.44-2.22s2.94.96 3.44 2.22c.18.48.3 1.02.3 1.56 0 .56-.12 1.08-.3 1.58zm-3.44-6.72c-2.42 0-4 1.34-4.68 3.06-.28.68-.4 1.38-.4 2.08 0 .7.12 1.42.4 2.08.68 1.72 2.26 3.08 4.68 3.08 2.44 0 4-1.36 4.7-3.08.26-.66.38-1.38.38-2.08 0-.7-.12-1.4-.38-2.08-.7-1.72-2.26-3.06-4.7-3.06zm6.24 7.98c-.9 2.26-3 4.04-6.24 4.04s-5.32-1.78-6.24-4.04a8.03 8.03 0 010-5.68c.92-2.24 3-4.02 6.24-4.02s5.34 1.78 6.24 4.02c.36.9.52 1.88.52 2.84 0 .98-.16 1.94-.52 2.84zm-6.24-11.06c-3.88 0-6.38 2.14-7.48 4.88-.42 1.08-.64 2.2-.64 3.34 0 1.14.22 2.28.64 3.34 1.1 2.74 3.6 4.88 7.48 4.88 3.9 0 6.4-2.14 7.48-4.88.44-1.06.66-2.2.66-3.34 0-1.14-.22-2.26-.66-3.34-1.08-2.74-3.58-4.88-7.48-4.88zm6.96 15.18a9.826 9.826 0 01-6.96 2.9c-2.72 0-5.18-1.12-6.96-2.9a9.81 9.81 0 01-2.88-6.96c0-2.7 1.1-5.16 2.88-6.94 1.78-1.8 4.24-2.9 6.96-2.9 2.72 0 5.18 1.1 6.96 2.9h.04a9.864 9.864 0 012.86 6.94c0 2.72-1.12 5.18-2.9 6.96zm.96-14.88a11.152 11.152 0 00-7.92-3.26c-3.08 0-5.88 1.24-7.9 3.24l-.02.02c-2.02 2.04-3.28 4.84-3.28 7.92 0 3.1 1.26 5.9 3.28 7.92 2.04 2.04 4.84 3.28 7.92 3.28 3.1 0 5.9-1.24 7.92-3.28 2.04-2.02 3.28-4.82 3.28-7.92 0-3.06-1.24-5.86-3.24-7.88l-.04-.04zm1.2 17.04a12.914 12.914 0 01-9.12 3.76c-3.56 0-6.78-1.44-9.1-3.76a12.848 12.848 0 01-3.78-9.12c0-3.56 1.44-6.78 3.78-9.1 2.32-2.34 5.54-3.78 9.1-3.78 3.56 0 6.78 1.44 9.12 3.78 2.32 2.32 3.76 5.54 3.76 9.1 0 3.56-1.44 6.78-3.76 9.12zm.94-19.18a14.126 14.126 0 00-10.06-4.18c-3.92 0-7.46 1.6-10.04 4.16l-.02.02a14.196 14.196 0 00-.02 20.1l.02.04c2.58 2.56 6.14 4.16 10.06 4.16 3.94 0 7.48-1.58 10.06-4.16l.02-.02c2.56-2.56 4.16-6.12 4.16-10.06 0-3.92-1.58-7.46-4.16-10.06h-.02zM148.46 263.3c-.08.28-.22.54-.4.78-.18.22-.4.42-.66.56-.6.34-1.4.38-2.14-.2-.74-.6-.9-1.36-.7-2.04.08-.28.22-.54.4-.76.18-.24.4-.44.64-.58.62-.36 1.4-.38 2.16.22.74.58.88 1.36.7 2.02zm-6.48 4.5c-.42 1.04-1 2.04-1.68 2.96-.02.04-.04.04-.06.08-1.4 1.8-3.34 3.22-5.8 3.98-.06.02-.12.06-.18.06-1.24.38-2.62.58-4.12.58-1.52 0-2.88-.2-4.14-.58-.06-.02-.14-.04-.22-.06-3.72-1.18-6.22-3.84-7.5-7.02-.66-1.68-1-3.52-1-5.36 0-1.84.34-3.68 1-5.36 1.74-4.3 5.68-7.68 11.86-7.68 4.56 0 7.9 1.86 10.02 4.58h.02c.04.1.14.16.18.24.66.88 1.22 1.86 1.62 2.86.68 1.68 1.02 3.52 1.02 5.36 0 1.84-.34 3.68-1.02 5.36zm-.08 2.98c.22-.18.48-.32.76-.4.28-.08.58-.12.88-.08.7.06 1.34.5 1.62 1.4.26.94-.06 1.66-.6 2.08-.24.2-.5.32-.78.4-.28.1-.58.12-.86.1-.7-.08-1.36-.52-1.64-1.42-.12-.44-.1-.82 0-1.16.14-.16.2-.36.32-.52.1-.14.16-.3.3-.4zm-6.44 5.5c.28.12.54.26.74.44.52.48.8 1.22.46 2.12-.32.9-1.02 1.28-1.72 1.3-.28.02-.58-.04-.86-.14s-.52-.26-.74-.44c-.52-.48-.78-1.22-.46-2.12.28-.76.86-1.1 1.46-1.2.12-.06.3-.04.42-.08.24.02.48.04.7.12zm-9.24.48l.04.02c.14.24.24.5.3.76.14.7-.08 1.46-.88 1.98s-1.6.44-2.16.04c-.26-.18-.46-.4-.62-.62-.16-.26-.26-.52-.32-.8-.14-.7.08-1.46.88-1.98.52-.36 1-.38 1.48-.26.24.1.46.22.74.28.2.16.4.34.54.58zm-7.72-4.04c-.28.64-.9 1.14-1.86 1.12-.96-.04-1.54-.56-1.78-1.24-.1-.26-.14-.56-.14-.84.02-.3.08-.58.18-.86.3-.64.92-1.12 1.88-1.1.96.02 1.54.56 1.78 1.22.1.26.14.56.14.86-.02.28-.08.58-.2.84zm-3.1-8.48c-.16.26-.38.46-.6.62-.6.38-1.38.46-2.18-.08-.76-.54-.98-1.3-.84-1.98.08-.28.18-.56.36-.8.16-.24.38-.46.6-.62.58-.38 1.38-.46 2.16.08.8.54 1 1.3.86 2-.06.28-.18.54-.36.78zm-.78-10.24c-.32-.88-.04-1.64.48-2.1.22-.18.48-.34.76-.42.28-.1.58-.16.86-.14.7.02 1.38.44 1.7 1.32.32.92.04 1.66-.48 2.12-.22.18-.48.32-.76.42-.28.1-.58.16-.86.14-.7-.02-1.38-.42-1.7-1.34zm9.8-4.8c-.28.04-.6.02-.88-.06s-.54-.2-.78-.36c-.56-.42-.9-1.14-.64-2.08.24-.9.9-1.36 1.58-1.44.3-.04.6-.02.88.06s.54.2.78.38c.56.42.9 1.14.64 2.06-.1.44-.34.76-.6.98-.2.08-.36.22-.58.3-.14.04-.26.14-.4.16zm9.52-.68c-.24-.14-.46-.34-.62-.58-.18-.24-.32-.5-.38-.78-.18-.68 0-1.46.76-2 .76-.58 1.56-.52 2.16-.16.24.16.44.38.62.6.18.24.32.5.38.78.18.68 0 1.44-.78 2.02-.36.28-.74.4-1.1.4-.18-.06-.38-.08-.56-.14-.16-.04-.34-.04-.48-.14zm7.48 3.26c.26-.64.88-1.16 1.84-1.16.94 0 1.56.52 1.82 1.16v.04a2.244 2.244 0 010 1.66c-.26.66-.88 1.18-1.82 1.18-.82 0-1.34-.42-1.64-.94-.1-.12-.14-.26-.22-.38a2.06 2.06 0 01-.12-.7c0-.3.04-.58.14-.86zm3.52 8.12c-.3.16-.54.4-.76.66-.16-1.36-.44-2.72-.94-3.98-.1-.24-.28-.44-.4-.7.16.04.24.14.42.14 1.58 0 2.62-.9 3.08-2.04.16-.42.24-.88.24-1.34 0-.44-.06-.9-.24-1.32v-.04c-.46-1.14-1.5-2-3.08-2-1.6 0-2.62.86-3.08 2.02-.1.22-.1.46-.14.68-.98-.96-2.12-1.76-3.44-2.38.08-.06.2-.04.3-.12 1.28-.94 1.58-2.26 1.26-3.44-.1-.44-.32-.86-.58-1.24a4.17 4.17 0 00-1.02-.94c-1.02-.64-2.38-.76-3.66.2-1.28.94-1.58 2.26-1.28 3.44.08.3.24.56.4.82-.64-.06-1.2-.26-1.88-.26-1.12 0-2.08.24-3.06.42.06-.14.2-.2.24-.38.4-1.54-.18-2.76-1.16-3.5a3.37 3.37 0 00-1.24-.58 3.22 3.22 0 00-1.38-.12c-1.2.16-2.32.92-2.72 2.46-.42 1.54.18 2.76 1.14 3.5.18.12.4.18.58.28a12.94 12.94 0 00-2.84 2.34c-.02-.1.04-.16 0-.26-.54-1.52-1.72-2.18-2.94-2.22-.46-.02-.92.04-1.36.2-.42.16-.84.38-1.18.68-.92.82-1.4 2.08-.88 3.58.54 1.52 1.72 2.18 2.94 2.24.26 0 .5-.08.76-.14v.02c-.56 1.36-.82 2.8-.96 4.26-.16-.16-.2-.36-.42-.5-1.3-.9-2.66-.74-3.66-.06-.38.26-.72.58-.98.96s-.44.82-.56 1.26c-.26 1.2.1 2.5 1.4 3.42 1.32.88 2.68.74 3.7.06.24-.18.42-.42.64-.64.18 1 .46 2 .84 2.96.04.1.1.18.14.28-.14-.02-.2-.12-.36-.14-1.6-.04-2.66.8-3.14 1.92-.18.44-.3.88-.3 1.34-.02.46.06.94.22 1.36.4 1.16 1.4 2.06 3 2.12 1.6.06 2.64-.8 3.14-1.92.1-.22.1-.44.16-.68.88.94 1.9 1.72 3.08 2.36-.1.06-.18.04-.26.1-1.34.86-1.72 2.16-1.46 3.36.08.46.28.88.52 1.26.26.4.58.74.96 1 1 .7 2.34.88 3.68 0 1.34-.9 1.7-2.2 1.46-3.38-.06-.3-.2-.56-.34-.82.86.14 1.64.36 2.6.36.64 0 1.18-.18 1.78-.26-.08.16-.24.24-.3.42-.56 1.5-.08 2.76.82 3.58.34.3.74.56 1.18.72.42.14.9.22 1.36.22 1.22-.04 2.4-.7 2.96-2.18.54-1.5.08-2.78-.82-3.58-.2-.18-.44-.26-.64-.38 1.34-.64 2.5-1.44 3.52-2.42 0 .1-.04.18 0 .3.44 1.52 1.58 2.26 2.78 2.38.46.04.92 0 1.38-.14.44-.12.86-.34 1.22-.62.96-.76 1.52-1.98 1.08-3.52-.46-1.52-1.6-2.28-2.8-2.38-.3-.04-.56.04-.84.08.12-.26.32-.48.42-.74.4-1.04.68-2.14.86-3.26.14.16.14.32.32.46 1.24.98 2.6.92 3.66.3.4-.22.76-.54 1.04-.9s.5-.76.64-1.22c.34-1.16.08-2.5-1.16-3.46-1.26-1-2.62-.94-3.66-.32zm-11.36 4.12c-.5 1.24-1.64 2.22-3.46 2.22-1.8 0-2.94-.98-3.44-2.22-.2-.5-.3-1.04-.3-1.58s.1-1.08.3-1.58c.5-1.24 1.64-2.22 3.44-2.22 1.82 0 2.96.98 3.46 2.22.2.5.3 1.04.3 1.58s-.1 1.08-.3 1.58zm-3.46-6.74c-2.44 0-4 1.36-4.68 3.08a5.368 5.368 0 000 4.16c.68 1.74 2.24 3.08 4.68 3.08 2.46 0 4.02-1.34 4.72-3.08.26-.66.4-1.38.4-2.08 0-.72-.14-1.42-.4-2.08-.7-1.72-2.26-3.08-4.72-3.08zm19.84 24.98c-5.08 5.08-12.08 8.22-19.84 8.22-7.72 0-14.74-3.14-19.82-8.22a27.964 27.964 0 01-8.2-19.82c0-7.74 3.14-14.76 8.2-19.82 5.08-5.08 12.1-8.22 19.82-8.22 7.76 0 14.76 3.14 19.84 8.22a27.898 27.898 0 018.22 19.82c0 7.74-3.14 14.76-8.22 19.82zm-19.84-49.22c-8.1 0-15.46 3.3-20.78 8.6-5.3 5.32-8.6 12.68-8.6 20.8 0 8.12 3.3 15.46 8.6 20.78 5.32 5.32 12.68 8.62 20.78 8.62 8.14 0 15.48-3.3 20.8-8.62 5.32-5.32 8.6-12.66 8.6-20.78 0-8.12-3.28-15.48-8.6-20.8-5.32-5.3-12.66-8.6-20.8-8.6zm6.94 32.54c-1.02 2.52-3.32 4.48-6.92 4.48-3.62 0-5.92-1.96-6.92-4.48-.4-.98-.6-2.06-.6-3.14s.2-2.16.6-3.14c1-2.5 3.3-4.46 6.92-4.46 3.6 0 5.9 1.96 6.92 4.46.38.98.58 2.06.58 3.14s-.2 2.16-.58 3.14zm-6.92-12.12c-4.26 0-6.98 2.34-8.18 5.34-.46 1.16-.7 2.4-.7 3.64 0 1.24.24 2.48.7 3.64 1.2 3 3.92 5.32 8.18 5.32 4.24 0 6.98-2.32 8.16-5.32.46-1.16.7-2.4.7-3.64 0-1.24-.24-2.48-.7-3.64-1.18-3-3.92-5.34-8.16-5.34zm23.42 32.4c-6 6-14.28 9.7-23.42 9.7-9.14 0-17.44-3.7-23.44-9.7-5.98-6-9.68-14.26-9.68-23.42 0-9.14 3.7-17.44 9.68-23.42 6-6 14.3-9.7 23.44-9.7s17.42 3.7 23.42 9.7a33.06 33.06 0 019.7 23.42c0 9.16-3.72 17.42-9.7 23.42zm-23.42-57.9c-9.52 0-18.14 3.86-24.38 10.1-6.24 6.24-10.1 14.86-10.1 24.38s3.86 18.14 10.1 24.38c6.24 6.24 14.86 10.1 24.38 10.1s18.14-3.86 24.38-10.1c6.24-6.24 10.1-14.86 10.1-24.38s-3.86-18.14-10.1-24.38c-6.24-6.24-14.86-10.1-24.38-10.1zm868.5 20.4c-2.48-3.88-6.14-8.44-11.06-11.82-4.14-2.84-9.12-4.82-14.98-4.82h-7.46l-5.74-10.98h17.36c5.92 0 11.06 2.7 14.88 6.6 4.38 4.46 7 10.5 7 15.74v5.28zM960.28 241c-.54.5-1.1 1-1.56 1.46l-10.04 8.7c.58-1.46.92-3.02.92-4.68a12.668 12.668 0 00-12.68-12.68c-1.66 0-3.24.34-4.7.92l13.38-15.5c.72-.88 1.54-1.58 2.46-2.1 1.2-.7 2.54-1.06 3.84-1.04 1.28.04 2.54.46 3.62 1.32.62.52 1.18 1.16 1.66 1.98l6.82 13.04c1.92 3.34-.98 6.02-3.72 8.58zm-23.36 16.8c-3.14 0-5.96-1.26-8.02-3.3-2.04-2.06-3.3-4.9-3.3-8.02 0-3.14 1.26-5.96 3.3-8.02 2.06-2.04 4.88-3.3 8.02-3.3 3.14 0 5.96 1.26 8.02 3.3 2.04 2.06 3.3 4.88 3.3 8.02 0 3.12-1.26 5.96-3.3 8.02-2.06 2.04-4.88 3.3-8.02 3.3zm-39.68 15.4c.06-.06.18-.02.2-.1l4.26-17.28 23.04-12.7c-.3 1.08-.5 2.2-.5 3.36 0 3.5 1.42 6.68 3.72 8.98 2.02 2 4.74 3.28 7.74 3.58l-38.6 14.92c.08-.24.08-.5.14-.76zm-3.38 3.4a8.902 8.902 0 01-6.32 2.6c-2.48 0-4.74-.98-6.34-2.6-.8-.8-1.4-1.72-1.86-2.74l-.1-.26c-.42-1.04-.68-2.18-.68-3.34 0-2.48 1-4.72 2.64-6.34a8.914 8.914 0 016.34-2.64c2.46 0 4.7 1.02 6.32 2.64a8.932 8.932 0 012.62 6.34c0 2.48-1 4.7-2.62 6.34zm-20.46-17.1c-.02-.28-.02-.56-.04-.82l-.14-2.74v-.02c-.44-4.34-1.3-8.56-2.54-12.6-.02 0 0-.02 0-.02l-.02-.06c-1-3.2-2.3-6.26-3.74-9.24h22.3c.16 1.14.58 2.18 1.36 2.94l.02.02c.92.94 2.22 1.52 3.62 1.52h10.34l-7.2 29.34c-.46-1.84-1.24-3.56-2.54-4.86a10.28 10.28 0 00-7.28-3.02c-2.86 0-5.44 1.16-7.3 3.02-1.6 1.6-2.52 3.78-2.8 6.14l-3.82-9.5c-.04-.1-.16-.04-.22-.1zm-10.74 36.28l-1.78 2.8c-.06.12-.16.22-.24.32l-5.84.02 2.5-4.34 6.02.1c-.2.38-.42.74-.66 1.1zm6.92-15.36l-5.54 1.88.96-4.92 5.78-1.84-.66 2.7c-.18.74-.34 1.46-.54 2.18zm2.5-19.96l.1 1.76-4.78 3.38-.48-5 5-3.4c.1 1.08.14 2.18.16 3.26zm-2.8-17.04l-3.56 4.68-1.94-4.64 3.78-4.74 1.72 4.7zm-15.72 63.98c-.32.3-.66.58-1 .9l-6.82-2.22c-.24-.1-.5-.04-.68.14l-4.82 4.5c-.08.08-.14.18-.18.3-.1.34.1.72.46.84l5.72 1.74a64.29 64.29 0 01-10.92 6.46l-5.74-4.32a.682.682 0 00-.68-.08l-6.02 2.7c-.08.06-.18.12-.26.22-.22.3-.14.72.16.94l4.92 3.56c-3.44 1.08-7.04 1.82-10.72 2.3l-4.16-5.78a.719.719 0 00-.66-.32l-6.54.8c-.1 0-.22.04-.32.12-.3.22-.36.66-.14.94l3.64 4.86h-.16c-3.82 0-7.52-.4-11.14-1.04l-2.22-6.82c-.08-.22-.26-.42-.52-.46l-6.46-1.22c-.12-.02-.24-.02-.36 0-.34.14-.54.52-.42.88l2 5.74c-3.34-1.06-6.54-2.42-9.62-4l-.16-7.18c-.02-.24-.14-.48-.38-.6l-5.8-3.04a.784.784 0 00-.36-.08c-.38.02-.66.32-.66.7l.26 6.06c-2.74-1.88-5.28-3.98-7.68-6.24l1.86-6.94a.69.69 0 00-.18-.66l-4.72-4.54a.54.54 0 00-.34-.2.667.667 0 00-.8.5l-1.46 5.88c-2.5-3.06-4.74-6.36-6.64-9.84l3.96-6.06c.14-.2.16-.46.04-.68l-3.08-5.82a.608.608 0 00-.24-.26.68.68 0 00-.94.2l-3.18 5.1c-1.34-3.42-2.42-6.98-3.12-10.68l5.58-4.58c.2-.14.3-.38.26-.64l-1.2-6.48a.803.803 0 00-.16-.32.648.648 0 00-.94-.06l-4.56 3.86c-.08-1.34-.2-2.68-.2-4.04 0-2 .12-3.98.3-5.92l6.64-2.8c.22-.08.4-.28.44-.56l.68-6.54c.02-.12 0-.24-.04-.34a.68.68 0 00-.9-.34l-5.5 2.44c.8-3.52 1.86-6.94 3.2-10.22l7.2-.7c.24-.04.46-.18.56-.42l2.58-6.02c.06-.1.08-.24.06-.38a.644.644 0 00-.74-.58l-5.98.7c1.94-3.34 4.16-6.5 6.64-9.44l7.04 1.52c.24.06.48-.02.66-.2l4.32-4.98c.08-.08.12-.18.16-.32a.65.65 0 00-.54-.78l-5.86-1.16c2.34-2.12 4.82-4.12 7.48-5.9l6.36 3.4c.2.14.48.14.7 0l5.54-3.58c.1-.06.18-.16.24-.26.16-.32.02-.74-.3-.92l-5.36-2.7c3.44-1.7 7.04-3.1 10.8-4.16l4.94 5.18c.16.2.42.28.68.2l6.34-1.68c.12-.04.24-.1.34-.18.26-.26.26-.7 0-.96l-4.24-4.22c2.98-.44 6.02-.74 9.14-.74.86 0 1.7.08 2.56.12l3.06 6.44c.1.2.32.36.56.38l6.58.34c.12.02.24-.02.36-.08.32-.16.46-.56.28-.9l-2.68-5.32c3.24.54 6.38 1.32 9.44 2.34l1.12 7.08c.04.22.22.44.46.52l6.2 2.14c.1.06.24.06.36.04.36-.06.62-.4.54-.78l-1.08-5.86c3.34 1.62 6.52 3.52 9.48 5.68l-.98 7.12c-.02.22.08.48.28.62l5.26 3.92c.1.08.22.12.34.14.38.04.72-.22.76-.6l.7-5.94c.44.42.9.78 1.32 1.22 1.56 1.54 3 3.18 4.38 4.86l-2.78 6.66c-.1.22-.08.48.08.68l4.08 5.16c.08.1.16.18.28.22.36.14.74-.02.88-.38l2.2-5.56c1.62 2.6 3.08 5.3 4.3 8.14l-4.5 5.64c-.16.2-.2.44-.1.7l2.52 6.06c.04.12.12.22.22.28.3.24.72.18.96-.12l3.64-4.78c.98 3.44 1.7 6.96 2.08 10.58l-5.94 4.06c-.2.12-.36.38-.32.64l.62 6.56c0 .12.04.24.12.32.22.32.64.38.94.16l4.9-3.46a62.18 62.18 0 01-1.04 10.1l-6.86 2.18c-.22.08-.42.26-.46.52l-1.28 6.46c-.02.12-.02.24.02.36.14.34.5.54.86.42l5.72-1.96a62.548 62.548 0 01-4.94 11.36l-7.16-.14c-.26-.02-.52.1-.66.34l-3.26 5.72c-.06.1-.1.22-.1.32 0 .38.3.68.68.68l5.98-.02c-1.86 2.52-3.84 4.92-6.06 7.14zm-2.74 2.5l-2.64 2.26c-.2.14-.4.28-.6.44l-5.56-1.7 3.68-3.42 5.7 1.86c-.18.18-.38.38-.58.56zm-19.72 11.94c-.62.24-1.24.46-1.88.68l-4.7-3.42 4.58-2.04 4.84 3.64-2.84 1.14zm-18.44 3.96c-.74.04-1.48.1-2.24.12l-3.48-4.64 5-.6 3.52 4.92-2.8.2zm-19.5-1.78c-.68-.18-1.38-.32-2.06-.52l-1.92-5.5 4.94.94 1.88 5.76-2.84-.68zM773.94 310l4.44 2.32.14 6.06-2.74-1.6c-.52-.32-1.08-.64-1.58-.98l-.26-5.8zm-12.14-4.68c-.42-.46-.84-.9-1.24-1.36l1.4-5.64 3.62 3.48-1.58 5.84-2.2-2.32zM750 286.98l3.1-4.98 2.36 4.42-3.32 5.06c-.08-.14-.16-.3-.24-.46l-1.9-4.04zm-37.64-5.86c.02-.02.04-.02.04-.04l.56-2.28c.32-1.24.66-2.46.92-3.74l.08-.32c.02-.06 0-.14 0-.2.16-.88.26-1.76.4-2.66.68.72 1.34 1.46 2.1 2.08 3.76 3.04 8.36 4.54 12.96 4.52 4.62 0 9.22-1.54 12.96-4.6.74-.62 1.4-1.38 2.08-2.1 0 .06.02.14.02.22l.36 2.54c0 .04.04.08.06.14.82 4.34 2.08 8.52 3.72 12.5 0 0-.02.02-.02.04l.1.22c.56 1.3 1.18 2.54 1.8 3.8h-42.18c1.6-3.24 3-6.6 4.04-10.12zm-8.12 14.66l-1.78 2.8c-.08.12-.16.22-.24.32l-5.82.02 2.48-4.34 6.04.1c-.24.38-.46.74-.68 1.1zm6.92-15.36l-5.54 1.88.98-4.92 5.76-1.84-.64 2.66c-.18.74-.36 1.48-.56 2.22zm-16.02 26.98c-.32.3-.66.58-1 .9l-6.82-2.22c-.24-.1-.5-.04-.68.14l-4.82 4.5c-.08.08-.14.18-.18.3-.1.34.1.72.46.84l5.72 1.74a64.29 64.29 0 01-10.92 6.46l-5.72-4.32c-.22-.14-.46-.18-.7-.08l-6 2.7c-.12.06-.2.12-.28.22-.22.3-.14.72.16.94l4.92 3.56c-3.46 1.08-7.06 1.82-10.72 2.3l-4.16-5.78c-.12-.22-.38-.34-.66-.32l-6.54.8c-.12 0-.24.04-.32.12-.3.22-.36.66-.14.94l3.64 4.86h-.18c-3.8 0-7.5-.4-11.12-1.04l-2.22-6.82c-.08-.22-.26-.42-.52-.46l-6.48-1.22a.969.969 0 00-.34 0c-.34.14-.52.52-.42.88l2 5.74c-3.34-1.06-6.56-2.42-9.64-4l-.14-7.18c-.02-.24-.14-.48-.38-.6l-5.8-3.04a.784.784 0 00-.36-.08c-.38.02-.68.32-.66.7l.26 6.06c-2.74-1.88-5.28-3.98-7.68-6.24l1.86-6.94a.69.69 0 00-.18-.66l-4.72-4.54a.55.55 0 00-.32-.2c-.38-.08-.74.14-.82.5l-1.46 5.88c-2.5-3.06-4.74-6.36-6.64-9.84l3.96-6.06c.14-.2.16-.46.04-.68l-3.08-5.82a.608.608 0 00-.24-.26.68.68 0 00-.94.2l-3.18 5.1c-1.34-3.42-2.4-6.98-3.14-10.68l5.62-4.58c.16-.14.28-.38.22-.64L592.5 263c-.02-.1-.08-.22-.14-.32a.695.695 0 00-.98-.06l-4.54 3.86c-.08-1.34-.2-2.68-.2-4.04 0-2 .12-3.98.3-5.92l6.64-2.8c.22-.08.4-.28.42-.56l.7-6.54c.02-.12 0-.24-.04-.34a.68.68 0 00-.9-.34l-5.5 2.44c.8-3.52 1.86-6.94 3.2-10.22l7.2-.7c.24-.04.46-.18.56-.42l2.58-6.02c.06-.1.08-.24.08-.38-.06-.38-.38-.64-.76-.58l-5.98.7c1.94-3.34 4.16-6.5 6.64-9.44l7.04 1.52c.22.06.48-.02.66-.2l4.32-4.98c.08-.08.14-.18.16-.32a.65.65 0 00-.54-.78l-5.86-1.16c2.34-2.12 4.82-4.12 7.48-5.9l6.34 3.4c.22.14.5.14.72 0l5.54-3.58c.1-.06.18-.16.24-.26.16-.32.04-.74-.3-.92l-5.36-2.7c3.44-1.7 7.04-3.1 10.8-4.16l4.94 5.18c.16.2.42.28.7.2l6.32-1.68c.14-.04.24-.1.34-.18.26-.26.26-.7 0-.96l-4.24-4.22c3-.44 6.02-.74 9.12-.74.88 0 1.72.08 2.58.12l3.04 6.44c.12.2.32.36.58.38l6.58.34c.12.02.24-.02.34-.08.34-.16.48-.56.3-.9l-2.68-5.32c3.24.54 6.4 1.32 9.44 2.34l1.14 7.08c.04.22.2.44.44.52l6.18 2.14c.12.06.26.06.38.04.38-.06.6-.4.54-.78l-1.06-5.86c3.32 1.62 6.5 3.52 9.46 5.68l-.96 7.12c-.04.22.06.48.26.62l5.26 3.92c.1.08.22.12.36.14.36.04.7-.22.74-.6l.68-5.94c.46.4.92.78 1.34 1.22 1.56 1.54 3 3.18 4.38 4.88l-2.8 6.64a.7.7 0 00.1.68l4.08 5.16a.663.663 0 001.16-.16l2.22-5.56c1.6 2.6 3.06 5.3 4.28 8.14l-4.5 5.64c-.16.2-.2.44-.1.7l2.52 6.06c.04.12.12.22.22.28.3.24.74.18.94-.12l3.66-4.78c.98 3.44 1.72 6.96 2.1 10.58l-5.96 4.06c-.22.12-.34.38-.32.64l.62 6.56a.68.68 0 001.08.48l4.88-3.46a62.18 62.18 0 01-1.04 10.1l-6.86 2.18c-.24.08-.42.26-.46.52l-1.28 6.46c-.02.12-.02.24.02.36.12.34.52.54.86.42l5.72-1.96a62.548 62.548 0 01-4.94 11.36l-7.16-.14c-.24-.02-.52.1-.64.34l-3.28 5.72c-.06.1-.1.22-.1.32 0 .38.3.68.68.68l5.98-.02c-1.86 2.52-3.84 4.92-6.06 7.14zm-2.7 2.46l-2.7 2.3c-.2.16-.4.28-.58.44l-5.56-1.7 3.68-3.42 5.72 1.86c-.2.18-.38.36-.56.52zm-19.76 11.98c-.62.24-1.24.46-1.88.68l-4.72-3.42 4.58-2.04 4.86 3.64-2.84 1.14zm-18.44 3.96c-.74.04-1.48.1-2.24.12l-3.46-4.64 4.98-.6 3.52 4.92-2.8.2zm-19.48-1.76c-.7-.18-1.38-.34-2.08-.54l-1.92-5.5 4.94.94 1.88 5.76-2.82-.66zM615.52 310l4.44 2.32.14 6.06-2.7-1.58c-.54-.32-1.1-.64-1.64-1l-.24-5.8zm-12.14-4.68c-.42-.46-.84-.9-1.24-1.36l1.4-5.64 3.62 3.48-1.58 5.84-2.2-2.32zm-11.82-18.34l3.14-4.98 2.34 4.42-3.32 5.06c-.04-.06-.08-.14-.12-.22l-2.04-4.28zm-4.16-15.24l-.46-3.32c0-.1 0-.16-.02-.24l4.46-3.78.9 4.94-4.66 3.82c-.08-.48-.16-.94-.22-1.42zm.24-20.12c.08-.52.14-1.06.22-1.6l5.38-2.38-.54 4.98-5.58 2.34.52-3.34zm6.64-19.38l5.84-.7-1.98 4.62-6.04.58 2.18-4.5zm-16.32 5.14v-17.94h23.66l-.6.62c-.04.06-.08.12-.1.2-2.9 3.4-5.52 7.08-7.68 11.04h-.02l-.04.08c-1.02 1.9-1.96 3.84-2.82 5.84v.02c-.02.04-.04.1-.06.14h-12.34zm-1.36 11.84h-3.94v-5.54h3.94v5.54zm-30.64 0h-3.94v-5.54h3.94v5.54zm-56.16-52.94c-27.16-24.62-47.08-42.62-72.02-42.9l-2.98-15.12.74-.14c.36-.06.62-.4.56-.78-.44-2.6-.88-5.22-1.32-7.84 29.68.2 46.18 11.86 82.96 37.92l42.94 30.42v11.36h-26.7c-.38 0-.68.3-.68.68v7.4l-9.08-8.04c-5.06-4.5-9.84-8.82-14.42-12.96zm-64.58 17.26l-1 .32-15.24-74.58 4.5-.78 14.74 74.96c-.88-.24-1.9-.26-3 .08zm5.26 5.36c-.1 1.34-.9 2.6-2.6 3.14l-7.76 2.44v-7.92l5.5-1.74c1.7-.52 3.08.06 3.92 1.08.34.42.6.9.76 1.42.16.52.22 1.04.18 1.58zm5.88 14.02H294.78v-6.32h141.58v6.32zm-2.26 14.74h-3.28c-.98-3.08-2.86-5.76-5.92-7.62l-.04-.02c-2.94-1.76-6.86-2.8-11.82-2.8h-58.28c-4.2 0-9.02 1.5-12.78 3.6-3.58 1.98-6.14 4.52-6.56 6.84h-40.64v-13.4H434.1v13.4zm4.36-9.76l12.42 17.38c.3.52.46 1.22.46 1.94 0 .86-.2 1.78-.64 2.6-.42.82-1.04 1.54-1.88 2.04-.7.4-1.56.66-2.58.66h-9.58l2.22-8.72c.2-.74.3-1.44.3-2.06 0-.98-.24-1.82-.72-2.5-.48-.66-1.2-1.12-2.1-1.38-.28-.06-.6-.06-.9-.1v-9.86h3zm36.12 14.56v10.06h-24.6c.78-.6 1.5-1.26 1.92-2.08.54-1.02.8-2.16.8-3.22 0-.96-.22-1.9-.66-2.64l-1.52-2.12h24.06zm-43.38-3.44h3.56c.48 0 .88.06 1.24.14.6.16 1.06.46 1.36.88.3.42.46 1 .46 1.7 0 .5-.08 1.08-.26 1.72l-2.46 9.7c0 .02-.04.02-.04.04s.04.02.04.02l-.96 3.72c-.92-6.04-1.9-12.04-2.94-17.92zm1.26 43.62c-1.78 2.56-4.68 4.78-9.16 6.12l-4.64-25.56-.44-2.38c-.5-2.72-.98-5.26-1.7-7.64.02-.06.12-.04.12-.12 0-.1-.16-.1-.22-.2-1.58-5.12-4.36-9.32-11.12-11.96-2.76-1.06-6.12-1.88-10.28-2.42-4.14-.54-9.04-.82-14.9-.82h-43.34c.48-1.84 2.72-3.92 5.86-5.66 3.58-1.98 8.14-3.42 12.12-3.42h58.28c4.7 0 8.4.96 11.12 2.6l.04.02c2.92 1.76 4.74 4.3 5.54 7.3l5.2 32.82c.42 3.42.06 7.72-2.48 11.32zm-20.08 11.98c-2.1.66-4.42 1.1-7.06 1.36 0-.04.04-.06.04-.08.14-.36.22-.72.22-1.08 0-.38-.08-.76-.22-1.1-.36-.92-1.2-1.64-2.48-1.64h-5.46v-1h.54c.54.02 1.12.04 1.58.04 3.68 0 7.9-.6 7.9-5.74V289h6.68c.36 0 .68-.3.68-.68v-10.6c0-.36-.32-.68-.68-.68h-6.68v-3.98c0-5.14-4.22-5.74-7.9-5.74-.46 0-1.04.02-1.58.02-.18.02-.36.02-.54.02v-3.62h17.86c.66 2.28 1.14 4.72 1.6 7.32 1.74 9.42 3.4 18.82 5.14 28.24-3.18 2.38-6.16 4.16-9.64 5.32zm-18.86.78a1.507 1.507 0 010-1.18c.18-.44.58-.78 1.24-.78h8.12c.66 0 1.06.34 1.24.78.06.18.1.38.1.6 0 .2-.04.38-.1.58-.16.42-.56.7-1.14.74-1.2.06-2.48.06-3.86.04h-4.36c-.66 0-1.06-.34-1.24-.78zm-3.02-33.8c-.24-.58-.5-1.18-.76-1.74l-.54-1.14h6.86v2.88h-5.56zm15.6 6.12v.74h-8.68v-9.74l.58-.02c.44 0 .9-.02 1.54-.02 3.04 0 6.56.46 6.56 4.38v4.66zm1.34 9.18v-8.5h6v9.24h-6v-.74zm-10.02-7.08h8.68v6.42h-8.68v-6.42zm0 7.76h8.68v7.8c0 3.92-3.52 4.38-6.56 4.38-.64 0-1.1 0-1.54-.02h-.58v-12.16zm-4.04-27.92h10.88v2.74h-10.88v-2.74zm-211.34-36.1l-1.24-1.72c-.04-.04-.08-.06-.12-.08-.98-1.24-2.04-2.38-3.12-3.54h198.2v7.04H183.3c-.4-.58-.84-1.12-1.26-1.7zm2.14 72.2l-1.78 2.82c-.08.12-.18.22-.26.32l-5.82.02 2.5-4.34 6.02.1c-.22.36-.44.74-.66 1.08zm6.9-15.34l-5.54 1.88.98-4.92 5.78-1.84-.66 2.68c-.18.74-.36 1.48-.56 2.2zm2.6-18.2l-4.78 3.38-.46-5 4.98-3.4c.1 1.12.14 2.24.18 3.36l.08 1.66zm-2.9-18.8l-3.56 4.68-1.94-4.64 3.8-4.74 1.7 4.7zm-7.62-15.98c.06.08.1.16.16.24l-2.16 5.44-3.12-3.94 2.36-5.56c.22.28.42.6.64.88l2.12 2.94zm-8.08 79.96c-.32.3-.68.58-1 .9l-6.84-2.22a.59.59 0 00-.66.14l-4.82 4.5a.58.58 0 00-.18.3c-.12.34.08.72.44.84l5.72 1.74a63.52 63.52 0 01-10.92 6.46l-5.72-4.32a.694.694 0 00-.68-.08l-6.02 2.7c-.1.06-.2.12-.28.22-.2.3-.14.72.16.94l4.94 3.56c-3.46 1.08-7.06 1.82-10.74 2.3l-4.16-5.78c-.12-.22-.38-.34-.66-.32l-6.52.8c-.12 0-.24.04-.34.12-.3.22-.36.66-.14.94l3.64 4.86h-.18c-3.78 0-7.48-.4-11.12-1.04l-2.22-6.82a.653.653 0 00-.5-.46l-6.48-1.22c-.12-.02-.24-.02-.36 0-.34.14-.54.52-.4.88l2 5.74c-3.36-1.06-6.56-2.42-9.64-4l-.16-7.18c0-.24-.14-.48-.36-.6l-5.82-3.04a.732.732 0 00-.36-.08c-.38.02-.66.32-.64.7l.24 6.06c-2.74-1.88-5.28-3.98-7.68-6.24l1.88-6.94a.69.69 0 00-.18-.66l-4.74-4.54a.55.55 0 00-.32-.2.697.697 0 00-.82.5l-1.46 5.88c-2.5-3.06-4.74-6.36-6.64-9.84l3.98-6.06c.12-.2.14-.46.04-.68l-3.1-5.82a.438.438 0 00-.24-.26c-.3-.2-.72-.12-.92.2l-3.2 5.1c-1.32-3.42-2.4-6.98-3.12-10.68l5.6-4.58c.18-.14.28-.38.24-.64l-1.2-6.48a.748.748 0 00-.14-.32.671.671 0 00-.96-.06l-4.54 3.86c-.1-1.34-.2-2.68-.2-4.04 0-2 .1-3.98.28-5.92l6.66-2.8c.22-.08.4-.28.42-.56l.7-6.54c0-.12-.02-.24-.06-.34-.16-.34-.54-.5-.88-.34l-5.52 2.44c.8-3.52 1.86-6.94 3.22-10.22l7.2-.7c.24-.04.46-.18.56-.42l2.58-6.02c.04-.1.06-.24.06-.38a.652.652 0 00-.76-.58l-5.96.7c1.94-3.34 4.14-6.5 6.64-9.44l7.02 1.52c.24.06.5-.02.66-.2l4.34-4.98c.06-.08.12-.18.14-.32.06-.36-.16-.72-.52-.78l-5.88-1.16c2.36-2.12 4.84-4.12 7.48-5.9l6.36 3.4c.22.14.5.14.72 0l5.52-3.58c.1-.06.2-.16.24-.26.18-.32.04-.74-.3-.92l-5.36-2.7c3.44-1.7 7.06-3.1 10.82-4.16l4.92 5.18c.16.2.44.28.7.2l6.34-1.68c.1-.04.22-.1.32-.18.28-.26.28-.7 0-.96l-4.22-4.22c2.98-.44 6.02-.74 9.1-.74.88 0 1.72.08 2.58.12l3.06 6.44c.1.2.32.36.58.38l6.58.34c.1.02.22-.02.34-.08.32-.16.46-.56.3-.9l-2.68-5.32c3.22.54 6.38 1.32 9.42 2.34l1.14 7.08c.04.22.2.44.44.52l6.2 2.14c.12.06.24.06.36.04.38-.06.62-.4.54-.78l-1.06-5.86c3.34 1.62 6.5 3.52 9.48 5.68l-.98 7.12c-.04.22.06.48.26.62l5.26 3.92c.1.08.22.12.36.14.38.04.7-.22.74-.6l.7-5.94c.44.4.92.78 1.34 1.22 1.54 1.54 3 3.18 4.38 4.86l-2.8 6.66c-.1.22-.08.48.1.68l4.08 5.16c.06.1.16.18.28.22.34.14.74-.02.88-.38l2.2-5.56c1.6 2.6 3.08 5.3 4.3 8.14l-4.52 5.64c-.14.2-.2.44-.1.7l2.52 6.06c.06.12.12.22.24.28.28.24.72.18.94-.12l3.66-4.78c.96 3.44 1.7 6.96 2.08 10.58l-5.94 4.06c-.22.12-.36.38-.34.64l.62 6.56c.02.12.06.24.14.32.2.32.64.38.94.16l4.88-3.46c-.08 3.44-.42 6.82-1.02 10.1l-6.88 2.18c-.22.08-.4.26-.44.52l-1.3 6.46c-.02.12 0 .24.04.36.12.34.5.54.86.42l5.72-1.96c-1.3 3.98-2.94 7.78-4.94 11.36l-7.18-.14c-.26-.02-.5.1-.64.34l-3.28 5.72c-.04.1-.1.22-.1.32 0 .38.32.68.68.68l6-.02c-1.86 2.52-3.86 4.92-6.06 7.14zm-2.72 2.46l-2.7 2.3c-.2.16-.38.28-.58.44l-5.54-1.7 3.66-3.42 5.72 1.86c-.18.18-.36.36-.56.52zm-19.76 11.98c-.62.24-1.24.46-1.86.68l-4.72-3.42 4.58-2.04 4.84 3.64-2.84 1.14zm-18.44 3.96c-.74.04-1.48.1-2.22.12l-3.48-4.64 4.98-.6 3.52 4.92-2.8.2zm-19.48-1.76c-.68-.18-1.38-.34-2.06-.54l-1.92-5.5 4.92.94 1.88 5.76-2.82-.66zM95.46 310l4.44 2.32.12 6.06-2.72-1.58c-.54-.34-1.08-.64-1.6-1l-.24-5.8zm-12.14-4.68c-.42-.46-.84-.9-1.24-1.36l1.4-5.64 3.6 3.48-1.58 5.84-2.18-2.32zM71.5 286.98l3.12-4.98 2.34 4.42-3.32 5.06c-.06-.08-.1-.18-.14-.28l-2-4.22zm-48.08 8.2l-.48-7.6 9.26-4.86h.02l33.14-17.32c.04.82.06 1.68.14 2.52 0 .04-.06.06-.06.1l.08.52c.02.3.06.6.08.9l-42.18 25.74zM1.96 309.7c.08-.34.14-.7.22-1.08.22-1.36.36-2.94.38-4.32v-62.26c0-.74.3-1.42.78-1.92h.02c.5-.48 1.18-.8 1.92-.8h10.94c.76 0 1.36.2 1.78.56.38.36.62.9.68 1.64l.58 9.46v.04L22.12 296 1.96 309.7zm21.12-63.86v4.8l-2.5-.28-.3-4.86 2.8.34zm1.98-10.02l6.92-.64.5.28v32.74c-.34-.18-.6-.42-.98-.52l-.02-.02c-2.54-.68-5.06-2.86-7.04-5.7v-26.18c.2 0 .4.06.62.04zm-4.7-3.66c-.32-.6-.48-1.26-.56-1.92-.06-.7.02-1.38.2-2.02.5-1.66 1.84-3.04 4.08-3.24l38.58-3.48v9.48l-29.56 2.74-8.64.66c-1.98 0-3.42-.88-4.1-2.22zm47.22 19.32c.08-.48.14-.98.22-1.46l5.36-2.38-.52 4.98-5.58 2.34.52-3.48zM35.7 271.12a6.85 6.85 0 00-1.88-2.2v-15.74l31.68 3.48c-.16 1.9-.28 3.84-.28 5.78 0 .5.06.96.06 1.46l-30 15.7c.36-.64.78-1.26.98-1.96.32-1.1.42-2.24.34-3.34-.1-1.12-.4-2.2-.9-3.18zm2.74-32.4l-1.22 2.12c-.18.32-.08.74.24.92l3.52 2.02-1.2 2.54-5.96-.66v-9.46l4.62 2.52zm.68-1.16l-4.74-2.6 6.6-.62-1.86 3.22zm13.9-4.34l9.64 3.82v11.76l-12.82-1.4-2.04-.22c.28-.58.58-1.24.8-1.64.5-1.04.78-1.6.9-2.16.14-.66.06-1.18-.12-2.28-.06-.38-.14-.84-.24-1.44a.666.666 0 00-.48-.56l-2.86-.82a.68.68 0 00-.56.08l-2.16 1.26a.67.67 0 00-.28.3l-1.26 2.64-2.8-1.62 3.88-6.76 10.4-.96zm9.64 2.36l-6.64-2.62 6.64-.62v3.24zm-18.72 5.1l1.76-1.02 2.18.62.16 1.04c.16.92.24 1.38.14 1.78-.08.4-.34.88-.8 1.84-.18.36-.44.9-.68 1.42h-.02l-.32.66-5.16-.56 2.74-5.78zm22.16 11.46c-.16 1.06-.36 2.1-.48 3.18l-31.8-3.5v-4.8l6.56.72 6.32.68 1.2.12 1.8.22 13.56 1.48c.02 0 .02-.04.04-.04s0 .04.02.04h3.08l-.3 1.9zm-43.02 7.6c-1.36-2.52-2.24-5.32-2.4-8l2.4.28v7.72zm-.24 26.36l-1.72-27.28c.52 1.16 1.08 2.28 1.78 3.34 2.2 3.36 5.18 5.98 8.2 6.8l.02.02c1.58.44 2.7 1.48 3.36 2.76.44.8.68 1.72.76 2.66.08.96 0 1.94-.28 2.88-.5 1.74-1.64 3.34-3.38 4.24l-8.74 4.58zm44.5-14.34l-.48-3.36v-.22l4.44-3.78.92 4.94-4.68 3.82c-.08-.48-.14-.94-.2-1.4zm6.86-39.52l5.84-.7-1.98 4.62-6.02.58 2.16-4.5zm9.18-12.76l2.48-2.6c.12-.12.24-.22.38-.34l5.7 1.12-3.3 3.78-5.88-1.28.62-.68zm-19.36-49.26c0-2.04.82-3.9 2.18-5.26a7.373 7.373 0 015.26-2.18h22.02v46.08c-2.8 1.94-5.42 4.1-7.88 6.44-.04.02-.1 0-.12.04l-.54.56c-.24.22-.48.42-.7.64-.66.66-1.26 1.38-1.9 2.06l-1.38 1.46c-.06.06-.08.12-.12.2a65.19 65.19 0 00-7.68 11.04l-.04.08c-1.04 1.9-1.98 3.84-2.82 5.84l-.02.02c-1.56 3.72-2.76 7.62-3.62 11.64h-2.64v-78.66zm37.16 1.28H99.1v-9.32l2.08-.24v9.56zm1.36-33.56c.28 0 .56 0 .82.02.5 0 .92 0 1.36.02v22.18l-2.18.24v-22.46zm-3.38-1.66l-.02-.02a.875.875 0 01-.28-.66c0-.9-.02-1.84-.04-2.64-.04-2.1-.06-3.12.36-3.46.46-.38 1.68-.34 4.12-.3 1.04.04 2.3.06 3.58.06.26 0 .48.1.66.26v.02c.18.16.28.4.28.66 0 .9.02 1.86.04 2.64.06 2.1.06 3.12-.34 3.46-.3.24-1.06.3-2.08.3-.02 0-.02-.06-.06-.06h-3.52c-.02 0-.02.04-.02.04-.68-.02-1.3-.04-2.02-.04-.26 0-.5-.1-.66-.26zm5.56 35.9v4.84h-2.18v-15.24l2.18-.26v10.66zm-2.86 6.18h3.52c.38 0 .7-.28.7-.66v-4.84h2.02v7.96h-9v-7.96h2.08v4.84c0 .38.3.66.68.66zm-7.02 29.62v-45.3l2.9-.34v43.9c-.68.4-1.34.8-2 1.22l-.9.52zm5.76-1.8l5.26 2.64-4.22 2.74-5.34-2.86.12-.08 4.18-2.44zm14.78-5.5l3.12-.7.86-.12 4.1 4.1-4.84 1.3-4.16-4.36c.3-.08.6-.16.92-.22zm79.96-49.96l2.66 21.92c-12.9 4.14-25.36 8.28-35.62 12.3-10.48 4.14-18.74 8.18-23 12.1-.36.34-.72.68-1.06 1.02l-.58-.06c-.7-.08-1.42-.14-2.14-.2l-2.42-.24c-.12-.02-.26 0-.38.06v.04c-.9-.04-1.76-.14-2.68-.14-3.6 0-7.12.36-10.58.94-.04 0-.1-.06-.16-.04l-1.14.24c-1.08.2-2.12.44-3.18.68l-2.1.48c-.12.02-.2.06-.3.16a64.24 64.24 0 00-12.36 4.84c-.02.02-.04 0-.06 0l-.28.16c-.28.16-.58.28-.86.44v-23.24h9.68c.38 0 .68-.3.68-.66v-9.34c0-.36-.3-.68-.68-.68h-2.7v-10.14l89.26-10.64zm176.38-.14l-172.38 21.76-2.66-21.78 175.04-20.82v20.84zm3.36-28.56h15.56v38.12h-17.56v-38.12h2zm.68-7.9h14.88v6.54h-14.88v-6.54zm23.06 6.54h-3v-6.54h1.92l1.08 6.54zm-9.42-74.32c.7-1 1.8-1.76 3.1-1.98l1.92-.34.08-.02c1.28-.2 2.56.12 3.56.82s1.74 1.78 1.96 3.06c4.66 24.52 8.24 50.14 12.3 74.84-.1-.1-.24-.14-.34-.24-.42-.38-.9-.72-1.44-.98-.22-.12-.42-.24-.66-.34-.8-.3-1.68-.5-2.7-.5h-7L399 113.5c.02-.04.1-.02.1-.08s-.12-.06-.12-.12l-10.4-63.32c-.22-1.32.1-2.62.82-3.64zm30.04 165.78h-.84l-14.14-72.04 3.2-.56 15.26 74.74-2.8.88v-2.34c0-.38-.3-.68-.68-.68zm-4.68 4.64v-3.28h4v11.78h-4v-8.5zm-37.64-6.94h3.58v15.42h-3.58v-15.42zm-5.24-5.22L365 176.12l2.7-.78c.36-.1.56-.48.48-.84l-.3-.96 4.84-6.18h18.6c.38 0 .68-.3.68-.68v-5.18h4.28c.38 0 .68-.3.68-.68v-9.32h8.36l11.88 60.62h-3.12c-.38 0-.68.3-.68.68v3.28h-26.28l-2.22-4.44c-.1-.24-.34-.4-.62-.4h-2.22v-2.08c0-.38-.3-.68-.68-.68h-4.94c-.38 0-.68.3-.68.68v7.7h-1.7v-8.1c0-1.98-.92-3.34-2.18-4.16zm-6.64 4.16c0-1.78.96-2.9 2.18-3.4.48-.18 1.02-.28 1.56-.28.52 0 1.06.1 1.54.28 1.24.5 2.18 1.62 2.18 3.4v8.1h-7.46v-8.1zm-.4-45.72l6.88-9.74v13.14l-4.3 5.5-2.58-8.9zm-9.7 14.3h-5.72v-9.4h2.98l2.74 9.4zm8.88-2.34l-5.34 1.56-2.18.62-3.88-13.36c-.7-2.4.16-4.32 1.64-5.48.58-.46 1.26-.8 1.98-1.02.74-.2 1.48-.28 2.22-.2 1.88.18 3.64 1.34 4.34 3.76l3.88 13.36-2.66.76zm2.04 29.6l-6.42-26.92 4.04-1.18 6.66 27.48c-.44-.12-.9-.26-1.36-.26-.7 0-1.4.14-2.06.4-.3.12-.58.3-.86.48zm7.02-43.1h17.56v4.5h-17.56v-4.5zM392 114.12h2.48v6.54H392v-6.54zm0 20.9h3.6v15.12H392v-15.12zm0 16.48h3.6v8.64H392v-8.64zm9.96-11.68c.06.38.42.62.78.56l.4-.06 1.92 9.82h-8.1v-15.12h4.2l.8 4.8zm-2.36-17.8h7.58c.7 0 1.32.08 1.88.26 1.7.52 2.82 1.7 3.4 3.14.3.76.46 1.58.46 2.42 0 .82-.16 1.64-.46 2.4-.76 1.92-2.52 3.42-5.28 3.42H392v-11.64h7.6zm-264.06 77.14l2.02.18c.56.06 1.1.18 1.66.26l2.6 5.16-5-.26-2.58-5.42c.44.04.88.04 1.3.08zm21.92 11.14l-4.76-1.64-.94-5.92c.74.26 1.46.5 2.18.78l1.32.54c.4.16.76.38 1.14.54l1.06 5.7zm11.18 1.64l.4.3 2.66 2.18c.28.24.54.5.8.72l-.66 5.76-4.02-2.98.82-5.98zm128.62 3.74c0-1.94.2-4.16 1.88-4.16h24.3c1.7 0 1.88 2.22 1.88 4.16v1.18h-28.04l-.02-1.18zm29.42 1.18v-1.18c0-2.58-.32-5.5-3.24-5.5h-24.3c-2.9 0-3.24 2.92-3.24 5.5l.02 1.18H176.34c-.1-.1-.2-.22-.3-.32-.74-.74-1.54-1.4-2.32-2.12-.04-.02-.02-.1-.06-.14l-1.06-.88c-.9-.76-1.82-1.52-2.78-2.26l-1.24-1c-.08-.08-.2-.12-.3-.16-3.4-2.46-7.04-4.62-10.88-6.4-.06-.06-.08-.16-.16-.18l-1.4-.58c-.48-.2-.96-.38-1.44-.56l-3.26-1.3c-.1-.06-.22-.06-.36-.04-3.48-1.16-7.1-2-10.82-2.58l.32-.3c4.14-3.8 12.24-7.76 22.58-11.82 10.4-4.1 22.98-8.26 36.04-12.46l172.06-21.72-6.6 9.34-.26-.9c-.88-3.02-3.12-4.48-5.5-4.7-.9-.1-1.84 0-2.72.24-.9.26-1.72.68-2.46 1.26-1.88 1.46-2.98 3.9-2.1 6.92l.7 2.38h-3.3c-.36 0-.66.32-.66.7v10.74c0 .38.3.68.66.68h7.32c.04 0 .04-.08.08-.08.04-.02.06.06.12.06l2.1-.62 6.58 27.56c-.62.8-1.02 1.84-1.02 3.14v8.1h-37.22zm60 8.4h-4.62V212.6h1.8l6.32 12.66h-3.5zm5.02 0l-3.9-7.82h25.6v7.82h-21.7zm22.18-88.22l-10.7 1.88-.64-3.9h4.64c.84 0 1.6-.14 2.3-.34.24-.08.42-.22.64-.3.42-.18.86-.34 1.2-.58.22-.16.4-.38.6-.56.28-.26.58-.48.82-.78.16-.22.28-.48.42-.74.16-.28.38-.54.5-.84l.98 6.04-.76.12zm123.18 41.28c0-.56 0-1.14-.02-1.84-.02-.48-.02-1.04-.02-1.6h3.66v3.44h-3.62zm-5.84 4.12l-1.86-.04v-11.64l1.26-.04c.58-.02 1.16-.04 1.78-.04 1.8 0 3.24.22 3.24 1.54 0 .68.02 1.28.02 1.94 0 .02-.02.02-.02.02V179c0 .02.06.02.06.06 0 1.48-.08 2.4-.4 2.86-.42.58-1.62.58-4.08.52zm-11.48-77.16c-.1-2.92.44-5.9 1.38-10.74l15.14-83.5h74.9v156.14h-69.34l-19.54-51.26c-1.66-4.8-2.42-7.72-2.54-10.64zm-.52-59.44l-3.14-.4.36-1.9 13.54-5.4-1.62 8.86-9.14-1.16zm-2.58 10.8l-2.42-.56 1.62-9.32 2.48.32-1.68 9.56zm5.62 3.24c.28.42.38.98.26 1.5l-4.76 21.38c-.12.54-.46.96-.9 1.26-.44.26-.96.38-1.5.26l-9.52-2.12c-.54-.12-.98-.46-1.24-.9-.28-.42-.4-.96-.28-1.5l4.78-21.38c.12-.54.44-.98.88-1.24.42-.28.98-.4 1.5-.28l1.84.42 3.74.82v.02-.02l3.94.88c.54.12.98.46 1.26.9zM523.1 2h88.06v7.7H523.1V2zm159.66 7.68h-70.24V2h70.24v7.68zm-9.32 82.26v75.24h-60.92V11.04h60.92v80.9zm19.6.68h35.92V204.4h-49.64c-.64-.32-1.28-.62-1.94-.92-.04-.02-.04-.06-.06-.08l-1.2-.48-.34-.16c-.18-.06-.36-.16-.54-.22-.16-.06-.3-.12-.46-.2V92.62h18.26zm.64-2.24c-.02-.52-.04-1.04-.04-1.66 0-2.32.34-4.5 2.64-4.5 1.54 0 3.16-.02 4.56-.04 4.02-.06 6.18-.08 7.18.52l.04.02c.98.62.98 2.28.96 5.76v.78H693.7l-.02-.88zm50.22-4.02h15v6.72l-8.52-.48c-2.14-.14-4.32-.28-6.48-.42v-5.82zm1.34-14.56h12.34v13.22h-12.34V71.8zm12.34-1.34h-12.34v-4.14h12.34v4.14zm-19.86-6.14l-.02-.04c-.06-.3-.08-.62-.06-.96.04-.38.08-.78.2-1.16.32-1.1 1.06-2.06 2.34-2.06h22.44c1.3 0 2.04.96 2.36 2.06.1.38.18.78.2 1.14 0 .38 0 .72-.08 1.02-.08.38-.16.64-.22.64h-26.94c-.08 0-.16-.26-.22-.64zm48.3-19.98c0-4.76 1.94-9.08 5.08-12.22 2.98-3 7.06-4.92 11.56-5.08l-.02 9.62c-2.44 1.02-4.52 2.7-6.02 4.84a13.54 13.54 0 00-2.44 7.76v46.62c-2.7-.24-5.44-.46-8.16-.68V44.34zm-245.34 175.1v22.06l-24.92-22.06h24.92zm-18.66-1.34h-7.36v-7.54h7.36v7.54zm25.3-26.22v-4.28l4.22-7.32h19.78v11.6h-24zm29.28 0h-3.94V180.3h3.94v11.58zm-3.92 23.48v-17.18h3.92v17.18h-3.92zm-25.36-4.8h24v4.78h-24v-4.78zm24-1.36h-24v-11.04h24v11.04zm-29.28.68v-11.7h3.92v17.18h-3.92v-5.48zm0 11.76h3.92v15.74h-3.92v-15.74zm5.28 0h24v15.74h-24v-15.74zm29.28 15.74h-3.94v-15.74h3.94v15.74zm0-18.6v1.52h-34.56v-3.6h34.56v2.08zM542.04 179v-10.48h70.86v32.76h-13.14l-10.12-21.9c-.08-.26-.34-.44-.64-.44h-37.86c-.22 0-.44.12-.58.34l-4.32 7.46h-4.2V179zm0 9.1h3.92v3.76h-3.92v-3.76zm0 5.14h34.56v3.58h-34.56v-3.58zm-1.36 17.32v7.54H523.4v-7.54h17.28zm35.92 31.76h-34.56v-3.58h34.56v3.58zm33.18-30.62h-19.26c-.42 0-.8.14-1.1.38-.32.26-.52.62-.52 1.06v.82c-.02.3-.04.6-.04.8 0 1.26.26 2.2 1.66 2.2h13.4c-.36.36-.68.76-1.04 1.14h-24.92v-7.54h33.34c-.5.38-1.02.74-1.52 1.14zm-19.26 3.9c-.26 0-.3-.36-.3-.84 0-.28.02-.5.02-.74.02-.32.04-.62.04-.88v-.02c.06-.04.14-.08.24-.08h11.82v2.56h-11.82zm15.16-.3c-.04.02-.1 0-.14.04l-.26.26h-1.6v-2.56h4.46c-.84.72-1.66 1.48-2.46 2.26zm-2.22 4.18l2.46-2.6c.14-.12.26-.22.38-.34l5.72 1.12-3.3 3.78-5.88-1.28.62-.68zm16.9-14.66c-.02.02-.02 0-.04 0l-.28.16c-1.44.76-2.84 1.6-4.2 2.46l-1.2.7c-.02 0-.04.04-.06.06-.48.32-.98.66-1.46 1h-35.16v-28.92h10.62l10.14 21.98c.1.24.34.4.6.4h25.56c-1.54.64-3.02 1.4-4.52 2.16zm.32 1.36l5.24 2.64-4.2 2.74-5.34-2.86c.02-.02.06-.04.1-.08l4.2-2.44zm14.76-5.5l3.12-.7.86-.12 4.1 4.1-4.84 1.3-4.14-4.36c.3-.08.6-.16.9-.22zm20.18-1.52l2 .18c.58.06 1.12.18 1.68.26l2.6 5.16-5.02-.26-2.56-5.42c.42.04.86.04 1.3.08zm4.34-.84c-.08-.02-.12-.12-.2-.12l-1.94-.2c-.7-.08-1.42-.14-2.14-.2l-2.42-.24c-.14-.02-.26 0-.38.06-.02 0 0 .04-.02.04-.88-.04-1.76-.14-2.66-.14-3.62 0-7.14.36-10.58.94-.06 0-.1-.06-.16-.04l-1.14.24c-1.08.2-2.14.44-3.2.68l-2.08.48c-.12.02-.2.06-.3.16-1.44.38-2.84.84-4.24 1.34 0 0 0-.04-.02-.04h-14.22v-32.76h59.18v32.76h-1.38l-.84-.32a.565.565 0 00-.36-.04 68.15 68.15 0 00-10.9-2.6zm17.58 11.98l-4.76-1.64-.94-5.92c.72.26 1.46.5 2.18.78l1.32.54c.38.16.76.38 1.14.54l1.06 5.7zm11.16 1.64c.14.1.28.2.4.3l2.66 2.18c.28.24.56.5.82.74l-.66 5.74-4.04-2.98.82-5.98zm12.42 12.56l2.12 2.94c.06.08.1.16.16.26l-2.16 5.42-3.12-3.94 2.34-5.56c.22.28.44.6.66.88zm35.8 8.14h-16.38c.7-1 1.4-2.06 2-3.1 1.66-2.96 3.22-5.68 6.36-5.68 2.74 0 4.26 2.66 5.92 5.58.64 1.08 1.36 2.16 2.1 3.2zm1.6 0c-.94-1.2-1.76-2.56-2.52-3.88-1.88-3.28-3.58-6.26-7.1-6.26-3.94 0-5.66 3.06-7.52 6.36-.74 1.3-1.52 2.62-2.44 3.78h-3.18c.96-1.28 1.88-2.62 2.78-4.06 2.82-4.48 5.64-8.98 10.16-8.98 4.5 0 7.34 4.5 10.14 8.98.9 1.44 1.84 2.78 2.78 4.06h-3.1zm7.62 18.46c.04-.36.08-.72.16-1.08l5.36-2.38-.54 4.98-5.58 2.34.6-3.86zm-.32 20.7l-.46-3.4c0-.08 0-.14-.02-.22l4.46-3.78.92 4.94-4.68 3.82c-.08-.46-.16-.9-.22-1.36zm-30.92-4.88c1.84 2.96 4.22 5.28 7.08 6.62 2.36 1.08 4.92 1.62 7.5 1.6 2.56-.02 5.12-.58 7.46-1.7 2.84-1.36 5.18-3.7 7-6.68.02.4.02.78.04 1.16 0 .04-.04.06-.04.1l.08.52c.04.52.12 1.06.18 1.58-.82 1-1.72 1.9-2.66 2.7-3.52 2.86-7.82 4.3-12.12 4.32-4.28.02-8.6-1.4-12.12-4.24-.96-.78-1.84-1.68-2.68-2.68.14-1.08.2-2.18.28-3.3zm-1.22-6.36l.08 1.66-4.78 3.38-.46-5 4.98-3.4c.1 1.12.14 2.24.18 3.36zm31.32-11.1l-.18 1.22c-1.42-3.06-3.38-5.56-5.88-7.2-2.82-1.84-6.16-2.78-9.46-2.8-3.34-.02-6.66.88-9.52 2.68-2.54 1.62-4.52 4.12-5.98 7.16-.2-1.06-.44-2.12-.68-3.16 1.56-2.38 3.52-4.3 5.74-5.7 3.14-2 6.76-3 10.38-2.98 3.64 0 7.24 1.02 10.38 3.04 2.2 1.42 4.16 3.34 5.7 5.76-.14.66-.36 1.3-.48 1.96 0 .02-.02.02-.02.02zm-.96 6.52c-.22 2.14-.34 4.28-.34 6.46 0 .72.08 1.42.12 2.16-1.68 3.6-4.36 6.12-7.46 7.62a16.183 16.183 0 01-6.88 1.58c-2.38 0-4.76-.48-6.92-1.5-3.12-1.44-5.84-3.96-7.56-7.52.02-.76.12-1.5.12-2.26v-.02c0-.02.02-.04.02-.06 0-1.5-.14-2.94-.24-4.4l-.1-2.1v-.02c-.12-1.08-.32-2.14-.48-3.22 1.26-3.7 3.58-6.42 6.36-8.18 2.64-1.68 5.72-2.5 8.78-2.48 3.06.02 6.14.86 8.74 2.58 2.78 1.8 5.04 4.56 6.28 8.26-.14 1-.34 2-.44 3.02v.08zm-33.18-12.56l-3.58 4.68-1.92-4.64 3.78-4.74 1.72 4.7zm37.92-6.18c-1.16 2.78-2.08 5.66-2.84 8.6-1.56-2.12-3.34-3.94-5.4-5.26-3.36-2.16-7.24-3.24-11.12-3.26-3.86-.02-7.76 1.06-11.12 3.18-2.06 1.32-3.86 3.12-5.42 5.24-.22-.8-.38-1.64-.62-2.42v-.02l-.02-.04c-1-3.2-2.3-6.28-3.74-9.26h41.84c-.54 1.08-1.08 2.12-1.56 3.22v.02zm3.92-5l5.84-.7-1.98 4.62-6.04.58 2.18-4.5zm9.16-12.74l2.48-2.62c.12-.12.26-.22.4-.34l5.7 1.12-3.3 3.78-5.88-1.28.6-.66zm11.2-11.36c-.02 0-.04.04-.06.06-3.18 2.1-6.16 4.48-8.9 7.1-.04.02-.1 0-.14.04l-.54.56c-.24.22-.48.42-.7.64-.66.68-1.26 1.38-1.9 2.08l-1.36 1.44c-.06.06-.08.12-.12.2-2.92 3.4-5.52 7.08-7.68 11.04h-.02l-.02.08c-.24.4-.42.84-.64 1.26h-7.7c-1.16-1.44-2.22-3.1-3.3-4.78-3-4.8-6.04-9.6-11.28-9.6-5.26 0-8.28 4.8-11.3 9.6-1.06 1.68-2.12 3.34-3.28 4.78h-6.28c-.96-1.84-1.98-3.62-3.12-5.36 0-.04.02-.06 0-.1l-.32-.46c-.74-1.1-1.54-2.16-2.34-3.2l-1.2-1.68c-.02-.04-.08-.06-.1-.08-1.46-1.82-3-3.58-4.64-5.22-.76-.74-1.56-1.4-2.34-2.12-.02-.02 0-.1-.04-.14l-1.06-.88c-.9-.76-1.84-1.52-2.8-2.26l-1.22-1c-.08-.08-.2-.12-.3-.16-2.1-1.52-4.28-2.96-6.56-4.22h95.22c-.96.54-1.9 1.14-2.82 1.72l-1.14.66zm6.04-1.96l5.24 2.64-4.22 2.74-5.34-2.86c.04-.02.06-.04.08-.04l4.24-2.48zm14.76-5.5l3.14-.7.84-.12 4.1 4.1-4.84 1.3-4.14-4.36c.3-.08.6-.16.9-.22zm20.18-1.52l2 .18c.58.06 1.12.18 1.68.26l2.6 5.16-5.02-.26-2.58-5.42c.44.04.88.04 1.32.08zm21.9 11.14l-4.74-1.64-.94-5.92c.72.26 1.46.5 2.18.78l1.32.54c.38.16.74.38 1.14.54l1.04 5.7zm41.78-102.1c7.86 2.1 12.32 5.1 15.06 8.56 2.74 3.42 3.8 7.34 4.84 11.24l16.04 66.32-8.22 10.08h-67.86c-.56-.28-1.12-.56-1.68-.82-.08-.06-.08-.16-.16-.18l-1.42-.58c-.48-.2-.96-.38-1.44-.56l-3.24-1.3c-.1-.06-.24-.06-.36-.04h-.02c-3.5-1.16-7.14-2.02-10.88-2.6-.08-.02-.12-.12-.2-.12l-1.94-.2c-.7-.08-1.42-.14-2.16-.2l-2.4-.24a.68.68 0 00-.4.06v.04c-.88-.04-1.76-.14-2.64-.14-3.64 0-7.14.36-10.6.94-.06 0-.12-.06-.16-.04l-1.16.24c-1.08.2-2.12.44-3.18.7l-2.1.46c-.1.02-.2.06-.28.16-4 1.1-7.84 2.6-11.5 4.42h-49.34V92.66c4.34.26 8.54.56 12.84.82.04 0 .04.04.06.04l7.46.44c18.74 1.2 37.28 2.5 55.3 4.26 24.72 2.4 48.72 5.54 71.74 9.98zm44.32 79.3l12.26 2.02-3.98 28.12c-.06-.08-.04-.18-.1-.26l-.02-.04c-.48-.48-1.16-.78-1.9-.78h-1.72v-7c0-1.42-.56-2.7-1.5-3.64h-.02a5.09 5.09 0 00-3.64-1.52h-1.82l2.44-16.9zm7.56 44.16c0 .34-.14.68-.36.92-.24.22-.56.38-.94.38h-16.5v-15.04h16.5c.38 0 .7.16.94.38l.02.04c.22.22.34.54.34.88v12.44zm-12.48 6.82h4.3c1.38 0 2.6-.52 3.52-1.4.12-.1.18-.26.28-.36v4.6l-8.1 4.46v-7.3zm-11.16 0h9.82v8.04l-13.66 7.52 3.84-15.56zm.48-20.56h4.02v15.02h-4.02v-15.02zm0 19.2v-2.8h18.66c-.18.68-.56 1.3-1.08 1.78-.68.64-1.58 1.02-2.6 1.02h-14.98zm14.98-31.36c1.06 0 2 .42 2.7 1.12.68.68 1.12 1.64 1.12 2.68v7h-18.8v-10.8h14.98zm-30.98 0h14.66v31.36h-10.88c-1.04 0-2-.42-2.68-1.12-.68-.68-1.1-1.62-1.1-2.66v-27.58zm-30.04 7.28h-3.04c-1.64 0-1.9-1.7-1.9-3.84 0-.7 0-1.34.04-1.98l.04-1.46h4.86v7.28zm16.32 0h-14.96v-7.28h14.96v7.28zm6.22-7.28l.06 1.46c.02.64.04 1.3.04 1.98 0 2.14-.28 3.84-1.9 3.84h-3.06v-7.28h4.86zm-35.82 6.18c.14.1.28.22.42.32l2.64 2.14.82.76-.66 5.74-4.04-2.98.82-5.98zm12.44 12.62l2.08 2.88c.06.08.12.16.18.26l-2.16 5.42-3.12-3.94 2.34-5.56c.24.3.46.62.68.94zm6.7 8.08c-.96-1.84-2-3.62-3.12-5.36-.02-.04.02-.06 0-.1l-.34-.46c-.72-1.08-1.5-2.12-2.28-3.18l-1.24-1.7c-.02-.04-.08-.06-.1-.08-1.46-1.82-3-3.58-4.66-5.22-.72-.74-1.54-1.4-2.3-2.1-.04-.04-.02-.12-.08-.16l-1.06-.88c-.9-.76-1.82-1.52-2.76-2.24l-1.24-1.02a.68.68 0 00-.3-.14c-2.1-1.54-4.26-2.98-6.56-4.24h13.96c-.02.48-.02.96-.04 1.4-.02.72-.04 1.44-.04 2.04 0 2.88.46 5.2 3.26 5.2h23.78c2.78 0 3.26-2.32 3.26-5.2 0-.6-.04-1.32-.06-2.04-.02-.44-.02-.92-.04-1.4h4.78v26.88h-22.82zm-479.3 75.94c-.62 1.08-1.3 2.16-2.02 3.2h-4.44c2.5-3.14 4.52-6.68 5.96-10.5 1.54-4.14 2.38-8.62 2.38-13.28 0-7.12-1.96-13.78-5.34-19.46a38.299 38.299 0 00-13.92-13.66l2.3-2.76c1.04.62 2.04 1.26 3 1.94 6.54 4.64 11.34 10.86 14.26 17.8v.02c.96 2.32 1.72 4.72 2.26 7.14 2.16 9.78.84 20.32-4.44 29.56zM992.6 226.4c-4.04-4.14-9.54-7.04-15.84-7.04H958.7l-.34-.62a8.879 8.879 0 00-2-2.4 7.147 7.147 0 00-4.42-1.6c-1.56-.04-3.14.38-4.56 1.2-1.04.62-2.02 1.42-2.82 2.42l-16.3 18.88c-.02 0 0 0 0 .02-.1.08-.22.16-.3.26-.52.5-.96 1.08-1.38 1.66v-4.86h1.72c.74 0 1.38-.3 1.86-.78l.04-.02c.46-.46.76-1.14.76-1.86v-8.86l4.78-33.74c.04-.36-.22-.7-.58-.76l-13.6-2.26c-.36-.06-.7.2-.76.58l-2.58 17.78H907.2l7.72-9.48c.12-.18.16-.4.12-.58l-16.1-66.7c-1.08-4.02-2.18-8.08-5.1-11.74-2.92-3.64-7.6-6.82-15.78-9.02l-.06-.02c-23.06-4.44-47.1-7.58-71.92-9.98-3.46-.34-7.04-.58-10.56-.88V49.26c0-2.58.84-5 2.22-6.98a12.23 12.23 0 015.8-4.52c.28-.1.46-.36.46-.64V26.34c0-.36-.3-.68-.66-.68-5.14 0-9.82 2.1-13.2 5.48-3.38 3.4-5.48 8.06-5.48 13.2v50.74c-8.08-.64-16.18-1.3-24.4-1.86V85.7c0-.38-.3-.68-.68-.68h-.64v-18.7h5.94c.82 0 1.34-.72 1.54-1.74.1-.4.12-.86.1-1.34-.02-.48-.1-.96-.26-1.46-.44-1.6-1.58-3.06-3.64-3.06h-22.44c-2.04 0-3.16 1.46-3.64 3.06-.14.5-.22.98-.24 1.46-.02.46 0 .9.08 1.28v.06c.2 1.02.74 1.74 1.56 1.74h5.94v18.7h-.66c-.38 0-.68.3-.68.68v6.4c-4.3-.26-8.52-.58-12.86-.82 0-.02 0 0-.02 0s0-.02-.02-.02h-19.28v-.76c.04-4.02.04-5.9-1.58-6.92l-.06-.04c-1.34-.8-3.62-.76-7.88-.7-1.22 0-2.64.02-4.56.02-3.5 0-4 2.84-4 5.86 0 .5.02 1.1.04 1.7v.84h-17.54V11.04h8.66c.38 0 .68-.3.68-.68V1.34c0-.38-.3-.7-.68-.7H522.42c-.36 0-.66.32-.66.7v9.02c0 .38.3.68.66.68h12.48l-4.64 25.54-14.62 5.82c-.24.08-.42.28-.46.52l-.56 2.98-1.72 9.9-1.12-.26c-.9-.2-1.8 0-2.52.46s-1.28 1.18-1.48 2.1L503 79.46c-.2.9 0 1.8.44 2.54.48.72 1.2 1.26 2.12 1.46l9.5 2.14c.92.2 1.8 0 2.54-.46.72-.44 1.26-1.18 1.48-2.1l4.76-21.36c.2-.9.02-1.8-.44-2.52-.46-.74-1.2-1.28-2.1-1.5l-3.34-.74 1.7-9.66 8.46 1.06-8.32 45.94c-.96 4.96-1.52 7.98-1.4 11.06.1 3.08.88 6.12 2.58 11.04l19.7 51.62v5.54H537v-1.3c0-2.48-2.04-2.9-4.6-2.9-.54 0-1.18.04-1.82.04-.6.04-1.22.06-1.88.06-.38 0-.7.3-.7.68v12.98c0 .38.32.68.7.68 1.08 0 1.84.02 2.5.04 2.94.04 4.38.08 5.22-1.1.44-.64.58-1.62.62-3.02h3.64v16.5l-42.18-29.86c-37.1-26.32-53.7-38.04-83.96-38.18-4.44-26.8-9.1-53.7-13.18-80.48a6.083 6.083 0 00-2.54-3.94 6.184 6.184 0 00-4.54-1.06c-.66.1-1.34.24-2 .36a6.046 6.046 0 00-3.98 2.54 6.253 6.253 0 00-1.06 4.64l10.28 62.54h-22.44c-.38 0-.68.32-.68.68v7.24h-2c-.38 0-.68.3-.68.68v7.02L195.86 149.3 106.08 160v-22.04c1.04-.06 1.78-.2 2.28-.62.94-.74.9-1.98.86-4.52-.02-.68-.04-1.5-.04-2.62 0-.62-.26-1.2-.68-1.62l-.02-.02c-.4-.4-.98-.66-1.6-.66-1.52 0-2.62-.02-3.54-.04-2.76-.06-4.16-.08-5.02.58-.94.76-.9 2.02-.84 4.54 0 .7.02 1.5.02 2.62 0 .64.26 1.2.68 1.64h.02c.42.42.98.66 1.62.66.5 0 .94 0 1.36.02v22.64l-7.06.86H71.46c-2.42 0-4.62.98-6.22 2.58-1.6 1.6-2.58 3.8-2.58 6.22v49.92l-38.7 3.5c-2.88.26-4.62 2.04-5.24 4.18-.26.82-.34 1.68-.26 2.52.06.84.3 1.68.7 2.42.74 1.46 2.06 2.6 3.92 2.96v8.76l-2.9-.36-.16-2.68c-.08-1.1-.46-1.96-1.12-2.56-.66-.6-1.56-.92-2.68-.92H5.28c-1.12 0-2.14.46-2.88 1.2l-.02.02a4.07 4.07 0 00-1.16 2.86v62.26c-.02 1.3-.16 2.8-.38 4.1-.2 1.16-.46 2.14-.74 2.66-.2.32-.08.74.24.92.24.14.52.12.74-.04l22.08-15.02 42.66-26.04c.06.42.12.82.18 1.2l.34 2.46c0 .04.04.08.06.14.82 4.34 2.08 8.52 3.72 12.5v.04l.1.2c.62 1.52 1.36 2.98 2.1 4.44l.62 1.3c0 .02.02.02.02.04 2.2 4.08 4.84 7.88 7.84 11.36.02.04 0 .08.02.1l1.46 1.56c.66.7 1.28 1.44 1.96 2.14.2.18.42.36.62.54l.46.5c.08.08.16.12.26.16 2.8 2.66 5.82 5.08 9.08 7.22.02 0 0 .04.04.06l1.86 1.08c1.08.66 2.16 1.34 3.3 1.92l.52.3c.08.06.16.06.24.08 3.58 1.84 7.34 3.34 11.26 4.5.04 0 .04.04.08.06l2.26.52c1.16.3 2.34.62 3.54.84l.6.16c.08 0 .18 0 .26-.02 3.74.68 7.58 1.08 11.5 1.08.5 0 .98-.06 1.48-.08.04.02.06.06.1.06l2.5-.18c1.12-.08 2.24-.14 3.36-.26l.7-.04c.1-.02.18-.06.26-.1 4.24-.54 8.36-1.5 12.3-2.82.04-.02.08.02.12.02l1.9-.78c1.18-.42 2.34-.86 3.46-1.36l.72-.28c.1-.04.18-.1.28-.2a64.56 64.56 0 0012.3-7.44c.04-.02.1.02.14-.02l.74-.64c.96-.76 1.88-1.58 2.8-2.4l1.44-1.22c.06-.06.12-.14.16-.22.38-.36.78-.68 1.16-1.04 2.56-2.58 4.88-5.4 6.98-8.36.02-.04.08-.02.1-.06l.36-.56c.7-1 1.32-2.04 1.96-3.08l1.2-1.86c.04-.06.04-.14.06-.2 2.32-4.12 4.2-8.5 5.6-13.12 0-.02.02-.02.04-.04l.56-2.32c.32-1.22.66-2.44.9-3.68l.08-.34c.02-.06 0-.14 0-.2.74-3.9 1.16-7.9 1.18-12.02v-.08c0-1.32-.12-2.6-.2-3.9l-.14-2.6v-.02c-.42-4.34-1.3-8.56-2.54-12.6v-.02l-.02-.04c-1.76-5.72-4.34-11.06-7.5-15.98-.02-.04.02-.06-.02-.1l-.34-.46c0-.04-.04-.08-.06-.12h109.18v21.74c0 .38.3.68.68.68h86.02c5.82 0 10.68.26 14.72.8 4.04.52 7.3 1.3 9.98 2.34 5.82 2.26 8.5 5.84 10.04 10.24h-9.26v-3.42c0-.38-.3-.68-.68-.68H392.7c-.36 0-.68.3-.68.68v4.08c0 .38.32.68.68.68h3.36v3.64h-7.78c-3.04-5.54-7.18-10.56-12.6-14.42-1.18-.82-2.38-1.6-3.62-2.32-.3-.16-.7-.06-.9.2l-3.14 3.82c-.24.28-.18.72.1.96l.12.06c5.82 3.16 10.7 7.86 14.08 13.54 3.28 5.5 5.16 11.92 5.16 18.78a36.59 36.59 0 01-8.94 24c-.24.28-.2.72.08.96.12.12.28.16.44.18h6.22c.24 0 .46-.16.58-.34.82-1.16 1.58-2.34 2.26-3.56 5.46-9.52 6.84-20.42 4.6-30.5-.42-1.98-1.12-3.88-1.82-5.78h5.16v23.88h-3.22c-.12.54-.24 1.08-.38 1.62-.12.4-.22.82-.34 1.26h3.94v2.36h-1.3c-1.3 0-2.12.72-2.5 1.64-.14.34-.2.72-.2 1.1 0 .36.06.72.2 1.08.38.92 1.2 1.64 2.5 1.64h8.12c.04 0 .06-.04.1-.04 3.86-.16 7-.68 9.82-1.6 3.74-1.24 6.88-3.12 10.28-5.68 5.16-1.4 8.46-3.9 10.5-6.8 2.74-3.94 3.16-8.58 2.72-12.24-.52-3.54-1.08-7.18-1.62-10.8l1.64-6.5h38.94c.38 0 .68-.3.68-.68v-11.42c0-.38-.3-.68-.68-.68h-25.7l-10.16-14.22a.657.657 0 00-.6-.34h-3.34v-2.28h1.58c.36 0 .68-.3.68-.66v-7.66c0-.38-.32-.68-.68-.68h-14.9l6.14-1.94c2.32-.74 3.4-2.48 3.56-4.32.06-.7-.04-1.42-.26-2.1-.2-.66-.54-1.3-.98-1.84-.26-.3-.54-.56-.86-.78l-11.68-59.52c24.28.42 44 18.2 70.84 42.52 4.6 4.16 9.4 8.52 14.44 12.96l37.34 33.06v6.6c0 .38.3.68.68.68h5.28c.36 0 .68-.3.68-.68v-6.22h24v6.22c0 .38.3.68.68.68h5.28c.36 0 .68-.3.68-.68v-11.16h11.86c-1.36 3.44-2.48 7-3.22 10.7 0 .02-.02.02-.02.02l-.36 2.38c-.2 1.34-.48 2.68-.6 4.06v.06c-.02 0 0 .02 0 .02-.22 2.14-.32 4.28-.32 6.46 0 1.86.12 3.68.26 5.48 0 .04-.04.06-.04.1l.08.52c.1 1.18.3 2.36.48 3.54l.34 2.46c0 .04.04.08.06.14.82 4.34 2.06 8.52 3.72 12.5 0 0-.02.02 0 .04l.08.2c.62 1.46 1.32 2.86 2.02 4.24l.7 1.5.04.04c2.18 4.08 4.84 7.88 7.82 11.36.04.04 0 .08.04.1l1.46 1.56c.66.7 1.26 1.44 1.94 2.14.2.18.42.36.62.54l.48.5c.08.08.16.14.26.18 2.8 2.64 5.82 5.06 9.06 7.2.04 0 .02.04.04.06l1.88 1.08c1.08.66 2.16 1.34 3.28 1.92l.54.3c.08.06.14.06.24.08 3.58 1.84 7.34 3.34 11.26 4.5.04 0 .04.04.08.06l2.24.52c1.18.3 2.36.62 3.56.84l.6.16c.08 0 .16 0 .26-.02 3.74.68 7.56 1.08 11.5 1.08.5 0 .96-.06 1.46-.08.04.02.06.06.12.06l2.48-.18c1.12-.08 2.26-.14 3.36-.26l.72-.04c.08-.02.18-.06.26-.1 4.24-.54 8.36-1.5 12.3-2.82.04-.02.06.02.12.02l1.9-.78c1.16-.42 2.32-.86 3.46-1.36l.7-.28c.12-.04.2-.1.28-.2 4.4-2.02 8.52-4.52 12.3-7.44.06-.02.12.02.16-.02l.74-.64c.96-.76 1.88-1.58 2.8-2.4l1.44-1.22c.06-.06.1-.14.14-.22.38-.36.8-.68 1.18-1.04 2.56-2.58 4.86-5.4 6.98-8.36.02-.04.08-.02.1-.06l.34-.54c.7-1.02 1.34-2.06 2-3.14l1.18-1.82c.04-.06.04-.14.04-.2.32-.54.62-1.1.92-1.66h43.26c.08 0 .08-.1.16-.12l.32.7.02.04c2.2 4.08 4.86 7.88 7.86 11.36 0 .04 0 .08.02.1l1.4 1.5c.68.72 1.3 1.5 2 2.2.2.18.44.36.64.56l.46.48c.06.08.16.12.26.16 2.8 2.66 5.82 5.08 9.08 7.22 0 0 0 .04.04.06l1.82 1.06c1.08.66 2.18 1.34 3.34 1.94l.52.3c.06.06.14.06.24.08 3.58 1.84 7.34 3.34 11.26 4.5.04 0 .04.04.08.06l2.24.52c1.18.3 2.34.62 3.54.84l.6.16c.1 0 .18 0 .26-.02 3.76.68 7.58 1.08 11.54 1.08.48 0 .96-.06 1.44-.08.04.02.06.06.12.06l2.48-.18c1.12-.08 2.26-.14 3.38-.26l.7-.04c.08-.02.18-.06.26-.1 4.24-.54 8.34-1.5 12.3-2.82.04-.02.08.02.12.02l1.9-.78c1.16-.42 2.32-.86 3.46-1.36l.72-.28c.08-.04.18-.1.26-.18a65.85 65.85 0 0012.32-7.46c.04-.02.1.02.14-.02l.74-.64c.96-.76 1.9-1.58 2.8-2.42l1.44-1.2c.06-.06.1-.14.14-.22.38-.36.8-.68 1.16-1.04 2.56-2.58 4.88-5.4 7-8.36.02-.04.08-.02.08-.06l.36-.54c.7-1 1.34-2.06 1.98-3.1l1.18-1.86c.04-.06.04-.14.06-.2 2.34-4.12 4.22-8.5 5.6-13.12 0-.02.04-.02.04-.04l.56-2.24c.32-1.24.66-2.5.9-3.78l.1-.32c.02-.06 0-.14 0-.2.7-3.76 1.1-7.62 1.14-11.58l4.46 11.12c.04.12.08.22.12.32l.18.4c.02.06.1.02.14.06.5.98 1.04 1.92 1.82 2.68 1.86 1.88 4.44 3.02 7.3 3.02 2.84 0 5.42-1.14 7.28-3.02.5-.5.8-1.16 1.2-1.76 0 0 .02.04.04.02l44.34-17.12c.02-.02.02-.06.02-.08 2.1-.58 3.98-1.66 5.48-3.14.1-.12.18-.28.3-.38.02-.02.02 0 .04 0l13.44-11.66c.5-.52 1.02-.96 1.52-1.44 2.8-2.6 5.68-5.32 4.54-8.9h6.86c5.56 0 10.3 1.88 14.22 4.56 5.6 3.86 9.56 9.38 11.92 13.46.12.2.34.34.58.34.38 0 .68-.32.68-.68v-7.68c0-5.58-2.78-11.96-7.4-16.68zm-67.42-.38c-.32.8-1.06 1.42-2.2 1.42-1.16 0-1.88-.62-2.2-1.42-.14-.32-.2-.66-.2-1.02 0-.34.06-.7.2-1 .32-.8 1.04-1.42 2.2-1.42 1.14 0 1.88.62 2.2 1.42.12.3.18.66.18 1 0 .36-.06.7-.18 1.02zm-2.2-4.8c-1.8 0-2.96 1-3.46 2.26-.18.48-.3 1.02-.3 1.52 0 .52.12 1.04.3 1.54.5 1.26 1.66 2.26 3.46 2.26s2.94-1 3.44-2.26a4.036 4.036 0 000-3.06c-.5-1.26-1.64-2.26-3.44-2.26zm-32.74 50.28c-.4.98-1.3 1.72-2.7 1.72-1.42 0-2.32-.74-2.72-1.72-.14-.4-.22-.82-.22-1.24 0-.44.08-.86.22-1.26.4-.96 1.3-1.72 2.72-1.72 1.4 0 2.3.76 2.7 1.72.16.4.22.82.22 1.26 0 .42-.06.84-.22 1.24zm-2.7-5.58c-2.06 0-3.38 1.14-3.96 2.58-.22.56-.34 1.16-.34 1.76 0 .58.12 1.18.34 1.74.58 1.44 1.9 2.58 3.96 2.58 2.04 0 3.36-1.14 3.94-2.58.22-.56.34-1.16.34-1.74 0-.6-.12-1.2-.34-1.76-.58-1.44-1.9-2.58-3.94-2.58zm5.24 6.72c-.76 1.92-2.5 3.4-5.24 3.4-2.76 0-4.5-1.48-5.26-3.4a6.46 6.46 0 01-.46-2.38c0-.84.16-1.66.46-2.4.76-1.9 2.5-3.4 5.26-3.4 2.74 0 4.48 1.5 5.24 3.4.3.74.46 1.56.46 2.4 0 .8-.16 1.64-.46 2.38zm1.24-5.28c-.94-2.38-3.1-4.26-6.48-4.26-3.4 0-5.56 1.88-6.52 4.26-.38.92-.54 1.9-.54 2.9 0 .98.16 1.96.54 2.9.96 2.38 3.12 4.22 6.52 4.22 3.38 0 5.54-1.84 6.48-4.22.38-.94.56-1.92.56-2.9 0-1-.18-1.98-.56-2.9zm-212.6-166.64c0-.22.1-.42.24-.58a.89.89 0 01.58-.24c.48 0 1.06-.02 1.64-.04.46-.02.92-.04 1.42-.04 1.28 0 2.26.14 2.26.9v20.04c0 .74-.98.88-2.26.88-.5 0-.96-.02-1.42-.04-.58 0-1.16-.04-1.64-.04-.22 0-.42-.08-.58-.24a.802.802 0 01-.24-.56v-20.04zm.82 22.2c.58 0 1.1.02 1.58.04.54.02 1.06.04 1.48.04 2.04 0 3.6-.34 3.6-2.24v-20.04c0-1.9-1.56-2.26-3.6-2.26-.42 0-.94.02-1.48.06-.48 0-1 .02-1.58.02-.6 0-1.14.24-1.54.64-.4.4-.64.94-.64 1.54v20.04c0 .58.24 1.14.64 1.52.4.4.94.64 1.54.64zM529.92 98.46l.3-2.32 12.5-73.12h49.8c2.28 0 4.36.94 5.84 2.42 1.5 1.5 2.44 3.58 2.44 5.86v119.22c0 2.28-.94 4.36-2.44 5.86l-.02.02c-1.5 1.5-3.56 2.4-5.82 2.4h-44.18l-17.02-46.32c-2.34-6.76-2.12-8.56-1.4-14.02zm17.96 61.7h44.64c2.64 0 5.02-1.06 6.76-2.78l.04-.04c1.76-1.76 2.84-4.16 2.84-6.82V31.3c0-2.66-1.08-5.06-2.84-6.8a9.517 9.517 0 00-6.8-2.84h-50.38c-.32 0-.6.24-.66.56-4.26 24.86-9.8 51.26-12.9 76.06-.74 5.7-.98 7.58 1.48 14.64l17.16 46.76c.08.28.34.48.66.48zm115.34-17.34c0 2.28-.92 4.34-2.42 5.86-1.5 1.48-3.58 2.42-5.84 2.42h-23.54c-2.28 0-4.34-.94-5.84-2.42-1.5-1.52-2.44-3.58-2.44-5.86V31.3c0-2.28.92-4.36 2.44-5.84 1.5-1.5 3.56-2.44 5.84-2.44h23.54c2.26 0 4.34.94 5.84 2.44a8.187 8.187 0 012.42 5.84v111.52zm-8.26-121.16h-23.54a9.57 9.57 0 00-6.78 2.82l-.02.02a9.552 9.552 0 00-2.84 6.8v111.52c0 2.66 1.08 5.06 2.84 6.8a9.552 9.552 0 006.8 2.84h23.54a9.57 9.57 0 006.78-2.82l.02-.02a9.618 9.618 0 002.82-6.8V31.3c0-2.66-1.08-5.06-2.82-6.8a9.552 9.552 0 00-6.8-2.84zm-128.76 73c4.82-26.02 8.8-52.66 13.18-78.82h67.26v146.1h-62.2l-16.92-46.82c-3.34-9.38-2.66-13.12-1.32-20.46zm17.76 68.64h63.36c.36 0 .68-.3.68-.68V15.16a.67.67 0 00-.68-.66H538.8c-.32 0-.6.22-.66.56l-13.26 79.36c-1.4 7.56-2.1 11.42 1.38 21.14l17.04 47.22c.08.3.34.52.66.52zm126.34-3.68c.38 0 .68-.3.68-.68V15.16c0-.36-.3-.66-.68-.66h-54.24c-.38 0-.68.3-.68.66v143.78c0 .38.3.68.68.68h54.24z" fill="#F7B726"/></svg>