<svg width="548" height="180" fill="none" xmlns="http://www.w3.org/2000/svg"><path d="M337.973 9.168h28.989v78.057h-28.989V9.168zm115.19 135.608a1.337 1.337 0 01-.219.428 1.35 1.35 0 01-.351.307c-.34.186-.778.208-1.184-.11-.405-.329-.482-.745-.383-1.118.044-.153.12-.296.23-.416.088-.132.219-.241.351-.318.328-.197.767-.208 1.172.121.406.317.494.745.384 1.106zm-3.551 2.466a6.643 6.643 0 01-.921 1.623c0 .022-.022.022-.022.043a6.322 6.322 0 01-3.189 2.181c-.022.011-.066.033-.099.033a7.596 7.596 0 01-2.247.318 7.638 7.638 0 01-2.268-.318c-.033-.011-.088-.022-.121-.033-2.038-.646-3.408-2.104-4.11-3.847a7.86 7.86 0 01-.548-2.937c0-1.008.176-2.016.548-2.937.943-2.356 3.113-4.209 6.499-4.209 2.488 0 4.319 1.02 5.491 2.51.022.055.077.088.11.143.362.482.669 1.008.877 1.556.373.921.559 1.929.559 2.937a7.85 7.85 0 01-.559 2.937zm-.044 1.634c.132-.099.274-.176.427-.22.154-.043.318-.065.472-.043.383.032.745.274.888.767.153.515-.022.909-.329 1.14a1.147 1.147 0 01-.428.219c-.142.055-.307.066-.471.055-.384-.044-.745-.285-.899-.779a1.37 1.37 0 010-.635c.077-.088.121-.198.187-.285.054-.077.076-.176.153-.219zm-3.518 3.014c.142.065.285.142.405.241.285.263.428.668.252 1.161-.186.494-.559.702-.953.713a1.123 1.123 0 01-.46-.077 1.243 1.243 0 01-.406-.241c-.296-.263-.438-.669-.252-1.162a.969.969 0 01.789-.657c.077-.033.165-.022.241-.044.132.011.263.022.384.066zm-5.064.263l.011.011c.077.131.132.274.165.416.087.384-.044.8-.472 1.085-.449.285-.876.241-1.194.022a1.92 1.92 0 01-.329-.34 1.146 1.146 0 01-.175-.438c-.088-.384.032-.8.471-1.085a.944.944 0 01.811-.143c.142.055.263.121.416.154.11.087.22.186.296.318zm-4.23-2.214c-.154.35-.504.624-1.02.613-.526-.021-.854-.306-.986-.679a1.3 1.3 0 01-.066-.46c0-.165.044-.318.099-.472.153-.35.504-.613 1.019-.602.526.01.844.306.987.668.043.143.076.307.065.471 0 .154-.043.318-.098.461zm-1.699-4.647a1.21 1.21 0 01-.329.339c-.329.209-.756.252-1.184-.043-.438-.296-.558-.713-.471-1.086.033-.153.099-.306.187-.438a1.44 1.44 0 01.339-.34c.318-.208.757-.252 1.184.044.427.296.548.713.46 1.096a1.237 1.237 0 01-.186.428zm-.438-5.612c-.165-.482-.011-.899.274-1.151.12-.098.252-.186.405-.23a1.18 1.18 0 01.471-.077c.384.011.757.242.932.724.175.504.022.909-.263 1.162a1.513 1.513 0 01-.406.23 1.191 1.191 0 01-.471.076c-.383-.011-.767-.23-.942-.734zm5.37-2.63a1.141 1.141 0 01-.471-.033 1.41 1.41 0 01-.428-.197c-.307-.231-.493-.625-.361-1.14.142-.494.493-.746.876-.789.154-.022.329-.011.483.032.153.044.296.11.416.209.307.23.493.624.362 1.129-.066.241-.176.416-.329.537-.121.043-.197.12-.307.153-.088.033-.153.088-.241.099zm5.217-.373a1.303 1.303 0 01-.548-.745c-.099-.373 0-.8.427-1.096.417-.318.844-.285 1.173-.088.132.088.252.208.351.329.087.131.164.274.208.427.088.373-.011.789-.427 1.107a1.026 1.026 0 01-.614.219c-.099-.032-.208-.043-.296-.076-.099-.022-.186-.022-.274-.077zm4.11 1.787c.142-.351.482-.636.997-.636.526 0 .855.285 1.009.636v.021c.054.132.076.285.076.45 0 .164-.022.329-.076.46-.154.362-.483.647-1.009.647-.449 0-.723-.23-.898-.504-.033-.066-.066-.154-.121-.22a1.47 1.47 0 01-.066-.383c0-.165.033-.318.088-.471zm1.918 4.449c-.164.088-.285.219-.417.362-.087-.745-.241-1.491-.515-2.181-.054-.132-.153-.252-.208-.384.088.011.132.077.219.077.877 0 1.436-.493 1.688-1.118.099-.23.143-.482.143-.734a2.06 2.06 0 00-.132-.724l-.011-.021c-.252-.625-.811-1.096-1.688-1.096-.866 0-1.435.471-1.688 1.106-.043.121-.043.253-.065.373a6.981 6.981 0 00-1.885-1.304c.043-.033.098-.022.153-.066.701-.515.866-1.238.701-1.885a2.268 2.268 0 00-.317-.68 2.538 2.538 0 00-.559-.515c-.57-.35-1.305-.416-2.006.11-.712.515-.866 1.238-.701 1.885.043.164.131.307.219.449-.351-.032-.658-.142-1.031-.142-.624 0-1.139.131-1.676.23.032-.077.098-.109.12-.208.23-.844-.088-1.513-.625-1.918a2.018 2.018 0 00-.679-.318 1.722 1.722 0 00-.745-.066c-.669.088-1.283.504-1.513 1.348-.219.844.099 1.513.625 1.918.109.066.219.099.329.154a7.092 7.092 0 00-1.557 1.282c-.011-.055.011-.088 0-.142-.296-.833-.942-1.195-1.611-1.217a1.918 1.918 0 00-.745.11c-.241.087-.46.208-.658.372-.493.45-.767 1.14-.471 1.962.285.833.932 1.195 1.6 1.228.143 0 .285-.044.417-.077v.011c-.296.745-.439 1.534-.526 2.334-.088-.087-.099-.197-.22-.274-.723-.493-1.457-.405-2.016-.032a2.154 2.154 0 00-.526.526 1.85 1.85 0 00-.307.69c-.143.658.044 1.37.767 1.874.723.482 1.458.406 2.017.033.142-.099.241-.23.35-.351.099.548.252 1.096.461 1.623.022.054.065.098.087.153-.076-.011-.12-.066-.197-.077-.888-.022-1.469.439-1.732 1.052a2.187 2.187 0 00-.164.735c0 .252.033.515.121.745.23.636.778 1.129 1.655 1.162.865.033 1.446-.439 1.72-1.052.044-.121.055-.242.077-.373a6.558 6.558 0 001.688 1.293c-.044.033-.088.022-.143.055-.723.471-.931 1.184-.8 1.841.044.252.154.483.296.691.143.219.318.405.526.548.537.383 1.283.482 2.017 0 .723-.493.932-1.206.789-1.852-.022-.165-.11-.307-.186-.45.471.077.909.197 1.435.197.351 0 .636-.098.976-.142-.055.088-.132.132-.175.23-.307.822-.044 1.513.46 1.962.186.164.405.307.636.395.241.076.504.12.745.12.668-.022 1.315-.383 1.622-1.195.307-.822.044-1.523-.449-1.961-.099-.099-.231-.143-.34-.22a6.612 6.612 0 001.918-1.315c.011.055-.011.099 0 .165.252.833.866 1.238 1.534 1.304.252.022.504 0 .746-.077a1.88 1.88 0 00.679-.34c.515-.416.822-1.085.581-1.929-.241-.833-.866-1.249-1.524-1.304-.164-.022-.317.022-.471.044.077-.142.176-.263.23-.405.231-.57.384-1.173.472-1.787.076.088.087.175.175.252.69.537 1.436.504 2.006.164.23-.12.416-.295.57-.493.164-.197.285-.416.35-.668.187-.636.055-1.37-.635-1.896-.691-.548-1.425-.515-2.006-.176zm-6.214 2.258c-.285.68-.899 1.217-1.886 1.217-.997 0-1.622-.537-1.896-1.217a2.35 2.35 0 01-.164-.866c0-.296.055-.592.164-.866.274-.679.899-1.216 1.896-1.216.987 0 1.601.537 1.886 1.216.109.274.153.57.153.866 0 .296-.044.592-.153.866zm-1.886-3.693c-1.348 0-2.213.745-2.586 1.687a3.094 3.094 0 00-.219 1.14c0 .384.076.778.219 1.14.373.954 1.238 1.688 2.586 1.688 1.338 0 2.192-.734 2.565-1.688a2.92 2.92 0 00.219-1.14c0-.394-.065-.778-.219-1.14-.373-.942-1.227-1.687-2.565-1.687zm10.851 13.689a15.291 15.291 0 01-10.861 4.504 15.311 15.311 0 01-10.862-4.504 15.288 15.288 0 01-4.504-10.862c0-4.241 1.72-8.088 4.504-10.861a15.308 15.308 0 0110.862-4.505c4.241 0 8.088 1.721 10.861 4.505a15.242 15.242 0 014.504 10.861c0 4.242-1.709 8.089-4.504 10.862zm-10.861-26.973c-4.45 0-8.473 1.808-11.388 4.713a16.069 16.069 0 00-4.713 11.398c0 4.45 1.798 8.472 4.713 11.388a16.054 16.054 0 0011.388 4.723c4.449 0 8.483-1.808 11.398-4.723a16.047 16.047 0 004.713-11.388c0-4.45-1.798-8.483-4.713-11.398a16.112 16.112 0 00-11.398-4.713zm3.792 17.832c-.548 1.381-1.809 2.455-3.782 2.455-1.983 0-3.255-1.074-3.803-2.455a4.798 4.798 0 01-.317-1.721c0-.592.109-1.183.317-1.721.548-1.37 1.82-2.444 3.803-2.444 1.973 0 3.234 1.074 3.782 2.444.219.538.328 1.129.328 1.721a4.58 4.58 0 01-.328 1.721zm-3.782-6.642c-2.334 0-3.836 1.282-4.482 2.926a5.43 5.43 0 00-.384 1.995c0 .68.132 1.359.384 1.995.646 1.644 2.148 2.915 4.482 2.915 2.324 0 3.815-1.271 4.472-2.915a5.416 5.416 0 00.373-1.995 5.42 5.42 0 00-.373-1.995c-.657-1.644-2.148-2.926-4.472-2.926zm12.824 17.755a18.047 18.047 0 01-12.824 5.316 18.098 18.098 0 01-12.845-5.316c-3.277-3.288-5.315-7.814-5.315-12.834 0-5.009 2.038-9.557 5.315-12.834a18.098 18.098 0 0112.845-5.316c5.009 0 9.547 2.028 12.824 5.316a18.07 18.07 0 015.315 12.834 18.07 18.07 0 01-5.315 12.834zm-12.824-31.729a18.843 18.843 0 00-13.371 5.535 18.873 18.873 0 00-5.524 13.36c0 5.217 2.116 9.941 5.524 13.36a18.843 18.843 0 0013.371 5.535 18.83 18.83 0 0013.35-5.535 18.837 18.837 0 005.535-13.36c0-5.217-2.116-9.941-5.535-13.36a18.83 18.83 0 00-13.35-5.535zm-76.785 19.366c-.044.154-.11.296-.22.428-.098.12-.219.23-.35.307-.34.186-.768.208-1.173-.11-.417-.329-.504-.745-.395-1.118.044-.153.121-.296.22-.416.098-.132.23-.241.361-.318.329-.197.767-.208 1.173.121.405.317.493.745.384 1.106zm-3.551 2.466a6.71 6.71 0 01-.921 1.623c0 .022-.011.022-.022.043a6.338 6.338 0 01-3.178 2.181c-.044.011-.066.033-.11.033-.669.209-1.425.318-2.258.318a7.676 7.676 0 01-2.258-.318 1.615 1.615 0 00-.12-.033c-2.039-.646-3.409-2.104-4.11-3.847a7.84 7.84 0 01-.548-2.937c0-1.008.175-2.016.548-2.937.942-2.356 3.112-4.209 6.488-4.209 2.51 0 4.34 1.02 5.502 2.51h.011c.011.055.066.088.099.132.361.482.657 1.019.877 1.567.383.921.558 1.929.558 2.937 0 1.009-.175 2.017-.558 2.937zm-.044 1.634c.12-.099.263-.176.427-.22.154-.043.318-.065.471-.043.384.032.746.274.888.767.154.515-.022.909-.329 1.14a1 1 0 01-.427.219 1.106 1.106 0 01-.46.055c-.395-.044-.757-.285-.899-.779a1.129 1.129 0 010-.635c.066-.088.109-.198.175-.285.055-.077.088-.176.154-.219zm-3.518 3.014c.153.065.284.142.405.241.285.263.438.668.252 1.161-.186.494-.559.702-.942.713a1.152 1.152 0 01-.472-.077 1.238 1.238 0 01-.405-.241c-.285-.263-.439-.669-.252-1.162a.969.969 0 01.789-.657c.076-.033.164-.022.241-.044.12.011.263.022.384.066zm-5.064.263l.011.011c.077.131.131.274.164.416.077.384-.044.8-.471 1.085-.438.285-.877.241-1.195.022a1.593 1.593 0 01-.328-.34 1.148 1.148 0 01-.176-.438c-.087-.384.044-.8.472-1.085a.944.944 0 01.811-.143c.142.055.263.121.416.154.11.087.219.186.296.318zm-4.231-2.214c-.164.35-.493.624-1.019.613-.526-.021-.844-.306-.986-.679a1.609 1.609 0 01-.066-.46c0-.165.044-.318.099-.472.164-.35.493-.613 1.019-.602.526.01.855.306.975.668.055.143.077.307.077.471 0 .154-.033.318-.099.461zm-1.698-4.647a1.402 1.402 0 01-.329.339c-.329.209-.756.252-1.195-.043-.427-.296-.548-.713-.46-1.086.033-.153.098-.306.186-.438.099-.131.208-.252.34-.34.318-.208.756-.252 1.184.044.438.296.548.713.471 1.096-.033.154-.11.296-.197.428zm-.428-5.612c-.186-.482-.033-.899.263-1.151.121-.098.263-.186.417-.23.153-.055.307-.088.46-.077.384.011.767.242.943.724.164.504.011.909-.274 1.162a1.42 1.42 0 01-.417.23 1.111 1.111 0 01-.46.076c-.395-.011-.767-.23-.932-.734zm5.36-2.63a1.146 1.146 0 01-.472-.033 1.404 1.404 0 01-.427-.197c-.307-.231-.493-.625-.351-1.14.132-.494.482-.746.866-.789.164-.022.318-.011.471.032.165.044.307.11.439.209.307.23.482.624.35 1.129a1.048 1.048 0 01-.328.537c-.121.043-.198.12-.318.164-.077.022-.143.077-.23.088zm5.217-.373a1.302 1.302 0 01-.34-.318 1.51 1.51 0 01-.208-.427 1 1 0 01.427-1.096c.416-.318.844-.285 1.173-.088.131.088.252.208.35.329.099.131.165.274.198.427.098.373 0 .789-.417 1.107a1.022 1.022 0 01-.614.219c-.098-.032-.197-.043-.306-.076-.088-.022-.176-.022-.263-.077zm4.11 1.787c.142-.351.482-.636.997-.636.526 0 .855.285 1.008.636v.021c.055.132.077.285.077.45 0 .164-.033.329-.077.46-.153.362-.482.647-1.008.647-.438 0-.723-.23-.899-.515-.044-.066-.066-.143-.109-.209a1.131 1.131 0 01-.077-.383c0-.165.033-.318.088-.471zm1.918 4.449c-.165.088-.285.219-.417.362-.088-.745-.241-1.491-.515-2.181-.055-.132-.153-.252-.208-.384.087.011.131.077.219.077.877 0 1.436-.493 1.688-1.118.098-.23.142-.482.142-.734 0-.241-.033-.493-.131-.724l-.011-.021c-.252-.625-.811-1.096-1.688-1.096-.877 0-1.436.471-1.677 1.106-.055.121-.055.253-.077.373a6.8 6.8 0 00-1.885-1.304c.044-.033.099-.022.154-.066.701-.515.866-1.238.701-1.885a2.06 2.06 0 00-.877-1.195c-.559-.35-1.304-.416-2.016.11-.691.515-.866 1.238-.691 1.885.044.164.132.307.208.449-.339-.032-.646-.142-1.03-.142-.614 0-1.129.131-1.666.23.033-.077.099-.109.132-.208.219-.844-.099-1.513-.636-1.918a2.018 2.018 0 00-.679-.318 1.778 1.778 0 00-.757-.066c-.657.088-1.282.504-1.501 1.348-.23.844.098 1.513.635 1.918.088.066.209.099.318.154a7.063 7.063 0 00-1.556 1.282c-.011-.055.011-.088-.011-.142-.285-.833-.932-1.195-1.6-1.217a1.918 1.918 0 00-.745.11 2.152 2.152 0 00-.658.372c-.493.45-.767 1.14-.471 1.962.285.833.931 1.195 1.6 1.228.142 0 .285-.044.416-.077v.011c-.296.745-.438 1.534-.526 2.334-.087-.087-.098-.197-.219-.274-.723-.493-1.458-.405-2.006-.032a2.078 2.078 0 00-.548.526 2.283 2.283 0 00-.296.69c-.142.658.055 1.37.768 1.874.723.482 1.457.406 2.016.033.143-.099.241-.23.351-.351.099.548.252 1.096.46 1.623.022.054.066.098.088.153-.077-.011-.121-.066-.208-.077-.877-.022-1.458.439-1.721 1.052a1.917 1.917 0 00-.153.735c-.011.252.022.515.109.745.23.636.778 1.129 1.655 1.162.866.033 1.447-.439 1.721-1.052.044-.121.055-.242.077-.373a6.57 6.57 0 001.687 1.293c-.043.033-.087.022-.131.055-.734.471-.943 1.184-.811 1.841.055.252.153.483.296.691.131.219.318.405.515.548.548.383 1.293.482 2.028 0 .723-.493.931-1.206.8-1.852-.033-.165-.121-.307-.187-.45.472.077.899.197 1.414.197.362 0 .647-.098.976-.142-.044.088-.121.132-.165.23-.307.822-.044 1.513.461 1.962.186.164.405.307.646.395.23.076.482.12.734.12.669-.022 1.327-.383 1.623-1.195.306-.822.054-1.523-.45-1.961-.098-.099-.23-.143-.35-.209a6.917 6.917 0 001.928-1.326c.011.055-.021.099 0 .165.242.833.866 1.238 1.535 1.304.252.022.504 0 .745-.077.252-.066.482-.186.68-.34.526-.416.833-1.085.581-1.929-.242-.833-.866-1.249-1.524-1.304-.164-.022-.318.022-.46.044.055-.142.164-.263.219-.405.23-.57.384-1.173.482-1.787.066.088.077.175.165.252.69.537 1.435.504 2.016.164.209-.12.406-.295.559-.493.154-.197.285-.416.351-.668.197-.636.044-1.37-.636-1.896-.69-.548-1.425-.515-2.005-.176zm-6.215 2.258c-.274.68-.909 1.217-1.896 1.217-.975 0-1.611-.537-1.885-1.217a2.33 2.33 0 01-.164-.866c0-.296.054-.592.164-.866.274-.679.91-1.216 1.885-1.216.998 0 1.622.537 1.896 1.216.099.274.165.57.165.866 0 .296-.066.592-.165.866zm-1.896-3.693c-1.337 0-2.203.745-2.575 1.687-.143.362-.22.746-.22 1.14 0 .384.077.778.22 1.14.372.954 1.238 1.688 2.575 1.688 1.337 0 2.203-.734 2.576-1.688.153-.362.219-.756.219-1.14 0-.394-.066-.778-.219-1.14-.373-.942-1.239-1.687-2.576-1.687zm10.873 13.689a15.337 15.337 0 01-10.873 4.504 15.291 15.291 0 01-10.861-4.504 15.289 15.289 0 01-4.505-10.862c0-4.241 1.721-8.088 4.505-10.861a15.288 15.288 0 0110.861-4.505c4.242 0 8.089 1.721 10.873 4.505a15.337 15.337 0 014.504 10.861c0 4.242-1.732 8.089-4.504 10.862zm-10.873-26.973c-4.45 0-8.472 1.808-11.387 4.713a16.064 16.064 0 00-4.713 11.398c0 4.45 1.797 8.472 4.713 11.388a16.051 16.051 0 0011.387 4.723c4.45 0 8.483-1.808 11.388-4.723a16.055 16.055 0 004.723-11.388c0-4.45-1.808-8.483-4.723-11.398a16.07 16.07 0 00-11.388-4.713zm3.792 17.832c-.548 1.381-1.808 2.455-3.792 2.455-1.973 0-3.244-1.074-3.792-2.455a4.8 4.8 0 010-3.442c.548-1.37 1.819-2.444 3.792-2.444 1.984 0 3.244 1.074 3.792 2.444.22.538.329 1.129.329 1.721 0 .592-.109 1.184-.329 1.721zm-3.792-6.642c-2.323 0-3.825 1.282-4.472 2.926a5.214 5.214 0 00-.383 1.995c0 .68.12 1.359.383 1.995.647 1.644 2.149 2.915 4.472 2.915 2.335 0 3.825-1.271 4.483-2.915a5.415 5.415 0 00.372-1.995c0-.679-.12-1.359-.372-1.995-.658-1.644-2.148-2.926-4.483-2.926zm12.834 17.755a18.045 18.045 0 01-12.823 5.316c-5.02 0-9.557-2.028-12.845-5.316a18.07 18.07 0 01-5.316-12.834 18.07 18.07 0 015.316-12.834 18.097 18.097 0 0112.845-5.316c5.009 0 9.546 2.028 12.823 5.316a18.07 18.07 0 015.316 12.834 18.07 18.07 0 01-5.316 12.834zM356.32 125.41a18.858 18.858 0 00-13.371 5.535 18.833 18.833 0 00-5.535 13.36c0 5.217 2.115 9.941 5.535 13.36a18.858 18.858 0 0013.371 5.535c5.206 0 9.93-2.115 13.349-5.535a18.796 18.796 0 005.546-13.36c0-5.217-2.115-9.941-5.546-13.36a18.826 18.826 0 00-13.349-5.535zm99.693-21.262h-6.84c-.011 0-.043-.132-.076-.296-.011-.11-.033-.219-.033-.351 0-.131.022-.241.033-.351.033-.175.065-.296.076-.296h6.861c.011.011.011.022.011.033 0 .121.011.285.011.45.011.12.011.241.011.383 0 .241-.011.428-.054.428zm.778-1.261a.792.792 0 00-.22-.537l-.01-.022a.802.802 0 00-.548-.219h-6.84c-.449 0-.712.395-.8.91a2.312 2.312 0 00-.043.482c0 .164.01.329.043.482.088.515.351.91.8.91h6.84c.679 0 .8-.504.8-1.173l-.011-.416c0-.121-.011-.241-.011-.417zm9.25 1.261h-6.839c-.011 0-.044-.132-.077-.296-.011-.11-.022-.219-.022-.351 0-.131.011-.241.022-.351.033-.175.066-.296.077-.296h6.872c0 .011.011.022.011.033 0 .121 0 .285.011.45 0 .12.011.241.011.383 0 .241-.011.428-.066.428zm.789-1.261a.758.758 0 00-.23-.537l-.011-.022a.782.782 0 00-.548-.219h-6.839c-.449 0-.713.395-.8.91a2.312 2.312 0 00-.044.482c0 .164.011.329.044.482.087.515.351.91.8.91h6.839c.679 0 .8-.504.8-1.173l-.011-.416v-.417zm9.437-.033v.033c0 .121.011.285.022.45 0 .12.011.241.011.383 0 .241-.011.428-.066.428h-6.85s-.033-.132-.066-.296a1.934 1.934 0 010-.713c.033-.164.066-.296.066-.296h6.85c.011 0 .022.011.033.011zm-7.672.165a2.312 2.312 0 00-.044.482c0 .164.011.329.044.482.087.515.35.91.789.91h6.85c.679 0 .8-.504.8-1.173l-.011-.405c-.011-.132-.011-.263-.011-.428a.73.73 0 00-.219-.537l-.011-.011a.784.784 0 00-.548-.23h-6.85c-.439 0-.702.395-.789.91zm-20.43-3.003a1.812 1.812 0 01-.033-.351c0-.132.011-.252.033-.35.033-.176.055-.308.066-.308h6.85s.011.011.022.011c.011.011.011.022.011.033 0 .12.011.285.011.45 0 .12.011.23.011.383 0 .241-.011.428-.055.428h-6.85c-.011 0-.033-.132-.066-.296zm7.716-.132l-.022-.416v-.417a.782.782 0 00-.23-.548v-.01a.821.821 0 00-.548-.22h-6.85c-.439 0-.702.395-.789.899a2.51 2.51 0 00-.055.493c0 .164.022.318.055.482.087.515.35.91.789.91h6.85c.679 0 .8-.515.8-1.173zm-8.593-3.606a1.729 1.729 0 01-.033-.35c0-.132.011-.252.033-.351.022-.165.055-.307.066-.307h6.839c.022 0 .022.011.033.011.011.011.011.022.011.033 0 .12.011.285.011.45 0 .12.011.23.011.383 0 .241-.011.427-.066.427h-6.839c-.011 0-.044-.131-.066-.296zm7.716-.131l-.011-.406c-.011-.131-.011-.263-.011-.427a.778.778 0 00-.23-.548v-.011a.826.826 0 00-.559-.22h-6.839c-.438 0-.701.395-.789.9a2.51 2.51 0 00-.055.493c0 .164.022.318.055.482.088.515.351.91.789.91h6.839c.68 0 .811-.505.811-1.173zm-8.603-3.606a3.327 3.327 0 01-.022-.35c0-.132.011-.253.022-.351.043-.176.065-.296.076-.296h6.872c.011.01.011.022.011.032 0 .121.011.286.011.45 0 .12.011.241.011.383 0 .242-.011.428-.066.428h-6.839c-.011 0-.033-.132-.076-.296zm7.726-.132l-.011-.405c-.011-.132-.011-.263-.011-.428a.734.734 0 00-.23-.536v-.022a.824.824 0 00-.559-.22h-6.839c-.438 0-.701.395-.8.9a3.734 3.734 0 00-.044.492c0 .165.022.33.044.483.099.515.362.91.8.91h6.839c.68 0 .811-.505.811-1.174zm-8.603-4.307c.033-.175.066-.307.076-.307h6.84c.011 0 .021.011.032.022 0 0 .011.011.011.022 0 .12.011.285.011.45 0 .12.011.24.011.383 0 .241-.011.428-.065.428h-6.84c-.01 0-.043-.132-.076-.296a3.53 3.53 0 01-.022-.351c0-.12.011-.252.022-.35zm.076 1.743h6.84c.679 0 .8-.504.8-1.173l-.011-.405v-.428a.763.763 0 00-.23-.548v-.01a.837.837 0 00-.559-.231h-6.84c-.438 0-.701.406-.8.92a3.417 3.417 0 00-.043.483c0 .153.021.329.043.482.099.515.362.91.8.91zm-.953-5.48c.033-.165.066-.307.077-.307h6.839c.011 0 .022.01.033.022 0 0 .011.01.011.022 0 .12 0 .285.011.45 0 .12.011.24.011.383 0 .252-.011.427-.066.427h-6.839c-.011 0-.044-.131-.077-.296-.011-.11-.033-.23-.033-.35 0-.121.022-.242.033-.351zm.077 1.743h6.839c.679 0 .8-.505.8-1.173v-.406c-.011-.131-.011-.263-.011-.427a.782.782 0 00-.23-.548h-.011a.762.762 0 00-.548-.23h-6.839c-.45 0-.702.394-.8.91a2.315 2.315 0 00-.044.482c0 .153.011.317.044.482.098.515.35.91.8.91zm-.954-5.48c.033-.165.066-.296.077-.296h6.839c.011 0 .022 0 .033.01 0 0 .011.011.011.022 0 .121 0 .285.011.45 0 .12.011.24.011.394 0 .242-.011.417-.066.417h-6.839c-.011 0-.044-.132-.077-.296-.011-.11-.033-.23-.033-.35 0-.132.022-.253.033-.352zm.077 1.742h6.839c.679 0 .8-.504.8-1.162l-.011-.416c0-.132-.011-.263-.011-.428a.728.728 0 00-.219-.537l-.011-.01a.763.763 0 00-.548-.23h-6.839c-.449 0-.702.394-.8.909a2.384 2.384 0 00-.044.482c0 .165.011.318.044.482.098.516.351.91.8.91zm-.954-4.779c-.022-.11-.022-.219-.022-.35 0-.12 0-.241.022-.35.033-.165.066-.297.066-.297h6.872c.011.011.022.022.022.033 0 .12 0 .285.011.45v.383c0 .241 0 .428-.055.428h-6.85s-.033-.132-.066-.297zm7.716-.131l-.011-.405c0-.132-.011-.253-.011-.428a.787.787 0 00-.219-.548h-.011a.76.76 0 00-.548-.23h-6.85c-.438 0-.69.394-.789.91a2.314 2.314 0 00-.044.482c0 .153.011.329.044.482.099.515.351.91.789.91h6.85c.68 0 .8-.504.8-1.173zm-1.655-4.592c.011 0 .011.01.011.022 0 .12.011.285.022.46v.384c0 .23 0 .416-.055.416h-6.839c-.011 0-.044-.131-.065-.296a1.134 1.134 0 01-.044-.35c0-.121.011-.242.044-.351.021-.165.054-.296.065-.296h6.839c.011 0 .022 0 .022.01zm-7.661.153a2.385 2.385 0 00-.044.483c0 .164.011.328.044.482.088.515.351.91.8.91h6.839c.68 0 .8-.505.8-1.162l-.011-.417c0-.131-.011-.263-.011-.427a.725.725 0 00-.219-.537l-.011-.011a.759.759 0 00-.548-.23h-6.839c-.449 0-.712.394-.8.91zm6.795-3.89v.021c0 .12.011.296.022.46v.384c0 .241 0 .428-.054.428h-6.85s-.033-.143-.066-.307a1.807 1.807 0 01-.033-.35c0-.121.011-.242.033-.352.033-.164.066-.296.066-.296h6.85c.01 0 .021 0 .032.011zm-7.672.153a2.459 2.459 0 00-.043.482c0 .164.011.329.043.482.088.515.351.91.79.91h6.85c.679 0 .8-.504.8-1.162l-.011-.416c0-.132-.011-.263-.011-.428a.743.743 0 00-.22-.537l-.01-.01a.744.744 0 00-.548-.23h-6.85c-.439 0-.702.394-.79.909zm-.153-3.606c.033-.164.066-.296.066-.296h6.85c.011 0 .022.011.033.011v.022c0 .12.011.296.022.45v.394c0 .241 0 .427-.055.427h-6.85s-.033-.142-.066-.307c-.022-.098-.022-.219-.022-.35 0-.12 0-.241.022-.351zm.066 1.743h6.85c.679 0 .8-.505.8-1.162l-.011-.417c0-.131-.011-.252-.011-.427a.729.729 0 00-.219-.537l-.011-.011a.762.762 0 00-.548-.23h-6.85c-.439 0-.702.394-.789.91a2.314 2.314 0 00-.044.482c0 .164.011.329.044.493.087.504.35.899.789.899zm17.865 32.595a1.812 1.812 0 01-.033-.351c0-.132.011-.252.033-.35.032-.176.054-.308.065-.308h6.85c.011 0 .011.011.022.011.011.011.011.022.011.033 0 .12.011.285.011.45.011.12.011.23.011.383 0 .241-.011.428-.055.428h-6.85c-.011 0-.033-.132-.065-.296zm7.715-.132l-.011-.416c0-.12-.011-.252-.011-.417a.768.768 0 00-.219-.548l-.011-.01a.796.796 0 00-.548-.22h-6.85c-.438 0-.701.395-.789.899a2.51 2.51 0 00-.055.493c0 .164.022.318.055.482.088.515.351.91.789.91h6.85c.68 0 .8-.515.8-1.173zm-8.592-3.606a1.729 1.729 0 01-.033-.35c0-.132.011-.252.033-.351.033-.165.055-.307.066-.307h6.85c.01 0 .01.011.021.011.011.011.011.022.011.033 0 .12.011.285.022.45v.383c0 .241 0 .427-.054.427h-6.85c-.011 0-.033-.131-.066-.296zm7.716-.131l-.011-.406c0-.131-.011-.263-.011-.427a.769.769 0 00-.22-.548l-.01-.011a.821.821 0 00-.548-.22h-6.85c-.439 0-.702.395-.79.9a2.585 2.585 0 00-.054.493c0 .164.022.318.054.482.088.515.351.91.79.91h6.85c.679 0 .8-.505.8-1.173zm-1.655-4.603c.011.01.011.022.011.032 0 .121.011.286.011.45.011.12.011.241.011.383 0 .242-.011.428-.055.428h-6.85c-.011 0-.033-.132-.066-.296a1.807 1.807 0 01-.033-.35c0-.132.011-.253.033-.351.033-.176.055-.307.066-.307h6.85c.011 0 .011.01.022.01zm-7.661.164a2.313 2.313 0 00-.055.482c0 .154.022.33.055.483.087.504.35.91.789.91h6.85c.679 0 .8-.505.8-1.174l-.011-.405c0-.132-.011-.263-.011-.428a.754.754 0 00-.219-.547h-.011a.748.748 0 00-.548-.242h-6.85c-.439 0-.702.406-.789.921zm6.762-2.608h-6.85s-.033-.132-.066-.296a1.808 1.808 0 01-.033-.351c0-.12.011-.252.033-.35.033-.176.066-.297.066-.297h6.872c.011.011.011.022.011.033 0 .12.011.285.011.45.011.12.011.23.011.383 0 .241-.011.428-.055.428zm.778-1.26a.822.822 0 00-.219-.549h-.011a.782.782 0 00-.548-.23h-6.85c-.438 0-.702.395-.789.899a2.51 2.51 0 00-.055.493c0 .153.022.329.055.482.087.504.351.91.789.91h6.85c.679 0 .8-.504.8-1.173l-.011-.405c-.011-.132-.011-.263-.011-.428zm-1.655-2.478h-6.85s-.033-.131-.066-.296a1.808 1.808 0 01-.033-.35c0-.121.011-.242.033-.351.033-.165.066-.296.066-.296h6.872c0 .01.011.022.011.033 0 .12.011.296.011.45.011.12.011.23.011.383 0 .24-.011.427-.055.427zm.778-1.26a.817.817 0 00-.219-.548h-.011a.78.78 0 00-.548-.23h-6.85c-.438 0-.701.394-.8.91a3.418 3.418 0 00-.044.482c0 .153.022.328.044.482.099.515.362.91.8.91h6.85c.669 0 .8-.505.8-1.173l-.011-.406c-.011-.131-.011-.252-.011-.427zm-1.666-2.477h-6.839c-.011 0-.033-.12-.065-.296a1.727 1.727 0 01-.033-.35c0-.121.011-.253.033-.352.032-.175.054-.295.065-.295h6.839c.022 0 .033 0 .033.01 0 0 .011.011.011.022 0 .121.011.285.011.45.011.12.011.24.011.383 0 .252-.011.428-.066.428zm.789-1.26a.77.77 0 00-.219-.538l-.011-.01a.785.785 0 00-.559-.23h-6.839c-.438 0-.701.405-.8.909a3.571 3.571 0 00-.044.482c0 .165.022.329.044.482.099.516.362.91.8.91h6.839c.68 0 .811-.504.811-1.173l-.011-.405c-.011-.12-.011-.252-.011-.428zm-1.665-2.477h-6.839c-.011 0-.033-.121-.066-.297a1.653 1.653 0 01-.033-.35c0-.12.011-.241.033-.35.033-.176.055-.297.066-.297h6.839c.021 0 .032 0 .032.011 0 0 .011.011.011.022 0 .12.011.285.011.46.011.11.011.23.011.384 0 .23-.011.416-.065.416zm.789-1.26a.77.77 0 00-.22-.538l-.01-.01a.788.788 0 00-.559-.231h-6.839c-.45 0-.702.394-.801.91a3.739 3.739 0 00-.043.482c0 .164.022.329.043.482.099.515.351.91.801.91h6.839c.679 0 .8-.504.8-1.162v-.416c-.011-.132-.011-.253-.011-.428zm-1.633-3.76s.011.01.011.022c0 .12 0 .285.011.46.011.11.011.23.011.384 0 .23-.011.416-.066.416h-6.839c-.011 0-.044-.131-.066-.296a1.654 1.654 0 01-.033-.35c0-.121.011-.242.033-.351.022-.165.055-.296.066-.296h6.839c.011 0 .022 0 .033.01zm-7.672.153a3.573 3.573 0 00-.044.483c0 .164.022.328.044.482.098.515.35.91.8.91h6.839c.679 0 .8-.505.8-1.162l-.011-.417c0-.131-.011-.263-.011-.427a.728.728 0 00-.219-.537v-.011a.788.788 0 00-.559-.23h-6.839c-.45 0-.702.394-.8.91zm6.795-3.89s.011.01.011.021c0 .12 0 .296.011.46 0 .11.011.23.011.384 0 .241-.011.428-.066.428h-6.839c-.011 0-.033-.143-.077-.307-.022-.11-.022-.23-.022-.35 0-.121 0-.242.022-.352.044-.164.066-.296.077-.296h6.839c.011 0 .022 0 .033.011zm-7.672.153a2.386 2.386 0 00-.044.482c0 .164.011.329.044.482.098.515.351.91.8.91h6.839c.679 0 .8-.504.8-1.162l-.011-.416c0-.132-.011-.263-.011-.428a.747.747 0 00-.219-.537l-.011-.01a.762.762 0 00-.548-.23h-6.839c-.449 0-.702.394-.8.909zm-.154-3.606c.044-.164.066-.296.077-.296h6.839c.011 0 .022.011.022.011.011 0 .022.011.022.022 0 .12 0 .296.011.45 0 .12.011.24.011.394 0 .241-.011.427-.066.427h-6.839c-.011 0-.033-.142-.077-.307-.022-.098-.022-.219-.022-.35 0-.12 0-.241.022-.351zm.077 1.743h6.839c.68 0 .8-.505.8-1.162l-.011-.417c0-.131-.011-.252-.011-.427a.725.725 0 00-.219-.537l-.011-.011a.742.742 0 00-.548-.23h-6.839c-.449 0-.712.394-.8.91a2.314 2.314 0 00-.044.482c0 .164.011.329.044.493.088.504.351.899.8.899zm24.956 31.597c.011.011.011.022.011.033 0 .12.011.285.011.45.011.12.011.23.011.383 0 .241-.011.428-.055.428h-6.85c-.011 0-.033-.132-.066-.296a1.813 1.813 0 01-.032-.351c0-.132.01-.252.032-.362.033-.164.055-.296.066-.296h6.85s.011.011.022.011zm-7.661.154a2.51 2.51 0 00-.055.493c0 .164.022.318.055.482.088.515.351.899.789.899h6.85c.68 0 .8-.493.8-1.162l-.011-.416c-.011-.12-.011-.252-.011-.417a.768.768 0 00-.219-.548l-.011-.01a.77.77 0 00-.548-.22h-6.85c-.438 0-.701.395-.789.899zm6.784-3.891c.011.011.011.022.011.033 0 .12 0 .285.011.45 0 .12.011.23.011.383 0 .241-.011.427-.055.427h-6.85c-.011 0-.033-.131-.065-.296a1.808 1.808 0 01-.033-.35c0-.132.011-.252.033-.362.032-.164.054-.296.065-.296h6.85s.011.011.022.011zm-7.661.164a2.315 2.315 0 00-.055.483c0 .164.022.318.055.482.088.515.351.91.789.91h6.85c.68 0 .8-.505.8-1.173l-.021-.406v-.427a.818.818 0 00-.22-.548l-.011-.011a.778.778 0 00-.548-.23h-6.85c-.438 0-.701.405-.789.92zm6.784-3.901c.011.01.011.022.011.032 0 .121.011.286.011.45 0 .12.011.241.011.383 0 .242-.011.428-.054.428h-6.85c-.011 0-.033-.132-.066-.296a1.807 1.807 0 01-.033-.35c0-.132.011-.253.033-.351.033-.176.055-.307.066-.307h6.85s.011.01.021.01zm-7.661.164a2.382 2.382 0 00-.054.482c0 .154.022.33.054.483.088.504.351.91.79.91h6.85c.668 0 .8-.505.8-1.174l-.022-.405v-.428a.763.763 0 00-.23-.547h-.011a.707.707 0 00-.537-.242h-6.85c-.439 0-.702.406-.79.921zm6.785-3.89c.011 0 .011.01.011.021 0 .12 0 .285.011.45 0 .12.011.24.011.383 0 .241-.011.428-.055.428h-6.85c-.011 0-.044-.132-.077-.296a3.53 3.53 0 01-.022-.351c0-.132.011-.252.022-.35.033-.176.066-.297.077-.297h6.85c.011 0 .011 0 .022.011zm-7.672.142a3.73 3.73 0 00-.044.493c0 .164.022.329.044.482.087.504.361.91.8.91h6.85c.679 0 .8-.504.8-1.173l-.022-.405v-.428a.738.738 0 00-.23-.537v-.01a.782.782 0 00-.548-.231h-6.85c-.439 0-.713.395-.8.899zm6.795-3.891c0 .01.011.022.011.033 0 .12 0 .285.011.45 0 .12.011.24.011.383 0 .24-.011.427-.066.427h-6.839c-.011 0-.044-.131-.077-.296a3.53 3.53 0 01-.022-.35c0-.132.011-.252.022-.351.033-.175.066-.296.077-.296h6.872zm-7.672.164a3.418 3.418 0 00-.044.483c0 .164.022.328.044.482.098.515.362.91.8.91h6.839c.68 0 .8-.505.8-1.173l-.011-.406v-.427a.738.738 0 00-.23-.537v-.011a.788.788 0 00-.559-.23h-6.839c-.438 0-.702.394-.8.91zm6.795-3.901c0 .01.011.022.011.032 0 .121.011.285.011.45 0 .12.011.24.011.383 0 .242-.011.428-.066.428h-6.839c-.011 0-.044-.132-.077-.296a3.348 3.348 0 01-.022-.35c0-.121.011-.253.022-.352.033-.175.066-.295.077-.295h6.872zm-7.672.164a3.415 3.415 0 00-.044.482c0 .154.022.329.044.482.099.516.351.91.8.91h6.839c.68 0 .8-.504.8-1.173v-.405c-.011-.132-.011-.252-.011-.428a.734.734 0 00-.23-.537l-.011-.01a.76.76 0 00-.548-.23h-6.839c-.449 0-.701.394-.8.909zm6.795-3.902c0 .011.011.022.011.033 0 .12.011.285.011.45 0 .12.011.24.011.383 0 .241-.011.428-.066.428h-6.839c-.011 0-.044-.132-.076-.297a3.144 3.144 0 01-.022-.35c0-.12.011-.252.022-.35.032-.176.065-.297.076-.297h6.872zm-7.672.165a2.314 2.314 0 00-.044.482c0 .153.011.329.044.482.099.515.351.91.8.91h6.839c.68 0 .8-.504.8-1.173l-.01-.405c0-.132-.011-.253-.011-.428a.726.726 0 00-.22-.537v-.01a.784.784 0 00-.559-.231h-6.839c-.449 0-.701.394-.8.91zm6.795-3.891s.011.01.011.022v.46c.011.11.011.23.011.384 0 .23-.011.416-.054.416h-6.839c-.011 0-.044-.131-.077-.296a1.654 1.654 0 01-.033-.35c0-.121.011-.242.033-.351.033-.165.066-.296.077-.296h6.839c.011 0 .022 0 .032.01zm-7.672.153a2.458 2.458 0 00-.043.483c0 .164.011.328.043.482.099.515.351.91.801.91h6.839c.679 0 .8-.505.8-1.162l-.011-.417c0-.131-.011-.263-.011-.427a.728.728 0 00-.219-.537l-.011-.011a.762.762 0 00-.548-.23h-6.839c-.45 0-.702.394-.801.91zm6.785-3.89c.011 0 .022.01.022.021 0 .12 0 .296.011.46v.384c0 .241 0 .428-.055.428h-6.839c-.011 0-.044-.143-.077-.307-.011-.11-.033-.23-.033-.35 0-.121.022-.242.033-.352.033-.164.066-.296.077-.296h6.839c.011 0 .022 0 .022.011zm-7.661.153a2.386 2.386 0 00-.044.482c0 .164.011.329.044.482.087.515.35.91.8.91h6.839c.679 0 .8-.504.8-1.162l-.011-.416c0-.132-.011-.263-.011-.428a.747.747 0 00-.219-.537l-.011-.01a.762.762 0 00-.548-.23h-6.839c-.45 0-.713.394-.8.909zm-.154-3.606c.033-.164.066-.296.066-.296h6.85c.011 0 .022.011.022.011.011 0 .022.011.022.022v.45c.011.12.011.24.011.394 0 .241-.011.427-.055.427h-6.85s-.033-.142-.066-.307a1.653 1.653 0 01-.033-.35c0-.12.011-.241.033-.351zm.066 1.743h6.85c.679 0 .8-.505.8-1.162l-.011-.417c0-.131-.011-.252-.011-.427a.729.729 0 00-.219-.537l-.011-.011a.744.744 0 00-.548-.23h-6.85c-.438 0-.701.394-.789.91a2.314 2.314 0 00-.044.482c0 .164.011.329.044.493.088.504.351.899.789.899zm-23.915 1.589c.461.45.767 1.107.932 1.83l6.718 28.595c.033.175.055.34.055.515 0 .559-.208 1.096-.548 1.534-.34.417-.8.735-1.282.844a1.554 1.554 0 01-.395.044h-38.459V68.418h31.554c.592 0 1.064.23 1.425.592zm-33.34-1.337a.37.37 0 00-.373.372v34.7a.37.37 0 00.373.372h38.82c.197 0 .384-.021.57-.065.647-.154 1.239-.559 1.688-1.118a3.183 3.183 0 00.712-1.984c0-.22-.033-.45-.076-.68l-6.73-28.594c-.197-.844-.559-1.633-1.118-2.192h-.011a2.633 2.633 0 00-1.94-.811h-31.915zm-386.023 84.14c-.186.482-.625.844-1.304.844-.68 0-1.107-.362-1.294-.844a1.5 1.5 0 01-.11-.592c0-.208.034-.416.11-.603.187-.471.614-.833 1.293-.833.68 0 1.118.362 1.305.833v.011c.077.186.11.384.11.592 0 .208-.034.416-.11.592zm.855-.592c0-.285-.055-.581-.165-.855l-.01-.022c-.286-.734-.954-1.304-1.985-1.304-1.03 0-1.687.57-1.983 1.304a2.43 2.43 0 000 1.754c.296.734.953 1.293 1.983 1.293 1.03 0 1.7-.559 1.984-1.293.12-.285.176-.581.176-.877zm225.053-10.302c.175-.439.57-.779 1.205-.779.625 0 1.031.34 1.206.779a1.629 1.629 0 010 1.117c-.175.428-.581.768-1.206.768-.635 0-1.03-.34-1.205-.768a1.418 1.418 0 01-.11-.569c0-.187.033-.384.11-.548zm1.205 2.63c.976 0 1.612-.548 1.896-1.239.099-.274.154-.548.154-.843 0-.274-.055-.559-.154-.822-.284-.702-.92-1.25-1.896-1.25-.986 0-1.611.548-1.896 1.25a2.402 2.402 0 00-.164.822c0 .295.066.569.164.843.285.691.91 1.239 1.896 1.239zM221.61 69.832l.011-.011c.198-.482.658-.866 1.359-.866.713 0 1.173.384 1.37.877.077.197.11.416.11.636 0 .208-.033.427-.11.624l-.01.022c-.198.482-.647.855-1.36.855-.712 0-1.172-.383-1.37-.877a1.761 1.761 0 01-.109-.624c0-.22.033-.439.109-.636zm1.37 2.882c1.064 0 1.743-.58 2.05-1.326v-.022c.121-.285.186-.592.186-.898a2.36 2.36 0 00-.186-.91c-.296-.756-.975-1.348-2.05-1.348-1.052 0-1.742.58-2.038 1.326l-.011.022a2.349 2.349 0 00-.175.91c0 .306.054.613.175.898.296.757.986 1.348 2.049 1.348zm178.594 69.969c-.274.68-.899 1.217-1.885 1.217s-1.611-.537-1.885-1.217a2.517 2.517 0 01-.154-.866c0-.296.055-.592.154-.855.274-.69.899-1.216 1.885-1.216s1.611.526 1.885 1.216c.099.263.164.559.164.855 0 .307-.065.592-.164.866zm-1.885-3.682c-1.326 0-2.192.734-2.565 1.676a2.98 2.98 0 00-.219 1.14c0 .384.066.778.219 1.14.373.943 1.239 1.688 2.565 1.688 1.337 0 2.192-.745 2.576-1.688.142-.362.208-.756.208-1.14a3.19 3.19 0 00-.208-1.14c-.384-.942-1.239-1.676-2.576-1.676zm3.419 4.373c-.493 1.238-1.644 2.214-3.419 2.214-1.776 0-2.915-.976-3.42-2.214a4.415 4.415 0 01-.285-1.557c0-.526.099-1.063.285-1.556.505-1.228 1.644-2.203 3.42-2.203 1.775 0 2.926.975 3.419 2.203.198.493.285 1.03.285 1.556 0 .537-.087 1.063-.285 1.557zm-3.419-6.061c-2.126 0-3.496 1.172-4.099 2.674a5.034 5.034 0 00-.351 1.83c0 .625.121 1.25.351 1.831.603 1.501 1.973 2.674 4.099 2.674 2.137 0 3.507-1.173 4.099-2.674a4.786 4.786 0 00.362-1.831c0-.624-.121-1.238-.362-1.83-.592-1.502-1.962-2.674-4.099-2.674zm3.814 8.318a5.381 5.381 0 01-3.814 1.59 5.381 5.381 0 01-3.814-1.59 5.371 5.371 0 01-1.578-3.814c0-1.479.602-2.827 1.578-3.803a5.34 5.34 0 013.814-1.589 5.34 5.34 0 013.814 1.589h.022a5.385 5.385 0 01-.022 7.617zm.526-8.154a6.11 6.11 0 00-4.34-1.786 6.14 6.14 0 00-4.329 1.775l-.011.011a6.16 6.16 0 00-1.798 4.34 6.12 6.12 0 001.798 4.34 6.113 6.113 0 004.34 1.798c1.699 0 3.233-.68 4.34-1.798a6.075 6.075 0 001.798-4.34c0-1.677-.68-3.211-1.776-4.318l-.022-.022zm.658 9.338a7.08 7.08 0 01-4.998 2.061 7.035 7.035 0 01-4.987-2.061 7.041 7.041 0 01-2.071-4.998c0-1.951.789-3.715 2.071-4.987a6.998 6.998 0 014.987-2.071c1.951 0 3.715.789 4.998 2.071a7.034 7.034 0 012.06 4.987 7.078 7.078 0 01-2.06 4.998zm.515-10.511a7.745 7.745 0 00-5.513-2.29 7.794 7.794 0 00-5.502 2.279l-.011.011a7.78 7.78 0 00-.011 11.015l.011.022a7.816 7.816 0 005.513 2.28 7.751 7.751 0 005.513-2.28l.011-.011a7.777 7.777 0 002.279-5.513 7.789 7.789 0 00-2.279-5.513h-.011zm-323.847 8.472a1.32 1.32 0 01-.22.428 1.23 1.23 0 01-.36.307c-.33.186-.768.208-1.174-.11-.405-.329-.493-.745-.383-1.118.044-.153.12-.296.219-.416a1.2 1.2 0 01.35-.318c.34-.197.768-.208 1.184.121.406.317.483.745.384 1.106zm-3.551 2.466a7.468 7.468 0 01-.92 1.623c-.012.022-.023.022-.034.043a6.34 6.34 0 01-3.178 2.181c-.033.011-.066.033-.099.033a7.671 7.671 0 01-2.257.318 7.748 7.748 0 01-2.27-.318c-.032-.011-.076-.022-.12-.033-2.038-.646-3.408-2.104-4.11-3.847a8.07 8.07 0 01-.548-2.937c0-1.008.187-2.016.548-2.937.954-2.356 3.113-4.209 6.5-4.209 2.498 0 4.329 1.02 5.49 2.51h.012c.022.055.076.088.098.132.362.482.669 1.019.888 1.567.373.921.559 1.929.559 2.937a7.858 7.858 0 01-.559 2.937zm-.044 1.634a1.16 1.16 0 01.417-.22c.153-.043.317-.065.482-.043.383.032.734.274.888.767.142.515-.033.909-.33 1.14a1.146 1.146 0 01-.427.219 1.157 1.157 0 01-.47.055c-.384-.044-.746-.285-.9-.779a1.133 1.133 0 010-.635c.077-.088.11-.198.176-.285.054-.077.087-.165.164-.219zm-3.529 3.014c.154.065.296.142.406.241.284.263.438.668.252 1.161-.176.494-.56.702-.943.713a1.179 1.179 0 01-.471-.077 1.366 1.366 0 01-.406-.241c-.285-.263-.427-.669-.252-1.162a.983.983 0 01.8-.657c.066-.033.165-.022.23-.044.132.011.264.022.384.066zm-5.063.263l.021.011c.077.131.132.274.165.416.076.384-.044.8-.482 1.085-.439.285-.877.241-1.184.022a1.426 1.426 0 01-.34-.34 1.358 1.358 0 01-.175-.438c-.077-.384.044-.8.482-1.085a.934.934 0 01.811-.143c.132.055.252.121.406.154.11.087.219.186.296.318zm-4.231-2.214c-.153.35-.493.624-1.02.613-.525-.021-.843-.306-.975-.679a1.312 1.312 0 01-.077-.46c.011-.165.044-.318.1-.472.163-.35.503-.613 1.03-.602.525.01.843.306.975.668.055.143.076.307.076.471-.01.154-.043.318-.11.461zm-1.699-4.647a1.212 1.212 0 01-.329.339c-.328.209-.756.252-1.194-.043-.417-.296-.537-.713-.46-1.086a1.404 1.404 0 01.526-.778c.317-.208.756-.252 1.183.044.439.296.548.713.471 1.096a1.086 1.086 0 01-.197.428zm-.427-5.612c-.176-.482-.022-.899.263-1.151.12-.098.263-.186.416-.23a1.18 1.18 0 01.471-.077c.384.011.757.242.932.724.175.504.022.909-.263 1.162-.12.098-.263.175-.416.23a1.196 1.196 0 01-.472.076c-.383-.011-.756-.23-.931-.734zm5.37-2.63a1.195 1.195 0 01-.482-.033 1.54 1.54 0 01-.428-.197c-.306-.231-.493-.625-.35-1.14.131-.494.493-.746.865-.789a1.2 1.2 0 01.483.032c.153.044.296.11.427.209.307.23.493.624.35 1.129a.983.983 0 01-.328.537c-.11.043-.197.12-.318.164-.076.022-.142.077-.219.088zm5.217-.373a1.042 1.042 0 01-.34-.318 1.106 1.106 0 01-.208-.427c-.099-.373 0-.8.416-1.096.417-.318.855-.285 1.184-.088.132.088.241.208.34.329.099.131.175.274.208.427.099.373 0 .789-.427 1.107a.971.971 0 01-.603.219c-.099-.032-.208-.043-.307-.076-.088-.022-.186-.022-.263-.077zm4.1 1.787c.142-.351.481-.636 1.007-.636.516 0 .855.285.998.636v.021a1.228 1.228 0 010 .91c-.143.362-.482.647-.998.647a.988.988 0 01-.898-.515c-.055-.066-.077-.143-.12-.209a1.126 1.126 0 01-.067-.383c0-.165.022-.318.077-.471zm1.928 4.449a1.458 1.458 0 00-.416.362c-.088-.745-.242-1.491-.516-2.181-.054-.132-.153-.241-.219-.384.088.022.132.077.23.077.866 0 1.436-.493 1.688-1.118.088-.23.132-.482.132-.734 0-.241-.033-.493-.132-.724v-.021c-.252-.625-.822-1.096-1.688-1.096-.876 0-1.435.471-1.687 1.106-.055.121-.055.253-.077.373a6.81 6.81 0 00-1.885-1.304c.044-.033.11-.022.164-.066.702-.515.866-1.238.69-1.885a2.037 2.037 0 00-.317-.68 2.302 2.302 0 00-.56-.515c-.558-.35-1.303-.416-2.005.11-.701.515-.866 1.238-.701 1.885a1.7 1.7 0 00.219.449c-.35-.032-.658-.142-1.03-.142-.614 0-1.14.131-1.677.23.033-.077.11-.109.131-.208.22-.844-.098-1.513-.635-1.918a1.842 1.842 0 00-.68-.318 1.759 1.759 0 00-.756-.066c-.658.088-1.272.504-1.49 1.348-.23.844.098 1.513.624 1.918.099.066.22.099.318.154a7.078 7.078 0 00-1.556 1.282c-.011-.055.021-.088 0-.142-.296-.833-.943-1.195-1.612-1.217a1.92 1.92 0 00-.745.11 2.11 2.11 0 00-.646.372c-.505.45-.768 1.14-.483 1.962.296.833.943 1.195 1.611 1.228.143 0 .274-.044.417-.077v.011c-.307.745-.45 1.534-.526 2.334-.088-.087-.11-.197-.23-.274-.713-.493-1.458-.405-2.006-.032a2.025 2.025 0 00-.537.526 2.292 2.292 0 00-.307.69c-.142.658.055 1.37.767 1.874.724.482 1.469.406 2.028.033.131-.099.23-.23.35-.351.1.548.253 1.096.46 1.623.023.054.056.098.078.153-.077-.011-.11-.066-.198-.077-.877-.022-1.457.439-1.72 1.052a1.938 1.938 0 00-.165.735 1.9 1.9 0 00.12.745c.22.636.768 1.129 1.645 1.162.876.033 1.446-.439 1.72-1.052.055-.121.055-.242.088-.373a6.567 6.567 0 001.688 1.293c-.055.033-.099.022-.142.055-.735.471-.943 1.184-.8 1.841.043.252.153.483.284.691.143.219.318.405.526.548.548.383 1.283.482 2.017 0 .734-.493.932-1.206.8-1.852-.033-.165-.11-.307-.186-.45.471.077.899.197 1.425.197.35 0 .646-.098.975-.142-.044.088-.131.132-.164.23-.307.822-.044 1.513.45 1.962.185.164.405.307.646.395.23.076.493.12.745.12.668-.022 1.315-.383 1.622-1.195.296-.822.044-1.523-.45-1.961-.109-.099-.24-.143-.35-.209a7.252 7.252 0 001.929-1.326c0 .055-.022.099 0 .165.241.833.866 1.238 1.523 1.304.252.022.505 0 .757-.077.24-.066.47-.186.668-.34.526-.416.833-1.085.592-1.929-.252-.833-.877-1.249-1.534-1.304-.165-.022-.307.022-.46.044.065-.142.175-.263.23-.405a8.9 8.9 0 00.47-1.787c.078.088.078.175.176.252.68.537 1.425.504 2.006.164a2.04 2.04 0 00.92-1.161c.187-.636.044-1.37-.635-1.896-.69-.548-1.436-.515-2.006-.176zm-6.225 2.258c-.274.68-.899 1.217-1.896 1.217-.987 0-1.611-.537-1.885-1.217a2.338 2.338 0 01-.165-.866c0-.296.055-.592.165-.866.274-.679.898-1.216 1.885-1.216.997 0 1.622.537 1.896 1.216.11.274.164.57.164.866 0 .296-.055.592-.164.866zm-1.896-3.693c-1.337 0-2.192.745-2.565 1.687a2.943 2.943 0 000 2.28c.373.954 1.228 1.688 2.565 1.688 1.348 0 2.203-.734 2.586-1.688.143-.362.22-.756.22-1.14 0-.394-.077-.778-.22-1.14-.383-.942-1.238-1.687-2.586-1.687zm10.872 13.689a15.317 15.317 0 01-10.872 4.504 15.33 15.33 0 01-10.862-4.504 15.325 15.325 0 01-4.493-10.862c0-4.241 1.72-8.088 4.493-10.861a15.326 15.326 0 0110.862-4.505c4.252 0 8.088 1.721 10.872 4.505a15.288 15.288 0 014.505 10.861c0 4.242-1.721 8.089-4.505 10.862zm-10.872-26.973a16.106 16.106 0 00-11.388 4.713 16.113 16.113 0 00-4.713 11.398 16.09 16.09 0 004.713 11.388 16.073 16.073 0 0011.388 4.723 16.06 16.06 0 0011.398-4.723 16.045 16.045 0 004.713-11.388 16.093 16.093 0 00-16.111-16.111zm3.803 17.832c-.56 1.381-1.82 2.455-3.792 2.455-1.984 0-3.245-1.074-3.793-2.455a4.578 4.578 0 01-.328-1.721c0-.592.11-1.183.329-1.721.547-1.37 1.808-2.444 3.792-2.444 1.972 0 3.233 1.074 3.792 2.444a4.803 4.803 0 010 3.442zm-3.792-6.642c-2.335 0-3.825 1.282-4.483 2.926a5.428 5.428 0 00-.384 1.995c0 .68.132 1.359.384 1.995.658 1.644 2.148 2.915 4.483 2.915 2.323 0 3.825-1.271 4.471-2.915a5.425 5.425 0 00.384-1.995 5.43 5.43 0 00-.384-1.995c-.646-1.644-2.148-2.926-4.471-2.926zm12.834 17.755a18.09 18.09 0 01-12.834 5.316 18.117 18.117 0 01-12.846-5.316 18.107 18.107 0 01-5.304-12.834c0-5.009 2.028-9.557 5.305-12.834a18.117 18.117 0 0112.845-5.316 18.09 18.09 0 0112.834 5.316 18.116 18.116 0 015.316 12.834c0 5.02-2.04 9.546-5.316 12.834zM71.316 125.41a18.833 18.833 0 00-13.36 5.535 18.834 18.834 0 00-5.535 13.36c0 5.217 2.115 9.941 5.534 13.36a18.834 18.834 0 0013.36 5.535 18.83 18.83 0 0013.36-5.535 18.834 18.834 0 005.536-13.36c0-5.217-2.115-9.941-5.535-13.36a18.834 18.834 0 00-13.36-5.535zm475.939 11.179c-1.359-2.126-3.365-4.625-6.061-6.477-2.269-1.556-4.998-2.641-8.209-2.641h-4.088l-3.146-6.017h9.513c3.245 0 6.061 1.479 8.155 3.616 2.4 2.444 3.836 5.754 3.836 8.626v2.893zm-21.022-4.033c-.296.274-.602.548-.854.8l-5.502 4.768c.317-.8.504-1.655.504-2.565a6.943 6.943 0 00-6.949-6.949c-.91 0-1.775.187-2.576.505l7.333-8.494a4.757 4.757 0 011.348-1.151 4.076 4.076 0 012.104-.57 3.32 3.32 0 011.984.723c.34.285.647.636.91 1.085l3.737 7.146c1.052 1.831-.537 3.299-2.039 4.702zm-12.801 9.206a6.213 6.213 0 01-4.395-1.808 6.232 6.232 0 01-1.808-4.395c0-1.721.69-3.266 1.808-4.395a6.213 6.213 0 014.395-1.808c1.721 0 3.266.69 4.395 1.808a6.213 6.213 0 011.808 4.395c0 1.71-.69 3.266-1.808 4.395a6.213 6.213 0 01-4.395 1.808zm-21.745 8.44c.033-.033.099-.011.11-.055l2.334-9.47 12.626-6.959a6.877 6.877 0 00-.274 1.841c0 1.918.779 3.661 2.039 4.921 1.107 1.096 2.598 1.798 4.242 1.962l-21.153 8.176c.044-.131.044-.274.076-.416zm-1.852 1.863a4.877 4.877 0 01-3.463 1.425 4.867 4.867 0 01-3.475-1.425 4.991 4.991 0 01-1.019-1.502l-.055-.142a4.922 4.922 0 01-.372-1.83c0-1.359.548-2.587 1.446-3.475a4.885 4.885 0 013.475-1.446c1.348 0 2.575.558 3.463 1.446a4.896 4.896 0 011.436 3.475 4.913 4.913 0 01-1.436 3.474zm-11.212-9.371c-.011-.153-.011-.307-.022-.449l-.077-1.502v-.011a35.825 35.825 0 00-1.392-6.905c-.01 0 0-.011 0-.011l-.01-.032c-.548-1.754-1.261-3.431-2.05-5.064h12.22c.088.625.318 1.195.746 1.611l.011.011a2.782 2.782 0 001.983.833h5.667l-3.946 16.078c-.252-1.008-.679-1.95-1.392-2.663a5.634 5.634 0 00-3.989-1.655 5.643 5.643 0 00-4.001 1.655c-.876.877-1.381 2.072-1.534 3.365l-2.093-5.206c-.022-.055-.088-.022-.121-.055zm-5.885 19.882l-.976 1.534c-.033.066-.088.121-.131.175l-3.201.011 1.37-2.378 3.299.055c-.109.208-.23.405-.361.603zm3.792-8.418l-3.036 1.031.526-2.697 3.167-1.008-.361 1.48c-.099.405-.187.8-.296 1.194zm1.37-10.938l.054.965-2.619 1.852-.263-2.74 2.74-1.863c.055.592.077 1.194.088 1.786zm-1.535-9.338l-1.951 2.565-1.063-2.543 2.072-2.597.942 2.575zm-8.614 35.061c-.176.165-.362.318-.548.494l-3.738-1.217a.335.335 0 00-.372.077l-2.642 2.466a.409.409 0 00-.098.164.38.38 0 00.252.46l3.134.954a35.206 35.206 0 01-5.984 3.54l-3.145-2.367a.373.373 0 00-.373-.044l-3.299 1.479c-.044.033-.099.066-.142.121a.37.37 0 00.087.515l2.696 1.951c-1.885.592-3.858.997-5.874 1.26l-2.28-3.167a.393.393 0 00-.362-.175l-3.583.438a.293.293 0 00-.176.066.37.37 0 00-.077.515l1.995 2.663h-.088c-2.093 0-4.12-.219-6.104-.57l-1.217-3.737a.371.371 0 00-.285-.252l-3.54-.669a.592.592 0 00-.197 0 .393.393 0 00-.23.482l1.096 3.146a34.224 34.224 0 01-5.272-2.192l-.088-3.935a.391.391 0 00-.208-.328l-3.178-1.666a.431.431 0 00-.198-.044.376.376 0 00-.361.383l.142 3.321a35.299 35.299 0 01-4.209-3.419l1.02-3.803a.377.377 0 00-.099-.362l-2.586-2.488a.297.297 0 00-.187-.11.366.366 0 00-.438.274l-.8 3.223a35.227 35.227 0 01-3.639-5.393l2.17-3.321a.35.35 0 00.022-.372l-1.688-3.19a.342.342 0 00-.131-.142.372.372 0 00-.515.11l-1.743 2.794a32.773 32.773 0 01-1.71-5.852l3.058-2.51a.352.352 0 00.142-.351l-.657-3.551a.438.438 0 00-.088-.175.354.354 0 00-.515-.033l-2.499 2.115c-.044-.734-.109-1.469-.109-2.214 0-1.096.065-2.181.164-3.244l3.639-1.534a.378.378 0 00.241-.307l.372-3.584a.358.358 0 00-.021-.186.374.374 0 00-.494-.187l-3.014 1.337a35.822 35.822 0 011.754-5.6l3.946-.384a.39.39 0 00.306-.23l1.414-3.299c.033-.055.044-.132.033-.208a.353.353 0 00-.405-.318l-3.277.384a36.296 36.296 0 013.638-5.174l3.858.833a.378.378 0 00.362-.109l2.367-2.729a.38.38 0 00.088-.176.356.356 0 00-.296-.427l-3.211-.636a35.56 35.56 0 014.099-3.233l3.485 1.863c.11.077.263.077.384 0l3.036-1.962a.407.407 0 00.131-.142.393.393 0 00-.164-.504l-2.938-1.48a34.503 34.503 0 015.919-2.28l2.707 2.839a.34.34 0 00.373.11l3.474-.921a.606.606 0 00.186-.099.376.376 0 000-.526l-2.323-2.312c1.633-.241 3.299-.406 5.008-.406.472 0 .932.044 1.403.066l1.677 3.529c.055.11.176.197.307.208l3.606.187a.322.322 0 00.197-.044.36.36 0 00.154-.493l-1.469-2.916c1.776.296 3.496.724 5.173 1.283l.614 3.879a.387.387 0 00.252.285l3.398 1.173c.054.033.131.033.197.022a.358.358 0 00.296-.427l-.592-3.212a33.952 33.952 0 015.195 3.113l-.537 3.902a.388.388 0 00.153.34l2.883 2.148c.055.044.12.065.186.076a.373.373 0 00.417-.328l.383-3.256c.241.231.494.428.724.669a34.454 34.454 0 012.4 2.663l-1.523 3.65a.357.357 0 00.043.373l2.236 2.827a.33.33 0 00.154.121.363.363 0 00.482-.208l1.205-3.047a33.285 33.285 0 012.357 4.461l-2.466 3.09a.37.37 0 00-.055.384l1.381 3.321c.022.065.066.12.121.153a.37.37 0 00.526-.066l1.994-2.619a34.103 34.103 0 011.14 5.798l-3.255 2.225a.365.365 0 00-.175.35l.34 3.595c0 .066.021.132.065.176a.36.36 0 00.515.087l2.686-1.896a34.176 34.176 0 01-.57 5.535l-3.76 1.195a.373.373 0 00-.252.285l-.701 3.54a.4.4 0 00.011.197c.077.186.274.296.471.23l3.135-1.074a34.288 34.288 0 01-2.707 6.225l-3.924-.076a.38.38 0 00-.362.186l-1.786 3.135a.358.358 0 00-.055.175.37.37 0 00.373.373l3.277-.011c-1.02 1.381-2.105 2.696-3.321 3.912zm-1.502 1.37l-1.447 1.239c-.109.077-.219.153-.328.241l-3.047-.932 2.016-1.874 3.124 1.019c-.099.099-.208.209-.318.307zm-10.806 6.543c-.34.132-.68.253-1.031.373l-2.575-1.874 2.51-1.118 2.652 1.995-1.556.624zm-10.106 2.171c-.405.021-.811.054-1.227.065l-1.907-2.542 2.74-.329 1.929 2.696-1.535.11zm-10.686-.976c-.372-.099-.756-.175-1.128-.285l-1.053-3.014 2.708.515 1.03 3.157-1.557-.373zm-10.532-7.683l2.433 1.272.077 3.32-1.502-.876c-.285-.176-.592-.351-.866-.537l-.142-3.179zm-6.653-2.564c-.23-.253-.46-.494-.679-.746l.767-3.091 1.984 1.908-.866 3.2-1.206-1.271zM411 157.753l1.698-2.729 1.294 2.422-1.82 2.773a6.419 6.419 0 01-.131-.252L411 157.753zm-20.627-3.211c.011-.011.022-.011.022-.022l.307-1.249c.175-.68.361-1.349.504-2.05l.044-.175c.011-.033 0-.077 0-.11.087-.482.142-.964.219-1.458.373.395.734.8 1.151 1.14a11.191 11.191 0 007.102 2.477c2.532 0 5.052-.844 7.102-2.521.405-.339.767-.756 1.14-1.15 0 .032.011.076.011.12l.197 1.392c0 .022.022.044.033.077a35.083 35.083 0 002.038 6.85s-.011.011-.011.022l.055.12c.307.713.647 1.392.987 2.083h-23.115c.877-1.776 1.644-3.617 2.214-5.546zm-4.45 8.034l-.975 1.534a2.215 2.215 0 01-.132.175l-3.189.011 1.359-2.378 3.31.055c-.132.208-.252.405-.373.603zm3.792-8.418l-3.036 1.031.537-2.697 3.157-1.008-.351 1.458c-.098.405-.197.811-.307 1.216zm-8.779 14.785c-.175.165-.361.318-.548.494l-3.737-1.217a.337.337 0 00-.373.077l-2.641 2.466a.41.41 0 00-.099.164.382.382 0 00.252.46l3.135.954a35.206 35.206 0 01-5.984 3.54l-3.135-2.367a.399.399 0 00-.383-.044l-3.288 1.479a.42.42 0 00-.154.121.37.37 0 00.088.515l2.696 1.951c-1.896.592-3.869.997-5.875 1.26l-2.279-3.167c-.066-.121-.208-.186-.362-.175l-3.584.438a.247.247 0 00-.175.066.369.369 0 00-.077.515l1.995 2.663h-.099c-2.082 0-4.11-.219-6.094-.57l-1.216-3.737a.373.373 0 00-.285-.252l-3.551-.669a.533.533 0 00-.187 0 .405.405 0 00-.23.482l1.096 3.146a34.336 34.336 0 01-5.282-2.192l-.077-3.935a.393.393 0 00-.208-.328l-3.179-1.666a.427.427 0 00-.197-.044c-.208.011-.373.175-.362.383l.143 3.321a35.14 35.14 0 01-4.209-3.419l1.019-3.803a.38.38 0 00-.098-.362l-2.587-2.488a.3.3 0 00-.175-.11.373.373 0 00-.45.274l-.8 3.223a35.221 35.221 0 01-3.638-5.393l2.17-3.321a.354.354 0 00.022-.372l-1.688-3.19a.337.337 0 00-.132-.142.372.372 0 00-.515.11l-1.742 2.794a34.54 34.54 0 01-1.721-5.852l3.08-2.51a.365.365 0 00.12-.351l-.647-3.551a.578.578 0 00-.076-.175.38.38 0 00-.537-.033l-2.488 2.115c-.044-.734-.11-1.469-.11-2.214 0-1.096.066-2.181.165-3.244l3.638-1.534a.347.347 0 00.23-.307l.384-3.584a.348.348 0 00-.022-.186.373.373 0 00-.493-.187l-3.014 1.337a35.611 35.611 0 011.754-5.6l3.945-.384a.39.39 0 00.307-.23l1.414-3.299a.417.417 0 00.044-.208c-.033-.208-.209-.351-.417-.318l-3.277.384a36.302 36.302 0 013.639-5.174l3.858.833a.387.387 0 00.362-.109l2.367-2.729a.299.299 0 00.088-.176.356.356 0 00-.296-.427l-3.212-.636a35.732 35.732 0 014.099-3.233l3.475 1.863c.12.077.274.077.394 0l3.036-1.962a.4.4 0 00.132-.142.383.383 0 00-.165-.504l-2.937-1.48a34.492 34.492 0 015.918-2.28l2.708 2.839a.35.35 0 00.383.11l3.464-.921a.51.51 0 00.186-.099.378.378 0 000-.526l-2.324-2.312c1.644-.241 3.299-.406 4.998-.406.482 0 .943.044 1.414.066l1.666 3.529c.066.11.175.197.318.208l3.606.187a.278.278 0 00.186-.044.355.355 0 00.164-.493l-1.468-2.916c1.775.296 3.507.724 5.173 1.283l.625 3.879a.369.369 0 00.241.285l3.386 1.173a.345.345 0 00.209.022c.208-.033.328-.219.295-.427l-.58-3.212a34.382 34.382 0 015.184 3.113l-.526 3.902a.353.353 0 00.142.34l2.883 2.148c.054.044.12.065.197.076a.368.368 0 00.405-.328l.373-3.256c.252.22.504.428.734.669a32.876 32.876 0 012.401 2.674l-1.535 3.639a.383.383 0 00.055.373l2.236 2.827a.364.364 0 00.636-.087l1.216-3.047c.877 1.425 1.677 2.904 2.346 4.461l-2.466 3.09a.37.37 0 00-.055.384l1.381 3.321c.022.065.065.12.12.153.165.132.406.099.515-.066l2.006-2.619c.537 1.885.943 3.814 1.151 5.798l-3.266 2.225a.364.364 0 00-.176.35l.34 3.595a.373.373 0 00.592.263l2.674-1.896a34.064 34.064 0 01-.57 5.535l-3.759 1.195a.355.355 0 00-.252.285l-.701 3.54a.412.412 0 00.01.197.381.381 0 00.472.23l3.134-1.074a34.218 34.218 0 01-2.707 6.225l-3.923-.076a.364.364 0 00-.351.186l-1.798 3.135a.357.357 0 00-.054.175.37.37 0 00.372.373l3.277-.011c-1.019 1.381-2.104 2.696-3.321 3.912zm-1.479 1.348l-1.48 1.261c-.109.088-.219.153-.318.241l-3.047-.932 2.017-1.874 3.135 1.019c-.11.099-.209.198-.307.285zm-10.829 6.565c-.34.132-.679.253-1.03.373l-2.587-1.874 2.51-1.118 2.664 1.995-1.557.624zm-10.105 2.171c-.405.021-.811.054-1.227.065l-1.897-2.542 2.73-.329 1.929 2.696-1.535.11zm-10.675-.965c-.384-.099-.756-.186-1.14-.296l-1.052-3.014 2.707.515 1.03 3.157-1.545-.362zm-10.544-7.694l2.434 1.272.076 3.32-1.479-.865c-.296-.176-.603-.351-.899-.548l-.132-3.179zm-6.652-2.564c-.23-.253-.461-.494-.68-.746l.767-3.091 1.984 1.908-.866 3.2-1.205-1.271zm-6.478-10.051l1.721-2.729 1.282 2.422-1.819 2.773c-.022-.033-.044-.077-.066-.12l-1.118-2.346zm-2.279-8.351l-.252-1.82c0-.055 0-.087-.011-.131l2.444-2.072.493 2.707-2.554 2.094c-.044-.263-.087-.515-.12-.778zm.131-11.026c.044-.285.077-.581.121-.877l2.948-1.304-.296 2.729-3.058 1.282.285-1.83zm3.639-10.62l3.2-.384-1.085 2.532-3.31.318 1.195-2.466zm-8.943 2.816v-9.831h12.965l-.329.34c-.021.033-.043.066-.054.11-1.59 1.863-3.025 3.879-4.209 6.049h-.011l-.022.044a40.841 40.841 0 00-1.545 3.201v.011c-.011.022-.022.054-.033.076h-6.762zm-.746 6.489h-2.159v-3.036h2.159v3.036zm-16.79 0h-2.16v-3.036h2.16v3.036zm-30.776-29.012c-14.884-13.491-25.8-23.355-39.467-23.509l-1.633-8.286.405-.076a.373.373 0 00.307-.428c-.241-1.424-.482-2.86-.723-4.296 16.264.11 25.306 6.5 45.462 20.78l23.531 16.67v6.226H281.66a.369.369 0 00-.372.372v4.055l-4.976-4.405c-2.773-2.466-5.392-4.834-7.902-7.103zm-35.39 9.459l-.548.175-8.352-40.87 2.466-.427 8.078 41.078a2.924 2.924 0 00-1.644.044zm2.882 2.937c-.054.735-.493 1.425-1.424 1.721l-4.253 1.337v-4.34l3.014-.954c.932-.285 1.688.033 2.148.592a2.315 2.315 0 01.515 1.644zm3.223 7.683h-77.586v-3.463h77.586v3.463zm-1.239 8.078h-1.797c-.537-1.688-1.568-3.157-3.245-4.176l-.021-.011c-1.612-.964-3.76-1.534-6.478-1.534h-31.937c-2.302 0-4.943.822-7.004 1.972-1.962 1.085-3.364 2.477-3.595 3.749h-22.27v-7.343h76.347v7.343zm2.389-5.349l6.807 9.525c.164.284.252.668.252 1.063 0 .471-.11.975-.351 1.424-.23.45-.57.844-1.03 1.118-.384.22-.855.362-1.414.362h-5.25l1.217-4.779c.109-.405.164-.789.164-1.128 0-.537-.132-.998-.395-1.37-.263-.362-.657-.614-1.15-.757-.154-.033-.329-.033-.494-.054v-5.404h1.644zm19.794 7.979v5.513h-13.481c.428-.329.822-.69 1.053-1.14a3.83 3.83 0 00.438-1.764c0-.526-.121-1.042-.362-1.447l-.833-1.162h13.185zm-23.772-1.885h1.951c.263 0 .482.033.679.077.329.087.581.252.746.482.164.23.252.548.252.932 0 .274-.044.591-.143.942l-1.348 5.316c0 .011-.022.011-.022.022s.022.011.022.011l-.526 2.038a415.862 415.862 0 00-1.611-9.82zm.69 23.904c-.975 1.403-2.564 2.619-5.019 3.354l-2.543-14.007-.241-1.305c-.274-1.49-.537-2.882-.932-4.186.011-.033.066-.022.066-.066 0-.055-.088-.055-.121-.11-.865-2.805-2.389-5.107-6.093-6.554-1.513-.581-3.354-1.03-5.634-1.326-2.269-.296-4.954-.449-8.165-.449h-23.75c.263-1.009 1.49-2.148 3.211-3.102 1.962-1.085 4.461-1.874 6.642-1.874h31.937c2.576 0 4.603.526 6.094 1.425l.022.011c1.6.964 2.597 2.356 3.036 4l2.849 17.985c.231 1.875.033 4.231-1.359 6.204zm-11.003 6.565c-1.151.362-2.423.603-3.869.745 0-.022.022-.033.022-.044.076-.197.12-.394.12-.591a1.61 1.61 0 00-.12-.603c-.198-.504-.658-.899-1.359-.899h-2.993v-.548h.296c.296.011.614.022.866.022 2.017 0 4.329-.329 4.329-3.146v-3.496h3.661a.377.377 0 00.373-.373v-5.808a.384.384 0 00-.373-.373h-3.661v-2.181c0-2.817-2.312-3.146-4.329-3.146-.252 0-.57.011-.866.011-.098.011-.197.011-.296.011v-1.983h9.788c.361 1.249.624 2.586.877 4.011.953 5.162 1.863 10.313 2.816 15.476-1.742 1.304-3.375 2.279-5.282 2.915zm-10.336.427a.819.819 0 010-.646c.099-.241.318-.428.68-.428h4.45c.361 0 .58.187.679.428.033.098.055.208.055.329 0 .109-.022.208-.055.317-.088.231-.307.384-.625.406-.657.033-1.359.033-2.115.022h-2.389c-.362 0-.581-.187-.68-.428zm-1.655-18.522a24.937 24.937 0 00-.416-.954l-.296-.624h3.759v1.578h-3.047zm8.549 3.354v.405h-4.757v-5.337l.318-.011c.241 0 .493-.011.844-.011 1.666 0 3.595.252 3.595 2.4v2.554zm.734 5.03v-4.658h3.288v5.064h-3.288v-.406zm-5.491-3.88h4.757v3.519h-4.757v-3.519zm0 4.253h4.757v4.274c0 2.149-1.929 2.401-3.595 2.401-.351 0-.603 0-.844-.011h-.318v-6.664zm-2.214-15.3h5.963v1.501h-5.963v-1.501zM99.757 122.999l-.68-.943a.205.205 0 00-.065-.043c-.537-.68-1.118-1.305-1.71-1.94h108.614v3.858H100.447c-.219-.318-.46-.614-.69-.932zm1.173 39.566l-.976 1.545c-.044.066-.098.121-.142.175l-3.19.011 1.37-2.378 3.299.055c-.12.197-.241.405-.361.592zm3.781-8.407l-3.036 1.031.537-2.697 3.167-1.008-.361 1.469c-.099.405-.198.811-.307 1.205zm1.425-9.973l-2.62 1.852-.252-2.74 2.729-1.863c.055.613.077 1.227.099 1.841l.044.91zm-1.59-10.303l-1.95 2.565-1.064-2.543 2.083-2.597.931 2.575zm-4.175-8.757c.033.044.054.088.087.132l-1.183 2.981-1.71-2.159 1.293-3.047c.12.153.23.329.35.482l1.163 1.611zm-4.428 43.818c-.175.165-.373.318-.548.494l-3.748-1.217a.323.323 0 00-.362.077l-2.641 2.466a.316.316 0 00-.1.164.365.365 0 00.242.46l3.135.954a34.781 34.781 0 01-5.985 3.54l-3.134-2.367a.38.38 0 00-.373-.044l-3.299 1.479a.534.534 0 00-.153.121.38.38 0 00.087.515l2.708 1.951c-1.897.592-3.87.997-5.886 1.26l-2.28-3.167c-.066-.121-.208-.186-.361-.175l-3.573.438a.297.297 0 00-.187.066.369.369 0 00-.076.515l1.994 2.663h-.098c-2.072 0-4.1-.219-6.094-.57l-1.217-3.737a.357.357 0 00-.274-.252l-3.55-.669a.594.594 0 00-.198 0 .377.377 0 00-.22.482l1.097 3.146a33.916 33.916 0 01-5.283-2.192l-.088-3.935a.381.381 0 00-.197-.328l-3.19-1.666a.4.4 0 00-.197-.044.36.36 0 00-.35.383l.131 3.321a35.192 35.192 0 01-4.208-3.419l1.03-3.803a.378.378 0 00-.099-.362l-2.597-2.488a.301.301 0 00-.176-.11.383.383 0 00-.449.274l-.8 3.223a35.24 35.24 0 01-3.639-5.393l2.181-3.321a.405.405 0 00.022-.372l-1.699-3.19a.242.242 0 00-.131-.142.36.36 0 00-.504.11l-1.754 2.794a34.624 34.624 0 01-1.71-5.852l3.07-2.51a.369.369 0 00.13-.351l-.657-3.551a.408.408 0 00-.077-.175.367.367 0 00-.526-.033l-2.488 2.115c-.055-.734-.11-1.469-.11-2.214 0-1.096.055-2.181.154-3.244l3.65-1.534a.349.349 0 00.23-.307l.384-3.584a.507.507 0 00-.033-.186c-.088-.187-.296-.274-.483-.187l-3.025 1.337a34.634 34.634 0 011.765-5.6l3.946-.384a.39.39 0 00.307-.23l1.413-3.299a.596.596 0 00.033-.208.358.358 0 00-.416-.318l-3.266.384a35.445 35.445 0 013.638-5.174l3.847.833a.37.37 0 00.362-.109l2.378-2.729a.372.372 0 00.077-.176c.033-.197-.087-.394-.285-.427l-3.222-.636c1.293-1.162 2.652-2.258 4.099-3.233l3.485 1.863c.12.077.274.077.395 0l3.025-1.962a.321.321 0 00.131-.142c.099-.175.022-.406-.164-.504l-2.937-1.48a34.597 34.597 0 015.929-2.28l2.696 2.839c.088.11.241.154.384.11l3.474-.921a.708.708 0 00.175-.099.358.358 0 000-.526l-2.312-2.312c1.633-.241 3.299-.406 4.987-.406.482 0 .942.044 1.413.066l1.677 3.529c.055.11.176.197.318.208l3.606.187c.055.011.12-.011.186-.044a.373.373 0 00.165-.493l-1.469-2.916a33.84 33.84 0 015.162 1.283l.625 3.879c.022.121.11.242.241.285l3.398 1.173a.309.309 0 00.197.022.35.35 0 00.296-.427l-.58-3.212a34.477 34.477 0 015.194 3.113l-.537 3.902a.354.354 0 00.143.34l2.882 2.148a.39.39 0 00.197.076.362.362 0 00.406-.328l.383-3.256c.242.22.505.428.735.669a36.947 36.947 0 012.4 2.663l-1.534 3.65a.337.337 0 00.055.373l2.235 2.827a.284.284 0 00.154.121.367.367 0 00.482-.208l1.206-3.047c.876 1.425 1.687 2.904 2.356 4.461l-2.477 3.09a.396.396 0 00-.055.384l1.381 3.321c.033.065.066.12.132.153a.357.357 0 00.515-.066l2.006-2.619c.526 1.885.931 3.814 1.139 5.798l-3.255 2.225a.373.373 0 00-.186.35l.34 3.595a.328.328 0 00.076.176c.11.175.351.208.516.087l2.674-1.896a35.334 35.334 0 01-.559 5.535l-3.77 1.195a.36.36 0 00-.242.285l-.712 3.54a.405.405 0 00.022.197.376.376 0 00.471.23l3.135-1.074a35.072 35.072 0 01-2.707 6.225l-3.935-.076a.364.364 0 00-.35.186l-1.798 3.135c-.022.054-.055.12-.055.175 0 .208.175.373.373.373l3.288-.011a35.324 35.324 0 01-3.321 3.912zm-1.49 1.348l-1.48 1.261c-.11.088-.209.153-.318.241l-3.036-.932 2.006-1.874 3.134 1.019c-.099.099-.197.198-.307.285zm-10.83 6.565c-.339.132-.679.253-1.019.373l-2.586-1.874 2.51-1.118 2.652 1.995-1.556.624zm-10.104 2.171c-.406.021-.811.054-1.217.065l-1.907-2.542 2.73-.329 1.928 2.696-1.534.11zm-10.675-.965c-.373-.099-.757-.186-1.13-.296l-1.051-3.014 2.696.515 1.03 3.157-1.545-.362zm-10.533-7.694l2.433 1.272.066 3.32-1.49-.865c-.297-.187-.593-.351-.877-.548l-.132-3.179zm-6.653-2.564c-.23-.253-.46-.494-.68-.746l.768-3.091 1.973 1.908-.866 3.2-1.195-1.271zm-6.477-10.051l1.71-2.729 1.282 2.422-1.82 2.773a.664.664 0 01-.076-.153l-1.096-2.313zm-26.348 4.494l-.263-4.165 5.074-2.663h.011l18.161-9.492c.022.45.033.921.077 1.381 0 .022-.033.033-.033.055l.044.285c.01.164.033.329.044.493l-23.115 14.106zm-11.76 7.957c.044-.187.077-.384.12-.592.121-.745.198-1.611.209-2.367v-34.119c0-.406.164-.778.427-1.052h.011a1.532 1.532 0 011.052-.439h5.995c.417 0 .746.11.976.307.208.198.34.494.372.899l.318 5.184v.022l1.568 24.649-11.048 7.508zm11.574-34.996v2.631l-1.37-.154-.165-2.663 1.535.186zm1.085-5.491l3.792-.35.274.153v17.942c-.186-.099-.329-.23-.537-.285l-.011-.011c-1.392-.373-2.773-1.568-3.858-3.124v-14.346c.11 0 .22.032.34.021zm-2.576-2.005a2.984 2.984 0 01-.307-1.052 3.098 3.098 0 01.11-1.107c.274-.91 1.008-1.666 2.236-1.776l21.142-1.907v5.195l-16.2 1.502-4.734.361c-1.085 0-1.874-.482-2.247-1.216zm25.877 10.587c.044-.263.076-.537.12-.8l2.938-1.304-.285 2.729-3.058 1.282.285-1.907zm-17.47 10.763a3.76 3.76 0 00-1.03-1.206v-8.625l17.36 1.907a37.813 37.813 0 00-.154 3.167c0 .274.033.526.033.8l-16.44 8.604c.197-.351.428-.691.537-1.074a5.22 5.22 0 00.187-1.83 4.76 4.76 0 00-.494-1.743zm1.5-17.755l-.668 1.161a.372.372 0 00.132.505l1.929 1.107-.658 1.391-3.266-.361v-5.184l2.532 1.381zm.374-.636l-2.598-1.425 3.617-.34-1.02 1.765zm7.617-2.378l5.283 2.093v6.444l-7.026-.767-1.118-.12c.154-.318.318-.68.439-.899.274-.57.427-.877.493-1.184.077-.361.033-.646-.066-1.249-.033-.208-.077-.46-.131-.789a.365.365 0 00-.264-.307l-1.567-.449a.375.375 0 00-.307.043l-1.183.691a.366.366 0 00-.154.164l-.69 1.447-1.535-.888 2.127-3.704 5.699-.526zm5.283 1.293l-3.64-1.436 3.64-.34v1.776zm-10.259 2.795l.964-.559 1.195.34.088.569c.087.505.131.757.076.976-.043.219-.186.482-.438 1.008a29.52 29.52 0 00-.373.778h-.01l-.176.362-2.828-.307 1.502-3.167zm12.144 6.28c-.088.581-.198 1.151-.263 1.742l-17.427-1.918v-2.63l3.595.395 3.463.372.658.066.986.121 7.431.811c.011 0 .011-.022.022-.022s0 .022.011.022h1.688l-.164 1.041zm-23.575 4.165c-.746-1.381-1.228-2.916-1.316-4.384l1.316.153v4.231zm-.132 14.445l-.942-14.95c.284.636.591 1.25.975 1.831 1.206 1.841 2.839 3.277 4.494 3.726l.01.011c.866.241 1.48.811 1.842 1.513.241.438.373.942.416 1.457.044.526 0 1.063-.153 1.579-.274.953-.899 1.83-1.852 2.323l-4.79 2.51zm24.386-7.858l-.263-1.842v-.12l2.433-2.072.504 2.707-2.564 2.094a21.456 21.456 0 01-.11-.767zm3.76-21.657l3.2-.384-1.085 2.532-3.3.318 1.184-2.466zm5.03-6.993l1.36-1.425c.065-.065.13-.12.207-.186l3.124.614-1.808 2.071-3.223-.701.34-.373zm-10.61-26.995a4.06 4.06 0 011.195-2.882 4.04 4.04 0 012.883-1.195h12.067v25.252a36.117 36.117 0 00-4.318 3.529c-.022.011-.055 0-.066.022l-.296.307c-.132.121-.263.23-.384.351-.361.362-.69.756-1.04 1.129l-.757.8c-.033.033-.044.066-.066.11a35.714 35.714 0 00-4.209 6.049l-.021.044a34.37 34.37 0 00-1.546 3.201l-.01.011a35.886 35.886 0 00-1.984 6.378h-1.447V93.769zm20.364.702h-1.14v-5.107l1.14-.132v5.239zm.746-18.39c.153 0 .307 0 .45.01.273 0 .503 0 .745.011v12.155l-1.195.131V76.08zm-1.852-.91l-.011-.012a.48.48 0 01-.154-.361c0-.493-.01-1.009-.022-1.447-.022-1.15-.033-1.71.197-1.896.253-.208.921-.186 2.258-.164.57.021 1.26.032 1.962.032.143 0 .263.055.362.143v.01c.099.089.153.22.153.363 0 .493.011 1.019.022 1.446.033 1.151.033 1.71-.186 1.896-.165.132-.581.165-1.14.165-.01 0-.01-.033-.033-.033h-1.929c-.01 0-.01.022-.01.022-.373-.011-.713-.022-1.108-.022a.514.514 0 01-.361-.143zm3.047 19.673v2.652H56.19v-8.352l1.194-.142v5.842zm-1.568 3.386h1.93c.207 0 .383-.153.383-.361v-2.653h1.107v4.362h-4.932v-4.362h1.14v2.653a.36.36 0 00.372.361zm-3.847 16.232V89.637l1.59-.187v24.058a36.38 36.38 0 00-1.097.668l-.493.285zm3.157-.986l2.882 1.446-2.312 1.502-2.927-1.567.066-.044 2.29-1.337zm8.1-3.014l1.709-.384.471-.066 2.247 2.247-2.652.713-2.28-2.39a6.76 6.76 0 01.504-.12zm43.817-27.379l1.458 12.013c-7.069 2.268-13.897 4.537-19.52 6.74-5.743 2.269-10.27 4.483-12.604 6.631-.197.186-.394.373-.58.559l-.319-.033c-.383-.044-.778-.077-1.172-.11l-1.326-.131a.35.35 0 00-.209.033v.022c-.493-.022-.964-.077-1.468-.077-1.973 0-3.902.197-5.798.515-.022 0-.055-.033-.088-.022l-.625.132c-.591.109-1.161.241-1.742.372l-1.151.263a.271.271 0 00-.164.088 35.225 35.225 0 00-6.774 2.652c-.01.011-.022 0-.033 0l-.153.088c-.154.088-.318.154-.471.241v-12.735h5.304a.368.368 0 00.373-.362v-5.118a.377.377 0 00-.373-.373h-1.48v-5.557l48.915-5.83zm96.657-.076L109.237 94.93l-1.457-11.935 95.922-11.41v11.42zm1.841-15.651h8.527v20.89h-9.623v-20.89h1.096zm.373-4.33h8.154v3.585h-8.154v-3.584zm12.637 3.585h-1.644v-3.584h1.052l.592 3.584zm-5.163-40.728a2.624 2.624 0 011.699-1.085l1.052-.186.044-.011a2.69 2.69 0 011.951.45c.548.383.954.975 1.074 1.676 2.554 13.437 4.516 27.477 6.741 41.013-.055-.055-.132-.077-.187-.132a3.334 3.334 0 00-.789-.537c-.12-.066-.23-.132-.361-.186a4.142 4.142 0 00-1.48-.274h-3.836l-.647-3.924c.011-.022.055-.011.055-.044s-.066-.033-.066-.066l-5.699-34.7a2.692 2.692 0 01.449-1.994zm16.462 90.848h-.46l-7.749-39.478 1.754-.307 8.362 40.958-1.534.482v-1.283a.369.369 0 00-.373-.372zm-2.564 2.543v-1.798h2.192v6.456h-2.192v-4.658zm-20.627-3.804h1.962v8.451h-1.962v-8.451zm-2.872-2.86l-3.77-15.607 1.48-.428a.387.387 0 00.263-.46l-.165-.526 2.653-3.387h10.193a.37.37 0 00.372-.372V88.99h2.346a.37.37 0 00.372-.373V83.51h4.582l6.51 33.22h-1.71a.37.37 0 00-.373.372v1.798h-14.401l-1.217-2.433a.36.36 0 00-.339-.219h-1.217v-1.14a.37.37 0 00-.373-.373h-2.707a.369.369 0 00-.372.373v4.219h-.932v-4.438c0-1.086-.504-1.831-1.195-2.28zm-3.638 2.28c0-.976.526-1.59 1.194-1.864.263-.098.559-.153.855-.153.285 0 .581.055.844.153.68.274 1.195.888 1.195 1.864v4.438h-4.088v-4.438zm-.219-25.055l3.77-5.338v7.201l-2.357 3.014-1.413-4.877zm-5.316 7.836h-3.135v-5.15h1.633l1.502 5.15zm4.866-1.282l-2.926.855-1.195.34-2.126-7.322c-.384-1.315.088-2.367.899-3.003.318-.252.69-.438 1.085-.559a3.28 3.28 0 011.216-.11c1.031.1 1.995.735 2.379 2.061l2.126 7.322-1.458.416zm1.118 16.221l-3.518-14.752 2.214-.647 3.65 15.059c-.242-.066-.494-.142-.746-.142a3.08 3.08 0 00-1.129.219 2.885 2.885 0 00-.471.263zm3.847-23.619h9.623v2.466h-9.623V88.99zm10.368-25.964h1.359v3.584h-1.359v-3.584zm0 11.453h1.973v8.286h-1.973v-8.286zm0 9.031h1.973v4.735h-1.973V83.51zm5.458-6.4a.37.37 0 00.428.306l.219-.033 1.052 5.382h-4.439v-8.286h2.302l.438 2.63zm-1.293-9.755h4.154c.384 0 .723.044 1.03.142.932.285 1.546.932 1.863 1.721a3.599 3.599 0 010 2.641c-.416 1.053-1.381 1.875-2.893 1.875h-8.319v-6.38h4.165zM74.275 109.628l1.107.098c.307.033.603.099.91.143l1.424 2.828-2.74-.143-1.413-2.97c.24.022.482.022.712.044zm12.012 6.104l-2.608-.898-.516-3.244c.406.142.8.274 1.195.427l.723.296c.22.088.417.208.625.296l.581 3.123zm6.127.899l.219.165 1.458 1.194c.153.132.296.274.438.395l-.362 3.156-2.203-1.633.45-3.277zm70.484 2.05c0-1.063.109-2.28 1.03-2.28h13.316c.932 0 1.031 1.217 1.031 2.28v.646h-15.366l-.011-.646zm16.122.646v-.646c0-1.414-.176-3.014-1.776-3.014h-13.316c-1.589 0-1.776 1.6-1.776 3.014l.011.646h-65.53c-.054-.054-.11-.12-.164-.175-.406-.406-.844-.767-1.271-1.162-.022-.011-.011-.055-.033-.077l-.581-.482a43.868 43.868 0 00-1.524-1.238l-.68-.548c-.043-.044-.109-.066-.164-.088a36.025 36.025 0 00-5.962-3.507c-.033-.033-.044-.088-.088-.099l-.767-.318a23.365 23.365 0 00-.789-.306l-1.786-.713c-.055-.033-.12-.033-.198-.022a36.506 36.506 0 00-5.929-1.414l.175-.164c2.27-2.082 6.708-4.253 12.374-6.477 5.7-2.247 12.593-4.527 19.75-6.829l94.289-11.902-3.617 5.118-.142-.493c-.482-1.655-1.71-2.455-3.014-2.576a4.04 4.04 0 00-1.491.132 3.944 3.944 0 00-1.348.69c-1.03.8-1.633 2.138-1.15 3.793l.383 1.304h-1.808c-.198 0-.362.175-.362.383v5.886c0 .208.164.373.362.373h4.011c.022 0 .022-.044.044-.044.022-.011.033.033.066.033l1.151-.34 3.605 15.103c-.339.438-.559 1.008-.559 1.721v4.438H179.02zm32.88 4.604h-2.532v-6.938h.987l3.463 6.938H211.9zm2.751 0l-2.137-4.286h14.028v4.286h-11.891zm12.155-48.345l-5.864 1.03-.351-2.137h2.543c.46 0 .877-.077 1.26-.186.132-.044.23-.121.351-.165.23-.099.471-.186.658-.318.12-.087.219-.208.328-.306.154-.143.318-.264.45-.428.087-.12.153-.263.23-.405.088-.154.208-.296.274-.46l.537 3.31-.416.065zm67.502 22.621c0-.306 0-.624-.011-1.008-.011-.263-.011-.57-.011-.877h2.006v1.885h-1.984zm-3.2 2.258l-1.019-.022v-6.379l.69-.021c.318-.011.636-.022.976-.022.986 0 1.775.12 1.775.844 0 .372.011.701.011 1.063 0 .01-.011.01-.011.01v2.642c0 .011.033.011.033.033 0 .81-.044 1.315-.219 1.567-.23.318-.888.318-2.236.285zm-6.291-42.284c-.055-1.6.241-3.233.756-5.885l8.297-45.758h41.045v85.565h-37.998l-10.708-28.09c-.91-2.631-1.326-4.232-1.392-5.832zm-.285-32.573l-1.721-.219.198-1.041 7.419-2.96-.887 4.856-5.009-.636zm-1.414 5.919l-1.326-.307.888-5.108 1.359.176-.921 5.239zm3.08 1.775c.153.23.208.537.142.822l-2.608 11.716a1.137 1.137 0 01-.493.69c-.241.143-.526.21-.822.143l-5.217-1.161a1.058 1.058 0 01-.68-.494 1.067 1.067 0 01-.153-.822l2.619-11.716c.066-.296.241-.537.482-.68.231-.153.537-.219.822-.153l1.009.23 2.049.45v.01-.01l2.159.482c.296.066.537.252.691.493zm.46-31.718h48.257v4.22h-48.257v-4.22zm87.494 4.208H335.66V1.584h38.492v4.208zm-5.107 45.079v41.232H335.66V6.538h33.385V50.87zm10.741.373h19.684v61.255h-27.203c-.351-.175-.701-.34-1.063-.504-.022-.011-.022-.033-.033-.044l-.658-.263-.186-.087c-.099-.033-.197-.088-.296-.121a2.501 2.501 0 01-.252-.11V51.244h10.007zm.35-1.228c-.011-.285-.022-.57-.022-.91 0-1.27.187-2.466 1.447-2.466.844 0 1.732-.01 2.499-.022 2.203-.032 3.387-.043 3.935.285l.022.011c.537.34.537 1.25.526 3.157v.427h-8.396l-.011-.482zm27.521-2.203h8.22v3.683l-4.669-.263c-1.173-.077-2.367-.154-3.551-.23v-3.19zm.734-7.979h6.763v7.245h-6.763v-7.245zm6.763-.734h-6.763v-2.27h6.763v2.27zm-10.884-3.365l-.011-.022a2.052 2.052 0 01-.033-.526c.022-.208.044-.427.11-.636.175-.602.581-1.128 1.282-1.128h12.297c.713 0 1.118.526 1.294 1.128.055.209.098.428.109.625 0 .209 0 .395-.043.56-.044.208-.088.35-.121.35h-14.763c-.044 0-.088-.142-.121-.35zm26.469-10.949a9.444 9.444 0 012.784-6.696 9.395 9.395 0 016.334-2.784l-.011 5.272a7.604 7.604 0 00-3.298 2.652 7.42 7.42 0 00-1.338 4.252V53.03c-1.479-.131-2.981-.252-4.471-.373v-27.87zm-134.447 95.955v12.089l-13.656-12.089h13.656zm-10.226-.734h-4.033v-4.132h4.033v4.132zm13.865-14.369v-2.345l2.312-4.012h10.84v6.357h-13.152zm16.045 0h-2.159v-6.346h2.159v6.346zm-2.148 12.867v-9.414h2.148v9.414h-2.148zm-13.897-2.63h13.152v2.619h-13.152v-2.619zm13.152-.745h-13.152v-6.05h13.152v6.05zm-16.046.372v-6.411h2.149v9.414h-2.149v-3.003zm0 6.445h2.149v8.625h-2.149v-8.625zm2.894 0h13.152v8.625h-13.152v-8.625zm16.045 8.625h-2.159v-8.625h2.159v8.625zm0-10.193v.833h-18.939v-1.972h18.939v1.139zM297.037 98.58v-5.743h38.832v17.952h-7.201l-5.546-12a.36.36 0 00-.351-.242h-20.747a.383.383 0 00-.318.186l-2.367 4.089h-2.302V98.58zm0 4.987h2.149v2.06h-2.149v-2.06zm0 2.817h18.939v1.961h-18.939v-1.961zm-.745 9.491v4.132h-9.469v-4.132h9.469zm19.684 17.404h-18.939v-1.961h18.939v1.961zm18.183-16.779h-10.555a.951.951 0 00-.602.208.73.73 0 00-.285.581v.449c-.011.165-.022.329-.022.439 0 .69.142 1.205.909 1.205h7.344c-.198.197-.373.417-.57.625h-13.656v-4.132h18.27c-.274.208-.559.405-.833.625zm-10.555 2.137c-.142 0-.164-.197-.164-.46 0-.154.011-.274.011-.406.011-.175.022-.34.022-.482v-.011a.235.235 0 01.131-.044h6.478v1.403h-6.478zm8.308-.165c-.022.011-.055 0-.077.022l-.142.143h-.877v-1.403h2.444c-.46.395-.909.811-1.348 1.238zm-1.216 2.291l1.348-1.425c.076-.065.142-.12.208-.186l3.134.614-1.808 2.071-3.222-.701.34-.373zm9.261-8.034c-.011.011-.011 0-.022 0l-.154.088c-.789.417-1.556.877-2.301 1.348l-.658.384c-.011 0-.022.022-.033.033a31.66 31.66 0 00-.8.548h-19.267V99.281h5.819l5.557 12.046a.36.36 0 00.329.219h14.007c-.844.35-1.655.767-2.477 1.183zm.175.746l2.872 1.446-2.302 1.502-2.926-1.567c.011-.011.033-.022.055-.044l2.301-1.337zm8.089-3.014l1.709-.384.472-.066 2.247 2.247-2.653.713-2.269-2.39c.165-.044.329-.087.494-.12zm11.058-.833l1.096.098c.318.033.614.099.921.143l1.425 2.828-2.751-.143-1.403-2.97c.23.022.471.022.712.044zm2.379-.461c-.044-.011-.066-.065-.11-.065l-1.063-.11a38.625 38.625 0 00-1.173-.11l-1.326-.131a.336.336 0 00-.208.033c-.011 0 0 .022-.011.022-.482-.022-.965-.077-1.458-.077-1.984 0-3.913.197-5.798.515-.033 0-.054-.033-.087-.022l-.625.132c-.592.109-1.173.241-1.754.372l-1.14.263a.273.273 0 00-.164.088c-.789.208-1.556.46-2.323.734 0 0 0-.022-.011-.022h-7.793V92.837h32.431v17.952h-.757l-.46-.175a.308.308 0 00-.197-.022 37.34 37.34 0 00-5.973-1.425zm9.634 6.565l-2.609-.898-.515-3.244c.394.142.8.274 1.195.427l.723.296c.208.088.416.208.625.296l.581 3.123zm6.115.899c.077.055.154.11.219.165l1.458 1.194c.154.132.307.274.449.406l-.361 3.145-2.214-1.633.449-3.277zm6.806 6.883l1.162 1.611c.033.044.055.088.088.143l-1.184 2.97-1.71-2.159 1.283-3.047c.12.153.241.329.361.482zm19.619 4.461h-8.976a23.79 23.79 0 001.096-1.699c.909-1.622 1.764-3.113 3.485-3.113 1.501 0 2.334 1.458 3.244 3.058.351.592.745 1.184 1.151 1.754zm.877 0c-.515-.658-.965-1.403-1.381-2.126-1.031-1.798-1.962-3.431-3.891-3.431-2.159 0-3.102 1.677-4.121 3.485-.406.713-.833 1.436-1.337 2.072h-1.743a32.091 32.091 0 001.524-2.225c1.545-2.455 3.09-4.921 5.567-4.921 2.466 0 4.023 2.466 5.557 4.921a36.014 36.014 0 001.523 2.225h-1.698zm4.175 10.116c.022-.197.044-.395.088-.592l2.937-1.304-.296 2.729-3.057 1.282.328-2.115zm-.175 11.344l-.252-1.864c0-.044 0-.076-.011-.12l2.444-2.072.504 2.707-2.564 2.094c-.044-.252-.088-.493-.121-.745zm-16.944-2.675c1.008 1.622 2.312 2.894 3.88 3.628a9.688 9.688 0 004.11.877 9.65 9.65 0 004.088-.932c1.556-.745 2.838-2.027 3.836-3.66.011.219.011.427.022.635 0 .022-.022.033-.022.055l.044.285c.022.285.065.581.098.866a11.589 11.589 0 01-1.457 1.479 10.595 10.595 0 01-6.642 2.368 10.505 10.505 0 01-6.642-2.324 10.952 10.952 0 01-1.469-1.468c.077-.592.11-1.195.154-1.809zm-.669-3.485l.044.91-2.619 1.852-.252-2.74 2.729-1.863c.054.613.076 1.227.098 1.841zm17.164-6.083l-.099.669c-.778-1.677-1.852-3.047-3.222-3.946-1.546-1.008-3.376-1.523-5.184-1.534a9.687 9.687 0 00-5.217 1.468c-1.392.888-2.477 2.258-3.277 3.924a43.925 43.925 0 00-.373-1.732 10.412 10.412 0 013.146-3.123 10.48 10.48 0 015.688-1.633c1.995 0 3.967.559 5.688 1.666 1.206.778 2.28 1.83 3.124 3.156-.077.362-.198.713-.263 1.074 0 .011-.011.011-.011.011zm-.526 3.573a34.375 34.375 0 00-.187 3.54c0 .395.044.778.066 1.184-.921 1.973-2.389 3.354-4.088 4.176a8.869 8.869 0 01-3.77.866c-1.305 0-2.609-.264-3.792-.822-1.71-.79-3.201-2.171-4.143-4.121.011-.417.065-.822.065-1.239v-.011c0-.011.011-.022.011-.033 0-.822-.076-1.611-.131-2.411l-.055-1.151v-.011c-.066-.592-.175-1.172-.263-1.764.69-2.028 1.962-3.518 3.485-4.483 1.447-.921 3.135-1.37 4.812-1.359 1.677.011 3.364.471 4.789 1.414 1.524.986 2.762 2.499 3.442 4.526-.077.548-.187 1.096-.241 1.655v.044zm-18.183-6.883l-1.962 2.565-1.052-2.543 2.071-2.597.943 2.575zm20.78-3.386a34.75 34.75 0 00-1.556 4.712c-.855-1.161-1.831-2.159-2.959-2.882a11.377 11.377 0 00-6.094-1.787 11.356 11.356 0 00-6.094 1.743c-1.129.723-2.115 1.71-2.97 2.872-.121-.439-.208-.899-.34-1.327v-.011l-.011-.021c-.548-1.754-1.26-3.442-2.049-5.075h22.928c-.296.592-.592 1.162-.855 1.765v.011zm2.148-2.74l3.201-.384-1.085 2.532-3.31.318 1.194-2.466zm5.02-6.982l1.359-1.436c.066-.065.143-.12.219-.186l3.124.614-1.809 2.071-3.222-.701.329-.362zm6.138-6.225c-.011 0-.022.022-.033.033a34.783 34.783 0 00-4.877 3.89c-.022.011-.055 0-.077.022l-.296.307c-.132.121-.263.23-.384.351-.361.373-.69.756-1.041 1.14l-.745.789c-.033.033-.044.066-.066.11a35.123 35.123 0 00-4.209 6.049h-.011l-.011.044c-.131.219-.23.461-.35.691h-4.22c-.636-.789-1.216-1.699-1.808-2.62-1.644-2.63-3.31-5.26-6.182-5.26-2.882 0-4.537 2.63-6.192 5.26-.581.921-1.162 1.831-1.798 2.62h-3.441a34.04 34.04 0 00-1.71-2.938c0-.021.011-.032 0-.054l-.175-.252a34.734 34.734 0 00-1.282-1.754l-.658-.921c-.011-.022-.044-.033-.055-.043a34.97 34.97 0 00-2.543-2.861c-.416-.406-.854-.767-1.282-1.162-.011-.011 0-.055-.022-.077l-.581-.482a44.233 44.233 0 00-1.534-1.238l-.669-.548c-.044-.044-.109-.066-.164-.088a35.176 35.176 0 00-3.595-2.312h52.181c-.526.295-1.042.624-1.546.942l-.624.362zm3.31-1.074l2.871 1.446-2.313 1.502-2.926-1.567c.022-.011.033-.022.044-.022l2.324-1.359zm8.088-3.014l1.721-.384.46-.066 2.247 2.247-2.652.713-2.269-2.39c.164-.044.329-.087.493-.12zm11.059-.833l1.096.098c.318.033.613.099.92.143l1.425 2.828-2.751-.143-1.414-2.97c.241.022.483.022.724.044zm12.001 6.104l-2.598-.898-.515-3.244c.395.142.8.274 1.195.427l.723.296c.209.088.406.208.625.296l.57 3.123zm22.895-55.95c4.308 1.15 6.752 2.794 8.253 4.69 1.502 1.875 2.083 4.023 2.653 6.16l8.79 36.343-4.505 5.524h-37.187c-.307-.153-.614-.307-.921-.449-.044-.033-.044-.088-.088-.099l-.778-.318a23.278 23.278 0 00-.789-.306l-1.775-.713c-.055-.033-.132-.033-.198-.022h-.011a36.904 36.904 0 00-5.962-1.425c-.044-.011-.066-.065-.11-.065l-1.063-.11a36.22 36.22 0 00-1.183-.11l-1.316-.131a.372.372 0 00-.219.033v.022c-.482-.022-.964-.077-1.447-.077-1.994 0-3.912.197-5.808.515-.033 0-.066-.033-.088-.022l-.636.132c-.592.109-1.161.241-1.742.383l-1.151.252a.248.248 0 00-.154.088 35.05 35.05 0 00-6.302 2.422h-27.038V51.266c2.378.142 4.68.306 7.036.449.022 0 .022.022.033.022l4.088.241c10.27.658 20.43 1.37 30.305 2.334 13.546 1.316 26.698 3.036 39.313 5.47zm24.288 43.456l6.718 1.107-2.181 15.41c-.033-.044-.022-.099-.055-.143l-.01-.022a1.477 1.477 0 00-1.042-.427h-.942v-3.836a2.8 2.8 0 00-.822-1.995h-.011a2.79 2.79 0 00-1.995-.833h-.997l1.337-9.261zm4.143 24.2a.763.763 0 01-.198.504.757.757 0 01-.515.208h-9.042v-8.242h9.042c.209 0 .384.088.515.208l.011.022a.68.68 0 01.187.483v6.817zm-6.839 3.737h2.356c.756 0 1.425-.285 1.929-.767.066-.055.099-.143.153-.197v2.52l-4.438 2.445v-4.001zm-6.116 0h5.381v4.406l-7.485 4.121 2.104-8.527zm.263-11.267h2.203v8.231h-2.203v-8.231zm0 10.522v-1.535h10.226a2.05 2.05 0 01-.592.976 2.052 2.052 0 01-1.425.559h-8.209zm8.209-17.185a2.093 2.093 0 012.093 2.082v3.836h-10.302v-5.918h8.209zm-16.977 0h8.034v17.185h-5.963c-.569 0-1.096-.23-1.468-.614a2.054 2.054 0 01-.603-1.458v-15.113zm-16.462 3.989h-1.666c-.899 0-1.041-.932-1.041-2.104 0-.384 0-.735.022-1.085l.022-.8h2.663v3.989zm8.943 0h-8.198v-3.989h8.198v3.989zm3.409-3.989l.033.8c.011.35.022.712.022 1.085 0 1.172-.154 2.104-1.041 2.104h-1.677v-3.989h2.663zm-19.629 3.386c.076.055.153.121.23.176l1.446 1.172.45.417-.362 3.145-2.214-1.633.45-3.277zm6.817 6.916l1.14 1.578c.032.044.065.088.098.143l-1.183 2.97-1.71-2.159 1.282-3.047c.132.164.252.34.373.515zm3.671 4.428a37.458 37.458 0 00-1.709-2.938c-.011-.021.011-.032 0-.054l-.187-.252c-.394-.592-.822-1.162-1.249-1.743l-.68-.932c-.011-.022-.044-.033-.055-.043a33.313 33.313 0 00-2.553-2.861c-.395-.406-.844-.767-1.261-1.151-.022-.022-.011-.066-.043-.088l-.581-.482a41.731 41.731 0 00-1.513-1.227l-.679-.559a.374.374 0 00-.165-.077c-1.151-.844-2.334-1.633-3.595-2.323h7.65c-.011.263-.011.526-.021.767-.011.394-.022.789-.022 1.118 0 1.578.252 2.849 1.786 2.849h13.032c1.523 0 1.786-1.271 1.786-2.849 0-.329-.022-.724-.033-1.118-.011-.241-.011-.504-.022-.767h2.62v14.73H474.71zM212.053 169.59a24.275 24.275 0 01-1.107 1.754h-2.433a21.31 21.31 0 003.266-5.754 20.846 20.846 0 001.305-7.278c0-3.902-1.075-7.551-2.927-10.664a20.984 20.984 0 00-7.628-7.486l1.26-1.512a22.722 22.722 0 019.459 10.817v.011a23.782 23.782 0 011.238 3.913c1.184 5.36.461 11.135-2.433 16.199zm331.892-45.035c-2.214-2.268-5.228-3.858-8.681-3.858h-9.896l-.187-.339a4.867 4.867 0 00-1.096-1.316 3.914 3.914 0 00-2.422-.876 4.773 4.773 0 00-2.499.657c-.57.34-1.107.778-1.545 1.326l-8.933 10.347c-.011 0 0 0 0 .011-.054.043-.12.087-.164.142-.285.274-.526.592-.756.91v-2.664h.942c.406 0 .757-.164 1.02-.427l.022-.011a1.46 1.46 0 00.416-1.019v-4.856l2.619-18.489a.386.386 0 00-.317-.417l-7.453-1.238a.369.369 0 00-.417.318l-1.414 9.743h-6.039l4.231-5.195a.423.423 0 00.066-.318l-8.823-36.551c-.592-2.203-1.195-4.428-2.795-6.434-1.6-1.995-4.165-3.737-8.647-4.943l-.033-.01c-12.637-2.434-25.811-4.155-39.412-5.47-1.896-.186-3.858-.318-5.787-.482V27.482a6.7 6.7 0 011.216-3.825 6.7 6.7 0 013.179-2.477.376.376 0 00.252-.35v-5.908a.375.375 0 00-.362-.373 10.218 10.218 0 00-7.234 3.003c-1.852 1.864-3.003 4.417-3.003 7.234v27.806c-4.427-.351-8.866-.713-13.371-1.02v-4.12a.37.37 0 00-.372-.373h-.351V36.83h3.255c.449 0 .734-.394.844-.953.055-.22.066-.472.055-.735a2.993 2.993 0 00-.143-.8c-.241-.877-.866-1.677-1.995-1.677h-12.297c-1.118 0-1.731.8-1.994 1.677a3.47 3.47 0 00-.132.8c-.011.252 0 .494.044.702v.033c.11.559.405.953.855.953h3.255v10.25h-.362a.37.37 0 00-.372.373v3.507c-2.357-.143-4.669-.318-7.048-.45 0-.01 0 0-.011 0s0-.01-.011-.01h-10.565v-.417c.022-2.203.022-3.233-.866-3.792l-.033-.022c-.734-.439-1.984-.417-4.318-.384-.669 0-1.447.011-2.499.011-1.918 0-2.192 1.556-2.192 3.211 0 .274.011.603.022.932v.46h-9.612V6.538h4.746a.37.37 0 00.372-.373V1.222a.379.379 0 00-.372-.383h-88.239c-.198 0-.362.175-.362.383v4.943c0 .208.164.373.362.373h6.839l-2.543 13.996-8.012 3.189a.372.372 0 00-.252.285l-.307 1.633-.942 5.425-.614-.142c-.493-.11-.987 0-1.381.252a1.814 1.814 0 00-.811 1.15l-2.62 11.706c-.109.493 0 .986.242 1.392.263.394.657.69 1.161.8l5.206 1.173c.504.11.987 0 1.392-.252.395-.242.691-.647.811-1.151l2.609-11.706a1.828 1.828 0 00-.241-1.38 1.862 1.862 0 00-1.151-.822l-1.831-.406.932-5.294 4.636.581-4.559 25.175c-.526 2.718-.833 4.373-.767 6.061.054 1.688.482 3.354 1.413 6.05l10.796 28.288v3.036h-2.017v-.712c0-1.36-1.118-1.59-2.52-1.59-.296 0-.647.022-.998.022-.329.022-.668.033-1.03.033a.38.38 0 00-.384.373v7.113a.38.38 0 00.384.372c.592 0 1.008.011 1.37.022 1.611.022 2.4.044 2.861-.602.241-.351.317-.888.339-1.655h1.995v9.042l-23.115-16.364c-20.33-14.423-29.427-20.846-46.01-20.922-2.433-14.687-4.987-29.428-7.222-44.104a3.337 3.337 0 00-1.392-2.159 3.39 3.39 0 00-2.488-.58c-.362.054-.735.131-1.096.197a3.312 3.312 0 00-2.181 1.392 3.42 3.42 0 00-.581 2.542l5.633 34.272h-12.297a.377.377 0 00-.373.373v3.968h-1.096a.37.37 0 00-.372.372v3.847L107.33 82.304l-49.2 5.864V76.09c.57-.033.976-.11 1.25-.34.515-.405.493-1.085.471-2.477a46.09 46.09 0 01-.021-1.435c0-.34-.143-.658-.373-.888l-.011-.011a1.252 1.252 0 00-.877-.362c-.833 0-1.436-.01-1.94-.022-1.512-.033-2.28-.044-2.75.318-.516.416-.494 1.107-.461 2.488 0 .384.01.822.01 1.436 0 .35.143.657.373.898h.011c.23.23.538.362.888.362.274 0 .515 0 .745.011v12.407l-3.868.471H39.159a4.805 4.805 0 00-3.409 1.414 4.805 4.805 0 00-1.413 3.409v27.356l-21.208 1.918c-1.578.142-2.532 1.118-2.872 2.29a3.48 3.48 0 00-.142 1.381c.033.461.164.921.383 1.327a2.997 2.997 0 002.149 1.622v4.8l-1.59-.197-.087-1.469c-.044-.603-.252-1.074-.614-1.403-.362-.328-.855-.504-1.469-.504H2.892c-.614 0-1.172.252-1.578.658l-.011.011a2.228 2.228 0 00-.636 1.567v34.119a15.56 15.56 0 01-.208 2.246c-.11.636-.252 1.173-.405 1.458a.362.362 0 00.131.504.363.363 0 00.406-.022l12.1-8.231 23.377-14.27c.033.231.066.45.099.658l.186 1.348c0 .022.022.044.033.077a35.056 35.056 0 002.039 6.85v.022l.054.109c.34.833.746 1.633 1.151 2.433l.34.713c0 .011.01.011.01.022a34.927 34.927 0 004.297 6.225c.011.022 0 .044.011.055l.8.855c.362.383.702.789 1.074 1.172.11.099.23.198.34.296l.252.274a.387.387 0 00.143.088 35.527 35.527 0 004.976 3.957c.01 0 0 .022.022.032l1.019.592c.592.362 1.183.735 1.808 1.052l.285.165c.044.033.088.033.132.044a35.577 35.577 0 006.17 2.466c.022 0 .022.022.044.033l1.239.285c.635.164 1.282.339 1.94.46l.328.088c.044 0 .099 0 .143-.011 2.05.372 4.153.591 6.302.591.274 0 .537-.032.81-.043.023.011.034.032.056.032l1.37-.098c.613-.044 1.227-.077 1.84-.143l.384-.022a.548.548 0 00.143-.054 35.202 35.202 0 006.74-1.546c.022-.011.044.011.066.011l1.041-.427a25.92 25.92 0 001.896-.745l.395-.154a.446.446 0 00.153-.11 35.287 35.287 0 006.74-4.077c.023-.011.056.011.078-.011l.405-.35c.526-.417 1.03-.866 1.534-1.316l.79-.668a.487.487 0 00.087-.121c.209-.197.428-.372.636-.57a36.316 36.316 0 003.825-4.581c.011-.022.044-.011.055-.033l.197-.307c.384-.548.723-1.118 1.074-1.687l.658-1.02c.022-.033.022-.076.033-.109a35.774 35.774 0 003.068-7.19c0-.011.011-.011.022-.022l.307-1.271c.176-.669.362-1.338.493-2.017l.044-.186c.011-.033 0-.077 0-.11.406-2.137.636-4.329.647-6.587v-.044c0-.723-.066-1.425-.11-2.137l-.076-1.425v-.011a35.158 35.158 0 00-1.392-6.905v-.011l-.011-.021c-.965-3.135-2.379-6.061-4.11-8.758-.011-.021.011-.032-.011-.054l-.187-.252c0-.022-.022-.044-.032-.066h59.83v11.913a.37.37 0 00.373.373h47.139c3.189 0 5.853.143 8.067.438 2.213.285 4 .713 5.469 1.283 3.189 1.238 4.658 3.2 5.502 5.611h-5.075v-1.874a.37.37 0 00-.373-.373h-6.696a.378.378 0 00-.373.373v2.236c0 .208.176.373.373.373h1.841v1.994h-4.263c-1.666-3.036-3.935-5.787-6.905-7.902a28.876 28.876 0 00-1.984-1.271.404.404 0 00-.493.109l-1.721 2.094c-.131.153-.098.394.055.526l.066.033a20.232 20.232 0 017.716 7.42 20.026 20.026 0 012.827 10.291 20.06 20.06 0 01-4.899 13.152.38.38 0 00.044.526.393.393 0 00.241.099h3.409a.407.407 0 00.318-.186 21.9 21.9 0 001.238-1.951c2.992-5.217 3.748-11.191 2.521-16.714-.23-1.085-.614-2.127-.998-3.168h2.828v13.086h-1.764a25.91 25.91 0 01-.209.888c-.065.219-.12.45-.186.691h2.159v1.293h-.712c-.713 0-1.162.395-1.37.899-.077.186-.11.394-.11.603 0 .197.033.394.11.591.208.505.657.899 1.37.899h4.45c.021 0 .032-.022.054-.022 2.116-.088 3.836-.372 5.382-.877 2.049-.679 3.77-1.709 5.633-3.112 2.828-.768 4.636-2.138 5.754-3.727 1.502-2.159 1.732-4.702 1.491-6.707-.285-1.94-.592-3.935-.888-5.919l.899-3.562h21.339a.369.369 0 00.372-.372v-6.258a.369.369 0 00-.372-.373h-14.084l-5.567-7.793a.362.362 0 00-.329-.186h-1.831v-1.249h.866a.375.375 0 00.373-.362v-4.198a.376.376 0 00-.373-.372h-8.165l3.365-1.064c1.271-.405 1.863-1.359 1.951-2.367a2.956 2.956 0 00-.143-1.151 2.984 2.984 0 00-.537-1.008 2.51 2.51 0 00-.471-.428l-6.401-32.617c13.306.23 24.112 9.974 38.821 23.301 2.52 2.28 5.151 4.669 7.913 7.103l20.462 18.116v3.617a.37.37 0 00.373.373h2.893a.377.377 0 00.373-.373v-3.408h13.152v3.408c0 .209.164.373.372.373h2.894a.377.377 0 00.373-.373v-6.115h6.499c-.745 1.885-1.359 3.836-1.765 5.863 0 .011-.011.011-.011.011l-.197 1.304c-.11.735-.263 1.469-.329 2.225v.033c-.011 0 0 .011 0 .011a34.66 34.66 0 00-.175 3.54 38.9 38.9 0 00.142 3.003c0 .022-.022.033-.022.055l.044.285c.055.647.165 1.293.263 1.94l.187 1.348c0 .022.022.044.033.077a34.277 34.277 0 002.038 6.85s-.011.011 0 .022l.044.109c.34.8.723 1.568 1.107 2.324l.383.822.022.022c1.195 2.236 2.653 4.318 4.286 6.225.022.022 0 .044.022.055l.8.855c.361.383.69.789 1.063 1.172.11.099.23.198.34.296l.263.274a.415.415 0 00.142.099 36.919 36.919 0 004.965 3.946c.022 0 .011.022.022.032l1.03.592c.592.362 1.184.735 1.798 1.052l.296.165c.043.033.076.033.131.044a35.563 35.563 0 006.171 2.466c.022 0 .022.022.043.033l1.228.285c.647.164 1.293.339 1.951.46l.329.088c.044 0 .087 0 .142-.011 2.05.372 4.143.591 6.302.591.274 0 .526-.032.8-.043.022.011.033.032.066.032l1.359-.098c.614-.044 1.239-.077 1.841-.143l.395-.022a.725.725 0 00.142-.054 35.198 35.198 0 006.741-1.546c.022-.011.033.011.066.011l1.041-.427c.635-.23 1.271-.471 1.896-.745l.383-.154a.309.309 0 00.154-.11 34.612 34.612 0 006.74-4.077c.033-.011.066.011.088-.011l.406-.35c.526-.417 1.03-.866 1.534-1.316l.789-.668c.033-.033.055-.077.077-.121.208-.197.438-.372.646-.57 1.403-1.413 2.664-2.959 3.825-4.581.011-.022.044-.011.055-.033l.187-.296c.383-.559.734-1.129 1.096-1.72l.646-.998c.022-.033.022-.076.022-.109.175-.296.34-.603.504-.91h23.707c.044 0 .044-.055.087-.066l.176.384.011.022a34.944 34.944 0 004.307 6.225c0 .022 0 .044.011.055l.767.822c.373.394.713.822 1.096 1.205.11.099.241.198.351.307l.252.263c.033.044.088.066.143.088a35.525 35.525 0 004.975 3.957s0 .022.022.032l.998.581c.592.362 1.194.735 1.83 1.063l.285.165c.033.033.077.033.131.044a35.595 35.595 0 006.171 2.466c.022 0 .022.022.044.033l1.227.285c.647.164 1.283.339 1.94.46l.329.088c.055 0 .099 0 .143-.011 2.06.372 4.153.591 6.323.591.264 0 .527-.032.79-.043.022.011.032.032.065.032l1.359-.098c.614-.044 1.239-.077 1.853-.143l.383-.022a.758.758 0 00.143-.054 35.396 35.396 0 006.74-1.546c.022-.011.044.011.066.011l1.041-.427c.636-.23 1.271-.471 1.896-.745l.395-.154a.555.555 0 00.142-.099 36.025 36.025 0 006.752-4.088c.022-.011.054.011.076-.011l.406-.35a25.337 25.337 0 001.534-1.326l.789-.658a.454.454 0 00.077-.121c.208-.197.438-.372.636-.57 1.403-1.413 2.674-2.959 3.836-4.581.011-.022.044-.011.044-.033l.197-.296c.384-.548.734-1.129 1.085-1.698l.647-1.02c.022-.033.022-.076.032-.109a34.507 34.507 0 003.069-7.19c0-.011.022-.011.022-.022l.307-1.228c.175-.679.362-1.37.493-2.071l.055-.175c.011-.033 0-.077 0-.11.384-2.06.603-4.176.625-6.346l2.444 6.094c.022.066.044.121.066.175l.098.22c.011.032.055.01.077.032.274.537.57 1.053.997 1.469a5.597 5.597 0 004.001 1.655c1.556 0 2.97-.625 3.989-1.655.274-.274.439-.636.658-.964 0 0 .011.021.022.011l24.298-9.382c.011-.011.011-.033.011-.044a6.863 6.863 0 003.003-1.721c.055-.066.099-.153.165-.208.01-.011.01 0 .021 0l7.366-6.39c.274-.285.559-.526.833-.789 1.534-1.425 3.112-2.915 2.487-4.877h3.76c3.047 0 5.644 1.03 7.792 2.499 3.069 2.115 5.239 5.14 6.533 7.376a.377.377 0 00.317.186.376.376 0 00.373-.372v-4.209c0-3.058-1.523-6.554-4.055-9.141zm-36.946-.208c-.176.438-.581.778-1.206.778-.636 0-1.03-.34-1.206-.778a1.387 1.387 0 01-.109-.559c0-.186.033-.384.109-.548.176-.438.57-.778 1.206-.778.625 0 1.03.34 1.206.778.065.164.098.362.098.548 0 .197-.033.384-.098.559zm-1.206-2.63c-.986 0-1.622.548-1.896 1.238a2.44 2.44 0 00-.165.833c0 .285.066.57.165.844.274.69.91 1.238 1.896 1.238.986 0 1.611-.548 1.885-1.238.11-.274.164-.559.164-.844 0-.274-.054-.57-.164-.833-.274-.69-.899-1.238-1.885-1.238zm-17.942 27.553c-.219.537-.712.943-1.479.943-.778 0-1.272-.406-1.491-.943a2.053 2.053 0 01-.12-.679c0-.242.043-.472.12-.691.219-.526.713-.942 1.491-.942.767 0 1.26.416 1.479.942.088.219.121.449.121.691 0 .23-.033.46-.121.679zm-1.479-3.058c-1.129 0-1.852.625-2.17 1.414a2.642 2.642 0 00-.187.965c0 .317.066.646.187.953.318.789 1.041 1.414 2.17 1.414 1.118 0 1.841-.625 2.159-1.414.12-.307.186-.636.186-.953 0-.329-.066-.658-.186-.965-.318-.789-1.041-1.414-2.159-1.414zm2.871 3.683c-.416 1.052-1.37 1.863-2.871 1.863-1.513 0-2.466-.811-2.883-1.863a3.523 3.523 0 010-2.62c.417-1.041 1.37-1.863 2.883-1.863 1.501 0 2.455.822 2.871 1.863a3.53 3.53 0 010 2.62zm.68-2.894c-.515-1.304-1.699-2.334-3.551-2.334-1.863 0-3.047 1.03-3.573 2.334a4.146 4.146 0 00-.296 1.59c0 .537.088 1.074.296 1.589.526 1.304 1.71 2.312 3.573 2.312 1.852 0 3.036-1.008 3.551-2.312a4.228 4.228 0 00.307-1.589c0-.548-.099-1.085-.307-1.59zM373.418 55.682c0-.12.055-.23.131-.317a.49.49 0 01.318-.132c.263 0 .581-.01.899-.022.252-.01.504-.022.778-.022.701 0 1.239.077 1.239.493v10.982c0 .406-.538.483-1.239.483-.274 0-.526-.011-.778-.022-.318 0-.636-.022-.899-.022a.44.44 0 01-.318-.132.442.442 0 01-.131-.307V55.682zm.449 12.166c.318 0 .603.011.866.022.296.011.581.022.811.022 1.118 0 1.973-.186 1.973-1.228V55.682c0-1.04-.855-1.238-1.973-1.238-.23 0-.515.01-.811.033-.263 0-.548.01-.866.01-.329 0-.625.132-.844.352a1.184 1.184 0 00-.351.843v10.982c0 .318.132.625.351.833.219.22.515.351.844.351zm-83.471-13.404l.164-1.271 6.85-40.07h27.29c1.25 0 2.39.515 3.201 1.326a4.541 4.541 0 011.337 3.211v65.333a4.54 4.54 0 01-1.337 3.211l-.011.011a4.49 4.49 0 01-3.19 1.315h-24.21l-9.327-25.383c-1.283-3.705-1.162-4.69-.767-7.683zm9.842 33.812H324.7a5.246 5.246 0 003.705-1.524l.022-.022a5.262 5.262 0 001.556-3.737V17.64a5.217 5.217 0 00-1.556-3.726 5.217 5.217 0 00-3.727-1.556h-27.608a.375.375 0 00-.362.306c-2.334 13.624-5.37 28.09-7.069 41.681-.405 3.124-.537 4.154.811 8.023l9.404 25.625a.368.368 0 00.362.263zm63.206-9.503a4.55 4.55 0 01-1.326 3.212 4.572 4.572 0 01-3.2 1.326h-12.9a4.553 4.553 0 01-3.201-1.326 4.56 4.56 0 01-1.337-3.212V17.64c0-1.25.504-2.39 1.337-3.2a4.516 4.516 0 013.201-1.337h12.9c1.238 0 2.378.515 3.2 1.337a4.486 4.486 0 011.326 3.2v61.113zm-4.526-66.395h-12.9a5.246 5.246 0 00-3.716 1.545l-.011.01a5.236 5.236 0 00-1.556 3.727v61.113c0 1.458.592 2.773 1.556 3.727a5.236 5.236 0 003.727 1.556h12.9a5.244 5.244 0 003.715-1.545l.011-.011a5.268 5.268 0 001.545-3.727V17.64a5.249 5.249 0 00-1.545-3.726 5.234 5.234 0 00-3.726-1.556zm-70.561 40.004c2.641-14.26 4.822-28.858 7.223-43.194h36.858v80.063h-34.085l-9.273-25.657c-1.83-5.14-1.457-7.19-.723-11.212zm9.733 37.614h34.721a.377.377 0 00.373-.372V8.795a.368.368 0 00-.373-.361h-37.549a.364.364 0 00-.362.307l-7.266 43.49c-.768 4.142-1.151 6.257.756 11.584l9.338 25.876a.375.375 0 00.362.285zm69.234-2.016a.37.37 0 00.373-.373V8.795a.368.368 0 00-.373-.361H337.6a.367.367 0 00-.372.361v78.792a.37.37 0 00.372.373h29.724z" fill="#000"/></svg>