<svg width="343" height="417" fill="none" xmlns="http://www.w3.org/2000/svg"><path d="M278.085 397.96a12.785 12.785 0 01-9.082 3.761 12.764 12.764 0 01-9.066-3.761 12.773 12.773 0 01-3.761-9.074c0-3.545 1.435-6.747 3.761-9.074a12.797 12.797 0 019.066-3.761c3.553 0 6.755 1.442 9.082 3.761a12.815 12.815 0 013.762 9.074c0 3.544-1.443 6.755-3.762 9.074zM48.235 9.35c.392-1.002 1.31-1.777 2.735-1.777 1.427 0 2.336.775 2.744 1.776.15.392.234.817.225 1.243 0 .425-.075.85-.225 1.242-.4.993-1.317 1.768-2.744 1.768-1.426 0-2.343-.775-2.735-1.768a3.33 3.33 0 010-2.485zm2.735 4.745c1.66 0 2.727-.91 3.194-2.077.184-.459.267-.943.267-1.426 0-.492-.083-.976-.267-1.426C53.697 7.99 52.63 7.08 50.97 7.08s-2.727.909-3.194 2.085c-.183.45-.275.934-.275 1.426 0 .483.092.976.275 1.426.467 1.167 1.535 2.077 3.194 2.077zm220.702 235.48c-.309.767-1.009 1.367-2.119 1.367-1.1 0-1.801-.6-2.11-1.367a2.521 2.521 0 01-.183-.96c0-.333.058-.658.183-.967.309-.767 1.01-1.359 2.11-1.359 1.11 0 1.81.592 2.119 1.359.117.309.175.634.175.967 0 .326-.058.659-.175.96zm.458-2.102c-.383-.943-1.234-1.677-2.577-1.677-1.334 0-2.193.734-2.568 1.677a2.96 2.96 0 00-.217 1.142c0 .392.067.784.217 1.143.375.942 1.234 1.676 2.568 1.676 1.343 0 2.194-.734 2.577-1.676.142-.359.209-.751.209-1.143s-.067-.784-.209-1.142zm-4.687-54.552c.309-.767 1.01-1.368 2.11-1.368 1.11 0 1.81.601 2.119 1.368.117.3.175.634.175.959 0 .334-.058.667-.175.967-.309.768-1.009 1.368-2.119 1.368-1.1 0-1.801-.6-2.11-1.368a2.524 2.524 0 01-.183-.967c0-.325.058-.659.183-.959zm2.11 3.786c1.343 0 2.194-.734 2.577-1.676.142-.367.217-.759.217-1.151 0-.384-.075-.776-.217-1.143-.383-.942-1.234-1.676-2.577-1.676-1.334 0-2.193.734-2.568 1.676-.15.367-.217.759-.217 1.143 0 .392.067.784.217 1.151.375.942 1.234 1.676 2.568 1.676zm-2.11-58.513c.309-.767 1.01-1.368 2.11-1.368 1.11 0 1.81.601 2.119 1.368.117.3.175.634.175.959 0 .334-.058.659-.175.959-.309.776-1.009 1.368-2.119 1.368-1.1 0-1.801-.592-2.11-1.368a2.484 2.484 0 01-.183-.959c0-.325.058-.659.183-.959zm2.11 3.778c1.343 0 2.194-.734 2.577-1.677a3.115 3.115 0 000-2.285c-.383-.942-1.234-1.676-2.577-1.676-1.334 0-2.193.734-2.568 1.676-.15.359-.217.759-.217 1.143 0 .392.067.784.217 1.142.375.943 1.234 1.677 2.568 1.677zm-192.845.684c-.309.767-1.01 1.367-2.11 1.367-1.11 0-1.81-.6-2.119-1.367a2.688 2.688 0 01-.183-.959c0-.334.066-.668.183-.968.309-.759 1.01-1.368 2.118-1.368 1.101 0 1.802.609 2.11 1.368.126.3.184.634.184.968 0 .325-.058.658-.183.959zm-2.11-3.787c-1.335 0-2.194.743-2.578 1.677a3.203 3.203 0 00-.216 1.151c0 .383.075.784.216 1.142.384.943 1.243 1.677 2.578 1.677 1.334 0 2.193-.734 2.568-1.677a3.151 3.151 0 000-2.293c-.375-.934-1.234-1.677-2.569-1.677zm2.11 58.514c-.309.767-1.01 1.368-2.11 1.368-1.11 0-1.81-.601-2.119-1.368a2.65 2.65 0 01-.183-.959c0-.326.066-.659.183-.959.309-.768 1.01-1.368 2.118-1.368 1.101 0 1.802.6 2.11 1.368.126.3.184.633.184.959 0 .333-.058.659-.183.959zm-2.11-3.778c-1.335 0-2.194.734-2.578 1.676a3.129 3.129 0 000 2.285c.384.943 1.243 1.677 2.578 1.677 1.334 0 2.193-.734 2.568-1.677a3.122 3.122 0 000-2.285c-.375-.942-1.234-1.676-2.569-1.676zm2.11 58.513c-.309.767-1.01 1.368-2.11 1.368-1.11 0-1.81-.601-2.119-1.368a2.717 2.717 0 01-.183-.959c0-.333.066-.667.183-.967.309-.768 1.01-1.368 2.118-1.368 1.101 0 1.802.6 2.11 1.368.126.3.184.634.184.967 0 .325-.058.651-.183.959zm-2.11-3.786c-1.335 0-2.194.734-2.578 1.676a3.203 3.203 0 00-.216 1.151c0 .384.075.776.216 1.143.384.934 1.243 1.676 2.578 1.676 1.334 0 2.193-.742 2.568-1.676.142-.367.217-.759.217-1.143 0-.392-.075-.784-.217-1.151-.375-.942-1.234-1.676-2.569-1.676zM297.65 365.017c-.192.484-.634.859-1.335.859-.7 0-1.142-.375-1.334-.859l-.008-.009a1.81 1.81 0 01-.109-.6c0-.209.042-.425.117-.609.192-.484.634-.867 1.334-.867.701 0 1.143.383 1.335.867.075.192.108.4.108.609 0 .208-.033.417-.108.609zm.459-1.401c-.267-.659-.859-1.168-1.794-1.168-.934 0-1.526.509-1.793 1.168-.1.25-.15.525-.15.792 0 .259.05.534.142.776l.008.016c.267.659.859 1.168 1.793 1.168.935 0 1.527-.509 1.794-1.168.1-.25.15-.525.15-.792s-.05-.534-.142-.784l-.008-.008zm-251.61.183c.192-.492.634-.867 1.334-.867.701 0 1.143.375 1.335.867l.008.008c.067.184.109.392.109.601 0 .208-.042.425-.117.609-.192.484-.634.859-1.334.859-.701 0-1.143-.375-1.335-.859v-.009a1.596 1.596 0 01-.108-.6c0-.217.033-.417.108-.609zm-.459 1.401c.267.659.868 1.168 1.794 1.168.934 0 1.526-.509 1.793-1.168.1-.25.15-.525.15-.792s-.05-.534-.142-.784l-.008-.017c-.267-.65-.86-1.167-1.794-1.167-.925 0-1.526.517-1.793 1.167-.1.259-.15.534-.15.801 0 .259.05.534.15.784v.008zm29.74 26.421c.076-.166.15-.317.226-.483.117-.251.233-.509.334-.759a.781.781 0 01.392-.392c.116-.05.25-.067.375-.05a7.63 7.63 0 01-.5 1.843 7.832 7.832 0 01-.96 1.66c-.433-.334-.208-1.026.134-1.819zm1.335-3.736c-.542.067-.876-.584-1.184-1.376-.067-.175-.125-.342-.192-.5a13.748 13.748 0 00-.292-.776.722.722 0 010-.559.788.788 0 01.225-.308 7.466 7.466 0 011.443 3.519zm-2.06 6.38c-.158.159-.333.267-.5.409-.134-.184-.275-.384-.484-.476a1.226 1.226 0 00-.926.009c-.258.108-.517.2-.759.292-.175.066-.358.133-.508.192-1.035.4-1.81.867-1.643 1.743-.184.016-.367.066-.567.066-.2 0-.392-.05-.593-.066a1.239 1.239 0 00-.05-.676 1.24 1.24 0 00-.658-.659c-.259-.108-.5-.217-.743-.325-.166-.083-.342-.159-.492-.225-1.017-.442-1.901-.667-2.402.075-.141-.125-.3-.225-.433-.359-.159-.15-.276-.333-.409-.5.184-.134.384-.267.467-.476a1.209 1.209 0 000-.934 17.75 17.75 0 01-.292-.759c-.067-.175-.133-.35-.192-.5-.4-1.034-.867-1.818-1.751-1.643-.008-.192-.05-.375-.05-.567 0-.2.042-.392.058-.592.225.041.459.033.676-.05.283-.125.525-.359.659-.659.1-.259.217-.509.325-.742.083-.176.158-.342.225-.501.45-1.009.659-1.893-.075-2.402.117-.142.225-.3.359-.433.15-.151.333-.267.492-.409.141.192.275.384.483.475.292.117.618.125.926 0 .267-.108.509-.2.767-.292.176-.066.35-.133.5-.2 1.035-.392 1.819-.867 1.644-1.743.192-.017.367-.058.559-.058.208 0 .4.041.6.058-.042.234-.042.467.05.676.117.292.35.533.659.659.259.108.5.225.742.333.175.075.342.159.5.225 1.01.442 1.894.659 2.394-.083.142.125.3.225.442.359.15.158.267.333.409.5-.192.133-.384.267-.475.484a1.224 1.224 0 000 .925c.108.259.2.509.291.759.067.176.134.351.192.509.4 1.026.876 1.81 1.752 1.643.016.184.058.367.058.559 0 .2-.05.392-.058.6a1.19 1.19 0 00-.684.042 1.245 1.245 0 00-.65.667c-.11.259-.226.501-.334.743-.075.166-.159.341-.225.492-.443 1.009-.66 1.901.083 2.401-.125.142-.225.301-.359.434zm-4.378 2.068c-.067-.542.584-.875 1.376-1.184.175-.075.342-.133.5-.192.267-.1.534-.2.776-.3a.737.737 0 01.55 0c.125.05.234.125.309.234-.517.392-1.076.7-1.66.942a7.488 7.488 0 01-1.851.5zm-5.555-1.476c.334-.433 1.026-.208 1.81.142.167.075.325.142.484.217.258.117.517.242.759.334a.735.735 0 01.392.4c.05.117.075.25.058.375a7.22 7.22 0 01-1.851-.509 7.08 7.08 0 01-1.652-.959zm-2.894-4.962c.542-.075.876.584 1.185 1.376.066.175.125.334.191.501.092.258.192.533.3.775a.74.74 0 010 .551.844.844 0 01-.233.308 7.309 7.309 0 01-.942-1.66 7.245 7.245 0 01-.5-1.851zm1.335-3.753c-.075.175-.15.334-.225.492-.117.259-.234.517-.334.759a.724.724 0 01-.767.442 7.62 7.62 0 01.5-1.843c.25-.592.575-1.151.96-1.651.433.325.208 1.025-.134 1.801zm5.104-4.695c.066.542-.576.867-1.376 1.176-.167.075-.334.133-.5.191-.268.1-.535.201-.776.301a.765.765 0 01-.56 0 .795.795 0 01-.3-.226 6.876 6.876 0 011.66-.95 7.474 7.474 0 011.852-.492zm5.554 1.467c-.333.434-1.026.209-1.81-.141a8.839 8.839 0 01-.483-.217c-.259-.117-.517-.242-.76-.334a.721.721 0 01-.391-.392c-.05-.117-.075-.25-.05-.383.642.091 1.26.266 1.835.508.6.251 1.159.576 1.66.959zm-4.553-2.126a8.046 8.046 0 00-5.722 2.377 8.046 8.046 0 00-2.377 5.721c0 2.235.91 4.262 2.377 5.729a8.04 8.04 0 005.722 2.369c2.243 0 4.27-.901 5.73-2.369a8.079 8.079 0 002.376-5.729 8.045 8.045 0 00-2.377-5.721 8.051 8.051 0 00-5.73-2.377zm10.591 18.681a14.925 14.925 0 01-10.583 4.387 14.895 14.895 0 01-10.584-4.387 14.91 14.91 0 01-4.386-10.583 14.93 14.93 0 014.386-10.584 14.932 14.932 0 0110.584-4.386 14.962 14.962 0 0114.962 14.97c0 4.137-1.676 7.873-4.379 10.583zm-10.583-26.037a15.432 15.432 0 00-15.462 15.454c0 4.27 1.726 8.14 4.52 10.934a15.424 15.424 0 0010.942 4.528 15.42 15.42 0 0010.934-4.528 15.418 15.418 0 004.52-10.934 15.432 15.432 0 00-15.454-15.454zm2.66 16.663c-.383.968-1.276 1.727-2.66 1.727-1.393 0-2.285-.759-2.669-1.727a3.276 3.276 0 01-.225-1.209c0-.409.075-.826.225-1.209.384-.968 1.276-1.718 2.669-1.718 1.384 0 2.277.75 2.66 1.718a3.341 3.341 0 010 2.418zm-2.66-4.629c-1.626 0-2.669.893-3.128 2.027a3.785 3.785 0 00-.258 1.393c0 .475.083.951.258 1.393.46 1.142 1.502 2.035 3.128 2.035 1.626 0 2.66-.893 3.12-2.035.174-.442.266-.918.266-1.393 0-.476-.092-.951-.267-1.393-.459-1.134-1.493-2.027-3.12-2.027zm9.074 12.494a12.786 12.786 0 01-9.082 3.761 12.796 12.796 0 01-9.074-3.761 12.804 12.804 0 01-3.762-9.074c0-3.545 1.443-6.747 3.762-9.074a12.829 12.829 0 019.074-3.761 12.82 12.82 0 019.082 3.761 12.81 12.81 0 013.753 9.074c0 3.544-1.435 6.755-3.753 9.074zm-9.082-22.401a13.29 13.29 0 00-9.425 3.903 13.3 13.3 0 00-3.894 9.424c0 3.686 1.484 7.014 3.894 9.424a13.295 13.295 0 009.425 3.903c3.686 0 7.014-1.493 9.432-3.903a13.279 13.279 0 003.903-9.424c0-3.678-1.493-7.006-3.903-9.424a13.31 13.31 0 00-9.432-3.903zm-58.18 13.26a1.946 1.946 0 01-1.376.567c-.5 0-1.001-.192-1.376-.567l-3.862-3.861c-.65-.651-.709-1.426-.442-2.06.109-.242.267-.476.467-.676a2.19 2.19 0 01.676-.458c.634-.267 1.392-.209 2.043.433l3.87 3.87a1.945 1.945 0 010 2.744v.008zm.35.35c.475-.475.709-1.1.709-1.726a2.43 2.43 0 00-.709-1.726l-3.861-3.862-.009-.008c-.817-.809-1.793-.876-2.593-.534a2.433 2.433 0 00-.826.567 2.513 2.513 0 00-.567.834c-.342.801-.267 1.777.55 2.594l3.853 3.861a2.429 2.429 0 001.727.709 2.41 2.41 0 001.718-.709h.008zm152.13-30.374h1.985c-.083.142-.192.284-.192.467 0 .667-.008 1.159-.017 1.576-.016 1.11-.025 1.71.151 2.077h-1.927v-4.12zm4.078 0v4.12h-1.226c-.242-.017-.408-.058-.467-.175-.142-.242-.133-.809-.117-1.902a81.16 81.16 0 00.017-1.576c0-.125.05-.25.134-.325a.488.488 0 01.333-.142h1.326zm-1.326-.492h-2.994a.25.25 0 00-.25.25v4.612a.25.25 0 00.25.251h4.562a.25.25 0 00.25-.251v-4.612a.25.25 0 00-.25-.25h-1.568zm35.695 4.612h-1.926c.175-.367.175-.967.15-2.077a76.32 76.32 0 01-.017-1.576c0-.183-.1-.325-.183-.467h1.976v4.12zm-4.07-4.12h1.327a.47.47 0 01.458.467c0 .559.017 1.118.017 1.576.017 1.093.025 1.66-.117 1.902-.058.117-.225.158-.467.175h-1.218v-4.12zm1.327-.492h-1.577a.257.257 0 00-.25.25v4.612c0 .134.117.251.25.251.309 0 .517 0 .693.008.083 0 .116-.008.2-.008h3.678c.133 0 .25-.117.25-.251v-4.612a.257.257 0 00-.25-.25h-2.994zm-32.943 24.82c0 .15-.009.292-.009.4 0 .125-.05.242-.133.326l-.009.016a.49.49 0 01-.325.125h-7.648c-.417 0-.483-.442-.483-.925 0-.159.008-.284.008-.409.008-.142.008-.292.008-.392 0-.134.059-.25.142-.334a.462.462 0 01.325-.133h7.648c.426 0 .484.434.484.917 0 .159 0 .284-.008.409zm-.476-1.827h-7.648c-.267 0-.5.117-.675.292a.933.933 0 00-.284.676c0 .142-.008.258-.008.384-.008.15-.008.308-.008.417 0 .75.125 1.417.975 1.417h7.648c.259 0 .492-.1.667-.267l.017-.016a.996.996 0 00.284-.676c0-.15 0-.267.008-.383 0-.151.008-.309.008-.426 0-.742-.133-1.418-.984-1.418zm-10.817 1.827c-.008.15-.008.292-.008.4a.473.473 0 01-.142.326l-.008.016a.472.472 0 01-.317.125h-7.656c-.417 0-.476-.442-.476-.925 0-.159 0-.284.009-.409 0-.142.008-.292.008-.392 0-.134.05-.25.133-.334a.465.465 0 01.326-.133h7.656c.417 0 .484.434.484.917 0 .159-.009.284-.009.409zm-.475-1.827h-7.656a.935.935 0 00-.668.292.908.908 0 00-.291.676v.384c-.009.15-.017.308-.017.417 0 .75.133 1.417.976 1.417h7.656a.96.96 0 00.667-.267l.008-.016a.96.96 0 00.284-.676c0-.15 0-.267.008-.383.009-.151.009-.309.009-.426 0-.742-.126-1.418-.976-1.418zm11.768-2.727c0 .15-.009.292-.009.401 0 .125-.05.241-.133.325l-.009.017a.49.49 0 01-.325.125h-7.648c-.417 0-.483-.442-.483-.926 0-.159.008-.284.008-.409.008-.15.008-.292.008-.392a.473.473 0 01.467-.467h7.648c.426 0 .484.434.484.918 0 .158 0 .283-.008.408zm-.476-1.826h-7.648c-.267 0-.5.108-.675.292a.93.93 0 00-.284.675c0 .142-.008.259-.008.376-.008.158-.008.308-.008.425 0 .751.125 1.418.975 1.418h7.648c.259 0 .492-.1.667-.267l.017-.017a.995.995 0 00.284-.675c0-.151 0-.267.008-.384 0-.158.008-.309.008-.425 0-.743-.133-1.418-.984-1.418zm-10.817 1.826c-.008.15-.008.292-.008.401a.47.47 0 01-.142.325l-.008.017a.472.472 0 01-.317.125h-7.656c-.417 0-.476-.442-.476-.926 0-.159 0-.284.009-.409 0-.15.008-.292.008-.392 0-.133.05-.25.133-.333a.461.461 0 01.326-.134h7.656c.417 0 .484.434.484.918 0 .158-.009.283-.009.408zm-.475-1.826h-7.656a.9.9 0 00-.668.292.906.906 0 00-.291.675v.376a8.158 8.158 0 00-.017.425c0 .751.133 1.418.976 1.418h7.656a.96.96 0 00.667-.267l.008-.017a.96.96 0 00.284-.675c0-.151 0-.267.008-.384.009-.158.009-.309.009-.425 0-.743-.126-1.418-.976-1.418zm11.768-2.694c0 .142-.009.292-.009.392a.47.47 0 01-.133.334l-.009.008a.454.454 0 01-.325.125h-7.648c-.417 0-.483-.425-.483-.917 0-.159.008-.284.008-.409.008-.15.008-.292.008-.4a.473.473 0 01.467-.459h7.648c.426 0 .484.425.484.917 0 .159 0 .284-.008.409zm-.476-1.826h-7.648c-.267 0-.5.116-.675.283a.96.96 0 00-.284.676c0 .15-.008.267-.008.383-.008.15-.008.309-.008.426 0 .75.125 1.417.975 1.417h7.648a1 1 0 00.667-.266l.017-.017a1 1 0 00.284-.684c0-.142 0-.259.008-.375 0-.15.008-.309.008-.426 0-.742-.133-1.417-.984-1.417zm-10.817 1.826c-.008.142-.008.292-.008.392 0 .133-.059.25-.142.334l-.008.008a.437.437 0 01-.317.125h-7.656c-.417 0-.476-.425-.476-.917 0-.159 0-.284.009-.409 0-.15.008-.292.008-.4 0-.125.05-.242.133-.326a.465.465 0 01.326-.133h7.656c.417 0 .484.425.484.917 0 .159-.009.284-.009.409zm-.475-1.826h-7.656a.96.96 0 00-.668.283.935.935 0 00-.291.676v.383c-.009.15-.017.309-.017.426 0 .75.133 1.417.976 1.417h7.656c.258 0 .492-.108.667-.266l.008-.017a.965.965 0 00.284-.684c0-.142 0-.259.008-.375.009-.15.009-.309.009-.426 0-.742-.126-1.417-.976-1.417zm11.768-2.694c0 .142-.009.292-.009.392 0 .133-.05.25-.133.333l-.009.009a.49.49 0 01-.325.125h-7.648c-.417 0-.483-.434-.483-.918 0-.158.008-.283.008-.408.008-.15.008-.292.008-.401a.47.47 0 01.142-.325.435.435 0 01.325-.142h7.648c.426 0 .484.434.484.926 0 .159 0 .284-.008.409zm-.476-1.827h-7.648c-.267 0-.5.109-.675.284a.96.96 0 00-.284.675c0 .15-.008.267-.008.384-.008.15-.008.309-.008.425 0 .743.125 1.418.975 1.418h7.648a.995.995 0 00.667-.267l.017-.016c.167-.176.284-.417.284-.684 0-.142 0-.259.008-.384 0-.15.008-.309.008-.417 0-.751-.133-1.418-.984-1.418zm-10.817 1.827c-.008.142-.008.292-.008.392 0 .133-.059.25-.142.333l-.008.009a.472.472 0 01-.317.125h-7.656c-.417 0-.476-.434-.476-.918 0-.158 0-.283.009-.408 0-.15.008-.292.008-.401 0-.125.05-.241.133-.325a.437.437 0 01.326-.142h7.656c.417 0 .484.434.484.926 0 .159-.009.284-.009.409zm-.475-1.827h-7.656a.928.928 0 00-.668.284.934.934 0 00-.291.675v.384c-.009.15-.017.309-.017.425 0 .743.133 1.418.976 1.418h7.656a.997.997 0 00.667-.267l.008-.016a.967.967 0 00.284-.684c0-.142 0-.259.008-.384.009-.15.009-.309.009-.417 0-.751-.126-1.418-.976-1.418zm72.224-14.044c-.008.642-.025 1.426-.025 2.277 0 .492-.5.567-1.076.567h-.283c-.009-.009-.009-.025-.017-.025l-.375.008c-.175 0-.35-.025-.501-.075-.041-.017-.075-.025-.108-.042-.15-.083-.267-.2-.267-.433v-4.287c.092-.651.4-.676 1.243-.676h.008c.008 0 .008-.016.008-.016.776-.009 1.151-.017 1.285.275.15.333.133 1.051.108 2.427zm-2.16 8.657a1.752 1.752 0 01-1.243.508h-17.338c-.484 0-.918-.191-1.235-.508a1.755 1.755 0 01-.517-1.235v-14.703c0-.484.2-.926.517-1.243a1.734 1.734 0 011.235-.509h17.338c.484 0 .926.192 1.243.509.317.317.509.759.509 1.243v4.095c-.134 0-.259.008-.459.008-.033 0-.058.034-.1.034-.584.066-.842.283-.934.984v.108a7.579 7.579 0 00-.042.851c0 .267.009.659.017 1.126.008.608.025 1.359.025 2.352 0 .758.484.967.992 1.017.017 0 .026.017.042.017.167 0 .309.008.459.008v4.103c0 .476-.192.918-.509 1.235zm1.009-11.843v-4.095c0-.626-.258-1.184-.667-1.593a2.2 2.2 0 00-1.585-.659h-17.338a2.246 2.246 0 00-2.244 2.252v14.703a2.232 2.232 0 002.244 2.235h17.338a2.26 2.26 0 001.585-.65 2.24 2.24 0 00.667-1.585v-4.086h.05c.843 0 1.577-.142 1.577-1.059 0-.96.008-1.677.016-2.277.025-1.435.034-2.194-.158-2.636-.234-.525-.667-.559-1.485-.55zm112.082 34.486l-3.862 3.861a1.948 1.948 0 01-2.744 0l-.008-.008a1.983 1.983 0 01-.559-1.368c0-.5.192-1.001.567-1.376l3.862-3.861.008-.009c.651-.642 1.41-.7 2.043-.433.251.108.484.266.676.467.2.191.359.425.459.675.275.634.216 1.401-.442 2.052zm.333-3.078a2.547 2.547 0 00-.834-.567c-.8-.342-1.768-.275-2.585.534l-3.87 3.87a2.439 2.439 0 000 3.452 2.426 2.426 0 001.726.709c.618 0 1.251-.233 1.718-.709l3.862-3.861c.817-.817.892-1.793.55-2.602a2.554 2.554 0 00-.567-.826zm-3.236 10.751h-3.719l-3.186-3.195 1.493-.9a.239.239 0 00.116-.209v-7.573l3.545-3.536 2.911.009 5.637 4.895.017 3.903-6.814 6.606zm-11.843 3.786c-1.142-.325-2.043-1.218-2.818-2.31l3.469-2.094 3.753 3.27c-1.81 1.192-3.244 1.467-4.404 1.134zm4.829-1.41l-3.736-3.261 3.403-2.043 3.161 3.144-2.828 2.16zm-14.344-1.484V327.12h15.57v61.065l-15.57 9.383v-4.045zm-17.323.734c.259-1.343.409-2.719.467-4.12.042-.05.125-.059.125-.125v-2.244c0-.066-.083-.083-.125-.125a28.739 28.739 0 00-.617-4.829c.017-.05.084-.066.067-.116l-.576-2.169c-.016-.042-.075-.025-.1-.058a28.846 28.846 0 00-1.893-4.537c0-.05.059-.084.034-.134l-1.118-1.943c-.033-.05-.1-.016-.15-.042a30.992 30.992 0 00-.826-1.209l16.847 10.851a.065.065 0 00.033.008c.042.042.059.117.125.117.042 0 .042-.059.076-.075h4.461v.5h-3.227c-.767 0-1.259.425-1.476.967a1.74 1.74 0 00-.125.659c0 .217.041.442.125.651.217.542.709.967 1.476.967h3.227v3.278h-3.227c-.767 0-1.259.425-1.476.967a1.77 1.77 0 000 1.31c.217.542.709.967 1.476.967h3.227v.484h-16.83zm-66.603-3.486v-15.363h14.403l-.233.392c-.025.05.033.084.033.142a28.446 28.446 0 00-1.893 4.529c-.025.033-.083.016-.092.058l-.584 2.169c-.016.05.05.066.067.116a28.739 28.739 0 00-.617 4.829c-.042.042-.117.059-.117.125v2.244c0 .058.075.075.117.117.017.216.017.433.033.642H229.93zm-33.16 0v-58.622h3.111c.042.017.058.083.108.067l.251-.067h29.198v35.695c-.033.042-.1.05-.1.1 0 .067.067.067.1.109v6.905c-.108.025-.208.092-.208.2 0 .117.1.175.208.209v15.404H196.77zm-26.571-58.864v-26.988h26.071v85.852h-26.071v-58.864zm-33.16 16.989v-16.747h32.668v58.622h-32.668v-41.875zm-39.373 41.233c.042-.042.117-.059.117-.117v-2.244c0-.066-.075-.083-.117-.125-.075-1.651-.267-3.261-.617-4.829.016-.05.083-.066.075-.116l-.584-2.169c-.017-.042-.067-.025-.1-.058-.417-1.326-.96-2.594-1.551-3.828h28.264c.1 0 .184-.059.225-.142l2.277-3.953h10.892v18.223H97.633c.008-.209.025-.426.033-.642zm-68.03 4.136v-.492h3.228c.768 0 1.26-.425 1.476-.967a1.782 1.782 0 000-1.31c-.217-.542-.709-.967-1.476-.967h-3.227v-3.278h3.227c.768 0 1.26-.425 1.476-.967a1.772 1.772 0 000-1.31c-.217-.542-.709-.967-1.476-.967h-3.227v-.734l16.22-9.366-1.092 1.893c-.025.05.034.084.034.134a28.923 28.923 0 00-1.893 4.537c-.026.033-.084.016-.092.058l-.592 2.169c-.009.05.058.066.075.116a28.75 28.75 0 00-.617 4.829c-.042.042-.117.059-.117.125v2.244c0 .066.075.075.117.117.066 1.409.208 2.793.467 4.136h-12.51zm-.491 3.303l-15.571-9.383V327.12h15.57v70.448zm-9.425-1.076c-1.042.367-2.343.108-4.053-1.184l3.344-3.27 3.437 2.069c-.835 1.067-1.685 2.018-2.728 2.385zm-4.478-1.46l-3.253-2.193 3.144-3.136 3.445 2.077-3.336 3.252zm-14.27-9.007l.017-3.903 5.63-4.895 2.918-.009 3.545 3.536v7.573a.24.24 0 00.116.209l1.493.909-3.186 3.186h-3.72l-6.813-6.606zm28.665 4.996h3.227c.534 0 .867.292 1.018.659.058.15.091.308.091.467 0 .167-.033.325-.091.475-.15.367-.484.651-1.018.651h-3.227v-2.252zm0-6.522h3.227c.534 0 .867.292 1.018.659.058.15.091.308.091.475 0 .159-.033.317-.091.467-.15.367-.484.659-1.018.659h-3.227v-2.26zm4.803-58.121h4.796v5.229h-2.277a.244.244 0 00-.242.25v31.984c0 .142.109.25.242.25h5.096v11.443l-7.615 4.403v-53.559zm5.296-3.428h1.56v39.156h-1.56V322.95zm2.06-18.031h127.911v2.218H44.298a.25.25 0 00-.25.242v54.727h-2.252v-57.187zm102.424-27.414l10.667 2.861 16.238 4.345-73.326 19.649-25.92-6.947a.242.242 0 00-.3.175l-1.627 6.071-1.568-5.829 75.836-20.325zm-72.233-34.286l25.746 6.906 74.276 19.899 27.855 7.464 75.903 20.342-1.768 6.597h-27.381L68.384 256.672l3.603-13.453zm-2.035 5.713l-1.568-5.838 75.836-20.316 26.905 7.206-73.326 19.641-25.92-6.939a.244.244 0 00-.3.166l-1.627 6.08zm175.449.951l-73.326 19.649-73.325-19.649 73.325-19.649 73.326 19.649zM71.987 188.492l25.746 6.906 74.276 19.891 27.855 7.472 75.903 20.333-1.802 6.731-1.801 6.722-203.78-54.602 3.603-13.453zm-2.035 5.713l-1.568-5.846 75.836-20.316 16.263 4.353 10.642 2.852-73.326 19.649-25.92-6.947a.25.25 0 00-.3.175l-1.627 6.08zm2.035-60.448l25.746 6.905 74.276 19.9 27.855 7.464 75.903 20.333-1.802 6.73-1.801 6.722-100.022-26.796-25.479-6.831-78.279-20.975 3.603-13.452zm-2.035 5.713l-1.568-5.838 75.836-20.316 16.138 4.32 10.767 2.885-73.326 19.649-25.92-6.947a.237.237 0 00-.3.175l-1.627 6.072zm-.033-52.7h1.868c0 .066-.017.133-.017.2 0 .675.25 1.317.668 1.81a2.833 2.833 0 002.16 1.008 2.833 2.833 0 002.16-1.01 2.85 2.85 0 00.658-1.809c0-.066-.008-.133-.016-.2h23.469l174.898 46.863-1.802 6.73-1.801 6.722-25.746-6.897-74.276-19.908-25.479-6.822-78.279-20.975 1.535-5.713zm7.005.2a2.33 2.33 0 01-.55 1.492 2.284 2.284 0 01-1.776.826 2.21 2.21 0 01-.41-.033 2.332 2.332 0 01-1.375-.793 2.326 2.326 0 01-.542-1.493c0-.066 0-.133.008-.2h4.637c0 .067.008.134.008.2zm-22-3.086h235.521l-11.409 2.385H66.975l-12.051-2.385zm-18.907-10.6a.27.27 0 00-.117.208v3.144h-3.027V62.642h5.429v9.049l-2.285 1.593zm1.734 13.81h-2.36l-2.518-4.353v-5.604h3.185l1.693 1.41v8.548zM32.873.493h278.405V62.15h-3.027V3.76a.242.242 0 00-.242-.242H36.15a.244.244 0 00-.25.242v58.39h-3.027V.492zM308.76 87.095h-2.36v-8.549l1.693-1.41h3.185v5.605l-2.518 4.354zm-2.911-15.404v-9.05h5.429v13.995h-3.027v-3.144a.269.269 0 00-.117-.208l-2.285-1.593zM36.392 36.588h1.91V62.15h-1.91V36.588zm1.91-4.02H36.4V4.012h1.902v28.556zm126.91.25v33.235h-3.028V4.012h3.028v28.806zm38.956 0v33.235h-3.019V4.012h3.019v28.806zm98.162 33.485v-3.661h3.027v12.51h-3.027v-8.849zm-.492-3.903v3.653h-92.107v-3.528a.257.257 0 00-.251-.25h-4.82V36.588h97.178V62.4zM165.704 36.588h34.944v29.465h-34.944V36.588zm3.97-1.86c0 .375-.159.709-.401.959-.25.25-.584.4-.959.4h-2.61v-3.019l.842-.025c.3-.008.576-.017.884-.017 1.343 0 2.244.209 2.244 1.702zm4.67 1.36h-4.796c.025-.017.051-.026.067-.05.342-.334.551-.801.551-1.31 0-.85-.242-1.343-.626-1.66h4.804v3.02zm26.304 0h-25.804v-3.02h25.804v3.02zm-43.526 30.215v-3.528h4.57v12.377h-4.57v-8.849zm4.57-4.028h-4.82a.249.249 0 00-.242.25v3.528H42.313V36.588h119.379v25.687zM40.762 75.152h-1.968v-12.51h3.027v12.51h-1.059zm1.551-8.607h114.308v8.607H42.313v-8.607zm119.871 8.607v-8.607h41.984v8.607h-41.984zm42.476 0V62.775h4.57v12.377h-4.57zm5.071-8.607h92.107v8.607h-92.107v-8.607zm96.118-29.957h1.91V62.15h-1.91V36.588zm1.91-4.02h-1.91V4.012h1.91v28.556zm-42.326.5h36.646a.251.251 0 00.251-.25V4.012h3.027v28.806c0 .133.108.25.242.25h2.16v3.02h-2.16a.244.244 0 00-.242.25V62.15h-3.027V36.337a.246.246 0 00-.251-.25H204.66v-3.019h57.254a.25.25 0 00.25-.25V4.012h3.028v28.806c0 .133.108.25.241.25zm36.405-.5h-36.154V4.012h36.154v28.556zm-40.166 0h-57.004V4.012h57.004v28.556zM200.648 4.012v28.556h-32.334c-.008 0-.008.016-.017.016-.275-.025-.55-.058-.867-.058-.25 0-.567.017-.901.025-.25.008-.533.008-.825.017V4.012h34.944zm-38.956 28.556H94.213V4.012h67.479v28.556zM41.822 7.33v25.488c0 .133.116.25.25.25h48.38a.25.25 0 00.242-.25V4.012h3.027v28.806c0 .133.109.25.25.25h67.721v3.02H42.072a.25.25 0 00-.25.25V62.15h-3.028V36.337a.244.244 0 00-.242-.25h-2.16v-3.019h2.16a.25.25 0 00.242-.25V4.012h3.027V7.33zm15.937 2.936l-6.255-6.255h6.255v6.255zM42.313 7.58c1.293.083 2.119.826 2.494 1.768.158.392.234.817.234 1.235 0 .433-.075.859-.234 1.242-.375.934-1.2 1.685-2.494 1.768V7.581zm47.889-3.57v28.557H42.313V18.215H58.01a.25.25 0 00.25-.242V4.012h31.943zm-39.398 0l6.955 6.956v6.755H42.313v-3.66c1.518-.092 2.51-.943 2.953-2.044.183-.459.275-.943.267-1.434 0-.484-.084-.968-.267-1.418-.442-1.11-1.435-1.96-2.953-2.052V4.012h8.49zM38.868 75.645h266.413l-2.077 7.74H40.945l-2.076-7.74zM271.88 86.969c0 .56-.2 1.085-.542 1.493a2.33 2.33 0 01-4.111-1.493c0-.066.008-.133.008-.2h4.645v.2zm3.887 5.513l-75.836 20.325-15.295-4.103-11.61-3.111 70.256-18.824h23.469c-.008.067-.017.134-.017.2 0 .676.251 1.318.659 1.81a2.887 2.887 0 001.677.968c.158.025.325.041.483.041a2.83 2.83 0 002.16-1.01 2.813 2.813 0 00.668-1.809c0-.066-.017-.133-.017-.2h1.876l1.527 5.713zM102.77 86.77h138.611l-69.306 18.565L102.77 86.77zm142.631 53.652l-73.326 19.649-73.325-19.649 73.325-19.641 73.326 19.641zm30.366 6.788l-75.836 20.325-3.236-.867-23.669-6.347 73.326-19.641 25.92 6.947a.263.263 0 00.309-.175l1.626-6.071 1.56 5.829zm-30.366 47.947l-73.326 19.641-73.325-19.641 73.325-19.649 73.326 19.649zm30.366 6.789l-75.836 20.316-5.963-1.593-20.942-5.613 73.326-19.649 25.92 6.947a.255.255 0 00.309-.175l1.626-6.071 1.56 5.838zm0 54.727l-75.836 20.324-26.905-7.214 73.326-19.64 25.92 6.947a.264.264 0 00.309-.175l1.626-6.072 1.56 5.83zm31.066 66.028v39.406h-2.252V307.38a.25.25 0 00-.25-.242H196.77v-2.218h110.063v17.78zm2.06 39.406h-1.568V322.95h1.568v39.156zm-63.275 12.26l.325.167c.192.108.384.208.559.308.508.292.859.576.667.901l-.092.175c-.333.576-.484.843-.659.843-.208 0-.559-.209-1.226-.609l-.475-.276c.275-.517.592-1.009.901-1.509zm-15.688-6.172h16.597l2.427.993-.618.617c-.041.042 0 .1 0 .167a28.204 28.204 0 00-2.96 3.844c-.059.026-.125-.008-.15.042l-.609 1.059H229.93v-6.722zm-20.566-38.489h25.028v11.251l-4.462-1.193v-7.856a.243.243 0 00-.242-.25h-27.605l7.281-1.952zm-6.772-13.619l-5.822 1.56V307.63h5.822v8.457zm-5.822 2.068l5.822-1.559v10.024h-5.822v-8.465zm107.311 35.47h-28.089l.317-1.176c.033-.133-.042-.275-.175-.308l-38.606-10.342v-19.64l38.606-10.342a.247.247 0 00.175-.3l-1.043-3.887h28.815v45.995zM293.022 364.4c0-.901.375-1.727.968-2.319a3.27 3.27 0 014.645 0c.6.592.976 1.418.976 2.319v3.302h-6.589V364.4zm-17.539-10.776h-37.955v-11.317l38.239 10.25-.284 1.067zm-37.955.492h66.553v2.352h-66.553v-2.352zm-3.136 1.768l-4.462-1.192v-14.42l4.462 1.201v14.411zm0-32.884v3.619H220.89L234.392 323zm-29.115-7.131l29.115-7.798v14.412l-15.412 4.136h-13.703v-10.75zm45.161 53.184c.159.142.309.284.459.434l.008.017c.417.408.676.767.409 1.042l-.134.134c-.467.467-.683.692-.859.65-.191-.05-.483-.35-1.025-.909l-.367-.375c.2-.209.383-.434.592-.651.208-.2.442-.392.65-.592l.267.25zm5.621-5.037c-.05-.008-.091-.067-.133-.042l-1.943 1.126c-.059.034-.025.1-.042.15a28.204 28.204 0 00-3.853 2.969c-.059 0-.117-.05-.167 0l-.584.584-2.652-1.076a.266.266 0 00-.108-.025H229.93v-12.501l4.462 1.192v.325a.25.25 0 00.25.242h1.877l22.034 5.913c-.851.342-1.685.726-2.494 1.143zm.15.909c.109.184.226.359.326.542l.008.008c.292.509.45.926.125 1.118l-.167.092c-.575.333-.842.492-.992.408-.175-.1-.384-.467-.759-1.142l-.259-.459c.492-.308.993-.617 1.51-.901l.208.334zm6.639-2.494c.058.201.125.401.175.601.15.575.2 1.026-.158 1.117l-.192.059c-.642.175-.943.25-1.068.133-.141-.142-.241-.542-.433-1.301l-.134-.534a36.12 36.12 0 011.693-.433l.117.358zm7.406-1.534c-.042-.042-.058-.125-.125-.125h-2.244c-.066 0-.075.083-.125.125-1.651.075-3.261.267-4.829.617-.041-.025-.066-.083-.116-.067l-2.169.576c-.041.016-.025.066-.058.1-.417.133-.817.3-1.234.45l-20.934-5.613h36.162l-1.134 4.262a26.929 26.929 0 00-3.194-.325zm-.35.842c.008.2.016.409.016.626 0 .592-.066 1.042-.45 1.042h-.192c-.667 0-.976 0-1.059-.15-.108-.175-.1-.592-.092-1.359v-.526c.301-.008.584-.041.876-.041.3 0 .592.033.884.041l.017.367zm5.237.843l.142-.509c.575.133 1.151.275 1.701.433l-.083.392-.15.609c-.15.567-.334.984-.701.884l-.183-.05h-.017c-.634-.167-.926-.25-.976-.408-.058-.201.059-.601.267-1.351zm8.899 2.518l-1.943-1.126c-.05-.025-.084.034-.142.042a27.689 27.689 0 00-4.529-1.893c-.033-.034-.016-.084-.058-.1l-2.168-.576c-.05-.016-.067.042-.117.067a31.962 31.962 0 00-1.143-.225l1.16-4.329h6.163l14.236 3.82c-.7.167-1.359.45-1.86.951a3.776 3.776 0 00-1.109 2.669v3.227l-8.123-2.177c-.108-.066-.225-.133-.325-.2-.025-.05.008-.116-.042-.15zm-2.018-.509c.517.284 1.009.593 1.509.91l-.167.325c-.108.192-.208.383-.308.55-.292.509-.576.868-.909.676l-.167-.092c-.575-.342-.842-.492-.842-.659-.009-.208.208-.567.6-1.234l.284-.476zm3.536 1.685l5.337 1.426h-3.536a29.18 29.18 0 00-1.801-1.426zm3.528 3.778l-.242.267c-.15.15-.284.3-.442.459l-.009.008c-.408.409-.775.676-1.042.409l-.133-.142c-.476-.467-.693-.684-.651-.851.05-.2.35-.483.909-1.026l.367-.375c.217.209.442.392.659.592.2.217.384.442.584.659zm11.017-2.352V364.4a3.78 3.78 0 00-1.109-2.669c-.492-.484-1.126-.776-1.819-.943-.025-.016-.008-.066-.041-.083l-13.97-3.745h20.917v10.742h-3.978zm6.73 0h-2.252v-5.104h2.252v5.104zm-34.669-56.428l-13.611-3.645h14.587l-.976 3.645zm-15.521-3.645l15.629 4.187a.257.257 0 00.309-.175l1.076-4.012h1.101l1.009 3.77-38.239 10.25v-14.02h19.115zm-19.607 48.839h-2.144v-48.839h2.144v48.839zm-2.886-48.839l-28.873 7.74v-7.74h28.873zm-29.373 0v19.241c0 .141.116.25.25.25h29.365v2.093H196.77v-2.093h6.072a.245.245 0 00.242-.25v-19.241h1.693zm-132.79-9.674l24.17 6.472H70.251l1.735-6.472zm71.983 33.702l-7.281-1.952h33.018v1.952H143.97zm-7.173 0a.245.245 0 00-.25.25v1.876l-4.47 1.193v-5.271h2.71l7.281 1.952h-5.271zm-9.149 31.342h8.899v9.057h-8.899v-9.057zm-33.677 12.876l-.342.217c-.175.109-.358.217-.533.326l-.009.008c-.508.292-.925.442-1.117.125l-.1-.175c-.326-.567-.484-.834-.4-.984.1-.184.466-.384 1.142-.768l.45-.25c.317.492.626.984.91 1.501zm-4.22-5.821l-.25.267c-.142.15-.275.3-.425.459l-.017.008c-.417.409-.775.676-1.042.409l-.134-.142c-.475-.467-.692-.684-.65-.851.05-.2.35-.483.9-1.026l.376-.375c.216.209.442.392.65.592.209.217.392.442.592.659zm-43.701 3.745l-.017.016c-.017.009-.025.009-.042.017l.059-.033zm.233.567l.325.167c.192.108.384.208.55.308.518.292.868.576.676.901l-.091.175c-.334.576-.484.843-.66.843-.2 0-.558-.209-1.225-.609l-.475-.276c.275-.517.592-1.009.9-1.509zm-1.735-6.172h6.222c0 .009-.008.017-.017.025-.058 0-.116-.05-.166 0l-1.585 1.585c-.05.042 0 .1 0 .167a28.268 28.268 0 00-2.352 2.91l-2.102 1.218v-5.905zm23.294-56.678a.254.254 0 00.175.3l60.932 16.33v7.672L68.017 352.14a.259.259 0 00-.175.308l.317 1.176H44.55v-45.995h24.336l-1.043 3.887zm40.249-3.887l20.858 5.588v14.412l-60.565-16.23 1.01-3.77h38.697zm20.858 5.079l-18.948-5.079h18.948v5.079zm3.128 1.351l29.123 7.798v4.762h-29.123v-12.56zm4.47 34.653l-4.47 1.193v-14.42l4.47-1.193v14.42zm-4.47 2.577v-.876l4.47-1.192v2.068h-4.47zm-3.128 2.827v2.352H44.548v-2.352h84.401zm0-.492h-8.84l8.84-2.368v2.368zm-60.565-1.067l60.565-16.23v14.42l-10.742 2.877h-49.54l-.283-1.067zm-20.55 8.557c.91 0 1.727.367 2.327.967.593.592.968 1.418.968 2.319v3.302h-6.58V364.4c0-.901.367-1.727.967-2.319a3.253 3.253 0 012.319-.967zm3.27 7.939c.158.142.3.284.459.434l.008.017c.417.408.675.767.409 1.042l-.134.134c-.467.467-.684.692-.85.65-.2-.05-.493-.35-1.035-.909l-.367-.375c.2-.209.384-.434.592-.651.209-.2.442-.392.65-.592l.268.25zm5.771-4.128c.108.184.225.359.325.542l.009.008c.291.509.45.926.125 1.118l-.167.092c-.575.333-.842.492-.992.408-.176-.1-.384-.467-.76-1.142l-.258-.459c.492-.308.993-.617 1.51-.901l.208.334zm6.73-3.411c-.05-.025-.066-.083-.125-.067l-2.168.576c-.042.016-.025.066-.058.1a27.706 27.706 0 00-4.53 1.893c-.05-.008-.082-.067-.132-.042l-1.944 1.126c-.058.034-.025.1-.041.15a27.387 27.387 0 00-2.986 2.177V364.4a3.777 3.777 0 00-1.11-2.669c-.5-.501-1.159-.784-1.86-.951l14.245-3.82h2.844v4.179c-.717.108-1.434.217-2.135.375zm-.1.917c.067.201.125.401.184.601.15.575.2 1.026-.167 1.117l-.183.059c-.643.175-.943.25-1.06.133-.15-.142-.25-.542-.442-1.301l-.141-.534c.558-.158 1.134-.3 1.71-.433l.1.358zm7.064-.692c.009.2.017.409.017.626 0 .592-.075 1.042-.45 1.042h-.192c-.667 0-.976 0-1.06-.15-.108-.175-.108-.592-.091-1.359v-.526c.3-.008.584-.041.884-.041.292 0 .584.033.876.041l.016.367zm5.238.843l.142-.509c.575.133 1.15.275 1.701.433l-.083.392c-.05.201-.092.409-.15.609-.15.567-.334.984-.701.884l-.184-.05h-.016c-.634-.167-.934-.25-.976-.408-.058-.201.058-.601.267-1.351zm6.88 2.009c.517.284 1.01.593 1.51.91l-.175.325c-.1.192-.2.383-.3.55-.292.509-.584.868-.91.676l-.166-.092c-.576-.342-.843-.492-.843-.659-.008-.208.209-.567.6-1.234l.284-.476zm19.357-1.592h11.076v4.395h-12.276v-4.395h1.2zm11.326-.493h-12.777c-.016 0-.008.025-.033.025-.008 0-.017-.025-.033-.016l-14.228 3.811a28.982 28.982 0 00-1.56-1.076c-.017-.05.017-.116-.042-.15l-1.935-1.126c-.05-.025-.091.034-.141.042a27.703 27.703 0 00-4.529-1.893c-.025-.034-.017-.084-.058-.1l-2.169-.576c-.058-.016-.075.042-.125.067-1.56-.35-3.177-.542-4.82-.617-.042-.042-.059-.125-.126-.125h-2.243c-.067 0-.075.083-.125.125a31.34 31.34 0 00-2.194.167v-4.104h65.603a.242.242 0 00.242-.242v-4.937h4.47v10.725H113.37zm50.516-39.931l5.821 1.559v2.485h-5.821v-4.044zm5.821-14.946v15.996l-5.821-1.559v-14.437h5.821zm-6.313 0v19.241c0 .141.108.25.241.25h6.072v2.093h-37.63v-2.093h29.373a.244.244 0 00.242-.25v-19.241h1.702zm-2.194 0v13.72l-29.123-7.807v-5.913H161.2zm-29.615 0v48.839h-2.135v-48.839h2.135zm-89.28 55.97H37.21v-31.492h2.027v30.241c0 .142.117.25.25.25h4.812a.25.25 0 00.25-.25v-5.388h16.447l-13.97 3.745c-.033.017-.024.058-.041.083-.692.167-1.335.459-1.827.943a3.777 3.777 0 00-1.109 2.669v9.983l-1.501.867v-11.409a.242.242 0 00-.242-.242zm.992 17.314l.384.083c.209.05.409.1.609.142.575.158.984.342.884.709l-.042.183-.008.009c-.167.642-.242.934-.409.984-.192.058-.6-.059-1.342-.267l-.517-.15c.133-.567.275-1.143.441-1.693zm-1.184 7.973c0-.292.042-.584.042-.876l.367-.017c.208-.008.409-.016.625-.016.593 0 1.043.067 1.043.45v.192c0 .659.008.976-.142 1.059-.175.109-.592.1-1.368.092h-.525c0-.3-.042-.584-.042-.884zm.742 6.272l.36-.109c.208-.067.408-.125.608-.175.567-.15 1.017-.2 1.117.158l.05.192c.167.642.25.934.134 1.059-.142.151-.542.251-1.293.442l-.534.134a28.33 28.33 0 01-.441-1.701zm2.528 6.738l.333-.208.534-.334h.017c.5-.292.925-.45 1.109-.125l.1.167c.325.575.484.842.4.992-.1.175-.459.384-1.142.759l-.45.259a23.422 23.422 0 01-.901-1.51zm4.803 6.48c-.208-.208-.392-.433-.592-.658l.25-.259c.142-.158.276-.309.426-.459l.016-.016c.417-.409.776-.676 1.043-.401l.133.134c.476.467.693.684.65.85-.05.201-.35.493-.9 1.035l-.375.367c-.217-.201-.442-.392-.65-.593zm4.963 3.904l.175-.326c.1-.192.2-.383.3-.558.3-.509.584-.859.91-.668l.166.092c.575.334.842.484.842.659.009.2-.2.559-.6 1.226l-.284.475c-.517-.275-1.009-.592-1.51-.9zm6.547 2.985l.083-.383.15-.618c.158-.567.334-.984.7-.884l.193.05h.008c.634.176.934.251.976.417.058.192-.059.593-.267 1.343l-.142.509a26.27 26.27 0 01-1.701-.434zm7.98 1.185c-.3 0-.591-.042-.883-.05l-.017-.359c-.008-.209-.008-.417-.008-.634 0-.584.067-1.034.442-1.042h.192c.667 0 .975 0 1.059.15.108.175.108.592.092 1.367v.518c-.292.008-.584.05-.876.05zm6.264-.751l-.1-.35a22.353 22.353 0 01-.183-.609c-.15-.567-.2-1.018.166-1.118l.184-.05c.642-.175.942-.258 1.067-.133.142.133.242.542.434 1.293l.142.533a23.12 23.12 0 01-1.71.434zm6.739-2.519l-.2-.333c-.117-.184-.234-.359-.334-.534l-.008-.017c-.292-.508-.45-.925-.125-1.117l.175-.092c.567-.334.834-.484.984-.4.183.091.384.458.759 1.134l.258.459c-.492.308-.984.625-1.509.9zm6.48-4.804c-.208.209-.442.392-.65.593l-.267-.251a10.776 10.776 0 01-.459-.433l-.017-.009c-.408-.417-.667-.775-.4-1.042l.133-.142c.468-.467.693-.684.86-.642.191.042.483.342 1.025.901l.367.375c-.2.217-.383.442-.592.65zm3.903-4.962l-.317-.175c-.2-.108-.392-.208-.567-.309-.508-.291-.859-.575-.667-.9l.092-.167c.333-.576.492-.842.659-.851.2 0 .558.209 1.234.609l.475.275c-.283.517-.6 1.018-.909 1.518zm2.986-6.547l-.384-.091a13.432 13.432 0 01-.608-.142c-.567-.159-.984-.334-.885-.701l.042-.192.009-.008c.166-.634.241-.934.408-.976.2-.058.6.05 1.343.267l.517.142a30.076 30.076 0 01-.442 1.701zm1.184-7.981c0 .3-.033.592-.041.884l-.367.008c-.2.009-.409.017-.626.017-.592 0-1.042-.067-1.042-.442v-.2c0-.659 0-.968.141-1.059.176-.101.593-.101 1.368-.084h.526c.008.292.041.584.041.876zm-1.835-8.315c-.842.217-1.292.325-1.526.575-.317.326-.216.709.009 1.535l.05.183c.208.768.884.743 1.726.517.183-.05.4-.116.617-.191.109-.025.225-.059.334-.092.317 1.426.484 2.911.559 4.42-.192 0-.359 0-.492-.008-.868-.009-1.335-.017-1.627.167-.392.225-.383.625-.383 1.476v.2c0 .792.659.942 1.534.942.184 0 .409-.016.642-.016.1-.009.217-.009.326-.017a27.475 27.475 0 01-.56 4.42 16.362 16.362 0 01-.5-.133c-.834-.234-1.276-.367-1.61-.267-.433.125-.533.5-.75 1.318l-.05.2c-.208.775.392 1.076 1.234 1.309.184.05.41.1.634.15.109.025.226.05.334.084a27.382 27.382 0 01-1.718 4.111c-.15-.091-.309-.183-.434-.258-.742-.442-1.15-.684-1.493-.676-.45.009-.65.359-1.076 1.101l-.083.15-.017.009c-.392.692.109 1.15.86 1.576.175.108.375.208.575.317.1.05.192.108.292.158a27.958 27.958 0 01-2.72 3.528l-.35-.35c-.6-.626-.925-.959-1.259-1.034-.442-.117-.717.166-1.317.775l-.142.134c-.559.558-.2 1.125.408 1.734l.009.017c.133.133.3.284.467.45.083.067.158.142.242.217a27.18 27.18 0 01-3.528 2.719l-.25-.442c-.426-.759-.65-1.159-.951-1.326-.392-.217-.742-.017-1.476.409l-.175.091c-.676.401-.476 1.043-.05 1.785l.008.017c.1.175.217.367.342.55.05.1.108.192.175.292a27.13 27.13 0 01-4.12 1.718c-.042-.167-.092-.35-.125-.509-.217-.834-.334-1.284-.576-1.526-.325-.317-.708-.208-1.534.009l-.184.05c-.775.208-.742.892-.517 1.726.05.192.117.409.184.625l.1.334c-1.435.309-2.91.475-4.42.551 0-.192 0-.351.008-.493.008-.867.017-1.326-.167-1.618-.233-.391-.625-.391-1.484-.391h-.192c-.8 0-.942.667-.942 1.534 0 .184.008.417.016.651.008.1.008.216.008.317-1.509-.076-2.985-.242-4.42-.551.05-.175.1-.359.142-.5.234-.834.359-1.285.267-1.61-.125-.434-.509-.542-1.326-.759l-.2-.05c-.768-.208-1.076.392-1.301 1.234-.05.192-.1.409-.15.634-.025.109-.059.225-.084.342a27.03 27.03 0 01-4.111-1.718c.083-.15.183-.308.258-.442.442-.742.676-1.142.667-1.484 0-.451-.35-.651-1.084-1.076l-.158-.092h-.017c-.684-.4-1.143.092-1.576.851-.1.175-.209.367-.309.567-.058.1-.108.2-.167.3a27.16 27.16 0 01-3.52-2.727c.118-.117.26-.25.351-.342.617-.609.96-.926 1.034-1.268.109-.433-.166-.717-.775-1.317l-.134-.142c-.567-.551-1.126-.192-1.743.408l-.008.017c-.134.134-.292.3-.442.467a5.809 5.809 0 00-.225.234 27.19 27.19 0 01-2.728-3.52c.159-.092.309-.175.45-.25.751-.425 1.16-.651 1.327-.951.217-.4.017-.742-.409-1.484l-.1-.167c-.392-.684-1.034-.484-1.785-.059l-.008.009a130.78 130.78 0 01-.85.517 28.296 28.296 0 01-1.71-4.112c.175-.05.35-.091.5-.133.842-.209 1.293-.325 1.526-.567.317-.334.217-.718-.008-1.535l-.05-.192c-.209-.767-.884-.734-1.718-.508-.192.05-.409.116-.626.183-.108.025-.225.067-.333.1a27.589 27.589 0 01-.559-4.428c.192.008.359.008.492.008.867.017 1.334.017 1.626-.158.384-.234.384-.634.384-1.485v-.192c0-.8-.659-.942-1.535-.942-.183 0-.408.008-.642.016-.1 0-.217 0-.325.009.075-1.51.25-2.986.559-4.42.167.05.358.1.5.141.834.234 1.285.359 1.61.259.433-.117.534-.501.75-1.318l.059-.2c.2-.767-.4-1.076-1.243-1.301-.183-.05-.409-.108-.634-.158-.108-.026-.225-.051-.333-.076a27.174 27.174 0 011.718-4.12c.15.092.308.184.433.259.751.442 1.151.684 1.493.676.45-.009.65-.351 1.076-1.093l.084-.158.008-.009c.4-.692-.1-1.142-.85-1.576-.176-.108-.376-.209-.576-.317-.1-.05-.192-.108-.292-.158a27.324 27.324 0 012.719-3.52c.116.117.258.259.35.342.609.626.926.959 1.26 1.043.441.108.725-.176 1.325-.784l.134-.134c.559-.559.2-1.126-.409-1.735l-.008-.016c-.134-.134-.3-.284-.467-.442-.084-.067-.159-.15-.242-.225 1.1-.993 2.277-1.91 3.528-2.719.083.15.175.308.25.442.425.759.65 1.159.959 1.326.392.225.734.016 1.468-.409l.175-.092c.675-.4.475-1.042.05-1.784l-.008-.017a13.5 13.5 0 00-.334-.55c-.058-.101-.117-.192-.175-.284a26.093 26.093 0 014.103-1.726c.05.175.1.358.134.508.217.834.333 1.285.583 1.535.317.308.701.2 1.527-.017l.192-.05c.767-.208.733-.884.508-1.726-.05-.192-.117-.409-.183-.626-.034-.1-.067-.225-.1-.333 1.434-.309 2.91-.476 4.42-.551v.492c-.017.868-.025 1.335.158 1.627.234.383.634.383 1.485.383h.192c.8 0 .942-.667.942-1.534 0-.184-.008-.417-.017-.643-.008-.108-.008-.225-.008-.325 1.501.075 2.986.242 4.42.551l-.141.5c-.234.842-.36 1.284-.267 1.618.125.425.508.534 1.326.751l.2.05c.767.208 1.076-.392 1.3-1.235.05-.191.11-.408.151-.633.025-.109.058-.226.083-.334a26.155 26.155 0 014.112 1.718c-.083.15-.175.309-.259.434-.442.75-.675 1.142-.667 1.492 0 .443.35.651 1.093 1.068l.15.092.017.008c.683.4 1.142-.1 1.576-.851.1-.183.208-.375.308-.583.059-.092.109-.184.167-.284a27.82 27.82 0 013.52 2.719 12.8 12.8 0 01-.35.342c-.618.609-.951.934-1.035 1.268-.108.442.167.717.776 1.326l.142.133c.559.559 1.126.2 1.734-.409l.009-.016c.133-.134.292-.292.45-.467.067-.075.15-.159.217-.234 1 1.101 1.918 2.277 2.727 3.528-.158.083-.308.175-.442.25-.759.425-1.168.651-1.334.951-.217.4-.017.734.408 1.476l.1.167c.392.684 1.035.492 1.785.058l.009-.008c.175-.1.367-.217.558-.342.092-.058.192-.117.292-.175a27.38 27.38 0 011.71 4.111c-.167.05-.35.092-.5.134zm1.093 2.043l-.359.109a10 10 0 01-.6.175c-.576.158-1.026.208-1.126-.159l-.05-.183c-.167-.642-.25-.943-.133-1.068.141-.141.542-.242 1.3-.442l.526-.133c.175.559.309 1.126.442 1.701zm29.023-10.558a.272.272 0 00-.217.125l-2.285 3.97H94.647l-.1-.209c0-.058.058-.092.033-.142l-1.126-1.943c-.025-.05-.091-.016-.141-.042a27.626 27.626 0 00-2.97-3.844c0-.067.05-.125 0-.167l-1.584-1.585c-.05-.05-.109 0-.167 0a25.74 25.74 0 00-1.793-1.509l13.552-3.636v4.57c0 .133.109.25.242.25h12.777a.25.25 0 00.242-.25v-4.645h13.544v9.057h-1.643zm44.444-67.629H99.442l72.633-19.458 72.634 19.458h-74.752zm26.813 27.23v-1.952h10.692l-7.281 1.952h-3.411zm45.862 49.256l.384.083c.208.05.408.1.608.142.576.158.984.342.893.709l-.05.183-.009.009c-.166.642-.242.934-.408.984-.192.058-.592-.059-1.343-.267l-.509-.15c.134-.567.267-1.143.434-1.693zm-1.184 7.973c0-.292.033-.584.05-.876l.358-.017c.209-.008.409-.016.626-.016.592 0 1.042.067 1.042.45v.192c.009.659.009.976-.15 1.059-.167.109-.584.1-1.359.092h-.517c-.017-.3-.05-.584-.05-.884zm.742 6.272l.358-.109c.209-.067.401-.125.609-.175.567-.15 1.018-.2 1.118.158l.05.192c.175.642.25.934.133 1.059-.133.151-.542.251-1.292.442l-.534.134a27.885 27.885 0 01-.442-1.701zm2.527 6.738l.333-.208c.184-.109.359-.225.534-.334h.017c.5-.292.926-.45 1.109-.125l.1.167c.325.575.484.842.401.992-.092.175-.459.384-1.135.759l-.458.259c-.309-.501-.626-.993-.901-1.51zm4.804 6.48c-.209-.208-.392-.433-.592-.658l.25-.259c.142-.158.283-.309.433-.459l.009-.016c.417-.409.775-.676 1.042-.401l.142.134c.459.467.684.684.642.85-.05.201-.342.493-.9 1.035l-.376.367c-.217-.201-.442-.392-.65-.593zm4.97 3.904l.167-.326c.1-.192.209-.383.3-.558.301-.509.576-.859.909-.668l.167.092c.576.334.843.484.843.659.008.2-.201.559-.601 1.226l-.283.475c-.518-.275-1.01-.592-1.502-.9zm6.539 2.985l.083-.383.15-.618c.151-.567.334-.984.701-.884l.192.05h.008c.634.176.926.251.976.417.058.192-.05.593-.267 1.343l-.142.509c-.567-.133-1.142-.267-1.701-.434zm7.973 1.185c-.292 0-.584-.042-.876-.05l-.008-.359c-.008-.209-.017-.417-.017-.634 0-.584.067-1.034.442-1.042h.192c.667 0 .976 0 1.068.15.1.175.091.592.083 1.367v.518c-.3.008-.584.05-.884.05zm6.28-.751l-.108-.35a9.684 9.684 0 01-.176-.609c-.158-.567-.208-1.018.159-1.118l.183-.05c.643-.175.943-.258 1.068-.133.142.133.242.542.434 1.293l.141.533c-.558.167-1.134.309-1.701.434zm6.73-2.519l-.208-.333c-.109-.184-.225-.359-.325-.534l-.009-.017c-.292-.508-.45-.925-.125-1.117l.167-.092c.575-.334.842-.484.992-.4.176.091.384.458.768 1.134l.25.459c-.492.308-.993.625-1.51.9zm6.489-4.804c-.217.209-.442.392-.659.593l-.267-.251a11.696 11.696 0 01-.459-.433l-.008-.009c-.409-.417-.675-.775-.409-1.042l.134-.142c.475-.467.684-.684.859-.642.2.042.484.342 1.026.901l.367.375c-.2.217-.384.442-.584.65zm3.895-4.962l-.326-.175c-.191-.108-.383-.208-.558-.309-.501-.291-.859-.575-.668-.9l.101-.167c.325-.576.483-.842.65-.851.2 0 .567.209 1.234.609l.476.275c-.284.517-.601 1.018-.909 1.518zm2.994-6.547l-.392-.091c-.2-.042-.409-.092-.609-.142-.567-.159-.984-.334-.892-.701l.058-.192v-.008c.167-.634.25-.934.409-.976.2-.058.6.05 1.351.267l.508.142a39.2 39.2 0 01-.433 1.701zm1.176-7.981c0 .3-.034.592-.042.884l-.367.008c-.208.009-.409.017-.625.017-.593 0-1.043-.067-1.043-.442v-.2c0-.659 0-.968.15-1.059.175-.101.592-.101 1.36-.084h.525c.008.292.042.584.042.876zm-.743-6.272l-.358.109c-.209.066-.401.125-.601.175-.575.158-1.026.208-1.126-.159l-.05-.183c-.175-.642-.25-.943-.133-1.068.142-.141.542-.242 1.293-.442l.542-.133c.158.559.3 1.126.433 1.701zm-4.12-8.415c-.758.425-1.159.651-1.326.951-.225.4-.025.734.401 1.476l.1.167c.4.684 1.034.492 1.785.058l.008-.008c.183-.1.367-.217.559-.342.091-.058.191-.117.283-.175a27.444 27.444 0 011.727 4.111c-.176.05-.359.092-.509.134-.842.217-1.284.325-1.535.575-.308.326-.2.709.017 1.535l.05.183c.209.768.884.743 1.726.517.184-.05.401-.116.618-.191.108-.025.233-.059.342-.092.308 1.426.475 2.911.55 4.42-.192 0-.359 0-.492-.008-.867-.009-1.335-.017-1.626.167-.392.225-.384.625-.384 1.476v.2c0 .792.667.942 1.535.942.183 0 .417-.016.642-.016.1-.009.217-.009.325-.017a28.465 28.465 0 01-.55 4.42 16.438 16.438 0 01-.509-.133c-.834-.234-1.276-.367-1.61-.267-.434.125-.534.5-.75 1.318l-.05.2c-.209.775.391 1.076 1.234 1.309.192.05.4.1.625.15.109.025.226.05.342.084a26.458 26.458 0 01-1.718 4.111c-.15-.091-.308-.183-.433-.258-.751-.442-1.143-.684-1.493-.676-.451.009-.651.359-1.076 1.101l-.092.15v.009c-.4.692.1 1.15.851 1.576.183.108.375.208.575.317.1.05.192.108.292.158a27.913 27.913 0 01-2.719 3.528c-.116-.117-.258-.259-.342-.35-.608-.626-.934-.959-1.267-1.034-.442-.117-.726.166-1.326.775l-.134.134c-.559.558-.2 1.125.409 1.734l.017.017c.125.133.291.284.467.45.075.067.158.142.233.217a27.726 27.726 0 01-3.519 2.719 14.39 14.39 0 01-.259-.442c-.425-.759-.65-1.159-.951-1.326-.4-.217-.734-.017-1.476.409l-.167.091c-.684.401-.492 1.043-.058 1.785l.008.017c.1.175.217.367.342.55.059.1.117.192.175.292a27.361 27.361 0 01-4.111 1.718c-.05-.167-.1-.35-.134-.509-.217-.834-.325-1.284-.575-1.526-.325-.317-.709-.208-1.535.009l-.192.05c-.767.208-.733.892-.508 1.726.058.192.116.409.183.625.034.109.067.226.1.334-1.426.309-2.91.475-4.42.551 0-.192 0-.351.008-.493.009-.867.009-1.326-.166-1.618-.234-.391-.634-.391-1.485-.391h-.192c-.792 0-.942.667-.942 1.534 0 .184.008.417.017.651.008.1.008.216.008.317-1.501-.076-2.986-.242-4.42-.551.05-.175.1-.359.141-.5.234-.834.367-1.285.267-1.61-.125-.434-.508-.542-1.326-.759l-.192-.05c-.767-.208-1.084.392-1.309 1.234-.05.192-.1.409-.15.634-.025.109-.058.225-.083.342a27.373 27.373 0 01-4.112-1.718c.092-.15.183-.308.258-.442.442-.742.676-1.142.676-1.484-.008-.451-.359-.651-1.101-1.076l-.15-.092h-.017c-.684-.4-1.142.092-1.576.851-.1.175-.2.367-.317.567-.042.1-.1.2-.158.3a27.171 27.171 0 01-3.52-2.727c.117-.117.259-.25.35-.342.626-.609.96-.926 1.035-1.268.108-.433-.167-.717-.776-1.317l-.133-.142c-.559-.551-1.126-.192-1.735.408l-.017.017c-.133.134-.292.3-.45.467-.067.075-.142.159-.217.234a27.112 27.112 0 01-2.719-3.52c.15-.092.309-.175.434-.25.759-.425 1.167-.651 1.334-.951.217-.4.017-.742-.408-1.484l-.101-.167c-.4-.684-1.034-.484-1.776-.059l-.017.009c-.175.108-.367.225-.55.342l-.292.175a27.52 27.52 0 01-1.718-4.112c.167-.05.35-.091.5-.133.843-.209 1.293-.325 1.535-.567.309-.334.208-.718-.017-1.535l-.05-.192c-.208-.767-.884-.734-1.718-.508-.192.05-.408.116-.625.183-.109.025-.225.067-.334.1-.308-1.434-.475-2.919-.55-4.428.183.008.35.008.483.008.868.017 1.335.017 1.627-.158.392-.234.392-.634.392-1.485v-.192c0-.8-.668-.942-1.543-.942-.184 0-.409.008-.642.016-.1 0-.217 0-.317.009.075-1.51.242-2.986.55-4.42.167.05.359.1.501.141.834.234 1.276.359 1.609.259.434-.117.542-.501.759-1.318l.05-.2c.209-.767-.4-1.076-1.234-1.301-.192-.05-.417-.108-.634-.158l-.342-.076a27.266 27.266 0 011.718-4.12c.15.092.309.184.442.259.742.442 1.143.684 1.485.676.45-.009.65-.351 1.075-1.093l.092-.158v-.009c.401-.692-.1-1.142-.85-1.576-.176-.108-.376-.209-.576-.317-.1-.05-.192-.108-.292-.158a26.722 26.722 0 012.727-3.52c.117.117.251.259.342.342.609.626.926.959 1.268 1.043.434.108.717-.176 1.318-.784l.133-.134c.559-.559.2-1.126-.4-1.735l-.017-.016c-.133-.134-.3-.284-.475-.442-.075-.067-.15-.15-.225-.225 1.1-.993 2.268-1.91 3.519-2.719.092.15.175.308.25.442.426.759.651 1.159.951 1.326.4.225.742.016 1.485-.409l.158-.092c.692-.4.492-1.042.067-1.784l-.009-.017c-.108-.175-.225-.367-.342-.55a6.656 6.656 0 00-.175-.284 26.786 26.786 0 014.104-1.726c.05.175.091.358.133.508.217.834.334 1.285.575 1.535.334.308.718.2 1.535-.017l.192-.05c.767-.208.734-.884.509-1.726a15.31 15.31 0 00-.184-.626c-.033-.1-.067-.225-.1-.333 1.434-.309 2.919-.476 4.42-.551v.492c-.016.868-.016 1.335.159 1.627.233.383.634.383 1.484.383h.192c.801 0 .942-.667.942-1.534 0-.184-.008-.417-.016-.643-.009-.108-.009-.225-.009-.325 1.51.075 2.986.25 4.421.551-.05.175-.1.358-.142.5-.234.842-.359 1.284-.259 1.618.117.425.501.534 1.318.751l.192.05c.775.208 1.084-.392 1.309-1.235.05-.191.1-.408.15-.633.025-.109.059-.226.084-.334a26.598 26.598 0 014.12 1.718c-.092.15-.184.309-.259.434-.442.75-.684 1.142-.675 1.492.008.443.35.651 1.092 1.068l.159.092.008.008c.692.4 1.143-.1 1.576-.851.109-.183.209-.375.317-.583.05-.092.1-.192.159-.284a27.194 27.194 0 013.519 2.719 12.97 12.97 0 01-.35.342c-.626.609-.951.934-1.034 1.268-.109.442.175.717.775 1.326l.142.133c.559.559 1.126.2 1.735-.409l.008-.016c.134-.134.292-.292.45-.467.067-.075.151-.159.226-.234a27.998 27.998 0 012.718 3.528c-.15.083-.308.175-.442.25zm1.602 1.676l-.334.217c-.183.109-.367.217-.542.326l-.008.008c-.509.292-.926.442-1.118.125l-.092-.175c-.342-.567-.492-.834-.408-.984.1-.184.467-.384 1.142-.768l.459-.25c.309.492.617.984.901 1.501zm15.27 6.931l-17.58-11.326c-.009 0-.009.009-.009 0a32.208 32.208 0 00-1.309-1.509c0-.067.05-.125 0-.167l-1.585-1.585c-.041-.05-.108 0-.167 0l-.016-.025h18.923v.017c0 .075.084.092.142.142l1.601 3.995v10.458zm4.787 3.953h-3.227c-.534 0-.876-.292-1.018-.659a1.147 1.147 0 01-.091-.467c0-.167.025-.325.091-.475.142-.367.484-.659 1.018-.659h3.227v2.26zm0 6.514h-3.227c-.534 0-.876-.284-1.018-.651a1.159 1.159 0 01-.091-.475c0-.159.025-.317.091-.467.142-.367.484-.659 1.018-.659h3.227v2.252zm29.14-11.268a.237.237 0 00-.083-.183l-5.788-5.029a.272.272 0 00-.167-.059l-3.086-.008c-.075-.008-.15.017-.191.067l-3.27 3.261V326.87a.244.244 0 00-.242-.251h-16.071a.245.245 0 00-.242.251v56.145h-4.295v-10.717a.445.445 0 00-.016-.092l-1.727-4.304v-5.304h1.818a.243.243 0 00.242-.25V322.7a.242.242 0 00-.242-.242h-1.818v-17.781a.248.248 0 00-.242-.25h-32.576l1.802-6.714a.244.244 0 00-.175-.3l-75.252-20.158 75.252-20.166a.253.253 0 00.175-.309l-1.852-6.897 1.852-6.897a.243.243 0 00-.175-.3l-75.252-20.166 75.252-20.167a.243.243 0 00.175-.3l-1.852-6.897 1.852-6.906a.248.248 0 00-.175-.3l-75.252-20.158 75.252-20.166a.247.247 0 00.175-.3l-1.852-6.897 1.852-6.906a.244.244 0 00-.175-.3l-75.252-20.166 75.252-20.166a.244.244 0 00.175-.3l-1.56-5.822h4.312c.025 0 .042 0 .067-.008l13.727-2.877h10.534c.067 0 .067-.075.117-.109.041-.033.108-.016.125-.075l2.21-8.24c0-.016-.025-.016-.025-.033.008-.017.033-.017.033-.033V72.29l1.91 1.335v3.144l-1.751 1.46a.248.248 0 00-.101.2v8.915c0 .133.117.25.251.25l2.744-.008a.261.261 0 00.216-.117l2.602-4.52a.223.223 0 00.05-.142V.25a.244.244 0 00-.241-.25H32.631a.246.246 0 00-.25.25v82.558c0 .05.016.1.05.142l2.602 4.52c.05.075.133.117.216.125h2.744a.25.25 0 00.25-.25v-8.916a.249.249 0 00-.1-.2l-1.751-1.46v-3.144l1.91-1.334v3.103c0 .016.025.016.033.033 0 .017-.025.017-.025.033l2.21 8.24c.017.05.084.042.125.075.05.034.05.109.117.109H52.38l14.528 2.885h2.494l-1.56 5.822a.25.25 0 00.175.3l75.252 20.166-75.252 20.166a.25.25 0 00-.175.3l1.852 6.898-1.852 6.905a.254.254 0 00.175.3l75.252 20.166-75.252 20.158a.254.254 0 00-.175.3l1.852 6.906-1.852 6.897a.25.25 0 00.175.3l75.252 20.167-75.252 20.166a.25.25 0 00-.175.3l1.852 6.897-1.852 6.897a.26.26 0 00.175.309l75.252 20.166-75.252 20.158a.25.25 0 00-.175.3l1.802 6.714H41.546a.256.256 0 00-.25.25v17.781h-1.81a.25.25 0 00-.25.242v3.186h-5.037a.244.244 0 00-.25.241v54.094l-4.312 2.485V326.87a.245.245 0 00-.242-.251H13.324a.245.245 0 00-.242.251v53.184l-3.27-3.261a.23.23 0 00-.191-.067l-3.095.008a.266.266 0 00-.158.059L.58 381.822a.237.237 0 00-.083.183l-.025 4.12c0 .075.033.134.075.175l6.964 6.756c.05.042.116.067.175.067h3.845l3.594 2.418c2.002 1.585 3.503 1.852 4.754 1.41 1.184-.409 2.101-1.443 2.994-2.586l6.38 3.845a.245.245 0 00.384-.209v-3.244h12.61l.05.2c-.017.05-.084.075-.075.117l.592 2.177c.008.033.066.025.092.058a28.482 28.482 0 001.893 4.529c0 .05-.059.092-.034.133l1.126 1.944c.025.05.092.025.142.041a28.285 28.285 0 002.97 3.845c0 .067-.051.125 0 .167l1.584 1.593c.05.041.108 0 .166 0a28.276 28.276 0 003.854 2.96c.016.059-.009.126.041.151l1.944 1.125c.041.025.083-.033.133-.041a27.023 27.023 0 004.529 1.893c.033.033.016.092.058.1l2.168.584c.059.008.075-.05.125-.067 1.56.342 3.178.534 4.82.609.051.042.06.125.126.125h2.243c.067 0 .084-.083.126-.125a28.522 28.522 0 004.82-.609c.05.017.067.075.125.067l2.169-.584c.041-.008.033-.067.058-.1a27.02 27.02 0 004.529-1.893c.05.008.091.066.141.041l1.935-1.125c.05-.025.025-.092.042-.151a28.282 28.282 0 003.853-2.96c.058 0 .117.041.167 0l1.585-1.593c.05-.042 0-.1 0-.167a27.635 27.635 0 002.969-3.845c.05-.016.116.009.141-.041l1.126-1.944c.025-.041-.033-.083-.033-.133a28.482 28.482 0 001.893-4.529c.033-.033.083-.025.1-.058l.584-2.177c.008-.042-.058-.067-.075-.117a28.16 28.16 0 00.559-3.694h143.464c.109 1.259.292 2.493.559 3.694-.017.05-.083.075-.067.117l.584 2.177c.009.033.067.025.092.058a28.407 28.407 0 001.893 4.529c0 .05-.058.092-.033.133l1.126 1.944c.025.05.091.025.15.041a28.213 28.213 0 002.96 3.845c0 .067-.041.125 0 .167l1.585 1.593c.05.041.108 0 .167 0a28.79 28.79 0 003.853 2.96c.017.059-.017.126.042.151l1.943 1.125c.042.025.083-.033.133-.041a27.04 27.04 0 004.529 1.893c.033.033.017.092.058.1l2.169.584c.05.008.075-.05.125-.067 1.559.342 3.169.534 4.82.609.05.042.059.125.125.125h2.244c.067 0 .083-.083.125-.125a28.631 28.631 0 004.829-.609c.05.017.067.075.117.067l2.168-.584c.042-.008.025-.067.058-.1a27.006 27.006 0 004.529-1.893c.058.008.092.066.142.041l1.943-1.125c.05-.025.017-.092.033-.151a28.226 28.226 0 003.853-2.96c.059 0 .126.041.167 0l1.585-1.593c.05-.042 0-.1 0-.167a27.65 27.65 0 002.969-3.845c.05-.016.117.009.15-.041l1.118-1.944c.025-.041-.034-.083-.034-.133a28.407 28.407 0 001.893-4.529c.025-.033.084-.025.1-.058l.576-2.177c.017-.042-.05-.067-.067-.117.017-.066.042-.133.05-.2h16.93v3.244a.245.245 0 00.384.209l6.38-3.845c.834 1.185 1.827 2.169 3.111 2.527 1.351.384 3.002.084 5.071-1.359l3.169-2.41h3.828a.267.267 0 00.175-.067l6.972-6.756a.241.241 0 00.075-.175l-.025-4.12zm-67.387 9.616c.075-.166.15-.317.225-.483.117-.251.242-.509.334-.759a.795.795 0 01.4-.392.68.68 0 01.367-.05 7.24 7.24 0 01-.5 1.843 7.848 7.848 0 01-.959 1.66c-.434-.334-.209-1.026.133-1.819zm1.335-3.736c-.543.067-.868-.584-1.185-1.376-.066-.175-.125-.342-.183-.5-.1-.267-.2-.534-.3-.776a.722.722 0 010-.559.814.814 0 01.233-.308c.384.525.701 1.084.943 1.668.241.592.408 1.217.492 1.851zm-2.069 6.38c-.15.159-.333.267-.492.409-.142-.184-.275-.384-.484-.476a1.267 1.267 0 00-.925 0 8.6 8.6 0 01-.759.292c-.184.067-.35.134-.509.201-1.026.4-1.81.867-1.635 1.743-.2.016-.375.066-.567.066-.208 0-.4-.05-.592-.066a1.322 1.322 0 00-.058-.676 1.224 1.224 0 00-.651-.659c-.267-.108-.508-.217-.75-.325-.167-.083-.342-.159-.492-.225-1.018-.442-1.902-.667-2.402.075-.142-.125-.309-.225-.442-.359-.15-.15-.267-.333-.409-.5.192-.134.392-.267.475-.476a1.205 1.205 0 000-.934c-.1-.258-.2-.508-.292-.759-.066-.175-.125-.35-.191-.5-.401-1.034-.868-1.818-1.752-1.643-.008-.192-.05-.375-.05-.567 0-.2.042-.392.059-.592.233.041.467.033.675-.05.284-.125.526-.359.659-.659.1-.259.217-.509.325-.742.075-.176.159-.342.225-.501.442-1.009.668-1.893-.083-2.402.125-.142.225-.3.359-.433.158-.151.333-.267.5-.409.134.192.275.384.484.475.292.117.617.125.934 0 .25-.108.509-.2.75-.292.184-.066.359-.133.509-.191 1.034-.401 1.81-.876 1.643-1.752.192-.017.367-.058.567-.058.2 0 .392.041.592.058-.041.234-.033.467.05.676.126.292.351.533.659.659.259.108.501.225.751.333.167.075.334.159.484.225 1.017.442 1.901.659 2.402-.083.141.125.3.225.433.359.159.158.275.333.417.5-.192.133-.392.267-.475.484a1.223 1.223 0 000 .925c.108.259.2.509.292.759l.192.509c.4 1.034.875 1.81 1.751 1.643.008.184.058.367.058.559 0 .208-.05.392-.066.6a1.172 1.172 0 00-.676.042 1.293 1.293 0 00-.659.667c-.1.259-.217.501-.325.743-.083.166-.15.341-.225.492-.442 1.009-.659 1.901.083 2.401-.125.142-.233.301-.367.434zm-4.37 2.068c-.075-.542.584-.875 1.376-1.184.175-.075.334-.133.501-.192.266-.1.533-.2.775-.3a.76.76 0 01.559 0c.117.05.217.125.3.234a7.597 7.597 0 01-3.511 1.442zm-5.554-1.476c.333-.433 1.025-.208 1.809.142.167.075.326.142.493.217.25.117.517.242.758.334a.72.72 0 01.384.4c.05.117.075.25.058.375a7.077 7.077 0 01-1.843-.509 6.805 6.805 0 01-1.659-.959zm-2.894-4.962c.55-.075.875.584 1.184 1.376.067.175.125.334.192.501.1.258.2.533.3.775a.739.739 0 010 .551.843.843 0 01-.233.308 7.326 7.326 0 01-.943-1.66 7.953 7.953 0 01-.5-1.851zm1.334-3.753c-.075.175-.15.334-.217.492-.125.259-.242.517-.342.759a.7.7 0 01-.392.392c-.116.05-.25.067-.375.05a8.064 8.064 0 01.5-1.843 7.571 7.571 0 01.96-1.651c.433.325.208 1.025-.134 1.801zm5.104-4.695c.075.542-.584.867-1.376 1.176-.175.075-.342.133-.5.191-.267.1-.534.201-.776.301a.722.722 0 01-.559 0 .798.798 0 01-.3-.226 7.187 7.187 0 011.66-.95 7.56 7.56 0 011.851-.492zm5.563 1.467c-.334.434-1.034.209-1.818-.141-.167-.067-.325-.142-.484-.217-.258-.117-.517-.242-.759-.334a.75.75 0 01-.392-.392.739.739 0 01-.05-.383 7.437 7.437 0 011.835.508 7.95 7.95 0 011.668.959zm-4.554-2.126a8.08 8.08 0 00-5.729 2.377 8.045 8.045 0 00-2.377 5.721c0 2.235.909 4.262 2.377 5.729a8.073 8.073 0 005.729 2.369 8.075 8.075 0 005.73-2.369 8.07 8.07 0 002.368-5.729c0-2.235-.9-4.262-2.368-5.721a8.082 8.082 0 00-5.73-2.377zm10.584 18.681a14.93 14.93 0 01-10.592 4.387 14.923 14.923 0 01-10.583-4.387 14.934 14.934 0 01-4.379-10.583 14.96 14.96 0 0114.962-14.97c4.137 0 7.881 1.684 10.592 4.386a14.924 14.924 0 014.378 10.584c0 4.137-1.668 7.873-4.378 10.583zm-10.592-26.037a15.408 15.408 0 00-10.925 4.52 15.401 15.401 0 00-4.529 10.934c0 4.27 1.726 8.14 4.529 10.934a15.382 15.382 0 0010.925 4.528c4.278 0 8.14-1.726 10.934-4.528a15.398 15.398 0 004.537-10.934c0-4.27-1.735-8.132-4.537-10.934a15.403 15.403 0 00-10.934-4.52zm2.669 16.663c-.384.968-1.276 1.727-2.669 1.727-1.384 0-2.269-.759-2.66-1.727a3.258 3.258 0 01-.226-1.209c0-.409.075-.826.226-1.209.391-.968 1.276-1.718 2.66-1.718 1.393 0 2.285.75 2.669 1.718.15.383.225.8.225 1.209 0 .417-.075.834-.225 1.209zm-2.669-4.629c-1.618 0-2.66.893-3.119 2.027a3.795 3.795 0 00-.267 1.393c0 .475.092.951.267 1.393.459 1.142 1.501 2.035 3.119 2.035 1.626 0 2.669-.893 3.127-2.035a3.778 3.778 0 000-2.786c-.458-1.134-1.501-2.027-3.127-2.027zm0-9.907c-3.67 0-7.006 1.492-9.424 3.903a13.3 13.3 0 00-3.895 9.424c0 3.686 1.485 7.014 3.895 9.424a13.322 13.322 0 009.424 3.903c3.686 0 7.014-1.493 9.433-3.903a13.28 13.28 0 003.903-9.424c0-3.678-1.493-7.006-3.903-9.424a13.313 13.313 0 00-9.433-3.903z" fill="#000"/></svg>