<svg width="126" height="114" fill="none" xmlns="http://www.w3.org/2000/svg"><path d="M132.699 81.818a3.135 3.135 0 013.142 3.14 3.135 3.135 0 01-3.003 3.136l2.947 2.105h.913v-2.525c0-.056.045-.102.102-.102h5.14c.485 0 .928-.198 1.251-.521a1.764 1.764 0 000-2.499 1.775 1.775 0 00-1.251-.519h-4.916a.105.105 0 01-.096-.065l-3.566-6.941a.056.056 0 01-.011-.02l-1.475-2.87a.504.504 0 01-.028-.057l-2.522-4.907a.06.06 0 01-.014-.023l-.63-1.224c-.284-.592-.769-.898-1.276-.972a1.738 1.738 0 00-1.478.499 1.64 1.64 0 00-.287.402.088.088 0 01-.02.048c-.141.315-.19.7-.099 1.14v.002c.037.238.074.476.108.712v.016a41.15 41.15 0 01.394 6.917c-.065 2.453-.329 4.907-.726 7.516l1.838-.252c.355-.025.664.094.908.295.21.173.371.41.465.671.096.258.125.544.074.816a1.31 1.31 0 01-.519.83l-1.475.975 1.378.082.02-.002c.011 0 .023.002.034.005l3.39.198a3.148 3.148 0 01-1.858-2.867 3.145 3.145 0 013.146-3.14zM44.666 63.447h1.782c.056 0 .102.045.102.102v.518a.102.102 0 01-.102.102H44.59a.102.102 0 01-.103-.102v-.003l-.01-.172c-.006-.046-.01-.066-.004-.091a.215.215 0 01.02-.065c.014-.031.037-.088.074-.216a.103.103 0 01.1-.073zm1.677.204H44.74a2.532 2.532 0 01-.057.161l-.008.017.011.136h1.657v-.314zm-1.745.722h1.85c.056 0 .102.045.102.102v.519a.102.102 0 01-.102.102H44.57a.102.102 0 01-.102-.102v-.02c.008-.08.014-.162.02-.244.002-.088.008-.173.008-.255 0-.056.045-.102.102-.102zm1.745.204h-1.646l-.005.162-.012.153h1.663v-.315zm-1.827.723h1.932c.056 0 .102.045.102.102v.518a.102.102 0 01-.102.102h-2.04a.102.102 0 01-.102-.102.1.1 0 01.006-.031c.02-.085.04-.167.056-.246a11.7 11.7 0 00.049-.258.103.103 0 01.099-.085zm1.827.204h-1.74a2.67 2.67 0 01-.036.178l-.028.136h1.804v-.314zm9.559-.193h2.487c.057 0 .103.045.103.102v.519a.102.102 0 01-.102.102h-2.488a.102.102 0 01-.102-.103v-.518c0-.057.045-.102.102-.102zm2.385.204h-2.283v.314h2.283v-.314zm-2.385-1.125h2.487c.057 0 .103.046.103.102v.519a.102.102 0 01-.102.102h-2.488a.102.102 0 01-.102-.102v-.519c0-.056.045-.102.102-.102zm2.385.204h-2.283v.315h2.283v-.315zm-2.385-1.147h2.487c.057 0 .103.045.103.102v.518a.102.102 0 01-.102.102h-2.488a.102.102 0 01-.102-.102v-.518c0-.057.045-.102.102-.102zm2.385.204h-2.283v.314h2.283v-.314zm-5.695 1.66h2.487c.057 0 .102.045.102.102v.519a.102.102 0 01-.102.102h-2.487a.102.102 0 01-.103-.103v-.518c0-.057.046-.102.103-.102zm2.385.204h-2.283v.314h2.283v-.314zm-2.385-1.125h2.487c.057 0 .102.046.102.102v.519a.102.102 0 01-.102.102h-2.487a.102.102 0 01-.103-.102v-.519c0-.056.046-.102.103-.102zm2.385.204h-2.283v.315h2.283v-.315zm-2.385-1.147h2.487c.057 0 .102.045.102.102v.518a.102.102 0 01-.102.102h-2.487a.102.102 0 01-.103-.102v-.518c0-.057.046-.102.103-.102zm2.385.204h-2.283v.314h2.283v-.314zm-5.744 1.66h2.485c.057 0 .105.045.105.102v.519a.104.104 0 01-.105.102h-2.485a.104.104 0 01-.105-.103v-.518c0-.057.048-.102.105-.102zm2.383.204h-2.28v.314h2.28v-.314zm-2.383-1.125h2.485c.057 0 .105.046.105.102v.519a.104.104 0 01-.105.102h-2.485a.104.104 0 01-.105-.102v-.519c0-.056.048-.102.105-.102zm2.383.204h-2.28v.315h2.28v-.315zm-2.383-1.147h2.485c.057 0 .105.045.105.102v.518a.104.104 0 01-.105.102h-2.485a.104.104 0 01-.105-.102v-.518c0-.057.048-.102.105-.102zm2.383.204h-2.28v.314h2.28v-.314zm-.366-5.505h-3.543v.609c.08.124.125.266.133.408a.85.85 0 01-.133.504v1.014h3.543v-2.535zm-3.543-.207h3.543V46.33h-3.543v11.608zm3.075-13.243h.1c.203.003.308.003.34-.023.025-.025.025-.125.022-.326V44.3h-.462v.397zm.666-.397v.045c.003.264.006.394-.09.482-.088.08-.222.077-.48.074h-.096v.21c.834 0 .919 0 .922-.81h-.256zm.463-.102c0 1.116-.068 1.116-1.13 1.116v.81h.571c.057 0 .102.046.102.103V60.68h2.87l-.002-.153c0-.05 0-.102.003-.153v-3.838h-.996a.105.105 0 01-.102-.102c0-.479.394-.952 1.01-1.297.576-.326 1.35-.544 2.17-.544h.005c.817 0 1.592.218 2.168.544.615.345 1.01.818 1.01 1.297a.105.105 0 01-.103.102h-.995v3.23h2.195c.505 0 .565.405.565.762l-.003.153h1.846c.057 0 .102.046.102.102v11.433h.258L65.58 45.23h-.947a.102.102 0 01-.102-.102v-1.377c0-.056.045-.102.102-.102h29.145c.057 0 .102.046.102.102v1.377a.102.102 0 01-.102.102h-.956v17.547h.93a.1.1 0 01.08.04l5.032 6.33a.097.097 0 01.026.067V75.3h1.18v-2.165c0-.595.334-1.275.817-1.794.402-.436.913-.762 1.418-.844h.006l6.501-.995h.003l3.747-.544-.102-.594a.103.103 0 01.085-.12l1.793-.303a.106.106 0 01.119.082l.173 1.026c.556-.093.802-.116.953.142l9.885-1.445a1.855 1.855 0 011.072-.91c.287-.096.593-.127.894-.082.57.08 1.115.425 1.432 1.085l.605 1.176h2.053v-1.278c0-.056.046-.102.102-.102h.761c.056 0 .102.046.102.102v1.278h2.269a.87.87 0 01.621.258.868.868 0 01.255.618v8.522h1.719c.057 0 .102.046.102.102v5.316h4.485c.542 0 1.035.22 1.396.58a1.964 1.964 0 010 2.785c-.361.36-.854.581-1.396.581h-5.035V90.2h.474c.057 0 .102.048.102.105v1.881a.101.101 0 01-.102.102h-1.526c-.023 1.49-.531 2.717-1.339 3.757-.823 1.06-1.954 1.924-3.2 2.68a39.676 39.676 0 01-3.577 1.918c-1.1.516-2.255.989-3.378 1.349-.258.096-.451.128-.581.111a.276.276 0 01-.19-.1.247.247 0 01-.043-.204c.017-.11.088-.249.216-.408h.002c.247-.291.534-.623.832-.969.78-.9 1.645-1.9 2.252-2.694-.119-.193-.142-.383-.014-.516.275-.42.524-.782.754-1.113 1.143-1.65 1.682-2.431 1.288-4.896-.051-.315-.017-.482.136-.578.119-.08.301-.09.573-.094l-.003-.688-1.6-.116a.104.104 0 01-.096-.102v-1.802l-1.583-.091-1.696 1.122a.127.127 0 01-.043.017l-19.041 2.626.022.785.409.332a.098.098 0 01.037.09l-.111.845a.1.1 0 01-.062.08l-.474.212-.193.821.323.411c.026.031.029.07.015.102l-.293.793a.1.1 0 01-.082.068l-.508.102-.38.751.204.485c.018.034.009.076-.014.105l-.488.685a.092.092 0 01-.088.043l-.524-.031-.57.62.065.521a.098.098 0 01-.043.097l-.661.527a.097.097 0 01-.102.014l-.488-.176-.709.456-.054.522a.104.104 0 01-.062.085l-.763.365a.111.111 0 01-.1-.005l-.442-.287-.797.275-.187.49a.104.104 0 01-.08.066l-.83.158a.105.105 0 01-.097-.031l-.352-.385-.834.096-.264.451a.112.112 0 01-.096.051l-.843.019a.11.11 0 01-.088-.048l-.28-.433-.834-.003-.273.439a.1.1 0 01-.096.048h-.84a.104.104 0 01-.088-.048l-.272-.439h-.83l-.273.439a.098.098 0 01-.094.048h-.842a.108.108 0 01-.088-.048l-.27-.439h-.834l-.27.439a.103.103 0 01-.096.048h-.842a.103.103 0 01-.085-.048l-.272-.439h-.831l-.273.439a.1.1 0 01-.096.048h-.84a.105.105 0 01-.088-.048l-.27-.439h-.833l-.273.439a.098.098 0 01-.093.048h-.843a.108.108 0 01-.088-.048l-.269-.439h-.834l-.27.439a.105.105 0 01-.096.048h-.84c-.04 0-.07-.02-.088-.048l-.272-.439h-.83l-.273.439a.1.1 0 01-.097.048h-.84a.108.108 0 01-.087-.048l-.27-.439h-.834l-.272.439a.098.098 0 01-.094.048h-.842a.1.1 0 01-.085-.048l-.272-.439h-.834l-.27.439a.103.103 0 01-.096.048h-.843a.103.103 0 01-.085-.048l-.272-.439h-.831l-.273.439a.105.105 0 01-.087.048h-.849c-.04 0-.07-.02-.09-.051l-.267-.436h-.834l-.27.439a.105.105 0 01-.096.048h-.842a.1.1 0 01-.085-.048l-.273-.439h-.834l-.27.439a.105.105 0 01-.096.048h-.84a.104.104 0 01-.087-.048l-.272-.439h-.831l-.273.439a.098.098 0 01-.093.048h-.843a.104.104 0 01-.088-.048l-.27-.439h-.833l-.27.439a.105.105 0 01-.096.048h-.843a.1.1 0 01-.085-.048l-.272-.439h-.831l-.272.439a.098.098 0 01-.094.048h-.843a.104.104 0 01-.087-.048l-.273-.439h-.83l-.273.439a.098.098 0 01-.094.048h-.842a.108.108 0 01-.088-.048l-.273-.439h-.83l-.27.439a.105.105 0 01-.096.048h-.843a.108.108 0 01-.088-.048l-.27-.439h-.833l-.27.439a.103.103 0 01-.096.048h-.84a.105.105 0 01-.088-.048l-.272-.439h-.831l-.273.439a.098.098 0 01-.093.048h-.843a.108.108 0 01-.087-.048l-.27-.439-.837.003-.28.433a.105.105 0 01-.088.048l-.851-.019a.11.11 0 01-.086-.051l-.263-.451-.837-.096-.352.385a.104.104 0 01-.096.031l-.834-.158a.097.097 0 01-.077-.066l-.187-.49-.797-.272-.443.284a.103.103 0 01-.102.002l-.763-.365a.093.093 0 01-.056-.082l-.057-.522-.71-.456-.493.179a.107.107 0 01-.096-.017l-.664-.53a.098.098 0 01-.037-.1l.077-.606-20 1.87h-.007l-.973.094a.107.107 0 01-.113-.094l-.082-1.102h-1.297a.102.102 0 01-.102-.102v-.433h-4.036l-.468.374a.097.097 0 01-.063.02h-2.816l-6.283 2.603a1.054 1.054 0 01-.854.151 1.26 1.26 0 01-.457-.216 1.264 1.264 0 01-.34-.377c-.21-.357-.233-.818.102-1.246l2.096-2.698a.105.105 0 01.083-.04h.76l2.555-18.345c0-.028.015-.057.037-.074v-.002l.003-.003h.003l.003-.003h.003l.003-.003.008-.003v-.003l5.753-2.858c.173-.1.36-.148.536-.148.156 0 .306.037.436.108.131.07.247.178.327.317.085.145.133.323.133.536v2.808c0 .17-.031.35-.108.512a.791.791 0 01-.318.346l-1.069.64v1.607l3.88 1.374c.054.02.08.08.063.13l-.516 1.19 1.035.162.3-.519a.101.101 0 01.089-.05h.882l1.027-1.814c.022-.045.08-.068.13-.045l.233.096 4.175-4.672V62.206c0-.754.652-.78 1.072-.777a.792.792 0 01.797-.748h13.15l5.203-5.825c.037-.04.1-.045.142-.011l.003.003.002.002.003.003 2.085 1.899a.1.1 0 01.006.141l-.743.836.899.802V46.226c0-.057.045-.102.102-.102h.573v-1.825H47.15a.104.104 0 01-.102-.105l-.006-.215c0-.309.051-.66.497-.66h3.88c.443 0 .494.351.494.66l-.003.212v.006zm-4.66-.105h4.456l.002-.113c0-.212-.03-.456-.289-.456h-3.88c-.261 0-.292.243-.292.456l.002.113zm3.324 2.032v-1.825h-2.193v1.825h2.193zm-3.05 12.727c-.002-.006-.005-.008-.008-.014a.533.533 0 00-.094-.102l-.956-.856-.24.27c.056.048.113.096.172.144.088.07.173.144.256.218.383.34.646.691.297 1.08l-1.117 1.249c-.003.008-.009.014-.014.02l-1.484 1.657c-.003.003-.006.009-.011.012l-2.4 2.683c0 .003-.003.005-.006.008l-.002.003-2.369 2.652c-.006.003-.008.009-.011.011l-.006.006-6.368 7.12c-.349.391-.726.167-1.106-.173a6.157 6.157 0 01-.244-.226 7.485 7.485 0 00-.159-.153l-.295.331.956.85a.629.629 0 00.457.159.645.645 0 00.434-.204L45.01 62.393l.014-.014 1.483-1.66.009-.01.958-1.073a.257.257 0 00.043-.054c.003-.003.006-.006.008-.011a.627.627 0 00.111-.397.614.614 0 00-.11-.323zm-.022 1.83v-.77l-.69.77h.69zm10.784-2.955H54.53v2.145a.565.565 0 01.357-.105h3.401v-2.04zm-3.758-.207h3.758v-.983H54.53v.983zm3.863-1.19h.985c-.054-.365-.395-.73-.897-1.014-.547-.312-1.288-.516-2.07-.516-.786 0-1.526.204-2.074.516-.502.283-.84.649-.896 1.014h4.952zm-3.863 4.069v.283h6.515v-.014c.003-.037.003-.076.003-.139 0-.26-.037-.558-.36-.558h-5.8c-.27 0-.341.207-.358.428zm38.086 2.38V45.231h-1.852v17.547h1.852zm-1.951-17.75h3.012v-1.174H64.735v1.173h25.929zM77.102 59.915h11.326a.816.816 0 00.576-.24.804.804 0 00.241-.578V47.92a.813.813 0 00-.817-.816H77.102a.82.82 0 00-.82.816v11.178a.822.822 0 00.82.819zm11.326.204H77.102a1.02 1.02 0 01-1.023-1.022V47.92a1.028 1.028 0 011.023-1.023h11.326c.281 0 .537.117.724.3.184.188.298.443.298.723v11.178a1.019 1.019 0 01-1.021 1.023zM49.233 78.503h2.485c.057 0 .105.045.105.102v.521a.104.104 0 01-.105.102h-2.485a.104.104 0 01-.105-.102v-.521c0-.057.048-.102.105-.102zm2.383.207h-2.28v.314h2.28v-.314zm.976-.207h2.487c.057 0 .102.045.102.102v.521a.102.102 0 01-.102.102h-2.487a.102.102 0 01-.103-.102v-.521c0-.057.046-.102.103-.102zm2.385.207h-2.283v.314h2.283v-.314zm.925-.207h2.487c.057 0 .103.045.103.102v.521a.102.102 0 01-.102.102h-2.488a.102.102 0 01-.102-.102v-.521c0-.057.045-.102.102-.102zm2.385.207h-2.283v.314h2.283v-.314zm-12.801-3.14h.962c.056 0 .102.046.102.102v.519a.102.102 0 01-.102.102h-.556a.095.095 0 01-.083-.045l-.402-.513a.098.098 0 01.017-.142.085.085 0 01.062-.023zm.857.204h-.647l.247.312h.4v-.312zm-1.6-1.15h1.705c.056 0 .102.045.102.102v.519a.102.102 0 01-.102.102h-1.3a.1.1 0 01-.082-.043l-.403-.516a.097.097 0 01.017-.141.085.085 0 01.063-.023zm1.6.204h-1.39l.246.315h1.144v-.315zM44 73.678h2.448c.056 0 .102.045.102.102v.518a.102.102 0 01-.102.102h-2.043a.095.095 0 01-.082-.045l-.403-.513a.098.098 0 01.017-.142.085.085 0 01.063-.022zm2.343.204h-2.134l.247.314h1.887v-.314zm-3.087-1.15h3.192c.056 0 .102.045.102.102v.518a.102.102 0 01-.102.102h-2.786a.095.095 0 01-.082-.045l-.406-.513a.1.1 0 01.02-.142.085.085 0 01.063-.023zm3.087.204h-2.877l.247.314h2.63v-.314zm-2.054-6.71h2.159c.056 0 .102.046.102.102v.519a.102.102 0 01-.102.102H44.09a.102.102 0 01-.088-.153c.032-.077.066-.156.1-.244a6.37 6.37 0 00.09-.255.1.1 0 01.097-.07zm2.054.204h-1.98c-.023.065-.046.13-.071.196l-.048.119h2.099v-.315zm-2.448.723h2.553c.056 0 .102.045.102.102v.518a.102.102 0 01-.102.102H43.59a.104.104 0 01-.105-.102c0-.025.009-.048.023-.065.051-.076.102-.159.15-.244.051-.085.1-.17.145-.257a.105.105 0 01.09-.054zm2.448.204h-2.386l-.119.212-.062.102h2.567v-.314zm-3.047.722h3.152c.056 0 .102.046.102.102v.519a.102.102 0 01-.102.102h-3.606a.102.102 0 01-.102-.102c0-.032.014-.06.037-.077.077-.082.153-.161.224-.246.074-.082.145-.17.216-.258a.1.1 0 01.08-.04zm3.047.204h-2.996c-.062.08-.127.153-.193.23l-.073.082h3.262v-.312zm-3.94.723h4.045c.056 0 .102.045.102.102v.518a.102.102 0 01-.102.102h-4.76a.102.102 0 01-.102-.102.1.1 0 01.054-.09 7.77 7.77 0 00.354-.239 9.08 9.08 0 00.343-.266.095.095 0 01.066-.025zm3.94.204h-3.904c-.107.09-.215.172-.323.252l-.088.062h4.315v-.314zm-5.285.722h5.39c.056 0 .102.046.102.102v.519a.102.102 0 01-.102.102h-4.984a.1.1 0 01-.085-.046l-.403-.512a.1.1 0 01.017-.142.097.097 0 01.065-.023zm5.285.204h-5.075l.244.315h4.83v-.315zm-4.559.723h4.664c.056 0 .102.045.102.102v.518a.102.102 0 01-.102.102H42.19a.1.1 0 01-.082-.042l-.403-.516a.098.098 0 01.017-.142.085.085 0 01.062-.022zm4.559.204h-4.349l.247.314h4.102v-.314zm-3.83.722h3.935c.056 0 .102.046.102.102v.519a.102.102 0 01-.102.102h-3.53a.095.095 0 01-.081-.046l-.406-.513a.103.103 0 01.017-.141.114.114 0 01.065-.023zm3.83.204h-3.62l.244.315h3.376v-.315zm2.89 5.579h2.485c.057 0 .105.045.105.102v.521a.104.104 0 01-.105.102h-2.485a.104.104 0 01-.105-.102v-.521c0-.057.048-.102.105-.102zm2.383.207h-2.28v.311h2.28v-.311zm-2.383-1.125h2.485c.057 0 .105.045.105.102v.518a.104.104 0 01-.105.102h-2.485a.104.104 0 01-.105-.102v-.518c0-.057.048-.102.105-.102zm2.383.204h-2.28v.314h2.28v-.314zm-2.383-1.125h2.485c.057 0 .105.045.105.102v.519a.104.104 0 01-.105.102h-2.485a.104.104 0 01-.105-.102v-.519c0-.057.048-.102.105-.102zm2.383.204h-2.28v.315h2.28v-.315zm-2.383-1.125h2.485c.057 0 .105.046.105.102v.519a.104.104 0 01-.105.102h-2.485a.104.104 0 01-.105-.102v-.519c0-.056.048-.102.105-.102zm2.383.204h-2.28v.315h2.28v-.315zm-2.383-1.147h2.485c.057 0 .105.045.105.102v.518a.104.104 0 01-.105.102h-2.485a.104.104 0 01-.105-.102v-.518c0-.057.048-.102.105-.102zm2.383.204h-2.28v.314h2.28v-.314zm.976 3.499h2.487c.057 0 .102.045.102.102v.521a.102.102 0 01-.102.102h-2.487a.102.102 0 01-.103-.102v-.521c0-.057.046-.102.103-.102zm2.385.207h-2.283v.311h2.283v-.311zm-2.385-1.125h2.487c.057 0 .102.045.102.102v.518a.102.102 0 01-.102.102h-2.487a.102.102 0 01-.103-.102v-.518c0-.057.046-.102.103-.102zm2.385.204h-2.283v.314h2.283v-.314zm-2.385-1.125h2.487c.057 0 .102.045.102.102v.519a.102.102 0 01-.102.102h-2.487a.102.102 0 01-.103-.102v-.519c0-.057.046-.102.103-.102zm2.385.204h-2.283v.315h2.283v-.315zm-2.385-1.125h2.487c.057 0 .102.046.102.102v.519a.102.102 0 01-.102.102h-2.487a.102.102 0 01-.103-.102v-.519c0-.056.046-.102.103-.102zm2.385.204h-2.283v.315h2.283v-.315zm-2.385-1.147h2.487c.057 0 .102.045.102.102v.518a.102.102 0 01-.102.102h-2.487a.102.102 0 01-.103-.102v-.518c0-.057.046-.102.103-.102zm2.385.204h-2.283v.314h2.283v-.314zm.925 3.499h2.487c.057 0 .103.045.103.102v.521a.102.102 0 01-.102.102h-2.488a.102.102 0 01-.102-.102v-.521c0-.057.045-.102.102-.102zm2.385.207h-2.283v.311h2.283v-.311zm-2.385-1.125h2.487c.057 0 .103.045.103.102v.518a.102.102 0 01-.102.102h-2.488a.102.102 0 01-.102-.102v-.518c0-.057.045-.102.102-.102zm2.385.204h-2.283v.314h2.283v-.314zm-2.385-1.125h2.487c.057 0 .103.045.103.102v.519a.102.102 0 01-.102.102h-2.488a.102.102 0 01-.102-.102v-.519c0-.057.045-.102.102-.102zm2.385.204h-2.283v.315h2.283v-.315zm-2.385-1.125h2.487c.057 0 .103.046.103.102v.519a.102.102 0 01-.102.102h-2.488a.102.102 0 01-.102-.102v-.519c0-.056.045-.102.102-.102zm2.385.204h-2.283v.315h2.283v-.315zm-2.385-1.147h2.487c.057 0 .103.045.103.102v.518a.102.102 0 01-.102.102h-2.488a.102.102 0 01-.102-.102v-.518c0-.057.045-.102.102-.102zm2.385.204h-2.283v.314h2.283v-.314zm-2.385-6.92h2.487c.057 0 .103.046.103.103v.521a.102.102 0 01-.102.102h-2.488a.102.102 0 01-.102-.102v-.521c0-.057.045-.102.102-.102zm2.385.208h-2.283v.314h2.283v-.314zm-2.385-1.125h2.487c.057 0 .103.045.103.102v.518a.102.102 0 01-.102.102h-2.488a.102.102 0 01-.102-.102v-.518c0-.057.045-.102.102-.102zm2.385.204h-2.283v.314h2.283v-.314zm-5.695 3.473h2.487c.057 0 .102.049.102.105v.519a.102.102 0 01-.102.102h-2.487a.102.102 0 01-.103-.102v-.519c0-.056.046-.105.103-.105zm2.385.207h-2.283v.315h2.283v-.315zm-2.385-1.124h2.487c.057 0 .102.045.102.102v.518a.102.102 0 01-.102.102h-2.487a.102.102 0 01-.103-.102v-.518c0-.057.046-.102.103-.102zm2.385.203h-2.283v.315h2.283v-.315zm-2.385-1.124h2.487c.057 0 .102.045.102.102v.518a.104.104 0 01-.102.105h-2.487a.104.104 0 01-.103-.105v-.518c0-.057.046-.102.103-.102zm2.385.204h-2.283v.314h2.283v-.314zm-2.385-1.125h2.487c.057 0 .102.045.102.102v.521a.102.102 0 01-.102.102h-2.487a.102.102 0 01-.103-.102v-.521c0-.057.046-.102.103-.102zm2.385.207h-2.283v.314h2.283v-.314zm-2.385-1.125h2.487c.057 0 .102.045.102.102v.518a.102.102 0 01-.102.102h-2.487a.102.102 0 01-.103-.102v-.518c0-.057.046-.102.103-.102zm2.385.204h-2.283v.314h2.283v-.314zm-5.744 3.473h2.485c.057 0 .105.049.105.105v.519a.104.104 0 01-.105.102h-2.485a.104.104 0 01-.105-.102v-.519c0-.056.048-.105.105-.105zm2.383.207h-2.28v.315h2.28v-.315zm-2.383-1.124h2.485c.057 0 .105.045.105.102v.518a.104.104 0 01-.105.102h-2.485a.104.104 0 01-.105-.102v-.518c0-.057.048-.102.105-.102zm2.383.203h-2.28v.315h2.28v-.315zm-2.383-1.124h2.485c.057 0 .105.045.105.102v.518a.107.107 0 01-.105.105h-2.485a.107.107 0 01-.105-.105v-.518c0-.057.048-.102.105-.102zm2.383.204h-2.28v.314h2.28v-.314zm-2.383-1.125h2.485c.057 0 .105.045.105.102v.521a.104.104 0 01-.105.102h-2.485a.104.104 0 01-.105-.102v-.521c0-.057.048-.102.105-.102zm2.383.207h-2.28v.314h2.28v-.314zm-2.383-1.125h2.485c.057 0 .105.045.105.102v.518a.104.104 0 01-.105.102h-2.485a.104.104 0 01-.105-.102v-.518c0-.057.048-.102.105-.102zm2.383.204h-2.28v.314h2.28v-.314zm1.923 30.806l.02-.002h.003l.34-.032h.014l.604-.056 2.207-.207h.006l.17-.017c.006-.003.014-.003.02-.003h.003l2.04-.19c.005-.003.014-.003.022-.003h.003l.07-.005c.006-.003.012-.003.015-.003l3.248-.303h.005c.009-.003.015-.003.023-.003l12.004-1.125-.204-2.13a2.26 2.26 0 01-.037-.394l-.221-2.287-32.345 2.845a.101.101 0 01-.051.003l-6.292.555a.103.103 0 01-.05.003l-15.33 1.348.392 5.126 20.012-1.873c.006 0 .008-.003.014-.003l3.052-.283c.006-.003.011-.003.017-.003l9.398-.881h.022l.806-.077zm.122.193v2.57c.332.241.74.382 1.18.382h1.98V97.14l-.023.003c-.11.193-.258.363-.428.499a1.89 1.89 0 01-.936.394 1.735 1.735 0 01-1.557-.62l-.216.02zm-.204 2.397v-2.377l-.621.06v.87c0 .552.224 1.053.587 1.416l.034.031zm3.57-2.711v3.266h1.856v-3.44l-1.855.174zm-.785.362a1.47 1.47 0 00.298-.317l-2.408.227c.116.116.244.21.377.28.284.147.599.196.902.159.3-.037.593-.159.831-.349zm8.28-.38v3.284h3.157v-3.283a1.787 1.787 0 01-1.58.946 1.789 1.789 0 01-1.577-.946zm-.207 3.284v-3.95l-1.86.176v3.774h1.86zm3.568-4.003v4.003h1.708v-4.003h-1.708zm-.743-.21c.187.003.377.003.587.003h33.755a6.713 6.713 0 001.24-2.887h-4.944a2.206 2.206 0 01-.244.295h-.003a2.049 2.049 0 01-2.89 0l-.003-.003a2.167 2.167 0 01-.241-.292H80.753v.867c0 .034-.02.068-.051.088l-1.345.773a.126.126 0 01-.045.017l-4.83.454h-.006l-7.336.685zm.077 1.213c.264-.26.434-.612.46-1.003H65.21c-.238.006-.468.02-.683.037.034.382.207.728.47.98.284.275.673.442 1.101.442.437 0 .834-.173 1.118-.456zm-8.127-.278v3.278h3.157v-3.283a1.698 1.698 0 01-.527.595c-.264.187-.576.3-.894.334-.32.034-.65-.011-.944-.15a1.657 1.657 0 01-.792-.774zm2.513.422c.29-.204.514-.51.605-.895l-2.985.28a1.5 1.5 0 00.744.783 1.6 1.6 0 00.836.13 1.72 1.72 0 00.8-.298zm8.192-.427v3.283h3.16v-3.283a1.792 1.792 0 01-3.16 0zm3.364-.72v4.003h1.972v-4.003h-1.972zm-.666 1.003c.264-.26.434-.612.46-1.003h-3.155c.026.39.196.742.46 1.003.286.283.68.456 1.117.456.437 0 .831-.173 1.118-.456zm13.55-.283v3.283h1.98c.44 0 .848-.141 1.18-.385v-2.898a1.786 1.786 0 01-1.58.946 1.787 1.787 0 01-1.58-.946zm-.207 3.283v-4.003H84.13v4.003h1.705zm-5.069-3.283v3.283h3.16v-3.283a1.787 1.787 0 01-1.58.946 1.792 1.792 0 01-1.58-.946zm-.204 3.283v-4.003h-1.864v4.003h1.864zm8.844-4.003v3.448l.031-.031a2 2 0 00.59-1.417v-2h-.62zm-.666 1.003c.26-.26.43-.612.456-1.003h-3.151a1.575 1.575 0 001.577 1.459c.434 0 .831-.173 1.117-.456zm-5.276 0c.263-.26.434-.612.46-1.003H80.77c.025.39.196.742.46 1.003.286.283.68.456 1.117.456.437 0 .831-.173 1.118-.456zm-8.13-.283v3.283h3.16v-3.283a1.787 1.787 0 01-1.58.946 1.792 1.792 0 01-1.58-.946zm2.698.283c.263-.26.434-.612.46-1.003H75.34a1.559 1.559 0 001.574 1.459c.437 0 .831-.173 1.118-.456zM60.996 83.478H82.96l13.885 1.737a6.937 6.937 0 014.135 1.995 6.935 6.935 0 012.045 4.93c0 .357-.028.71-.079 1.054 0 .005-.003.011-.003.017a6.936 6.936 0 01-1.325 3.125l-.008.011a6.628 6.628 0 01-.63.72 6.948 6.948 0 01-4.933 2.043h-.01l-5.93.002c-.11.315-.291.601-.524.833-.4.4-.953.649-1.56.649H54.84a2.205 2.205 0 01-1.562-.649 2.226 2.226 0 01-.525-.833l-6.305-.002c-.5 0-1.138-.088-1.728-.221-.573-.128-1.103-.3-1.43-.482l-2.952.278-.077.6.576.46.482-.174a.109.109 0 01.094.009l.794.51a.106.106 0 01.045.076l.054.513.664.318.431-.278a.105.105 0 01.094-.011l.888.303a.104.104 0 01.062.062l.184.482.724.136.349-.38a.106.106 0 01.087-.034l.937.108h.011v.003h.011v.002h.006v.003h.006l.005.003a.062.062 0 01.014.009.08.08 0 01.026.031l.261.445.735.017.28-.431a.101.101 0 01.088-.048l.94-.003a.105.105 0 01.096.048l.27.439h.734l.272-.439a.103.103 0 01.085-.048h.942a.098.098 0 01.094.048l.272.439h.735l.269-.439a.108.108 0 01.088-.048h.939a.103.103 0 01.096.048l.27.439h.737l.27-.439a.104.104 0 01.088-.048h.939a.105.105 0 01.096.048l.27.439h.734l.273-.439a.104.104 0 01.087-.048h.94a.098.098 0 01.093.048l.272.439h.735l.272-.439a.108.108 0 01.088-.048h.936a.103.103 0 01.097.048l.272.439h.735l.27-.439a.104.104 0 01.087-.048h.947c.035 0 .069.017.085.048l.273.439h.735l.272-.439a.103.103 0 01.085-.048h.942a.098.098 0 01.093.048l.273.439H67l.27-.439a.108.108 0 01.088-.048h.939a.105.105 0 01.096.048l.27.439h.734l.272-.439a.104.104 0 01.088-.048h.94a.105.105 0 01.096.048l.27.439h.734l.272-.439a.103.103 0 01.085-.048h.942a.098.098 0 01.094.048l.272.439h.735l.269-.439a.108.108 0 01.088-.048h.939a.103.103 0 01.096.048l.27.439h.737l.27-.439a.105.105 0 01.088-.048h.939a.098.098 0 01.093.048l.273.439h.734l.272-.439a.103.103 0 01.086-.048h.941a.098.098 0 01.094.048l.272.439h.735l.27-.439a.108.108 0 01.087-.048h.94a.103.103 0 01.096.048l.27.439h.734l.272-.439a.108.108 0 01.088-.048h.939a.105.105 0 01.096.048l.27.439h.734l.273-.439a.103.103 0 01.085-.048h.939a.1.1 0 01.096.048l.273.439h.734l.27-.439a.108.108 0 01.088-.048h.939a.105.105 0 01.096.048l.27.439h.734l.272-.439a.104.104 0 01.088-.048h.94a.098.098 0 01.093.048l.272.439h.735l.272-.439a.103.103 0 01.085-.048l.948.003h.023l.003.003h.006l.003.002h.005v.003h.006l.003.003h.003v.003h.005v.003h.003l.003.003h.003v.002l.003.003h.002v.003l.006.006h.003v.003h.003v.002l.003.003v.003h.002v.003l.281.431.735-.017.261-.445a.101.101 0 01.077-.051l.939-.108a.115.115 0 01.087.031l.35.383.723-.136.184-.479a.101.101 0 01.062-.065l.891-.303a.095.095 0 01.088.008l.434.281.664-.318.054-.513a.097.097 0 01.048-.076l.791-.51a.096.096 0 01.088-.009l.488.173.576-.459-.062-.513a.09.09 0 01.025-.079l.63-.686a.092.092 0 01.085-.04l.516.032.426-.598-.202-.476a.108.108 0 01.003-.088l.426-.836a.097.097 0 01.07-.053l.508-.102.253-.692-.321-.405a.109.109 0 01-.017-.088l.213-.915a.105.105 0 01.059-.07l.471-.213.097-.728-.4-.326a.103.103 0 01-.04-.077l-.026-.912c-.002-.006-.002-.011-.002-.017v-.009a.1.1 0 01.037-.079l.391-.337-.116-.725-.48-.199a.104.104 0 01-.059-.065l-.233-.805a.11.11 0 01.011-.093l.298-.422-.289-.674-.511-.077a.099.099 0 01-.073-.051l-.346-.595-.003-.003-.003-.003-.074-.127a.104.104 0 01-.005-.088l.187-.482-.443-.586-.516.048a.104.104 0 01-.082-.031l-.318-.326-.003-.003-.264-.269a.116.116 0 01-.034-.088l.063-.513-.576-.459-.479.173a.1.1 0 01-.094-.005l-.721-.44a.109.109 0 01-.048-.076l-.065-.513-.67-.303-.428.286a.093.093 0 01-.09.014l-.508-.161-.02-.009-.275-.088a.095.095 0 01-.046-.028h-.003v-.003l-.002-.003-.003-.003v-.002l-.003-.003v-.003h-.003v-.003l-.003-.003v-.005l-.002-.003v-.003l-.182-.482-.723-.141-.35.38a.099.099 0 01-.09.03l-.84-.133a.103.103 0 01-.076-.06l-.216-.47-.732-.09-.317.397a.101.101 0 01-.097.042l-.845-.105a.096.096 0 01-.08-.06l-.215-.47-.73-.09-.32.396a.104.104 0 01-.096.046l-.845-.108a.103.103 0 01-.08-.057l-.212-.47-.732-.093-.32.396a.104.104 0 01-.097.046l-.843-.108a.107.107 0 01-.082-.057l-.213-.47-.732-.094-.317.4c-.023.028-.06.048-.097.042l-.845-.104a.108.108 0 01-.08-.06l-.215-.47-.732-.09-.317.396c-.023.028-.06.048-.097.042l-.845-.105a.108.108 0 01-.08-.06l-.215-.47-.73-.09-.32.4a.11.11 0 01-.09.04l-.846-.052a.1.1 0 01-.082-.05l-.27-.44h-.737l-.267.433a.106.106 0 01-.09.057h-.852a.108.108 0 01-.087-.05l-.27-.44h-.737l-.27.436a.103.103 0 01-.088.054h-.85a.108.108 0 01-.089-.05l-.27-.44h-.737l-.266.433a.106.106 0 01-.091.057h-.851a.107.107 0 01-.088-.05l-.27-.44h-.737l-.267.433a.106.106 0 01-.09.057h-.851a.107.107 0 01-.088-.05l-.27-.44h-.737l-.267.433a.108.108 0 01-.093.057h-.849a.107.107 0 01-.093-.057l-.264-.433h-.737l-.273.44a.103.103 0 01-.085.05h-.85a.107.107 0 01-.094-.057l-.267-.433h-.735l-.272.44a.103.103 0 01-.085.05H66.4a.111.111 0 01-.094-.057l-.266-.433h-.735l-.272.44a.103.103 0 01-.085.05h-.851a.104.104 0 01-.091-.054l-.27-.436h-.734l-.273.44a.104.104 0 01-.088.05h-.848a.107.107 0 01-.093-.057l-.264-.433h-.738l-.272.44a.1.1 0 01-.08.05l-.416.026h-.02l-.411.025a.1.1 0 01-.088-.04l-.32-.4-.733.092-.215.47a.108.108 0 01-.08.06l-.845.104a.1.1 0 01-.094-.042l-.32-.397-.732.09-.213.471a.107.107 0 01-.082.057l-.843.107a.102.102 0 01-.096-.042l-.32-.4-.732.094-.213.47a.107.107 0 01-.082.057l-.843.108a.104.104 0 01-.096-.046l-.32-.396-.73.093-.215.47a.098.098 0 01-.08.057l-.845.108a.11.11 0 01-.096-.046l-.318-.396-.732.09-.215.47a.096.096 0 01-.08.06l-.842.105a.103.103 0 01-.1-.043l-.317-.396-.732.09-.213.47a.113.113 0 01-.08.06l-.836.133a.096.096 0 01-.09-.03l-.353-.38-.723.141-.181.485a.092.092 0 01-.066.06l-.802.257a.095.095 0 01-.091-.014l-.429-.286-.669.303-.065.513a.107.107 0 01-.049.076l-.72.44a.1.1 0 01-.094.005l-.479-.173-.576.46.063.512a.102.102 0 01-.034.088l-.585.598a.105.105 0 01-.082.031l-.516-.048-.443.586.165.42.005.011.02.051a.106.106 0 01-.008.088l-.338.58c-.003.004-.003.01-.005.012l-.08.136a.112.112 0 01-.074.051l-.513.076-.29.675.299.422a.1.1 0 01.01.094l-.232.804a.098.098 0 01-.06.065l-.479.199-.116.725.394.337c.026.026.037.06.034.094l-.07.427 1.996.638a6.951 6.951 0 011.872-5.094 6.955 6.955 0 014.545-2.19l14.01-1.712a.04.04 0 01.025 0h1.069zm.826.204c.139.074.26.167.368.275.222.221.375.502.451.802a1.652 1.652 0 01-.769 1.887v.402h.466c.057 0 .102.046.102.102v.842h18.11v-.842c0-.056.045-.102.102-.102h.462v-.402a1.636 1.636 0 01-.76-.97c-.085-.3-.085-.62-.009-.917.077-.3.23-.581.451-.802.108-.108.23-.201.37-.275H61.821zm-1.705 2.964a1.637 1.637 0 01-.76-.97c-.085-.3-.085-.62-.009-.917.077-.3.23-.581.451-.802a1.55 1.55 0 01.369-.275h-.247l-12.605 1.541c.964.12 1.869.44 2.672.913a7.01 7.01 0 012.535 2.581l3.07-.72c.008-.002.017-.005.028-.005h3.931v-.842c0-.056.046-.102.103-.102h.462v-.402zm1.929-2.544a1.449 1.449 0 00-1.05-.42c-.44 0-.797.165-1.052.42a1.581 1.581 0 00-.392 1.519c.088.297.27.574.565.781V85.17l.003-.016v-.02l.003-.017.002-.017v-.003l.003-.017.003-.017.003-.017.003-.017a.799.799 0 01.505-.6.96.96 0 01.71 0 .808.808 0 01.51.634l.002.017.003.017v.02l.003.017v.02l.003.017v1.232c.295-.207.48-.484.564-.782a1.55 1.55 0 00.009-.813 1.544 1.544 0 00-.4-.706zm-.377 2.946V85.17l-.003-.014v-.015l-.003-.014-.003-.014v-.011l-.003-.014-.003-.015-.003-.011-.002-.014-.003-.011-.003-.015-.003-.011-.005-.011v-.003l-.003-.011-.006-.012-.003-.011-.005-.011-.006-.012a.608.608 0 00-.338-.323.783.783 0 00-.559 0l-.005.003a.604.604 0 00-.369.428v.003l-.003.011-.003.011v.015h-.002v.014l-.003.011v.003l-.003.011v.014l-.003.014v.029l-.003.014v1.85h1.348zm.564 4.253v-4.049h-2.477v4.267l2.477-.218zm-2.68.238v-3.34h-3.92l-6.423 1.507a.98.98 0 01.15.527v2.201l10.192-.895zm2.887-3.34v3.085l11.536-1.014h.017l4.428-.012a.099.099 0 01.08.032l2.048 2.042V88.2H62.44zm20.378-4.517c.139.074.26.167.369.275.22.221.374.502.45.802.077.297.08.617-.008.918a1.64 1.64 0 01-.76.969v.402h.462c.057 0 .102.046.102.102v.842h3.807l2.978.314a6.995 6.995 0 012.496-2.292 6.925 6.925 0 012.505-.796l-12.285-1.536h-.116zm.224.42a1.45 1.45 0 00-1.052-.42c-.437 0-.795.165-1.05.42a1.514 1.514 0 00-.397.705 1.55 1.55 0 00.006.813c.085.298.27.575.564.782V85.17l.003-.016v-.02l.003-.017.003-.02v-.017l.002-.017.003-.017.006-.017a.801.801 0 01.502-.6.96.96 0 01.712 0 .808.808 0 01.51.634l.003.017.003.017v.02l.003.017v.02l.003.017v1.235c.295-.207.48-.487.564-.785a1.553 1.553 0 00-.391-1.519zm-.377 2.946v-1.864l-.003-.014v-.014l-.003-.015v-.014l-.003-.014-.003-.011v-.014l-.003-.015-.002-.011-.003-.014a.61.61 0 00-.375-.43.772.772 0 00-.558 0 .61.61 0 00-.375.43l-.003.014-.002.011-.003.015v.014l-.003.011-.003.014v.014l-.003.014v.015l-.003.014v1.864h1.348zm.564 6.035v-5.831h-2.477v5.831h2.477zm.204-4.885v4.885h8.513a4.225 4.225 0 01.791-3.553 4.214 4.214 0 013.35-1.635 4.218 4.218 0 013.373 1.666 4.25 4.25 0 01.879 2.576c0 .311-.034.629-.108.946h2.525a6.744 6.744 0 00-1.92-5.729 6.771 6.771 0 00-3.898-1.924h-.011l-.136-.017a6.766 6.766 0 00-6.442 3.066h-.003v.003h-.003c-.025.031-.065.042-.102.031l-3.004-.315h-3.804zm-46.15 3.576l.054-.343-.378-.325-1.058-.442-.422 1.056.315.102.139-.374a.1.1 0 01.124-.062l1.226.388zm-.352-.9l.116-.712a.094.094 0 01.063-.077l.482-.2.21-.715-.3-.425a.105.105 0 01-.012-.105l.334-.779a.1.1 0 01.08-.062l.159-.023h-2.028l-.715 1.825.771.323a.1.1 0 01.054.13l-.167.42.953.4zm1.58-3.302l.255-.436H28.081a.747.747 0 01-.746-.748v-7.99l-1.174 1.315v7.267a.587.587 0 00.337.533l.114.04.014.005c.04.009.082.014.127.014h11.758zm.23-.643l-.134-.334a.101.101 0 01.012-.102l.513-.68a.106.106 0 01.09-.04l.526.048.519-.532-.063-.522a.096.096 0 01.037-.09l.667-.53a.097.097 0 01.096-.014l.497.175.635-.388.065-.516a.104.104 0 01.06-.084l.774-.352a.104.104 0 01.1.009l.434.291.712-.226.181-.482a.101.101 0 01.08-.073l.833-.165a.104.104 0 01.094.031l.352.383.732-.116.212-.465a.098.098 0 01.082-.068l.846-.105a.096.096 0 01.09.037l.327.402.729-.09.212-.462a.098.098 0 01.083-.068l.845-.105a.096.096 0 01.09.037l.324.402.732-.09.21-.462a.11.11 0 01.085-.068l.845-.105a.106.106 0 01.091.037l.323.405.732-.094.21-.461a.107.107 0 01.085-.068l.843-.105a.103.103 0 01.093.04l.324.402.729-.094.212-.462a.096.096 0 01.086-.065l.842-.107a.098.098 0 01.09.04l.327.402.729-.094.213-.462a.095.095 0 01.082-.065l.845-.108a.105.105 0 01.091.04l.326.405.273-.017v-8.661c0-.057.048-.102.102-.102h2.07v-9.659H45.134c-3.931 4.386-7.868 8.77-11.777 13.175a.849.849 0 01-.573.272.853.853 0 01-.61-.213c-.315-.286-.633-.566-.95-.85l-.865.967-.003.005h-.003v.003l-.003.003-.003.003-.005.003-.003.002-.006.003-.003.003h-.005l-.003.003-.006.003h-.008v.003a.112.112 0 01-.094-.023l-.008-.011-.355-.33-2.312 2.588v8.222a.541.541 0 00.542.541h10.66zm21.277-5.961l.263-.017.267-.436a.102.102 0 01.094-.057h.85c.032 0 .066.017.086.048l.272.44h.735l.266-.431a.105.105 0 01.094-.057h.848a.1.1 0 01.088.048l.272.44h.735l.267-.431a.105.105 0 01.093-.057h.848c.037 0 .068.017.088.048l.273.44h.734l.27-.434a.104.104 0 01.09-.054h.852a.1.1 0 01.085.048l.272.44h.737l.264-.431a.105.105 0 01.094-.057h.85a.1.1 0 01.086.048l.272.44h.738l.27-.44a.105.105 0 01.087-.048h.848c.043 0 .077.023.094.057l.266.43h.738l.27-.439a.104.104 0 01.087-.048h.849c.042 0 .076.023.093.057l.267.43h.737l.27-.439a.104.104 0 01.088-.048h.85c.04 0 .074.023.091.057l.267.43h.735l.272-.439a.104.104 0 01.088-.048h.85c.04 0 .075.023.092.057l.266.43h.738l.27-.439a.105.105 0 01.087-.048h.851c.04 0 .074.023.09.057l.27.436.74.045.327-.405a.101.101 0 01.094-.037l.842.105c.04.003.07.031.085.065l.21.462.732.094.323-.403a.098.098 0 01.091-.04l.845.108c.04.003.071.031.083.065l.212.462.732.094.324-.403a.098.098 0 01.09-.04l.846.106c.036.005.07.034.082.068l.21.461.731.094.324-.405a.108.108 0 01.094-.037l.842.105a.11.11 0 01.085.068l.21.462.732.09.323-.402a.1.1 0 01.094-.037l.842.105a.11.11 0 01.085.068l.21.462.732.09.323-.402a.096.096 0 01.091-.037l.845.105a.1.1 0 01.083.068l.212.465.732.116.352-.383a.112.112 0 01.097-.03l.833.164a.11.11 0 01.08.073l.178.482.106.034V77.27H60.018v3.698zM98.89 83.14l.403.127.433-.291a.104.104 0 01.1-.009l.774.352a.1.1 0 01.06.085l.065.515.638.388.494-.175a.096.096 0 01.096.014l.667.53a.098.098 0 01.037.09l-.063.522.117.119 1.426-4.392v-5.514h-2.255l-2.992 1.726v5.913zm3.982 2.434l.244.246.522-.048a.106.106 0 01.091.04l.513.68a.101.101 0 01.012.102l-.19.484.017.029 21.007-2.873c.08-.539.159-1.069.227-1.593l-10.541-2.346c-.158.34-.527.315-.848.253-.045-.009-.102-.023-.15-.034l-.017-.003-.23 1.153a.104.104 0 01-.119.082l-1.784-.357a.099.099 0 01-.082-.119l.158-.799-7.36-1.649v2.21a.095.095 0 01-.009.04l-1.461 4.502zm1.319 1.725l.247.422.519.077a.102.102 0 01.08.062l.337.78a.106.106 0 01-.014.104l-.301.425.21.714.485.201a.107.107 0 01.063.077l.133.839a.103.103 0 01-.034.093l-.193.17 18.789-2.595 3.43-2.267c.252-.184.391-.436.442-.703a1.39 1.39 0 00-.471-1.295 1.074 1.074 0 00-.763-.246L104.191 87.3zm-55.122 2.227l3.247-.762a6.834 6.834 0 00-2.43-2.454 6.75 6.75 0 00-3.906-.923l-.057.005h-.02a6.748 6.748 0 00-4.405 2.126 6.747 6.747 0 00-1.813 5.02l1.83.584 2.017-.176v-2.714c0-.275.113-.527.295-.711l.005-.003a.995.995 0 01.707-.292h3.815c.278 0 .527.113.712.297l.003.003zm.087 2.924v-2.218a.79.79 0 00-.195-.522l-.006-.005c-.008-.011-.02-.023-.031-.034l-.003-.003a.796.796 0 00-.567-.235h-3.815a.802.802 0 00-.562.23l-.006.005a.799.799 0 00-.235.564v2.694l5.42-.476zm41.077 3.933v2c0 .182-.023.357-.063.524l5.866-.002h.011a6.76 6.76 0 004.789-1.984c.173-.17.334-.351.487-.538h-11.09zm-37.54 2.524a2.12 2.12 0 01-.065-.524v-.853l-8.938.84c.296.118.676.229 1.076.32.575.13 1.197.215 1.682.215l6.246.002zm43.394-8.811c.565 0 1.075.23 1.447.598v.003c.371.368.598.878.598 1.442 0 .34-.085.663-.232.943h2.119c.079-.314.116-.632.116-.946 0-.901-.31-1.76-.837-2.451a4.01 4.01 0 00-2.167-1.45 4.055 4.055 0 00-1.044-.137 4.037 4.037 0 00-3.931 4.984h2.119a1.995 1.995 0 01-.233-.943c0-.564.227-1.074.599-1.445l.002-.003a2.04 2.04 0 011.444-.595zm1.302.742a1.846 1.846 0 00-2.604 0 1.837 1.837 0 00-.252 2.287c.003.002.005.008.008.014a1.84 1.84 0 003.092-.003l.003-.008h.003a1.837 1.837 0 00-.25-2.29zm-16.84 2.437a.097.097 0 01-.054-.088c0-.04.02-.074.054-.09v-.477l-2.162-2.159-.845.003a2.45 2.45 0 011.498 2.264 2.459 2.459 0 01-1.509 2.27l1.738-.165 1.28-.737v-.821zm-61.066-7.928a.08.08 0 01-.03.054l-.33.587.766.252.434-1.244a.1.1 0 01.13-.063l.636.222.068-.196a.103.103 0 01.13-.062l.732.255a.1.1 0 01.063.13l-.216.623 4.187 1.454a.786.786 0 01-.097-.38v-1.09l-1.001-.42-.014-.008-2.91-1.222-.015-.005-1.31-.55a1.346 1.346 0 01-.017-.008l-.21-.088-.996 1.76zm-.28.082h-.707l-.23.4.653.105.284-.505zm-2.31 2.692h-.014a.93.93 0 00-.127-.008c-.375 0-.93.37-1.345.648-.224.15-.408.275-.524.31a.08.08 0 01-.037.008h-1.26v3.618h.854l2.987-2.924a.953.953 0 00.218-1.06.954.954 0 00-.752-.592zm-.045-.21l.363-.6-.726-.465-.567 1.303a.1.1 0 01-.128.054l-1.971-.697-.003-.003-.23-.079v1.448h1.245c.088-.029.258-.142.463-.28.437-.293 1.024-.684 1.458-.684.031 0 .065 0 .096.003zm.534-.487l-.318.524c.204.054.38.162.516.303a1.174 1.174 0 01.323.624l.868-.731-.544-.182-.012-.002-.002-.003h-.003v-.003c-.006 0-.009-.003-.012-.006l-.817-.524zm1.616.793l-1.075.91c-.008.28-.119.56-.354.79l-3.016 2.956a.099.099 0 01-.07.028h-.897v1.08c.463.45 1.055.767 1.685.98.797.272 1.65.376 2.388.376h.979l-.045-.62a.1.1 0 01.093-.108l.976-.079a.102.102 0 01.11.093l.038.408 15.29-1.344.188-.502-.999-.329-.09.278a.103.103 0 01-.128.065l-7.302-2.414c-.133.323-.343.564-.598.703-.28.156-.616.187-.959.068L20.47 89.91l-.219.623a.101.101 0 01-.13.063l-.735-.253a.107.107 0 01-.063-.13l.069-.193-.636-.22a.1.1 0 01-.062-.131l.485-1.391-.182-.06zm-2.255.275c.278 0 .454.15.534.349a.595.595 0 01.045.232.6.6 0 01-.046.235.546.546 0 01-.533.349.546.546 0 01-.533-.349.6.6 0 01-.045-.235c0-.08.014-.159.045-.232a.542.542 0 01.533-.349zm.344.422c-.049-.122-.165-.218-.344-.218-.178 0-.295.096-.343.218a.437.437 0 00-.028.159c0 .057.008.11.028.159.048.124.165.22.343.22.179 0 .295-.096.344-.22a.418.418 0 000-.318zm-7.583-9.647l1.458 4.516c.003.011.003.02.003.031V97.51h2.417V80.342a1.075 1.075 0 00-1.075-1.074H9.504zm1.257 18.24V83.83l-1.47-4.562H8.03l-2.541 18.24h5.273zm-3.702.205l-2.81 3.853 5.86-2.428a.078.078 0 01.045-.011h2.8l.428-.34v-1.074H7.06zm-3.01 3.779l2.758-3.78H4.572l-2.068 2.658c-.275.352-.258.729-.088 1.02.07.122.17.23.286.315.114.085.244.15.383.181.122.031.25.034.378.012a.05.05 0 01.028-.017l.298-.125c.093-.065.181-.153.26-.264zm9.537-3.878v1.119h3.971v-3.19a7.816 7.816 0 01-2.351-.386c-.596-.204-1.157-.496-1.62-.898v3.356zm4.176 1.224v.43h1.177l-.284-3.726h-.893v3.297zm1.852-3.692l-.037-.405-.774.065.048.623v.01l.383 5.017.78-.073-.4-5.228v-.008zm-7.06-15.459c.278 0 .456.153.533.349a.62.62 0 010 .47.543.543 0 01-.533.349.549.549 0 01-.534-.349.678.678 0 01-.045-.235.68.68 0 01.045-.235.549.549 0 01.534-.349zm.343.425c-.048-.124-.162-.22-.343-.22-.179 0-.295.096-.344.22a.427.427 0 00-.028.159c0 .054.009.11.028.159.049.124.165.22.344.22.181 0 .295-.096.343-.22a.429.429 0 000-.318zm.69.983l.966-.578a.604.604 0 00.236-.257 1.01 1.01 0 00.088-.425v-2.808c0-.176-.04-.32-.105-.434a.649.649 0 00-.587-.323.872.872 0 00-.437.122l-5.375 2.672h3.934c.352 0 .672.144.902.377l.003.003c.232.23.374.55.374.898v.753zm0 2.063v4.049l.21.076 1.522-3.51-1.733-.615zm1.925.683l-1.523 3.51 1.781.63.573-1.321c.003-.003.003-.008.006-.011l.423-.972.002-.009.52-1.195-1.782-.632zm1.416 1.986l-.36.83 1.642 1.057.62-1.587-.74-.119h-.002l-1.16-.181zm3.698.657l.395-1.136-.54-.187-.4 1.145.546.178zm.392-.507l-.199.57.542.181.494-1.417-.54-.187-.297.853zm-1.645 2.366l-.454 1.295.542.19.22-.638.233-.668-.541-.179zm-.034-.227h.003l.122.04.61.204h.005l.065.023 13.894 4.59.48-1.462.002-.003.062-.198-15.55-5.137-.638 1.632.942.311h.003zm.771.47l-.224.641-.335.955.542.187.559-1.604-.04-.014-.502-.164zm6.887-.81c.091.077.168.168.233.264.13.204.201.445.196.691l7.318 2.417c.054.02.082.077.065.13l-.065.199.542.178.465-1.159v-.002l.003-.006v-.003l.164-.414-.76-.317-.006-.003c-.002-.003-.008-.003-.01-.005l-4.69-1.97h-3.455zm-.578-.073L21.8 86.099l-.241.691 5.662 1.873a1.027 1.027 0 00-.653-.91.732.732 0 01-.15-.05zm-.343 3.606c.21-.116.385-.317.499-.586l-3.52-1.165-2.204-.728-.31.887 4.743 1.646c.284.1.559.074.792-.053zm9.057-1.787l.68-1.746h-4.836l4.156 1.746zm.59 2.493l-1.041-.343-.327.992 1.005.329.363-.978zm5.267 1.156l-1.435-.459h-.003l-2.215-.706-.009-.002-1.24-.394-.139.374v.003l-.623 1.68 5.664-.496zm-20.083-9.622l1.13.473 2.87-3.213.006-.008 1.063-1.19.009-.009 1.373-1.535c.002-.006.005-.009.008-.012l2.337-2.615-.848-.788-1.336 1.496-.002.003-.006.006-1.373 1.536a.03.03 0 01-.009.01l-1.06 1.188a.04.04 0 01-.009.011l-4.153 4.647zm1.328.558l2.65 1.11V81.14l-2.65 2.966zm2.853 1.199l.868.362v-5.726l-.868.97v4.394zm4.822-9.95l.003.002.006.003.357.334.795-.89-1.955-1.742-.757.847 1.551 1.445zm-4.822 3.206l.868-.969v-15.96c-.346-.003-.868.02-.868.573v16.356zm1.073-1.198l1.174-1.318V64.192c0-.204.085-.391.218-.527a.757.757 0 01.528-.218h.051v-.992c0-.057.045-.102.102-.102h7.806l1.393-1.445a.06.06 0 01.031-.023h-10.71a.59.59 0 00-.593.593v15.886zm1.378-1.547l1.169-1.303-.559-.522a.103.103 0 01-.009-.144l.888-.995.003-.002h.003l3.427-3.84c-.639-.671-1.019-1.55-1.24-2.496-.218-.938-.278-1.938-.284-2.864h-2.856a.546.546 0 00-.542.541v11.625zm1.713-2.904l1.95 1.737 7.037-7.871-1.887-1.816-1.287 1.442a.022.022 0 01-.012.011l-.003.003-2.371 2.655-.003.002v.003h-.003l-3.42 3.834zm1.89-9.262c.005.915.065 1.9.277 2.819.213.906.573 1.748 1.178 2.388l2.246-2.513c-.428-.516-.42-1.473-.414-2.414.003-.085.003-.161.003-.28h-3.29zm3.636 7.312l.062.063c.154.144.355.3.54.108l1.928-2.004c.185-.19.029-.388-.147-.558a3.186 3.186 0 00-.117-.105l-.02-.02-2.246 2.516zm2.383-2.666l.02.017c.042.037.085.077.122.114.246.235.462.524.153.844l-1.93 2c-.314.326-.609.11-.827-.099l-.057-.056-2.85 3.19c.053.054.11.105.164.158.082.077.161.156.238.224.298.264.587.448.82.187l6.308-7.055-.933-.898-1.228 1.374zm-2.525-4.646l-.003.28c-.005.89-.014 1.794.35 2.258l1.222-1.365-1.22-1.173h-.349zm4.822 4.017l2.247-2.513-.936-.898-2.244 2.513.933.898zm2.383-2.663l2.187-2.448h-1.739l-1.384 1.547.936.901zm2.371-2.652l1.31-1.468h-1.74l-1.311 1.468h1.741zm1.495-1.672l1.095-1.226c.23-.258.017-.527-.28-.794l-.253-.212c-.06-.048-.12-.1-.179-.148l-2.124 2.38h1.741zm.925.204l-1.313 1.468h16.77a.1.1 0 01.101.102v9.76h.803v-11.33H46.632zm-8.257 5.74l2.243-2.513-1.886-1.813-2.243 2.513 1.886 1.814zm2.38-2.663l4.895-5.474 1.478-1.654-1.937-1.765-5.16 5.777-.008.008-1.155 1.292 1.887 1.816zm-4.414.709l2.244-2.514-1.078-1.036-1.345 1.4c-.005.002-.008.008-.014.01l-.976 1.015 1.169 1.125zm2.38-2.667l1.001-1.119h-2.175a.073.073 0 01.03.02l1.144 1.1zm-3.736 1.443l.857-.89h-7.506v.89h6.649zm21.972 4.8h2.21c.056 0 .102.045.102.101v1.315a.104.104 0 01-.102.105h-2.21a.104.104 0 01-.102-.105v-1.315c0-.056.045-.102.102-.102zm2.108.203h-2.006v1.111h2.006v-1.11zM76.577 91.4c.63 0 1.033.346 1.212.79a1.458 1.458 0 010 1.077c-.18.445-.582.79-1.212.79s-1.035-.345-1.21-.79a1.4 1.4 0 01-.106-.538 1.4 1.4 0 01.105-.538c.176-.445.582-.79 1.211-.79zm1.022.864c-.148-.368-.488-.657-1.022-.657-.533 0-.873.289-1.024.657a1.297 1.297 0 000 .927c.15.371.491.66 1.024.66.534 0 .874-.289 1.022-.66a1.274 1.274 0 000-.927zm-1.538 2.87a2.444 2.444 0 01-1.225-.665 2.39 2.39 0 01-.406-.53l.13 1.337 1.501-.142zm-1.82-3.187c.121-.365.328-.691.595-.958.218-.218.476-.396.766-.521l-1.504.006.142 1.473zm3.933-.813a2.257 2.257 0 00-1.597-.66 2.252 2.252 0 00-2.257 2.255v.037l.034.36a2.252 2.252 0 002.224 1.859 2.257 2.257 0 001.596-3.851zM67.818 46.897h3.798c.188 0 .358.077.48.202a.675.675 0 01.198.476v21.612a.682.682 0 01-.678.677h-5.511l-.054-.003a.687.687 0 01-.437-.198.609.609 0 01-.19-.436l.003-.049 1.713-21.61a.755.755 0 01.213-.478l.006-.006a.65.65 0 01.46-.187zm3.798.207h-3.798a.446.446 0 00-.315.128l-.002.002a.559.559 0 00-.157.349l-1.713 21.612v.032c0 .11.048.215.128.291.08.08.19.13.309.14l.037.002h5.511a.474.474 0 00.474-.473V47.575a.472.472 0 00-.474-.47zm1.838 25.112V45.23h-7.667l-2.124 26.985h9.791zm.207-26.985v26.985h1.027V45.23h-1.027zm1.231 0v26.985h1.779v-7.712c0-.33.133-.627.349-.842.218-.215.516-.349.842-.349h.988v-.433c0-.057.048-.102.104-.102H90.56V45.231H74.893zM63.558 72.42h-3.54v2.414H78.85V72.42H63.557zm15.292-8.903h-.988a.99.99 0 00-.987.986v7.713h1.975v-8.699zm.102 11.52H60.018v2.03H88.11v-2.03h-9.159zm14.253 2.624h3.747a.53.53 0 01.375.156l.003.003a.532.532 0 01.153.371v1.445a.53.53 0 01-.156.374l-.003.003a.533.533 0 01-.372.153h-3.747a.53.53 0 01-.374-.156l-.003-.003a.532.532 0 01-.153-.37V78.19a.53.53 0 01.156-.374l.003-.003a.528.528 0 01.371-.153zm3.747.204h-3.747c-.09 0-.17.037-.23.097a.326.326 0 00-.096.23v1.444a.33.33 0 00.326.326h3.747a.327.327 0 00.326-.326v-1.445a.327.327 0 00-.326-.326zm-8.637-2.827v2.028h10.37v-2.028h-10.37zm-7.82-9.65c.283 0 .496-.006.672-.009.454-.011.686-.017.823.082.158.116.153.312.141.709a9.257 9.257 0 00-.008.442.34.34 0 01-.1.243l-.008.006a.345.345 0 01-.235.093c-.281 0-.494.006-.67.012-.457.008-.686.014-.825-.085-.156-.117-.15-.312-.14-.709.004-.119.007-.257.007-.442a.348.348 0 01.342-.343zm.675.195c-.19.003-.42.008-.675.008a.148.148 0 00-.097.04.144.144 0 00-.042.1c0 .16-.003.317-.006.447-.011.326-.014.484.057.538.082.06.29.054.698.046.19-.006.422-.012.675-.012a.138.138 0 00.093-.037l.003-.002a.14.14 0 00.043-.1c0-.161.002-.314.008-.447.009-.326.011-.485-.06-.536-.079-.06-.289-.056-.697-.045zm-1.47-1.87h7.66a.1.1 0 01.101.102v4.732a.102.102 0 01-.102.102h-7.658a.104.104 0 01-.105-.102v-4.732c0-.057.048-.102.105-.102zm7.557.204h-7.454v4.528h7.454v-4.528zm.854 6.097h-9.054v4.82h9.054v-4.82zm-9.054-.206h9.054v-6.823h-9.054v6.823zm9.258-6.823v11.849h10.37v-5.582l-4.98-6.267h-5.391zM98.89 75.502v1.49l2.584-1.49h-2.585zm4.637-4.986c.188.05.358.15.491.286a1.1 1.1 0 01.324.776v2.454l4.825-.7-.429-3.612-5.211.796zm.815 3.723v1.06h.635l.068-.281a.105.105 0 01.122-.077l7.31 1.644.054-.264a.099.099 0 01.119-.08l1.784.355a.101.101 0 01.082.12l-.187.943c.599.119.828.19.845.552l10.393 2.315c.131-1.298.219-2.57.253-3.84a41.064 41.064 0 00-.377-6.79l-9.452 1.38c.02.438-.363.557-.706.617-.054.008-.105.014-.153.022h-.014l.184 1.086a.102.102 0 01-.085.116l-1.793.306a.105.105 0 01-.119-.085l-.065-.388-8.898 1.289zm-2.485 1.06h2.28v-3.72a.895.895 0 00-.899-.896h-.7c-.057 0-.114.003-.171.011l-.025.003h-.006c-.457.074-.925.377-1.299.782-.451.485-.763 1.11-.763 1.655v2.164h1.583zm2.485.203v2.423l.587-2.423h-.587zm.816-.085c0 .006 0 .009-.002.015l-.772 3.19 7.358 1.649.695-3.485-7.216-1.624-.063.255zm9.452 4.74v-.002c0-.006.003-.014.008-.02l.012-.051c.059-.303.119-.572.167-.8l.094-.45c.156-.779.076-.838-.605-.974l-.487 2.45.019.006.145.031c.255.051.548.074.647-.19zm.224-.056l10.509 2.34a80.87 80.87 0 00.202-1.711l-10.379-2.312a4.524 4.524 0 01-.074.456 28.07 28.07 0 01-.096.453l-.162.774zm-.539-3.324l-1.586-.314-.944 4.749 1.583.314.947-4.749zm-1.699-7.618l-3.656.532.428 3.613 3.838-.555-.61-3.59zm3.367 1.912l9.451-1.38-.093-.612a2.096 2.096 0 01.054-1.113l-9.71 1.42c.04.133.077.305.114.526.019.12.045.278.07.456l.114.703zm-1.322-.73l-.196-1.16v-.002l-.173-1.02-1.594.269.102.595v.008l.709 4.17 1.595-.268-.443-2.593zm.936-.395c-.133-.782-.23-.81-.913-.697l.42 2.465.019-.002c.049-.006.1-.015.148-.023.275-.045.587-.139.528-.485-.052-.297-.094-.57-.131-.804l-.071-.454zm9.678 15.49c-.002-.006-.002-.011-.002-.014l-.12-.51-.615.139.513 2.244.616-.142-.392-1.717zm.168-.19l1.078-.629a.933.933 0 01.995.051 1.118 1.118 0 01.474.754c.048.329-.065.68-.42.935a1.012 1.012 0 01-.522.187l-1.307.014.147.652a.105.105 0 01-.076.122l-.817.184a.1.1 0 01-.122-.077l-.556-2.442a.102.102 0 01.076-.122l.814-.187a.106.106 0 01.125.08l.111.478zm.252 1.108l1.339-.011a.843.843 0 00.414-.153c.287-.204.377-.482.341-.74a.905.905 0 00-.131-.346.878.878 0 00-.255-.266.736.736 0 00-.786-.04l-1.129.658.207.898zm6.896-16.348c.386 0 .635.212.743.484a.873.873 0 01.062.332.87.87 0 01-.062.328c-.108.272-.354.485-.743.485-.386 0-.635-.213-.743-.485a.87.87 0 01-.063-.328c0-.114.02-.227.063-.332.108-.272.357-.484.743-.484zm.553.56c-.079-.2-.264-.356-.553-.356-.289 0-.474.156-.553.357a.706.706 0 000 .507c.079.201.264.357.553.357.289 0 .474-.156.553-.357a.644.644 0 00.048-.252.648.648 0 00-.048-.255zm-.553 2.327c.389 0 .635.213.743.484a.87.87 0 01.062.33.873.873 0 01-.062.33c-.108.273-.357.485-.743.485a.85.85 0 01-.292-.048l1.248 2.428 1.903 1.411V69.89a.673.673 0 00-.672-.672h-5.182l2.209 4.298c.012-.048.026-.093.043-.139.108-.271.357-.484.743-.484zm.553.56c-.079-.2-.264-.356-.553-.356-.289 0-.474.156-.553.357a.703.703 0 00.017.547l.011.022c.091.17.267.295.525.295.289 0 .474-.156.553-.357a.648.648 0 00.048-.255.644.644 0 00-.048-.252zm-6.076 24.209a1.218 1.218 0 00.199.21c.09.082.201.155.317.218.38.2.854.269 1.183-.049l1.835-3.552c.242-.468.361-.788.355-1.094-.006-.306-.139-.615-.403-1.074l-.907-1.584c-.259 0-.426.006-.505.057-.071.045-.083.156-.046.377.409 2.544-.147 3.346-1.322 5.043-.229.331-.482.697-.757 1.116l-.011.017c-.06.06-.034.165.042.284l.02.03zm-.074.232c-.604.788-1.455 1.77-2.223 2.661-.293.337-.573.663-.832.966-.105.127-.161.232-.173.309-.002.022-.002.039.003.048a.126.126 0 00.06.022c.096.015.255-.017.479-.102h.006a28.41 28.41 0 003.355-1.343 38.345 38.345 0 003.56-1.906c1.226-.743 2.338-1.593 3.143-2.63.789-1.014 1.285-2.212 1.297-3.672l-4.298-2.275-1.566-.113.003.748.925 1.612c.278.487.42.825.428 1.173.009.346-.119.691-.377 1.19l-1.841 3.561c-.006.012-.011.023-.02.034-.408.406-.981.332-1.432.094a1.824 1.824 0 01-.497-.377zm5.506-9.803l-4.388-.255v1.691l3.296.244c.014 0 .028.003.04.011l4.348 2.301h1.501v-1.677h-1.523a.107.107 0 01-.06-.02l-3.214-2.295zm-.196-19.077v-1.176h-.556v1.176h.556zm-3.798 11.484l.207 1.546c.051.493-.181.87-.519 1.088-.153.1-.326.168-.507.199a1.375 1.375 0 01-.548-.023c-.386-.099-.723-.388-.842-.898a1.23 1.23 0 01.031-.663l.621-1.366-.763-.056a.102.102 0 01-.094-.11l.074-1.01a.102.102 0 01.111-.093l3.024.227a.102.102 0 01.096.107l-.077 1.01a.099.099 0 01-.107.093l-.707-.051zm-1.341-.102l-.644 1.422a1.053 1.053 0 00-.026.544c.099.428.377.666.695.748.15.04.309.045.462.02a1.21 1.21 0 00.432-.167.92.92 0 00.425-.899l-.213-1.583-1.131-.085zm-.863-.27l.803.06h.003l.006.003 2.011.15.059-.805-2.822-.21-.06.802zm1.915-10.24l-.148-1.563a.913.913 0 00-.607-.768 1.15 1.15 0 00-.451-.062 1.052 1.052 0 00-.436.119c-.287.15-.5.439-.5.87a.96.96 0 00.037.272c.023.087.06.17.105.246l.936 1.218 1.064-.331zm-1.274.398l-.896-1.174a1.274 1.274 0 01-.133-.3 1.234 1.234 0 01-.046-.329c0-.518.261-.87.613-1.05a1.25 1.25 0 01.519-.142c.182-.012.363.014.533.076.375.136.678.445.741.932l.142 1.53.666-.206a.101.101 0 01.128.065l.295.952a.1.1 0 01-.068.127l-2.854.887a.101.101 0 01-.128-.065l-.295-.952a.103.103 0 01.069-.128l.714-.224zm2.102-.44l-.683.213h-.003l-.003.003h-.003l-1.968.612.235.756 2.658-.827-.233-.757zm6.507 8.772a.103.103 0 01-.068-.025l-1.727-1.278 3.35 6.516h.164v-5.213h-1.719zm-.754 4.264a2.943 2.943 0 00-2.079-.858c-.812 0-1.546.328-2.08.858a2.936 2.936 0 002.08 5.013 2.936 2.936 0 002.079-5.012z" fill="#000"/></svg>