<svg width="188" height="534" fill="none" xmlns="http://www.w3.org/2000/svg"><path d="M124.607 494.046h.788c.479 0 .543.47.543.919l-.011.544c0 .449-.405.524-.841.534h-.479v-1.997zM54.249 238.153c.127-.32.425-.576.883-.576.48 0 .777.256.894.576a1.026 1.026 0 010 .823c-.117.331-.415.576-.894.576-.458 0-.756-.245-.883-.576a1.026 1.026 0 010-.823zm.883 1.933c.724 0 1.192-.395 1.384-.907.085-.193.117-.406.117-.609a1.6 1.6 0 00-.117-.62c-.192-.502-.66-.907-1.384-.907-.713 0-1.182.405-1.384.907a1.778 1.778 0 00-.117.62c0 .203.043.416.117.609.202.512.67.907 1.384.907zm-5.6-50.997h-4.886v-6.066h4.886v6.066zm-4.886 3.632h4.886v5.553h-4.886v-5.553zm4.886-.534h-4.886v-2.553h4.886v2.553zm-5.418-9.431v15.785c0 .15.127.267.266.267h5.418c.15 0 .267-.117.267-.267v-15.785a.274.274 0 00-.267-.278H44.38c-.139 0-.266.129-.266.278zm10.135 183.109c.127-.321.425-.577.883-.577.48 0 .777.256.894.577a1.035 1.035 0 010 .822c-.117.331-.415.577-.894.577-.458 0-.756-.246-.883-.566a1.166 1.166 0 01-.086-.417c0-.139.032-.299.086-.416zm.883 1.933c.724 0 1.192-.395 1.384-.908.085-.192.117-.406.117-.609 0-.213-.032-.416-.117-.619-.192-.502-.66-.908-1.384-.908-.713 0-1.182.406-1.384.908a1.82 1.82 0 00-.117.619c0 .203.043.417.117.609.202.513.67.908 1.384.908zm131.135 138.103c-.393.545-.947.886-1.533.95l-12.902.011v-22.31h10.55c.692 0 1.299.288 1.756.737.49.501.809 1.196.905 1.954l1.842 15.796.043.619c0 .919-.256 1.688-.661 2.243zm-71.082 3.717H80.181v-2.222h35.004v2.222zm-1.554 1.42h-.5c-.128 0-.235.096-.256.235l-.192.651h-1l-.203-.694a.286.286 0 00-.255-.192h-1.278a.256.256 0 00-.255.235l-.192.651h-1l-.203-.694c-.032-.117-.138-.181-.255-.192h-1.278a.274.274 0 00-.266.235l-.191.651h-.99l-.203-.694c-.032-.117-.138-.181-.266-.192h-1.267a.273.273 0 00-.266.235l-.192.651h-.99l-.202-.694c-.032-.117-.138-.181-.255-.192h-1.278a.273.273 0 00-.266.235l-.192.651h-.99l-.202-.694a.301.301 0 00-.266-.192h-1.267a.265.265 0 00-.266.235l-.192.651h-.99l-.202-.694a.3.3 0 00-.255-.192h-1.278a.255.255 0 00-.255.235l-.203.651h-1l-.203-.694c-.021-.117-.138-.181-.245-.192H90.85a.273.273 0 00-.266.235l-.192.651h-1l-.192-.694a.3.3 0 00-.256-.192h-1.277a.273.273 0 00-.266.235l-.192.651h-1l-.203-.694c-.032-.117-.138-.181-.255-.192h-1.267a.265.265 0 00-.267.235l-.191.651h-1l-.203-.694c-.032-.117-.139-.181-.256-.192h-.479v-.886h31.544v.886zm.777 1.228a.284.284 0 00.266.214h1.395a.262.262 0 00.255-.192l.181-.62.788.075.117.63a.26.26 0 00.234.224l1.257.118a.279.279 0 00.276-.171l.224-.609.798.086.107.63c.011.117.117.203.234.224l1.267.117a.281.281 0 00.266-.17l.224-.609.798.075.107.64c.01.118.106.203.234.225l1.267.106c.106.022.223-.053.266-.16l.223-.609.799.075.106.63a.26.26 0 00.234.225l1.267.128a.262.262 0 00.266-.182l.235-.598.787.075.107.641a.27.27 0 00.234.213l1.267.118a.274.274 0 00.277-.16l.213-.609.798.075.107.63c.031.117.117.213.234.224l1.267.128a.287.287 0 00.276-.181l.224-.598.788.074.106.63a.272.272 0 00.234.225l1.267.117a.265.265 0 00.277-.171l.224-.608.787.085.107.63a.251.251 0 00.245.214l1.256.128a.267.267 0 00.277-.171l.223-.609.799.086.106.63a.261.261 0 00.234.224l1.267.118a.261.261 0 00.266-.171l.224-.609.798.075.086.63c.021.107.117.213.234.213l1.256.161c.128.01.234-.054.277-.161l.255-.63.639.064.032.652c0 .117.085.235.202.256l1.214.267a.256.256 0 00.319-.128l.298-.577.373.139-.17.662a.273.273 0 00.117.31l1.075.619.021.011v.011h.022l.01.01h.011l.01.011h.022v.011h.106l.021-.011h.032l.011-.011.011-.01h.021v-.011h.011l.01-.011.011-.01h.011l.01-.011v-.011h.011l.532-.534.32.225-.362.63a.29.29 0 00.032.342l.904.897a.257.257 0 00.32.042l.681-.395.224.289-.511.512a.273.273 0 00-.032.321l.617 1.089c.064.107.181.171.309.139l.735-.203.159.363-.553.331h-.011l-.011.011h-.021l-.011.01-.01.011v.011h-.011l-.032.032v.021l-.01.022-.011.01v.022h-.011v.053l-.01.011v.032l.01.01v.054l.33 1.196v.032l.011.011v.01l.011.022v.01l.01.011v.011l.011.01c.021.032.042.054.074.065l.011.01.021.011.022.011c.021.01.053.01.085.01h.67l.054.47-.501.128a.275.275 0 00-.223.267l.01 1.282c0 .117.064.224.181.256l.543.139-.064.491h-.553a.273.273 0 00-.256.203l-.33 1.228c-.032.107.011.246.117.3l.469.267-.17.405-.629-.16a.241.241 0 00-.298.118l-.638 1.1c-.064.106-.054.235.042.32l.437.438-.245.31-.554-.321c-.106-.064-.245-.064-.34.032l-.895.908a.258.258 0 00-.042.321l.308.534-.33.245-.457-.448c-.086-.097-.224-.118-.32-.054l-1.107.641c-.096.053-.149.182-.128.299l.16.587-.415.161-.298-.534a.283.283 0 00-.309-.118l-1.203.321a.266.266 0 00-.213.267v.544l-.426.054-.149-.545a.261.261 0 00-.255-.224h-1.278a.274.274 0 00-.255.192l-.16.598h-.798l-.149-.566a.275.275 0 00-.267-.224h-1.288a.274.274 0 00-.255.192l-.16.598h-1.033l-.149-.566a.273.273 0 00-.266-.224h-1.288a.274.274 0 00-.255.192l-.16.598h-1.022l-.16-.566a.273.273 0 00-.266-.224h-1.277a.279.279 0 00-.267.192l-.149.598h-1.043l-.149-.566a.27.27 0 00-.255-.224h-1.299c-.107 0-.213.085-.256.192l-.149.598h-1.043l-.149-.566a.265.265 0 00-.266-.224h-1.278a.288.288 0 00-.266.192l-.16.598h-1.022l-.159-.566a.263.263 0 00-.256-.224h-1.288a.288.288 0 00-.266.192l-.149.598h-1.033l-.159-.566a.263.263 0 00-.256-.224h-1.288a.288.288 0 00-.266.192l-.149.598h-1.033l-.16-.566a.264.264 0 00-.266-.224h-1.277c-.117 0-.234.085-.256.192l-.159.598h-1.033l-.16-.566a.265.265 0 00-.266-.224h-1.277a.274.274 0 00-.256.192l-.16.598h-1.032l-.16-.566a.262.262 0 00-.255-.224h-1.289a.274.274 0 00-.255.192l-.16.598h-1.032l-.16-.566a.263.263 0 00-.256-.224h-1.288a.274.274 0 00-.255.192l-.16.598h-1.033l-.159-.566a.263.263 0 00-.256-.224h-1.288a.274.274 0 00-.255.192l-.16.598h-1.033l-.149-.566c-.032-.128-.138-.224-.266-.224h-1.267a.29.29 0 00-.266.181l-.192.609h-1.043l-.17-.566c-.011-.128-.128-.224-.256-.224h-1.277a.261.261 0 00-.256.192l-.17.598h-1.054l-.17-.566c-.01-.128-.128-.224-.256-.224h-1.277a.261.261 0 00-.256.192l-.17.598h-1.054l-.17-.566c-.011-.128-.128-.224-.256-.224h-1.277a.261.261 0 00-.256.192l-.17.598h-1.054l-.17-.566a.262.262 0 00-.256-.224h-1.278a.261.261 0 00-.255.192l-.181.598h-1.043l-.17-.566a.265.265 0 00-.267-.224h-1.267a.275.275 0 00-.255.192l-.16.598h-1.032l-.16-.566a.265.265 0 00-.266-.224h-1.278a.275.275 0 00-.255.192l-.16.598h-1.033l-.149-.566c-.032-.128-.138-.224-.266-.224h-1.288a.275.275 0 00-.255.192l-.16.598h-1.022l-.16-.566a.262.262 0 00-.255-.224h-1.288a.275.275 0 00-.256.192l-.16.598h-1.022l-.149-.566a.274.274 0 00-.266-.224h-1.288a.275.275 0 00-.256.192l-.16.598h-1.021l-.15-.566c-.031-.128-.138-.224-.265-.224h-1.288a.275.275 0 00-.256.192l-.16.598h-1.022l-.149-.566a.265.265 0 00-.266-.224h-1.277a.278.278 0 00-.266.192l-.16.598h-1.012l-.16-.566a.274.274 0 00-.265-.224H65.5a.288.288 0 00-.266.192l-.16.598h-1.011l-.16-.566a.271.271 0 00-.255-.224h-1.3c-.116 0-.212.085-.255.192l-.16.598h-1.021l-.15-.566a.265.265 0 00-.265-.224H59.22a.275.275 0 00-.255.192l-.16.598h-1.022l-.16-.566a.262.262 0 00-.255-.224H56.08c-.118 0-.235.085-.256.192l-.16.598h-1.022l-.16-.566a.262.262 0 00-.255-.224H52.94a.275.275 0 00-.255.192l-.16.598h-.863l-.148-.566c-.032-.128-.139-.224-.267-.224h-1.288a.275.275 0 00-.255.192l-.16.598h-.82l-.149-.566a.265.265 0 00-.266-.224h-1.267a.275.275 0 00-.255.192l-.15.577-.425-.054v-.544a.255.255 0 00-.202-.257l-1.214-.331a.273.273 0 00-.309.118l-.308.534-.416-.15.16-.587a.274.274 0 00-.117-.31l-1.107-.641c-.107-.053-.234-.043-.32.054l-.468.448-.33-.235.298-.523a.25.25 0 00-.021-.342l-.905-.908a.27.27 0 00-.32-.032l-.564.321-.245-.31.437-.438a.274.274 0 00.042-.32l-.628-1.09a.266.266 0 00-.308-.139l-.629.171-.17-.405.458-.267c.096-.054.149-.182.128-.3l-.33-1.206c-.022-.118-.128-.225-.256-.225h-.564l-.064-.491.522-.139a.263.263 0 00.213-.256v-1.282a.263.263 0 00-.192-.256l-.532-.139.053-.47h.681a.286.286 0 00.256-.192l.32-1.228a.26.26 0 00-.118-.31l-.564-.331.149-.363.724.192a.26.26 0 00.309-.117l.628-1.079a.261.261 0 00-.032-.342l-.511-.512.234-.289.66.385a.262.262 0 00.34-.032l.895-.897a.26.26 0 00.042-.321l-.372-.651.33-.225.543.545a.288.288 0 00.32.043l1.096-.641c.096-.064.16-.182.127-.299l-.18-.684.372-.138.298.576a.286.286 0 00.298.15l1.235-.278a.263.263 0 00.213-.256l.021-.652.64-.064.244.609c.042.117.16.203.287.182l1.267-.161c.107-.01.213-.096.224-.213l.096-.63.787-.075.224.587a.268.268 0 00.277.193l1.267-.118a.284.284 0 00.234-.224l.106-.63.788-.075.224.577c.032.117.149.213.276.192l1.267-.128c.117 0 .213-.096.235-.214l.106-.63.788-.085.223.587a.256.256 0 00.277.192l1.267-.117a.272.272 0 00.234-.225l.107-.63.787-.074.224.587a.267.267 0 00.277.192l1.267-.128a.251.251 0 00.234-.224l.106-.63.799-.075.213.577a.279.279 0 00.287.202l1.256-.128a.271.271 0 00.245-.213l.096-.641.798-.075.213.588a.29.29 0 00.288.192l1.256-.128a.251.251 0 00.234-.225l.117-.63.788-.075.224.588a.267.267 0 00.276.192l1.267-.117a.285.285 0 00.234-.225l.107-.64.788-.075.213.587c.042.118.16.203.287.192l1.267-.117a.284.284 0 00.234-.224l.107-.63.798-.086.17.513a.255.255 0 00.267.192l1.277-.085a.273.273 0 00.234-.214l.117-.598.916-.086.17.577a.262.262 0 00.256.224l1.405-.01a.249.249 0 00.245-.182l.202-.694h.884l.191.662a.265.265 0 00.266.224l1.384-.01c.117 0 .224-.064.256-.182l.202-.694h.884l.191.662a.265.265 0 00.266.224l1.385-.01c.117 0 .234-.064.255-.182l.202-.694h.884l.191.662a.262.262 0 00.256.224l1.395-.01a.274.274 0 00.266-.182l.191-.694h.884l.192.662a.265.265 0 00.266.224l1.394-.01c.107 0 .224-.064.245-.182l.213-.694h.873l.192.662a.265.265 0 00.266.224l1.394-.01a.271.271 0 00.256-.182l.202-.694h.873l.192.662a.265.265 0 00.266.224l1.395-.01c.117 0 .223-.064.255-.182l.192-.694h.883l.192.662a.265.265 0 00.266.224l1.384-.01a.274.274 0 00.266-.182l.202-.694h.873l.192.662a.265.265 0 00.266.224l1.395-.01c.106 0 .223-.064.255-.182l.203-.694h.872l.192.662a.274.274 0 00.266.224l1.395-.01c.117 0 .223-.064.255-.182l.203-.694h.873l.191.662a.275.275 0 00.266.224l1.395-.01a.26.26 0 00.255-.182l.203-.694h.873l.191.662a.275.275 0 00.266.224l1.395-.01a.263.263 0 00.256-.182l.202-.694h.883l.192.694zm-66.94-6.536v8.544l-.086-.235a.28.28 0 00-.277-.16l-1.064.107a.263.263 0 00-.235.256l-.032.684-.84.192-.32-.609a.261.261 0 00-.32-.128l-.468.181v-8.832h3.641zm-6.985-3.514v-49.363h10.263v52.343H40.483v-2.98zm-6.579-5.318h6.047v5.041h-6.047v-5.041zm-10.028 6.685v-1.11h3.258l-3.258 1.11zm6.707 6.91c.287.064.49.171.596.289a.284.284 0 01.085.181.344.344 0 01-.064.192c-.085.129-.234.246-.457.321l-6.867 2.349v-4.603l6.707 1.271zm0 10.2c.309.064.5.171.607.299a.436.436 0 01.074.181.396.396 0 01-.074.203v.011a.799.799 0 01-.426.288l-6.888 1.624v-3.877l6.707 1.271zm-10.806 6.258v-8.266l3.567.641v7.625h-3.567zm10.39.524h.703c.181 0 .288.096.33.224l.032.16-.032.171c-.042.117-.16.213-.33.213h-.02l-6.973.47v-1.238h6.292zm-10.39 3.417v-3.417h3.567v3.417h-3.567zm10.7.534h.393c.181 0 .288.096.33.214l.032.171-.032.16c-.042.117-.16.213-.33.213-.01 0-.01.022-.021.022-.01 0-.01-.022-.01-.022l-7.698 1.015c.022-.032.064-.064.096-.107.33-.502.532-1.143.586-1.666h6.653zm-9.284 2.04c-.32 0-.628-.278-.873-.662l-.01-.011a3.48 3.48 0 01-.49-1.367h3.47a3.237 3.237 0 01-.5 1.378c-.245.384-.554.662-.862.662h-.735zm-9.091-2.787l-.032-.161.032-.171c.042-.128.16-.213.33-.213.01 0 .01-.011.02-.011 0 0 0 .011.012.011l6.77-.534v1.292h-6.802c-.17 0-.288-.096-.33-.213zm.617-3.728c-.309-.064-.522-.181-.617-.32a.137.137 0 01-.043-.107l.043-.085c.106-.129.362-.235.777-.289l6.355-1.335v2.136H12.72zm.032-10.05c-.287-.085-.5-.235-.607-.406a.422.422 0 01-.085-.277c0-.086.032-.182.085-.257.128-.16.373-.299.745-.373l6.345-1.079v3.546l-6.483-1.154zm10.593-7.753v9.644l-3.567-.641v-9.644l3.567.641zm-10.593-2.425a1.033 1.033 0 01-.617-.416.43.43 0 01-.075-.267c0-.086.032-.171.085-.257l.01-.01c.129-.15.373-.289.735-.363l6.345-1.079v3.546l-6.483-1.154zm10.593-4.25v6.141l-3.567-.641v-5.5h3.567zm-11.636-10.926H33.36v10.392H11.708v-10.392zm7.526-1.036v.502h-2.906l2.906-.502zm4.11-6.387v6.889h-3.567v-7.519l3.567.63zM12.75 481.7c-.287-.075-.5-.235-.607-.406a.39.39 0 01-.085-.277c0-.086.032-.171.085-.257l.021-.01c.118-.161.362-.278.724-.353l6.345-1.089v3.545L12.75 481.7zm10.593-8.736v10.626l-3.567-.64v-10.627l3.567.641zm-10.593-2.425c-.287-.074-.5-.235-.607-.416a.382.382 0 01-.085-.267c0-.086.032-.182.085-.256.128-.161.373-.299.745-.374l6.345-1.079v3.546l-6.483-1.154zm10.593-8.746v10.626l-3.567-.63v-10.627l3.567.631zm-10.593-2.425a1.038 1.038 0 01-.617-.416.43.43 0 01-.075-.267c0-.086.032-.171.085-.257l.01-.01c.129-.15.373-.289.735-.353l6.345-1.089v3.546l-6.483-1.154zm10.593-8.736v10.616l-3.567-.62v-10.637l3.567.641zm-10.593-2.435c-.287-.075-.5-.224-.617-.406a.427.427 0 01-.075-.267.49.49 0 01.085-.256l.01-.022c.129-.149.373-.277.735-.352l6.345-1.079v3.546l-6.483-1.164zm10.593-8.726v10.616l-3.567-.63v-10.626l3.567.64zm-10.593-2.435c-.287-.074-.5-.235-.607-.406a.39.39 0 01-.085-.277c0-.075.032-.171.096-.257.128-.16.362-.299.734-.363l6.345-1.089v3.546l-6.483-1.154zm10.593-8.736v10.627l-3.567-.641v-10.627l3.567.641zm-10.593-2.424c-.287-.086-.5-.235-.607-.406a.423.423 0 01-.085-.278c0-.085.032-.181.085-.256.128-.16.373-.299.745-.374l6.345-1.079v3.546l-6.483-1.153zm10.593-8.737v10.627l-3.567-.641v-10.626l3.567.64zm-10.593-2.435c-.287-.074-.5-.224-.617-.416a.411.411 0 01-.075-.267.43.43 0 01.085-.246l.01-.021c.129-.15.373-.288.735-.353l6.345-1.089v3.546l-6.483-1.154zm10.593-8.736v10.627l-3.567-.641v-10.627l3.567.641zm-10.593-2.424c-.287-.086-.5-.235-.607-.417a.38.38 0 01-.085-.267.49.49 0 01.085-.256l.021-.011c.118-.149.362-.288.724-.352l6.345-1.09v3.546l-6.483-1.153zm10.593-8.736v10.615l-3.567-.63v-10.626l3.567.641zm-10.593-2.435c-.287-.075-.5-.225-.607-.406a.394.394 0 01-.085-.278.45.45 0 01.096-.256c.128-.15.362-.299.734-.363l6.345-1.09v3.557l-6.483-1.164zm10.593-8.737v10.627l-3.567-.641v-10.627l3.567.641zm-10.593-2.424c-.287-.086-.5-.235-.617-.417a.426.426 0 01-.075-.267c0-.085.032-.181.085-.256l.01-.011c.129-.16.373-.288.735-.363l6.345-1.078v3.545l-6.483-1.153zm10.593-8.736v10.616l-3.567-.631v-10.626l3.567.641zm-10.593-2.435a1.034 1.034 0 01-.617-.417.426.426 0 01-.075-.267c0-.085.032-.171.085-.246l.01-.021c.129-.149.373-.278.735-.352l6.345-1.09v3.546l-6.483-1.153zm10.593-8.737v10.627l-3.567-.641v-10.626l3.567.64zM12.75 358.88c-.287-.085-.5-.235-.607-.416a.382.382 0 01-.085-.267c0-.086.032-.171.085-.257l.021-.01c.118-.161.362-.289.724-.364l6.345-1.078v3.545l-6.483-1.153zm10.593-8.736v10.616l-3.567-.63v-10.627l3.567.641zm-10.593-2.435c-.287-.075-.5-.235-.607-.406a.382.382 0 01-.085-.267c0-.096.032-.182.085-.267.128-.16.373-.288.745-.363l6.345-1.09v3.557l-6.483-1.164zm10.593-8.736v10.626l-3.567-.641v-10.616l3.567.631zm-10.593-2.425a1.038 1.038 0 01-.617-.416.43.43 0 01-.075-.267c0-.086.032-.171.085-.257l.01-.01c.129-.161.373-.289.735-.363l6.345-1.079v3.546l-6.483-1.154zm10.593-8.736v10.616l-3.567-.63v-10.627l3.567.641zm-10.593-2.435c-.287-.075-.5-.235-.607-.406a.381.381 0 01-.085-.267.46.46 0 01.085-.256l.021-.022c.118-.149.362-.277.724-.352l6.345-1.089v3.545l-6.483-1.153zm10.593-8.736v10.626l-3.567-.63v-10.626l3.567.63zm-10.593-2.425c-.287-.085-.5-.235-.607-.406-.064-.096-.096-.181-.085-.277a.48.48 0 01.096-.267c.128-.15.362-.289.734-.363l6.345-1.079v3.546l-6.483-1.154zm10.593-8.736v10.616l-3.567-.63v-10.627l3.567.641zm-10.593-2.424c-.287-.086-.5-.235-.607-.417a.38.38 0 01-.085-.267c0-.085.032-.181.085-.256.128-.171.373-.299.745-.374l6.345-1.089v3.556l-6.483-1.153zm10.593-8.747v10.626l-3.567-.64v-10.616l3.567.63zm-10.593-2.425a1.033 1.033 0 01-.617-.416.411.411 0 01-.075-.267.52.52 0 01.085-.256l.01-.011c.129-.16.373-.288.735-.353l6.345-1.089v3.557l-6.483-1.165zm10.593-8.64v10.531l-3.567-.641v-10.531l3.567.641zm-10.593-2.435c-.287-.075-.5-.235-.607-.406a.38.38 0 01-.085-.267c0-.096.032-.181.096-.267.128-.149.362-.288.734-.363l6.345-1.089v3.556l-6.483-1.164zm10.593-8.64V282.7l-3.567-.641v-10.52l3.567.63zm-10.593-2.424c-.287-.086-.5-.235-.617-.417a.426.426 0 01-.075-.267.49.49 0 01.085-.256l.01-.011c.129-.16.373-.288.735-.363l6.345-1.079v3.546l-6.483-1.153zm10.593-8.651v10.53l-3.567-.63v-10.53l3.567.63zM12.75 258.67c-.287-.075-.5-.235-.607-.406a.382.382 0 01-.085-.267c0-.096.032-.182.085-.267.128-.15.373-.289.745-.363l6.345-1.079v3.535l-6.483-1.153zm10.593-8.641v10.531l-3.567-.641v-10.52l3.567.63zm-10.593-2.424c-.287-.085-.5-.235-.617-.427a.382.382 0 01-.075-.256c0-.086.032-.171.085-.257l.01-.01c.129-.161.373-.289.735-.364l6.345-1.078v3.546l-6.483-1.154zm10.593-8.651v10.541l-3.567-.64v-10.531l3.567.63zM12.75 236.53c-.287-.075-.5-.235-.607-.406a.39.39 0 01-.085-.278c0-.085.032-.17.085-.256.128-.16.373-.288.745-.363l6.345-1.089v3.545l-6.483-1.153zm10.593-8.64v10.52l-3.567-.63v-10.531l3.567.641zm-10.593-2.435a1.034 1.034 0 01-.617-.417.397.397 0 01-.075-.256.46.46 0 01.085-.256l.01-.022c.129-.149.373-.277.735-.352l6.345-1.079v3.546l-6.483-1.164zm10.593-8.64v10.53l-3.567-.63v-10.53l3.567.63zM12.75 214.39c-.287-.085-.5-.235-.607-.406a.422.422 0 01-.085-.277c0-.086.032-.171.085-.257.128-.16.373-.299.745-.373l6.345-1.079v3.546l-6.483-1.154zm10.593-8.64v10.531l-3.567-.641v-10.531l3.567.641zm-10.593-2.435a1.038 1.038 0 01-.617-.416.411.411 0 01-.075-.267c0-.075.032-.171.085-.257l.01-.01c.129-.15.373-.278.735-.353l6.345-1.089v3.546l-6.483-1.154zm10.593-8.64v10.531l-3.567-.641v-10.531l3.567.641zm-10.593-2.424c-.287-.086-.5-.235-.607-.417a.38.38 0 01-.085-.267c0-.085.032-.181.085-.256.128-.16.373-.299.745-.374l6.345-1.079v3.546l-6.483-1.153zm10.593-8.651v10.53l-3.567-.63v-10.53l3.567.63zm-10.593-2.424c-.287-.086-.5-.235-.607-.406a.424.424 0 01-.085-.278.49.49 0 01.085-.256l.021-.011c.118-.16.362-.288.724-.363l6.345-1.079v3.546l-6.483-1.153zm10.593-8.769v10.659l-3.567-.641v-10.659l3.567.641zm-10.593-2.424c-.287-.086-.5-.235-.617-.417a.426.426 0 01-.075-.267c0-.085.032-.181.085-.256l.01-.021c.129-.15.373-.278.735-.353l6.345-1.089v3.556l-6.483-1.153zm18.992-13.265l-8.165 2.104h-4.046l-8.165-2.104h20.376zm-24.88-.822a.962.962 0 01-.287-.694v-4.699c0-.267.107-.513.288-.695a.932.932 0 01.681-.288h27.798c.266 0 .51.107.68.288a.991.991 0 01.299.695v4.699a.989.989 0 01-.298.694v.011a1.002 1.002 0 01-.681.277H7.545a.928.928 0 01-.681-.288zm-.382-53.432c.191-.182.447-.288.66-.438.308-.235.596-.491.958-.641a4.864 4.864 0 011.927-.395h7.824a5.798 5.798 0 00-1.48 1.047c-.01.021-.042.032-.074.053v.011c-.394.395-.681.897-.937 1.388-.064.139-.191.235-.245.374a5.422 5.422 0 00-.436 2.157 5.63 5.63 0 001.618 3.931c.458.448.98.822 1.565 1.089h-7.835a5.035 5.035 0 01-1.927-.385c-.5-.224-.937-.544-1.342-.907-.085-.075-.191-.096-.276-.182a5.023 5.023 0 010-7.102zm-.937-87.501H1.222a.555.555 0 01-.362-.15.537.537 0 01-.15-.363c0-.278-.031-.683-.02-.95 0-.534.074-1.015.532-1.015h4.322a.5.5 0 01.351.15.567.567 0 01.15.363v1.11c-.022.46-.107.855-.501.855zm-4.056-8a3.76 3.76 0 011.075-2.616A3.717 3.717 0 015.17 3.268h.873v3.738c-.245.192-.479.406-.628.684-.17.32-.266.672-.266 1.057v3.204H1.488V6.963zm5.088-4.699H9.76v.47H6.576v-.47zM9.76 1.73H6.566V.545H9.76V1.73zm12.53 2.627a3.68 3.68 0 011.085 2.606v4.988h-3.534V8.747c0-.62-.245-1.175-.65-1.58a2.272 2.272 0 00-1.575-.652h-7.324V3.268h9.39c1.021 0 1.937.417 2.608 1.09zm2.342 13.98h-6.058v-5.852h6.058v5.853zm1.767 2.468h-9.581v-1.933h9.581v1.933zm-1.767 79.651h-6.058V21.328h6.058v79.128zM10.292 8.234V7.05h7.324a1.695 1.695 0 011.693 1.698v3.204h-1a.264.264 0 00-.267.267v6.12h-1.49a.278.278 0 00-.267.267v2.467c0 .139.128.256.267.256h1.49v79.128h-7.75V8.234zm-4.248 0v3.93a1.162 1.162 0 00-.372-.16V8.747c0-.3.074-.566.202-.801.042-.075.117-.118.17-.182v.47zm3.716-1.72H6.566V3.269H9.76v3.247zm-3.184.535H9.76v.918H6.576V7.05zm1.193 93.92c-.426.192-.841.416-1.193.705l-.01-87.33c.01-.129.021-.268.021-.407-.01-.299-.01-.64-.01-.95h-.011V8.5H9.76v91.966a5.521 5.521 0 00-1.842.416c-.01 0-.01.011-.022.011-.053.021-.085.053-.127.075zm20.174 1.121a5.554 5.554 0 00-1.63 3.93c0 1.528.629 2.916 1.63 3.931h.02c.043.053.107.074.15.117a5.68 5.68 0 001.384.972h-9.273c-.49 0-.936-.15-1.384-.278-.18-.053-.393-.042-.575-.128a4.892 4.892 0 01-1.586-1.068 5.023 5.023 0 01-1.075-5.5c.096-.235.288-.406.415-.62.213-.331.384-.694.66-.982.447-.449.99-.812 1.576-1.068.202-.086.426-.075.628-.139.437-.117.862-.267 1.341-.267h9.273a5.725 5.725 0 00-1.554 1.1zm18.002-1.1v10.05H31.86c-.457 0-.862-.139-1.288-.256-.213-.064-.458-.054-.66-.15-.404-.16-.724-.448-1.064-.705-.16-.139-.373-.213-.522-.363a5.033 5.033 0 01-1.48-3.546c0-1.388.575-2.638 1.48-3.556.447-.449.99-.812 1.575-1.068.192-.086.416-.075.618-.128.436-.128.862-.278 1.341-.278h14.085zm5.482 1.218c0 .331-.138.64-.351.854a1.232 1.232 0 01-.852.352h-3.747v-2.424h4.95v1.218zm-4.95 6.418h3.747a1.2 1.2 0 011.203 1.207v1.207h-4.95v-2.414zm25.114-6.162a5.004 5.004 0 011.469 3.546 5.042 5.042 0 01-.937 2.926 4.976 4.976 0 01-2.47 1.837l-7.143 1.997-12.211 3.407h-9.39l-25.284-4.208-2.374-.395h38.442a.264.264 0 00.267-.267v-1.474a1.749 1.749 0 00-1.736-1.751h-3.747v-4.134h3.747c.469 0 .916-.192 1.225-.512.319-.321.51-.748.51-1.228v-1.218h16.097c1.384 0 2.63.566 3.535 1.474zm-3.045 10.007c0 .491-.213.94-.533 1.271a1.829 1.829 0 01-1.032.481c-.17.021-.33.042-.564.053h-1.523c-.16-.011-.276-.021-.404-.032a1.847 1.847 0 01-1.012-.342c-.223-.181-.35-.448-.479-.715l5.547-1.549v.833zm-1.374 2.275c.043.78.032 2.99.022 4.219l-.01.758c0 .726-.384 1.185-.895 1.388a1.768 1.768 0 01-1.267 0c-.5-.203-.894-.662-.894-1.388v-.758c-.01-1.229-.032-3.439.021-4.219.043.011.117.011.17.021.086.011.17.043.256.043h.234c.277.011.564.021.852.021.287 0 .575-.01.84-.021h.235c.064 0 .117-.032.181-.043.085 0 .181-.01.255-.021zm-17.107 4.347c0 .662-.267 1.249-.692 1.687a2.364 2.364 0 01-1.672.694h-4.173c-.65 0-1.245-.267-1.671-.694a2.412 2.412 0 01-.703-1.687v-2.382h8.91v2.382zm-6.26 2.915h3.62v1.752h-3.62v-1.752zM27.07 147.544c0-.374.16-.715.404-.961l.01-.011c.246-.245.586-.395.959-.395h3.481c.383 0 .724.16.969.406.245.246.404.587.404.961v1.442H27.07v-1.442zm-7.953-17.216c.032.021.085.021.117.043.266.117.543.203.82.288.17.054.34.118.522.16.17.032.351.032.521.064.277.032.543.086.83.086.277 0 .554-.054.831-.096.17-.022.351-.022.511-.054.181-.042.351-.117.532-.171.267-.074.543-.16.799-.277.042-.022.096-.022.128-.043v18.658h-5.61v-18.658zm9.624 4.806h1.788l-1.916 1.794v-1.826c.043.011.085.032.128.032zm-2.331-5.97v3.62c0 .652.266 1.239.692 1.656.255.267.606.438.979.555v2.435l-2.81 2.638v-10.06a6.72 6.72 0 001.139-.844zm-2.374.833c-.66.256-1.363.427-2.108.427-.756 0-1.459-.171-2.119-.427a4.498 4.498 0 01-.404-.171c-.65-.299-1.246-.673-1.746-1.175a6.004 6.004 0 01-1.767-4.272c0-.833.17-1.623.468-2.339.085-.192.234-.331.33-.502.277-.502.553-1.014.958-1.42.213-.214.49-.331.724-.502.373-.288.724-.598 1.16-.79.288-.118.618-.128.916-.203.479-.128.947-.299 1.48-.299 1.66 0 3.172.683 4.258 1.773.202.203.309.491.49.726.734 1.004 1.245 2.189 1.267 3.588a5.962 5.962 0 01-1.757 4.24c-.49.502-1.096.876-1.735 1.175a6.61 6.61 0 01-.415.171zm1.234 13.969v-3.172l10.742-10.071v3.161L25.27 143.966zm6.495 1.677h-3.152v-4.09l3.152-2.959v7.049zm8.186-8.095h-3.407v-10.339h3.407v10.339zm1.533-16.394c.458.459 1.086.737 1.778.801v1.805h-3.045a.264.264 0 00-.266.267v2.648h-3.673a.274.274 0 00-.266.278v3.033l-4.918 4.614H28.74c-.49 0-.947-.203-1.267-.534a1.803 1.803 0 01-.532-1.282v-4.207a6.583 6.583 0 001.533-4.038c0-.01.01-.01.01-.021-.031-3.279 0-6.579 0-9.868l12.137 2.018v2.425c0 .801.33 1.538.862 2.061zm-13.53-6.59v7.22a6.68 6.68 0 00-1.332-1.997c-.01-.011-.02-.032-.031-.043l-.022-.021a6.45 6.45 0 00-4.641-1.933l-.16.01c-.192 0-.383.043-.575.064-.213.022-.447.033-.66.086-.213.043-.404.128-.617.192-.203.064-.405.107-.596.192-.203.086-.373.203-.565.31-.18.096-.362.182-.532.299-.181.118-.34.278-.5.417-.139.117-.299.213-.426.352l-.01.011c-.022.01-.022.021-.033.032-.01.011-.021.011-.032.021 0 .011-.01.032-.021.043a6.463 6.463 0 00-1.299 1.944c0 .01-.01.01-.01.01v-9.216l12.061 2.007zM6.575 149.349v-38.993c.352.289.767.513 1.182.705.043.022.085.064.138.086a5.522 5.522 0 001.863.427v37.412H7.546c-.372 0-.713.139-.969.363zm3.716-.363v-37.359l5.067.844v12.047c0 .011.01.011.01.021a6.61 6.61 0 001.917 4.497c.383.374.83.694 1.288.972v18.978h-8.282zm14.978 0v-4.293l2.811-2.638v3.663c-.373.075-.713.224-.969.47l-.01.011a1.89 1.89 0 00-.565 1.345v1.442H25.27zm-1.394 335.245l6.707 1.26c.287.065.49.171.596.289a.286.286 0 01.085.192.374.374 0 01-.064.192c-.085.128-.234.235-.457.321l-6.867 2.339v-4.593zm0-11.171l6.707 1.26c.287.075.49.171.596.299a.266.266 0 01.085.182.374.374 0 01-.064.192.855.855 0 01-.457.32l-6.867 2.339v-4.592zm0-11.171l6.707 1.26c.298.075.49.181.596.299.053.064.085.128.085.192a.37.37 0 01-.064.192c-.085.129-.234.246-.457.321l-6.867 2.339v-4.603zm0-11.161l6.707 1.26c.298.064.49.171.596.299a.321.321 0 01.085.182.409.409 0 01-.064.203l-.01.01c-.086.118-.235.225-.448.3l-6.866 2.338v-4.592zm0-11.161l6.707 1.261c.287.064.49.171.596.288.053.064.085.128.085.192a.377.377 0 01-.064.193.923.923 0 01-.457.32l-6.867 2.339v-4.593zm0-11.171l6.707 1.26c.298.075.49.182.596.299a.266.266 0 01.085.182.344.344 0 01-.064.192c-.085.128-.234.246-.457.321l-6.867 2.349v-4.603zm0-11.16l6.707 1.26c.287.064.49.171.596.288.053.064.085.128.085.192a.374.374 0 01-.064.193.923.923 0 01-.457.32l-6.867 2.339v-4.592zm0-11.172l6.707 1.261c.287.064.49.17.596.299a.262.262 0 01.085.181.344.344 0 01-.064.192c-.085.129-.234.246-.457.321l-6.867 2.339v-4.593zm0-11.171l6.707 1.271c.287.064.49.171.596.288.053.064.085.128.085.182a.378.378 0 01-.064.203c-.085.128-.234.245-.457.32l-6.867 2.339v-4.603zm0-11.15l6.707 1.26c.298.064.49.171.596.289a.284.284 0 01.085.181.344.344 0 01-.064.192c-.085.129-.234.246-.457.321l-6.867 2.339v-4.582zm0-11.171l6.707 1.26c.287.064.49.171.596.288a.312.312 0 01.085.193.374.374 0 01-.064.192.855.855 0 01-.457.32l-6.867 2.339v-4.592zm0-11.171l6.707 1.26c.287.075.49.171.596.299a.262.262 0 01.085.181.378.378 0 01-.064.203c-.085.128-.234.235-.457.321l-6.867 2.328v-4.592zm0-11.161l6.707 1.26c.298.064.49.171.596.299a.266.266 0 01.085.182.374.374 0 01-.064.192.855.855 0 01-.457.32l-6.867 2.339v-4.592zm0-11.171l6.707 1.26c.298.075.49.181.596.299a.262.262 0 01.085.181.403.403 0 01-.064.203.908.908 0 01-.457.31l-6.867 2.35v-4.603zm0-11.161l6.707 1.26c.298.064.49.171.596.299a.321.321 0 01.085.182.374.374 0 01-.064.192l-.01.021c-.086.118-.235.225-.448.3l-6.866 2.338v-4.592zm0-11.171l6.707 1.26c.287.075.49.182.596.299.053.064.085.118.085.182a.409.409 0 01-.064.203.923.923 0 01-.457.32l-6.867 2.339v-4.603zm0-11.161l6.707 1.26c.298.064.49.171.596.299a.266.266 0 01.085.182.344.344 0 01-.064.192c-.085.128-.234.246-.457.321l-6.867 2.339v-4.593zm0-11.171l6.707 1.271c.287.064.49.171.596.288a.266.266 0 01.085.182.409.409 0 01-.064.203.85.85 0 01-.457.309l-6.867 2.35v-4.603zm0-11.065l6.707 1.261c.287.064.49.171.596.288.053.064.085.128.085.192a.37.37 0 01-.064.192c-.085.129-.234.246-.457.321l-6.867 2.339v-4.593zm0-11.075l6.707 1.26c.287.065.49.182.596.3.053.064.085.117.085.181a.344.344 0 01-.064.192c-.085.128-.234.246-.457.321l-6.867 2.349v-4.603zm0-11.075l6.707 1.26c.287.075.49.182.596.299.053.064.085.118.085.182a.378.378 0 01-.064.203c-.085.128-.234.245-.457.32l-6.867 2.339v-4.603zm0-11.064l6.707 1.26c.287.064.49.171.596.299a.262.262 0 01.085.181.374.374 0 01-.064.193c-.085.128-.234.245-.457.32l-6.867 2.339v-4.592zm0-11.076l6.707 1.261c.287.074.49.181.596.299.053.064.085.128.085.181a.35.35 0 01-.064.193.806.806 0 01-.457.32l-6.867 2.35v-4.604zm0-11.064l6.707 1.26c.298.064.49.171.596.299a.321.321 0 01.085.182.344.344 0 01-.064.192l-.01.011c-.086.128-.235.235-.448.309l-6.866 2.339v-4.592zm0-11.075l6.707 1.26c.287.064.49.182.596.299a.284.284 0 01.085.182.344.344 0 01-.064.192.855.855 0 01-.457.32l-6.867 2.35v-4.603zm0-11.065l6.707 1.261c.298.064.49.17.596.288a.383.383 0 01.085.192.37.37 0 01-.064.192l-.01.011a.922.922 0 01-.448.31l-6.866 2.339v-4.593zm0-11.075l6.707 1.26c.298.064.49.171.596.299a.266.266 0 01.085.182.344.344 0 01-.064.192c-.085.128-.234.246-.457.331l-6.867 2.329v-4.593zm0-11.064l6.707 1.26c.298.064.49.171.596.288a.394.394 0 01.085.182.409.409 0 01-.064.203l-.01.01a.922.922 0 01-.448.31l-6.866 2.339v-4.592zm0-11.204l6.707 1.261c.287.064.49.17.596.299a.262.262 0 01.085.181.344.344 0 01-.064.192c-.085.129-.234.246-.457.321l-6.867 2.349v-4.603zm-.532-9.825h-3.567v-3.322h3.567v3.322zm.532.534h6.76c.256 0 .437.075.532.181a.224.224 0 01.085.171.583.583 0 01-.02.224l-.012.011c-.063.15-.223.299-.468.395l-6.877 1.666v-2.648zm-4.099 0h3.567v8.651l-3.567-.631v-8.02zm13.85 327.801h-9.751v-1.634l7.037-2.392c.34-.118.596-.321.734-.534a1.02 1.02 0 00.15-.513.906.906 0 00-.213-.513c-.17-.203-.469-.363-.895-.459l-6.813-1.281v-5.469l7.037-2.403c.34-.117.596-.309.734-.534a.987.987 0 00.15-.512.903.903 0 00-.213-.502c-.17-.203-.469-.374-.895-.47l-6.813-1.271v-5.468l7.037-2.403c.34-.118.596-.321.734-.534.096-.16.15-.342.15-.513a.849.849 0 00-.213-.502c-.181-.192-.469-.374-.873-.47l-6.835-1.281v-5.469l7.037-2.403c.32-.106.575-.288.713-.501l.021-.033a.958.958 0 00.15-.512.872.872 0 00-.213-.502c-.181-.203-.469-.374-.895-.459l-6.813-1.293v-5.457l7.037-2.403c.34-.118.596-.321.734-.534.096-.16.15-.342.15-.513a.903.903 0 00-.213-.512c-.17-.193-.469-.364-.895-.46l-6.813-1.281v-5.468l7.037-2.393c.34-.128.596-.32.734-.544a.99.99 0 00.15-.513.903.903 0 00-.213-.502c-.181-.192-.469-.363-.873-.459l-6.835-1.282v-5.479l7.037-2.392c.34-.128.596-.32.734-.534.096-.16.15-.342.15-.513a.849.849 0 00-.213-.502c-.17-.203-.469-.373-.895-.47l-6.813-1.281v-5.468l7.037-2.403c.34-.118.596-.31.734-.524.096-.16.15-.341.15-.523a.875.875 0 00-.213-.502c-.17-.192-.469-.374-.895-.459l-6.813-1.292v-5.458l7.037-2.403c.34-.117.596-.31.734-.534.096-.16.15-.342.15-.513a.903.903 0 00-.213-.512c-.17-.192-.469-.363-.895-.459l-6.813-1.282v-5.468l7.037-2.392c.34-.118.596-.321.734-.534a1.02 1.02 0 00.15-.513.851.851 0 00-.224-.513c-.17-.192-.458-.363-.863-.459l-6.834-1.292v-5.468l7.037-2.393c.34-.117.596-.32.734-.534a.987.987 0 00.15-.512.872.872 0 00-.213-.502c-.17-.203-.469-.374-.895-.47l-6.813-1.282v-5.468l7.037-2.403c.34-.118.596-.31.734-.534a.953.953 0 00.15-.502.906.906 0 00-.213-.513c-.17-.192-.469-.373-.895-.459l-6.813-1.281v-5.469l7.037-2.403c.34-.117.596-.309.734-.534.096-.16.15-.341.15-.512a.823.823 0 00-.224-.502c-.17-.203-.458-.374-.863-.459l-6.834-1.293v-5.457l7.037-2.403c.34-.118.596-.321.734-.545a.95.95 0 00.15-.502.856.856 0 00-.224-.513c-.17-.192-.458-.363-.863-.459l-6.834-1.281v-5.469l7.037-2.403c.32-.106.575-.299.713-.501l.021-.033a.987.987 0 00.15-.512.823.823 0 00-.224-.502c-.17-.203-.458-.374-.884-.47l-6.813-1.282v-5.468l7.037-2.392c.34-.128.596-.321.734-.534.096-.16.15-.342.15-.513a.903.903 0 00-.213-.512c-.17-.193-.469-.364-.895-.47l-6.813-1.271v-5.468l7.037-2.403c.34-.118.596-.31.734-.534a1.02 1.02 0 00.15-.513.825.825 0 00-.224-.502c-.17-.203-.458-.363-.863-.459l-6.834-1.293v-5.468l7.037-2.392c.34-.117.596-.32.734-.534.096-.16.15-.342.15-.513a.903.903 0 00-.213-.512c-.17-.193-.469-.374-.895-.46l-6.813-1.281v-5.372l7.037-2.403c.34-.118.596-.31.734-.534.096-.16.15-.342.15-.513a.931.931 0 00-.213-.512c-.17-.193-.469-.364-.895-.46l-6.813-1.281v-5.372l7.037-2.393c.34-.128.596-.32.734-.534.096-.16.15-.341.15-.523a.875.875 0 00-.213-.502c-.17-.203-.469-.374-.895-.459l-6.813-1.292v-5.362l7.037-2.403c.34-.117.596-.32.734-.534.096-.16.15-.342.15-.512a.903.903 0 00-.213-.513c-.181-.192-.469-.363-.895-.459l-6.813-1.282v-5.372l7.037-2.403c.34-.117.596-.31.734-.534a.988.988 0 00.15-.513.878.878 0 00-.213-.502c-.181-.202-.469-.373-.895-.469l-6.813-1.282v-5.372l7.037-2.392c.34-.118.596-.321.734-.545a.953.953 0 00.15-.502.903.903 0 00-.213-.513c-.181-.192-.469-.363-.895-.459l-6.813-1.282v-5.372l7.037-2.403c.32-.106.575-.299.713-.502l.021-.032a.987.987 0 00.15-.512.797.797 0 00-.224-.502c-.17-.203-.458-.374-.884-.47l-6.813-1.282v-5.372l7.037-2.392c.34-.128.596-.32.734-.534.096-.16.15-.342.15-.523a.872.872 0 00-.213-.502c-.181-.203-.469-.374-.895-.47l-6.813-1.271v-5.372l7.037-2.403c.32-.118.575-.299.713-.513l.021-.021a.988.988 0 00.15-.513.825.825 0 00-.224-.502c-.17-.203-.458-.374-.884-.47l-6.813-1.281v-5.372l7.037-2.403c.34-.118.596-.31.734-.534a.961.961 0 00.15-.513.8.8 0 00-.224-.502c-.17-.203-.458-.363-.863-.459l-6.834-1.293v-5.372l7.037-2.392c.32-.117.575-.299.713-.513l.021-.021c.096-.16.15-.342.15-.513a.825.825 0 00-.224-.512c-.17-.203-.458-.374-.884-.459l-6.813-1.282v-5.5l7.037-2.403c.34-.118.596-.31.734-.524a1.05 1.05 0 00.15-.523.875.875 0 00-.213-.502c-.181-.203-.469-.374-.895-.459l-6.813-1.282v-5.564l7.047-1.709c.394-.149.66-.406.788-.694l.01-.011a.918.918 0 00.054-.502.806.806 0 00-.223-.469c-.192-.203-.5-.342-.916-.342h-6.76v-3.396l10.007-2.564h1.459c.404 0 .777-.171 1.053-.438l.011-.01c.277-.267.437-.652.437-1.068v-4.699c0-.417-.16-.801-.437-1.068a1.493 1.493 0 00-1.064-.449H33.83v-1.442c0-.512-.213-1.004-.554-1.345-.266-.257-.607-.406-.99-.481v-7.615l3.726-3.492v3.204c0 .149.117.267.266.267h3.673v358.282h-6.047v-5.095c0-.139-.117-.256-.277-.256zm17.119-255.722v121.848h-1.693a.264.264 0 00-.266.267v12.154c0 .15.117.267.266.267.714-.011 1.225 0 1.693 0v82.492H40.483V124.294h10.263v110.997zm2.182.267l2.95.865c.148.043.297.107.425.182.458.267.735.705.852 1.175a2.79 2.79 0 01-.022 1.452c-.042.16-.106.299-.18.438l-4.184 7.636-1.49 2.563v-14.311h1.65zm2.513-10.787l.01-.01c.256-.214.597-.321.959-.278.362.043.68.224.905.491.212.267.34.609.319.993l-.202 2.126-2.672-.235.191-2.168c.032-.374.224-.705.49-.919zm-1.044 7.177l.31-3.567 2.671.246-.33 3.567-2.65-.246zm2.428 2.542c-.043.63-.405 1.015-.863 1.154a1.483 1.483 0 01-1.128-.097c-.405-.213-.703-.64-.639-1.271l.16-1.794 2.64.235-.17 1.773zm-5.547 24.949v-7.775l5.728 7.775h-5.728zm14.617 1.174c.255.171.48.363.66.577.117.128.202.278.287.427.224.385.384.801.448 1.239.01.128.063.235.074.363 0 .096-.021.182-.032.278-.01.331-.074.641-.18.929-.033.096-.054.182-.097.267-.085.182-.213.321-.319.481a3.74 3.74 0 01-.586.662c-.574.48-1.288.801-2.097.801H51.278v-6.654h12.775c.703 0 1.31.267 1.842.63zm2.012 2.254c0-.769.32-1.463.81-1.965a2.78 2.78 0 013.927 0c.5.502.81 1.196.81 1.965 0 .769-.31 1.463-.81 1.965-.5.513-1.192.822-1.958.822-.767 0-1.47-.309-1.97-.822a2.817 2.817 0 01-.809-1.965zm-1.8-2.82a5.43 5.43 0 011.853-1.826 5.31 5.31 0 012.726-.737c1.48 0 2.82.598 3.79 1.57a5.386 5.386 0 011.586 3.813c0 1.356-.458 2.499-1.171 3.385l-.01.011a5.5 5.5 0 01-2.513 1.709c-.98.32-2.044.374-3.056.117-1.032-.256-2.012-.854-2.789-1.815.043-.032.064-.096.107-.139.042-.032.106-.053.149-.096.127-.118.191-.299.298-.438.117-.16.287-.299.383-.459.032-.075.043-.15.075-.225.042-.106.074-.213.117-.32.031-.096.074-.182.095-.278.16.331.341.641.597.897a3.298 3.298 0 004.673 0 3.278 3.278 0 00.969-2.349 3.316 3.316 0 00-3.3-3.311 3.3 3.3 0 00-2.342.972c-.352.352-.586.79-.746 1.26-.032-.064-.085-.107-.117-.16-.096-.192-.17-.406-.298-.577-.064-.085-.17-.139-.245-.224-.053-.075-.085-.182-.16-.246-.106-.106-.244-.149-.35-.235-.118-.096-.192-.224-.32-.299zm-14.829 14.91v-7.786h5.728l-5.728 7.786zm-.532 94.336h-1.427v-11.62h1.427v11.62zm2.097-11.62l4.11 7.508.01.011c.064.128.128.267.17.416.128.428.15.962.022 1.453-.117.47-.394.918-.863 1.185a2.993 2.993 0 01-.415.182l-2.81.812-.139.042-1.65.011v-11.62h1.565zm10.327 40.136l-9.688-28.185c.511-.128 1.192-.32 2.3-.619l9.666 28.088-2.278.716zm17.352 41.203l-.479.16-2.778.908c-.022 0-.032-.032-.053-.021-.011 0 0 .032-.011.042l-.532.171-14.127-41.705 3.821-1.207 14.16 41.652zm-.34 1.399l-2.321.726-.213-.619 2.31-.769.224.662zm1.937 3.354c-.01 0-.01 0-.021-.011-.106-.043-.234-.043-.362-.075-.181-.053-.362-.107-.564-.117h-.32c-.18-.011-.362-.022-.553-.011l-.5.011c-.384 0-.735.117-1.065.277-.032.022-.075.011-.107.032l-.02.011c-.129.086-.235.192-.363.289-.032.032-.074.042-.106.074-.01.011-.01.022-.01.032-.022.011-.033.011-.043.032l-.767-2.435.458-.149h.01l3.364-1.058.97 3.098zm.863 7.721l-.384.374-3.098 3.023c-.127.128-.319.181-.51.181a1.3 1.3 0 01-.458-.085 1.12 1.12 0 01-.373-.235.624.624 0 01-.181-.417v-8.416c0-.384.15-.715.362-1.014.117-.171.266-.321.447-.449.064-.043.128-.096.192-.128.245-.128.521-.224.82-.224v-.011h.713c.276 0 .553 0 .798.032.075.011.15.032.224.054.287.064.553.181.798.384.032.032.085.032.117.075.32.331.533.779.533 1.281v5.575zm4.875 11.033c-2.342.01-4.588.053-6.504.139l-1.182-1.378c-.51-.588-1.054-1.26-1.384-2.061-.32-.769-.436-1.677-.16-2.724l1.246-1.228 3.332-3.257 4.652 10.509zm3.162.534c4.365.042 8.666.224 11.455.598v1.335c-.841-.182-2.427-.342-4.343-.449-2.46-.149-5.398-.235-7.708-.213l-1.416.01c-3.651.032-7.75.075-11.093.289-.98.074-1.842.213-2.597.47a5.509 5.509 0 00-1.97 1.089c-1.288 1.121-2.48 5.073-3.47 9.74-1.501 7.092-2.545 15.892-2.62 18.776l-.01 5.436c0 .662.117 1.303.458 1.794.085.128.234.203.351.299h-1.99v-7.369c.074-2.894.691-7.668 1.543-12.56.841-4.817 1.927-9.751 2.96-13.168.617-2.03 1.192-3.343 2.15-4.187.948-.854 2.32-1.271 4.525-1.495 2.608-.267 8.218-.449 13.775-.395zm14.244 2.253c.565.769.863 1.762.958 2.948l1.161 15.764h-1.31l-1.011-13.874c-.106-1.26-.255-2.285-.575-3.108-.298-.801-.777-1.399-1.49-1.847v-1.421c1.022.331 1.767.855 2.267 1.538zm15.213 17.409h2.704v1.303h-2.704v-1.303zm-1.107-6.387h5.153v5.853h-5.152v-5.853zm.032-.972c.724-.513 1.629-.769 2.544-.769.916 0 1.821.256 2.545.769.191.118.372.278.532.438h-6.142c.16-.16.33-.32.522-.438zm10.114 6.259c0-.641.266-1.239.681-1.666a2.372 2.372 0 011.661-.684h3.758v4.699h-6.1v-2.349zm16.682-4.336c0-.396.159-.759.425-1.015a1.398 1.398 0 011.012-.427h1.714v1.292h-.16c-.692-.011-1.054-.011-1.299.214-.266.245-.266.619-.255 1.388h-1.437v-1.452zm7.388 2.68c.415.417.681 1.015.681 1.656v2.349h-6.1v-4.699h3.747c.65 0 1.235.267 1.672.694zm1.458 17.879v4.389h-24.89v-17.675h24.89v13.286zm3.375-18.594a7.047 7.047 0 015.025-2.083c1.959 0 3.736.79 5.025 2.083a7.052 7.052 0 012.065 4.774h-1.022c-.075-1.581-.692-3.012-1.735-4.069l-.011-.011a6.07 6.07 0 00-4.322-1.794 6.094 6.094 0 00-4.333 1.794 6.138 6.138 0 00-1.767 4.08h-1.001a7.163 7.163 0 012.076-4.774zm6.739 4.774h-3.428a1.64 1.64 0 01.49-.962c.308-.32.745-.512 1.224-.512s.915.192 1.224.512c.256.257.426.588.49.962zm.489 0c-.063-.513-.255-.994-.596-1.346a2.29 2.29 0 00-1.607-.662c-.628 0-1.193.256-1.608.662-.34.352-.543.833-.607 1.346h-3.374a5.634 5.634 0 011.629-3.706 5.627 5.627 0 013.96-1.645c1.543 0 2.938.63 3.949 1.655a5.599 5.599 0 011.64 3.696h-3.386zm5.653 13.553h-15.723v-13.019h15.724v13.019zm-15.723 3.086h15.734v1.57h-15.734v-1.57zm15.723-.534h-15.723v-2.008h15.723v2.008zm-81.142-3.567c-6.739 3.279-14.35 5.425-20.76 5.639-.617-.032-1.032-.246-1.256-.566-.276-.385-.362-.929-.362-1.495l.011-5.426c.075-2.862 1.107-11.609 2.608-18.679.969-4.571 2.119-8.405 3.29-9.452a5.133 5.133 0 011.778-.982h.02c.703-.225 1.523-.374 2.46-.428 3.353-.235 7.43-.267 11.072-.299l1.139-.01v31.698zm-15.724 5.671c5.153-.844 10.667-2.659 15.724-5.094v5.094H74.433zm32.97 0H90.689v-5.329a.588.588 0 01.085-.032c6.6-3.268 12.318-7.626 15.192-12.314h1.437v17.675zm22.207-17.675v17.675h-21.675v-17.675h21.676zm18.024-.588h-11.487v-4.699h11.487v4.699zm-45.011-18.401c.671.384 1.097.939 1.373 1.666.288.758.426 1.74.543 2.969l1.022 14.012c-2.789 4.592-8.389 8.864-14.872 12.1v-31.452c2.257-.011 5.046.064 7.41.213 2.15.128 3.896.299 4.524.492zm-36.558 41.299v-4.101H171.3v4.101H66.066zm-12.87-54.788v1.837l-.99 4.037h-.927V446.21h.927l.99 4.037v1.827zm15.958 12.944c-.16.16-.33.278-.469.363-.426.246-.84.278-1.203.182h-.021a2.054 2.054 0 01-.905-.524.923.923 0 01-.213-.267l-15.064-28.804v-2.061l26.168 12.186v8.234c0 .299.138.577.34.791h.011c.15.149.34.267.543.363.138.053.309.064.468.085l-9.655 9.452zm.223 6.461l-2.576-5.714c.18.118.32.267.543.321h.01a2.14 2.14 0 001.587-.235 2.6 2.6 0 00.585-.459l1.171-1.154.692 1.527c-.5.834-.915 1.859-1.33 3.215a66.537 66.537 0 00-.682 2.499zm8.91-12.057c.363.865.938 1.591 1.491 2.21l.905 1.058a71.91 71.91 0 00-3.492.224c-2.331.246-3.779.694-4.822 1.623a5.83 5.83 0 00-.64.705l-.627-1.388 6.94-6.793c-.095.876-.031 1.677.246 2.361zM52.95 369.731l9.72 28.238-.554.171a.265.265 0 00-.16.341L76.253 440.7a.267.267 0 00.33.16l.565-.182.213.63-.448.128c-.138.054-.223.203-.17.342l.969 3.108c-.107.203-.15.427-.192.641L51.278 433.33v-63.503c.745 0 1.203-.021 1.672-.096zm26.966 140.421h1.639v.886h-.256a.265.265 0 00-.266.235l-.191.651h-1l-.203-.694c-.032-.117-.139-.181-.256-.192h-1.267a.265.265 0 00-.266.235l-.191.651h-1.001l-.192-.63c-.021-.128-.149-.203-.266-.192l-1.33.128a.273.273 0 00-.235.214l-.117.598-.862.053-.17-.523a.276.276 0 00-.277-.182l-1.214.118c-.117 0-.213.107-.234.224l-.107.63-.862.086-.224-.609a.274.274 0 00-.266-.171l-1.203.118a.26.26 0 00-.234.213l-.106.63-.863.086-.223-.598a.265.265 0 00-.277-.171l-1.192.107a.26.26 0 00-.234.224l-.107.641-.862.074-.224-.598a.267.267 0 00-.277-.171l-1.192.107a.252.252 0 00-.234.225l-.107.63-.862.085-.234-.609c-.032-.106-.15-.171-.266-.16l-1.193.107a.273.273 0 00-.244.224l-.096.63-.873.086-.224-.609a.256.256 0 00-.266-.16l-1.203.107a.27.27 0 00-.234.224l-.107.63-.862.085-.213-.608c-.053-.107-.16-.182-.277-.171l-1.203.117a.273.273 0 00-.234.214l-.106.641-.863.085-.223-.598c-.043-.128-.16-.181-.277-.181l-1.192.117a.273.273 0 00-.234.214l-.107.64-.862.086-.224-.609a.267.267 0 00-.277-.171l-1.203.118c-.127.01-.212.106-.234.224l-.085.619-.49.064v-8.896h3.013a.27.27 0 00.266-.267v-46.981h1.129a.275.275 0 00.266-.235c.692-2.83 1.054-3.471 1.054-6.173s-.362-3.332-1.054-6.173a.266.266 0 00-.266-.225h-1.129V437.1c4.855 9.26 9.944 18.594 14.596 27.918l3.29 7.284c-.746 2.969-1.47 6.461-2.077 9.9-.862 4.923-1.48 9.729-1.554 12.656v12.271c0 .15.117.267.266.267h13.85v2.489c0 .149.117.267.267.267zm107.501-7.177l-1.852-15.785c-.096-.887-.469-1.688-1.043-2.265l-.011-.021a2.967 2.967 0 00-2.129-.886h-11.327c-.075-2.019-.895-3.824-2.215-5.148a7.587 7.587 0 00-5.397-2.243 7.572 7.572 0 00-5.398 2.243c-1.32 1.324-2.139 3.14-2.214 5.148h-1.033v-2.403c0-.791-.33-1.517-.841-2.04a2.87 2.87 0 00-2.044-.844h-3.747c0-.609 0-.908.085-.993.085-.086.373-.086.937-.075h.426a.264.264 0 00.266-.267v-1.826a.261.261 0 00-.255-.267h-1.991c-.543 0-1.033.224-1.395.576a1.994 1.994 0 00-.575 1.4v1.452h-13.807c-.788 0-1.512.32-2.034.844a2.889 2.889 0 00-.841 2.04v2.403h-5.269v-1.303h1.075a.264.264 0 00.266-.267v-6.12h.532a.27.27 0 00.266-.267.262.262 0 00-.064-.171 4.104 4.104 0 00-.99-.982c-.819-.566-1.841-.855-2.853-.855-1.011 0-2.033.289-2.853.855a4.233 4.233 0 00-1 1.003.272.272 0 00.063.374.304.304 0 00.16.043h.522v6.12c0 .149.117.267.277.267h.841v1.303h-12.041l-1.171-15.807c-.096-1.281-.426-2.36-1.054-3.214l-.011-.011c-.628-.865-1.554-1.474-2.885-1.837 0 0 0 .021-.01.021-.011-.01-.011-.021-.011-.021-2.81-.406-7.26-.598-11.753-.63h-2.576l-4.918-11.097c-.011-.01-.011 0-.011-.01v-5.501c0-.63-.266-1.206-.681-1.634l-1.257-4.026a.278.278 0 00-.33-.182l-.553.182-.224-.662.48-.16c.138-.043.201-.203.159-.331l-14.319-42.154c-.042-.139-.202-.214-.34-.171l-.5.16-9.657-28.11a2.53 2.53 0 00.256-.107l.021-.01c.596-.342.948-.908 1.107-1.506a3.356 3.356 0 00-.042-1.752 2.555 2.555 0 00-.213-.523l-4.184-7.636a.274.274 0 00-.234-.15h-1.725v-81.285l6.388-8.683h6.387c.756 0 1.416-.267 2.012-.652.873 1.1 1.96 1.795 3.12 2.094a6.039 6.039 0 003.342-.139 6.043 6.043 0 002.758-1.869l.02-.022c.789-.971 1.278-2.232 1.278-3.716a5.92 5.92 0 00-1.724-4.187 5.88 5.88 0 00-4.173-1.73 5.955 5.955 0 00-3.003.812 6.003 6.003 0 00-2.022 2.05c-.5-.224-1.033-.373-1.608-.373h-6.387l-6.345-8.598c2.108-3.62 4.077-7.23 6.09-10.915.095-.16.17-.342.233-.544a3.39 3.39 0 00.032-1.731c-.16-.608-.51-1.164-1.117-1.516-.075-.043-.17-.064-.256-.107.554-.246 1-.705 1.054-1.495l.192-2.008c0-.011.01-.011.01-.021 0-.011-.01-.011-.01-.022l.617-6.483a2.018 2.018 0 00-.436-1.356h-.011a1.883 1.883 0 00-1.246-.694 1.868 1.868 0 00-1.352.384l-.02.022a1.906 1.906 0 00-.682 1.281l-.213 2.435-.362 4.091s-.01 0-.01.011c0 .01.01.01.01.021l-.181 2.04a1.83 1.83 0 00.202 1.025c-.713-.182-1.224-.224-2.587-.235V124.027a.27.27 0 00-.266-.267h-3.045v-1.805a2.915 2.915 0 001.778-.801c.522-.523.852-1.26.852-2.061v-2.446l11.891-3.322c.16.374.352.748.671.994l.01.01c.14.107.31.182.48.257-.085.683-.064 3.054-.053 4.389v.748c0 .972.542 1.602 1.234 1.879.256.107.543.161.83.161.278 0 .565-.054.831-.161.692-.277 1.235-.907 1.224-1.879l.011-.748c0-1.324.021-3.663-.053-4.379a2.322 2.322 0 001.405-2.125v-.982l.756-.214a5.633 5.633 0 002.725-2.029 5.577 5.577 0 001.033-3.236 5.52 5.52 0 00-1.618-3.92 5.496 5.496 0 00-3.918-1.634H25.164V21.328h1.49a.262.262 0 00.267-.256v-2.467a.27.27 0 00-.267-.267h-1.49v-6.12a.262.262 0 00-.256-.267h-1V6.963a4.23 4.23 0 00-1.246-2.99 4.175 4.175 0 00-2.98-1.239h-9.39V.267A.27.27 0 0010.026 0H6.31a.27.27 0 00-.266.267v2.467h-.873c-1.16 0-2.214.47-2.98 1.239a4.22 4.22 0 00-1.236 2.99v5.052c-.649.139-.798.758-.798 1.484.021.31.01.652.021.962 0 .277.117.544.309.737.192.181.447.299.735.299h4.322c.202 0 .362-.043.5-.118v86.818a5.502 5.502 0 00-1.565 3.823c0 1.474.607 2.82 1.565 3.824v45.358a1.514 1.514 0 001.501 1.516h1.682c4.62 1.186 6.856 2.019 10.007 2.403v7.925l-6.44 1.1c-.511.096-.852.31-1.054.555l-.011.011a.93.93 0 00-.202.577c0 .192.053.384.149.544l.021.022c.181.288.5.523.937.641l6.6 1.174v6.579l-6.44 1.09c-.511.106-.852.309-1.054.555l-.011.021a.901.901 0 00-.202.566c0 .203.053.395.17.577.181.278.5.513.937.63l6.6 1.186v6.44l-6.44 1.1c-.522.107-.873.32-1.065.566a.95.95 0 00-.202.576c0 .203.053.396.17.567.181.288.5.523.937.64l6.6 1.175v6.451l-6.44 1.1c-.511.096-.852.299-1.054.545l-.011.021a.909.909 0 00-.202.577c0 .192.053.373.149.544l.021.022c.181.277.5.523.937.63l6.6 1.185v6.44l-6.44 1.1c-.522.107-.873.321-1.065.566a.954.954 0 00-.202.577c0 .203.053.395.17.577.181.278.5.512.937.63l6.6 1.185v6.44l-6.44 1.101c-.511.096-.852.309-1.054.555l-.011.011a.926.926 0 00-.202.576c0 .193.053.374.149.545l.021.021c.181.289.5.524.937.63l6.6 1.186v6.451l-6.44 1.089c-.522.107-.873.32-1.065.577a.908.908 0 00-.202.576c0 .193.053.385.17.566.181.278.5.524.937.631l6.6 1.185v6.44l-6.44 1.1c-.511.107-.852.31-1.054.556l-.011.01a.909.909 0 00-.202.577c0 .192.053.384.149.555l.021.011c.181.288.5.523.937.641l6.6 1.185v6.44l-6.44 1.1c-.522.107-.873.31-1.065.566a.909.909 0 00-.202.577c0 .203.053.385.17.566.181.278.5.523.937.641l6.6 1.175v6.45l-6.44 1.09c-.511.107-.852.31-1.054.555l-.011.011a.95.95 0 00-.202.577c0 .192.053.384.149.555l.021.011c.181.288.5.534.937.64l6.6 1.186v6.44l-6.44 1.1c-.511.096-.852.299-1.054.555l-.011.011a.909.909 0 00-.202.577c0 .192.053.395.17.566.181.277.5.523.937.641l6.6 1.174v6.44l-6.44 1.1c-.511.107-.852.321-1.054.556l-.011.01a.961.961 0 00-.202.588c0 .181.053.374.149.545l.021.021c.181.278.5.523.937.63l6.6 1.186v6.536l-6.44 1.1c-.522.096-.873.309-1.065.566a.928.928 0 00-.202.576c0 .193.053.396.17.567.181.277.5.523.937.64l6.6 1.175v6.547l-6.44 1.1c-.511.096-.852.299-1.054.545l-.011.021a.909.909 0 00-.202.577c0 .192.053.384.17.566.181.277.5.512.937.63l6.6 1.185v6.537l-6.44 1.1c-.511.106-.852.299-1.054.555l-.011.011a.926.926 0 00-.202.576c0 .193.053.396.17.566.181.278.5.524.937.641l6.6 1.175v6.547l-6.44 1.089c-.511.107-.852.31-1.054.556l-.011.01a.961.961 0 00-.202.588c0 .181.053.373.149.544l.021.022c.181.277.5.512.937.63l6.6 1.185v6.536l-6.44 1.1c-.522.097-.873.31-1.065.567a.95.95 0 00-.202.576c0 .192.053.395.17.566.181.278.5.524.937.641l6.6 1.175v6.536l-6.44 1.111c-.511.096-.852.299-1.054.544l-.011.022a.909.909 0 00-.202.577c0 .192.053.384.17.566.181.277.5.523.937.63l6.6 1.185v6.536l-6.44 1.1c-.511.096-.852.31-1.054.556l-.011.01a.93.93 0 00-.202.577c0 .192.053.374.149.545l.021.021c.181.278.5.523.937.641l6.6 1.175v6.536l-6.44 1.1c-.511.107-.852.31-1.054.555l-.011.022a.906.906 0 00-.202.576c0 .182.053.374.149.545l.021.021c.181.278.5.524.937.631l6.6 1.185v6.536l-6.44 1.1c-.511.096-.852.31-1.054.556l-.011.01a.954.954 0 00-.202.577c0 .192.053.384.17.566.181.288.5.523.937.63l6.6 1.186v6.536l-6.44 1.1c-.511.107-.852.31-1.054.555l-.011.011a.929.929 0 00-.202.577c0 .192.053.395.17.566.181.288.5.534.937.64l6.6 1.186v6.536l-6.44 1.1c-.511.096-.852.31-1.054.545l-.011.021a.909.909 0 00-.202.577c0 .192.053.374.149.545l.021.021c.181.288.5.523.937.641l6.6 1.175v6.536l-6.44 1.1c-.522.107-.873.32-1.065.566a.956.956 0 00-.202.587c0 .192.053.385.17.566.181.278.5.513.937.63l6.6 1.186v6.536l-6.44 1.1c-.511.096-.852.299-1.054.545l-.011.021a.93.93 0 00-.202.577c0 .192.053.384.17.566.181.277.5.523.937.641l6.6 1.174v6.537l-6.44 1.1c-.511.106-.852.309-1.054.555l-.011.011a.95.95 0 00-.202.576c0 .193.053.385.149.545l.021.021c.181.289.5.524.937.641l6.6 1.175v6.547l-6.44 1.1c-.511.096-.852.299-1.054.545l-.011.021a.909.909 0 00-.202.577c0 .192.053.373.149.544l.021.022c.181.277.5.523.937.64l6.6 1.175v6.536l-6.44 1.1c-.522.097-.873.321-1.065.577a.909.909 0 00-.202.577c0 .192.053.384.17.566.181.278.5.513.937.63l6.6 1.175v6.547l-6.44 1.1c-.511.096-.852.299-1.054.544l-.011.022a.909.909 0 00-.202.577c0 .192.053.384.17.566.181.277.5.523.937.63l6.6 1.185v6.579l-6.068 1.036h-1.724a.261.261 0 00-.267.256v10.947c0 .139.117.257.267.257h7.792v1.313l-6.44 1.1c-.511.107-.852.321-1.054.556l-.011.01a.939.939 0 00-.202.588c0 .181.053.374.149.544l.021.022c.181.277.5.523.937.641l6.6 1.174v5.543l-6.44 1.1c-.522.107-.873.321-1.065.577a.901.901 0 00-.202.566c0 .203.053.395.17.577.181.278.5.523.937.63l6.6 1.185v5.672l-6.44 1.356c-.543.075-.905.246-1.086.459a.633.633 0 00-.181.438c0 .15.053.31.149.438.18.224.51.416.958.502l6.6.011v1.58l-6.813.545c-.01 0-.01.011-.01.011-.416.01-.693.234-.81.544a1.001 1.001 0 00-.064.363c0 .118.022.235.064.363l.01.011a.847.847 0 00.82.534h6.857c.053.513.244 1.143.574 1.645l.011.021c.34.524.799.908 1.32.908h.735c.191 0 .362-.096.532-.192.01 0 .01.021.021.021l8.421-1.111v-.01c.415-.022.681-.246.799-.545a.995.995 0 00.074-.352c0-.118-.032-.257-.074-.364l-.011-.021c-.117-.299-.405-.534-.82-.534h-6.994v-1.645l7.005-.48h.01c.416-.011.693-.246.81-.545.042-.117.074-.246.074-.363a1.05 1.05 0 00-.074-.363l-.011-.011c-.117-.31-.405-.534-.82-.534h-6.994v-3.108l7.026-1.655c.32-.096.575-.288.724-.502l.01-.021a.846.846 0 00.15-.502.78.78 0 00-.192-.502c-.16-.214-.458-.395-.905-.492l-6.813-1.281v-4.507l7.037-2.392c.34-.129.596-.321.734-.534a1.05 1.05 0 00.15-.513.903.903 0 00-.213-.513c-.17-.203-.469-.374-.895-.459l-6.813-1.282v-4.539l4.908-1.676H39.95v2.99c0 .15.117.267.266.267h3.077v9.206l.01.064v.011l.192.705-.745.438-.564-.556a.252.252 0 00-.352-.021l-.692.502c-.106.085-.138.235-.074.342l.383.673-.607.608-.702-.395a.25.25 0 00-.34.064l-.523.652a.272.272 0 00.022.341l.532.534-.426.759-.756-.203c-.127-.043-.255.032-.32.149l-.33.801c-.052.118 0 .257.107.331l.586.342-.213.823h-.703c-.138 0-.255.117-.266.267l-.117.918a.26.26 0 00.202.288l.543.15v.854l-.553.15a.276.276 0 00-.192.288l.128.983a.272.272 0 00.266.213h.575l.213.844-.48.278c-.116.064-.159.213-.106.342l.352.833c.053.117.191.17.308.149l.65-.181.436.747-.458.459c-.106.107-.106.278-.01.374l.532.673a.274.274 0 00.351.043l.575-.331.607.619-.33.566c-.053.118-.032.267.075.331l.713.534a.274.274 0 00.351-.032l.469-.47.745.438-.16.609a.254.254 0 00.16.32l.851.331a.274.274 0 00.33-.128l.31-.534.83.224v.577c0 .15.106.257.244.267l.895.096a.284.284 0 00.276-.213l.15-.566h.862l.16.598a.262.262 0 00.255.192h1.224a.262.262 0 00.256-.224l.16-.566h.883l.16.598a.262.262 0 00.255.192h1.267c.128 0 .234-.096.266-.224l.15-.566h.883l.16.598a.262.262 0 00.255.192h1.427a.262.262 0 00.255-.224l.16-.566h.883l.15.598a.285.285 0 00.266.192h1.415a.265.265 0 00.267-.224l.149-.566h.883l.17.598a.262.262 0 00.256.192h1.427a.262.262 0 00.255-.224l.16-.566h.873l.16.598a.282.282 0 00.255.192h1.427a.265.265 0 00.266-.224l.16-.566h.872l.16.598c.032.117.15.192.255.192h1.427a.265.265 0 00.266-.224l.15-.566h.883l.16.598a.262.262 0 00.255.192h1.427a.273.273 0 00.266-.224l.149-.566h.883l.16.598a.262.262 0 00.256.192h1.426a.274.274 0 00.266-.224l.15-.566h.883l.16.598a.262.262 0 00.255.192h1.427a.274.274 0 00.266-.224l.149-.566h.883l.16.598a.262.262 0 00.256.192h1.426a.262.262 0 00.256-.224l.16-.566h.883l.16.598a.262.262 0 00.255.192h1.437a.262.262 0 00.256-.224l.16-.566h.883l.16.598a.262.262 0 00.255.192h1.438a.262.262 0 00.255-.224l.16-.566h.873l.17.598a.282.282 0 00.255.192h1.448a.265.265 0 00.266-.224l.16-.566h.884l.17.598a.285.285 0 00.266.192h1.437a.265.265 0 00.267-.224l.17-.566h.873l.18.598a.254.254 0 00.256.192h1.438a.265.265 0 00.266-.224l.17-.566h.873l.18.598a.26.26 0 00.246.192h1.448a.266.266 0 00.266-.224l.17-.566h.873l.181.598a.262.262 0 00.256.192h1.437a.262.262 0 00.255-.192l.192-.598h.873l.159.598a.263.263 0 00.256.192h1.437a.263.263 0 00.256-.224l.159-.566h.884l.16.598a.262.262 0 00.255.192h1.437a.263.263 0 00.256-.224l.16-.566h.883l.16.598a.262.262 0 00.255.192h1.438a.262.262 0 00.255-.224l.16-.566h.883l.16.598c.021.117.138.192.255.192h1.438a.262.262 0 00.255-.224l.16-.566h.883l.16.598c.021.117.139.192.256.192h1.437a.261.261 0 00.255-.224l.16-.566h.884l.159.598c.022.117.139.192.256.192h1.437a.263.263 0 00.256-.224l.159-.566h.873l.16.598a.275.275 0 00.266.192h1.437a.263.263 0 00.256-.224l.159-.566h.873l.16.598a.266.266 0 00.266.192h1.427a.265.265 0 00.266-.224l.16-.566h.872l.16.598a.267.267 0 00.266.192h1.427a.273.273 0 00.266-.224l.149-.566h.884l.159.598a.263.263 0 00.256.192h1.437a.273.273 0 00.266-.224l.16-.566h.873l.16.598a.261.261 0 00.255.192h1.437a.273.273 0 00.266-.224l.16-.566h.873l.16.598a.262.262 0 00.255.192H141c.139 0 .235-.096.267-.224l.149-.566h.883l.16.598a.262.262 0 00.255.192h1.203a.264.264 0 00.266-.224l.15-.566h.872l.139.576c.042.129.16.203.277.203l.915-.096a.274.274 0 00.234-.267v-.577l.831-.224.319.545c.064.107.192.16.309.117l.83-.32.032-.011h.011l.053-.042.011-.011h.01v-.011l.011-.01h.011l.01-.011.011-.011v-.011l.011-.01v-.011l.01-.011v-.01l.011-.011v-.16l-.17-.609.755-.438.469.47v.011h.01v.011h.011l.032.021.021.011.011.01.021.011h.032l.011.011h.086l.011-.011h.032l.01-.011h.011l.021-.01.011-.011.021-.011.011-.01h.01l.671-.502.011-.011.01-.011h.011v-.01h.011v-.011l.01-.011.011-.011.011-.01.01-.011v-.011l.011-.01v-.011l.011-.011v-.01l.01-.011v-.149l-.01-.011v-.011l-.011-.011v-.01l-.011-.011v-.011l-.01-.01-.309-.545.607-.619.585.341a.274.274 0 00.341-.064l.543-.683a.291.291 0 00-.021-.353l-.469-.448.437-.758.649.181c.128.021.266-.032.319-.149l.352-.844a.267.267 0 00-.107-.331l-.489-.278.223-.844h.575c.138 0 .245-.106.266-.245l.128-.951a.28.28 0 00-.202-.288l-.554-.15v-.854l.554-.16h.032l.01-.011h.011l.021-.011.032-.032h.011l.01-.021.011-.011h.011v-.021l.01-.011.011-.021h.011v-.021l.01-.022v-.032h.011v-.085l-.011-.011-.117-.918a.283.283 0 00-.266-.235h-.692l-.224-.823.597-.342a.27.27 0 00.095-.352l-.33-.769v-.021l-.01-.011-.011-.011v-.01l-.011-.011v-.011h-.01v-.01h-.011v-.011l-.01-.011h-.011l-.011-.01-.01-.011H154l-.011-.011-.01-.01h-.011l-.011-.011h-.032v-.011h-.127l-.011.011h-.011l-.734.203-.437-.759.533-.534h.01v-.01h.011v-.011h.011l.01-.011v-.021h.011v-.011l.011-.032.01-.01v-.139l-.021-.043v-.021h-.011v-.011l-.021-.021v-.011l-.011-.011-.01-.01-.501-.63c-.085-.097-.234-.129-.34-.065l-.703.406-.607-.608.383-.673a.276.276 0 00-.063-.342l-.714-.513a.26.26 0 00-.34.032l-.554.556-.745-.438.181-.705.01-.085v-.043h-.01v-.011l-.011-.021v-.022l-.01-.01v-.011l-.011-.011v-.01l-.011-.011-.01-.011h-.011v-.01l-.011-.011v-.011l-.042-.032h-.032l-.011-.01h-.021l-.777-.299-.022-.011h-.032l-.01-.011h-.011a.268.268 0 00-.181.043h-.01l-.032.021v.011l-.032.032v.011l-.011.01-.011.011v.011l-.308.598-.852-.192-.021-.684a.273.273 0 00-.245-.256l-1.065-.107a.257.257 0 00-.266.16l-.255.63-.852-.107-.085-.619a.261.261 0 00-.245-.224l-1.203-.118a.29.29 0 00-.288.192l-.212.588-.863-.086-.096-.64a.27.27 0 00-.234-.214l-1.203-.117a.266.266 0 00-.277.192l-.223.587-.862-.085-.107-.641c-.011-.118-.117-.203-.234-.214l-1.192-.117a.259.259 0 00-.277.192l-.224.587-.862-.085-.107-.63a.27.27 0 00-.234-.224l-1.192-.107a.26.26 0 00-.288.181l-.212.588-.863-.086-.106-.63a.273.273 0 00-.234-.224l-1.203-.107c-.118-.021-.235.064-.277.192l-.213.577-.862-.085-.107-.63a.271.271 0 00-.234-.225l-1.192-.107c-.139-.01-.256.065-.288.193l-.213.576-.862-.074-.107-.641a.27.27 0 00-.234-.224l-1.203-.107a.268.268 0 00-.277.192l-.212.577-.863-.086-.106-.63a.272.272 0 00-.245-.213l-1.192-.118a.267.267 0 00-.277.192l-.224.588-.851-.086-.118-.63c-.01-.117-.117-.224-.234-.224l-1.192-.118a.29.29 0 00-.288.193l-.212.587-.863-.085-.096-.63a.28.28 0 00-.244-.225l-1.203-.117a.269.269 0 00-.288.203l-.181.63h-1.001l-.212-.716c-.032-.117-.139-.181-.256-.192h-.245v-.886h1.288a.274.274 0 00.277-.267v-2.489h68.762l.298-.011c.745-.085 1.426-.502 1.905-1.164.469-.64.767-1.527.767-2.563 0-.213-.011-.438-.043-.683zM44.422 118.537c.17-.427.565-.758 1.193-.758.617 0 1.022.331 1.181.758.075.182.107.363.107.556 0 .192-.032.384-.107.555-.16.427-.564.769-1.181.769-.628 0-1.022-.342-1.193-.769a1.393 1.393 0 01-.106-.555c0-.193.032-.374.106-.556zm1.193 2.403c.873 0 1.437-.48 1.682-1.1a1.98 1.98 0 00.138-.747 1.98 1.98 0 00-.138-.748c-.245-.619-.81-1.111-1.682-1.111-.884 0-1.438.492-1.693 1.111a1.983 1.983 0 00-.138.748c0 .256.042.512.138.747.256.62.81 1.1 1.693 1.1zm20.6-16.554c.383-.384.926-.63 1.522-.63s1.128.246 1.522.63c.383.395.628.94.628 1.528 0 .587-.245 1.132-.628 1.527-.394.384-.926.63-1.522.63s-1.14-.246-1.523-.63a2.205 2.205 0 01-.628-1.527c0-.588.245-1.133.628-1.528zm1.522 4.219a2.65 2.65 0 001.895-.79c.49-.481.787-1.165.787-1.901 0-.748-.298-1.421-.787-1.901a2.647 2.647 0 00-1.895-.791 2.63 2.63 0 00-1.895.791 2.646 2.646 0 00-.788 1.901c0 .736.298 1.42.788 1.901.479.491 1.15.79 1.895.79zm-33.875-2.691c0 .598-.245 1.132-.628 1.527-.394.384-.927.63-1.523.63a2.174 2.174 0 01-1.522-.63 2.185 2.185 0 01-.628-1.527c0-.599.245-1.133.628-1.528.394-.384.926-.63 1.522-.63s1.129.246 1.523.63c.383.395.628.929.628 1.528zm-4.046-1.901a2.646 2.646 0 00-.787 1.901c0 .736.298 1.409.787 1.901a2.65 2.65 0 001.895.79 2.65 2.65 0 001.895-.79c.49-.492.788-1.165.788-1.901 0-.748-.298-1.421-.788-1.901a2.647 2.647 0 00-1.895-.791c-.734 0-1.416.299-1.895.791zm-21.515.373c.383-.384.926-.63 1.512-.63a2.17 2.17 0 012.161 2.158 2.17 2.17 0 01-2.161 2.157 2.149 2.149 0 01-2.14-2.157c0-.588.234-1.133.628-1.528zm1.512 4.219c.745 0 1.416-.299 1.905-.79a2.714 2.714 0 00.788-1.901 2.69 2.69 0 00-.788-1.901 2.672 2.672 0 00-1.905-.791 2.681 2.681 0 00-2.672 2.692c0 .736.298 1.42.777 1.901.49.491 1.16.79 1.895.79zm12.104-1.164c-.383.384-.926.63-1.522.63a2.17 2.17 0 01-2.15-2.157c0-.599.244-1.133.638-1.528.383-.384.926-.63 1.512-.63.596 0 1.139.246 1.522.63.394.395.639.929.639 1.528a2.17 2.17 0 01-.639 1.527zm-1.522-4.219c-.735 0-1.405.299-1.895.791a2.69 2.69 0 00-.788 1.901c0 .736.309 1.42.788 1.901.49.491 1.16.79 1.895.79.745 0 1.416-.299 1.895-.79.49-.481.788-1.165.788-1.901a2.65 2.65 0 00-.788-1.901 2.629 2.629 0 00-1.895-.791zm61.064 347.527c-.096.278-.362.492-.756.492-.383 0-.638-.214-.745-.492a.885.885 0 01-.064-.341c0-.129.022-.246.064-.353.107-.277.362-.491.745-.491.394 0 .66.214.756.491a.776.776 0 01.075.353.728.728 0 01-.075.341zm-.756-1.708c-.638 0-1.054.352-1.245.811a1.61 1.61 0 00-.107.556c0 .181.043.373.107.544.191.46.607.823 1.245.823.66 0 1.076-.363 1.257-.823a1.649 1.649 0 000-1.1c-.181-.459-.607-.811-1.257-.811zm-10.305 3.481a3.395 3.395 0 01-4.822 0 3.42 3.42 0 012.406-5.842 3.42 3.42 0 012.417 5.842zm-2.416-6.376a3.934 3.934 0 00-2.779 1.164 3.956 3.956 0 00-1.15 2.799c0 1.089.437 2.072 1.15 2.787a3.92 3.92 0 002.779 1.154 3.908 3.908 0 002.789-1.154 3.927 3.927 0 001.15-2.787c0-1.09-.437-2.083-1.15-2.799a3.921 3.921 0 00-2.79-1.164zm4.215 8.181a5.935 5.935 0 01-8.42 0 5.973 5.973 0 01-1.746-4.229c0-1.645.67-3.14 1.745-4.219a5.886 5.886 0 014.206-1.751c1.65 0 3.14.662 4.215 1.751a5.968 5.968 0 011.746 4.219 5.97 5.97 0 01-1.746 4.229zm-4.215-10.733a6.449 6.449 0 00-4.589 1.912 6.5 6.5 0 00-1.895 4.592 6.51 6.51 0 001.895 4.603 6.453 6.453 0 004.589 1.912 6.415 6.415 0 004.588-1.912 6.474 6.474 0 001.906-4.603 6.51 6.51 0 00-1.906-4.603 6.448 6.448 0 00-4.588-1.901zm3.225 78.156h-9.24v-1.986h9.24v1.986zm-9.506-2.531a.27.27 0 00-.267.267v2.531c0 .16.117.278.267.278h9.772c.15 0 .267-.118.267-.278v-2.531a.27.27 0 00-.267-.267h-9.772zm61.862.534h9.252v1.997h-9.252v-1.997zm9.518 2.542c.138 0 .255-.118.255-.278v-2.531c0-.139-.117-.267-.255-.267h-9.784c-.138 0-.255.128-.255.267v2.531c0 .16.117.278.255.278h9.784zm8.953 1.463a3.717 3.717 0 016.345-2.638l.011.011a3.725 3.725 0 01-.011 5.265 3.694 3.694 0 01-2.63 1.089 3.71 3.71 0 01-3.715-3.727zm6.718 3.012a4.218 4.218 0 001.245-3.012 4.224 4.224 0 00-1.235-3.001l-.01-.011a4.236 4.236 0 00-6.005 0 4.263 4.263 0 000 6.024 4.234 4.234 0 006.005 0zm-26.03-11.695l2.843 2.83a.26.26 0 00.181.086h11.795v7.732h-15.574c-.032-.192-.086-.374-.213-.502a.81.81 0 00-.575-.235h-.799v-8.736c0-.278-.106-.534-.298-.726a1.024 1.024 0 00-.734-.31h-6.59c-.287 0-.543.117-.735.31a1.073 1.073 0 00-.308.726v8.736h-.799a.767.767 0 00-.543.224l-.021.011a.825.825 0 00-.213.502h-24.57c-.022-.182-.086-.374-.203-.502a.849.849 0 00-.575-.235h-.798v-8.736c0-.278-.128-.534-.309-.726a1.007 1.007 0 00-.734-.31h-6.59a1 1 0 00-.724.31 1.027 1.027 0 00-.309.726v8.736h-.798a.849.849 0 00-.575.235c-.128.128-.181.31-.202.502H56.367v-7.508h13.69a.254.254 0 00.192-.075l3.354-3.407 3.087-.277h7.282l1.66 2.894a.268.268 0 00.235.128h23.612a.267.267 0 00.234-.128l1.661-2.894h4.375l6.973.619zm29.149 8.854a6.855 6.855 0 01-2.012 4.87 6.787 6.787 0 01-4.844 2.018H56.367v-3.193h17.385c.032.406.191.79.468 1.068.309.31.745.502 1.214.502h8.453c.468 0 .894-.192 1.203-.502.276-.278.436-.662.478-1.068h24.571c.043.406.202.79.479 1.068.309.31.735.502 1.214.502h8.442c.468 0 .884-.182 1.192-.481l.032-.021c.266-.278.426-.662.469-1.068h14.467v1.677c0 .139.117.256.266.256h6.803a.26.26 0 00.256-.256v-.502c.617.235 1.288.395 1.99.395a5.392 5.392 0 003.833-1.591 5.39 5.39 0 001.597-3.845 5.455 5.455 0 00-1.597-3.856 5.382 5.382 0 00-3.833-1.58c-.702 0-1.373.149-1.99.395v-.993c0-.15-.117-.278-.256-.278h-5.429v-1.025l7.729.673a6.862 6.862 0 014.333 2.264 6.89 6.89 0 011.735 4.571zm-111.302 0a6.85 6.85 0 011.745-4.571 6.836 6.836 0 014.323-2.264l.638-.054v.705c-1.554.064-2.98.684-4.013 1.73a6.012 6.012 0 00-1.767 4.283 6.07 6.07 0 001.767 4.293c.468.47 1.022.823 1.629 1.122.032.106.085.203.202.203.032 0 .032-.043.053-.054.66.289 1.374.47 2.13.502v.983a6.889 6.889 0 01-4.695-2.008 6.88 6.88 0 01-2.012-4.87zm3.066 3.738a5.54 5.54 0 01-1.619-3.909c0-1.527.629-2.916 1.619-3.92.34-.331.777-.555 1.192-.801v9.431c-.415-.235-.852-.459-1.192-.801zm3.907 1.623a5.33 5.33 0 01-2.183-.459v-10.146a5.337 5.337 0 012.183-.47h8.293v12.602h-8.027v-1.26a.27.27 0 00-.266-.267zm26.178-2.2H56.367v-.833H73.72v.833zm63.821-9.644h-11.678l-2.31-2.296 13.988 1.228v1.068zm5.685 1.495c-.436.224-.777.534-1.117.833-.054.054-.139.086-.192.128-.011.011-.011.022-.021.032-.416.428-.767.898-1.001 1.41-.032.064-.053.139-.075.203-.042.096-.074.192-.106.288-.213.588-.362 1.197-.362 1.827-.011.032-.021.053-.021.096 0 .043.021.075.021.107 0 .608.149 1.217.362 1.805.032.096.064.203.096.288.032.075.053.149.085.214.234.512.575.982.99 1.399.011.01.011.021.021.021l.011.011c.053.053.128.074.181.128.341.31.692.609 1.128.844v.459h-6.259v-1.41h.841a.27.27 0 00.266-.267v-9.366h5.152v.95zm-.936 8.288l-.011-.011c-.405-.406-.703-.897-.948-1.42a5.05 5.05 0 01-.457-2.04c0-.705.17-1.399.457-2.04.245-.534.554-1.025.959-1.431a4.89 4.89 0 013.459-1.442c1.352 0 2.577.555 3.46 1.442a4.907 4.907 0 011.438 3.471 4.926 4.926 0 01-1.438 3.471 4.868 4.868 0 01-3.46 1.431 4.885 4.885 0 01-3.459-1.431zm-4.749-.972v.833h-15.542v-.833h15.542zm-17.693-1.271h-7.59v-8.736a.506.506 0 01.5-.502h6.59a.508.508 0 01.5.502v8.736zm-7.857.534h9.188a.27.27 0 01.202.086c.053.042.075.117.075.192v1.677c0 .32-.128.619-.341.843h-.011a1.172 1.172 0 01-.83.342h-8.442c-.33 0-.628-.128-.841-.342a1.235 1.235 0 01-.352-.843v-1.677c0-.075.032-.15.086-.192l.01-.022a.37.37 0 01.181-.064h1.075zm-1.884 1.57H85.6v-.833h24.507v.833zm-26.657-2.104h-7.59v-8.736c0-.128.063-.256.149-.353a.53.53 0 01.35-.149h6.59c.139 0 .267.064.363.149a.546.546 0 01.138.353v8.736zm-7.857.534h9.198c.075 0 .15.032.192.086a.249.249 0 01.085.192v1.677c0 .32-.138.619-.351.843a1.172 1.172 0 01-.83.342h-8.453c-.32 0-.618-.128-.83-.342a1.235 1.235 0 01-.352-.843v-1.677c0-.075.032-.15.075-.192a.27.27 0 01.202-.086h1.064zm-19.492-7.828h-8.293v-.695l24.975-2.189-2.832 2.884h-13.85zm54.656-3.236l-1.438 2.488H86.016l-1.427-2.488h26.168zm-34.067-.524h-.064l-30.032 2.628v.01h-.01c-1.853.203-3.492 1.111-4.674 2.435a7.392 7.392 0 00-1.874 4.924c0 2.05.83 3.909 2.172 5.254l.01.011a7.396 7.396 0 005.217 2.157h97.58a7.35 7.35 0 005.227-2.178 7.413 7.413 0 002.161-5.244 7.39 7.39 0 00-1.874-4.924 7.367 7.367 0 00-4.673-2.435v-.01l-30.043-2.628H76.69zm83.729-17.889h-1.447c.074-.139.127-.309.127-.523-.021-.16 0-.395.011-.555 0-.331-.043-.652-.16-.919h1.469v1.997zm-3.183-1.997h.799c.479 0 .543.47.543.919l-.022.555c0 .427-.404.513-.83.523h-.49v-1.997zm.799-.545h-1.065a.274.274 0 00-.266.278v2.531c0 .15.117.267.266.267.181-.01.447.011.65.022.063 0 .117-.022.181-.022h2.885a.264.264 0 00.266-.267v-2.531a.274.274 0 00-.266-.278h-2.651zm-69.752-1.879v.085c0 3.375 0 3.845-3.928 5.276l-.021.011h-.011c-1.32.48-2.896.982-4.482 1.431-1.533.448-3.087.844-4.44 1.111l-1 .181-.99.139-.937.085-.84.033c-.82.01-1.342-.107-1.62-.417-.297-.299-.393-.865-.393-1.784v-.021l.15-7.818c.042-1.207.19-1.805.648-2.072.49-.299 1.385-.299 2.854-.299l13.456.011c1.405 0 1.586.406 1.586 1.837.043.673-.021 1.517-.032 2.211zm-1.554-4.582H73.273c-1.555 0-2.502 0-3.12.363-.65.385-.873 1.1-.905 2.521l-.16 7.828v.021c0 1.047.14 1.731.533 2.147.405.438 1.043.588 2.012.588l.873-.033.969-.085 1.011-.149 1.022-.182a60.016 60.016 0 004.482-1.121 77.084 77.084 0 004.535-1.453l.01-.011h.022c4.258-1.548 4.258-2.061 4.258-5.767v-.085c.011-.726 0-1.485.032-2.211 0-1.848-.244-2.371-2.118-2.371zm18.119 11.919a.897.897 0 01-.277.662.907.907 0 01-.649.278h-3.407a.9.9 0 01-.66-.289.912.912 0 01-.277-.651v-4.785c0-.256.107-.491.288-.662a.89.89 0 01.649-.278h3.407a.933.933 0 01.926.94v4.785zm.107-5.831a1.45 1.45 0 00-1.033-.428h-3.407c-.404 0-.766.161-1.032.428-.267.267-.426.64-.426 1.046v4.785c0 .395.16.758.415 1.025l.01.011c.267.267.629.438 1.033.438h3.407c.394 0 .756-.171 1.022-.427l.011-.011c.266-.267.436-.641.436-1.036v-4.785c0-.406-.17-.779-.436-1.046zm-34.397-9.377c.32-2.115.734-4.262 1.139-6.28.48-2.296.98-4.39 1.405-6.034.394-1.624.969-2.681 1.8-3.301.84-.63 1.98-.854 3.47-.854h9.911v16.372c0 .705-.127 1.101-.372 1.303-.235.203-.618.235-1.065.235H72.112c-.873 0-1.341-.021-1.533-.192-.16-.149-.138-.534-.021-1.249zm1.554 1.975h14.734c.554 0 1.033-.053 1.405-.363.362-.299.575-.822.575-1.709v-16.639a.276.276 0 00-.277-.278H78.372c-1.608 0-2.832.267-3.78.972-.947.705-1.575 1.848-2 3.599a115.2 115.2 0 00-1.406 6.056c-.415 1.997-.82 4.154-1.16 6.301-.139.908-.139 1.41.191 1.72.33.309.895.341 1.895.341zm29.915-17.76c.383.469.522 1.174.585 2.082l1.001 11.716v.054c.181 2.178.213 2.637-.905 3.94-1.767 2.04-4.918 4.7-7.367 6.024-.755.416-1.437.694-1.98.78-.468.074-.809 0-.969-.267-.085-.129-.138-.342-.138-.609l.01-22.065c0-1.121.054-1.73.32-2.019.256-.288.788-.32 1.714-.32h5.696c1.043 0 1.671.235 2.033.684zm-9.837-.727c-.383.428-.457 1.132-.457 2.382l-.011 22.065c0 .363.074.662.213.886l.01.011c.288.47.82.609 1.501.502.597-.086 1.342-.395 2.15-.833 2.492-1.346 5.707-4.059 7.517-6.141 1.277-1.474 1.224-1.976 1.032-4.336l-1-11.77c-.075-1.003-.245-1.804-.703-2.371-.468-.587-1.224-.897-2.448-.886h-5.696c-1.086 0-1.714.064-2.108.491zm35.6 28.804h-1.448c.064-.139.117-.309.117-.534-.01-.149.011-.384.021-.544 0-.331-.042-.652-.159-.919h1.469v1.997zm-2.811.545h3.077a.273.273 0 00.266-.278v-2.531a.264.264 0 00-.266-.267h-3.715a.265.265 0 00-.267.267v2.531c0 .15.118.278.267.278.181-.021.447 0 .638 0z" fill="#F7B726"/></svg>