<svg width="340" height="414" fill="none" xmlns="http://www.w3.org/2000/svg"><path d="M275.819 395.097a12.697 12.697 0 01-9.017 3.734 12.672 12.672 0 01-9.001-3.734 12.677 12.677 0 01-3.734-9.009c0-3.519 1.424-6.698 3.734-9.009a12.735 12.735 0 0118.018 0c2.301 2.311 3.734 5.49 3.734 9.009s-1.433 6.707-3.734 9.009zM47.622 9.282c.389-.994 1.3-1.764 2.716-1.764 1.415 0 2.318.77 2.724 1.764.149.389.232.811.223 1.234 0 .422-.074.844-.223 1.233-.398.986-1.309 1.756-2.724 1.756-1.416 0-2.327-.77-2.716-1.756a3.306 3.306 0 010-2.467zm2.716 4.711c1.647 0 2.707-.902 3.17-2.062a3.8 3.8 0 00.266-1.415 3.74 3.74 0 00-.265-1.416c-.464-1.168-1.524-2.07-3.171-2.07-1.648 0-2.708.902-3.172 2.07a3.749 3.749 0 00-.273 1.416c0 .48.091.968.273 1.415.464 1.16 1.524 2.062 3.172 2.062zM269.45 247.78c-.306.762-1.002 1.358-2.103 1.358-1.093 0-1.788-.596-2.095-1.358a2.5 2.5 0 01-.182-.952c0-.331.058-.654.182-.961.307-.761 1.002-1.349 2.095-1.349 1.101 0 1.797.588 2.103 1.349a2.707 2.707 0 010 1.913zm.456-2.087c-.381-.935-1.226-1.664-2.559-1.664-1.325 0-2.178.729-2.55 1.664a2.945 2.945 0 00-.215 1.135c0 .389.066.778.215 1.134.372.936 1.225 1.664 2.55 1.664 1.333 0 2.178-.728 2.559-1.664a3.11 3.11 0 00.207-1.134c0-.389-.067-.779-.207-1.135zm-4.654-54.159c.307-.762 1.002-1.358 2.095-1.358 1.101 0 1.797.596 2.103 1.358.116.298.174.629.174.952 0 .331-.058.663-.174.961-.306.761-1.002 1.358-2.103 1.358-1.093 0-1.788-.597-2.095-1.358a2.516 2.516 0 01-.182-.961 2.5 2.5 0 01.182-.952zm2.095 3.759c1.333 0 2.178-.729 2.559-1.664.14-.365.215-.754.215-1.143 0-.381-.075-.77-.215-1.134-.381-.936-1.226-1.664-2.559-1.664-1.325 0-2.178.728-2.55 1.664a2.997 2.997 0 00-.215 1.134c0 .389.066.778.215 1.143.372.935 1.225 1.664 2.55 1.664zm-2.095-58.092c.307-.762 1.002-1.358 2.095-1.358 1.101 0 1.797.596 2.103 1.358.116.298.174.629.174.952 0 .331-.058.654-.174.952-.306.77-1.002 1.358-2.103 1.358-1.093 0-1.788-.588-2.095-1.358a2.47 2.47 0 01-.182-.952 2.5 2.5 0 01.182-.952zm2.095 3.75c1.333 0 2.178-.728 2.559-1.664a3.117 3.117 0 000-2.269c-.381-.935-1.226-1.664-2.559-1.664-1.325 0-2.178.729-2.55 1.664a2.973 2.973 0 00-.215 1.135c0 .389.066.778.215 1.134.372.936 1.225 1.664 2.55 1.664zm-191.458.679c-.307.762-1.002 1.358-2.095 1.358-1.101 0-1.797-.596-2.103-1.358a2.664 2.664 0 01-.182-.952c0-.331.066-.662.182-.96.306-.754 1.002-1.358 2.103-1.358 1.093 0 1.788.604 2.095 1.358.124.298.182.629.182.96a2.5 2.5 0 01-.182.952zm-2.095-3.759c-1.325 0-2.178.737-2.559 1.665-.14.364-.215.753-.215 1.142 0 .381.075.779.215 1.135.381.935 1.234 1.664 2.559 1.664 1.325 0 2.177-.729 2.55-1.664.14-.356.215-.754.215-1.135a3.17 3.17 0 00-.215-1.142c-.373-.928-1.225-1.665-2.55-1.665zm2.095 58.093c-.307.762-1.002 1.358-2.095 1.358-1.101 0-1.797-.596-2.103-1.358a2.631 2.631 0 01-.182-.952c0-.323.066-.655.182-.953.306-.761 1.002-1.358 2.103-1.358 1.093 0 1.788.597 2.095 1.358a2.5 2.5 0 01.182.953c0 .331-.058.654-.182.952zm-2.095-3.751c-1.325 0-2.178.729-2.559 1.664a3.102 3.102 0 000 2.269c.381.936 1.234 1.664 2.559 1.664 1.325 0 2.177-.728 2.55-1.664a3.1 3.1 0 000-2.269c-.373-.935-1.225-1.664-2.55-1.664zm2.095 58.092c-.307.762-1.002 1.358-2.095 1.358-1.101 0-1.797-.596-2.103-1.358a2.698 2.698 0 01-.182-.952c0-.331.066-.662.182-.96.306-.762 1.002-1.358 2.103-1.358 1.093 0 1.788.596 2.095 1.358.124.298.182.629.182.96 0 .323-.058.646-.182.952zm-2.095-3.759c-1.325 0-2.178.729-2.559 1.665-.14.364-.215.753-.215 1.142 0 .381.075.77.215 1.135.381.927 1.234 1.664 2.559 1.664 1.325 0 2.177-.737 2.55-1.664.14-.365.215-.754.215-1.135a3.17 3.17 0 00-.215-1.142c-.373-.936-1.225-1.665-2.55-1.665zm221.448 115.846c-.19.48-.629.853-1.324.853-.696 0-1.135-.373-1.325-.853l-.008-.009a1.786 1.786 0 01-.108-.596c0-.207.041-.422.116-.604.19-.48.629-.861 1.325-.861.695 0 1.134.381 1.324.861.075.19.108.397.108.604 0 .207-.033.414-.108.605zm.456-1.391c-.265-.654-.853-1.159-1.78-1.159-.928 0-1.516.505-1.781 1.159a2.143 2.143 0 00-.008 1.556l.008.017c.265.654.853 1.159 1.781 1.159.927 0 1.515-.505 1.78-1.159.099-.249.149-.522.149-.787s-.05-.53-.141-.778l-.008-.008zm-249.8.182c.19-.489.63-.861 1.325-.861.696 0 1.135.372 1.325.861l.008.008c.067.182.108.389.108.596 0 .207-.041.423-.116.605-.19.48-.63.853-1.325.853s-1.134-.373-1.324-.853v-.009a1.587 1.587 0 01-.108-.596c0-.215.033-.414.108-.604zm-.455 1.391c.265.654.861 1.159 1.78 1.159.928 0 1.516-.505 1.78-1.159.1-.249.15-.522.15-.787s-.05-.53-.141-.778l-.008-.017c-.266-.645-.853-1.159-1.78-1.159-.92 0-1.516.514-1.78 1.159a2.134 2.134 0 000 1.574v.008zm29.527 26.231c.074-.166.149-.315.223-.48.116-.249.232-.505.331-.754a.776.776 0 01.39-.389.72.72 0 01.372-.05 7.556 7.556 0 01-.497 1.83 7.757 7.757 0 01-.952 1.648c-.43-.331-.207-1.018.133-1.805zm1.324-3.709c-.538.066-.869-.58-1.175-1.367-.067-.174-.125-.339-.19-.496-.092-.265-.191-.53-.29-.771a.713.713 0 010-.554.792.792 0 01.223-.307 7.371 7.371 0 011.432 3.495zm-2.045 6.334c-.157.157-.331.265-.497.405-.132-.182-.273-.38-.48-.472a1.219 1.219 0 00-.919.009c-.257.107-.513.198-.753.29-.174.066-.356.132-.505.19-1.027.397-1.797.861-1.632 1.731-.182.016-.364.066-.563.066-.198 0-.389-.05-.588-.066a1.23 1.23 0 00-.05-.671 1.23 1.23 0 00-.653-.654c-.257-.108-.497-.216-.737-.323-.166-.083-.34-.158-.489-.224-1.01-.439-1.888-.662-2.384.075-.141-.124-.298-.224-.431-.356-.157-.149-.273-.331-.406-.497.182-.133.381-.265.464-.472a1.2 1.2 0 000-.927c-.108-.257-.199-.506-.29-.754l-.19-.497c-.398-1.026-.861-1.805-1.74-1.631-.007-.19-.049-.372-.049-.563 0-.199.042-.389.058-.588.224.042.456.033.67-.049.282-.125.523-.356.655-.655.1-.256.215-.505.323-.736.083-.174.157-.34.224-.497.447-1.002.654-1.88-.075-2.385.116-.141.224-.298.356-.431.149-.149.331-.264.489-.405.14.19.273.381.48.472.29.116.612.124.919 0 .265-.108.505-.199.762-.29.174-.066.347-.133.496-.199 1.027-.389 1.805-.861 1.632-1.73.19-.017.364-.058.554-.058.207 0 .398.041.597.058-.042.232-.042.463.05.67.115.29.347.53.653.654.257.108.497.224.737.332.174.074.34.157.497.223 1.002.439 1.88.654 2.376-.083.141.125.298.224.44.356.148.158.264.332.405.497-.19.133-.381.265-.472.481a1.217 1.217 0 000 .919c.108.256.199.505.29.753.066.174.132.348.19.505.398 1.019.87 1.797 1.739 1.631.017.183.058.365.058.555 0 .199-.05.389-.058.596a1.182 1.182 0 00-.679.042 1.234 1.234 0 00-.646.662c-.107.257-.223.497-.331.737-.075.166-.157.339-.224.488-.438 1.002-.654 1.888.083 2.385-.124.141-.223.298-.356.431zm-4.347 2.053c-.066-.538.58-.869 1.366-1.176.174-.074.34-.132.497-.19.265-.099.53-.199.77-.298a.732.732 0 01.547 0 .66.66 0 01.306.232 7.403 7.403 0 01-1.648.935 7.43 7.43 0 01-1.838.497zm-5.514-1.465c.33-.431 1.018-.207 1.797.14.165.075.322.141.48.216.256.116.513.24.753.331a.73.73 0 01.39.397.727.727 0 01.057.373 7.2 7.2 0 01-1.838-.505 7.062 7.062 0 01-1.64-.952zm-2.873-4.927c.538-.075.869.58 1.175 1.366.067.174.124.331.19.497.092.257.191.53.299.77a.734.734 0 010 .547.843.843 0 01-.232.306 7.284 7.284 0 01-.936-1.648 7.204 7.204 0 01-.496-1.838zm1.324-3.726c-.074.174-.149.331-.223.489a24.71 24.71 0 00-.331.753.72.72 0 01-.762.439c.09-.638.257-1.25.497-1.83a7.483 7.483 0 01.952-1.639c.43.322.207 1.018-.133 1.788zm5.068-4.662c.066.539-.572.861-1.367 1.168a6.15 6.15 0 01-.496.19c-.265.1-.53.199-.77.298a.75.75 0 01-.555 0 .783.783 0 01-.298-.223 6.826 6.826 0 011.648-.944 7.456 7.456 0 011.838-.489zm5.514 1.458c-.331.43-1.018.207-1.797-.141-.165-.066-.323-.141-.48-.215-.257-.116-.513-.241-.753-.332a.714.714 0 01-.39-.389.665.665 0 01-.05-.381 7.428 7.428 0 011.823.505c.596.249 1.15.572 1.647.953zm-4.52-2.112a7.99 7.99 0 00-5.68 2.36 7.99 7.99 0 00-2.36 5.68c0 2.219.902 4.231 2.36 5.688a7.98 7.98 0 005.68 2.352 7.984 7.984 0 005.688-2.352 8.022 8.022 0 002.36-5.688 7.989 7.989 0 00-2.36-5.68 7.996 7.996 0 00-5.689-2.36zm10.515 18.547a14.82 14.82 0 01-10.507 4.356 14.79 14.79 0 01-10.508-4.356 14.804 14.804 0 01-4.355-10.507 14.82 14.82 0 014.355-10.507 14.853 14.853 0 0121.015 0 14.847 14.847 0 014.347 10.507 14.83 14.83 0 01-4.347 10.507zm-10.507-25.85a15.32 15.32 0 00-15.351 15.343c0 4.239 1.713 8.081 4.487 10.855a15.313 15.313 0 0010.864 4.496 15.31 15.31 0 0010.855-4.496 15.307 15.307 0 004.487-10.855 15.32 15.32 0 00-15.342-15.343zm2.64 16.544c-.38.96-1.266 1.714-2.64 1.714-1.383 0-2.27-.754-2.65-1.714a3.26 3.26 0 01-.224-1.201c0-.406.075-.82.224-1.2.38-.961 1.267-1.706 2.65-1.706 1.374 0 2.26.745 2.64 1.706.15.38.225.794.225 1.2 0 .414-.075.828-.224 1.201zm-2.64-4.596c-1.615 0-2.65.886-3.105 2.012a3.76 3.76 0 00-.257 1.383c0 .472.083.944.257 1.383.455 1.134 1.49 2.02 3.105 2.02 1.614 0 2.64-.886 3.096-2.02a3.745 3.745 0 000-2.766c-.455-1.126-1.482-2.012-3.096-2.012zm9.008 12.404a12.695 12.695 0 01-9.017 3.734c-3.51 0-6.698-1.424-9.008-3.734a12.71 12.71 0 01-3.735-9.009c0-3.519 1.433-6.698 3.735-9.009a12.742 12.742 0 0118.025 0 12.72 12.72 0 013.726 9.009c0 3.519-1.424 6.707-3.726 9.009zm-9.017-22.24a13.198 13.198 0 00-9.356 3.875 13.205 13.205 0 00-3.867 9.356c0 3.66 1.474 6.964 3.867 9.357a13.202 13.202 0 009.356 3.875c3.66 0 6.964-1.483 9.365-3.875a13.185 13.185 0 003.875-9.357c0-3.651-1.482-6.955-3.875-9.356a13.217 13.217 0 00-9.365-3.875zm-57.76 13.164a1.935 1.935 0 01-2.732 0l-3.834-3.834c-.646-.646-.704-1.416-.439-2.045a2.2 2.2 0 011.134-1.126c.63-.265 1.383-.207 2.03.431l3.841 3.841a1.933 1.933 0 010 2.725v.008zm.348.348a2.413 2.413 0 00.704-1.714c0-.621-.232-1.242-.704-1.714l-3.834-3.834-.008-.008c-.812-.803-1.78-.87-2.575-.53a2.418 2.418 0 00-.82.563c-.24.232-.43.513-.563.828-.34.795-.265 1.764.547 2.575l3.825 3.834a2.411 2.411 0 001.714.703c.62 0 1.234-.231 1.706-.703h.008zm151.035-30.156h1.971c-.083.141-.191.281-.191.464 0 .662-.008 1.15-.016 1.564-.017 1.102-.025 1.698.149 2.062h-1.913v-4.09zm4.049 0v4.09h-1.217c-.24-.016-.406-.058-.464-.174-.14-.24-.132-.803-.116-1.888.009-.455.017-1.001.017-1.564 0-.125.05-.249.132-.323a.487.487 0 01.332-.141h1.316zm-1.316-.489h-2.973a.249.249 0 00-.248.249v4.579c0 .132.107.248.248.248h4.529a.25.25 0 00.249-.248v-4.579a.25.25 0 00-.249-.249h-1.556zm35.438 4.579h-1.913c.174-.364.174-.96.149-2.062a76.301 76.301 0 01-.016-1.564c0-.183-.099-.323-.182-.464h1.962v4.09zm-4.041-4.09h1.317a.465.465 0 01.455.464c0 .554.017 1.109.017 1.564.016 1.085.025 1.648-.116 1.888-.058.116-.224.158-.464.174h-1.209v-4.09zm1.317-.489h-1.565a.255.255 0 00-.248.249v4.579c0 .132.116.248.248.248.306 0 .513 0 .687.008.083 0 .116-.008.199-.008h3.651a.255.255 0 00.249-.248v-4.579a.255.255 0 00-.249-.249h-2.972zm-32.706 24.642c0 .149-.008.289-.008.397 0 .124-.05.24-.133.323l-.008.017a.492.492 0 01-.323.124h-7.593c-.414 0-.48-.439-.48-.919 0-.158.008-.282.008-.406.009-.141.009-.29.009-.389a.469.469 0 01.463-.464h7.593c.422 0 .48.431.48.911 0 .157 0 .281-.008.406zm-.472-1.814h-7.593a.942.942 0 00-.67.29.925.925 0 00-.282.671c0 .141-.008.256-.008.381-.009.149-.009.306-.009.414 0 .745.125 1.407.969 1.407h7.593a.949.949 0 00.662-.265l.017-.016a.987.987 0 00.281-.671c0-.149 0-.265.009-.381 0-.149.008-.306.008-.422 0-.737-.132-1.408-.977-1.408zm-10.739 1.814c-.008.149-.008.289-.008.397 0 .124-.058.24-.141.323l-.008.017a.47.47 0 01-.315.124h-7.601c-.414 0-.472-.439-.472-.919 0-.158 0-.282.008-.406 0-.141.008-.29.008-.389a.458.458 0 01.456-.464h7.601c.414 0 .48.431.48.911 0 .157-.008.281-.008.406zm-.472-1.814h-7.601a.928.928 0 00-.663.29.9.9 0 00-.289.671v.381a7.786 7.786 0 00-.017.414c0 .745.133 1.407.969 1.407h7.601a.95.95 0 00.662-.265l.009-.016a.956.956 0 00.281-.671c0-.149 0-.265.008-.381.009-.149.009-.306.009-.422 0-.737-.125-1.408-.969-1.408zm11.683-2.707c0 .149-.008.29-.008.397 0 .124-.05.24-.133.323l-.008.017a.492.492 0 01-.323.124h-7.593c-.414 0-.48-.439-.48-.919 0-.158.008-.282.008-.406.009-.149.009-.29.009-.389a.47.47 0 01.14-.331.458.458 0 01.323-.133h7.593c.422 0 .48.431.48.911 0 .157 0 .282-.008.406zm-.472-1.814h-7.593a.91.91 0 00-.67.29.925.925 0 00-.282.671c0 .141-.008.257-.008.373-.009.157-.009.306-.009.422 0 .745.125 1.407.969 1.407h7.593a.949.949 0 00.662-.265l.017-.016a.987.987 0 00.281-.671c0-.149 0-.265.009-.381 0-.157.008-.306.008-.422 0-.737-.132-1.408-.977-1.408zm-10.739 1.814c-.008.149-.008.29-.008.397 0 .124-.058.24-.141.323l-.008.017a.47.47 0 01-.315.124h-7.601c-.414 0-.472-.439-.472-.919 0-.158 0-.282.008-.406 0-.149.008-.29.008-.389a.458.458 0 01.456-.464h7.601c.414 0 .48.431.48.911 0 .157-.008.282-.008.406zm-.472-1.814h-7.601a.897.897 0 00-.663.29.9.9 0 00-.289.671v.373a8.056 8.056 0 00-.017.422c0 .745.133 1.407.969 1.407h7.601a.95.95 0 00.662-.265l.009-.016a.956.956 0 00.281-.671c0-.149 0-.265.008-.381.009-.157.009-.306.009-.422 0-.737-.125-1.408-.969-1.408zm11.683-2.674c0 .141-.008.29-.008.389a.46.46 0 01-.133.331l-.008.009a.454.454 0 01-.323.124h-7.593c-.414 0-.48-.422-.48-.911 0-.157.008-.282.008-.406.009-.149.009-.29.009-.397a.468.468 0 01.463-.456h7.593c.422 0 .48.423.48.911 0 .158 0 .282-.008.406zm-.472-1.813h-7.593a.972.972 0 00-.67.281.953.953 0 00-.282.671c0 .149-.008.265-.008.381-.009.149-.009.306-.009.422 0 .745.125 1.408.969 1.408h7.593a.99.99 0 00.662-.265l.017-.017a.991.991 0 00.281-.679c0-.141 0-.257.009-.372 0-.15.008-.307.008-.423 0-.737-.132-1.407-.977-1.407zm-10.739 1.813c-.008.141-.008.29-.008.389a.466.466 0 01-.141.331l-.008.009a.435.435 0 01-.315.124h-7.601c-.414 0-.472-.422-.472-.911 0-.157 0-.282.008-.406 0-.149.008-.29.008-.397a.458.458 0 01.456-.456h7.601c.414 0 .48.423.48.911 0 .158-.008.282-.008.406zm-.472-1.813h-7.601a.957.957 0 00-.663.281.927.927 0 00-.289.671v.381a7.732 7.732 0 00-.017.422c0 .745.133 1.408.969 1.408h7.601a.992.992 0 00.662-.265l.009-.017a.961.961 0 00.281-.679c0-.141 0-.257.008-.372.009-.15.009-.307.009-.423 0-.737-.125-1.407-.969-1.407zm11.683-2.675c0 .141-.008.29-.008.389 0 .133-.05.249-.133.332l-.008.008a.492.492 0 01-.323.124h-7.593c-.414 0-.48-.43-.48-.911 0-.157.008-.281.008-.405.009-.149.009-.29.009-.398 0-.124.058-.24.14-.323a.434.434 0 01.323-.141h7.593c.422 0 .48.431.48.92 0 .157 0 .281-.008.405zm-.472-1.813h-7.593a.938.938 0 00-.67.281.953.953 0 00-.282.671c0 .149-.008.265-.008.381-.009.149-.009.306-.009.422 0 .737.125 1.408.969 1.408h7.593a.99.99 0 00.662-.265l.017-.017a.991.991 0 00.281-.679c0-.14 0-.256.009-.38 0-.15.008-.307.008-.414 0-.746-.132-1.408-.977-1.408zm-10.739 1.813c-.008.141-.008.29-.008.389a.47.47 0 01-.141.332l-.008.008a.47.47 0 01-.315.124h-7.601c-.414 0-.472-.43-.472-.911 0-.157 0-.281.008-.405 0-.149.008-.29.008-.398 0-.124.05-.24.133-.323a.434.434 0 01.323-.141h7.601c.414 0 .48.431.48.92 0 .157-.008.281-.008.405zm-.472-1.813h-7.601a.924.924 0 00-.663.281.927.927 0 00-.289.671v.381a7.732 7.732 0 00-.017.422c0 .737.133 1.408.969 1.408h7.601a.992.992 0 00.662-.265l.009-.017a.961.961 0 00.281-.679c0-.14 0-.256.008-.38.009-.15.009-.307.009-.414 0-.746-.125-1.408-.969-1.408zm71.705-13.944c-.009.638-.025 1.416-.025 2.261 0 .488-.497.563-1.068.563h-.282c-.008-.008-.008-.025-.016-.025l-.373.008c-.174 0-.348-.025-.497-.074-.041-.017-.074-.025-.107-.042-.149-.082-.265-.198-.265-.43v-4.256c.091-.646.397-.671 1.233-.671h.009c.008 0 .008-.016.008-.016.77-.009 1.143-.017 1.275.273.149.331.133 1.043.108 2.409zm-2.145 8.595a1.736 1.736 0 01-1.234.505h-17.214a1.74 1.74 0 01-1.738-1.73v-14.598c0-.48.198-.919.513-1.234a1.723 1.723 0 011.225-.505h17.214c.481 0 .92.191 1.234.505.315.315.505.754.505 1.234v4.065c-.132 0-.256.009-.455.009-.033 0-.058.033-.1.033-.579.066-.836.281-.927.977v.108c-.025.231-.041.48-.041.844 0 .265.008.654.016 1.118.009.604.025 1.35.025 2.335 0 .753.48.96.985 1.01.017 0 .025.017.042.017.165 0 .306.008.455.008v4.074c0 .472-.19.91-.505 1.225zm1.002-11.758v-4.065c0-.621-.257-1.176-.662-1.582a2.192 2.192 0 00-1.574-.654h-17.214a2.234 2.234 0 00-2.227 2.236v14.598a2.216 2.216 0 002.227 2.219h17.214c.613 0 1.168-.249 1.574-.646.405-.406.662-.961.662-1.573v-4.058h.05c.836 0 1.565-.14 1.565-1.051 0-.952.008-1.664.016-2.261.025-1.424.033-2.177-.157-2.616-.232-.522-.663-.555-1.474-.547zm111.275 34.238l-3.834 3.834a1.913 1.913 0 01-1.358.563c-.496 0-.993-.191-1.366-.563l-.008-.008a1.97 1.97 0 01-.555-1.358c0-.497.191-.994.563-1.367l3.834-3.833.008-.008c.646-.638 1.399-.696 2.029-.431.248.108.48.265.67.464.199.19.356.422.456.67.273.63.215 1.391-.439 2.037zm.331-3.055a2.526 2.526 0 00-.828-.563c-.795-.34-1.755-.273-2.567.53l-3.842 3.842a2.42 2.42 0 000 3.428 2.411 2.411 0 001.714.703c.613 0 1.242-.231 1.706-.703l3.834-3.834c.811-.811.886-1.78.546-2.583a2.533 2.533 0 00-.563-.82zm-3.212 10.673h-3.693l-3.163-3.171 1.482-.895a.237.237 0 00.116-.207v-7.518l3.519-3.511 2.889.009 5.598 4.86.016 3.875-6.764 6.558zm-11.758 3.759c-1.134-.323-2.029-1.209-2.799-2.294l3.445-2.078 3.726 3.246c-1.797 1.184-3.221 1.457-4.372 1.126zm4.794-1.399l-3.709-3.238 3.378-2.028 3.138 3.121-2.807 2.145zm-14.242-1.474v-65.926h15.459v60.627l-15.459 9.315v-4.016zm-17.197.728c.257-1.333.406-2.699.464-4.09.041-.05.124-.058.124-.124v-2.227c0-.067-.083-.083-.124-.125a28.647 28.647 0 00-.613-4.794c.016-.049.083-.066.066-.116l-.571-2.152c-.017-.042-.075-.025-.1-.058a28.667 28.667 0 00-1.879-4.505c0-.049.058-.083.033-.132l-1.11-1.929c-.033-.05-.099-.017-.149-.042a30.865 30.865 0 00-.819-1.2l16.725 10.772a.065.065 0 00.033.008c.042.041.058.116.125.116.041 0 .041-.058.074-.075h4.43v.497h-3.204c-.762 0-1.251.423-1.466.961a1.753 1.753 0 000 1.3c.215.538.704.96 1.466.96h3.204v3.254h-3.204c-.762 0-1.251.423-1.466.961a1.749 1.749 0 000 1.3c.215.538.704.96 1.466.96h3.204v.48h-16.709zm-66.124-3.461v-15.251h14.299l-.231.389c-.025.049.033.083.033.141a28.22 28.22 0 00-1.88 4.496c-.025.033-.083.016-.091.058l-.58 2.152c-.016.05.05.067.067.116a28.44 28.44 0 00-.613 4.794c-.041.042-.116.058-.116.125v2.227c0 .058.075.074.116.116.016.215.016.43.033.637H228.01zm-32.921 0v-58.2h3.088c.041.017.058.083.108.067l.248-.067h28.988v35.439c-.033.041-.099.049-.099.099 0 .066.066.066.099.108v6.855c-.107.025-.207.092-.207.199 0 .116.1.174.207.207v15.293h-32.432zm-26.381-58.44v-26.794h25.884v85.234h-25.884v-58.44zm-32.921 16.866v-16.626h32.433v58.2h-32.433v-41.574zm-39.09 40.937c.042-.042.116-.058.116-.116v-2.227c0-.067-.074-.083-.116-.125a27.74 27.74 0 00-.612-4.794c.016-.049.082-.066.074-.116l-.58-2.152c-.016-.042-.066-.025-.099-.058-.414-1.317-.952-2.575-1.54-3.801h28.061a.251.251 0 00.224-.141l2.26-3.924h10.814v18.091H96.664c.008-.207.025-.422.033-.637zm-67.54 4.107v-.489h3.205c.761 0 1.25-.422 1.465-.96a1.767 1.767 0 000-1.3c-.215-.538-.704-.961-1.465-.961h-3.205v-3.254h3.205c.761 0 1.25-.422 1.465-.96a1.757 1.757 0 000-1.3c-.215-.538-.704-.961-1.465-.961h-3.205v-.728l16.105-9.299-1.085 1.88c-.025.049.033.083.033.132a28.726 28.726 0 00-1.88 4.505c-.024.033-.082.016-.09.058l-.588 2.152c-.008.05.058.067.074.116a28.553 28.553 0 00-.612 4.794c-.042.042-.116.058-.116.125v2.227c0 .066.074.074.116.116.066 1.399.207 2.774.463 4.107h-12.42zm-.488 3.279l-15.459-9.315v-60.627h15.459v69.942zm-9.357-1.069c-1.035.365-2.326.108-4.024-1.175l3.32-3.246 3.412 2.053c-.828 1.06-1.673 2.004-2.708 2.368zm-4.446-1.449l-3.23-2.177 3.122-3.113 3.42 2.061-3.312 3.229zM.699 383.248l.017-3.875 5.589-4.86 2.898-.009 3.519 3.511v7.518c0 .083.04.166.115.207l1.482.903-3.162 3.163H7.464l-6.765-6.558zm28.458 4.96h3.205c.53 0 .86.29 1.01.654.058.149.09.306.09.464a1.3 1.3 0 01-.09.472c-.15.364-.48.645-1.01.645h-3.205v-2.235zm0-6.475h3.205c.53 0 .86.29 1.01.654.058.149.09.306.09.472 0 .157-.032.315-.09.464-.15.364-.48.654-1.01.654h-3.205v-2.244zm4.77-57.703h4.76v5.191h-2.26a.242.242 0 00-.24.248v31.754c0 .141.108.249.24.249h5.06v11.36l-7.56 4.372V324.03zm5.257-3.404h1.549v38.875h-1.549v-38.875zm2.046-17.901h126.99v2.203H43.714a.247.247 0 00-.249.24v54.333H41.23v-56.776zm101.686-27.216l10.59 2.84 16.122 4.314L96.83 302.17l-25.734-6.897a.242.242 0 00-.299.174l-1.614 6.028-1.557-5.788 75.29-20.178zM71.203 241.47l25.56 6.855 73.742 19.757 27.655 7.41 75.357 20.195-1.756 6.55h-27.183L67.626 254.825l3.577-13.355zm-2.02 5.671l-1.557-5.796 75.29-20.17 26.712 7.154-72.798 19.5-25.734-6.889a.243.243 0 00-.299.165l-1.614 6.036zm174.186.944l-72.798 19.508-72.797-19.508 72.797-19.507 72.798 19.507zM71.203 187.136l25.56 6.856 73.742 19.748 27.655 7.419 75.357 20.186-1.789 6.682-1.788 6.674-202.314-54.209 3.577-13.356zm-2.02 5.672l-1.557-5.804 75.29-20.17 16.146 4.322 10.566 2.832-72.798 19.507-25.734-6.897a.249.249 0 00-.299.174l-1.614 6.036zm2.02-60.013l25.56 6.855 73.742 19.757 27.655 7.41 75.357 20.187-1.789 6.682-1.788 6.673-99.302-26.603-25.296-6.782-77.716-20.824 3.577-13.355zm-2.02 5.671l-1.557-5.796 75.29-20.17 16.022 4.289 10.69 2.865-72.798 19.508-25.734-6.897a.235.235 0 00-.299.174l-1.614 6.027zm-.033-52.32h1.854c0 .065-.016.132-.016.198 0 .67.248 1.308.662 1.797a2.813 2.813 0 002.145 1.001c.165 0 .323-.016.48-.04a2.813 2.813 0 001.664-.961 2.83 2.83 0 00.654-1.797c0-.066-.008-.133-.016-.199h23.3l173.64 46.525-1.789 6.682-1.788 6.674-25.561-6.847-73.741-19.765-25.296-6.773-77.716-20.824 1.524-5.672zm6.955.198c0 .555-.207 1.076-.547 1.482a2.267 2.267 0 01-1.763.82 2.315 2.315 0 01-1.772-.82 2.31 2.31 0 01-.538-1.482c0-.066 0-.133.008-.199h4.604c0 .066.008.133.008.199zM54.262 83.28H288.09l-11.327 2.368H66.227L54.262 83.28zm-18.77-10.524a.267.267 0 00-.116.207v3.122H32.37V62.19h5.39v8.984l-2.268 1.581zm1.722 13.712H34.87l-2.501-4.322v-5.564h3.163l1.68 1.399v8.487zM32.37.488h276.403v61.215h-3.006V3.734a.24.24 0 00-.24-.24H35.624a.242.242 0 00-.248.24v57.969H32.37V.489zm273.902 85.98h-2.343v-8.487l1.681-1.4h3.163v5.565l-2.501 4.322zm-2.889-15.293V62.19h5.39v13.894h-3.006v-3.122a.265.265 0 00-.116-.207l-2.268-1.581zM35.864 36.325h1.896v25.378h-1.896V36.324zm1.896-3.992h-1.888V3.983h1.888v28.35zm125.997.249v32.996h-3.006V3.982h3.006v28.6zm38.676 0v32.996h-2.997V3.982h2.997v28.6zm97.455 33.244v-3.635h3.006v12.42h-3.006v-8.785zm-.488-3.875v3.627h-91.444v-3.503a.255.255 0 00-.249-.248h-4.786V36.324H299.4v25.627zM164.246 36.324h34.693v29.254h-34.693V36.324zm3.941-1.846c0 .372-.158.704-.398.952a1.33 1.33 0 01-.952.398h-2.591V32.83l.836-.025c.298-.008.571-.016.877-.016 1.334 0 2.228.207 2.228 1.689zm4.637 1.35h-4.761c.024-.017.049-.025.066-.05.339-.331.546-.795.546-1.3 0-.845-.24-1.333-.621-1.648h4.77v2.998zm26.115 0H173.32V32.83h25.619v2.998zm-43.214 29.998v-3.502h4.538V74.61h-4.538v-8.785zm4.538-4h-4.786a.248.248 0 00-.24.25v3.502H41.743V36.324h118.52v25.503zM40.203 74.612h-1.954v-12.42h3.005v12.42h-1.051zm1.54-8.545h113.486v8.545H41.743v-8.545zm119.008 8.545v-8.545h41.682v8.545h-41.682zm42.17 0V62.324h4.538V74.61h-4.538zm5.035-8.545H299.4v8.545h-91.444v-8.545zm95.427-29.742h1.896v25.379h-1.896v-25.38zm1.896-3.99h-1.896V3.982h1.896v28.35zm-42.021.496h36.382a.249.249 0 00.248-.248v-28.6h3.006v28.6c0 .132.108.248.24.248h2.145v2.998h-2.145a.242.242 0 00-.24.248v25.627h-3.006V36.076a.243.243 0 00-.248-.248h-96.719V32.83h56.843a.25.25 0 00.248-.248v-28.6h3.006v28.6c0 .132.107.248.24.248zm36.142-.497h-35.894V3.983H299.4v28.35zm-39.877 0H202.93V3.983h56.593v28.35zm-60.584-28.35v28.35h-32.102c-.008 0-.008.017-.016.017-.274-.025-.547-.058-.862-.058-.248 0-.563.017-.894.025-.248.008-.53.008-.819.016V3.983h34.693zm-38.676 28.35H93.269V3.983h66.994v28.35zM41.254 7.278v25.304c0 .132.116.248.249.248h48.032c.133 0 .24-.116.24-.248v-28.6h3.006v28.6a.25.25 0 00.248.248h67.234v2.998H41.503a.25.25 0 00-.249.248v25.627H38.25V36.076a.242.242 0 00-.24-.248h-2.145V32.83h2.145c.132 0 .24-.116.24-.248v-28.6h3.005v3.296zm15.824 2.915l-6.21-6.21h6.21v6.21zM41.742 7.527c1.283.082 2.103.82 2.476 1.755.157.389.231.811.231 1.225 0 .43-.074.853-.231 1.234-.373.927-1.193 1.673-2.476 1.755v-5.97zm47.544-3.544v28.35H41.743v-14.25h15.583a.247.247 0 00.248-.24V3.983h31.713zm-39.115 0l6.906 6.905v6.707H41.742V13.96c1.507-.091 2.492-.936 2.931-2.029a3.66 3.66 0 00.265-1.424c0-.48-.083-.96-.265-1.407-.439-1.102-1.424-1.946-2.931-2.037v-3.08h8.429zM38.323 75.1H302.82l-2.062 7.683H40.385L38.323 75.1zm231.335 11.244c0 .555-.198 1.076-.538 1.482a2.315 2.315 0 01-4.082-1.482c0-.066.008-.133.008-.199h4.612v.199zm3.859 5.473l-75.29 20.178-15.186-4.073-11.526-3.089 69.751-18.688h23.3c-.008.066-.017.133-.017.199 0 .67.249 1.308.655 1.797a2.86 2.86 0 001.664.96c.157.025.323.041.48.041.166 0 .331-.016.48-.04a2.814 2.814 0 001.665-.961 2.792 2.792 0 00.662-1.797c0-.066-.017-.133-.017-.199h1.863l1.516 5.672zm-171.752-5.672h137.613l-68.807 18.431-68.806-18.43zm141.604 53.265l-72.798 19.508-72.797-19.508 72.797-19.499 72.798 19.499zm30.148 6.74l-75.29 20.179-3.213-.861-23.499-6.302 72.798-19.499 25.734 6.897a.262.262 0 00.307-.174l1.614-6.027 1.549 5.787zm-30.148 47.602l-72.798 19.499-72.797-19.499 72.797-19.508 72.798 19.508zm30.148 6.74l-75.29 20.17-5.921-1.581-20.791-5.573L244.313 194l25.734 6.898a.256.256 0 00.307-.174l1.614-6.028 1.549 5.796zm0 54.333l-75.29 20.179-26.712-7.163 72.798-19.499 25.734 6.897a.262.262 0 00.307-.174l1.614-6.027 1.549 5.787zm30.843 65.553v39.123h-2.236v-54.333a.247.247 0 00-.248-.24H195.089v-2.203H304.36v17.653zm2.045 39.123h-1.557v-38.875h1.557v38.875zm-62.821 12.172l.323.165c.191.108.381.207.555.307.505.289.853.571.663.894l-.092.174c-.331.571-.48.836-.654.836-.207 0-.554-.207-1.217-.604l-.472-.274c.273-.513.588-1.002.894-1.498zm-15.574-6.128h16.477l2.409.986-.612.612c-.042.042 0 .1 0 .166a28.035 28.035 0 00-2.94 3.817c-.058.025-.124-.008-.149.042l-.604 1.051H228.01v-6.674zm-20.419-38.212h24.849v11.17l-4.43-1.184v-7.8a.242.242 0 00-.24-.248h-27.407l7.228-1.938zm-6.723-13.521l-5.779 1.548v-9.944h5.779v8.396zm-5.779 2.053l5.779-1.548v9.953h-5.779v-8.405zm106.538 35.215H273.74l.315-1.167a.252.252 0 00-.174-.307l-38.328-10.267V319.84l38.328-10.267a.246.246 0 00.174-.298l-1.035-3.859h28.607v45.664zm-10.979 10.698c0-.894.373-1.714.96-2.302a3.25 3.25 0 014.612 0c.597.588.969 1.408.969 2.302v3.279h-6.541v-3.279zm-17.413-10.698h-37.682v-11.236l37.964 10.176-.282 1.06zm-37.682.489h66.074v2.335h-66.074v-2.335zm-3.113 1.755l-4.43-1.184v-14.316l4.43 1.192v14.308zm0-32.648v3.594h-13.406l13.406-3.594zm-28.906-7.079l28.906-7.742v14.308l-15.302 4.107h-13.604v-10.673zm44.836 52.801c.158.141.307.282.456.431l.008.016c.414.406.671.762.406 1.035l-.133.133c-.463.464-.679.687-.853.646-.19-.05-.48-.348-1.018-.903l-.364-.372c.198-.207.381-.431.588-.646.207-.199.438-.389.645-.588l.265.248zm5.581-5.001c-.05-.008-.091-.066-.132-.041l-1.93 1.118c-.058.033-.025.099-.041.149a27.933 27.933 0 00-3.825 2.947c-.058 0-.116-.049-.166 0l-.58.58-2.633-1.068a.246.246 0 00-.107-.025H228.01v-12.412l4.43 1.184v.323c0 .133.116.24.248.24h1.863l21.876 5.871a28.87 28.87 0 00-2.476 1.134zm.149.903c.108.182.224.356.323.538l.008.008c.29.505.447.919.124 1.11l-.165.091c-.571.331-.836.488-.985.405-.174-.099-.381-.463-.754-1.134l-.257-.455c.489-.307.986-.613 1.499-.895l.207.332zm6.591-2.476c.058.199.124.397.174.596.149.571.199 1.019-.157 1.11l-.191.058c-.637.173-.936.248-1.06.132-.141-.141-.24-.538-.43-1.292l-.133-.53a35.61 35.61 0 011.681-.43l.116.356zm7.353-1.524c-.042-.041-.058-.124-.125-.124h-2.227c-.066 0-.074.083-.124.124-1.64.075-3.238.265-4.794.613-.042-.025-.066-.083-.116-.066l-2.153.571c-.041.017-.025.066-.058.1-.414.132-.811.298-1.225.447l-20.783-5.573h35.902l-1.126 4.231a26.75 26.75 0 00-3.171-.323zm-.348.837c.008.198.016.405.016.621 0 .588-.066 1.035-.447 1.035h-.19c-.663 0-.969 0-1.052-.149-.107-.174-.099-.588-.091-1.35v-.522c.298-.008.58-.041.87-.041.298 0 .587.033.877.041l.017.365zm5.2.836l.14-.505c.572.132 1.143.273 1.69.43l-.083.39c-.05.198-.1.405-.149.604-.149.563-.331.977-.696.878l-.182-.05h-.017c-.629-.166-.919-.248-.968-.406-.058-.198.058-.596.265-1.341zm8.834 2.501l-1.929-1.118c-.049-.025-.083.033-.141.041a27.497 27.497 0 00-4.496-1.879c-.033-.034-.016-.083-.058-.1l-2.152-.571c-.05-.017-.067.041-.116.066a29.461 29.461 0 00-1.135-.223l1.151-4.298h6.119l14.134 3.793c-.695.165-1.349.447-1.846.943a3.752 3.752 0 00-1.102 2.65v3.204l-8.064-2.161c-.108-.066-.224-.132-.323-.198-.025-.05.008-.116-.042-.149zm-2.003-.506a27.54 27.54 0 011.498.903l-.165.323c-.108.19-.207.381-.307.546-.289.505-.571.862-.902.671l-.166-.091c-.571-.34-.836-.489-.836-.654-.008-.207.207-.563.596-1.226l.282-.472zm3.51 1.673l5.3 1.416h-3.511a29.083 29.083 0 00-1.789-1.416zm3.503 3.751l-.24.265c-.149.149-.282.298-.439.455l-.008.009c-.406.405-.77.67-1.035.405l-.133-.141c-.472-.463-.687-.678-.646-.844.05-.199.348-.48.903-1.019l.364-.372c.215.207.439.389.654.588.199.215.381.439.58.654zm10.938-2.335v-3.279a3.752 3.752 0 00-1.102-2.65c-.488-.48-1.117-.77-1.805-.935-.024-.017-.008-.066-.041-.083l-13.869-3.718h20.766v10.665h-3.949zm6.682 0h-2.236v-5.067h2.236v5.067zm-34.42-56.023l-13.513-3.618h14.481l-.968 3.618zm-15.409-3.618l15.516 4.157a.256.256 0 00.307-.174l1.068-3.983h1.093l1.002 3.743-37.964 10.176v-13.919h18.978zm-19.467 48.488h-2.128v-48.488h2.128v48.488zm-2.865-48.488l-28.665 7.684v-7.684h28.665zm-29.162 0v19.102c0 .141.116.248.249.248h29.154v2.079h-37.351v-2.079h6.027c.133 0 .24-.107.24-.248v-19.102h1.681zm-131.834-9.605l23.996 6.426H69.48l1.722-6.426zm71.465 33.46l-7.229-1.938h32.781v1.938h-25.552zm-7.121 0a.243.243 0 00-.248.248v1.863l-4.438 1.184v-5.233h2.691l7.228 1.938h-5.233zm-9.083 31.116h8.835v8.992h-8.835v-8.992zm-33.435 12.784l-.34.216c-.173.107-.355.215-.53.323l-.007.008c-.505.29-.92.439-1.11.124l-.1-.174c-.322-.563-.48-.828-.397-.977.1-.182.464-.381 1.135-.762l.447-.248c.314.488.62.977.902 1.49zm-4.19-5.779l-.248.265c-.14.149-.273.298-.422.455l-.017.009c-.414.405-.77.67-1.035.405l-.132-.141c-.472-.463-.687-.678-.646-.844.05-.199.348-.48.894-1.019l.373-.372c.215.207.439.389.646.588.207.215.389.439.588.654zm-43.387 3.718l-.016.016c-.017.008-.025.008-.042.017l.058-.033zm.232.563l.323.165c.19.108.381.207.547.307.513.289.86.571.67.894l-.09.174c-.332.571-.481.836-.655.836-.199 0-.555-.207-1.217-.604l-.472-.274c.273-.513.588-1.002.894-1.498zm-1.722-6.128h6.177c0 .009-.008.017-.017.025-.058 0-.116-.049-.165 0l-1.574 1.573c-.05.042 0 .1 0 .166a28.006 28.006 0 00-2.335 2.89l-2.086 1.209v-5.863zm23.126-56.27a.252.252 0 00.174.298l60.494 16.212v7.617l-60.494 16.204a.258.258 0 00-.174.307l.315 1.167H43.962v-45.664h24.161l-1.035 3.859zm39.959-3.859l20.709 5.548v14.308l-60.13-16.113 1.002-3.743h38.419zm20.709 5.043l-18.813-5.043h18.813v5.043zm3.105 1.341l28.913 7.742v4.728h-28.913V311.8zm4.438 34.403l-4.438 1.184v-14.316l4.438-1.184v14.316zm-4.438 2.559v-.87l4.438-1.184v2.054h-4.438zm-3.105 2.807v2.335H43.962v-2.335h83.794zm0-.489h-8.777l8.777-2.351v2.351zm-60.13-1.06l60.13-16.112v14.316l-10.665 2.856H67.908l-.282-1.06zm-20.402 8.496c.903 0 1.714.364 2.31.96.588.588.96 1.408.96 2.302v3.279h-6.532v-3.279c0-.894.364-1.714.96-2.302a3.228 3.228 0 012.302-.96zm3.246 7.882c.157.141.298.282.455.431l.009.016c.414.406.67.762.405 1.035l-.132.133c-.464.464-.679.687-.845.646-.198-.05-.488-.348-1.026-.903l-.365-.372c.2-.207.381-.431.588-.646.207-.199.44-.389.646-.588l.265.248zm5.73-4.098c.107.182.223.356.323.538l.008.008c.29.505.447.919.124 1.11l-.165.091c-.572.331-.837.488-.986.405-.174-.099-.38-.463-.753-1.134l-.257-.455c.489-.307.985-.613 1.499-.895l.207.332zm6.682-3.387c-.05-.025-.066-.083-.124-.066l-2.153.571c-.042.017-.025.066-.058.1a27.515 27.515 0 00-4.496 1.879c-.05-.008-.083-.066-.133-.041l-1.929 1.118c-.058.033-.025.099-.041.149a27.047 27.047 0 00-2.965 2.161v-3.006a3.751 3.751 0 00-1.1-2.65c-.498-.496-1.152-.778-1.847-.943l14.142-3.793h2.823v4.149a29.64 29.64 0 00-2.12.372zm-.1.911c.067.199.125.397.183.596.149.571.198 1.019-.166 1.11l-.182.058c-.638.173-.936.248-1.052.132-.149-.141-.248-.538-.439-1.292l-.14-.53a36.136 36.136 0 011.697-.43l.1.356zm7.014-.687c.008.198.016.405.016.621 0 .588-.074 1.035-.447 1.035h-.19c-.663 0-.97 0-1.052-.149-.108-.174-.108-.588-.091-1.35v-.522c.298-.008.58-.041.878-.041.29 0 .58.033.869.041l.017.365zm5.2.836l.14-.505c.572.132 1.143.273 1.69.43l-.083.39c-.05.198-.092.405-.15.604-.149.563-.33.977-.695.878l-.182-.05h-.017c-.63-.166-.927-.248-.969-.406-.058-.198.058-.596.265-1.341zm6.83 1.995c.514.282 1.002.588 1.5.903l-.175.323c-.1.19-.198.381-.298.546-.29.505-.58.862-.902.671l-.166-.091c-.571-.34-.836-.489-.836-.654-.009-.207.207-.563.596-1.226l.281-.472zm19.218-1.581h10.996v4.364H99.852v-4.364h1.192zm11.245-.489H99.604c-.017 0-.009.025-.034.025-.008 0-.016-.025-.033-.016l-14.125 3.784a28.002 28.002 0 00-1.549-1.068c-.016-.05.017-.116-.041-.149l-1.921-1.118c-.05-.025-.091.033-.14.041a27.52 27.52 0 00-4.497-1.879c-.025-.034-.016-.083-.058-.1l-2.153-.571c-.058-.017-.074.041-.124.066-1.548-.348-3.154-.538-4.786-.613-.041-.041-.058-.124-.124-.124h-2.227c-.066 0-.075.083-.124.124-.729.034-1.458.083-2.178.166v-4.074h65.13a.24.24 0 00.241-.24v-4.902h4.438v10.648h-23.01zm50.151-39.644l5.78 1.548v2.468h-5.78v-4.016zm5.78-14.838v15.881l-5.78-1.548v-14.333h5.78zm-6.268 0v19.102c0 .141.108.248.24.248h6.028v2.079h-37.359v-2.079h29.162c.132 0 .24-.107.24-.248v-19.102h1.689zm-2.178 0v13.621l-28.913-7.75v-5.871h28.913zm-29.402 0v48.488h-2.12v-48.488h2.12zm-88.637 55.567h-5.06v-31.265h2.013v30.023a.25.25 0 00.248.249h4.778a.25.25 0 00.248-.249v-5.349H60.29l-13.869 3.718c-.033.017-.025.058-.041.083-.688.165-1.325.455-1.814.935a3.751 3.751 0 00-1.1 2.65v9.911l-1.491.861v-11.327a.24.24 0 00-.24-.24zm.985 17.189l.38.083c.208.05.407.1.605.141.572.157.977.339.878.704l-.041.182-.009.008c-.165.638-.24.928-.405.977-.19.058-.597-.058-1.334-.265l-.513-.149c.133-.563.273-1.134.439-1.681zm-1.176 7.916c0-.29.042-.579.042-.869l.364-.017c.207-.008.406-.016.62-.016.589 0 1.036.066 1.036.447v.19c0 .654.008.969-.14 1.052-.175.107-.589.099-1.359.091h-.521c0-.298-.042-.58-.042-.878zm.737 6.227l.356-.108c.207-.066.406-.124.605-.174.563-.149 1.01-.199 1.11.157l.049.191c.165.637.248.927.132 1.051-.14.15-.538.249-1.283.439l-.53.133a28.157 28.157 0 01-.439-1.689zm2.509 6.69l.331-.207c.174-.108.356-.224.53-.331h.017c.496-.29.919-.447 1.1-.125l.1.166c.323.571.48.836.398.985-.1.174-.456.381-1.135.754l-.447.257a23.22 23.22 0 01-.894-1.499zm4.77 6.433c-.208-.207-.39-.43-.589-.654l.249-.256c.14-.158.273-.307.422-.456l.017-.016c.414-.406.77-.671 1.035-.398l.132.133c.472.463.687.679.646.844-.05.199-.348.489-.894 1.027l-.373.364c-.215-.198-.439-.389-.646-.588zm4.926 3.876l.174-.323c.1-.191.198-.381.298-.555.298-.505.58-.853.902-.663l.166.092c.571.331.836.48.836.654.008.198-.199.554-.596 1.217l-.282.472c-.513-.273-1.001-.588-1.498-.894zm6.5 2.964l.082-.381.15-.613c.157-.563.33-.977.695-.878l.19.05h.009c.629.174.927.249.968.414.058.191-.057.588-.264 1.333l-.141.505a26.572 26.572 0 01-1.69-.43zm7.924 1.175c-.298 0-.588-.041-.878-.049l-.017-.356c-.008-.207-.008-.414-.008-.629 0-.58.066-1.027.439-1.035h.19c.663 0 .97 0 1.052.149.108.173.108.587.091 1.357v.514c-.29.008-.58.049-.87.049zm6.218-.745l-.1-.347a23.582 23.582 0 01-.182-.605c-.149-.563-.198-1.01.166-1.109l.182-.05c.638-.174.936-.257 1.06-.133.14.133.24.539.43 1.284l.141.53c-.555.165-1.126.306-1.697.43zm6.69-2.5l-.199-.331c-.115-.183-.231-.356-.33-.53l-.01-.017c-.289-.505-.446-.919-.123-1.109l.174-.092c.563-.331.828-.48.977-.397.182.091.38.455.753 1.126l.257.456c-.489.306-.977.621-1.499.894zm6.434-4.77c-.207.207-.44.39-.646.588l-.265-.248a11.382 11.382 0 01-.456-.431l-.016-.008c-.406-.414-.662-.77-.397-1.035l.132-.141c.464-.463.687-.679.853-.637.19.041.48.339 1.018.894l.365.373c-.2.215-.381.438-.588.645zm3.875-4.926l-.315-.174c-.199-.108-.39-.207-.563-.306-.505-.29-.853-.572-.662-.895l.09-.165c.332-.572.49-.837.655-.845.199 0 .555.207 1.225.605l.472.273c-.281.513-.596 1.01-.902 1.507zm2.964-6.5l-.38-.091a11.658 11.658 0 01-.605-.141c-.563-.157-.977-.331-.878-.695l.041-.191.009-.008c.165-.629.24-.927.405-.969.2-.058.596.05 1.333.265l.514.141a29.82 29.82 0 01-.439 1.689zm1.176-7.924c0 .298-.033.588-.042.878l-.364.008c-.199.008-.406.017-.621.017-.588 0-1.035-.067-1.035-.439v-.199c0-.654 0-.96.14-1.051.175-.1.589-.1 1.359-.083h.521c.009.29.042.579.042.869zm-1.822-8.255c-.836.215-1.283.323-1.515.571-.315.323-.215.704.008 1.524l.05.182c.207.762.877.737 1.714.513.182-.049.397-.116.612-.19.108-.025.224-.058.332-.091.314 1.416.48 2.89.555 4.388-.191 0-.357 0-.489-.008-.861-.008-1.325-.017-1.615.166-.389.223-.38.621-.38 1.465v.199c0 .786.654.935 1.523.935.182 0 .406-.016.638-.016.099-.008.215-.008.323-.017a27.285 27.285 0 01-.555 4.389 13.732 13.732 0 01-.497-.133c-.828-.232-1.267-.364-1.598-.265-.43.124-.53.497-.745 1.309l-.05.198c-.207.77.39 1.068 1.225 1.3.183.05.406.1.63.149.107.025.223.05.33.083a27.195 27.195 0 01-1.705 4.082c-.149-.091-.306-.182-.43-.257-.737-.438-1.143-.679-1.482-.67-.448.008-.646.356-1.069 1.093l-.082.149-.017.008c-.39.687.108 1.143.853 1.565.174.108.373.207.571.315.1.049.19.107.29.157a27.742 27.742 0 01-2.7 3.502l-.347-.347c-.596-.621-.92-.953-1.25-1.027-.44-.116-.712.165-1.308.77l-.141.132c-.555.555-.199 1.118.405 1.723l.009.016c.132.133.298.282.463.447.083.066.158.141.24.216a27.03 27.03 0 01-3.502 2.699c-.083-.149-.174-.307-.248-.439-.423-.753-.646-1.151-.944-1.317-.39-.215-.737-.016-1.466.406l-.174.091c-.67.398-.472 1.035-.05 1.772l.009.017c.1.174.215.364.34.546.05.1.107.191.173.29a26.987 26.987 0 01-4.09 1.706c-.041-.166-.091-.348-.124-.505-.216-.828-.331-1.275-.572-1.516-.323-.314-.703-.207-1.523.009l-.182.049c-.77.207-.737.886-.514 1.714.05.191.116.406.183.621l.099.332c-1.424.306-2.89.471-4.389.546 0-.19 0-.348.009-.489.008-.861.016-1.316-.166-1.606-.232-.389-.62-.389-1.474-.389h-.19c-.795 0-.936.662-.936 1.524 0 .182.009.414.017.645.008.1.008.216.008.315-1.499-.075-2.964-.24-4.388-.546l.14-.497c.232-.828.357-1.275.265-1.598-.124-.431-.505-.539-1.316-.754l-.199-.049c-.762-.207-1.068.389-1.291 1.225-.05.19-.1.406-.15.629-.024.108-.057.224-.082.34a26.888 26.888 0 01-4.082-1.706c.082-.149.182-.306.256-.439.44-.737.671-1.134.663-1.474 0-.447-.348-.645-1.077-1.068l-.157-.091H56.1c-.678-.397-1.134.091-1.565.845-.099.174-.206.364-.306.563-.058.099-.108.198-.165.298a26.937 26.937 0 01-3.495-2.708c.116-.116.257-.248.348-.339.613-.605.952-.919 1.027-1.259.107-.43-.166-.712-.77-1.308l-.133-.141c-.563-.546-1.117-.19-1.73.406l-.008.017c-.133.132-.29.298-.44.463-.074.075-.157.158-.223.232a26.985 26.985 0 01-2.707-3.494c.157-.091.306-.174.447-.249.745-.422 1.15-.645 1.316-.943.215-.398.017-.737-.405-1.474l-.1-.166c-.389-.679-1.027-.48-1.772-.058l-.008.008c-.174.108-.364.224-.555.34-.09.058-.19.116-.29.174a28.051 28.051 0 01-1.697-4.082c.174-.05.348-.091.497-.133.836-.207 1.283-.323 1.515-.563.315-.331.215-.712-.008-1.523l-.05-.191c-.207-.761-.878-.728-1.706-.505-.19.05-.405.116-.62.182-.108.025-.224.067-.332.1a27.395 27.395 0 01-.555-4.397c.19.008.357.008.489.008.861.017 1.325.017 1.615-.157.38-.232.38-.629.38-1.474v-.19c0-.795-.654-.936-1.523-.936-.182 0-.406.008-.638.017-.099 0-.215 0-.323.008a27.31 27.31 0 01.555-4.389c.166.05.356.1.497.141.828.232 1.275.356 1.598.257.43-.116.53-.497.745-1.308l.058-.199c.199-.762-.397-1.068-1.233-1.292a15.46 15.46 0 00-.63-.157l-.331-.075a26.943 26.943 0 011.706-4.09c.149.091.306.182.43.257.745.439 1.143.679 1.482.671.447-.009.646-.348 1.069-1.085l.082-.157.009-.009c.397-.687-.1-1.134-.845-1.565-.174-.107-.373-.207-.571-.314-.1-.05-.19-.108-.29-.158a27.092 27.092 0 012.7-3.494c.115.116.256.257.347.34.604.621.919.952 1.25 1.035.439.107.72-.174 1.317-.779l.132-.132c.555-.555.199-1.118-.405-1.722l-.009-.017c-.132-.132-.298-.281-.464-.439-.082-.066-.157-.149-.24-.223a27.771 27.771 0 013.503-2.7c.083.149.174.307.248.439.422.754.646 1.151.952 1.317.39.223.73.016 1.458-.406l.174-.091c.67-.398.472-1.035.05-1.772l-.009-.017c-.1-.173-.215-.364-.331-.546-.058-.099-.116-.19-.174-.282a26.036 26.036 0 014.074-1.713c.05.173.099.356.132.505.215.828.331 1.275.58 1.523.314.306.695.199 1.515-.016l.19-.05c.762-.207.73-.878.506-1.714a15.36 15.36 0 00-.183-.621c-.033-.099-.066-.224-.099-.331 1.424-.307 2.89-.472 4.388-.547v.489c-.016.861-.024 1.325.158 1.614.232.381.629.381 1.474.381h.19c.795 0 .936-.662.936-1.523 0-.182-.009-.414-.017-.638-.008-.107-.008-.223-.008-.323 1.49.075 2.964.24 4.388.547l-.14.497c-.232.836-.357 1.275-.266 1.606.125.422.506.53 1.317.745l.199.05c.761.207 1.068-.389 1.291-1.226.05-.19.108-.405.15-.629.024-.108.057-.224.082-.331a26.095 26.095 0 014.082 1.705 6.3 6.3 0 01-.256.431c-.44.745-.671 1.134-.663 1.482 0 .439.348.646 1.085 1.06l.149.091.016.008c.68.398 1.135-.099 1.565-.844.1-.182.207-.373.307-.58.058-.091.107-.182.165-.281a27.673 27.673 0 013.495 2.699 11.34 11.34 0 01-.348.339c-.613.605-.944.928-1.027 1.259-.108.439.166.712.77 1.317l.14.132c.556.555 1.119.199 1.723-.406l.008-.016c.133-.133.29-.29.448-.464.066-.074.148-.157.215-.232a27.062 27.062 0 012.707 3.503c-.157.082-.306.173-.439.248-.753.422-1.159.646-1.324.944-.216.397-.017.729.405 1.466l.1.165c.389.679 1.026.489 1.772.058l.008-.008c.174-.1.364-.215.555-.34.09-.058.19-.116.29-.174a27.246 27.246 0 011.697 4.082c-.166.05-.348.092-.497.133zm1.085 2.029l-.356.107a9.886 9.886 0 01-.596.174c-.572.157-1.019.207-1.118-.157l-.05-.182c-.165-.638-.248-.936-.132-1.06.14-.141.538-.24 1.291-.439l.522-.133c.174.555.306 1.118.439 1.69zm28.814-10.483a.27.27 0 00-.215.124l-2.269 3.942H93.7c-.033-.067-.066-.141-.1-.207 0-.058.059-.092.034-.141l-1.118-1.929c-.025-.05-.091-.017-.14-.042a27.417 27.417 0 00-2.949-3.817c0-.066.05-.124 0-.166l-1.573-1.573c-.05-.049-.107 0-.165 0a25.392 25.392 0 00-1.78-1.498l13.454-3.61v4.537c0 .132.108.248.24.248h12.686c.132 0 .24-.116.24-.248v-4.612h13.446v8.992h-1.631zm44.124-67.142H98.461l72.11-19.318 72.111 19.318h-74.214zm26.621 27.034v-1.938h10.614l-7.228 1.938h-3.386zm45.531 48.901l.381.083c.207.05.406.1.605.141.571.157.977.339.886.704l-.05.182-.008.008c-.166.638-.241.928-.406.977-.191.058-.588-.058-1.333-.265l-.505-.149c.132-.563.265-1.134.43-1.681zm-1.176 7.916c0-.29.034-.579.05-.869l.356-.017c.207-.008.406-.016.621-.016.588 0 1.035.066 1.035.447v.19c.008.654.008.969-.149 1.052-.165.107-.579.099-1.349.091h-.514c-.016-.298-.05-.58-.05-.878zm.737 6.227l.356-.108c.207-.066.398-.124.605-.174.563-.149 1.01-.199 1.109.157l.05.191c.174.637.248.927.133 1.051-.133.15-.539.249-1.284.439l-.53.133a29.014 29.014 0 01-.439-1.689zm2.509 6.69l.331-.207c.183-.108.356-.224.53-.331h.017c.497-.29.919-.447 1.101-.125l.1.166c.322.571.48.836.397.985-.091.174-.455.381-1.126.754l-.456.257c-.306-.497-.621-.986-.894-1.499zm4.77 6.433c-.207-.207-.39-.43-.588-.654l.248-.256c.141-.158.282-.307.431-.456l.008-.016c.414-.406.77-.671 1.035-.398l.141.133c.455.463.679.679.637.844-.049.199-.339.489-.894 1.027l-.373.364c-.215-.198-.438-.389-.645-.588zm4.934 3.876l.166-.323c.099-.191.207-.381.298-.555.298-.505.571-.853.903-.663l.165.092c.572.331.836.48.836.654.009.198-.198.554-.596 1.217l-.281.472c-.514-.273-1.002-.588-1.491-.894zm6.492 2.964l.083-.381c.049-.207.099-.406.149-.613.149-.563.331-.977.695-.878l.191.05h.008c.629.174.919.249.969.414.058.191-.05.588-.265 1.333l-.141.505c-.563-.132-1.134-.265-1.689-.43zm7.916 1.175c-.29 0-.58-.041-.87-.049l-.008-.356c-.008-.207-.017-.414-.017-.629 0-.58.067-1.027.439-1.035h.191c.662 0 .968 0 1.059.149.1.173.092.587.083 1.357v.514c-.298.008-.579.049-.877.049zm6.234-.745l-.107-.347a10.034 10.034 0 01-.174-.605c-.157-.563-.207-1.01.157-1.109l.182-.05c.638-.174.936-.257 1.06-.133.141.133.24.539.431 1.284l.141.53c-.555.165-1.127.306-1.69.43zm6.682-2.5l-.207-.331c-.107-.183-.223-.356-.323-.53l-.008-.017c-.29-.505-.447-.919-.124-1.109l.166-.092c.571-.331.836-.48.985-.397.174.091.381.455.762 1.126l.248.456c-.488.306-.985.621-1.499.894zm6.442-4.77c-.215.207-.439.39-.654.588l-.265-.248a11.579 11.579 0 01-.455-.431l-.009-.008c-.405-.414-.67-.77-.405-1.035l.132-.141c.472-.463.679-.679.853-.637.199.041.48.339 1.019.894l.364.373c-.199.215-.381.438-.58.645zm3.867-4.926l-.323-.174c-.19-.108-.381-.207-.555-.306-.496-.29-.853-.572-.662-.895l.099-.165c.323-.572.481-.837.646-.845.199 0 .563.207 1.226.605l.472.273c-.282.513-.597 1.01-.903 1.507zm2.973-6.5l-.39-.091a15.022 15.022 0 01-.604-.141c-.563-.157-.977-.331-.886-.695l.058-.191v-.008c.166-.629.248-.927.406-.969.198-.058.596.05 1.341.265l.505.141a38.65 38.65 0 01-.43 1.689zm1.167-7.924c0 .298-.033.588-.041.878l-.365.008c-.207.008-.405.017-.621.017-.588 0-1.035-.067-1.035-.439v-.199c0-.654 0-.96.149-1.051.174-.1.588-.1 1.35-.083h.522c.008.29.041.579.041.869zm-.737-6.226l-.356.107a9.797 9.797 0 01-.596.174c-.571.157-1.019.207-1.118-.157l-.05-.182c-.173-.638-.248-.936-.132-1.06.141-.141.538-.24 1.283-.439l.539-.133c.157.555.298 1.118.43 1.69zm-4.09-8.355c-.754.422-1.151.646-1.317.944-.223.397-.025.729.398 1.466l.099.165c.397.679 1.027.489 1.772.058l.008-.008c.182-.1.365-.215.555-.34.091-.058.19-.116.282-.174a27.346 27.346 0 011.713 4.082c-.173.05-.356.092-.505.133-.836.215-1.275.323-1.523.571-.306.323-.199.704.016 1.524l.05.182c.207.762.878.737 1.714.513.182-.049.398-.116.613-.19.107-.025.232-.058.339-.091.307 1.416.472 2.89.547 4.388-.191 0-.356 0-.489-.008-.861-.008-1.325-.017-1.614.166-.39.223-.381.621-.381 1.465v.199c0 .786.662.935 1.523.935.182 0 .414-.016.638-.016.099-.008.215-.008.323-.017a28.324 28.324 0 01-.547 4.389 14.261 14.261 0 01-.505-.133c-.828-.232-1.267-.364-1.598-.265-.43.124-.53.497-.745 1.309l-.05.198c-.207.77.389 1.068 1.226 1.3.19.05.397.1.621.149.107.025.223.05.339.083a26.414 26.414 0 01-1.705 4.082c-.15-.091-.307-.182-.431-.257-.745-.438-1.134-.679-1.482-.67-.447.008-.646.356-1.068 1.093l-.091.149v.008c-.398.687.099 1.143.844 1.565.182.108.373.207.572.315.099.049.19.107.289.157a27.76 27.76 0 01-2.699 3.502c-.116-.116-.257-.256-.339-.347-.605-.621-.928-.953-1.259-1.027-.439-.116-.72.165-1.317.77l-.132.132c-.555.555-.199 1.118.406 1.723l.016.016c.124.133.29.282.464.447.074.066.157.141.232.216a27.582 27.582 0 01-3.494 2.699 14.166 14.166 0 01-.257-.439c-.422-.753-.646-1.151-.944-1.317-.397-.215-.729-.016-1.466.406l-.165.091c-.679.398-.489 1.035-.058 1.772l.008.017c.1.174.215.364.34.546.058.1.116.191.174.29a27.315 27.315 0 01-4.082 1.706c-.05-.166-.1-.348-.133-.505-.215-.828-.323-1.275-.571-1.516-.323-.314-.704-.207-1.524.009l-.19.049c-.762.207-.729.886-.505 1.714.058.191.116.406.182.621l.099.332c-1.416.306-2.889.471-4.388.546 0-.19 0-.348.008-.489.008-.861.008-1.316-.166-1.606-.231-.389-.629-.389-1.473-.389h-.191c-.786 0-.935.662-.935 1.524 0 .182.008.414.016.645.008.1.008.216.008.315-1.49-.075-2.964-.24-4.388-.546.05-.174.099-.357.141-.497.232-.828.364-1.275.265-1.598-.124-.431-.505-.539-1.317-.754l-.19-.049c-.762-.207-1.077.389-1.3 1.225-.05.19-.1.406-.149.629-.025.108-.058.224-.083.34a27.228 27.228 0 01-4.082-1.706c.091-.149.182-.306.257-.439.438-.737.67-1.134.67-1.474-.008-.447-.356-.645-1.093-1.068l-.149-.091h-.016c-.679-.397-1.135.091-1.565.845-.1.174-.199.364-.315.563-.041.099-.099.198-.157.298a26.935 26.935 0 01-3.494-2.708c.116-.116.256-.248.347-.339.621-.605.953-.919 1.027-1.259.108-.43-.165-.712-.77-1.308l-.132-.141c-.555-.546-1.118-.19-1.723.406l-.016.017c-.133.132-.29.298-.447.463-.067.075-.141.158-.216.232a26.956 26.956 0 01-2.699-3.494c.149-.091.307-.174.431-.249.753-.422 1.159-.645 1.325-.943.215-.398.016-.737-.406-1.474l-.1-.166c-.397-.679-1.026-.48-1.763-.058l-.017.008c-.174.108-.364.224-.546.34l-.29.174a27.228 27.228 0 01-1.706-4.082c.166-.05.348-.091.497-.133.836-.207 1.283-.323 1.524-.563.306-.331.207-.712-.017-1.523l-.05-.191c-.207-.761-.877-.728-1.705-.505-.191.05-.406.116-.621.182-.108.025-.224.067-.332.1-.306-1.424-.471-2.898-.546-4.397.182.008.348.008.48.008.861.017 1.325.017 1.615-.157.389-.232.389-.629.389-1.474v-.19c0-.795-.662-.936-1.532-.936-.182 0-.406.008-.637.017-.1 0-.216 0-.315.008.075-1.499.24-2.964.546-4.389.166.05.357.1.497.141.828.232 1.267.356 1.598.257.431-.116.539-.497.754-1.308l.049-.199c.207-.762-.397-1.068-1.225-1.292-.19-.049-.414-.107-.629-.157l-.34-.075a26.975 26.975 0 011.706-4.09c.149.091.306.182.439.257.737.439 1.134.679 1.474.671.447-.009.645-.348 1.068-1.085l.091-.157v-.009c.397-.687-.1-1.134-.845-1.565-.174-.107-.372-.207-.571-.314-.099-.05-.19-.108-.29-.158a26.403 26.403 0 012.708-3.494c.116.116.248.257.339.34.605.621.919.952 1.259 1.035.43.107.712-.174 1.308-.779l.132-.132c.555-.555.199-1.118-.397-1.722l-.017-.017c-.132-.132-.298-.281-.471-.439-.075-.066-.15-.149-.224-.223a27.687 27.687 0 013.494-2.7c.091.149.174.307.249.439.422.754.645 1.151.943 1.317.398.223.737.016 1.474-.406l.158-.091c.687-.398.488-1.035.066-1.772l-.008-.017c-.108-.173-.224-.364-.34-.546-.058-.099-.116-.19-.174-.282a26.693 26.693 0 014.074-1.713c.05.173.091.356.132.505.216.828.332 1.275.572 1.523.331.306.712.199 1.523-.016l.191-.05c.761-.207.728-.878.505-1.714-.05-.191-.116-.406-.182-.621-.033-.099-.067-.224-.1-.331 1.424-.307 2.898-.472 4.389-.547v.489c-.017.861-.017 1.325.157 1.614.232.381.629.381 1.474.381h.19c.795 0 .936-.662.936-1.523 0-.182-.008-.414-.017-.638-.008-.107-.008-.223-.008-.323a28.31 28.31 0 014.388.547c-.049.174-.099.356-.14.497-.232.836-.356 1.275-.257 1.606.116.422.497.53 1.308.745l.191.05c.77.207 1.076-.389 1.3-1.226.049-.19.099-.405.149-.629.025-.108.058-.224.083-.331a26.544 26.544 0 014.09 1.705c-.091.15-.182.307-.257.431-.439.745-.679 1.134-.67 1.482.008.439.347.646 1.084 1.06l.157.091.009.008c.687.398 1.134-.099 1.565-.844.107-.182.207-.373.314-.58.05-.091.1-.19.158-.281a27.117 27.117 0 013.494 2.699 11.34 11.34 0 01-.348.339c-.621.605-.944.928-1.027 1.259-.107.439.174.712.77 1.317l.141.132c.555.555 1.118.199 1.722-.406l.009-.016c.132-.133.289-.29.447-.464.066-.074.149-.157.223-.232a27.777 27.777 0 012.7 3.503c-.149.082-.307.173-.439.248zm1.59 1.664l-.332.216c-.182.107-.364.215-.538.323l-.008.008c-.505.29-.919.439-1.11.124l-.091-.174c-.339-.563-.488-.828-.405-.977.099-.182.463-.381 1.134-.762l.455-.248c.307.488.613.977.895 1.49zm15.16 6.881l-17.454-11.244c-.008 0-.008.008-.008 0a31.776 31.776 0 00-1.3-1.499c0-.066.049-.124 0-.166l-1.573-1.573c-.042-.049-.108 0-.166 0l-.017-.025h18.788v.017c0 .075.083.091.14.141l1.59 3.966v10.383zm4.753 3.925h-3.204c-.53 0-.87-.29-1.011-.654a1.136 1.136 0 01-.091-.464c0-.166.025-.323.091-.472.141-.364.481-.654 1.011-.654h3.204v2.244zm0 6.466h-3.204c-.53 0-.87-.281-1.011-.645a1.151 1.151 0 01-.091-.472c0-.158.025-.315.091-.464.141-.364.481-.654 1.011-.654h3.204v2.235zm28.93-11.186a.235.235 0 00-.083-.182l-5.746-4.993a.265.265 0 00-.165-.058l-3.064-.008c-.075-.008-.149.016-.19.066l-3.246 3.238v-52.802a.242.242 0 00-.24-.248h-15.956a.242.242 0 00-.24.248v55.741h-4.264v-10.64c0-.025-.009-.058-.017-.091l-1.714-4.272v-5.266h1.805c.133 0 .24-.108.24-.249v-39.363a.24.24 0 00-.24-.24h-1.805v-17.653a.246.246 0 00-.24-.248h-32.342l1.789-6.666a.242.242 0 00-.174-.298l-74.71-20.013 74.71-20.021c.132-.033.207-.174.174-.306l-1.838-6.848 1.838-6.847a.242.242 0 00-.174-.298l-74.71-20.021 74.71-20.021a.242.242 0 00.174-.298l-1.838-6.848 1.838-6.856a.246.246 0 00-.174-.298l-74.71-20.013 74.71-20.021a.246.246 0 00.174-.298l-1.838-6.847 1.838-6.856a.242.242 0 00-.174-.298l-74.71-20.021 74.71-20.021a.242.242 0 00.174-.298l-1.548-5.78h4.28c.025 0 .042 0 .067-.008l13.628-2.857h10.458c.066 0 .066-.074.116-.107.041-.034.108-.017.124-.075l2.194-8.18c0-.017-.024-.017-.024-.034.008-.016.033-.016.033-.033v-3.08l1.896 1.325v3.121l-1.739 1.45a.246.246 0 00-.099.198v8.851c0 .133.116.249.248.249l2.724-.008a.258.258 0 00.215-.116l2.584-4.488a.225.225 0 00.049-.14V.247a.242.242 0 00-.24-.248H32.13a.244.244 0 00-.249.248v81.965c0 .049.017.099.05.14l2.583 4.488c.05.074.133.116.216.124h2.724a.25.25 0 00.248-.249v-8.85a.247.247 0 00-.1-.2l-1.738-1.449v-3.121l1.896-1.325v3.08c0 .017.025.017.033.033 0 .017-.024.017-.024.033l2.194 8.181c.016.05.082.041.124.075.05.033.05.107.116.107h11.534l14.424 2.865h2.475l-1.548 5.78a.248.248 0 00.174.298l74.71 20.021-74.71 20.021a.248.248 0 00-.174.298l1.838 6.847-1.838 6.856a.252.252 0 00.174.298l74.71 20.021-74.71 20.013a.252.252 0 00-.174.298l1.838 6.856-1.838 6.848a.248.248 0 00.174.298l74.71 20.021-74.71 20.021a.248.248 0 00-.174.298l1.838 6.847-1.838 6.848a.257.257 0 00.174.306l74.71 20.021-74.71 20.013a.248.248 0 00-.174.298l1.788 6.666H40.981a.254.254 0 00-.248.248v17.653h-1.797a.248.248 0 00-.248.24v3.163h-5.002a.242.242 0 00-.248.24v53.704l-4.28 2.468v-55.435a.242.242 0 00-.24-.248H12.961a.242.242 0 00-.24.248v52.802l-3.246-3.238a.227.227 0 00-.19-.066l-3.073.008a.262.262 0 00-.157.058L.31 379.075a.235.235 0 00-.083.182l-.025 4.09a.24.24 0 00.075.174l6.913 6.707a.28.28 0 00.174.066h3.817l3.57 2.402c1.986 1.573 3.477 1.838 4.719 1.399 1.175-.406 2.086-1.433 2.972-2.567l6.334 3.817a.243.243 0 00.38-.207v-3.221h12.52l.05.199c-.016.05-.082.074-.074.116l.588 2.161c.008.033.066.025.09.058a28.313 28.313 0 001.88 4.496c0 .05-.058.091-.033.132l1.118 1.93c.025.049.091.025.14.041a28.065 28.065 0 002.948 3.817c0 .066-.05.124 0 .166l1.574 1.581c.05.042.107 0 .165 0a28.119 28.119 0 003.826 2.94c.016.058-.009.124.041.149l1.93 1.117c.04.025.082-.033.132-.041a26.835 26.835 0 004.496 1.88c.033.033.016.091.058.099l2.153.58c.057.008.074-.05.124-.067 1.548.34 3.154.53 4.786.605.05.041.058.124.124.124h2.227c.066 0 .083-.083.124-.124a28.325 28.325 0 004.786-.605c.05.017.066.075.124.067l2.153-.58c.042-.008.033-.066.058-.099a26.84 26.84 0 004.496-1.88c.05.008.091.066.14.041l1.922-1.117c.05-.025.025-.091.041-.149a28.119 28.119 0 003.826-2.94c.058 0 .116.042.165 0l1.573-1.581c.05-.042 0-.1 0-.166a27.417 27.417 0 002.948-3.817c.05-.016.116.008.14-.041l1.119-1.93c.025-.041-.033-.082-.033-.132a28.312 28.312 0 001.88-4.496c.032-.033.082-.025.099-.058l.58-2.161c.007-.042-.059-.066-.075-.116.265-1.192.447-2.418.554-3.668h142.433c.108 1.25.29 2.476.555 3.668-.017.05-.083.074-.067.116l.58 2.161c.008.033.066.025.091.058a28.259 28.259 0 001.88 4.496c0 .05-.058.091-.033.132l1.117 1.93c.025.049.091.025.149.041a28.035 28.035 0 002.94 3.817c0 .066-.042.124 0 .166l1.573 1.581c.05.042.108 0 .166 0a28.613 28.613 0 003.825 2.94c.016.058-.017.124.041.149l1.93 1.117c.041.025.082-.033.132-.041a26.817 26.817 0 004.496 1.88c.033.033.017.091.058.099l2.153.58c.05.008.074-.05.124-.067 1.548.34 3.146.53 4.786.605.05.041.058.124.124.124h2.227c.067 0 .083-.083.125-.124a28.435 28.435 0 004.794-.605c.049.017.066.075.116.067l2.152-.58c.042-.008.025-.066.058-.099a26.817 26.817 0 004.496-1.88c.058.008.092.066.141.041l1.929-1.117c.05-.025.017-.091.034-.149a28.172 28.172 0 003.825-2.94c.058 0 .124.042.166 0l1.573-1.581c.049-.042 0-.1 0-.166a27.382 27.382 0 002.947-3.817c.05-.016.116.008.149-.041l1.11-1.93c.025-.041-.033-.082-.033-.132a28.255 28.255 0 001.879-4.496c.025-.033.083-.025.1-.058l.571-2.161c.017-.042-.05-.066-.066-.116.016-.066.041-.133.05-.199h16.808v3.221a.243.243 0 00.381.207l6.334-3.817c.828 1.176 1.813 2.153 3.088 2.509 1.342.381 2.981.083 5.035-1.35l3.146-2.393h3.801a.26.26 0 00.173-.066l6.923-6.707a.242.242 0 00.074-.174l-.025-4.09zm-66.902 9.547c.074-.166.149-.315.223-.48.116-.249.241-.505.332-.754a.788.788 0 01.397-.389.679.679 0 01.364-.05 7.167 7.167 0 01-.496 1.83 7.782 7.782 0 01-.953 1.648c-.43-.331-.207-1.018.133-1.805zm1.325-3.709c-.539.066-.861-.58-1.176-1.367-.066-.174-.124-.339-.182-.496-.1-.265-.199-.53-.298-.771a.71.71 0 010-.554.813.813 0 01.231-.307c.381.522.696 1.077.936 1.656.24.588.406 1.209.489 1.839zm-2.054 6.334c-.149.157-.331.265-.488.405-.141-.182-.274-.38-.481-.472a1.262 1.262 0 00-.919 0 8.665 8.665 0 01-.753.29c-.182.067-.348.133-.505.199-1.019.397-1.797.861-1.623 1.731-.199.016-.373.066-.563.066-.207 0-.398-.05-.588-.066a1.314 1.314 0 00-.058-.671 1.216 1.216 0 00-.646-.654c-.265-.108-.505-.216-.745-.323-.166-.083-.339-.158-.489-.224-1.01-.439-1.887-.662-2.384.075-.141-.124-.307-.224-.439-.356-.149-.149-.265-.331-.406-.497.191-.133.389-.265.472-.472.116-.29.133-.621 0-.927-.099-.257-.198-.506-.29-.754-.066-.174-.124-.348-.19-.497-.397-1.026-.861-1.805-1.739-1.631-.008-.19-.049-.372-.049-.563 0-.199.041-.389.057-.588.232.042.464.033.671-.049a1.29 1.29 0 00.654-.655c.1-.256.216-.505.323-.736.075-.174.158-.34.224-.497.439-1.002.662-1.88-.083-2.385.124-.141.224-.298.356-.431.157-.149.331-.264.497-.405.132.19.273.381.48.472.29.116.613.124.927 0 .249-.108.505-.199.746-.29.182-.066.356-.133.505-.191 1.026-.397 1.796-.869 1.631-1.738.19-.017.364-.058.563-.058.199 0 .389.041.588.058-.042.232-.033.463.049.67.125.29.348.53.655.654.256.108.496.224.745.332.165.074.331.157.48.223 1.01.439 1.888.654 2.385-.083.14.125.298.224.43.356.158.158.273.332.414.497-.19.133-.389.265-.472.481a1.218 1.218 0 000 .919c.108.256.199.505.29.753.066.174.133.348.19.505.398 1.027.87 1.797 1.739 1.631.009.183.058.365.058.555 0 .207-.049.389-.066.596a1.164 1.164 0 00-.671.042 1.281 1.281 0 00-.654.662c-.099.257-.215.497-.323.737-.083.166-.149.339-.223.488-.439 1.002-.654 1.888.083 2.385-.125.141-.232.298-.365.431zm-4.339 2.053c-.074-.538.58-.869 1.367-1.176.174-.074.331-.132.497-.19.264-.099.529-.199.77-.298a.752.752 0 01.554 0c.116.05.216.124.298.232a7.403 7.403 0 01-1.647.935 7.525 7.525 0 01-1.839.497zm-5.514-1.465c.331-.431 1.018-.207 1.797.14.165.075.323.141.488.216.249.116.514.24.754.331a.718.718 0 01.381.397.738.738 0 01.058.373 7.044 7.044 0 01-1.83-.505 6.796 6.796 0 01-1.648-.952zm-2.873-4.927c.546-.075.869.58 1.176 1.366.066.174.124.331.19.497.099.257.199.53.298.77a.733.733 0 010 .547.842.842 0 01-.232.306 7.297 7.297 0 01-.935-1.648 7.955 7.955 0 01-.497-1.838zm1.325-3.726c-.075.174-.149.331-.216.489-.124.256-.24.513-.339.753a.692.692 0 01-.389.389.723.723 0 01-.373.05c.091-.638.265-1.25.497-1.83a7.458 7.458 0 01.952-1.639c.431.322.207 1.018-.132 1.788zm5.067-4.662c.075.539-.58.861-1.366 1.168-.174.074-.34.132-.497.19-.265.1-.53.199-.77.298a.713.713 0 01-.555 0 .783.783 0 01-.298-.223 7.087 7.087 0 011.648-.944 7.556 7.556 0 011.838-.489zm5.523 1.458c-.331.43-1.027.207-1.805-.141-.166-.066-.323-.141-.48-.215-.257-.116-.514-.241-.754-.332a.74.74 0 01-.389-.389.74.74 0 01-.05-.381 7.42 7.42 0 011.822.505 7.864 7.864 0 011.656.953zm-4.521-2.112a8.023 8.023 0 00-5.688 2.36 7.986 7.986 0 00-2.36 5.68c0 2.219.902 4.231 2.36 5.688a8.012 8.012 0 005.688 2.352 8.012 8.012 0 005.688-2.352 8.012 8.012 0 002.352-5.688 7.98 7.98 0 00-2.352-5.68 8.023 8.023 0 00-5.688-2.36zm10.507 18.547a14.825 14.825 0 01-10.515 4.356 14.82 14.82 0 01-10.508-4.356 14.834 14.834 0 01-4.347-10.507 14.854 14.854 0 0114.855-14.863c4.106 0 7.824 1.673 10.515 4.356a14.813 14.813 0 014.347 10.507c0 4.107-1.656 7.816-4.347 10.507zm-10.515-25.85a15.301 15.301 0 00-10.847 4.488 15.294 15.294 0 00-4.496 10.855 15.28 15.28 0 004.496 10.855 15.275 15.275 0 0010.847 4.496c4.247 0 8.081-1.714 10.855-4.496a15.287 15.287 0 004.504-10.855 15.3 15.3 0 00-4.504-10.855 15.292 15.292 0 00-10.855-4.488zm2.649 16.544c-.381.96-1.267 1.714-2.649 1.714-1.375 0-2.253-.754-2.642-1.714a3.259 3.259 0 01-.223-1.201c0-.406.074-.82.223-1.2.389-.961 1.267-1.706 2.642-1.706 1.382 0 2.268.745 2.649 1.706.149.38.224.794.224 1.2 0 .414-.075.828-.224 1.201zm-2.649-4.596c-1.607 0-2.642.886-3.097 2.012a3.765 3.765 0 00-.265 1.383c0 .472.091.944.265 1.383.455 1.134 1.49 2.02 3.097 2.02 1.614 0 2.649-.886 3.105-2.02.173-.439.265-.911.265-1.383s-.092-.944-.265-1.383c-.456-1.126-1.491-2.012-3.105-2.012zm0-9.836a13.227 13.227 0 00-9.357 3.875 13.205 13.205 0 00-3.867 9.356c0 3.66 1.474 6.964 3.867 9.357a13.23 13.23 0 009.357 3.875 13.22 13.22 0 009.364-3.875 13.184 13.184 0 003.875-9.357c0-3.651-1.482-6.955-3.875-9.356a13.217 13.217 0 00-9.364-3.875z" fill="#000"/></svg>