<svg width="443" height="313" fill="none" xmlns="http://www.w3.org/2000/svg"><path d="M441.176 243.461c-.46 5.136-1.159 10.21-2.017 15.196v.071c0 1.945-.592 3.394-1.477 4.393-1.052 1.167-2.52 1.724-3.953 1.724h-6.793l-.115-1.025a.347.347 0 00-.027-.133c-.017-.027-.035-.027-.053-.053-.787-4.95-2.379-9.636-4.723-13.87 0-.009.009-.009.009-.018l-.849-1.37c-.407-.672-.796-1.361-1.247-2.015l-.168-.283a.31.31 0 00-.089-.097c-.009-.009-.017.008-.026 0a42.998 42.998 0 00-3.476-4.323c1.176-.61 2.388-1.45 3.644-2.511 1.318-1.105 2.662-2.431 4.033-3.863 3.069 3.289 5.908 6.922 8.553 10.82.133.204.248.381.345.54.248.397.416.671.672.751.416.115.663-.265.991-1.406a6.784 6.784 0 00.177-2.961 7.12 7.12 0 00-1.115-2.802c-2.636-3.987-5.377-7.514-8.208-10.643-2.83-3.121-5.749-5.835-8.738-8.186-3.724-2.917-7.563-5.286-11.507-7.178-3.928-1.892-7.97-3.315-12.082-4.349a.252.252 0 00-.115-.009c-4.75.398-9.615 1.052-14.143 1.927-4.325.822-8.35 1.856-11.684 3.023a7.86 7.86 0 00-2.769 1.724c-.115.097-.177.221-.274.327a.319.319 0 00-.141.168c-.664.751-1.177 1.538-1.442 2.219-.115.247.044.53.31.786.291.283.743.593.99.743.212.115.858-.053 1.884-.327 1.283-.345 3.211-.875 5.334-1.246 1.211-.221 2.361-.363 3.537-.522.177 1.962.407 3.828.735 5.507.336 1.636.769 3.077 1.326 4.305-.592.106-1.158.257-1.733.398l-1.38.301a.477.477 0 00-.106.044c-.018.009 0 .026-.009.035a42.387 42.387 0 00-11.242 4.968c-.035.009-.062-.017-.088 0l-.54.38a37.66 37.66 0 00-1.671 1.167l-1.318.92a.335.335 0 00-.098.097c-.008.009.018.026.009.035-1.326 1.052-2.618 2.139-3.812 3.333a43.699 43.699 0 00-5.245 6.373h-.009l-.884 1.468c-.416.681-.858 1.343-1.238 2.06l-.115.176c-.018.036-.036.071-.036.115v.018a42.489 42.489 0 00-4.166 11.801c0 .009-.026.009-.026.027l-.319 2.219c-.07.556-.185 1.105-.238 1.67l-.053.389a.211.211 0 000 .106c.008.018.017.027.026.045-.08.884-.115 1.794-.141 2.696h-3.361c2.034-8.946 4.316-17.07 6.907-24.275 3.936-10.944 8.518-20.022 13.736-27.589l.009-.018c.725-1.105 1.097-2.006 1.061-2.758-.035-.804-.513-1.405-1.477-1.847l-.035-.018-1.521-.539 42.87-22.834.938-.504 9.72-5.171c1.672-.964 3.114-1.653 4.591-2.033 1.477-.389 3.016-.486 4.856-.274l12.603 1.308c1.69.186 2.68.371 3.353.946.681.592 1.096 1.609 1.645 3.456.309 1.052.548 2.21.743 3.368.194 1.158.345 2.325.468 3.395l.08.778c1.265 11.147 2.512 22.25 2.6 33.096a157.606 157.606 0 01-.663 15.638zm-69.042-63.126c.07-.079.141-.159.238-.238a160.026 160.026 0 002.928-2.387c4.67-3.872 4.865-4.04 9.605-.566l.009.009c.204.15.372.309.504.486.23.292.354.61.363.937.009.318-.106.654-.354.99-.141.186-.336.38-.575.566-.778.61-1.512 1.202-2.167 1.724l-.017.018c-2.477 1.971-3.724 2.97-4.75 3.102-.999.124-1.928-.592-3.803-2.042-.442-.336-.947-.725-1.53-1.158a2.422 2.422 0 01-.372-.362l-.009-.018a1.03 1.03 0 01-.23-.539.848.848 0 01.16-.522zm-.425 1.477c.133.159.301.318.495.468.558.416 1.062.805 1.522 1.158 2.016 1.565 3.016 2.334 4.272 2.166 1.203-.15 2.494-1.185 5.068-3.235l.017-.018c.62-.495 1.318-1.052 2.167-1.715.283-.221.513-.451.69-.69.336-.459.487-.928.478-1.387-.009-.469-.186-.911-.495-1.309a3.164 3.164 0 00-.628-.601l-.018-.018c-5.13-3.765-5.351-3.58-10.384.593-.805.672-1.742 1.449-2.91 2.378a1.94 1.94 0 00-.354.353c-.221.301-.318.61-.291.937.026.31.15.619.362.902l.009.018zM168.562 21.279a3.993 3.993 0 01-2.697 1.502 4.05 4.05 0 01-2.955-.84l-.035-.026a4.019 4.019 0 01-1.486-2.687 4.043 4.043 0 01.84-2.953l.027-.035a4.012 4.012 0 012.689-1.476 3.983 3.983 0 012.972.848 4.028 4.028 0 011.503 2.696 4.021 4.021 0 01-.858 2.97zm-3.688-7.152a4.628 4.628 0 00-3.131 1.742 4.607 4.607 0 00-.982 3.43 4.646 4.646 0 001.734 3.129 4.63 4.63 0 003.44.981 4.652 4.652 0 003.131-1.732 4.623 4.623 0 00.982-3.44 4.668 4.668 0 00-1.733-3.129 4.672 4.672 0 00-3.441-.98zM88.128 25.973a1.99 1.99 0 01-.54.548c-.522.362-1.23.45-1.946-.018-.716-.477-.92-1.158-.787-1.786.053-.247.15-.486.292-.707.15-.212.327-.398.54-.548.521-.362 1.238-.45 1.945.027.717.468.92 1.158.788 1.785-.053.248-.15.486-.292.699zm-.142-3.015c-.964-.645-1.937-.521-2.662-.017a2.867 2.867 0 00-.708.716c-.185.282-.31.6-.38.928-.186.866.088 1.812 1.053 2.448.972.637 1.937.513 2.662.018.283-.194.522-.442.707-.725a2.69 2.69 0 00.39-.928c.177-.857-.098-1.803-1.062-2.44zm35.211 54.118a2.75 2.75 0 01-1.892 1.008 2.82 2.82 0 01-2.052-.619 2.807 2.807 0 01-1-1.892 2.775 2.775 0 01.61-2.024l.036-.044a2.747 2.747 0 011.875-.981 2.79 2.79 0 012.025.6l.036.036c.583.495.92 1.176.981 1.874a2.77 2.77 0 01-.619 2.042zm.027-4.42a3.473 3.473 0 00-2.521-.769 3.483 3.483 0 00-2.3 1.211l-.017.027a3.448 3.448 0 00-.77 2.51 3.42 3.42 0 001.239 2.316 3.439 3.439 0 002.511.77 3.391 3.391 0 002.318-1.238 3.436 3.436 0 00.769-2.51 3.42 3.42 0 00-1.211-2.299l-.018-.018zM106.525 59.98c.424-.893 1.318-1.565 2.636-1.485 1.326.08 2.122.848 2.432 1.794.124.371.177.77.15 1.167a3.218 3.218 0 01-.283 1.14c-.424.893-1.318 1.556-2.635 1.477-1.318-.08-2.123-.849-2.442-1.786a3.245 3.245 0 01.142-2.307zm2.264 4.73c1.619.096 2.716-.734 3.246-1.848.204-.425.319-.893.345-1.37a3.73 3.73 0 00-.177-1.406c-.389-1.176-1.38-2.13-2.998-2.228-1.628-.097-2.724.734-3.255 1.848a3.864 3.864 0 00-.345 1.37 3.77 3.77 0 00.177 1.405c.389 1.176 1.371 2.131 3.007 2.228zm93.436-39.7c.151-.39.505-.708 1.062-.717.504 0 .831.265.964.61.062.142.097.3.097.469 0 .159-.035.327-.097.486-.15.389-.504.707-1.062.707-.504.009-.831-.256-.972-.601-.062-.15-.08-.31-.08-.469 0-.168.018-.336.088-.486zm.973 2.191c.858-.008 1.415-.495 1.654-1.113a1.99 1.99 0 00.124-.716 1.88 1.88 0 00-.124-.708c-.239-.574-.76-1.016-1.574-1.007-.849.008-1.415.503-1.654 1.122a1.986 1.986 0 000 1.424c.239.574.752 1.007 1.574.998zm193.949 146.761c.203-.513.672-.911 1.406-.911.734 0 1.203.398 1.397.911.08.194.124.415.124.636 0 .221-.044.451-.124.654-.194.504-.663.902-1.397.902s-1.203-.398-1.406-.902a1.781 1.781 0 01-.124-.654c0-.221.044-.442.124-.636zm1.406 2.829c1.035 0 1.698-.575 1.99-1.309.115-.274.177-.583.177-.884a2.31 2.31 0 00-.177-.875c-.292-.734-.955-1.308-1.99-1.308-1.035 0-1.707.574-1.999 1.308a2.3 2.3 0 00-.168.875c0 .301.062.61.168.884.292.734.964 1.309 1.999 1.309zm-38.263 54.904c-.168.416-.548.743-1.158.743-.61 0-.991-.327-1.168-.743a1.563 1.563 0 01-.088-.539c0-.186.026-.371.097-.53.168-.425.549-.743 1.159-.743s.99.318 1.158.743c.062.159.098.344.098.53 0 .186-.036.371-.098.539zm-1.158-2.457c-.911 0-1.495.504-1.751 1.14a2.042 2.042 0 000 1.547c.256.645.84 1.149 1.751 1.149.911 0 1.495-.504 1.751-1.149.097-.239.142-.504.142-.769a2.17 2.17 0 00-.142-.778c-.256-.636-.84-1.14-1.751-1.14zm2.795 3.191c-.398 1.008-1.336 1.803-2.795 1.803-1.46 0-2.397-.795-2.795-1.803a3.467 3.467 0 01-.239-1.273c0-.442.08-.875.239-1.273.407-1.008 1.335-1.803 2.795-1.803 1.459 0 2.397.795 2.795 1.803.159.398.239.831.239 1.273 0 .433-.08.875-.239 1.273zm-2.795-4.986c-1.76 0-2.892.964-3.388 2.21-.194.478-.292.99-.292 1.503 0 .513.098 1.026.292 1.512.496 1.237 1.628 2.201 3.388 2.201s2.892-.964 3.387-2.201a4.155 4.155 0 000-3.015c-.495-1.246-1.627-2.21-3.387-2.21zm-60.375-44.739V137.4c0-.919.23-1.627.752-2.086.531-.469 1.38-.69 2.592-.628 3.688 0 7.712.08 11.383.248.902.053 1.831.088 2.742.123 7.252.265 13.842.522 15.549 7.7 1.229 5.092 2.193 10.802 3.025 16.884.822 6.082 1.495 12.526 2.114 19.068.141 1.467.221 2.873-.213 3.934-.415 1.016-1.335 1.75-3.21 1.989l-30.099 2.758c-2.149.344-3.299-.159-3.909-1.061-.637-.919-.726-2.307-.726-3.625zm4.723 5.322l30.09-2.767c2.15-.265 3.22-1.149 3.724-2.378.487-1.193.407-2.678.257-4.243-.628-6.55-1.301-12.995-2.123-19.085-.823-6.091-1.796-11.828-3.034-16.946-1.813-7.647-8.632-7.912-16.142-8.195-.902-.027-1.813-.062-2.733-.106l-11.383-.256c-1.389-.071-2.388.203-3.051.786-.673.584-.964 1.459-.964 2.564v45.304c0 1.424.106 2.909.831 3.978.743 1.097 2.087 1.724 4.528 1.344zm-77.63 33.291h-.009c-.946.425-2.158.071-3.352-.84-1.247-.954-2.468-2.519-3.352-4.464l-.009-.026c-.885-1.945-1.265-3.899-1.168-5.481.098-1.512.628-2.661 1.575-3.094l.008-.009c.947-.424 2.159-.07 3.353.84 1.247.955 2.467 2.519 3.352 4.455l.009.036c.893 1.953 1.273 3.907 1.167 5.48-.097 1.512-.628 2.67-1.574 3.103zm.982-8.875c-.938-2.042-2.22-3.686-3.547-4.703-1.389-1.061-2.831-1.441-4.007-.91h-.009c-1.176.539-1.831 1.891-1.946 3.633-.106 1.679.292 3.748 1.221 5.79l.018.027c.928 2.042 2.22 3.686 3.538 4.702 1.388 1.052 2.821 1.441 3.997.911l.018-.009c1.177-.53 1.84-1.883 1.946-3.624.106-1.68-.292-3.74-1.221-5.791l-.008-.026zm82.574 20.12h-7.305c-.752 0-1.265-.089-1.566-.389-.301-.319-.442-.884-.442-1.83l-.009-31.727c0-1.653.062-2.696.513-3.368.433-.645 1.291-1.007 2.883-1.299l23.519-2.891c1.609-.185 1.786.195 2.193 1.026l.186.389 1.442 2.873c.283.486.522.777.822.99.301.212.628.327 1.097.45.495.177.911.389 1.256.655.486.362.805.822.946 1.334.133.522.089 1.114-.132 1.768-.204.557-.531 1.15-1.009 1.777l-20.431 27.713-.239.319c-1.044 1.388-1.654 2.21-3.724 2.21zm4.228-1.83c6.333-9.317 13.931-18.882 20.679-28.032.513-.68.876-1.334 1.097-1.944.265-.778.319-1.503.15-2.149-.176-.654-.574-1.219-1.176-1.679-.398-.301-.876-.548-1.442-.751l-.026-.009c-.407-.106-.69-.195-.902-.354-.221-.15-.416-.389-.646-.787l-1.424-2.846-.177-.38c-.531-1.114-.787-1.618-2.848-1.379l-23.509 2.899h-.045c-1.777.336-2.75.752-3.299 1.574-.548.813-.628 1.945-.619 3.721l.009 31.727c0 1.131.195 1.83.628 2.281.442.442 1.097.583 2.017.583h7.305c2.389 0 3.07-.919 4.228-2.475zm-50.167-29.039c8.119-2.122 16.018-3.731 23.951-4.889h.009c1.292-.177 1.928.08 2.229.628.327.61.327 1.609.327 2.802v28.332c0 1.282-.106 2.307-.601 2.979-.478.654-1.362 1.017-2.945 1.017H260.15c-1.689 0-3.149-.213-4.44-.681a9.149 9.149 0 01-3.432-2.192l-15.027-15.718a4.046 4.046 0 01-.672-.946c-.239-.45-.31-.892-.239-1.308.079-.424.318-.831.743-1.22a5.226 5.226 0 011.141-.76c8.8-3.253 17.132-5.905 25.243-8.044zm-25.509 7.461c-.539.274-.973.565-1.309.875-.53.486-.831 1.016-.937 1.573-.098.557 0 1.132.283 1.706.194.372.46.743.778 1.096l15.036 15.709.018.026c1.088 1.079 2.291 1.848 3.662 2.343 1.371.495 2.91.725 4.661.725h26.287c1.813 0 2.856-.46 3.467-1.282.583-.813.716-1.953.716-3.359v-28.332c0-1.273 0-2.351-.407-3.103-.433-.795-1.256-1.175-2.865-.963h-.018a218.569 218.569 0 00-24.023 4.915c-8.146 2.139-16.495 4.8-25.313 8.062l-.036.009zm41.323-71.012h.009c4.237-.76 6.934-.724 8.553.266 1.574.963 2.14 2.89 2.14 5.931l.009 38.251c0 1.847-.539 3.173-1.601 4.11-1.088.955-2.724 1.538-4.891 1.883-8.88 1.043-17.628 2.679-26.26 4.818-8.641 2.139-17.159 4.773-25.597 7.788-1.212.433-2.432.504-3.511.247-1.044-.256-1.946-.822-2.556-1.688l-4.626-6.533c-.575-.937-.955-1.75-.929-2.793.027-1.088.478-2.431 1.566-4.429l.008-.009c7.837-15.982 16.664-27.068 26.34-34.591 9.659-7.505 20.157-11.474 31.346-13.251zm-58.26 47.55c-1.133 2.087-1.601 3.527-1.637 4.712-.026 1.202.389 2.113 1.017 3.138l4.653 6.568c.699.999 1.733 1.653 2.927 1.945 1.194.292 2.548.203 3.874-.265 8.43-3.006 16.929-5.631 25.535-7.77 8.606-2.131 17.327-3.766 26.181-4.801l.035-.008c2.291-.363 4.025-.99 5.21-2.034 1.203-1.06 1.813-2.537 1.813-4.587l-.009-38.251c0-3.271-.646-5.374-2.45-6.471-1.751-1.087-4.59-1.14-8.986-.353-11.295 1.785-21.891 5.79-31.638 13.383-9.747 7.567-18.636 18.715-26.525 34.794zm74.499 64.39v-12.685h15.284l-5.705 7.09c-1.327 1.547-2.547 2.961-4.069 3.978-1.432.963-3.166 1.564-5.51 1.617zm0-117.403h21.387c4.909 0 8.455.522 11.038 1.53 2.53.981 4.122 2.431 5.157 4.287 1.618 2.926 2.998 9.644 4.095 17.309 1.592 11.164 2.574 24.283 2.821 30.851l-5.059 1.361c-1.592.425-2.538 1.362-2.945 2.405-.213.539-.274 1.114-.213 1.662a3.36 3.36 0 00.566 1.511c.558.796 1.478 1.353 2.672 1.353 1.415 0 2.352.168 2.918.68.549.487.77 1.344.779 2.705-.699 1.883-1.769 3.908-3.459 6.498l-23.969 31.93H295.52V132.679zm43.888 63.498c-.053.203-.124.406-.186.609-.15-.707-.407-1.246-.84-1.635-.699-.628-1.778-.849-3.343-.849-.964 0-1.707-.433-2.15-1.069a2.894 2.894 0 01-.46-1.229c-.053-.442.009-.91.177-1.344.345-.875 1.15-1.653 2.521-2.024l4.909-1.335c0 3.731-.027 6.338-.628 8.876zm-44.534-5.066c-9.764.999-20.36 2.864-31.779 5.587-11.436 2.723-23.704 6.312-36.768 10.714-3.962-5.145-7.889-10.493-11.745-16.142 3.537-8.318 7.562-15.823 12.117-22.453 4.582-6.674 9.694-12.473 15.354-17.353 7.067-6.082 14.462-10.776 23.032-13.958 8.491-3.147 18.159-4.782 29.789-4.818v58.423zm0 45.65h-28.179c-6.333 0-10.118-.363-12.984-1.388-2.839-1.017-4.794-2.705-7.465-5.375l-.009-.009c-5.563-5.277-10.959-11.271-16.239-17.803-1.106-1.353-2.167-2.829-3.255-4.235 12.958-4.367 25.137-7.92 36.503-10.634 11.374-2.714 21.917-4.57 31.628-5.569v45.013zm0 13.339h-55.863c-3.945 0-6.74-.804-8.836-2.201-2.096-1.388-3.529-3.368-4.723-5.702-2.486-5.277-4.9-10.546-7.12-15.806-2.229-5.259-4.281-10.537-6.068-15.832-1.079-4.004-1.088-7.682-.548-10.9.513-3.005 1.503-5.595 2.556-7.726a335.277 335.277 0 0011.569 15.895c0 .026-.018.053 0 .088.027.097.115.159.212.186 1.15 1.485 2.282 3.049 3.441 4.49 5.298 6.551 10.72 12.553 16.292 17.857 2.733 2.731 4.75 4.464 7.713 5.525 2.945 1.052 6.792 1.423 13.196 1.423h28.179V250.1zm10.712-5.198c10.339-12.057 21.324-27.023 30.213-39.718 2.388-3.65 3.609-6.232 4.228-8.866.619-2.625.646-5.277.646-9.096v-.009c-.213-6.383-1.203-20.005-2.848-31.497-1.106-7.735-2.503-14.524-4.166-17.521-1.106-1.989-2.795-3.535-5.493-4.587-2.653-1.026-6.271-1.565-11.259-1.565h-21.705c-11.861 0-21.688 1.662-30.338 4.862-8.641 3.209-16.106 7.947-23.226 14.082-5.705 4.915-10.853 10.749-15.47 17.468-4.599 6.709-8.668 14.294-12.232 22.709-1.168 2.254-2.291 5.092-2.848 8.389a26.189 26.189 0 00.557 11.165l.009.027c1.795 5.313 3.856 10.608 6.094 15.894 2.238 5.304 4.644 10.572 7.129 15.823l.009.009c1.238 2.44 2.724 4.5 4.935 5.958 2.202 1.468 5.112 2.308 9.19 2.308h56.191c2.662 0 4.581-.663 6.182-1.742 1.592-1.061 2.848-2.51 4.202-4.093zm15.575-2.555c1.398 0 2.291.752 2.671 1.724.159.38.23.805.23 1.22 0 .416-.071.84-.23 1.22-.38.972-1.273 1.724-2.671 1.724-1.397 0-2.291-.752-2.68-1.724a3.363 3.363 0 010-2.44c.389-.972 1.283-1.724 2.68-1.724zm-3.272 1.486a3.909 3.909 0 00-.275 1.458c0 .495.089.99.275 1.459.486 1.193 1.565 2.13 3.272 2.13 1.698 0 2.786-.937 3.264-2.13a3.96 3.96 0 00.283-1.459c0-.495-.097-.999-.283-1.458-.478-1.194-1.566-2.131-3.264-2.131-1.707 0-2.786.937-3.272 2.131zm4.758-7.744l.018.009c.265.132.575.3.973.486l4.687 2.21c.425.238.682.521.779.866v.009c.097.371.026.84-.186 1.441l-3.529 8.124c-.487 1.131-.796 1.732-1.212 2.015-.398.274-.982.283-2.016.239l-10.649-.495c-.407-.027-.735-.124-.947-.283a.77.77 0 01-.194-.23.58.58 0 01-.054-.283c.018-.203.115-.442.328-.707l9.694-12.685c1.043-1.362 1.203-1.291 2.308-.716zm-2.813.336l-9.702 12.676c-.283.371-.434.734-.451 1.061a1.12 1.12 0 00.123.592c.08.177.204.336.372.46.31.23.761.38 1.309.415l10.658.495c1.167.053 1.831.036 2.397-.344.539-.372.893-1.043 1.442-2.299l3.537-8.159c.257-.725.328-1.317.204-1.821l-.009-.018c-.141-.512-.495-.919-1.079-1.255l-4.723-2.219c-.372-.177-.69-.345-.955-.486h-.018c-1.53-.796-1.742-.893-3.105.902zm86.688-47.754l.009-.017c.195-.469.637-.84 1.318-.84.699 0 1.15.38 1.335.857.08.195.115.398.115.61 0 .213-.035.425-.115.619-.185.478-.636.858-1.335.858-.69 0-1.132-.38-1.327-.858a1.644 1.644 0 01-.115-.619c0-.212.036-.415.115-.61zm1.327 2.723c1.008 0 1.645-.557 1.928-1.255a2.39 2.39 0 00.168-.858 2.38 2.38 0 00-.168-.848c-.283-.699-.92-1.256-1.928-1.256-.982 0-1.628.54-1.911 1.238l-.008.018a2.348 2.348 0 000 1.706c.283.698.928 1.255 1.919 1.255zm13.718 18.75c-.274.689-.902 1.211-1.884 1.211-.982 0-1.61-.522-1.875-1.211a2.321 2.321 0 01-.168-.858c0-.292.062-.592.168-.857.265-.681.893-1.211 1.875-1.211s1.61.53 1.884 1.211c.097.265.159.565.159.857 0 .301-.062.592-.159.858zm-1.884-3.563c-1.282 0-2.105.707-2.468 1.618a2.92 2.92 0 000 2.183c.363.911 1.186 1.609 2.468 1.609 1.283 0 2.114-.698 2.468-1.609a2.92 2.92 0 000-2.183c-.354-.911-1.185-1.618-2.468-1.618zm-243.426 79.94a22.89 22.89 0 01-16.221 6.718c-6.333 0-12.064-2.573-16.213-6.718a22.837 22.837 0 01-6.713-16.204c0-6.321 2.565-12.049 6.713-16.204a22.862 22.862 0 0116.213-6.709 22.879 22.879 0 0116.221 6.709c4.139 4.155 6.713 9.883 6.713 16.204a22.837 22.837 0 01-6.713 16.204zm-16.221-39.754a23.495 23.495 0 00-16.664 6.896 23.468 23.468 0 00-6.899 16.654c0 6.506 2.636 12.394 6.899 16.663a23.495 23.495 0 0016.664 6.895c6.51 0 12.409-2.634 16.672-6.895 4.263-4.269 6.899-10.157 6.899-16.663a23.468 23.468 0 00-6.899-16.654 23.514 23.514 0 00-16.672-6.896zm-8.677 13.287v-.018c.124-.407.433-.601.752-.628.124-.008.265.009.389.045h.018c.124.044.239.106.336.185l.009.009c.247.203.38.531.256.937-.124.416-.433.619-.752.637a.96.96 0 01-.389-.036 1.129 1.129 0 01-.354-.176c-.256-.204-.398-.54-.265-.955zm.433 1.741c.204.062.416.08.628.071.567-.053 1.097-.389 1.309-1.105.204-.69-.035-1.255-.468-1.609l-.018-.018a1.602 1.602 0 00-.531-.282l-.026-.009a1.737 1.737 0 00-.637-.071c-.557.053-1.079.38-1.3 1.078l-.009.018c-.212.707.044 1.282.486 1.636.168.132.363.229.566.291zm-4.51 4.128a1 1 0 01.345-.185l.008-.009a1.13 1.13 0 01.381-.044c.327.018.628.203.769.619.133.415 0 .751-.247.954a1.027 1.027 0 01-.345.195 1.015 1.015 0 01-.39.053c-.327-.027-.636-.212-.769-.628-.133-.406 0-.742.248-.955zm.477 2.219c.213.018.425-.017.628-.088.204-.062.398-.168.557-.301.434-.362.673-.946.452-1.644-.239-.698-.779-1.025-1.336-1.061a1.847 1.847 0 00-.619.071l-.009.009a1.572 1.572 0 00-.557.309c-.434.363-.681.937-.451 1.645.239.698.778 1.025 1.335 1.06zm.964 6.71a1.131 1.131 0 01-.292.256c-.274.177-.636.195-.981-.062-.354-.256-.443-.61-.363-.919a1.09 1.09 0 01.177-.354.964.964 0 01.292-.274c.274-.168.637-.194.982.071.353.256.433.61.353.919a1.02 1.02 0 01-.168.363zm-1.503-1.892a1.567 1.567 0 00-.469.433 1.644 1.644 0 00-.274.575c-.142.539-.009 1.158.592 1.591.593.442 1.221.389 1.699.097.176-.115.345-.265.468-.433.124-.168.221-.371.275-.575.141-.548 0-1.158-.593-1.591-.593-.442-1.221-.389-1.698-.097zm6.173 8.009c-.115.301-.398.53-.84.522-.433 0-.707-.239-.822-.54a1.14 1.14 0 01-.071-.389 1.47 1.47 0 01.079-.389c.124-.3.407-.521.85-.521.424 0 .707.239.813.548a.98.98 0 01.071.389.915.915 0 01-.08.38zm-.796-1.954c-.743-.008-1.229.389-1.441.911-.08.194-.124.415-.124.628-.009.212.026.424.106.627.203.522.672.937 1.406.946.743.009 1.221-.389 1.442-.91a1.65 1.65 0 00.124-.628 1.643 1.643 0 00-.106-.619c-.204-.53-.673-.946-1.407-.955zm7.536 4.747c-.363.239-.716.204-.982.018a1.186 1.186 0 01-.274-.283.984.984 0 01-.159-.371c-.062-.309.044-.663.398-.893.371-.247.725-.203.991-.018.106.071.203.177.274.283l.017.009c.062.115.115.23.142.354.062.318-.044.672-.407.901zm.778-1.617a1.649 1.649 0 00-.442-.451c-.46-.327-1.079-.407-1.698 0-.619.415-.787 1.017-.672 1.565.035.203.124.406.247.583.115.177.266.336.434.46.469.318 1.088.397 1.707 0 .619-.416.787-1.017.672-1.565a1.539 1.539 0 00-.23-.575l-.018-.017zm6.979-.911c-.159.407-.478.584-.796.584a1.17 1.17 0 01-.389-.071 1.204 1.204 0 01-.336-.212l-.018-.009c-.221-.221-.327-.557-.177-.955.159-.415.478-.583.796-.583.133 0 .265.026.389.071.124.053.248.123.336.203.239.23.354.574.195.972zm-.301-1.768a1.647 1.647 0 00-.619-.115c-.566 0-1.123.301-1.389.99-.265.672-.07 1.256.337 1.645l.017.017c.159.142.336.257.54.336.194.08.407.115.628.115.557-.009 1.114-.3 1.38-.99.265-.681.061-1.273-.354-1.662a1.798 1.798 0 00-.54-.336zm4.971-4.11c-.115.079-.23.141-.354.177a1.011 1.011 0 01-.398.026c-.318-.035-.619-.239-.734-.654-.115-.424.035-.752.292-.946.106-.08.23-.141.363-.177a.967.967 0 01.389-.026c.318.035.619.238.734.663.115.415-.035.742-.292.937zm-.371-2.237a1.679 1.679 0 00-.628.053 1.653 1.653 0 00-.575.274c-.451.345-.717.911-.531 1.618.203.716.716 1.07 1.282 1.131a1.721 1.721 0 001.203-.327c.451-.335.717-.91.531-1.617-.203-.716-.716-1.07-1.282-1.132zm.628-6.241a.952.952 0 01-.292.274c-.275.168-.637.195-.982-.062-.354-.265-.434-.618-.354-.928.035-.124.089-.247.168-.353.089-.106.177-.204.292-.266.274-.176.637-.194.991.062.345.265.433.61.345.92a.833.833 0 01-.168.353zm-1.495-1.883a1.866 1.866 0 00-.478.433 1.723 1.723 0 00-.274.575c-.142.539 0 1.158.593 1.591.592.442 1.22.398 1.698.106a1.87 1.87 0 00.469-.442c.123-.159.221-.362.274-.574.15-.539.009-1.149-.593-1.591-.592-.442-1.212-.389-1.689-.098zm-12.188-8.088c.345-.257.707-.239.981-.08.115.071.213.168.292.274.08.106.142.221.177.354.08.309 0 .663-.345.928-.354.256-.707.239-.99.071a1.624 1.624 0 01-.292-.265 1.111 1.111 0 01-.168-.363c-.089-.309-.009-.663.345-.919zm-.213 2.095c.478.292 1.106.327 1.699-.115.592-.442.725-1.052.583-1.591a1.788 1.788 0 00-.283-.584 1.775 1.775 0 00-.468-.424c-.487-.292-1.115-.336-1.699.106-.592.442-.725 1.052-.583 1.6.053.212.15.398.283.575.123.168.283.318.468.433zm7.607.574c.124-.3.398-.53.84-.53.434 0 .708.23.823.53l.009.009c.044.115.07.248.07.38a.984.984 0 01-.079.389c-.115.301-.389.531-.823.531-.442 0-.716-.23-.84-.531a1.095 1.095 0 010-.778zm.84 1.945c.734 0 1.212-.406 1.424-.937.071-.194.115-.406.115-.619 0-.203-.035-.406-.115-.61v-.017c-.212-.522-.69-.928-1.424-.928-.743 0-1.22.406-1.424.928a1.533 1.533 0 00-.124.627c0 .213.036.425.124.619.204.531.681.937 1.424.937zm1.141 12.615c-1.229 3.085-4.051 5.489-8.473 5.489-4.414 0-7.235-2.404-8.465-5.489a10.21 10.21 0 01-.725-3.81c0-1.317.239-2.626.725-3.828 1.23-3.076 4.051-5.489 8.465-5.489 4.422 0 7.244 2.413 8.473 5.489.478 1.202.725 2.511.725 3.828 0 1.299-.247 2.608-.725 3.81zm-8.473-13.764c-4.714 0-7.739 2.581-9.057 5.896a10.887 10.887 0 00-.77 4.058 10.9 10.9 0 00.77 4.048c1.318 3.307 4.343 5.897 9.057 5.897 4.723 0 7.739-2.59 9.066-5.897a10.9 10.9 0 00.769-4.048c0-1.397-.256-2.785-.769-4.058-1.327-3.315-4.343-5.896-9.066-5.896zm2.069 10.891c-.3.751-.99 1.335-2.069 1.335s-1.769-.584-2.07-1.335a2.606 2.606 0 010-1.883c.301-.751.991-1.335 2.07-1.335 1.079 0 1.769.584 2.069 1.335.124.292.177.619.177.937 0 .327-.053.654-.177.946zm-2.069-3.854c-1.38 0-2.264.76-2.662 1.732a3.334 3.334 0 00-.222 1.176c0 .407.08.813.222 1.184.398.973 1.282 1.733 2.662 1.733 1.388 0 2.273-.76 2.662-1.733.15-.371.221-.777.221-1.184 0-.398-.071-.804-.221-1.176-.389-.972-1.274-1.732-2.662-1.732zm14.364 17.264a20.241 20.241 0 01-14.364 5.949 20.253 20.253 0 01-14.364-5.949 20.245 20.245 0 01-5.944-14.356 20.257 20.257 0 015.944-14.356 20.28 20.28 0 0114.364-5.941 20.268 20.268 0 0114.364 5.941c3.67 3.677 5.952 8.751 5.952 14.356a20.256 20.256 0 01-5.952 14.356zm-14.364-35.289a20.918 20.918 0 00-14.815 6.126 20.893 20.893 0 00-6.13 14.807 20.88 20.88 0 006.13 14.807 20.888 20.888 0 0014.815 6.135 20.86 20.86 0 0014.815-6.135 20.853 20.853 0 006.138-14.807 20.867 20.867 0 00-6.138-14.807 20.89 20.89 0 00-14.815-6.126zm240.834 37.137c-4.148 4.145-9.879 6.718-16.212 6.718s-12.064-2.573-16.213-6.718a22.837 22.837 0 01-6.713-16.204 22.852 22.852 0 016.713-16.204 22.862 22.862 0 0116.213-6.709 22.858 22.858 0 0116.212 6.709 22.855 22.855 0 016.722 16.204c0 6.329-2.573 12.058-6.722 16.204zm-16.212-39.754a23.495 23.495 0 00-16.664 6.896 23.468 23.468 0 00-6.899 16.654c0 6.506 2.636 12.394 6.899 16.663a23.495 23.495 0 0016.664 6.895c6.51 0 12.4-2.634 16.663-6.895 4.264-4.269 6.908-10.157 6.908-16.663s-2.644-12.394-6.908-16.654a23.493 23.493 0 00-16.663-6.896zm-8.686 13.287c.124-.416.434-.619.752-.646.133-.008.265.009.398.045a.87.87 0 01.345.185c.257.195.398.531.274.946-.132.416-.433.619-.752.637-.132.017-.274 0-.398-.036a1.34 1.34 0 01-.353-.176c-.239-.204-.381-.54-.266-.955zm.434 1.741c.212.062.424.089.636.071.567-.053 1.097-.389 1.31-1.105.212-.698-.045-1.273-.487-1.627a1.74 1.74 0 00-.566-.291 1.669 1.669 0 00-.628-.071c-.566.053-1.088.389-1.309 1.096-.212.707.044 1.282.486 1.636.168.132.363.229.558.291zm-4.502 4.128a1 1 0 01.345-.185.964.964 0 01.389-.053c.318.018.628.203.76.619.142.415 0 .751-.238.954a1.017 1.017 0 01-.345.195 1.035 1.035 0 01-.398.053c-.319-.027-.628-.212-.761-.628a.839.839 0 01.248-.955zm.477 2.219c.213.018.425-.017.628-.088.204-.062.389-.168.557-.301.434-.362.673-.946.443-1.644-.23-.698-.77-1.025-1.327-1.061a1.674 1.674 0 00-.628.08 1.572 1.572 0 00-.557.309c-.442.363-.681.937-.451 1.645.23.698.769 1.025 1.335 1.06zm.964 6.71h-.008a.97.97 0 01-.284.256c-.274.177-.636.195-.99-.062-.354-.256-.434-.61-.354-.919a1.09 1.09 0 01.177-.354.964.964 0 01.292-.274c.274-.168.628-.194.982.071.353.256.433.61.353.919a1.47 1.47 0 01-.168.363zm-1.503-1.892a1.567 1.567 0 00-.469.433 1.5 1.5 0 00-.274.575c-.142.539-.009 1.158.592 1.591.593.442 1.221.389 1.699.097.176-.115.336-.256.46-.424l.008-.009c.124-.168.221-.362.275-.575.141-.548 0-1.158-.593-1.591-.593-.442-1.221-.397-1.698-.097zm6.173 8.009c-.123.301-.406.53-.84.522-.433 0-.707-.239-.822-.54a.952.952 0 01-.062-.389c0-.132.017-.265.07-.389.124-.3.407-.521.841-.521.433 0 .707.239.822.548a.98.98 0 01.071.389.915.915 0 01-.08.38zm-.804-1.954c-.735-.008-1.221.389-1.433.911-.08.194-.124.415-.133.628 0 .212.035.424.115.627.195.522.672.937 1.406.946.743.009 1.221-.389 1.433-.91.089-.195.124-.407.133-.628 0-.212-.036-.424-.106-.619-.204-.53-.673-.946-1.415-.955zm7.544 4.747c-.363.239-.725.204-.99.018a1.367 1.367 0 01-.275-.283 1.154 1.154 0 01-.15-.371c-.062-.309.035-.663.407-.893.362-.247.716-.203.982-.018l.017.009c.098.071.186.168.257.274a.825.825 0 01.15.363c.071.318-.026.672-.398.901zm.363-2.059l-.027-.009c-.46-.327-1.079-.407-1.698 0-.619.415-.787 1.017-.681 1.565.044.203.133.406.248.583.123.177.274.336.451.46.46.318 1.079.397 1.698 0 .619-.416.787-1.017.672-1.565a1.501 1.501 0 00-.248-.592 1.52 1.52 0 00-.415-.442zm7.394-.469c-.159.407-.478.584-.796.584a1.17 1.17 0 01-.389-.071.99.99 0 01-.336-.212l-.018-.009c-.23-.221-.327-.557-.177-.955.159-.415.478-.583.796-.583.133 0 .265.026.389.071.124.053.239.123.336.212l.018.009c.221.221.336.556.177.954zm.239-1.432a1.704 1.704 0 00-.54-.336 1.647 1.647 0 00-.619-.115c-.566 0-1.123.301-1.388.99-.266.672-.071 1.256.327 1.645l.026.017c.151.142.336.257.54.336.194.08.407.115.619.115.566-.009 1.123-.3 1.389-.99.265-.672.062-1.255-.337-1.644l-.017-.018zm3.989-6.046a.887.887 0 00-.372.026l-.017.009a1.032 1.032 0 00-.363.168c-.256.194-.407.522-.292.946.115.415.416.619.734.654a.967.967 0 00.389-.026.967.967 0 00.354-.177c.266-.195.416-.522.301-.937-.115-.425-.416-.628-.734-.663zm.699-6.878a.952.952 0 01-.292.274c-.275.168-.637.195-.982-.062-.354-.265-.433-.618-.354-.928.027-.124.097-.247.168-.353a.938.938 0 01.292-.266c.274-.176.637-.194.991.062.345.265.433.61.353.92a1.113 1.113 0 01-.176.353zm-1.504-1.883a1.987 1.987 0 00-.469.433 1.723 1.723 0 00-.274.575c-.142.539-.009 1.158.593 1.591.592.442 1.22.398 1.698.106.186-.123.345-.274.469-.442.123-.159.221-.362.274-.574.141-.539.009-1.149-.584-1.591-.601-.442-1.229-.389-1.707-.098zm-12.179-8.088c.345-.257.707-.239.981-.08.115.071.213.168.292.274.08.106.142.221.177.354.08.309 0 .663-.345.928-.354.256-.716.239-.99.071a1.659 1.659 0 01-.292-.265 1.358 1.358 0 01-.177-.363c-.08-.309 0-.663.354-.919zm-.213 2.095c.478.292 1.106.327 1.699-.115.592-.442.725-1.052.583-1.591a1.989 1.989 0 00-.283-.584 1.775 1.775 0 00-.468-.424c-.487-.292-1.115-.336-1.699.106-.601.442-.734 1.052-.583 1.6.053.212.15.398.274.575.132.168.292.318.477.433zm7.607.574c.115-.3.398-.53.84-.53.434 0 .708.23.823.53l.009.009c.044.115.07.248.07.38a.984.984 0 01-.079.389c-.115.301-.389.531-.823.531-.442 0-.725-.23-.84-.531v-.017a.873.873 0 01-.071-.372c0-.141.027-.265.071-.389zm-.584 1.008c.204.531.681.937 1.424.937.734 0 1.212-.406 1.415-.937a1.632 1.632 0 00.009-1.229l-.009-.017c-.203-.522-.681-.928-1.415-.928-.743 0-1.22.406-1.424.928a1.533 1.533 0 00-.124.627c0 .204.036.416.115.601l.009.018zm2.565 13.552c-1.229 3.085-4.06 5.489-8.473 5.489-4.414 0-7.235-2.404-8.473-5.489a10.364 10.364 0 01-.717-3.81c0-1.317.239-2.626.717-3.828 1.238-3.076 4.059-5.489 8.473-5.489 4.413 0 7.244 2.413 8.473 5.489.478 1.202.717 2.511.717 3.828 0 1.299-.239 2.608-.717 3.81zm-8.473-13.764c-4.714 0-7.739 2.581-9.057 5.896a10.887 10.887 0 00-.77 4.058 10.9 10.9 0 00.77 4.048c1.318 3.307 4.343 5.897 9.057 5.897s7.739-2.59 9.066-5.897a10.9 10.9 0 00.769-4.048c0-1.397-.256-2.785-.769-4.058-1.327-3.315-4.352-5.896-9.066-5.896zm2.07 10.891c-.301.751-.991 1.335-2.07 1.335-1.079 0-1.769-.584-2.07-1.335a2.606 2.606 0 010-1.883c.301-.751.991-1.335 2.07-1.335 1.079 0 1.769.584 2.07 1.335a2.615 2.615 0 010 1.883zm-2.07-3.854c-1.38 0-2.273.76-2.654 1.732-.159.372-.23.778-.23 1.176 0 .407.071.813.23 1.184.381.973 1.274 1.733 2.654 1.733s2.273-.76 2.662-1.733c.142-.371.221-.777.221-1.184 0-.398-.071-.804-.221-1.176-.389-.972-1.282-1.732-2.662-1.732zm14.364 17.264a20.241 20.241 0 01-14.364 5.949 20.253 20.253 0 01-14.364-5.949 20.245 20.245 0 01-5.944-14.356 20.257 20.257 0 015.944-14.356 20.28 20.28 0 0114.364-5.941 20.268 20.268 0 0114.364 5.941c3.67 3.677 5.952 8.751 5.952 14.356a20.256 20.256 0 01-5.952 14.356zm-14.364-35.289a20.918 20.918 0 00-14.815 6.126 20.856 20.856 0 00-6.13 14.807 20.842 20.842 0 006.13 14.807 20.888 20.888 0 0014.815 6.135c5.784 0 11.02-2.343 14.815-6.135a20.853 20.853 0 006.138-14.807 20.867 20.867 0 00-6.138-14.807 20.921 20.921 0 00-14.815-6.126zm50.397-54.136a3.47 3.47 0 01-1.556 1.671l-7.041 2.935v-4.906a.316.316 0 00-.318-.318h-.283v-1.326c1.627-.478 2.671-1.556 3.122-2.856a4.978 4.978 0 00.239-2.245 5.01 5.01 0 00-.743-2.131c-.778-1.219-2.114-2.095-3.954-2.095-1.839 0-3.184.876-3.962 2.095a4.996 4.996 0 00-.743 2.131 5.092 5.092 0 00.239 2.245c.46 1.3 1.494 2.387 3.122 2.856v1.326h-.283a.317.317 0 00-.319.318v6.532l-6.615 2.759c-1.23.274-2.221.282-3.087.026-.876-.265-1.637-.813-2.415-1.653l-.486-.575c-1.248-1.449-2.397-2.802-3.193-4.614-.283-.654-.416-1.291-.204-1.918.221-.654.814-1.344 1.99-2.104l11.914-8.884c1.69-1.264 1.743-1.256 3.193-.999.292.044.637.106 1.053.168l6.368.954c2.645.407 2.689.637 3.184 3.059.336 1.671.743 3.421 1.026 5.083.15.672.133 1.609-.248 2.466zm-9.234 8.23c0 .186-.362.221-.857.221-.248 0-.478-.009-.708-.017a29.162 29.162 0 00-.849-.018.162.162 0 01-.133-.062h-.009a.201.201 0 01-.053-.124v-8.026c0-.053.027-.106.062-.133v-.009a.204.204 0 01.133-.044h2.149c.168.027.265.088.265.186v8.026zm-.601-12.11v3.226c-.088 0-.168-.009-.256-.009-.204 0-.46.009-.735.018-.123.009-.274.009-.415.018v-3.253a2.8 2.8 0 00.707.088c.23 0 .469-.027.699-.088zm-.699-.557c-.982 0-1.61-.531-1.884-1.203a2.34 2.34 0 01-.159-.857c0-.301.053-.592.159-.866.274-.672.902-1.203 1.884-1.203.982 0 1.601.531 1.875 1.203.107.274.168.565.168.866 0 .292-.061.592-.168.857-.274.672-.893 1.203-1.875 1.203zm-1.344 1.847c-1.318-.433-2.141-1.352-2.521-2.431a4.415 4.415 0 01-.212-1.953c.079-.663.301-1.3.654-1.857.664-1.052 1.822-1.794 3.423-1.794 1.592 0 2.751.742 3.423 1.794.345.557.575 1.194.646 1.857a4.415 4.415 0 01-.212 1.953c-.372 1.079-1.203 1.998-2.521 2.431v-1.556c.531-.291.92-.724 1.132-1.255.141-.353.203-.725.203-1.096 0-.371-.062-.751-.203-1.096-.363-.902-1.185-1.609-2.468-1.609-1.282 0-2.114.707-2.467 1.609a2.936 2.936 0 000 2.192c.203.531.601.964 1.123 1.255v1.556zm11.728-5.083c-.575-2.828-.628-3.094-3.724-3.562l-6.359-.955c-.416-.062-.752-.124-1.044-.177-1.707-.291-1.778-.3-3.679 1.114l-11.896 8.884c-1.292.84-1.964 1.636-2.229 2.422-.274.814-.115 1.592.221 2.378.831 1.901 2.008 3.28 3.29 4.783l.495.574.009.009c.849.919 1.707 1.521 2.698 1.821.991.301 2.087.292 3.432-.018l.062-.017 6.394-2.661v1.308a.79.79 0 00.239.566l.009.018c.15.141.354.238.584.238.292 0 .566.009.822.018.275.009.531.027.735.027.866 0 1.494-.151 1.494-.867v-2.935l7.333-3.058a4.096 4.096 0 001.848-1.98 4.79 4.79 0 00.283-2.864l-1.017-5.066zm-8.712 76.766c.044.265.097.522.124.796l.186 1.821c.026.336.035.68.053 1.016l-7.872 4.005-.54-3.625 8.049-4.013zm-6.74-17.556l.982 1.6c.31.504.637.999.92 1.521l-5.351 7.063-2.07-3.024 5.519-7.16zm-41.906-17.812l4.882 7.372-3.547.946-4.9-7.54c.31-.08.628-.168.938-.239l2.034-.451c.195-.026.398-.053.593-.088zm3.891-10.971c.177 1.98.407 3.872.743 5.569.319 1.583.743 2.979 1.265 4.182a42.52 42.52 0 00-5.758.557c-.035-.009-.053-.045-.088-.036l-.487.106c-.557-1.202-.99-2.66-1.326-4.314-.328-1.661-.549-3.518-.735-5.48 2.194-.283 4.326-.495 6.386-.584zm33.283 16.292c1.318-1.122 2.671-2.448 4.051-3.889a59.003 59.003 0 014.626 4.428c-1.353 1.424-2.689 2.732-3.989 3.828-1.274 1.079-2.494 1.927-3.679 2.52-.31-.328-.593-.69-.911-1.008-1.195-1.194-2.486-2.29-3.813-3.333 1.194-.619 2.433-1.467 3.715-2.546zm-17.415 4.411l-3.609-.671-1.176-8.946.168.026 2.087.495c.434.097.867.212 1.292.327l1.238 8.769zm13.002-1.591l-2.123 8.584-3.096-1.972 2.238-8.725c.106.071.221.124.318.195l1.592 1.114c.363.265.726.53 1.071.804zm-.681-1.308c-.54-.389-1.079-.787-1.637-1.149l-.663-.469c-.035-.017-.071-.035-.106-.044-.027-.009-.044.009-.062.009a42.398 42.398 0 00-10.702-4.774c-.018-.009-.009-.035-.036-.035l-1.468-.354c-.716-.176-1.433-.362-2.158-.504l-.584-.141a.248.248 0 00-.115 0c-.017 0-.035.018-.044.027-2.415-.425-4.865-.681-7.394-.681-.186 0-.363.026-.54.026-.548-1.193-.981-2.634-1.309-4.269-.327-1.662-.557-3.519-.734-5.472 10.234-.363 18.804 1.609 26.163 5.321 3.626 1.83 6.961 4.084 10.048 6.692-1.354 1.406-2.689 2.723-3.98 3.819-1.327 1.114-2.601 2.007-3.821 2.599l-.858-.601zm-44.375-19.271a6.66 6.66 0 011.946-1.123c3.317-1.158 7.306-2.183 11.605-2.997 4.484-.866 9.304-1.52 14.019-1.918a63.208 63.208 0 0111.922 4.296 60.557 60.557 0 0111.384 7.108c2.971 2.333 5.864 5.021 8.667 8.115 2.804 3.094 5.528 6.603 8.155 10.563.336.504.558 1.035.734 1.565-7.924-11.607-17.707-20.049-29.453-24.478-11.206-4.225-24.181-4.8-38.979-1.131zm38.758 1.732c12.02 4.527 21.98 13.287 29.975 25.406.053.734.009 1.459-.186 2.14-.203.689-.15.99-.203.972a10.485 10.485 0 01-.31-.477c-.106-.168-.221-.363-.353-.566-2.733-4.013-5.661-7.744-8.845-11.121-.009-.008.009-.026 0-.035-.009-.009-.027.009-.036 0-1.618-1.715-3.299-3.35-5.068-4.853v-.009c-3.21-2.723-6.677-5.092-10.463-7.001-7.527-3.793-16.319-5.799-26.817-5.375l-.009-.009c-.009 0-.009.009-.009.009-2.22.089-4.546.327-6.917.645-.035-.008-.062-.035-.097-.035-.044.009-.071.044-.115.062-1.247.168-2.485.318-3.785.557-2.167.389-4.096.91-5.387 1.255-.867.23-1.353.407-1.389.398a5.155 5.155 0 01-.875-.645c-.08-.08-.212 0-.177-.053l.018-.053c.247-.628.734-1.379 1.362-2.087 15.124-3.933 28.33-3.412 39.686.875zm-44.852 18.732c.319-.238.646-.486.982-.725l1.566-1.096c.15-.097.3-.177.442-.265l7.35 4.915-2.901 2.245-7.439-5.074zm-11.365 13.189l1.079-1.776c.265-.442.522-.911.814-1.344l8.747 1.52-1.751 3.227-8.889-1.627zm-4.927 15.93l.221-1.574c.098-.68.186-1.361.31-2.033l8.641-1.998-.353 3.651-8.819 1.954zm82.363 14.939l-9.429.425a.333.333 0 00-.292.23l-1.149 4.172c-.018.035-.018.071-.018.115a.318.318 0 00.336.301l9.004-.478a42.146 42.146 0 01-6.28 10.776l-8.809-3.439a.317.317 0 00-.363.089l-2.742 3.332a.326.326 0 00-.062.106.304.304 0 00.177.407l8.429 3.227a41.854 41.854 0 01-9.72 7.098l-6.731-6.656a.316.316 0 00-.371-.062l-3.857 1.989a.253.253 0 00-.079.062.312.312 0 00.008.45l6.439 6.286a41.57 41.57 0 01-12.807 2.705l-3.29-8.805a.315.315 0 00-.318-.221l-4.317.186c-.035 0-.079 0-.115.017a.32.32 0 00-.185.416l3.21 8.38c-4.537-.292-8.889-1.282-12.922-2.908l.752-9.424a.328.328 0 00-.204-.327l-3.989-1.662a.25.25 0 00-.115-.026.311.311 0 00-.336.292l-.645 9.016a42.314 42.314 0 01-9.491-7.116c-.292-.291-.548-.61-.831-.919l4.626-8.221a.338.338 0 00-.045-.372l-2.936-3.182c-.027-.026-.053-.053-.089-.071a.317.317 0 00-.433.124l-4.343 7.877a41.816 41.816 0 01-5.705-10.644l7.51-5.719a.316.316 0 00.106-.354l-1.424-4.093a.22.22 0 00-.053-.097.322.322 0 00-.451-.053l-7.12 5.507c-.708-3.049-1.115-6.214-1.115-9.476 0-1.193.08-2.369.177-3.536l9.225-2.051a.3.3 0 00.248-.274l.416-4.305c.008-.044 0-.08-.009-.124a.318.318 0 00-.381-.238l-8.818 2.042a41.618 41.618 0 013.98-11.05l9.296 1.706a.335.335 0 00.354-.159l2.061-3.81a.422.422 0 00.044-.106.323.323 0 00-.265-.372c-2.955-.512-5.944-.999-8.889-1.547a42.938 42.938 0 014.864-5.869c1.15-1.141 2.397-2.21 3.671-3.218l7.81 5.322c.106.07.256.07.371-.009l3.441-2.652a.54.54 0 00.062-.08.314.314 0 00-.08-.442l-7.474-5.003a41.461 41.461 0 0110.579-4.623l5.138 7.894a.33.33 0 00.363.159l4.193-1.132a.196.196 0 00.088-.035.317.317 0 00.097-.442l-4.97-7.496a43.927 43.927 0 015.545-.495.291.291 0 00.292.035c.018-.018.027-.035.044-.044.177-.009.354-.036.54-.036 2.459 0 4.856.257 7.199.663l1.239 9.353a.318.318 0 00.256.274l4.255.787c.035.009.07.017.115.009a.328.328 0 00.274-.363l-1.256-8.937c3.573 1.07 6.916 2.617 10.021 4.544l-2.344 9.105c-.044.141.009.3.133.38l3.67 2.325c.027.018.053.026.089.044a.329.329 0 00.389-.239l2.167-8.742a42.729 42.729 0 013.502 3.094c.337.336.628.716.956 1.052 0 .026-.009.053 0 .079.044.089.124.133.221.159a42.415 42.415 0 013.511 4.341l-5.767 7.478a.305.305 0 00-.008.38l2.432 3.572a.369.369 0 00.079.088c.142.106.345.08.452-.062l5.457-7.204c2.167 4.04 3.653 8.486 4.404 13.171l-8.446 4.208a.326.326 0 00-.177.336l.637 4.278a.425.425 0 00.035.106c.08.16.274.221.425.142l8.013-4.075c.018.548.08 1.087.08 1.644 0 3.722-.522 7.311-1.442 10.74zm-.257 1.026l-.69 2.095c-.115.336-.238.672-.362.999l-8.836.46.982-3.528 9.004-.406c-.036.124-.062.256-.098.38zm-10.437 17.75l-8.287-3.173 2.326-2.829 8.42 3.297a44.167 44.167 0 01-2.459 2.705zm-11.958 8.425l-1.999.91c-.061.027-.123.045-.194.071l-6.351-6.188 3.264-1.671 6.404 6.339c-.372.185-.752.362-1.124.539zm-17.15 4.013l-1.689-.009c-.389 0-.761-.035-1.141-.053l-3.158-8.238 3.662-.16 3.149 8.425c-.274 0-.548.026-.823.035zm-17.079-3.262l-2.202-1.034c-.363-.177-.734-.345-1.088-.53l.628-8.84 3.378 1.405-.716 8.999zm-15.381-11.182l-1.203-1.423c-.15-.195-.292-.407-.442-.602l4.263-7.743 2.485 2.696-4.404 7.85c-.23-.266-.469-.513-.699-.778zm-8.155-14.259l-.619-2.086a19.63 19.63 0 01-.257-1.017l6.988-5.41 1.203 3.465-7.165 5.455a7.428 7.428 0 01-.15-.407zm-6.793-14.162c-.079.062-.141.133-.141.248 0 .053.026.088.053.133-.982 4.411-1.937 8.963-2.786 13.825h-8.474c.593-6.391 1.814-12.941 3.388-19.43 1.601-6.621 3.582-13.18 5.67-19.43 1.99-5.958 4.272-11.978 7.075-17.698 2.76-5.639 6.015-11.005 9.977-15.726l5.882 2.104c.725.327 1.079.751 1.106 1.291.026.61-.31 1.396-.956 2.378l-.008.008c-5.237 7.612-9.854 16.734-13.807 27.74-2.618 7.293-4.936 15.497-6.979 24.557zm-17.946 14.206c2.857-15.028 7.518-32.168 15.01-48.946.133-.301.274-.593.407-.884l3.122 1.255a164.727 164.727 0 00-3.485 9.52c-2.096 6.268-4.086 12.845-5.687 19.475-1.592 6.541-2.804 13.136-3.405 19.58h-5.962zm-46.833 0v-18.13h22.563l25.119 10.855a276.365 276.365 0 00-1.503 7.275H273.24zm-.318-29.012h-37.484c-3.282 0-6.006-1.424-8.217-3.395-2.238-1.989-3.945-4.535-5.192-6.736a232.193 232.193 0 01-7.111-15.072 207.43 207.43 0 01-5.997-15.841c-1.566-4.491-2.034-8.442-1.769-12.014.256-3.571 1.238-6.753 2.583-9.715l.008-.017c3.998-9.185 8.129-17.194 12.525-24.142 4.396-6.948 9.074-12.845 14.196-17.822 7.863-7.655 16.345-13.03 25.349-16.442 8.995-3.403 18.521-4.853 28.48-4.658l14.841.008h8.093c6.855 0 12.25.283 16.231 1.715 3.909 1.406 6.456 3.943 7.65 8.434l.018.044c1.309 3.739 2.308 7.973 3.14 12.579.84 4.615 1.512 9.636 2.158 14.922.292 2.378.663 5.781.982 9.467.239 2.82.46 5.799.575 8.61.159 3.545.141 6.896-.221 9.769-.354 2.846-1.044 5.215-2.229 6.851l-.027.035c-3.317 5.357-6.607 10.351-9.959 15.284-3.37 4.942-6.802 9.804-10.419 14.913-1.831 2.573-3.892 5.092-5.953 7.602-2.052 2.52-4.104 5.03-5.961 7.638-1.601 2.042-3.211 4.058-5.227 5.543-2.008 1.467-4.423 2.44-7.669 2.44h-23.394zm-.319 8.247h-31.496v-7.611h31.496v7.611zm0 15.753h-11.011c-.018-.08-.018-.177-.045-.256-.168-.504-.566-.902-1.185-.902h-7.023c-.619 0-1.008.398-1.185.902-.026.079-.026.176-.035.256h-11.012v-15.116h31.496V278.6zm-19.892.292c0-.124.018-.239.045-.345.097-.265.292-.469.583-.469h7.023c.301 0 .495.204.584.469.026.106.044.221.053.345-.009.009-.018.017-.018.026 0 .009.009.018.018.036a2.128 2.128 0 01-.053.335c-.089.266-.283.469-.584.469h-7.023c-.291 0-.486-.203-.583-.469a1.374 1.374 0 01-.045-.335c0-.018.009-.027.009-.036 0-.009-.009-.017-.009-.026zm19.892 4.72h-31.496v-4.376h11.012c.009.089.009.177.035.257.177.504.566.901 1.185.901h7.023c.619 0 1.017-.397 1.185-.901.027-.08.027-.168.045-.257h11.011v4.376zm-32.133-18.767h-18.087l-4.971-12.261h10.552c2.096 1.565 4.555 2.652 7.474 2.652h5.032v9.609zm0 18.767h-10.481l-7.35-18.13h17.831v18.13zm-20.378 0c-1.628 0-2.574-.389-3.105-1.061-.486-.61-.628-1.502-.663-2.537h11.525l1.45 3.598h-9.207zm-4.741-13.383c-.69-.637-1.751-.893-3.352-.893h-9.358c-.009-.38-.035-.752-.053-1.132.009-.035.053-.062.053-.097l-.124-1.193a34.536 34.536 0 00-.194-1.892l-.115-1.202a.245.245 0 00-.036-.133c-.009-.027-.035-.027-.053-.053-.787-4.95-2.379-9.636-4.723-13.87 0-.009.009-.009.009-.018l-.911-1.476c-.389-.636-.752-1.29-1.176-1.9l-.177-.301a.413.413 0 00-.089-.088c-.009-.009-.017.008-.017 0-1.451-2.069-3.052-4.023-4.838-5.808-.69-.69-1.433-1.326-2.176-1.971h12.4v2.484c0 2.263 0 3.306 2.627 4.817l.053.027 12.657 4.658 11.825 29.19h-11.277v-6.038c0-1.467-.265-2.466-.955-3.111zm-13.771-5.888c.035.265.088.522.124.787l.176 1.83c.027.336.036.68.054 1.016l-7.863 4.005-.54-3.625 8.049-4.013zm-6.749-17.556l1.008 1.644c.301.486.62.973.903 1.477l-5.369 7.063-2.061-3.024 5.519-7.16zm5.785 34.272l-9.429.425a.322.322 0 00-.292.23l-1.158 4.172a.44.44 0 00-.018.115.318.318 0 00.336.301l9.004-.478a41.886 41.886 0 01-6.28 10.776l-8.809-3.439a.32.32 0 00-.363.089l-2.742 3.332a.22.22 0 00-.062.106c-.062.168.018.354.177.407l8.429 3.227a41.96 41.96 0 01-9.72 7.107l-6.731-6.665a.309.309 0 00-.363-.062l-3.865 1.989a1.281 1.281 0 00-.088.062.327.327 0 00.009.45l6.447 6.286a41.57 41.57 0 01-12.798 2.705l-3.299-8.805a.312.312 0 00-.31-.221l-4.325.186c-.035 0-.079 0-.115.017a.32.32 0 00-.185.416l3.21 8.38c-4.555-.292-8.898-1.282-12.922-2.908l.752-9.424a.333.333 0 00-.195-.327l-3.998-1.662a.25.25 0 00-.115-.026.311.311 0 00-.336.292l-.645 9.016a42.017 42.017 0 01-9.438-7.08c-.309-.31-.583-.646-.875-.964l4.617-8.212a.338.338 0 00-.045-.372l-2.936-3.182a.25.25 0 00-.089-.071.32.32 0 00-.433.124l-4.325 7.85a42.306 42.306 0 01-5.714-10.626l7.501-5.71a.303.303 0 00.106-.354l-1.424-4.093a.22.22 0 00-.053-.097.314.314 0 00-.443-.053l-7.12 5.507c-.707-3.058-1.123-6.223-1.123-9.476 0-1.193.08-2.369.177-3.536l9.216-2.051a.318.318 0 00.266-.274l.406-4.305a.288.288 0 000-.124.325.325 0 00-.38-.238l-8.818 2.042c.796-3.916 2.167-7.612 3.971-11.05l9.305 1.706a.341.341 0 00.354-.159l2.052-3.81a.422.422 0 00.044-.106c.026-.177-.089-.345-.257-.372-2.963-.512-5.952-.999-8.897-1.547a42.938 42.938 0 014.864-5.869 45.215 45.215 0 013.671-3.218l7.81 5.322c.115.07.256.07.371-.009l3.432-2.652c.027-.027.053-.053.071-.08a.322.322 0 00-.08-.442l-7.474-5.003a41.738 41.738 0 0110.579-4.623l5.138 7.894a.335.335 0 00.363.159l4.193-1.132c.035 0 .061-.018.097-.035a.322.322 0 00.088-.442l-4.962-7.496c2.097-.319 4.228-.54 6.413-.54.132 0 .265.018.398.018.018.018.018.044.044.062.106.044.212.018.301-.044 2.193.044 4.351.265 6.448.618l1.247 9.468a.308.308 0 00.256.265l4.246.787a.196.196 0 00.124.009c.176-.018.291-.177.274-.354l-1.274-9.052c3.582 1.07 6.934 2.626 10.039 4.553l-2.335 9.105a.32.32 0 00.124.38l3.661 2.325c.036.018.062.026.098.044a.325.325 0 00.389-.239l2.167-8.742c1.22.972 2.406 1.997 3.502 3.094 1.734 1.732 3.282 3.624 4.688 5.631l-5.767 7.478a.332.332 0 00-.008.38l2.432 3.572c.026.026.053.062.079.088.142.106.345.08.452-.062l5.457-7.204c2.167 4.04 3.653 8.486 4.404 13.171l-8.446 4.208a.326.326 0 00-.177.336l.637 4.278a.425.425 0 00.035.106c.08.16.274.221.425.142l8.013-4.075c.026.548.08 1.087.08 1.644 0 3.722-.531 7.311-1.433 10.74zm-.257 1.017l-.707 2.122c-.115.327-.23.654-.354.981l-8.836.46.982-3.528 9.004-.406c-.036.124-.062.247-.089.371zm-10.446 17.759l-8.287-3.173 2.326-2.829 8.42 3.297a44.167 44.167 0 01-2.459 2.705zm-11.949 8.425l-2.008.91c-.061.027-.132.045-.185.071l-6.36-6.188 3.264-1.671 6.404 6.339c-.363.185-.743.362-1.115.539zm-17.159 4.013l-1.689-.009c-.38 0-.761-.035-1.141-.053l-3.158-8.238 3.662-.16 3.149 8.425c-.274 0-.54.026-.823.035zm-17.079-3.262l-2.565-1.211c-.239-.124-.486-.221-.734-.353l.637-8.84 3.387 1.405-.725 8.999zm-15.638-11.492l-.716-.848c-.23-.283-.433-.593-.663-.884l4.254-7.726 2.485 2.696-4.395 7.832c-.328-.362-.655-.707-.965-1.07zm-7.978-14.197l-.451-1.538c-.123-.433-.23-.884-.336-1.326l6.979-5.401 1.212 3.465-7.156 5.446c-.079-.221-.168-.433-.248-.646zm-1.662-18.634c.097-.734.194-1.459.327-2.175l8.641-1.998-.354 3.651-8.827 1.954.213-1.432zm5.775-16.23c.283-.469.54-.937.841-1.388l8.747 1.52-1.742 3.227-8.898-1.627 1.052-1.732zm.92-9.795c-1.291-1.096-2.636-2.404-3.989-3.828a62.345 62.345 0 014.626-4.428c1.389 1.449 2.742 2.784 4.077 3.907 1.274 1.078 2.53 1.927 3.768 2.572a47.405 47.405 0 00-3.75 3.289c-.336.345-.637.716-.964 1.061-1.203-.593-2.459-1.468-3.768-2.573zm46.303-8.645l1.238 8.795-3.609-.671-1.176-8.964 3.547.84zm-1.318-11.333c.548.08 1.096.159 1.654.247v10.44a42.581 42.581 0 00-3.697-.901c.548-1.22.981-2.652 1.309-4.279.327-1.679.557-3.545.734-5.507zm-7.757 4.888c.336-1.697.566-3.58.743-5.569 2.052.098 4.192.31 6.386.593-.186 1.953-.407 3.81-.734 5.471-.336 1.654-.77 3.103-1.327 4.306a42.743 42.743 0 00-6.333-.628c.522-1.202.946-2.59 1.265-4.173zm-24.845 11.342l7.35 4.915-2.901 2.245-7.439-5.074c.328-.238.646-.486.982-.725l1.566-1.096c.141-.097.291-.177.442-.265zm20.281 1.432l-3.538.946-4.909-7.54c.31-.08.619-.168.938-.239l2.034-.451c.195-.026.398-.053.593-.088l4.882 7.372zm-4.82-8.071l-.761.159c-.708.133-1.398.292-2.096.46l-1.38.301c-.036.008-.071.026-.106.044-.009.009 0 .026-.009.035a42.5 42.5 0 00-11.242 4.968c-.026.009-.062-.017-.088 0l-.531.38c-.584.372-1.141.778-1.698 1.185l-.929.645c-1.274-.627-2.556-1.52-3.883-2.625-1.3-1.096-2.627-2.414-3.998-3.837 3.087-2.599 6.422-4.862 10.057-6.692 7.35-3.704 15.921-5.684 26.154-5.321-.177 1.953-.407 3.81-.734 5.472-.327 1.635-.761 3.067-1.309 4.261-.133 0-.266-.018-.398-.018-2.379 0-4.697.247-6.97.619-.035-.009-.053-.045-.079-.036zm-32.487 6.312c-.009.009-.027-.009-.036 0-.009.009.009.027 0 .044-3.184 3.368-6.12 7.099-8.836 11.121-.141.203-.256.389-.362.557a6.566 6.566 0 01-.31.477c-.053.018 0-.274-.203-.972-.195-.672-.239-1.397-.186-2.131 7.996-12.128 17.964-20.88 29.975-25.415 11.357-4.287 24.562-4.8 39.686-.866.628.707 1.115 1.45 1.354 2.086l.026.045c.036.053-.097-.018-.177.053a5.155 5.155 0 01-.875.645c-.027.018-.522-.159-1.389-.398-1.291-.345-3.219-.866-5.386-1.255-.522-.097-1.009-.142-1.522-.221-.044-.027-.097-.062-.15-.062-.035 0-.053.027-.08.027-.681-.107-1.362-.204-2.025-.301-.044-.018-.08-.053-.124-.062-.035 0-.071.027-.106.035-2.362-.309-4.679-.556-6.89-.636-.009-.009-.018-.018-.027-.018-.009 0-.009.009-.026.009-10.49-.424-19.273 1.591-26.8 5.375-3.785 1.918-7.253 4.278-10.454 7.001-.009.009-.009 0-.009 0v.009c-1.769 1.503-3.45 3.138-5.068 4.853zm-8.889 5.993c2.618-3.951 5.342-7.46 8.146-10.554a70.212 70.212 0 018.668-8.124 61.404 61.404 0 0111.383-7.108 63.065 63.065 0 0111.931-4.296c4.706.398 9.526 1.052 14.019 1.918 4.29.823 8.279 1.839 11.596 3.006.761.265 1.389.672 1.946 1.114-14.798-3.66-27.782-3.085-38.979 1.14-11.746 4.429-21.528 12.862-29.453 24.478a6.71 6.71 0 01.743-1.574zm55.501-50.838a1.604 1.604 0 01-1.141 0 1.176 1.176 0 01-.779-1.149v-3.457h2.698v3.457c0 .601-.336.981-.778 1.149zm-2.963-6.824a5.743 5.743 0 002.052-.946l1.459 2.519h-2.6l-.911-1.573zm-1.292-.478h-5.103v-2.89h3.777c1.769 0 2.901-.973 3.405-2.219.194-.478.283-.999.283-1.512s-.089-1.034-.283-1.52c-.504-1.238-1.636-2.21-3.405-2.21h-3.777v-2.891h5.103c1.398 0 2.671.575 3.6 1.503l.018.009a5.078 5.078 0 011.486 3.589v3.041a5.06 5.06 0 01-1.504 3.597 5.081 5.081 0 01-3.6 1.503zm-5.103-9.715h3.777c1.468 0 2.405.796 2.812 1.812.159.407.239.84.239 1.282 0 .442-.08.875-.239 1.273-.407 1.026-1.344 1.821-2.812 1.821h-3.777v-6.188zm10.773 15.956h3.255v24.425a92.516 92.516 0 00-3.255-.769V188.68zm0-3.545h3.255v2.9h-3.255v-2.9zm17.159 51.979l-2.123 8.584-3.096-1.972 2.238-8.725c.106.071.212.124.318.195l1.592 1.123c.372.256.726.521 1.071.795zm17.981-14.78l-5.952 7.372a.311.311 0 00-.089.221v7.638h-10.304c-.336-.283-.699-.539-1.053-.813-.017-.018 0-.053-.026-.071l-1.238-.875c-.54-.389-1.079-.787-1.646-1.149l-.654-.469c-.035-.017-.071-.035-.106-.044-.027-.009-.044.009-.062.009a43.243 43.243 0 00-6.687-3.404l27.817-8.415zm-3.246 15.231h-2.158v-7.532l4.935-6.099c-1.256 2.59-2.777 5.817-2.777 8.946v4.685zm4.122-15.037l10.888 26.865-12.082-4.455c-2.291-1.326-2.291-2.246-2.291-4.252v-7.806c0-3.059 1.565-6.294 2.795-8.858.265-.548.469-1.016.69-1.494zm4.024-8.062a211.96 211.96 0 005.767 15.178 231.83 231.83 0 007.129 15.117l.009.017c1.264 2.246 3.025 4.854 5.324 6.896.106.097.23.176.336.265h-9.985l-12.233-30.197 3.653-7.276zm46.541-78.808a71.526 71.526 0 00-6.518 3.704c.035-.07.079-.168.124-.238.928-1.804 1.397-2.697 2.105-3.103.707-.398 1.76-.389 3.856-.363h.433zm-9.481-.654c.902-1.547 2.034-2.652 3.432-3.359 1.406-.725 3.078-1.052 5.05-1.052h14.399a71.547 71.547 0 00-6.925 2.219c-1.734.654-3.441 1.414-5.139 2.219-.778 0-1.3-.009-1.76-.009-2.211-.027-3.326-.035-4.175.451-.884.495-1.371 1.441-2.361 3.359-.195.38-.416.804-.664 1.273a77.382 77.382 0 00-7.615 5.79l5.758-10.891zm.035-6.276c0-.239.106-.469.265-.628a.88.88 0 01.62-.256h3.148c.77 0 1.477.256 2.043.698.496.389.85.928 1.071 1.538-1.495.124-2.884.398-4.042.99-1.23.637-2.238 1.627-3.105 2.856v-5.198zm18.556-10.325l2.459-2.767 16.204 12.641c-3.927.265-7.757.884-11.525 1.715l-7.138-11.589zm-37.227-29.446a3.9 3.9 0 01-.442-.406c-.593-.637-.743-1.282-.655-1.875.08-.618.407-1.175.761-1.617.115-.15.23-.257.345-.372l.831.646a2.726 2.726 0 00-.495 1.096c-.08.495 0 1.034.433 1.494.053.07.124.132.204.194l6.677 5.26c.018.035-.017.07.009.097a.33.33 0 00.451-.044l.045-.062 1.167-1.405 1.132.875-1.203 1.458a.32.32 0 00.036.451c.026.018.062-.017.088-.009l6.926 5.455c.583.459 1.247.61 1.857.557.601-.045 1.141-.328 1.548-.69l19.467 15.187-2.388 2.687-36.794-28.977zm8.827 2.608l-.964 1.167-6.483-5.11a2.048 2.048 0 01-.142-.132c-.265-.283-.31-.637-.256-.955.053-.318.212-.592.371-.804l7.474 5.834zm10.384 8.097a2.15 2.15 0 01-1.097.46 1.971 1.971 0 01-1.406-.433l-6.714-5.286.973-1.167 8.244 6.426zM187.57 53.12l13.408-9.503c2.663-1.971 3.008-3.74 3.538-6.515.416-2.166.894-4.314 1.353-6.47l111.595 87.32v3.563a.32.32 0 00.327.318h3.636v3.076h-14.426c-2.203 0-2.203 1.963-2.185 3.209h-14.514c-2.167-.044-4.29.026-6.413.133l-96.319-75.13zm-.788-.212c-4.192 2.997-5.775 1.626-9.234-1.344-.663-.574-1.397-1.21-2.228-1.874-1.133-.893-1.743-1.759-1.831-2.66-.089-.894.336-1.857 1.247-2.944l15.664-19.82h.009l1.397-1.776c.504-.628.938-.928 1.371-.964.442-.035.911.195 1.46.637l3.449 2.767a.32.32 0 00.38.026l3.264-2.175a3.07 3.07 0 013.113-.053c.425.24.788.575 1.053 1 .274.45.433 1.007.425 1.635-.814 3.863-1.681 7.735-2.433 11.615-.504 2.635-.831 4.305-3.29 6.126l-13.816 9.804zm-13.806-5.304c-.23-.097-.451-.194-.69-.3-2.654-1.194-5.121-2.264-7.501-2.043l-27.613-21.914c-.097-.08-.212-.009-.318.036a492.213 492.213 0 0014.585-17.468l9.242-4.844 29.029 23.045-15.461 19.563c-1.026 1.22-1.503 2.334-1.397 3.421.018.168.08.336.124.504zm-11.437-1.105l-50.477 24.495-4.997.628c1.583-1.777 3.202-3.094 4.944-4.447l21.953-11.35a.321.321 0 00.053-.53l-12.153-9.645c-.132-.097-.309-.097-.424.027l-9.818 9.989a6.163 6.163 0 00-1.327-.248 5.88 5.88 0 00-2.264.31c10.764-11.368 20.255-21.384 29.71-32.213-.027.115-.062.248.035.327l27.145 21.543a6.673 6.673 0 00-2.38 1.114zm-18.742 17.653l-5.475-5.189 22.643-10.988-17.168 16.177zm-16.115 10.069c-.186-.77-.495-1.503-.964-2.13-.654-.884-1.583-1.547-2.68-1.936l13.71-10.856 3.723 3.527-13.789 11.395zm-13.647-3.474l21.254-10.316-12.012 9.511c-.636-.123-1.3-.185-2.025-.088l-7.217.893zm12.984 6.135c-.504 1.715-2.043 3.297-4.909 4.04l-23.421 6.152c.124-.115.265-.203.38-.318 1.398-1.388 2.309-3.27 2.433-5.242.008-.097.008-.212.008-.336l.018-.92c.053-.026.124-.035.142-.088 1.645-3.5 3.21-5.914 4.802-7.832l14.86-1.856c2.131-.274 3.856.61 4.873 1.989.469.618.778 1.343.929 2.095a5.03 5.03 0 01-.115 2.316zM92.771 88.374l-.283-.018c-2.123-.124-4.121-.822-5.607-2.042-1.336-1.087-2.238-2.599-2.433-4.49L81.653 53.65l3.123 5.516c.336.69.981 1.264 1.689 1.547.407.168.849.247 1.265.194a1.971 1.971 0 001.167-.601c.398-.442.681-1.14.743-2.14.053-1.926.124-3.845.177-5.772l8.845-.115 1.636-.017-.424 28.906-.01.31c-.114 1.803-.955 3.544-2.246 4.826-1.273 1.273-2.99 2.095-4.847 2.069zM82.388 83.44c-.01.16-.027.318-.045.477-.247 2.378-1.238 4.279-2.768 5.552-1.53 1.273-3.6 1.918-5.988 1.768-.168-.009-.336-.027-.495-.036L.9 83.697l.07-1.273 71.758 4.35a6.662 6.662 0 004.812-1.671 6.676 6.676 0 002.237-4.58l1.486-24.353 1.727 17.36-.602 9.91zm6.792-31.037l-.177 5.72c-.053.848-.274 1.414-.583 1.75a1.27 1.27 0 01-.77.406c-.3.036-.637-.026-.946-.159a2.677 2.677 0 01-1.353-1.237l-3.627-6.392 7.456-.088zm-7.102-7.859l2.29.142c-.043 1.794.523 2.873 1.451 3.536.894.636 2.105.848 3.459.955l-.08 2.59-7.668.097.548-7.32zm7.544-6.612l-.318 10.6c-1.238-.09-2.344-.284-3.113-.832-.814-.566-1.274-1.565-1.168-3.297l.345-5.675 4.255-.796zm-7.058.124c.133-2.245 1.186-3.51 2.6-4.208 1.354-.68 3.052-.84 4.609-.849l-.115 3.96-.018.328-4.635.857a.33.33 0 00-.265.3l-.336 5.605-2.282-.141.442-5.852zm.398-5.251l6.952-4.641-.123 4.199c-1.646.009-3.441.177-4.91.91-.857.425-1.574 1.035-2.096 1.883l.177-2.351zm.46-7.797a5.77 5.77 0 011.946-3.978 5.844 5.844 0 014.193-1.458h.008c.558.035 1.07.061 1.54.088 2.308.115 3.422.177 3.847.795.424.62.327 1.91.141 4.42-.044.672-.106 1.441-.159 2.325l-4.705.045a.3.3 0 00-.177.053l-7.05 4.703.416-6.993zm12.763 9.185c.93 1.361 2.282 2.077 3.874 2.634l.239 14.798-10.463.133c.186-6.224.389-12.456.575-18.67v-.018l.008-.389.142-4.8 4.343-.044c-.142 3.04.345 5.003 1.282 6.356zm15.09 21.702l9.41-9.565 11.543 9.158-18.955 9.795c.354-.372.673-.778.911-1.238.39-.716.628-1.538.682-2.404.106-1.777-.531-3.289-1.575-4.376a5.985 5.985 0 00-1.822-1.3c-.062-.026-.124-.044-.194-.07zm-10.464 6.382l4.555-4.782c1.141-1.088 2.548-1.53 3.892-1.441a5.44 5.44 0 013.573 1.644c.929.973 1.495 2.316 1.398 3.907a5.212 5.212 0 01-2.043 3.837c-.009 0 0 .009 0 .009h-.009l-.929.725c-2.211 1.706-4.21 3.288-6.182 5.648l-.054.053c-1.424 1.715-2.839 3.828-4.298 6.745l.097-16.345zM318.11 118.11h10.552v3.085H318.11v-3.085zm1.211-4.172c0-.973.398-1.857 1.035-2.502a3.563 3.563 0 012.503-1.034h1.044c.973 0 1.857.398 2.494 1.034a3.526 3.526 0 011.044 2.502v3.536h-8.12v-3.536zm2.742 7.894h2.636v3.076h-2.636v-3.076zm22.501 3.713c.434 0 .814.176 1.097.459.274.274.451.663.451 1.088v2.793a4.31 4.31 0 01-1.273 3.059 4.331 4.331 0 01-3.069 1.281h-6.201c-1.45-2.006-3.37-3.447-5.899-4.358-4.069-1.458-9.535-1.759-16.443-1.759l-7.774.009c-.018-.999-.018-2.572 1.548-2.572h37.563zm27.578 34.74c-3.139-.795-5.466-.998-7.367 2.29-2.15 3.898-4.644 7.726-6.837 11.616-.779 1.352-1.141 2.563-1 3.651.133 1.096.761 2.05 1.946 2.872l19.052 14.966h-4.219a.322.322 0 00-.274.151l-1.062 1.423-10.242-7.991c-.018-.018-.018-.045-.035-.053l-1.964-1.503-16.168-12.606a267.76 267.76 0 00-.911-8.734c-.646-5.277-1.318-10.289-2.167-14.948-.84-4.65-1.849-8.911-3.167-12.685-.406-1.521-1.008-2.75-1.715-3.872h3.29l32.84 25.423zm1.354 1.017c1.565.46 4.006.999 6.651 1.574 4.75 1.043 10.163 2.236 12.064 3.323l6.315 3.713c-1.37 0-2.644.672-4.325 1.556-.566.301-1.185.636-1.866.955l-.009.008c-.38.177-.645.389-.822.619-.16.212-.23.442-.248.672-.018.23.027.46.142.681.168.353.477.707.893 1.016l1.503 1.097-10.259 15.408-1.194-.84a.317.317 0 00-.434.062l-3.264 4.287-19.379-15.231c-1.034-.716-1.583-1.521-1.698-2.449-.106-.937.213-2.015.92-3.244 2.176-3.801 4.511-7.938 6.837-11.616 1.893-3.279 4.369-2.616 7.872-1.679l.301.088zm26.543 26.263c-2.919-2.077-3.927-2.793-7.244-.088l-1.778 1.432 6.475-9.706 8.729 6.347-5.147 2.74a71.05 71.05 0 01-1.035-.725zm-11.481 5.994a2.096 2.096 0 01-.291-.265l-.089-.115 1.106-1.653.557-.84 3.352-2.714c2.945-2.396 3.848-1.759 6.474.115l.77.539-7.704 4.111-3.087 1.644-1.088-.822zm-1.291.99l.54-.813c.106.115.23.23.371.336l.858.636-.876.46-.893-.619zm-3.211-2.263l10.251-15.39 2.663 1.927-7.642 11.474-.089.141-2.494 3.74-2.689-1.892zm-26.746 13.781a69.615 69.615 0 015.103-4.817.31.31 0 00.133-.257v-.477l4.705 3.633-2.671 3.58-8.013 4.27-3.352-1.193a64.088 64.088 0 014.095-4.739zm1.707-9.662l2.892 2.228v2.219a68.931 68.931 0 00-5.059 4.782 60.734 60.734 0 00-4.423 5.127c-4.059 4.8-7.385 10.264-10.198 16.009-1.229 2.511-2.317 5.092-3.361 7.682l-3.104-1.246c5.899-12.906 13.479-25.556 23.253-36.801zm-3.865-10.811l-1.46 1.91-9.296-7.099a298.162 298.162 0 00-.345-4.429l11.817 9.203c-.274.079-.539.176-.716.415zm6.695 5.101l-.398.512-6.182-4.711.389-.513a.725.725 0 01.469-.274.721.721 0 01.521.141l3.229 2.458 1.866 1.459c.124.114.221.256.239.406a.703.703 0 01-.133.522zm-1.026 2.395l.947-1.237.583-.769c.159-.204.159-.46.186-.699l9.464 7.382-1.866 2.51-9.314-7.187zm-2.848.327l.575.434c.301.229.655.309.991.265.345-.044.663-.221.884-.504l.018-.018 9.313 7.187-2.122 2.855-5.086-3.925v-1.237a.323.323 0 00-.124-.248l-3.255-2.51c-.009-.009-.017.009-.026 0-.053-.036-.106-.071-.168-.071-.69 0-1.504-.265-2.335-.636l1.335-1.592zm-3.839-2.926l3.335 2.546-1.406 1.671c-.31-.177-.628-.283-.92-.495-.885-.628-1.592-1.467-2.123-2.387l1.114-1.335zm-.53-1.467a.692.692 0 01.132-.522l1.141-1.502 6.192 4.72-1.159 1.512a.71.71 0 01-.451.256.715.715 0 01-.513-.132l-5.077-3.872a.642.642 0 01-.265-.46zm-2.777 2.431c-.965.884-2.751 2.113-6.324 1.22.15-1.856.194-3.854.15-5.958l6.174 4.738zm-6.183-5.551c-.018-.478 0-.92-.026-1.406-.045-1.07-.115-2.157-.177-3.253l8.862 6.762-.071.107c-.23.291-.309.654-.265.99.044.336.221.663.513.892l.15.107-.955 1.149c-.026-.053-.079-.098-.097-.159-.177-.46-.407-.575-.743-.46l-.027.009c-.15.062-.318.23-.495.389l-6.669-5.127zm-11.259 51.13c-5.634 13.153-9.579 26.413-12.321 38.674l-25.049-10.829a.294.294 0 00-.15-.035H273.24v-9.609h23.076c3.405 0 5.935-1.017 8.04-2.564 2.087-1.538 3.724-3.58 5.36-5.657l.009-.018c1.831-2.581 3.892-5.1 5.944-7.611 1.998-2.449 3.997-4.897 5.819-7.443l11.897 5.092zm1.636-3.748c-.168.371-.354.742-.522 1.113-.301.681-.575 1.371-.867 2.051l-11.763-5.039c3.546-4.994 6.916-9.777 10.207-14.594a432.086 432.086 0 009.977-15.302c1.256-1.724 1.972-4.199 2.343-7.143.036-.327.036-.716.071-1.052 4.237 1.017 6.156-.769 7.111-1.697.213-.203.372-.354.46-.38l.009-.009c.009 0-.079.053-.062.088.08.23.257.407.372.628.017.044-.036.106.009.141.026.027.053-.017.079 0 .575 1.035 1.371 1.963 2.326 2.644.354.247.734.424 1.115.618.009.018-.009.036 0 .053.026.018.053-.017.079-.008.805.406 1.61.733 2.344.839-9.782 11.315-17.362 24.027-23.253 36.987-.009.008-.026.017-.035.026-.009.018 0 .018 0 .036zm36.432-29.216l-.805.433-1.389.733 5.369-7.204a.641.641 0 01.38-.23.574.574 0 01.407.097.141.141 0 00.062.036.38.38 0 01.088.141l.009.009c.044.079.08.177.08.283a.522.522 0 01-.106.3l-4.095 5.402zm4.599-5.022c.177-.221.248-.459.248-.68 0-.212-.071-.416-.151-.575l-.009-.017a1.07 1.07 0 00-.292-.363.68.68 0 00-.106-.062 1.193 1.193 0 00-1.618.301l-6.183 8.292-2.034 1.078 7.969-10.705h4.732a.302.302 0 00.257-.124l.088-.115 3.273-4.296 1.22.858 4.086 2.873-14.735 7.849 3.255-4.314zm24.792-27.775l.964.566 15.036 9.052c-.504.071-1.017.106-1.504.239-1.547.407-3.042 1.105-4.749 2.086l-3.75 2.007-14.17-10.307c-.336-.257-.584-.522-.699-.778a.754.754 0 01-.079-.372.598.598 0 01.124-.327c.115-.15.3-.3.575-.424l.017-.009c.69-.345 1.318-.672 1.893-.972 2.459-1.3 3.998-2.095 6.342-.761zm-228.417 17.088v-3.227h2.689v3.457c0 .601-.336.981-.778 1.149a1.496 1.496 0 01-.566.106c-.195 0-.389-.035-.566-.106-.443-.168-.779-.548-.779-1.149v-.23zm0-17.812c0-.637.345-1.052.779-1.229.177-.062.371-.106.566-.106.194 0 .389.044.566.106.442.177.778.592.778 1.229v13.94h-2.689v-13.94zm3.335 14.267v-14.232l1.813-6.763c.142-.539.336-.901.548-1.158.195-.229.425-.362.646-.433.442-.141.672-.141.796-.017.159.159.257.503.389.981.708 2.555 1.124 8.601 1.177 14.709.053 5.879-.222 11.802-.894 14.745l-.035.124a7.35 7.35 0 01-.204.796c-.176.557-.468.901-1.229.663a1.446 1.446 0 01-.646-.442c-.221-.248-.406-.619-.548-1.149l-1.813-6.772v-1.052zm264.114 9.848l-.089-.787a54.905 54.905 0 00-.468-3.43 28.92 28.92 0 00-.761-3.438c-.575-1.972-1.044-3.077-1.84-3.757-.805-.699-1.884-.911-3.706-1.097l-12.595-1.317a15.887 15.887 0 00-2.565-.088l-15.69-9.441-.071-.044-.858-.513c-.053-.035-.097-.044-.142-.071l-8.561-5.03c-2.008-1.149-7.456-2.342-12.25-3.394-2.618-.575-5.024-1.105-6.563-1.556l-33.372-25.839h1.425c1.37 0 2.609-.566 3.511-1.459l.009-.009a4.941 4.941 0 001.459-3.509v-2.793a2.19 2.19 0 00-2.185-2.184h-19.237v-3.076h3.653a.317.317 0 00.318-.318v-3.722a.316.316 0 00-.318-.318h-.902v-3.536a4.162 4.162 0 00-1.23-2.953 4.16 4.16 0 00-2.945-1.229h-1.044a4.17 4.17 0 00-2.945 1.229l-.009.009a4.154 4.154 0 00-1.22 2.944v3.536h-.796L206.011 29.933c.318-1.485.628-2.98.938-4.473.008-.018.008-.044.008-.062a3.639 3.639 0 00-.521-2.007 3.608 3.608 0 00-1.283-1.22 3.665 3.665 0 00-1.707-.477 3.704 3.704 0 00-2.061.557l-3.078 2.042-3.272-2.625c-.681-.54-1.283-.822-1.902-.778-.619.053-1.212.424-1.831 1.21l-1.194 1.521L160.911.443a.305.305 0 00-.362-.018l-9.464 4.95a.35.35 0 00-.106.089L136.73 23.391l-33.425 35.351-2.503 2.626.142-9.424h-.009c0-.009.009-.009.009-.009l-.257-15.346a.305.305 0 00-.212-.291c-1.566-.522-2.892-1.185-3.768-2.467-.884-1.281-1.335-3.217-1.15-6.294.062-.972.124-1.847.177-2.616.204-2.652.301-4.023-.247-4.818-.602-.884-1.822-.946-4.343-1.079-.451-.026-.955-.053-1.53-.088h-.018a6.508 6.508 0 00-4.652 1.618 6.472 6.472 0 00-2.167 4.42l-.443 7.629-.866 11.58-.01.009.01.009-.602 7.956v.008l-1.725 28.323a5.965 5.965 0 01-2.025 4.138 6.02 6.02 0 01-4.36 1.511L.697 81.761a.324.324 0 00-.336.301l-.115 1.9a.322.322 0 00.292.337L73.03 91.83c.177.018.345.035.513.044 2.565.16 4.785-.539 6.439-1.918 1.654-1.37 2.733-3.43 2.998-5.976a8.53 8.53 0 00.035-.504l.372-5.958.433 4.367c.204 2.078 1.203 3.73 2.663 4.924 1.583 1.3 3.714 2.05 5.97 2.184.097.008.194.008.31.008 1.238.018 2.396-.336 3.449-.901.018 0 .026.009.035.009l25.031-6.577c3.113-.805 4.785-2.555 5.351-4.473.212-.699.23-1.415.159-2.104l14.152-11.687 1.636 1.556a.326.326 0 00.442 0l18.884-17.795c3.105-2.29 6.413-.813 10.127.849.416.194.849.38 1.318.583.345.584.858 1.158 1.575 1.724a70.99 70.99 0 012.211 1.865c3.679 3.165 5.386 4.615 9.897 1.459l39.474 30.79c-.115.114-.23.22-.345.362-.415.513-.796 1.184-.902 1.927-.106.76.08 1.591.823 2.396.15.159.318.318.513.477l36.989 29.119 6.996 11.377h-16.469c-.23 0-.416.053-.637.062-.256-.787-.708-1.486-1.344-1.981a3.952 3.952 0 00-2.433-.831h-3.148c-.416 0-.796.168-1.071.442a1.502 1.502 0 00-.451 1.079v6.064l-6.492 12.27a61.392 61.392 0 00-2.512 2.334c-5.156 5.003-9.862 10.943-14.293 17.927-4.422 6.984-8.553 15.019-12.577 24.239-1.371 3.023-2.379 6.285-2.645 9.936-.256 3.607.213 7.611 1.778 12.129l-3.945 7.832-29.497 8.928a42.563 42.563 0 00-2.415-.857v-10.511c.416.071.814.106 1.239.186 2.122.38 4.051.901 5.342 1.246 1.017.274 1.672.451 1.875.327.248-.141.699-.451.991-.734.265-.265.424-.539.309-.795-.265-.672-.778-1.459-1.442-2.21a.241.241 0 00-.141-.168c-.097-.115-.159-.23-.274-.336a7.678 7.678 0 00-2.76-1.715c-1.574-.557-3.308-1.07-5.139-1.556v-23.337c.168.15.336.327.549.406.256.098.522.151.796.151.265 0 .548-.053.796-.151.672-.256 1.194-.839 1.194-1.741v-.256l1.194 4.464c.168.627.407 1.078.672 1.396.292.336.619.531.946.637 1.265.415 1.734-.159 2.035-1.07.079-.265.15-.557.212-.848l.035-.124c.69-2.988.973-8.973.911-14.895-.053-6.153-.477-12.253-1.194-14.869-.159-.575-.291-.999-.566-1.273-.309-.301-.734-.363-1.433-.133a2.024 2.024 0 00-.937.637c-.274.309-.513.769-.681 1.396l-1.539 5.746a1.862 1.862 0 00-.849-.671 2.183 2.183 0 00-1.592 0c-.672.274-1.194.875-1.194 1.821v13.94h-3.388l-1.698-2.926c.071-.062.15-.115.212-.177a5.695 5.695 0 001.69-4.048v-3.041a5.707 5.707 0 00-1.672-4.031l-.018-.018a5.703 5.703 0 00-4.051-1.688h-5.422a.317.317 0 00-.318.318v13.879c0 .176.142.318.318.318h5.422c.204 0 .407-.044.611-.062l1.087 1.883v3.695c0 .902.522 1.485 1.195 1.741a2.175 2.175 0 001.592 0c.212-.079.371-.256.548-.406v22.276c-.663-.132-1.327-.283-2.017-.406a135.36 135.36 0 00-14.134-1.936c-.044 0-.088 0-.123.009-4.113 1.043-8.146 2.457-12.082 4.349a61.977 61.977 0 00-11.507 7.187c-2.99 2.342-5.909 5.056-8.739 8.185-2.83 3.13-5.572 6.657-8.217 10.644a7.325 7.325 0 00-1.105 2.793 6.636 6.636 0 00.176 2.961c.328 1.141.575 1.53.991 1.406.248-.071.425-.345.672-.751.098-.151.213-.336.345-.54 2.645-3.898 5.484-7.531 8.553-10.811 1.371 1.423 2.715 2.749 4.033 3.854 1.283 1.088 2.539 1.945 3.742 2.573-1.389 1.52-2.698 3.111-3.848 4.826h-.009l-.76 1.273c-.469.743-.947 1.477-1.362 2.255l-.115.176a.443.443 0 00-.036.115v.018a42.387 42.387 0 00-4.166 11.801c0 .009-.017.009-.026.027l-.336 2.351c-.071.513-.168 1.017-.221 1.538l-.054.389c-.008.036 0 .071 0 .106.009.018.018.027.027.045a42.156 42.156 0 00-.186 3.677c0 3.456.469 6.816 1.256 10.051-.009.035-.044.053-.035.097l.442 1.476c.15.531.301 1.061.46 1.583l.327 1.078a.34.34 0 00.053.115c.018.018.045-.009.062.009a42.865 42.865 0 006.085 11.227c.009.044-.017.088.009.132l.814.973c.248.3.504.592.761.893l1.203 1.449a.368.368 0 00.097.071c.018.018.044-.018.062-.018.318.345.61.716.946 1.043a42.457 42.457 0 0010.03 7.435s0 .009.009.009l.84.397c.938.478 1.884.946 2.866 1.353l.186.088a.383.383 0 00.132.045s0-.009.009-.009a42.493 42.493 0 0013.683 3.014c.035.018.053.071.089.071h1.282c.327.009.655.053.982.053.283 0 .548-.035.831-.044l1.238.009a.236.236 0 00.107-.027c.035 0 .044-.035.062-.053a42.572 42.572 0 0013.514-2.926c.018-.009.036.018.053.009l.328-.15c.734-.301 1.441-.646 2.158-.982l1.442-.663a.26.26 0 00.106-.062c.008-.008 0-.017 0-.017a42.874 42.874 0 0010.322-7.585.169.169 0 01.044-.035c0-.009.009 0 .009-.009l2.326-2.573c.124-.141.265-.274.38-.415l.186-.203c.026-.027.062-.062.071-.115.008-.009 0-.018 0-.027 2.768-3.421 4.988-7.293 6.598-11.465.017-.018.053-.018.062-.044l.38-1.15c.248-.724.504-1.449.716-2.183l.257-.778a.44.44 0 00.018-.115c0-.018-.027-.035-.036-.053.938-3.509 1.486-7.178 1.486-10.979 0-.115-.018-.221-.018-.345h9.323c1.442 0 2.361.204 2.91.725.548.504.752 1.353.752 2.643v6.365c0 1.308.177 2.422.822 3.244.655.822 1.76 1.3 3.609 1.3H335.41c.15 0 .292-.106.319-.257.857-4.941 1.822-9.556 2.812-14.02h3.485c0 .124-.018.23-.018.345 0 3.474.46 6.833 1.247 10.069 0 .026-.044.044-.026.079l.336 1.167c.212.725.416 1.45.655 2.166l.238.804a.34.34 0 00.053.115c.009.018.036-.009.045.009a42.62 42.62 0 006.103 11.253c.017.036-.009.071.008.106l.602.707c.398.504.805.982 1.22 1.459l.956 1.149a.272.272 0 00.097.071c.018.018.026-.018.053-.009.301.327.584.681.902.999a42.886 42.886 0 0010.074 7.461.028.028 0 01.009.018l1.283.601c.787.389 1.574.787 2.388 1.131l.23.106a.339.339 0 00.124.045c.008 0 .017-.009.026-.009a42.433 42.433 0 0013.674 3.014c.036.018.053.071.089.071h1.282c.327.009.655.053.982.053.283 0 .548-.035.822-.044l1.248.009c.035 0 .07-.009.106-.027.035 0 .044-.035.062-.053a42.626 42.626 0 0013.514-2.926c.018-.009.036.018.053.009l.328-.15a39.184 39.184 0 002.149-.982l1.451-.663a.336.336 0 00.106-.062c.009-.008 0-.017 0-.017 3.812-2.016 7.305-4.562 10.322-7.585l.035-.035c.009-.009.018 0 .018-.009l2.361-2.608c.115-.124.23-.247.345-.38l.186-.203a.298.298 0 00.071-.115v-.027c2.768-3.421 4.988-7.293 6.607-11.465.009-.018.044-.018.053-.044l.38-1.158a55.89 55.89 0 00.716-2.175l.257-.778c.009-.035.009-.071.009-.115 0-.018-.018-.035-.027-.053.938-3.509 1.486-7.178 1.486-10.979 0-.707-.071-1.406-.106-2.113.009-.035.053-.062.044-.097l-.115-1.185c-.035-.486-.062-.963-.123-1.44h6.713c1.601 0 3.246-.619 4.422-1.936.982-1.097 1.636-2.688 1.645-4.792.849-4.985 1.548-10.077 2.017-15.24a161.66 161.66 0 00.672-15.691c-.097-10.899-1.353-22.002-2.609-33.158z" fill="#fff"/></svg>