<svg width="579" height="183" fill="none" xmlns="http://www.w3.org/2000/svg"><path d="M576.385 113.633c-1.088 1.475-2.57 2.404-4.215 2.601a5.707 5.707 0 01-.648.035h-28.996V57.212h23.449c1.911 0 3.567.778 4.806 2.02 1.331 1.335 2.2 3.228 2.455 5.307l4.828 41.384c.07.569.105 1.126.105 1.661 0 2.461-.684 4.54-1.784 6.049zm-94.712 39.504h-3.127v-3.879h3.127v3.879zm-20.555-3.879h3.115v3.879h-3.115v-3.879zm16.594 3.879h-12.645v-3.879h12.645v3.879zm4.378-4.715h-21.389a.409.409 0 00-.417.418v4.715c0 .22.174.418.417.418h21.389a.423.423 0 00.416-.418v-4.715a.415.415 0 00-.416-.418zm-119.981 4.715h-3.126v-3.879h3.126v3.879zm-20.566-3.879h3.127v3.879h-3.127v-3.879zm16.594 3.879h-12.633v-3.879h12.633v3.879zm4.389-4.715h-21.4a.416.416 0 00-.417.418v4.715c0 .22.186.418.417.418h21.4c.22 0 .417-.198.417-.418v-4.715a.423.423 0 00-.417-.418zm19.605 7.095c-.012.662-.023 1.417-.023 2.137 0 .36-.151.685-.394.929a1.295 1.295 0 01-.926.383h-6.543v-7.269c1.077 0 2.096-.023 2.965-.035 2.57-.046 3.867-.07 4.435.337.544.395.521 1.428.486 3.518zm-4.933-4.691c-.903.012-1.969.035-3.358.035h-.012a.416.416 0 00-.417.418v8.105c0 .244.186.418.417.418h6.96c.59 0 1.123-.244 1.517-.627.393-.395.637-.929.637-1.521 0-.894.011-1.545.023-2.114.046-2.392.069-3.553-.822-4.203-.799-.581-2.201-.558-4.945-.511zm154.303 5.097c0 4.413-1.795 8.407-4.678 11.299a15.87 15.87 0 01-11.279 4.679 15.882 15.882 0 01-11.267-4.679 15.94 15.94 0 01-4.655-11.299c0-4.412 1.771-8.406 4.655-11.298a15.892 15.892 0 0122.546 0 15.963 15.963 0 014.678 11.298zm-42.44 15.978c.139-.081.312-.127.451-.22l.035-.024a6.065 6.065 0 001.876-2.183 6.091 6.091 0 00.706-2.821c0-.929-.289-1.881-.764-2.775h9.496c.776 1.439 1.679 2.786 2.837 3.936 1.887 1.904 4.261 3.274 6.89 4.087h-21.527zm-18.401 0c.139-.081.324-.127.452-.22l.034-.024a6.098 6.098 0 001.888-2.183c.44-.859.695-1.834.695-2.821 0-.929-.29-1.881-.776-2.775h7.851c-.475.894-.764 1.846-.764 2.775 0 .987.243 1.962.695 2.821a6.142 6.142 0 001.91 2.207c.139.093.313.139.464.22H470.66zm-22.152 0c.138-.081.324-.127.463-.22l.023-.024a6.095 6.095 0 001.887-2.183 6.08 6.08 0 00.695-2.821c0-.929-.289-1.881-.764-2.775h11.592c-.487.894-.765 1.846-.765 2.775 0 .987.243 1.962.683 2.821a6.177 6.177 0 001.923 2.207c.139.093.312.139.463.22h-16.2zm-12.611 0v-8.023h4.354c-.475.894-.764 1.846-.764 2.775 0 .987.243 1.962.695 2.821a6.142 6.142 0 001.91 2.207c.139.093.313.139.463.22h-6.658zm-8.65-.22l.023-.024a6.095 6.095 0 001.887-2.183 6.08 6.08 0 00.695-2.821c0-.929-.289-1.881-.764-2.775h5.975v8.023h-8.28c.151-.081.325-.127.464-.22zm-15.263.22v-8.023h6.543c-.475.894-.764 1.846-.764 2.775 0 .987.243 1.962.694 2.821a6.154 6.154 0 001.911 2.207c.139.093.313.139.463.22h-8.847zm-9.472-.22l.035-.024a6.214 6.214 0 001.887-2.183 6.07 6.07 0 00.683-2.821c0-.929-.278-1.881-.764-2.775h6.797v8.023h-9.09c.139-.081.313-.127.452-.22zm-21.643.22c.162-.081.336-.127.463-.22l.035-.024a6.095 6.095 0 001.887-2.183c.44-.859.695-1.834.695-2.821 0-.929-.289-1.881-.776-2.775h10.619c-.463.894-.753 1.846-.753 2.775 0 .987.244 1.962.695 2.821a6.144 6.144 0 001.911 2.207c.139.093.313.139.463.22h-15.239zm-22.604 0c.15-.081.324-.127.463-.22l.023-.024a5.984 5.984 0 001.888-2.183 6.092 6.092 0 00.694-2.821c0-.929-.289-1.881-.764-2.775h12.043c-.463.894-.752 1.846-.752 2.775 0 .987.243 1.962.694 2.821.44.871 1.1 1.638 1.911 2.207.139.093.313.139.463.22h-16.663zm-20.439 0c.151-.081.324-.127.463-.22l.035-.024a6.204 6.204 0 001.887-2.183c.44-.859.684-1.834.684-2.821 0-.929-.29-1.881-.765-2.775h9.878c-.475.894-.764 1.846-.764 2.775 0 .987.255 1.962.695 2.821a6.06 6.06 0 001.922 2.207c.127.093.301.139.452.22h-14.487zm-15.714 0l5.906-8.023h1.551c-.474.894-.764 1.846-.764 2.775 0 .987.255 1.962.695 2.821a6.07 6.07 0 001.922 2.207c.139.093.313.139.463.22h-9.773zm-15.042 0c-1.656 0-3.324-.267-4.91-.778a15.641 15.641 0 01-4.227-2.101v-22.005h29.459v16.315l-6.322 8.569h-14zm-9.971-3.506c-2.895-2.3-4.667-5.237-5.466-8.338-.752-2.996-.613-6.142.313-9.045.938-2.892 2.64-5.539 5.014-7.513 2.617-2.195 6.045-3.565 10.11-3.565 2.675 0 5.187.662 7.399 1.823a15.987 15.987 0 015.246 4.424h-22.199a.419.419 0 00-.417.43v21.784zm194.857-25.964h-41.364c.012-.082.012-.175.012-.244.011-.302.011-.616.011-.86 0-2.032-.324-4.354-3.161-4.354h-2.733v-4.726l47.235 5.074v5.11zm.833-5.028l19.281 2.067a16.73 16.73 0 00-8.372 4.551c-3.034 3.054-4.922 7.258-4.922 11.902 0 2.555.614 4.959 1.633 7.119h-7.62v-25.639zm-171.835 5.225l6.438-1.196v4.749h-6.438v-3.553zm6.797-2.102h-.023l-7.272 1.347a.411.411 0 00-.336.407v3.228c-1.447-1.823-3.196-3.403-5.269-4.494-1.331-.697-2.814-1.173-4.331-1.498l41.584-4.122-24.353 5.132zm63.308-3.553h-6.346v-4.772h6.346v4.772zm45.649 0h-44.815v-4.772h44.815v4.772zm7.179 5.458h-6.346v-4.61h6.346v4.61zm-8.998.836h11.638v3.088h-11.638v-3.088zm-7.816-5.458h9.635v4.622h-9.635v-4.622zm-45.011 5.458h11.649v3.088h-11.649v-3.088zm2.651-5.458h6.346v4.622h-6.346v-4.622zm-5.35 4.355c-.011-.244-.011-.5-.011-.837 0-1.637.243-3.518 2.327-3.518h2.212v4.622h-4.528v-.267zm14.765.267h-2.235v-4.622h10.167v4.622h-7.932zm8.766-4.622h23.345v4.622h-23.345v-4.622zm46.876 4.355l-.012.267h-5.037v-4.622h2.733c2.096 0 2.327 1.881 2.327 3.518 0 .337 0 .604-.011.837zm-5.883-5.191h-6.346v-4.772h6.346v4.772zm-59.996-4.726v4.726h-2.212c-2.837 0-3.161 2.322-3.161 4.354 0 .244 0 .546.012.86v.244h-50.304v-1.15l31.521-6.642 24.144-2.392zm-52.909 31.631h7.504v2.473c0 .755-.301 1.44-.799 1.927-.486.5-1.181.802-1.922.802h-2.061a2.71 2.71 0 01-1.923-.802l-.023-.011a2.777 2.777 0 01-.776-1.916v-2.473zm3.868 8.023a5.116 5.116 0 01-2.953-.905 5.234 5.234 0 01-1.656-1.905 5.337 5.337 0 01-.59-2.438c0-.697.196-1.405.497-2.079v1.777c0 .964.394 1.846 1.019 2.496l.024.024a3.551 3.551 0 002.513 1.056h2.061c.984 0 1.864-.406 2.513-1.056a3.544 3.544 0 001.042-2.52v-2.299c.498.824.741 1.718.741 2.601 0 .859-.209 1.695-.591 2.438a5.2 5.2 0 01-1.632 1.881l-.024.024c-.81.569-1.818.905-2.964.905zm16.559-8.023h7.516v2.473c0 .755-.301 1.44-.799 1.927a2.69 2.69 0 01-1.923.802h-2.061a2.737 2.737 0 01-1.934-.802l-.011-.011a2.735 2.735 0 01-.788-1.916v-2.473zm3.88 8.023c-1.135 0-2.143-.336-2.953-.905a5.225 5.225 0 01-1.656-1.905 5.347 5.347 0 01-.602-2.438c0-.697.196-1.405.498-2.079v1.777c0 .964.393 1.846 1.03 2.496l.023.024a3.553 3.553 0 002.513 1.056h2.061c.973 0 1.865-.406 2.513-1.056a3.54 3.54 0 001.042-2.52v-2.299c.498.836.742 1.718.742 2.601a5.2 5.2 0 01-.603 2.438 5.276 5.276 0 01-1.621 1.881l-.034.024c-.811.569-1.807.905-2.953.905zm18.736-8.023h7.504v2.473c0 .755-.301 1.44-.799 1.927-.487.5-1.17.802-1.911.802h-2.061a2.716 2.716 0 01-1.934-.802l-.023-.011a2.777 2.777 0 01-.776-1.916v-2.473zm3.879 8.023c-1.146 0-2.142-.336-2.964-.905a5.192 5.192 0 01-1.644-1.905 5.2 5.2 0 01-.603-2.438c0-.697.197-1.405.498-2.079v1.777c0 .964.394 1.846 1.019 2.496l.023.024a3.561 3.561 0 002.525 1.056h2.061c.973 0 1.865-.406 2.513-1.056a3.59 3.59 0 001.042-2.52v-2.299c.487.824.741 1.718.741 2.601 0 .859-.22 1.695-.602 2.438a5.193 5.193 0 01-1.633 1.881l-.023.024c-.81.569-1.818.905-2.953.905zm17.301-8.023h7.515v2.473c0 .755-.312 1.44-.81 1.927-.487.5-1.17.802-1.923.802h-2.049a2.671 2.671 0 01-1.923-.802l-.023-.011a2.739 2.739 0 01-.787-1.916v-2.473zm3.879 8.023c-1.146 0-2.154-.336-2.964-.905a5.33 5.33 0 01-1.656-1.905 5.338 5.338 0 01-.591-2.438c0-.697.197-1.405.498-2.079v1.777c0 .964.394 1.846 1.019 2.496l.023.024a3.56 3.56 0 002.525 1.056h2.049a3.51 3.51 0 002.513-1.056 3.55 3.55 0 001.054-2.52v-2.299c.486.824.741 1.718.741 2.601 0 .859-.22 1.695-.602 2.438a5.396 5.396 0 01-1.621 1.881l-.035.024c-.811.569-1.818.905-2.953.905zm20.844-8.023h7.516v2.473a2.732 2.732 0 01-2.733 2.729h-2.05a2.716 2.716 0 01-1.934-.802l-.011-.011a2.735 2.735 0 01-.788-1.916v-2.473zm3.879 8.023c-1.134 0-2.142-.336-2.952-.905a5.225 5.225 0 01-1.656-1.905 5.336 5.336 0 01-.603-2.438c0-.697.197-1.405.498-2.079v1.777c0 .964.394 1.846 1.019 2.496l.024.024a3.557 3.557 0 002.524 1.056h2.05c.984 0 1.876-.406 2.524-1.056a3.59 3.59 0 001.042-2.52v-2.299c.487.824.741 1.718.741 2.601 0 .859-.22 1.695-.602 2.438a5.276 5.276 0 01-1.621 1.881l-.035.024c-.81.569-1.818.905-2.953.905zm17.857-8.023h7.504v2.473a2.732 2.732 0 01-2.733 2.729h-2.05a2.667 2.667 0 01-1.922-.802l-.023-.011a2.725 2.725 0 01-.776-1.916v-2.473zm3.867 8.023a5.153 5.153 0 01-2.964-.905 5.305 5.305 0 01-1.644-1.905 5.2 5.2 0 01-.603-2.438c0-.697.197-1.405.51-2.079v1.777c0 .964.382 1.846 1.019 2.496l.023.024a3.512 3.512 0 002.513 1.056h2.05c.984 0 1.887-.406 2.524-1.056a3.54 3.54 0 001.042-2.52v-2.299c.498.824.741 1.718.741 2.601a5.2 5.2 0 01-.602 2.438 5.276 5.276 0 01-1.621 1.881l-.023.024c-.822.569-1.818.905-2.965.905zm18.274-8.023h7.515v2.473c0 .755-.313 1.44-.81 1.927-.487.5-1.17.802-1.923.802h-2.049a2.716 2.716 0 01-1.934-.802l-.012-.011a2.739 2.739 0 01-.787-1.916v-2.473zm3.879 8.023c-1.146 0-2.154-.336-2.964-.905a5.308 5.308 0 01-1.645-1.905 5.2 5.2 0 01-.602-2.438c0-.697.197-1.405.498-2.079v1.777c0 .964.394 1.846 1.019 2.496l.023.024a3.56 3.56 0 002.525 1.056h2.049a3.51 3.51 0 002.513-1.056 3.55 3.55 0 001.054-2.52v-2.299c.486.836.741 1.718.741 2.601 0 .859-.22 1.695-.602 2.438a5.396 5.396 0 01-1.621 1.881l-.035.024c-.811.569-1.818.905-2.953.905zm14.521-8.023h7.516v2.473a2.732 2.732 0 01-2.733 2.729h-2.061a2.66 2.66 0 01-1.911-.802l-.023-.011a2.735 2.735 0 01-.788-1.916v-2.473zm3.88 8.023c-1.147 0-2.143-.336-2.965-.905a5.305 5.305 0 01-1.644-1.905 5.2 5.2 0 01-.602-2.438c0-.697.196-1.405.498-2.079v1.777a3.6 3.6 0 001.019 2.496l.034.024a3.506 3.506 0 002.502 1.056h2.061c.984 0 1.876-.406 2.524-1.056a3.59 3.59 0 001.042-2.52v-2.299c.487.824.742 1.718.742 2.601 0 .859-.22 1.695-.603 2.438a5.16 5.16 0 01-1.621 1.881l-.023.024a5.153 5.153 0 01-2.964.905zm4.62-8.859H328.226v-19.775h53.002v3.495c0 .232.197.429.428.429h12.472a.426.426 0 00.417-.429v-3.495h39.511v3.495c0 .232.185.429.417.429h12.471a.428.428 0 00.429-.429v-3.495h44.583v19.775h-1.251zm-46.401-31.689h-60.008v.012h-.069l-78.454 7.791c-.047 0-.082.046-.116.058-3.648.29-6.786 1.603-9.229 3.646-2.49 2.079-4.285 4.854-5.269 7.896-.985 3.043-1.135 6.352-.325 9.51.904 3.495 2.965 6.782 6.416 9.29 0 0 .011 0 .011.011.012 0 .012 0 .012.012a16.389 16.389 0 004.632 2.334c1.667.546 3.428.824 5.165.824h208.474a16.7 16.7 0 0011.87-4.923 16.784 16.784 0 004.909-11.891c0-4.644-1.875-8.848-4.909-11.902-2.583-2.589-6.045-4.261-9.878-4.726-.058-.034-.104-.093-.174-.093l-24.989-2.682h-.012l-48.057-5.155v-.012zm82.345 24.57a11.09 11.09 0 01-3.242 7.862 11.047 11.047 0 01-7.863 3.263 11.014 11.014 0 01-7.84-3.263 11.1 11.1 0 01-3.254-7.862c0-3.077 1.251-5.852 3.254-7.872a11.06 11.06 0 017.84-3.263c3.08 0 5.848 1.254 7.863 3.263a11.135 11.135 0 013.242 7.872zm-19.535-8.465a11.932 11.932 0 00-3.497 8.465c0 3.31 1.331 6.294 3.497 8.465a11.896 11.896 0 008.43 3.496c3.3 0 6.288-1.336 8.442-3.496a11.943 11.943 0 003.509-8.465c0-3.309-1.344-6.293-3.509-8.465a11.849 11.849 0 00-8.442-3.506 11.86 11.86 0 00-8.43 3.506zm-252.05 3.472a4.54 4.54 0 01.324 1.719c0 .592-.104 1.173-.324 1.719-.544 1.358-1.795 2.438-3.764 2.438-1.968 0-3.219-1.08-3.775-2.438a4.82 4.82 0 01-.312-1.719c0-.592.104-1.184.312-1.719.556-1.37 1.807-2.45 3.775-2.45 1.969 0 3.22 1.08 3.764 2.45zm-8.303-.313a5.544 5.544 0 00-.382 2.032c0 .685.127 1.382.382 2.02.66 1.673 2.177 2.973 4.539 2.973 2.363 0 3.88-1.3 4.54-2.973a5.565 5.565 0 000-4.052c-.66-1.672-2.177-2.973-4.54-2.973-2.362 0-3.879 1.301-4.539 2.973zm-23.148 9.208c.266-.65.856-1.15 1.794-1.15.938 0 1.529.5 1.795 1.15.105.256.151.546.151.824 0 .291-.046.569-.151.825-.266.65-.857 1.161-1.795 1.161s-1.528-.511-1.794-1.161a2.416 2.416 0 01-.151-.825c0-.278.058-.568.151-.824zm1.794 3.646c1.332 0 2.189-.743 2.56-1.684.15-.36.22-.754.22-1.138 0-.383-.07-.766-.22-1.126-.371-.952-1.228-1.684-2.56-1.684-1.331 0-2.188.732-2.559 1.684-.139.36-.22.743-.22 1.126 0 .384.081.778.22 1.138.371.941 1.228 1.684 2.559 1.684zm-25.279-7.966c-.393.976-1.297 1.742-2.698 1.742-1.413 0-2.304-.766-2.698-1.742a3.357 3.357 0 01-.232-1.23c0-.43.081-.848.232-1.243.394-.975 1.285-1.73 2.698-1.73 1.401 0 2.305.755 2.698 1.73.151.395.232.813.232 1.243 0 .429-.081.847-.232 1.23zm-2.698-5.039c-1.806 0-2.964.999-3.474 2.264a4.41 4.41 0 00-.289 1.545c0 .522.104 1.056.289 1.544.51 1.277 1.668 2.264 3.474 2.264 1.807 0 2.965-.987 3.474-2.264.185-.488.29-1.022.29-1.544a4.41 4.41 0 00-.29-1.545c-.509-1.265-1.667-2.264-3.474-2.264zm-128.26-1.521c-.266.673-.88 1.184-1.841 1.184-.973 0-1.586-.511-1.841-1.184a2.143 2.143 0 01-.162-.859c0-.291.046-.581.162-.848.255-.662.868-1.185 1.84-1.185.962 0 1.576.523 1.842 1.185.116.267.162.557.162.848 0 .301-.046.592-.162.859zm.776.302c.15-.36.22-.767.22-1.161 0-.384-.07-.79-.22-1.15-.382-.964-1.25-1.73-2.617-1.73-1.355 0-2.235.766-2.617 1.73a3.07 3.07 0 00-.22 1.15c0 .394.07.801.22 1.161.382.975 1.262 1.718 2.617 1.718 1.366 0 2.235-.743 2.617-1.718zm-61.744-42.79c-.255.651-.857 1.15-1.795 1.15-.927 0-1.529-.499-1.784-1.15a2.177 2.177 0 010-1.649c.255-.65.857-1.149 1.784-1.149.938 0 1.54.499 1.795 1.149.104.256.15.535.15.825 0 .29-.046.569-.15.824zm.775-1.962c-.382-.941-1.239-1.684-2.57-1.684-1.332 0-2.177.743-2.56 1.684-.139.36-.22.755-.22 1.138 0 .383.081.766.22 1.138.383.94 1.228 1.683 2.56 1.683 1.331 0 2.188-.743 2.57-1.695a3.195 3.195 0 000-2.264zm188.511-86.729c.394-.975 1.285-1.73 2.687-1.73 1.401 0 2.292.755 2.675 1.73.162.384.231.802.231 1.22 0 .43-.069.847-.231 1.23-.383.976-1.274 1.73-2.675 1.73-1.402 0-2.293-.754-2.687-1.73a3.373 3.373 0 01-.22-1.23c0-.418.07-.836.22-1.22zm2.687 5.017c1.795 0 2.953-.987 3.45-2.253.197-.488.29-1.022.29-1.544a4.09 4.09 0 00-.29-1.533c-.497-1.266-1.655-2.253-3.45-2.253-1.795 0-2.953.987-3.451 2.253a4.092 4.092 0 00-.29 1.533c0 .522.093 1.056.29 1.544.498 1.266 1.656 2.253 3.451 2.253zM85.069 96.46c-.289.661-.81 1.219-1.505 1.625a5.278 5.278 0 01-1.135.465l-23.959 6.525c-1.285.302-2.408-.104-3.219-.847a4.036 4.036 0 01-.984-1.452 3.57 3.57 0 01-.209-1.741c.128-1.092.81-2.195 2.224-2.938 3.786-2.137 15.876-9.383 19.107-10.462 4.25-2.392 5.755-1.138 7.272 1.555.313.581.614 1.162.938 1.789.37.72.764 1.498 1.193 2.287l.023.023c.185.326.324.662.417 1a3.153 3.153 0 01-.162 2.17zm.464-3.6h-.012c-.44-.801-.822-1.556-1.181-2.264-.336-.65-.66-1.278-.961-1.812-1.76-3.158-3.509-4.633-8.396-1.881L55.888 97.365c-1.69.894-2.501 2.218-2.663 3.577-.093.72.023 1.463.266 2.125a5.002 5.002 0 001.193 1.776c.995.929 2.397 1.417 3.972 1.045l23.993-6.537a5.44 5.44 0 001.332-.546 4.477 4.477 0 001.853-2.009c.37-.824.451-1.753.197-2.729a5.035 5.035 0 00-.498-1.207zm260.908 2.032c-.706.975-2.373 1.719-5.002 1.719-2.629 0-4.285-.744-4.991-1.72l-.012-.022a1.783 1.783 0 01-.359-1.045c0-.372.128-.732.371-1.069.706-.975 2.362-1.73 4.991-1.73 2.629 0 4.296.755 5.002 1.73.244.337.359.709.359 1.069s-.115.731-.359 1.068zm.672-2.636c-.857-1.161-2.756-2.079-5.674-2.079-2.918 0-4.817.918-5.663 2.079-.359.5-.532 1.034-.532 1.568 0 .522.173 1.045.509 1.532l.023.035c.846 1.161 2.745 2.067 5.663 2.067s4.817-.906 5.674-2.078a2.606 2.606 0 00.533-1.556c0-.546-.174-1.08-.533-1.568zm83.214.232a2.733 2.733 0 01-2.733 2.74h-8.917a2.717 2.717 0 01-1.933-.8l-.024-.012a2.81 2.81 0 01-.775-1.928V79.96c0-.755.312-1.44.799-1.939a2.728 2.728 0 011.933-.813h8.917a2.73 2.73 0 011.934.813l.011.023c.487.488.788 1.173.788 1.916v12.53zm-.209-15.06a3.595 3.595 0 00-2.524-1.045h-8.917c-.972 0-1.875.406-2.524 1.045a3.57 3.57 0 00-1.042 2.531v12.53a3.59 3.59 0 001.019 2.507l.023.024a3.57 3.57 0 002.524 1.045h8.917c.984 0 1.876-.395 2.524-1.045a3.617 3.617 0 001.043-2.532V79.96c0-.975-.394-1.858-1.031-2.508l-.012-.023zm53.361 12.215h-6.739c.636-.487 1.1-1.172 1.1-2.357 0-.313.011-.58.023-.86 0-.36.011-.754.011-1.067 0-1.417-.22-2.834-1.111-3.704h6.716v7.988zm-12.101-7.989h3.277c2.119 0 2.386 1.916 2.386 3.705 0 .406-.012.731-.012 1.045-.012.336-.023.65-.023.882 0 1.788-1.378 2.253-2.965 2.357h-2.663v-7.989zm12.518-.836h-12.935a.426.426 0 00-.428.418v8.825c0 .233.197.418.428.418h.012c.359 0 .671.012 1.007.024.417.011.846.023 1.216.023.255 0 .486-.035.741-.047h9.959c.22 0 .417-.185.417-.418v-8.825a.423.423 0 00-.417-.418zm6.716 8.825v-7.989h6.694c-.869.871-1.112 2.288-1.112 3.705 0 .313.023.708.023 1.068.012.279.023.546.023.86 0 1.184.463 1.869 1.1 2.356h-6.728zm12.09-7.989v7.99h-2.687c-1.563-.105-2.941-.57-2.941-2.358 0-.232-.012-.546-.012-.882-.011-.314-.023-.639-.023-1.045 0-1.789.267-3.704 2.386-3.704h3.277zm.417-.836h-12.935a.416.416 0 00-.417.418v8.825c0 .233.185.418.417.418h9.947c.255.012.498.047.753.047.359 0 .799-.012 1.216-.023.336-.012.648-.024 1.019-.024a.416.416 0 00.417-.418v-8.825a.416.416 0 00-.417-.418zm-51.879 40.944H421.7v-4.657h29.54v4.657zm-3.219 3.901l-1.482-.151-.313-1.823a.405.405 0 00-.382-.348l-3.08-.291a.4.4 0 00-.44.291l-.556 1.846h-2.953l-.579-2.02a.431.431 0 00-.405-.314h-3.277a.434.434 0 00-.417.337l-.568 1.939h-2.953l-.567-1.974a.448.448 0 00-.405-.302h-3.266a.436.436 0 00-.417.337l-.567 1.939h-2.953l-.567-1.974a.436.436 0 00-.406-.302h-3.265a.423.423 0 00-.406.337l-.567 1.939h-2.964l-.568-1.974a.433.433 0 00-.394-.302h-3.277a.421.421 0 00-.405.337l-.567 1.939h-2.953l-.579-1.974a.422.422 0 00-.394-.302h-3.277c-.197 0-.359.151-.406.337l-.567 1.939h-2.953l-.579-1.974a.42.42 0 00-.394-.302h-3.277c-.197 0-.359.151-.405.337l-.567 1.939h-2.953l-.579-1.974a.412.412 0 00-.394-.302h-3.266a.436.436 0 00-.417.337l-.567 1.939h-2.953l-.521-1.811a.418.418 0 00-.452-.291l-3.392.314a.431.431 0 00-.371.337l-.336 1.718-1.424.093v-2.88h72.942v3.054zm1.367.964a.41.41 0 00.428-.279l.649-1.73 2.431.232.313 1.835a.42.42 0 00.371.337l3.254.313a.438.438 0 00.428-.267l.637-1.742 2.443.233.313 1.823a.407.407 0 00.359.348l3.254.314a.438.438 0 00.428-.268l.649-1.741 2.432.232.301 1.835a.418.418 0 00.382.336l3.242.314a.414.414 0 00.429-.267l.648-1.742 2.432.232.313 1.835a.407.407 0 00.37.337l3.243.313a.414.414 0 00.428-.267l.649-1.742 2.443.233.301 1.834a.447.447 0 00.382.349l3.231.302c.197.011.371-.082.44-.268l.637-1.741 2.443.232.313 1.823a.407.407 0 00.371.348l3.242.314a.414.414 0 00.428-.267l.649-1.742 2.432.232.312 1.835a.397.397 0 00.371.337l3.242.313c.186.012.371-.081.429-.267l.648-1.742 2.432.233.313 1.834a.419.419 0 00.37.337l3.254.313c.174.024.348-.092.417-.267l.66-1.741 2.443.232.244 1.776a.418.418 0 00.37.372l3.243.395a.408.408 0 00.428-.267l.73-1.8 1.007.104h.035c.231.024.463.047.672.059l.347.046.069 1.939a.43.43 0 00.336.395l3.173.697a.405.405 0 00.463-.209l.88-1.707c.255.081.487.174.73.255.22.081.452.186.683.279l-.521 1.962a.4.4 0 00.197.465l2.791 1.625a.405.405 0 00.532-.046l1.564-1.556c.196.128.393.279.602.43.208.151.405.29.59.441l-1.053 1.834a.425.425 0 00.046.535l2.304 2.31a.419.419 0 00.51.058l1.957-1.126c.15.186.301.36.451.546l.417.557-1.47 1.475a.422.422 0 00-.07.499l1.61 2.81a.421.421 0 00.486.221l2.108-.557c.104.209.197.441.301.661.092.233.185.465.278.685l-1.621.941a.43.43 0 00-.232.488l.845 3.135a.412.412 0 00.406.337h1.957a21.62 21.62 0 01.22 1.66l-1.564.43a.42.42 0 00-.347.406v3.275a.43.43 0 00.313.406l1.598.418c-.035.302-.07.592-.105.871-.034.302-.081.581-.127.871h-1.644a.409.409 0 00-.406.313l-.845 3.147a.431.431 0 00.197.476l1.39.802c-.093.243-.197.487-.302.743-.104.232-.208.476-.312.72l-1.853-.488a.396.396 0 00-.463.186l-1.61 2.81a.41.41 0 00.046.534l1.286 1.289-.44.592c-.162.186-.313.383-.475.581l-1.633-.953a.42.42 0 00-.532.047l-2.316 2.311a.418.418 0 00-.058.511l.915 1.59c-.197.151-.394.314-.603.453-.208.163-.417.314-.625.453l-1.343-1.347a.42.42 0 00-.498-.07l-2.814 1.626a.447.447 0 00-.209.488l.475 1.73c-.255.104-.509.209-.753.302-.243.093-.497.197-.752.279l-.892-1.545a.406.406 0 00-.475-.209l-3.138.836a.412.412 0 00-.324.407v1.66c-.255.023-.498.058-.741.081h-.023c-.255.035-.533.058-.799.082l-.44-1.672a.425.425 0 00-.406-.314h-3.231a.42.42 0 00-.428.314l-.463 1.718h-2.455l-.463-1.707a.422.422 0 00-.406-.325h-3.3a.409.409 0 00-.394.314l-.474 1.718h-3.046l-.463-1.707a.421.421 0 00-.405-.325h-3.301a.42.42 0 00-.405.314l-.463 1.718h-3.046l-.463-1.707a.424.424 0 00-.417-.325h-3.3a.43.43 0 00-.405.314l-.464 1.718h-3.045l-.463-1.707a.422.422 0 00-.406-.325h-3.3a.42.42 0 00-.405.314l-.464 1.718h-3.045l-.463-1.707a.422.422 0 00-.406-.325h-3.3a.42.42 0 00-.405.314l-.463 1.718h-3.046l-.475-1.707a.41.41 0 00-.405-.325h-3.3a.432.432 0 00-.406.314l-.463 1.718h-3.045l-.463-1.707a.422.422 0 00-.406-.325h-3.312a.417.417 0 00-.393.314l-.464 1.718h-3.045l-.475-1.707a.408.408 0 00-.394-.325h-3.311a.432.432 0 00-.406.314l-.463 1.718h-3.046l-.463-1.707a.42.42 0 00-.405-.325h-3.3a.432.432 0 00-.406.314l-.463 1.718h-3.045l-.464-1.707a.42.42 0 00-.405-.325h-3.312a.407.407 0 00-.393.314l-.464 1.718h-3.057l-.463-1.707a.42.42 0 00-.405-.325h-3.301a.431.431 0 00-.405.314l-.463 1.718h-3.046l-.463-1.707a.42.42 0 00-.405-.325h-3.3a.422.422 0 00-.406.314l-.463 1.718h-3.045l-.464-1.707a.434.434 0 00-.417-.325h-3.3a.431.431 0 00-.405.314l-.452 1.718h-3.057l-.463-1.707a.421.421 0 00-.405-.325h-3.301a.42.42 0 00-.405.314l-.463 1.718h-3.046l-.463-1.695c-.046-.186-.208-.337-.405-.337h-3.312a.419.419 0 00-.394.314l-.475 1.718h-3.01l-.464-1.695c-.046-.186-.208-.337-.405-.337h-3.3a.42.42 0 00-.405.314l-.475 1.718h-3.011l-.463-1.695c-.047-.186-.209-.337-.406-.337h-3.3a.42.42 0 00-.405.314l-.463 1.718H373.4l-.452-1.707a.42.42 0 00-.405-.325h-3.312a.409.409 0 00-.394.314l-.475 1.718h-3.022l-.452-1.707a.42.42 0 00-.405-.325h-3.312a.417.417 0 00-.393.314l-.475 1.718h-3.011l-.463-1.695c-.047-.186-.209-.337-.406-.337h-3.311a.407.407 0 00-.394.314l-.475 1.718h-3.022l-.452-1.695a.434.434 0 00-.417-.337h-3.3a.418.418 0 00-.394.314l-.475 1.718h-3.01l-.475-1.707a.409.409 0 00-.394-.325h-3.3a.42.42 0 00-.405.314l-.475 1.718h-3.023l-.463-1.707a.41.41 0 00-.405-.325h-3.3a.407.407 0 00-.394.314l-.475 1.718h-3.022l-.452-1.695c-.046-.186-.208-.337-.405-.337h-3.312a.408.408 0 00-.394.314l-.475 1.718h-2.605l-.463-1.707a.422.422 0 00-.406-.325h-3.3a.431.431 0 00-.405.314l-.463 1.718h-2.502l-.451-1.695a.423.423 0 00-.406-.337h-3.265a.43.43 0 00-.405.314l-.441 1.66a9.399 9.399 0 01-.799-.07c-.243-.023-.497-.046-.764-.081v-1.66a.407.407 0 00-.301-.395l-3.15-.848a.428.428 0 00-.474.186l-.892 1.568c-.255-.082-.51-.186-.764-.279-.244-.093-.487-.198-.741-.302l.463-1.73a.415.415 0 00-.197-.476l-2.791-1.614a.407.407 0 00-.533.046l-1.343 1.347c-.208-.139-.417-.29-.625-.453-.197-.151-.405-.302-.602-.453l.903-1.567a.41.41 0 00-.046-.534l-2.305-2.311a.4.4 0 00-.498-.058l-1.667.964c-.162-.198-.325-.395-.475-.581-.151-.186-.29-.383-.452-.592l1.297-1.289a.44.44 0 00.07-.511l-1.621-2.81a.437.437 0 00-.487-.221l-1.829.5c-.116-.244-.221-.476-.336-.72-.093-.244-.197-.5-.29-.743l1.367-.79a.417.417 0 00.208-.488l-.834-3.123a.42.42 0 00-.405-.337h-1.656c-.046-.29-.081-.569-.127-.871-.035-.279-.07-.569-.105-.871l1.575-.418a.41.41 0 00.336-.406v-3.275a.435.435 0 00-.301-.406l-1.61-.43c.035-.279.07-.557.105-.813v-.011c.034-.279.081-.558.127-.836h1.957a.43.43 0 00.405-.314l.834-3.158a.427.427 0 00-.197-.476l-1.644-.953c.081-.22.174-.452.278-.685.092-.22.197-.452.301-.661l2.096.557a.426.426 0 00.475-.198l1.621-2.798a.438.438 0 00-.058-.534l-1.471-1.475.417-.557.452-.546 1.922 1.103a.404.404 0 00.533-.035l2.304-2.31a.44.44 0 00.07-.511l-1.077-1.858c.197-.151.393-.29.602-.441a9.75 9.75 0 01.602-.43l1.563 1.556a.42.42 0 00.498.07l2.814-1.626a.431.431 0 00.209-.488l-.533-1.962c.232-.093.463-.198.695-.279.243-.081.475-.174.718-.255l.88 1.695a.419.419 0 00.463.232l3.173-.708a.422.422 0 00.336-.395l.081-1.939 2.061-.209.718 1.788a.408.408 0 00.44.279l3.242-.395a.417.417 0 00.359-.348l.255-1.8 2.444-.232.637 1.718a.414.414 0 00.44.29l3.23-.313a.385.385 0 00.382-.337l.313-1.834 2.432-.233.648 1.719a.396.396 0 00.429.29l3.231-.302a.418.418 0 00.393-.348l.302-1.835 2.443-.232.637 1.719a.417.417 0 00.44.29l3.219-.302a.42.42 0 00.394-.36l.312-1.823 2.432-.232.637 1.718a.44.44 0 00.44.291l3.231-.302a.408.408 0 00.382-.349l.313-1.834 2.432-.233.637 1.719c.069.186.243.313.44.29l3.23-.313a.432.432 0 00.394-.337l.301-1.835 2.444-.232.636 1.719a.404.404 0 00.429.29l3.231-.302a.43.43 0 00.393-.348l.302-1.835 2.443-.232.637 1.718a.42.42 0 00.44.291l3.231-.314a.406.406 0 00.393-.348l.301-1.823 2.432-.233.637 1.719c.07.186.243.302.44.29l3.231-.313c.185-.012.359-.14.382-.337l.313-1.835 2.443-.232.533 1.521c.046.174.22.302.417.291l3.242-.221a.408.408 0 00.394-.337l.336-1.73 2.756-.267.509 1.753a.423.423 0 00.406.337h3.578a.431.431 0 00.405-.302l.567-1.974h2.652l.568 1.939a.42.42 0 00.405.337h3.578a.397.397 0 00.394-.302l.579-1.974h2.652l.567 1.939a.422.422 0 00.405.337h3.579a.417.417 0 00.393-.302l.579-1.974h2.652l.568 1.939a.42.42 0 00.405.337h3.578a.406.406 0 00.394-.302l.579-1.974h2.652l.567 1.939a.412.412 0 00.405.337h3.567a.42.42 0 00.405-.302l.579-1.974h2.641l.567 1.939c.046.186.208.337.405.337h3.59a.417.417 0 00.394-.302l.579-1.974h2.64l.567 1.939c.047.186.209.337.406.337h3.578a.42.42 0 00.405-.302l.568-1.974h2.663l.579 2.021c.058.174.22.313.405.313l3.555.012a.435.435 0 00.429-.302l.544-1.835 2.432.244.313 1.835a.395.395 0 00.37.336l3.243.314zm-77.528-9.522h49.006v4.657H371.86v-4.657zm-43.808-12.157h213.64v11.321h-213.64v-11.321zm-24.978-44.462l7.25-9.01 18.62 15.072c-.695 5.097-1.204 9.765-1.494 13.701l-24.376-19.763zm-6.994-7.722c0-.011.012.012.023 0l5.246-6.514.996-1.242 7.342 5.945-7.261 9.01-7.353-5.956 1.007-1.243zm-3.81-3.646l3.393-4.203.938-1.15.406-.51 3.439 2.786-4.748 5.864-3.428-2.787zm-19.512-25.476c.023-.267.058-.534.058-.801a6.393 6.393 0 00-1.529-4.157 6.42 6.42 0 00-3.844-2.195 7.876 7.876 0 00-1.042-.081c-1.784 0-3.393.72-4.551 1.892a6.433 6.433 0 00-1.876 4.552c0 .871.173 1.684.463 2.427a6.344 6.344 0 002.385 2.915 6.36 6.36 0 003.579 1.103c.706 0 1.424-.163 2.13-.418l4.227 3.472a11.17 11.17 0 01-6.288 1.939c-1.818 0-3.59-.441-5.188-1.23a11.67 11.67 0 01-4.099-3.426c-1.355-1.835-2.189-4.146-2.189-6.782 0-3.158 1.274-6.015 3.335-8.093a11.352 11.352 0 018.072-3.344c1.725 0 3.335.371 4.759 1.022a11.55 11.55 0 014.84 4.25 11.595 11.595 0 011.807 6.189 11.48 11.48 0 01-.822 4.238l-4.227-3.472zm-6.3-4.436a3.152 3.152 0 00-1.748.418 3.52 3.52 0 00-1.054.883 3.6 3.6 0 00-.672 1.219c-.092.29-.138.592-.15.894-.035.906.324 1.846 1.251 2.601l3.717 3.054a5.278 5.278 0 01-1.401.186 5.698 5.698 0 01-3.127-.952 5.633 5.633 0 01-2.061-2.543 5.484 5.484 0 01-.406-2.114c0-1.544.626-2.95 1.633-3.97a5.577 5.577 0 013.961-1.638c.312 0 .613.023.903.07a5.61 5.61 0 014.678 5.527v.162l-3.659-2.996c-.602-.499-1.251-.743-1.865-.8zm26.044 28.287l-18.794-15.444-4.795-3.936-4.296-3.53a2.747 2.747 0 01-.556-.616 2.206 2.206 0 01-.393-1.324c.011-.232.046-.453.116-.662a2.85 2.85 0 01.509-.94c.232-.279.51-.523.822-.697a2.335 2.335 0 011.286-.29c.463.035.938.22 1.401.592l4.25 3.507h.011l4.817 3.96 18.806 15.443-.752.94-2.432 2.997zm-34.995 2.287c-11.105 1.126-21.805 3.193-31.706 6.607L92.434 98.457c-.023.011-.058.023-.092.035-1.378.812-1.992 1.927-2.56 2.937-.289.534-.567 1.045-.937 1.417-1.39 1.266-3.058 1.486-5.026 1.742-.475.058-.973.116-1.401.186l-24.631 3.111c-1.783.198-3.312-.278-4.47-1.161a6.427 6.427 0 01-2.073-2.74 6.515 6.515 0 01-.382-3.426c.232-1.44.996-2.844 2.374-3.901l21.04-15.27c2.757-1.776 4.343-1.358 6.023-.917 1.83.488 3.786 1.01 7.225-.79l86.654-40.258 31.173-14.48c2.177-.917 4.516-1.916 6.786-2.88 20.045-8.546 33.512-14.282 55.746-13.98 13.525.186 24.816 1.765 35.574 5.249 10.688 3.472 20.855 8.848 32.18 16.64-1.551 6.7-3.045 14.096-4.331 21.423-.463 2.601-.88 5.179-1.285 7.722l-15.61-5.4-11.869-9.614a.418.418 0 00-.579.058l-.996 1.242-3.764-3.053a.398.398 0 00-.579.07l-.417.498-18.574-15.269c.66-1.58 1.008-3.193 1.008-4.772 0-2.38-.707-4.68-1.946-6.63a12.203 12.203 0 00-5.199-4.564 12.083 12.083 0 00-5.095-1.103 12.16 12.16 0 00-8.662 3.6 12.24 12.24 0 00-3.578 8.673c0 2.822.891 5.295 2.362 7.28a12.41 12.41 0 004.389 3.67 12.402 12.402 0 005.558 1.324c2.362 0 4.771-.72 6.936-2.241l18.575 15.258-.498.615c-11.487-.29-22.94-.093-33.976 1.022zm-66.816 42.836c-.29-.5-.371-.917-.336-1.289.035-.395.208-.778.428-1.161.267-.453.903-.592 1.703-.557.88.023 1.933.267 2.883.522l12.819 3.576a4.122 4.122 0 011.899 1.069c.521.51.973 1.207 1.32 2.136 0 .012.012.047.023.058l3.092 7.827c-.011.023-.035.046-.035.069a.39.39 0 00.232.418l.185.488c.128.302.209.616.244.894.081.569 0 1.069-.232 1.475-.22.395-.602.72-1.123.917a4.463 4.463 0 01-.799.198l-3.88.244c-.868.046-1.378.058-1.818-.047-.428-.116-.857-.383-1.551-.871l-11.117-8.453-3.937-7.513zm6.924-10.996c.44 1.486.487 2.868.151 4.133-.347 1.266-1.089 2.416-2.247 3.472l-13.49-8.674 15.586 1.069zm.765 4.76l10.04 2.973 1.771 4.47c-.567-.429-1.158-.766-1.783-.917-3.926-.987-8.164-2.206-12.101-3.379.984-.963 1.679-2.009 2.073-3.147zm.081-4.563l7.897 2.334 1.668 4.215-9.415-2.787c.243-1.184.186-2.438-.15-3.762zm55.468 22.469c2.443 4.11 3.648 9.359 3.486 16.001-.128 4.947-1.575 4.958-3.301 4.981h-.092c-1.321.012-2.803-.348-4.019-.929-1.123-.545-2.015-1.265-2.327-2.055l-.429-1.068c-2.547-6.433-3.555-8.964-11.29-12.146-5.686-2.322-12.785-3.344-17.845-4.064-1.042-.163-1.957-.291-2.768-.418l-3.091-7.792c-.012-.07-.047-.128-.07-.186l-.012-.023-4.805-12.134 35.782 10.567c4.713 2.171 8.361 5.167 10.781 9.266zm.614 36.02c-.035 1.416.162 3.495.613 5.387.348 1.51.857 2.892 1.529 3.786v.012c.764 1.451.938 2.937.66 4.284-.243 1.254-.868 2.381-1.725 3.286a6.678 6.678 0 01-3.208 1.87c-1.332.337-2.826.232-4.296-.476-.116-.07-.243-.047-.348.011l-9.808 3.263-22.268-56.247c.729.116 1.447.22 2.293.348 5.025.72 12.078 1.73 17.648 4.018 7.422 3.031 8.383 5.481 10.85 11.681l.428 1.069c.394.998 1.425 1.869 2.733 2.485 1.332.638 2.942 1.033 4.389 1.01h.081c1.019 0 1.957-.035 2.687-.639-.162.836-.336 1.695-.521 2.613-.765 3.704-1.645 7.965-1.737 12.239zm-23.67 34.347a5.102 5.102 0 00-1.401-1.428l-1.957-1.37 10.41-9.243 8.407-2.799-15.459 14.84zm-.162 4.285a4.518 4.518 0 01-1.378 2.113c-.741.627-1.714 1.034-2.883 1.034a4.369 4.369 0 01-1.61-.302 4.55 4.55 0 01-1.413-.871l-22.65-20.797a.39.39 0 00-.463-.069 6.245 6.245 0 01-2.861.685 6.418 6.418 0 01-3.393-.976 6.423 6.423 0 01-2.385-2.589 6.361 6.361 0 01-.672-2.891 6.46 6.46 0 011.876-4.564 6.438 6.438 0 014.551-1.893c.568 0 1.112.082 1.621.209a6.385 6.385 0 013.463 2.3 6.426 6.426 0 011.146 5.573.404.404 0 00.162.442l25.175 17.568c.95.662 1.54 1.556 1.784 2.497.22.847.173 1.718-.07 2.531zm-74.749-12.947l.475-2.996 56.452 9.371 4.088 3.75-61.015-10.125zm-5.79.383l1.019-6.352 4.76.767-.267 1.66-.613 3.821-.139.859-4.76-.755zm-9.993.209l.15-.975 1.344-8.349.173-1.103 8.894 1.428-.301 1.893-.707 4.366-.66 4.168-8.893-1.428zm-70.06-13.179a7.415 7.415 0 001.53-1.127l5.812-5.248 63.32 10.497-1.204 7.524-69.457-11.646zm-5.025-.627l-40.078-18.266 54.97 9.116-8.905 8.047c-.857.824-1.841 1.358-2.884 1.532-.995.186-2.06.047-3.103-.429zm91.401 7.257l-5.165-.836.301-1.893a.426.426 0 00-.347-.476l-9.716-1.556a.411.411 0 00-.475.337l-.173 1.091-62.66-10.38 2.768-2.52 122.98 20.402 7.758 7.118-55.202-9.15.278-1.661a.429.429 0 00-.347-.476zm63.308 2.497c.301 1.021.926 1.869 1.748 2.519l-4.458-.627.66-12.053 2.235.778-.417 7.652a5.61 5.61 0 00.232 1.731zm-1.483 2.914l5.918.825c.069.011.116-.024.162-.035.278.035.521.127.799.127a7.968 7.968 0 002.548-.359l8.163-2.718-9.101 8.082-8.489-5.922zm-2.501-57.385l21.342 53.936-9.646 3.217a7.798 7.798 0 01-2.293.325c-1.146-.035-2.165-.383-2.964-.952a4.217 4.217 0 01-1.656-2.299 4.628 4.628 0 01-.197-1.475l.44-7.931c0-.046-.012-.104-.023-.162l-15.101-43.161c.522.336.938.58 1.367.696.556.151 1.123.14 2.061.07l3.937-.244a4.56 4.56 0 001.008-.244c.706-.278 1.227-.72 1.551-1.289.082-.151.116-.325.174-.487zm-201.874 7.814c0-4.795 1.216-7.582 3.578-9.428 2.409-1.87 6.045-2.834 10.793-3.937L51.8 97.04c-.903 1.022-1.563 2.16-1.76 3.391a7.418 7.418 0 00.428 3.855c.487 1.219 1.286 2.311 2.34 3.1 1.331 1.01 3.057 1.556 5.072 1.336l24.665-3.112c.417-.07.741-.117 1.077-.151l133.32 46.621-.66 11.937-11.753-8.198a7.168 7.168 0 00.162-1.556 7.29 7.29 0 00-1.517-4.447 7.24 7.24 0 00-3.914-2.59 7.398 7.398 0 00-1.83-.244 7.201 7.201 0 00-5.13 2.149 7.239 7.239 0 00-2.142 5.144c0 1.196.289 2.299.776 3.263a7.312 7.312 0 002.686 2.937 7.387 7.387 0 003.833 1.092c.985 0 1.992-.209 2.965-.65l2.455 2.252-188.928-31.34v-15.955zm-13.097-9.87a5.812 5.812 0 01.915-2.926 6.128 6.128 0 012.154-2.067c.857-.487 1.841-.766 2.837-.731l20.659 1.591c-4.482 1.056-7.99 2.043-10.4 3.913-2.582 2.02-3.902 5.004-3.902 10.09v14.654L1.694 109.314c-.637-1.115-.892-2.253-.846-3.31zm93.509-43.323l1.667 3.553-77.227 34.139-7.735-.604L94.357 62.68zm9.31-8.024l4.84 9.789-10.19 4.726-1.355-2.892-3.358-7.176 10.063-4.447zm72.456-21.563l-66.851 31.003-4.841-9.777 82.392-36.414c-1.54 1.056-2.86 2.136-4.018 3.367-2.212 2.369-3.857 5.225-5.605 9.278l-1.077 2.543zm-88.97 45.843c-3.172 1.65-4.955 1.173-6.646.732-1.864-.5-3.625-.964-6.693 1.033L52.784 95.95 30.1 101.232l-9.542-.732 75.826-33.511 1.355 2.914a.406.406 0 00.556.198l77.331-35.858-1.969 4.576c-28.915 13.26-58.12 26.184-86.502 40.118zm131.029-67.929c1.737.035 3.508.07 5.199.07h15.17c-8.535 2.473-16.838 6.003-26.75 10.218-2.084.883-4.25 1.812-6.774 2.88a2124.46 2124.46 0 01-30.247 14.132l3.196-7.432c1.702-3.96 3.3-6.746 5.442-9.022 2.143-2.288 4.841-4.088 8.743-6.085l.012-.011c8.708-5.052 16.779-4.9 26.009-4.75zm110.89 54.576L316.31 55.26l13.584 4.691a451.3 451.3 0 00-.822 5.632zm10.815-48.56c1.645-5.377 3.162-8.86 5.709-11.136 2.548-2.265 6.172-3.368 12.032-3.972 5.825-.615 17.509-1.184 32.018-1.056 10.399.092 22.246.557 34.428 1.637v3.298c-3.926-.43-7.817-.72-11.731-.906-4.053-.198-8.152-.314-12.309-.418l-.012.011c-.011 0-.011-.011-.023-.011h-12.738c-2.455.174-5.802.232-9.542.302-5.813.116-12.553.244-18.296.801-2.548.255-4.783.627-6.728 1.242-1.969.627-3.66 1.498-5.084 2.752-3.231 2.845-6.23 12.437-8.673 23.723-3.694 16.977-6.196 37.878-6.392 45.263v20.007c0 1.672.057 3.217.706 4.401.208.372.498.697.834.975.034.024.046.047.081.059a.834.834 0 00.162.116h-6.277V84.534c.209-7.606 1.819-20.135 4.077-33 2.211-12.634 5.049-25.581 7.758-34.51zm85.021-14.365c2.929.883 5.014 2.311 6.438 4.25 1.505 2.056 2.281 4.692 2.559 7.873v.012l3.104 42.011c0 7.339-.545 11.357-1.818 13.528-1.158 1.962-3.023 2.38-5.721 2.415V45.217l-2.212-25.697c-.289-3.252-.556-5.76-.915-7.873-.359-2.09-.799-3.797-1.435-5.47V2.66zm36.152 49.757h7.643v3.96h-7.643v-3.96zm-2.918-16.733H472.2V51.58h-14.058V35.683zm.162-2.508l.035-.011c1.945-1.37 4.389-2.056 6.832-2.056 2.444 0 4.887.685 6.844 2.056a9.784 9.784 0 011.853 1.672h-17.382a9.92 9.92 0 011.818-1.66zM478.5 49.803a6.48 6.48 0 011.887-4.551 6.45 6.45 0 014.54-1.893h10.132v12.9H478.5v-6.456zm21.955-11.356c0-1.115.464-2.137 1.193-2.88a4.104 4.104 0 012.884-1.196h4.77v3.971l-.717-.011c-1.761-.012-2.664-.023-3.22.488-.59.545-.579 1.497-.579 3.425v.279h-4.331v-4.076zm41.63 6.804a6.434 6.434 0 011.888 4.552v6.457h-16.559V43.359h10.132c1.76 0 3.381.731 4.539 1.892zm-54.622 11.96h6.971v7.804c0 .232.185.418.405.418h39.465a.416.416 0 00.417-.418v-7.803h6.971v46.9h-54.229v-46.9zm43.425 0h2.999v7.386h-2.999v-7.385zm-35.632 0h2.999v7.386h-2.999v-7.385zm3.833 0h2.698v7.386h-2.698v-7.385zm3.532 0h2.698v7.386h-2.698v-7.385zm3.543 0h2.698v7.386h-2.698v-7.385zm3.521 0h2.709v7.386h-2.709v-7.385zm3.543 0h2.698v7.386h-2.698v-7.385zm3.52 0h2.71v7.386h-2.71v-7.385zm3.544 0h2.698v7.386h-2.698v-7.385zm3.532 0h2.698v7.386h-2.698v-7.385zm3.532 0h2.698v7.386h-2.698v-7.385zM500.038 43.36h26.542v12.9h-30.687v-12.9h4.145zm-75.86-36.717c.579 1.568 1.007 3.182 1.343 5.144.348 2.079.614 4.564.903 7.815l2.212 25.685v27.462h-20.462c-3.196 0-5.477-1.126-7.017-2.868-1.876-2.113-2.663-5.144-2.663-8.105l-1.737-50.407 3.485-6.05c4.065.093 8.071.21 12.055.395 3.96.198 7.909.488 11.881.93zm-32.389 4.47h-4.053V5.308h4.053v5.806zm-4.053.837h4.053v52.24h-4.053V11.95zm-.846 47.527h-47.651c.185-1.266.347-2.508.556-3.785 1.887-11.995 4.597-24.536 6.716-32.618h.012c1.03-4.331 2.57-7.107 4.817-8.802l.023-.011c2.258-1.696 5.269-2.311 9.264-2.311h26.263v47.527zM368.362 87.96h-22.789c-2.675 0-4.678-.639-5.998-1.928-1.332-1.289-2.027-3.274-2.073-5.945-.128-5.249.556-12.285 1.609-19.775h47.779V79.68l-18.528 8.28zm-34.381 14.596c-.555-.999-.602-2.439-.602-3.995V78.566c.197-7.35 2.687-28.17 6.369-45.1 2.42-11.136 5.339-20.565 8.407-23.27 1.344-1.173 2.918-1.998 4.794-2.578 1.888-.604 4.077-.964 6.555-1.208 5.72-.569 12.437-.697 18.227-.801 3.566-.07 6.762-.128 9.159-.279v5.783h-26.263c-4.169 0-7.342.662-9.762 2.473l-.023.023c-2.409 1.812-4.042 4.738-5.13 9.255-2.131 8.093-4.84 20.657-6.751 32.699-.22 1.44-.417 2.845-.614 4.261-.011.023-.035.035-.035.07 0 .012.024.023.024.023-1.089 7.64-1.795 14.828-1.68 20.181.07 2.915.846 5.086 2.34 6.538 1.493 1.451 3.682 2.16 6.577 2.16h20.913L334.398 103.1a2.423 2.423 0 01-.417-.545zm3.544 1.556c-1.019 0-1.772-.151-2.351-.442l51.716-23.072v23.514h-49.365zm50.211-39.086h4.053v39.086h-4.053V65.026zm4.875 39.086V5.307h6.67l-3.3 5.748a.287.287 0 00-.058.22l1.737 50.5c0 3.147.845 6.375 2.872 8.663 1.69 1.904 4.18 3.146 7.642 3.146h20.868l.011.012h.012c3.219-.012 5.408-.43 6.832-2.833.463-.767.811-1.765 1.112-2.996v36.345h-44.398zm45.22 0v-46.9h48.798v46.9h-48.798zm141.067 1.718l-4.84-41.384c-.267-2.264-1.216-4.331-2.687-5.806-1.389-1.394-3.242-2.253-5.396-2.253h-21.168v-6.584c0-1.997-.822-3.82-2.131-5.144a7.278 7.278 0 00-5.13-2.136H505.62v-.279c0-1.684-.012-2.508.324-2.81.301-.29 1.1-.279 2.641-.267l1.134.011a.43.43 0 00.417-.417v-4.808a.423.423 0 00-.417-.418h-5.187a4.839 4.839 0 00-3.463 1.44 4.914 4.914 0 00-1.447 3.472v4.076h-14.695c-1.992 0-3.81.824-5.13 2.136a7.307 7.307 0 00-2.119 5.144v6.584h-8.141v-3.971h3.08a.418.418 0 00.417-.43V35.683h1.679a.406.406 0 00.405-.418.472.472 0 00-.092-.278 10.486 10.486 0 00-2.536-2.52c-2.096-1.463-4.713-2.195-7.319-2.195-2.605 0-5.211.732-7.307 2.195l-.035.023a10.28 10.28 0 00-2.524 2.532.412.412 0 00.104.58c.07.047.151.07.232.081h1.667v16.303c0 .244.186.43.417.43h2.49v3.971h-22.407l-3.069-41.651v-.024c-.29-3.32-1.112-6.107-2.721-8.302-1.622-2.206-4.03-3.797-7.423-4.703-.023-.011-.023 0-.035 0-.011 0-.023-.011-.035-.011C412.181.593 400.173.128 389.646.024c-14.544-.128-26.263.452-32.111 1.056-6.045.627-9.797 1.788-12.495 4.18-2.686 2.393-4.261 5.992-5.94 11.52-1.089 3.564-2.189 7.768-3.266 12.331-11.279-7.733-21.446-13.098-32.123-16.57-10.839-3.518-22.21-5.11-35.817-5.295-10.063-.128-18.319 1.01-26.205 3.02-.023 0-.035-.024-.058-.024h-18.25c-1.864 0-3.544-.035-5.188-.058-8.43-.151-15.922-.244-23.832 3.518-.034 0-.057-.011-.092 0L92.874 58.524a.399.399 0 00-.196.545l1.331 2.857L9.313 99.641l-2.536-.197c-1.158-.035-2.281.278-3.277.847a7.064 7.064 0 00-2.443 2.346 6.82 6.82 0 00-1.054 3.333c-.035 1.207.243 2.484.973 3.75l12.182 22.655a.36.36 0 00.312.197c.012.012 0 .023.012.023l8.36 1.394 42.905 19.542c1.204.558 2.431.72 3.601.5a.695.695 0 00.162-.058l70.939 11.902-.162.987a.426.426 0 00.347.476l9.716 1.556a.41.41 0 00.475-.337l.22-1.358 5.165.836a.427.427 0 00.474-.36l.139-.86L218.1 177.15l4.771 4.377c.475.442 1.043.79 1.668 1.034.602.232 1.251.36 1.911.36 1.378 0 2.547-.476 3.427-1.243.776-.65 1.332-1.532 1.633-2.496.29-.952.324-1.986.07-2.984-.07-.256-.22-.488-.336-.743l16.837-16.164c1.552.662 3.115.801 4.528.453a7.42 7.42 0 003.601-2.102 7.572 7.572 0 001.957-3.693c.301-1.532.116-3.216-.752-4.842 0-.023-.024-.023-.035-.034 0-.012.011-.024.011-.024-.613-.789-1.088-2.101-1.424-3.541-.428-1.835-.625-3.821-.602-5.191.104-4.192.973-8.407 1.725-12.076.44-2.148.753-3.994.95-5.678.104-.639.185-1.359.208-2.264v-.012l-.011-.012c.173-6.781-1.077-12.169-3.59-16.419-2.513-4.261-6.311-7.362-11.175-9.603l-.058-.023-45.37-13.412c-.012 0-.035.012-.058.012-.012-.012-.012-.023-.023-.023l-17.498-1.196a.416.416 0 00-.451.383.47.47 0 00.208.395l13.236 8.5c-.324-.047-.648-.105-.949-.117-1.077-.046-1.992.198-2.444.976-.278.476-.486.964-.544 1.498-.046.534.069 1.115.452 1.776l3.96 7.571a.373.373 0 00.127.14l10.492 7.977 15.193 43.474-134.328-46.981c1.482-.255 2.79-.65 3.995-1.742l.023-.023c.452-.453.753-1.01 1.089-1.614.498-.894 1.042-1.893 2.212-2.59l133.331-42.046c9.843-3.402 20.474-5.457 31.521-6.572 11.024-1.115 22.465-1.324 33.941-1.022l3.648 2.95-1.008 1.265a.4.4 0 00.058.581l8.002 6.48 25.14 20.39c-.058 1.16-.116 2.252-.15 3.263v32.164c0 .232.185.418.417.418h43.39v5.075c0 .232.185.429.417.429h2.802v2.938l-.359.035-.533-1.544a.41.41 0 00-.44-.291l-3.08.302c-.197.012-.336.163-.37.348l-.313 1.824-2.606.255-.648-1.742a.415.415 0 00-.429-.267l-3.068.29a.398.398 0 00-.371.349l-.312 1.823-2.618.255-.648-1.741a.406.406 0 00-.417-.268l-3.08.291a.43.43 0 00-.371.348l-.312 1.835-2.606.244-.648-1.742c-.058-.174-.244-.279-.429-.267l-3.069.29a.433.433 0 00-.382.348l-.301 1.823-2.605.256-.649-1.742a.414.414 0 00-.428-.267l-3.08.29a.419.419 0 00-.371.349l-.301 1.823-2.606.255-.648-1.742a.425.425 0 00-.429-.267l-3.08.291a.429.429 0 00-.37.348l-.301 1.835-2.618.244-.636-1.742a.445.445 0 00-.441-.267l-3.068.29a.445.445 0 00-.371.348l-.312 1.835-2.606.244-.648-1.742a.43.43 0 00-.429-.267l-3.069.29a.42.42 0 00-.37.349l-.313 1.823-2.605.255-.649-1.73a.424.424 0 00-.428-.279l-3.092.302a.399.399 0 00-.371.349l-.254 1.799-2.606.314-.729-1.788c-.058-.186-.232-.279-.417-.256l-2.733.267a.415.415 0 00-.371.407l-.092 1.962-2.56.581-.903-1.742a.406.406 0 00-.486-.209c-.359.116-.73.244-1.089.383-.359.14-.718.279-1.065.43a.4.4 0 00-.232.488l.533 2.008-2.27 1.312-1.563-1.567a.423.423 0 00-.556-.035c-.312.209-.614.418-.903.627-.301.221-.602.441-.903.685a.413.413 0 00-.093.534l1.089 1.893-1.853 1.87-1.98-1.15a.42.42 0 00-.521.081c-.244.291-.475.569-.695.836-.22.279-.44.569-.66.871a.41.41 0 00.046.546l1.494 1.498-1.309 2.276-2.119-.569a.424.424 0 00-.498.244c-.162.325-.312.673-.451 1.01-.151.337-.29.685-.417 1.045a.394.394 0 00.173.499l1.68.976-.672 2.543h-1.992a.404.404 0 00-.405.371c-.07.395-.139.79-.185 1.185l-.012.011c-.058.418-.093.825-.127 1.208a.42.42 0 00.335.453l1.598.429v2.625l-1.621.441c-.208.058-.336.244-.312.429.034.419.081.837.139 1.266.057.418.115.836.196 1.243.035.209.22.348.417.348h1.668l.683 2.543-1.424.813a.425.425 0 00-.174.534c.151.36.289.731.44 1.08.151.36.313.72.486 1.08a.4.4 0 00.475.209l1.865-.5 1.32 2.276-1.332 1.324a.423.423 0 00-.023.557c.208.291.428.593.671.883.232.302.475.592.718.871a.423.423 0 00.521.093l1.68-.987 1.864 1.869-.938 1.626a.408.408 0 00.093.522c.301.244.602.488.903.709.301.232.625.453.949.662a.406.406 0 00.522-.047l1.366-1.358 2.27 1.3-.475 1.777a.425.425 0 00.243.499c.347.151.718.302 1.089.453.37.139.741.279 1.123.395a.403.403 0 00.486-.175l.915-1.59 2.524.685v1.695c0 .221.174.395.383.418.359.058.741.105 1.134.139.394.035.788.07 1.17.093a.404.404 0 00.428-.313l.452-1.684h2.629l.451 1.73c.047.186.22.302.406.302h3.138a.41.41 0 00.405-.313l.463-1.719h2.652l.475 1.73c.046.186.22.302.394.302h3.254a.411.411 0 00.405-.313l.463-1.719h2.664l.463 1.73a.41.41 0 00.405.302h3.659a.413.413 0 00.406-.313l.463-1.719h2.663l.463 1.73c.047.186.22.302.406.302h3.659a.41.41 0 00.405-.313l.463-1.719h2.664l.463 1.73a.41.41 0 00.405.302h3.66a.411.411 0 00.405-.313l.463-1.719h2.664l.463 1.73a.42.42 0 00.405.302h3.659a.413.413 0 00.406-.313l.463-1.719h2.663l.463 1.73a.42.42 0 00.406.302h3.659c.197 0 .371-.128.405-.313l.463-1.719h2.664l.463 1.73a.42.42 0 00.405.302h3.66a.41.41 0 00.405-.313l.463-1.719h2.664l.463 1.73a.42.42 0 00.405.302h3.659a.413.413 0 00.406-.313l.463-1.719h2.663l.463 1.73c.047.186.22.302.406.302h3.659a.41.41 0 00.405-.313l.463-1.719h2.664l.463 1.73a.41.41 0 00.405.302h3.66a.41.41 0 00.405-.313l.463-1.719h2.664l.463 1.73a.41.41 0 00.405.302h3.682c.197 0 .371-.128.406-.313l.475-1.719h2.663l.452 1.73a.43.43 0 00.405.302h3.694a.41.41 0 00.405-.313l.463-1.719h2.664l.463 1.73a.41.41 0 00.405.302h3.683a.41.41 0 00.405-.313l.463-1.719h2.664l.463 1.73a.42.42 0 00.405.302h3.694a.41.41 0 00.405-.313l.464-1.719h2.663l.463 1.73c.047.186.22.302.406.302h3.682a.41.41 0 00.405-.313l.464-1.719h2.663l.463 1.73a.42.42 0 00.405.302h3.694a.422.422 0 00.406-.313l.463-1.719h2.652l.475 1.73a.396.396 0 00.393.302h3.694a.413.413 0 00.406-.313l.463-1.719h2.663l.463 1.73c.047.186.22.302.406.302h3.682c.197 0 .371-.128.405-.313l.464-1.719h2.663l.463 1.73a.431.431 0 00.405.302h3.695a.412.412 0 00.405-.313l.463-1.719h2.663l.464 1.73c.046.186.22.302.393.302h3.694a.413.413 0 00.406-.313l.463-1.719h2.663l.463 1.73a.42.42 0 00.406.302h3.694a.397.397 0 00.393-.313l.475-1.719h2.652l.475 1.73a.41.41 0 00.405.302h3.683a.411.411 0 00.405-.313l.463-1.719h2.663l.464 1.73a.42.42 0 00.405.302H498c.197 0 .371-.128.406-.313l.463-1.719h2.663l.464 1.73a.42.42 0 00.405.302h3.694a.41.41 0 00.405-.313l.463-1.719h2.652l.475 1.73a.41.41 0 00.405.302h3.092a.41.41 0 00.405-.325l.452-1.707h2.629l.451 1.695a.405.405 0 00.44.302c.382-.023.765-.058 1.147-.093h.011c.394-.046.788-.092 1.147-.139a.414.414 0 00.359-.418v-1.695l2.536-.685.903 1.59a.445.445 0 00.521.175 24.6 24.6 0 001.089-.395c.382-.151.752-.302 1.1-.453a.438.438 0 00.243-.499l-.475-1.765 2.258-1.312 1.378 1.358a.423.423 0 00.556.035c.313-.221.614-.43.903-.65.301-.221.602-.465.904-.709a.4.4 0 00.104-.522l-.938-1.626 1.853-1.869 1.69.987a.422.422 0 00.521-.093c.244-.279.487-.569.718-.871.232-.29.452-.592.684-.894a.44.44 0 00-.047-.546l-1.32-1.324 1.309-2.276 1.876.5a.41.41 0 00.486-.232c.162-.349.324-.709.475-1.057.162-.36.301-.732.44-1.103a.422.422 0 00-.186-.511l-1.412-.813.671-2.543h1.679c.22 0 .394-.163.417-.372.07-.406.139-.812.186-1.219.069-.429.115-.847.15-1.266.023-.197-.139-.394-.336-.441l-1.609-.429v-2.625l1.633-.441a.418.418 0 00.312-.441 24.78 24.78 0 00-.139-1.219 20.277 20.277 0 00-.197-1.208.409.409 0 00-.405-.348h-1.98l-.683-2.543 1.69-.976a.406.406 0 00.174-.499c-.127-.36-.266-.708-.417-1.045-.15-.348-.301-.697-.463-1.034a.421.421 0 00-.486-.22l-2.131.569-1.309-2.276 1.506-1.498a.43.43 0 00.023-.581c-.22-.29-.429-.569-.637-.836-.232-.29-.475-.569-.695-.836a.41.41 0 00-.544-.069l-1.957 1.138-1.853-1.87 1.089-1.893a.413.413 0 00-.105-.534c-.301-.244-.59-.464-.903-.685a17.734 17.734 0 00-.915-.65.434.434 0 00-.532.058l-1.575 1.567-2.27-1.312.544-2.008c.047-.209-.058-.43-.254-.5-.336-.139-.684-.29-1.043-.418a20.445 20.445 0 00-1.088-.383.417.417 0 00-.498.221l-.903 1.73-2.559-.581-.082-1.974c0-.197-.162-.36-.358-.395a17.65 17.65 0 00-.707-.081 51.367 51.367 0 01-.706-.07l-1.332-.116a.41.41 0 00-.428.256l-.718 1.788-2.606-.314-.255-1.799a.419.419 0 00-.393-.36l-3.069-.291a.43.43 0 00-.44.291l-.637 1.718-2.617-.255-.301-1.823a.419.419 0 00-.382-.349l-3.057-.29a.408.408 0 00-.44.29l-.637 1.719-2.617-.244-.302-1.835a.43.43 0 00-.393-.348l-3.057-.29a.403.403 0 00-.429.29l-.637 1.719-2.617-.244-.312-1.835a.408.408 0 00-.383-.348l-3.057-.291a.417.417 0 00-.44.291l-.637 1.718-2.605-.255-.313-1.823a.42.42 0 00-.394-.349l-3.045-.29a.417.417 0 00-.44.29l-.649 1.719-2.605-.256-.301-1.823a.42.42 0 00-.394-.348l-3.057-.29a.401.401 0 00-.428.29l-.649 1.719-2.605-.244-.302-1.835a.429.429 0 00-.393-.348l-3.057-.291a.404.404 0 00-.429.291l-.648 1.718-2.606-.255-.312-1.835a.422.422 0 00-.394-.337l-3.046-.29a.417.417 0 00-.44.29l-.637 1.719-2.605-.255-.313-1.824a.42.42 0 00-.394-.348l-3.045-.302a.43.43 0 00-.44.302l-.637 1.719-.301-.035v-3.124h2.802a.425.425 0 00.417-.429v-5.075h119.448c.243 0 .498-.011.741-.046 1.876-.221 3.567-1.266 4.794-2.938 1.204-1.637 1.945-3.89 1.945-6.537 0-.569-.034-1.15-.104-1.754z" fill="#fff"/></svg>