<svg width="351" height="104" fill="none" xmlns="http://www.w3.org/2000/svg"><path d="M97.358 80.301c2.093 0 3.989.854 5.361 2.226a7.56 7.56 0 012.219 5.362 7.56 7.56 0 01-2.219 5.362 7.559 7.559 0 01-5.361 2.219 7.56 7.56 0 01-5.362-2.219 7.566 7.566 0 01-2.227-5.362c0-2.093.855-3.99 2.227-5.362a7.566 7.566 0 015.362-2.226zm15.805 6.398h4.487l-.889-6.517h-5.544a15.819 15.819 0 011.946 6.517zm4.991.182v.035l.056.399h2.457V84.48h-1.246a.235.235 0 01-.231-.238V68.828c0-.119.077-.21.189-.231l12.131-3.255c.021-.007.042-.007.063-.007h22.736v-.518h-47.166l8.932 7.343c.042.035.07.091.077.147l2.002 14.574zm2.982.434h31.689V84.48h-31.689v2.835zm32.165 0h1.008V84.48h-1.008v2.835zm1.239.476h-36.533a.293.293 0 01-.105-.028l-.014-.007-.007-.007h-.007l-.007-.007h-.007v-.007h-.007v-.007h-.007v-.007h-.007v-.007h-.007v-.007l-.007-.007-.007-.007-.007-.007v-.007h-.007v-.007l-.007-.007v-.007l-.007-.007v-.014h-.007v-.014l-.007-.007v-.028l-.007-.007 36.771.21zm-.231-26.53v-.098H80.893v3.178h73.416v-3.08zm-73.891 2.436V59.77h-1.66L65.34 76.409h7.126l7.952-9.919v-2.793zm.475-3.003h.448V33.275h-1.33v26.026h.645c.132 0 .237.105.237.231v1.162zm.924 0h5.53l-.727-11.725v-.084l-.645-10.409h-4.158v22.218zm6.007 0h28.797l-3.619-10.556-.343-.987h-25.55l.715 11.543zm29.294 0h22.736l3.108-14.126c.105-.385.168-.756.189-1.106.077-1.05-.203-1.967-.819-2.702-.63-.749-1.624-1.33-2.975-1.694a13.214 13.214 0 00-2.457-.385h-.007l-19.481-1.519c-.007.224-.07.476-.21.742l-.245.539c-.567 1.393-1.568 3.514-2.422 5.299l-1.449 3.185 4.032 11.767zm23.219 0h8.547v-1.162a.24.24 0 01.238-.231h1.435v-9.849h-2.926a.236.236 0 01-.238-.238v-5.992c0-.133.105-.238.238-.238h24.626c.133 0 .238.105.238.238v5.992a.236.236 0 01-.238.238h-8.26v9.849h12.054c-.259-.217-.553-.525-.952-.938a48.352 48.352 0 00-1.946-1.946c-.784-.756-1.176-1.134-1.309-1.624a1.083 1.083 0 01-.042-.217c-.091-.7-.182-1.253-.252-1.701-.168-1.043-.252-1.568-.133-2.023.119-.483.637-1.092 1.281-1.75.238-.245.518-.532.861-.903a.367.367 0 01.07-.077c.364-.364.889-.49 1.946-.749l.007-.007c.364-.084.791-.189 1.33-.336.546-.147.973-.266 1.33-.371 1.043-.308 1.561-.455 2.058-.322.203.049.378.147.574.294l11.627 6.58c.42.238.644.623.749 1.05.056.231.07.476.07.714l6.258.182c.049 0 .105 0 .161.007l2.842.203c.273-.49.637-1.141 1.596-.826a56.46 56.46 0 013.395 1.288c.385.168.581.329.672.539.063.14.07.28.049.434l2.464.182c.119-.819.749-.903 1.533-.889l.301.007c.147.007.294.007.476.007.49 0 .791.371.931.784.042.126.063.259.077.385.007.126 0 .245-.021.357-.056.252-.196.427-.434.441a2.603 2.603 0 01-.497-.014l-.014.028c-.021.035-.042.077-.063.105.07.063.133.126.189.189.14.182.119.385.112.84v.077h12.18v-2.982h-10.395c-1.68 0-1.911-1.379-1.911-2.737 0-.21.014-.455.021-.7 0-.189.007-.371.007-.574v-8.813c0-.021.007-.042.007-.063l.084-.287-38.612-6.293h-.014l-1.113-.182h-.021l-.007-.007-5.481-.889a.235.235 0 01-.196-.266l.203-1.575-3.598-.546c-.7.133-1.659.119-2.989.098-.469-.007-.994-.014-1.673-.014h-.035l-.014-.007h-.021l-.007-.007c-.014 0-.028-.007-.042-.014l-12.439-6.608-63.329-.749v11.921h.659v-5.348c0-1.064.433-2.051 1.084-2.786.68-.763 1.61-1.253 2.542-1.253h.945c.266-.042.546 0 .819.161.594.343.727.987.573 1.624a2.815 2.815 0 01-.272.679 2.61 2.61 0 01-.456.574c-.343.329-.776.532-1.21.476-.245.028-.406.126-.504.273-.133.196-.175.504-.175.882v4.718h28.321a1.127 1.127 0 01.973.525 1.4 1.4 0 01.07.147l19.614 1.533c.952.063 1.799.203 2.548.399 1.449.392 2.52 1.022 3.206 1.848.707.833 1.015 1.862.938 3.031a6.758 6.758 0 01-.203 1.183l-3.087 14.021zm-27.146 26.474c.014.238.014.476.014.721 0 4.102-1.554 7.84-4.109 10.654a.224.224 0 01-.07.14l-.889.896a.25.25 0 01-.147.063 15.48 15.48 0 01-2.051 1.575.247.247 0 01-.105.119l-1.092.637a.243.243 0 01-.154.028 15.79 15.79 0 01-7.23 1.736 15.801 15.801 0 01-11.215-4.641 15.797 15.797 0 01-4.64-11.207c0-.952.084-1.89.245-2.8h-4.705l-3.234 1.869a.215.215 0 01-.132.042H68.37v3.332c0 .735-.218 1.337-.68 1.75-.427.392-1.056.609-1.897.609h-13.69a.28.28 0 01-.169-.07l-5.326-5.264c-.154.161-.371.266-.651.329-.029.693-.218 1.246-.589 1.687-.399.483-1 .833-1.827 1.113l-.741.252c-2.408.819-2.625.896-5.691.903v.161a.585.585 0 01-.162.399h-.007a.561.561 0 01-.398.168c-.19 0-.35.007-.519.014-.181.007-.37.014-.518.014-.805 0-1.47-.14-1.47-.959 0-.399 0-.644-.006-.868-.015-.931-.022-1.414.223-1.715l.014-.021c.273-.322.729-.315 1.66-.308l.615.007c.155 0 .295.056.393.161h.007a.561.561 0 01.167.399v.217l.4.007c.881.007 1.406.014 2.456-.266.407-.112.778-.196 1.107-.273 1.07-.245 1.666-.385 1.785-.987h-.526a.24.24 0 01-.237-.238v-1.694h-4.69c-.029 0-.056 0-.084-.014l-5.047-2.058c-.014 0-.021-.007-.035-.014l-5.979-2.436a.233.233 0 01-.16-.224v-8.204c0-.07.035-.133.084-.182a.219.219 0 01.07-.035l.111-.049v-4.109a.143.143 0 01-.076 0c-.008 0-.021-.007-.035-.007l-.008-.007-.014-.007h-.014l-.007-.007-.006-.007h-.008v-.007c-.006-.007-.02-.014-.027-.021l-.008-.007-.02-.021v-.007l-.008-.014h-.007c-.014-.028-.02-.056-.027-.084v-1.764c0-2.051.37-6.44 2.512-9.527.63-.896 1.4-1.687 2.352-2.275a232.17 232.17 0 014.229-10.906 159.188 159.188 0 015.026-10.92c.007-.014.007-.021.014-.028l.244-.49c.547-1.134 1.212-2.492 2.36-2.492H78.87c.672 0 .966.364 1.092.896h1.379v-4.781l-40.733-.483v.896a.24.24 0 01-.239.238h-.188l.006.098c0 .14.008.287.008.392 0 .749-.133 1.47-1.036 1.47-.91 0-1.036-.721-1.036-1.47 0-.105.006-.252.006-.392l.008-.098h-.21a.24.24 0 01-.238-.238v-.931L26.084 25.4l-1.631 1.372a.224.224 0 01-.168.077h-1.82l.006.294c0 .749-.125 1.61-1.197 1.61-1.078 0-1.204-.861-1.204-1.61l.008-.294c-.127 0-.252.007-.378.007-.232.007-.47.021-.672.021-.231 0-.462-.014-.686-.035-.008 0-.021.007-.035.007h-2.892c-.272 0-.517.007-.762.014a13.33 13.33 0 01-.708.021c-.671 0-1.225-.077-1.49-.427l-.617 2.016h5.664c.434 0 .643.126.735.392h2.044c.133 0 .238.105.238.238v.084c.119-.007.224-.007.336-.014.181-.007.363-.014.503-.014.651 0 1.12.112 1.12.672s-.469.665-1.12.665c-.14 0-.322-.007-.503-.014-.113 0-.218-.007-.337-.007v.084a.24.24 0 01-.238.238h-2.219l-7.272 1.141-1.373 4.515a.237.237 0 01-.168.175l-6.44 1.722-.007.007h-.007l-1.274.336a.23.23 0 01-.287-.161L.008 33.961a.241.241 0 01.168-.294l1.274-.336.007-.007 1.407-.371L4.908 9.944a4.772 4.772 0 01-1.14-.959 4.767 4.767 0 01-1.12-2.632 4.75 4.75 0 01.58-2.8c.231-.413.532-.798.896-1.141l-.35-.602a.932.932 0 01-.09-.693.926.926 0 01.391-.532L4.11.571l.007-.007c.4-.231 1.071-.616 1.526.168l.35.602a4.747 4.747 0 014.264.777 4.74 4.74 0 011.603 2.198c.189.553.287 1.148.258 1.778l.518.287a.388.388 0 01.057.042.983.983 0 01.56-.175h5.116a6.98 6.98 0 01.666-.028c.21 0 .448.007.686.014.133 0 .265.007.405.007l.077-3.164a.242.242 0 01.224-.231l20.79-1.19a.226.226 0 01.203.091l2.625 3.269 37.52.448V3.07c0-.126.112-.238.239-.238h3.08a.24.24 0 01.237.238v2.429l145.341 1.75h76.986a.82.82 0 01.077-.21c.217-.42.574-.399 1.295-.357.252.014.553.028.931.028.07 0 .133.028.182.084l3.535 4.032h14.567l2.576-1.484a.232.232 0 01.112-.035h4.347c.042 0 .084.014.119.035l2.569 1.484h5.971l.007.007h.014c.315.049.616.084.889.119 1.505.189 2.338.294 2.338 1.659 0 .805-.651 1.127-1.372 1.484l-.266.133-.021 4.466.021 4.466.266.133c.721.357 1.372.679 1.372 1.484 0 1.365-.833 1.47-2.338 1.659-.217.028-.455.056-.7.091v.602h5.824a.24.24 0 01.238.238v6.251a.24.24 0 01-.238.238h-24.717a.24.24 0 01-.231-.238v-6.013h-2.184v.917a.242.242 0 01-.098.189l-7.987 6.608 3.003 3.633 1.169-1.008a.241.241 0 01.336.021l2.45 3.003a.234.234 0 01-.035.329l-.007.007-11.711 9.863a.233.233 0 01-.329-.028l-2.352-2.842a.233.233 0 01.028-.329l.91-.784-3.171-3.829-4.774 3.941-.287 3.367-.392 4.55c-.028.315-.196.588-.448.791a1.497 1.497 0 01-.896.315h-23.667c-.364 0-.686-.147-.924-.392l-.014-.007a2.634 2.634 0 01-.175-.217c-.217.378-.588.616-1.19.616h-2.422v2.982h42.742l-.007-.007v-.007h-.007v-.007h-.007c-.049-.042-.091-.077-.133-.119a2.085 2.085 0 01-.609-1.477v-5.586c0-.574.231-1.092.609-1.47a2.074 2.074 0 011.225-.595c.021-.014.049-.014.084-.014h27.825c.567 0 1.085.224 1.463.595l.014.014c.378.378.609.896.609 1.47v5.586a2.068 2.068 0 01-.749 1.596c-.007.014-.021.021-.028.028h-.007c-.259.21-.567.357-.903.427a.268.268 0 01-.133.035c-.021 0-.042 0-.063-.007-.063.007-.133.007-.203.007h-8.421v1.785a.235.235 0 01-.231.238h-2.282l-2.968 2.968a.258.258 0 01-.168.07h-1.071v6.216c.126 0 .245-.007.364-.014.231-.007.469-.014.665-.014 1.106 0 2.1.189 2.1 1.414 0 2.212-.413 2.205-2.597 2.184-.196-.007-.399-.007-.763-.007h-.637v2.009h4.585c.126 0 .231.105.231.231v3.78a.233.233 0 01-.231.231h-4.585v5.81h3.794v-.462a.24.24 0 01.231-.238l.021.007h.217c1.211-.007 1.792-.007 2.128.357.308.329.301.875.294 1.932v.567c0 1.05-.84 1.204-1.729 1.204-.147 0-.322-.007-.497-.014-.14 0-.273-.007-.434-.007a.235.235 0 01-.231-.238v-.462h-3.794v.581h.742c.238 0 .378.196.427.448a1.159 1.159 0 010 .441c-.049.252-.189.448-.427.448h-17.276c-.238 0-.378-.196-.427-.448a1.14 1.14 0 010-.441c.049-.252.189-.448.427-.448h.602v-1.449h-3.08a.241.241 0 01-.238-.21l-.952-7.252-3.444 3.444a.228.228 0 01-.168.07h-2.695c.238 1.092.364 2.226.364 3.388a15.8 15.8 0 01-4.116 10.654.224.224 0 01-.07.14l-.889.896a.233.233 0 01-.147.063 15.48 15.48 0 01-2.051 1.575.247.247 0 01-.105.119l-1.092.637a.243.243 0 01-.154.028 15.793 15.793 0 01-7.231 1.736 15.813 15.813 0 01-11.214-4.641 15.977 15.977 0 01-3.927-6.489h-.742c-.007.049-.021.091-.028.14-.098.336-.315.581-.665.581h-8.827c-.343 0-.567-.245-.658-.581-.014-.049-.021-.091-.035-.14h-.791a15.88 15.88 0 01-3.402 5.936.224.224 0 01-.07.14l-.889.896a.233.233 0 01-.147.063 15.48 15.48 0 01-2.051 1.575.247.247 0 01-.105.119l-1.092.637a.243.243 0 01-.154.028 15.793 15.793 0 01-7.231 1.736 15.785 15.785 0 01-11.207-4.641 15.803 15.803 0 01-4.627-11.97l-3.724-2.149-.504 4.151v.014h-.007v.035l-.007.007v.014l-.007.007v.007l-.007.007v.007h-.007v.014h-.007l-.007.014-.007.014h-.007v.007h-.007l-.007.007v.007h-.007l-.007.007c-.014.014-.028.021-.035.028h-.007l-.014.007-.014.007h-.021l-.007.007h-13.216l-1.82 1.82a.232.232 0 01-.168.07h-31.269a.217.217 0 01-.168-.07l-3.045-3.045v1.778h.357c.602 0 .672.462.672.861l-.007.238a.236.236 0 01-.238.238h-17.465a.235.235 0 01-.231-.238l-.007-.238c0-.399.07-.861.672-.861h.357v-2.107h-.966l-41.349-.623zm-6.79-22.351H84.429v6.846l27.488-2.317-5.516-4.529zm202.454-5.047H192.074a.231.231 0 01-.203.035.259.259 0 01-.077-.035H164.41a2.025 2.025 0 01.616.924h143.066c.119-.252.28-.483.476-.672.091-.091.189-.175.287-.252zm-129.885-.469h8.323l-3.619-1.806c-.077.154-.168.28-.28.392-.357.364-.889.49-1.946.749h-.007c-.364.091-.791.196-1.33.343-.455.119-.826.224-1.141.322zm9.366 0h3.43l.602-2.219.469-1.918a2.487 2.487 0 00-.049-.791c-.07-.308-.231-.588-.518-.756l-10.087-5.705c.196.203.42.441.7.721.413.406.728.707.987.959.784.756 1.183 1.134 1.316 1.624.126.497-.021 1.015-.329 2.058-.105.357-.224.784-.371 1.33s-.252.973-.343 1.337c-.112.462-.203.826-.294 1.12l4.487 2.24zm3.92 0h10.276c-.154-.217-.245-.483-.315-.721l-2.66-.189a2.616 2.616 0 01-.245-.028l-6.566-.868-.49 1.806zm13.916 0h5.558v-.077c-.28-.021-.504-.098-.679-.238-.189-.154-.301-.371-.336-.672l-2.576-.189c-.014.182-.056.35-.147.504-.14.231-.385.406-.798.49-.336.063-.679.126-1.022.182zm-55.384.469h-1.428v.924h5.04c.098-.308.273-.588.497-.812a.901.901 0 01.119-.112h-4.228zm157.129 1.393H165.11v3.178h128.667c.056 0 .105.021.147.056l10.458 7.581a.263.263 0 01.098.175l.371 2.828v.042l.714 5.411v.035l.987 7.504h2.877v-.742h-1.344a.236.236 0 01-.238-.238V61.751c0-.203.021-.399.07-.588zm-75.432 3.654h-12.369v22.484a.236.236 0 01-.238.238h-37.261a.236.236 0 01-.238-.238V64.817h-.602v22.134a.236.236 0 01-.238.238h-9.31a.236.236 0 01-.238-.238V64.817h-6.881v22.498h6.09v.007h.028v.007h.021v.007h.014v.007h.014v.007h.007l.007.007h.007v.007h.007v.007h.007l.007.007.007.007 3.381 3.374h31.073l1.82-1.813a.228.228 0 01.168-.07h13.055l.518-4.214a.231.231 0 01.014-.203l.007-.007 1.155-9.436v-.021l.336-2.73a.26.26 0 01.098-.168l9.534-7.28zm-12.838 0h-22.715v1.463h.308c.133 0 .238.105.238.231v.322h9.926c.133 0 .238.105.238.231v5.516h12.005v-7.763zm-25.48 0h-11.319v7.763h.721v-5.516c0-.126.105-.231.238-.231h9.814v-.322c0-.126.105-.231.238-.231h.308v-1.463zm-12.859 0h-8.848v7.042h8.848v-7.042zm-64.372-25.76l-.021-.105a.762.762 0 00-.07-.175.594.594 0 00-.238-.217.657.657 0 00-.329-.084H86.445l.07 1.085h25.668c.21 0 .399.056.56.147.154.091.287.217.371.364.091.147.14.322.14.511 0 .182-.042.371-.154.56l-2.016 3.493c-.812 1.407-2.086 1.4-3.29 1.4h-20.88l.16 2.639h25.592c.189-.49.7-1.568 1.309-2.849l.161-.336 2.464-5.418c.203-.49.322-.854.336-1.015zm-73.5-34.055l-2.31-2.877-20.453 1.169-.063 2.457c.035-.056.076-.105.119-.154.476-.553 1.224-.84 2.358-.84l20.35.245zM20.561 7.613l-.008.273v6.328l200.214 1.883.035-.07c2.079-3.99 4.634-7.196 7.476-8.337L84.884 5.968l-3.08-.028c-.022 0-.035-.007-.056-.007L43.94 5.478h-.021l-20.831-.252c-.988 0-1.625.231-2.003.679-.335.392-.49.966-.524 1.708zm-.008 7.07v10.185l5.447.056h.006l11.907.147.015-.007.02.007 43.393.511v-3.017c0-.133.106-.238.239-.238h2.135a.24.24 0 01.237.238v3.045l62.496.742-11.018-6.356a.26.26 0 01-.14-.217.24.24 0 01.238-.238h11.977c.133 0 .238.105.238.238 0 2.268 2.856 3.913 6.741 5.068 1.582.476 3.325.861 5.124 1.183V15.992L20.553 14.683zM4.621 2.335l.014.014v.007l1.372 2.38h.007v.007l.014.021.007.014.007.007.007.014v.007l.007.014.007.014.007.007.007.014.007.007.007.014.7 1.211c.231.301.441.322.917.049a.401.401 0 00.077-.077.478.478 0 00.12-.196.848.848 0 00-.07-.392l-.729-1.26-.007-.007v-.007l-.007-.007-.028-.056-.007-.007-.007-.007-1.365-2.373-.014-.014-.44-.763c-.218-.378-.63-.14-.876 0l-.014.007a.433.433 0 00-.16.588l.44.77zm-.252.497a4.258 4.258 0 00-1.253 3.472 4.29 4.29 0 001.008 2.373c.238.273.518.525.833.735l.308-3.514v-.021c0-.343.084-.693.273-1.022L4.37 2.832zm3.031.945c.532.007.96.168 1.281.427l2.969 1.631c0-.483-.085-.945-.232-1.365A4.31 4.31 0 009.97 2.489a4.299 4.299 0 00-2.282-.875 4.33 4.33 0 00-1.456.14l1.17 2.023zm.868 1.505l.014.021a.883.883 0 01.12.497c.013.28-.099.525-.414.721a1.628 1.628 0 01-.539.266c-.399.147-.65.063-.903-.231a.627.627 0 01-.105-.133c-.084-.119-.16-.252-.252-.406-.084-.147-.154-.266-.23-.406l-.134-.245a1.586 1.586 0 00-.084.504v.021a1.666 1.666 0 00.742 1.365c.245.161.546.259.89.259.77 0 1.266-.42 1.476-.952.091-.217.133-.448.133-.679 0-.231-.042-.469-.133-.679a1.449 1.449 0 00-.448-.616l-.294-.161c-.02-.014-.042-.028-.063-.049a1.637 1.637 0 00-.343-.098l.05.084c.104.161.21.322.286.462.091.154.168.308.231.455zm12.25 24.374v.343l.35.014c.162.007.323.014.49.014.378 0 .651-.035.651-.196 0-.168-.273-.196-.65-.196-.169 0-.323 0-.49.007l-.35.014zm-2.212-.322v.14c0 .098-.007.252-.014.42 0 .126-.007.266-.007.427h1.764v-.987h-1.742zm-.497 1.022v-1.183c-.035-.154-.119-.224-.308-.224h-5.803l-.763 2.492 6.874-1.085zm-6.517-1.694c0-.014.008-.028.014-.042l.98-3.234V6.717l-.482-.259a.522.522 0 01-.085-.049L9.312 5.086c.091.259.14.525.14.798a2.4 2.4 0 01-.16.854c-.28.7-.925 1.246-1.919 1.246-.434 0-.826-.126-1.148-.336a2.023 2.023 0 01-.588-.581l-.245 2.744c0 .021 0 .035-.007.056L3.32 33.156a.25.25 0 01-.175.21l-1.344.357 1.1 4.116 6.096-1.638 1.38-4.529.007-.014.91-2.996zm3.185-2.261a1.217 1.217 0 01-.266-.763V7.445c0-.273.091-.532.252-.735h-1.21a.498.498 0 00-.498.497v18.669c0 .455.518.532 1.19.532.182 0 .357 0 .532-.007zm2.633-.028c-.238-.238-.386-.581-.386-1.078V7.788c0-.497.148-.84.386-1.078h-1.702a.743.743 0 00-.51.217l-.014.007a.744.744 0 00-.204.511v18.193a.73.73 0 00.218.518.71.71 0 00.504.217h1.708zm1.483-19.677a.336.336 0 01-.084.014h-.09c-.686.077-1.226.329-1.226 1.078v17.507c0 .966.896 1.106 1.834 1.106.245 0 .456-.007.659-.014l.363-.007.035-17.227V6.71l-.378-.014c-.21-.007-.42-.014-.671-.014-.148 0-.294.007-.442.014zM2.444 37.958l-1.099-4.109-.819.217 1.106 4.116.812-.224zm19.552-11.109h-1.442c-.007.077-.007.161-.007.294 0 .532.076 1.141.727 1.141s.729-.609.729-1.141c0-.133-.008-.217-.008-.294zm-1.442-1.505v1.029H24.2l1.162-.98-4.81-.049zm64.09-19.852V3.308h-2.603v2.156l2.603.028zm84.105 23.485l-2.471-.378a2.85 2.85 0 00-.021.35c0 2.408-.147 3.549-.889 4.088l2.793.427.588-4.487zm-2.352-.833l2.415.364.07-.539a1.32 1.32 0 01.105-.392 61.632 61.632 0 01-1.841-.133 1.178 1.178 0 00-.749.7zm-6.321 4.858c.483 0 .98.007 1.435.014 3.801.049 4.27.056 4.27-4.067 0-.483.105-.924.329-1.274.07-.105.147-.203.238-.294a85.316 85.316 0 01-6.272-.791v6.412zm16.184-4.256l-1.232 7.679 38.43 6.265 1.68-6.279c0-.413.021-.861.049-1.323l-38.927-6.342zm-1.694 7.602l1.225-7.679-.623-.105-1.274 7.679.672.105zM147.28 20.017h-10.87l11.039 6.37.007.007 12.152 6.447v-6.335c-1.848-.322-3.64-.721-5.257-1.204-3.955-1.183-6.888-2.884-7.07-5.285zm12.796-4.025v10.115c4.914.833 10.115 1.141 13.251 1.141h43.246c.931-3.57 2.282-7.371 3.955-10.689l-60.452-.567zm13.356 20.174l1.267-7.679-5.026-.819c-.098-.007-.168-.007-.21.028-.049.049-.091.147-.112.329l-.959 7.315 5.04.826zm-.511-8.442l2.079.336h.014l.007.007 1.064.168.007.007h.021l39.109 6.37c.175-1.988.595-4.375 1.232-6.888h-43.533zm44.065-.203a.13.13 0 01-.014.049c-.847 3.29-1.323 6.363-1.358 8.638h2.142c.042-1.659.504-4.263 1.274-7.161.742-2.793 1.764-5.873 2.968-8.659l.091-.196c2.037-4.704 3.85-8.89 6.51-8.89h31.458c1.386 0 2.191.147 2.681.665.483.511.595 1.337.595 2.709V22.6c0 .616 0 .917-.112 1.162-.112.259-.308.392-.686.658-1.498.945-3.066 2.142-4.536 3.164-1.057.735-1.071.735-2.254.735h-5.796l-.056 21.77h20.615c1.106 0 1.239.882 1.239 1.659l-.007.315h1.316V10.637c0-.805-.322-1.533-.854-2.065l-.007-.007a2.907 2.907 0 00-2.051-.847h-39.647c-3.521 0-6.741 3.668-9.275 8.526-1.806 3.451-3.262 7.504-4.235 11.277zm-53.991.581c.973 0 1.596.539 1.869 1.218.105.266.161.546.161.833 0 .28-.056.56-.161.826-.273.686-.896 1.218-1.869 1.218-.966 0-1.589-.532-1.862-1.218a2.252 2.252 0 01-.161-.826c0-.287.056-.567.161-.833.273-.679.896-1.218 1.862-1.218zm1.428 1.393c-.203-.511-.679-.917-1.428-.917-.742 0-1.218.406-1.428.917-.084.21-.119.434-.119.658 0 .224.035.448.119.651.21.518.686.924 1.428.924.749 0 1.225-.406 1.428-.924a1.773 1.773 0 000-1.309zm46.774 28.854c.028.126.077.21.154.273.126.098.329.14.616.14.133 0 .238.105.238.238v.301h.672v-.084c.007-.483.049-.693-.483-.784l-1.197-.084zm-58.142 14.084h1.254v-6.629h-22.708l-11.942 3.206v3.423h33.397zm-36.967 2.835h-6.867l-.756 1.309.098.098c.91.91 1.708 1.932 2.373 3.038h5.754l-.602-4.445zm-7.973.973l.749-1.302a.247.247 0 01.217-.14h6.937l-.315-2.338-3.269-2.681-28.007 2.352V77.2a.235.235 0 01-.23.238h-1.883a.235.235 0 01-.231-.238v-1.183h-1.428a.235.235 0 01-.239-.231v-3.339l-2.695.049v2.359l1.142.301a.25.25 0 01.153.126l.4.693a.222.222 0 01.028.112v3.178a.222.222 0 01-.063.161l-.638.637a.244.244 0 01-.168.07h-5.76v1.26c0 .287-.043.567-.127.833h9.857c.797-2.1 2.036-3.99 3.597-5.551a15.83 15.83 0 0111.215-4.641c4.15 0 7.93 1.596 10.758 4.207zM82.37 82.702h-5.95v.868h5.676c.085-.294.175-.588.274-.868zm-.4 1.337H71.157a2.858 2.858 0 01-1.288.301H47.084c-.006.392-.006.742-.014 1.05h17.263a.23.23 0 01.133.042l1.897 1.099h7.251l3.248-1.876a.183.183 0 01.119-.035h4.858c.041-.196.084-.385.133-.581zm11.55 17.192l.091.021c.498.133.729.196.813.49l.007.021c.049.21-.022.462-.154.931l-.07.252a15.2 15.2 0 002.275.294l-.008-.154c-.006-.14-.013-.273-.013-.371.007-.539.097-.952.623-.952h.112c.51 0 .755 0 .91.266.112.182.112.455.105.959v.252c.77-.042 1.532-.14 2.274-.294l-.049-.154c-.042-.126-.077-.252-.105-.35-.14-.525-.154-.945.357-1.085l.098-.028c.497-.133.728-.196.952.021.161.147.224.413.35.896l.063.259a14.755 14.755 0 002.114-.875l-.049-.077c-.063-.105-.133-.217-.189-.308-.273-.476-.399-.882.063-1.148l.091-.056c.448-.259.658-.378.924-.231.196.112.329.343.574.784l.091.168c.644-.42 1.246-.882 1.813-1.393l-.063-.056a11.1 11.1 0 01-.266-.252l-.014-.014c-.378-.378-.595-.742-.224-1.113l.077-.077c.364-.364.532-.532.833-.462.217.056.406.252.756.609l.133.14a15.33 15.33 0 001.4-1.82l-.154-.077c-.119-.063-.231-.126-.322-.175l-.014-.007c-.462-.273-.763-.56-.504-1.008l.056-.098c.259-.441.378-.651.686-.658.217 0 .448.133.882.392l.238.14c.343-.679.637-1.393.882-2.121l-.175-.042h-.007a13.208 13.208 0 01-.35-.084c-.525-.14-.896-.336-.763-.847l.007-.014.021-.091c.133-.497.196-.728.49-.819h.021c.21-.056.469.021.931.154l.273.07a15.2 15.2 0 00.294-2.275l-.175.007c-.14 0-.273.007-.364.007-.546 0-.959-.098-.959-.623v-.105c0-.518 0-.756.266-.917.182-.112.455-.105.959-.098h.28a16.27 16.27 0 00-.301-2.282l-.175.056a6.021 6.021 0 01-.35.105c-.525.14-.945.154-1.085-.357l-.028-.105c-.133-.49-.196-.728.021-.945.154-.161.413-.224.903-.35l.273-.07a16.204 16.204 0 00-.882-2.128l-.161.098c-.105.07-.21.14-.308.189-.469.273-.875.399-1.141-.056l-.049-.098c-.259-.441-.378-.651-.231-.917.105-.196.343-.322.777-.574l.245-.133a15.403 15.403 0 00-1.4-1.827l-.126.133a5.01 5.01 0 01-.245.266l-.014.014c-.378.371-.735.588-1.106.224l-.077-.077c-.364-.364-.532-.532-.455-.833.049-.21.245-.399.602-.749l.203-.203a17.05 17.05 0 00-1.827-1.4l-.084.168c-.056.105-.112.21-.175.322-.273.469-.56.777-1.015.511l-.014-.007-.077-.042c-.448-.259-.658-.378-.665-.686 0-.224.133-.448.392-.882l.147-.245a15.301 15.301 0 00-2.128-.882l-.042.182v.007c-.028.119-.056.238-.084.343-.14.525-.336.903-.847.763h-.014l-.091-.028c-.497-.126-.728-.189-.812-.49l-.007-.021c-.049-.203.021-.462.154-.931l.077-.273a15.277 15.277 0 00-2.281-.294l.007.182c.007.133.007.266.007.364 0 .539-.091.952-.623.952h-.105c-.519 0-.757.007-.91-.259-.112-.189-.112-.455-.105-.959v-.28c-.778.042-1.54.147-2.276.301l.05.168c.041.126.076.252.105.357.14.525.154.945-.358 1.078l-.098.028c-.497.133-.728.196-.952-.014-.16-.154-.223-.413-.35-.903l-.07-.266c-.735.238-1.442.532-2.12.882l.09.147c.07.112.14.217.197.315.266.469.392.875-.063 1.134l-.092.056c-.448.259-.658.378-.924.231-.189-.105-.322-.343-.567-.784l-.14-.238c-.637.427-1.246.896-1.82 1.4l.127.119c.098.091.196.182.266.252l.013.014c.378.378.596.735.224 1.099l-.076.077c-.365.364-.532.539-.834.462-.21-.056-.398-.245-.748-.602l-.19-.196a15.92 15.92 0 00-1.4 1.82l.154.084c.106.056.21.112.323.175.469.266.777.56.51 1.015l-.007.014-.041.077c-.26.448-.379.658-.686.658-.218.007-.449-.133-.883-.385l-.23-.14a14.84 14.84 0 00-.876 2.121l.162.042h.006c.12.028.238.056.35.084.525.14.897.336.763.847l-.007.014-.02.091c-.133.497-.197.728-.49.812l-.021.007c-.21.049-.47-.021-.938-.154l-.253-.07a14.936 14.936 0 00-.3 2.387c.678-.028.847-.007 1.022.035.189.056.3.147.364.259.097.168.076.441.076.609h-.468v-.196c0-.133 0-.182-.126-.217a1.004 1.004 0 00-.154-.028c-.154-.021-.511.007-.721.007 0 .091-.008.182-.008.273 0 .175 0 .343.008.518.35.007.524.014.77 0 .034.007.112-.007.153-.014.056-.014.084-.042.078-.343h.469c-.008.175.013.476-.169.651a.584.584 0 01-.343.161c-.175.035-.546.014-.938.021.05.728.147 1.449.287 2.149l.161-.042c.127-.042.246-.077.35-.105.525-.14.945-.154 1.085.35l.029.105c.132.497.195.728-.022.952-.153.154-.412.224-.903.35l-.244.063c.238.728.532 1.435.875 2.114l.133-.084c.111-.07.216-.133.314-.189.47-.273.876-.392 1.135.063l.055.091c.26.448.379.651.232.924-.105.189-.343.322-.777.567l-.224.126c.42.644.888 1.246 1.392 1.82l.106-.119c.09-.098.181-.189.252-.259l.013-.014c.379-.378.736-.595 1.107-.224l.07.077c.37.364.538.532.462.826-.05.217-.246.406-.603.756l-.181.175c.567.511 1.175.98 1.813 1.4l.076-.14.175-.322c.273-.469.56-.777 1.015-.518l.015.007.077.049c.447.252.657.378.657.686.007.217-.133.448-.385.882l-.132.224c.678.336 1.385.637 2.12.875l.035-.154v-.014c.029-.119.056-.238.085-.343.14-.525.335-.896.846-.763l.014.007zm-.028.476l-.105-.028c-.126-.035-.203.161-.273.427-.034.105-.055.217-.084.329l-.035.175.764.203.063-.245c.112-.385.175-.602.154-.686v-.014c-.014-.035-.162-.077-.484-.161zm-3.444-1.47l-.098-.056c-.111-.063-.23.105-.37.343-.05.084-.106.196-.169.308l-.077.147.687.399.125-.217c.218-.364.33-.553.33-.637-.008-.042-.14-.119-.428-.287zm-2.947-2.31l-.077-.077c-.09-.091-.252.035-.44.224l-.014.014c-.084.091-.162.168-.239.252l-.111.119.56.56.181-.175c.301-.294.456-.448.477-.532.014-.042-.098-.147-.336-.385zm-2.246-2.989l-.056-.098c-.063-.112-.26-.028-.498.112a6.697 6.697 0 00-.294.182l-.14.091.392.679.224-.119c.365-.21.553-.315.596-.392.02-.035-.056-.168-.224-.455zm-1.393-3.479l-.028-.098c-.035-.126-.246-.098-.511-.028l-.337.105-.154.042.203.77.246-.063c.405-.105.615-.161.678-.224.028-.028-.014-.182-.097-.504zm.077-7.413l.027-.112c.036-.119-.167-.196-.433-.273-.106-.028-.21-.049-.323-.077l-.175-.035-.203.763.245.063c.386.112.596.168.687.154l.007-.007c.041-.007.084-.154.168-.476zm1.47-3.444l.048-.098c.07-.112-.105-.238-.336-.371-.084-.049-.195-.105-.307-.168l-.155-.077-.392.679.218.133c.356.21.552.329.636.322.043 0 .12-.133.288-.42zm2.302-2.947l.078-.077c.09-.091-.035-.252-.225-.441l-.007-.014c-.09-.084-.168-.161-.252-.238l-.126-.112-.552.56.175.182c.286.294.447.455.524.476.042.007.154-.098.385-.336zm2.996-2.247l.091-.056c.12-.063.028-.259-.105-.497-.063-.098-.118-.196-.181-.294l-.091-.14-.687.392.127.224c.203.357.314.553.385.595.041.021.175-.056.462-.224zm3.472-1.4l.105-.028c.126-.028.091-.238.021-.504a6.078 6.078 0 00-.098-.336l-.049-.161-.763.21.064.245c.105.399.16.616.216.679.035.028.183-.014.505-.105zm3.718-.448h.105c.133 0 .154-.21.154-.483 0-.126 0-.238-.008-.35l-.006-.168h-.791v.259c-.007.413-.007.637.035.707.02.042.175.035.51.035zm3.702.532l.105.028c.126.028.203-.168.273-.434.028-.105.056-.217.084-.329l.035-.168-.763-.203-.07.238c-.105.392-.168.602-.147.693v.007c.014.042.161.077.483.168zm3.444 1.463l.091.056c.112.063.238-.105.378-.343.049-.077.105-.189.168-.308l.077-.147-.686-.392-.126.217c-.217.357-.329.553-.329.637 0 .042.14.119.427.28zm2.947 2.31l.077.077c.084.091.252-.035.441-.224l.007-.014c.091-.084.168-.168.238-.245l.119-.126-.56-.56-.182.182c-.301.287-.455.441-.476.525-.014.042.098.154.336.385zm2.247 2.996l.049.091c.07.112.266.028.504-.112.098-.056.196-.112.294-.175l.14-.091-.392-.686-.224.126c-.364.203-.553.315-.595.385-.021.042.056.175.224.462zm1.393 3.472l.028.105c.035.126.245.091.504.021.119-.028.231-.063.336-.098l.161-.049-.203-.763-.245.063c-.406.105-.623.161-.679.217-.028.035.014.182.098.504zm.448 3.717v.105c0 .133.21.154.49.154.126 0 .238-.007.343-.007l.168-.007v-.791h-.252c-.413-.007-.637-.014-.714.035-.035.021-.035.175-.035.511zm-.525 3.703l-.028.105c-.035.126.168.203.434.273.105.028.21.056.322.077l.175.042.203-.763-.245-.07c-.385-.105-.595-.168-.686-.147h-.007c-.042.014-.084.161-.168.483zm-1.47 3.444l-.049.091c-.07.112.098.238.329.371l.014.007c.105.063.203.112.301.168l.147.077.399-.686-.217-.126c-.357-.217-.553-.329-.637-.329-.042 0-.119.133-.287.427zm-8.771 6.587l-.105.028c-.126.035-.098.238-.021.504.028.119.063.224.098.336l.049.161.763-.203-.063-.245c-.105-.406-.161-.623-.224-.679-.028-.028-.175.014-.497.098zm-3.716.448h-.112c-.126 0-.147.21-.147.483 0 .133 0 .238.007.35l.007.168h.79v-.252c.007-.413.007-.637-.035-.714-.02-.035-.174-.035-.51-.035zm10.233-4.039l-.077.077c-.091.091.035.252.224.441l.014.014c.084.091.168.161.252.238l.091.091.294-.294c.091-.091.182-.182.266-.273l-.147-.154c-.294-.294-.448-.455-.532-.476-.042-.014-.154.098-.385.336zm-3.01 2.261l-.091.049c-.119.07-.028.266.105.504.063.098.119.196.182.294l.07.112c.231-.126.462-.259.686-.399l-.105-.189c-.203-.364-.308-.56-.385-.602-.035-.021-.175.063-.462.231zm-7.063-17.213c1.281 0 2.444.518 3.283 1.358l.014.014a4.636 4.636 0 01-.014 6.559 4.633 4.633 0 01-3.282 1.365 4.652 4.652 0 01-3.29-7.938h.007a4.63 4.63 0 013.282-1.358zm-3.087 1.834c.4.322.246.847-.013 1.435l-.127.28c-.063.133-.118.266-.181.413a.784.784 0 01-.427.42.687.687 0 01-.337.063c0 .063-.007.133-.007.203 0 .063.008.126.008.189.496-.049.762.427.993 1.015l.112.308c.056.14.112.287.162.406a.795.795 0 01-.197.882l.147.147c.042.049.084.084.133.126.316-.385.84-.231 1.421.028l.28.126c.134.056.267.119.413.182a.795.795 0 01.483.756c.078.007.148.007.225.007h.174c-.041-.504.434-.763 1.023-.994l.286-.105c.14-.056.28-.105.428-.168a.83.83 0 01.594 0 .78.78 0 01.28.196c.056-.049.112-.098.161-.154.042-.035.077-.077.119-.119-.399-.315-.245-.847.014-1.428l.126-.28c.063-.133.119-.266.182-.413a.785.785 0 01.42-.427.889.889 0 01.357-.056c.007-.077.007-.154.007-.224v-.182c-.504.049-.763-.434-.994-1.022l-.105-.287c-.056-.14-.105-.28-.168-.427a.83.83 0 010-.595.879.879 0 01.196-.28 2.71 2.71 0 00-.14-.147l-.014-.014-.126-.126c-.322.413-.853.259-1.441 0l-.28-.126c-.133-.063-.266-.126-.413-.182a.82.82 0 01-.427-.427.87.87 0 01-.056-.357c-.07 0-.134-.007-.204-.007-.063 0-.126.007-.189.007.063.511-.42.777-1.015 1.008l-.308.119c-.14.056-.287.105-.412.161a.83.83 0 01-.596 0 .845.845 0 01-.287-.21c-.049.049-.097.091-.147.14a2.45 2.45 0 00-.133.14zm-.447 1.246c.154-.343.259-.644.175-.819a3.968 3.968 0 00-.715 1.708l.064-.021a.328.328 0 00.168-.168c.049-.133.118-.28.189-.427l.119-.273zm-.084 2.94c-.133-.336-.273-.623-.456-.686.05.308.133.609.252.889.12.287.273.567.449.819.014-.021.02-.035.035-.056a.312.312 0 00-.008-.238c-.055-.147-.111-.287-.16-.427l-.112-.301zm2.03 2.156c-.337-.147-.645-.252-.82-.168a4.132 4.132 0 001.708.714l-.02-.063a.328.328 0 00-.168-.168c-.133-.056-.28-.126-.427-.189l-.273-.126zm5.207-4.907c.133.343.273.637.455.7a4.013 4.013 0 00-.252-.889 4.24 4.24 0 00-.448-.819.14.14 0 00-.028.056.282.282 0 000 .238c.049.133.112.287.168.434l.105.28zm-2.246 4.998c-.344.133-.638.273-.7.455a4.07 4.07 0 00.895-.252c.28-.112.56-.266.82-.448-.022-.014-.043-.021-.056-.028a.283.283 0 00-.238 0c-.133.049-.287.112-.441.168l-.28.105zm2.134-2.03c-.147.336-.252.637-.168.819a4.02 4.02 0 00.455-.812 4.14 4.14 0 00.259-.896.204.204 0 00-.063.014.356.356 0 00-.168.168c-.056.14-.119.287-.189.434l-.126.273zm-1.939-5.103c.337.147.645.259.82.168a4.36 4.36 0 00-.813-.448 3.781 3.781 0 00-.895-.259.482.482 0 00.02.056c.028.077.084.14.168.168.134.056.28.126.428.196l.272.119zm-2.947-.084c.344-.133.63-.273.694-.462-.308.056-.61.14-.89.259a3.865 3.865 0 00-.819.448.14.14 0 00.056.028c.07.035.154.035.238 0 .147-.056.287-.112.42-.161l.301-.112zm1.38 1.575c.959 0 1.567.525 1.84 1.204.106.259.155.539.155.819 0 .28-.05.553-.154.819-.273.672-.882 1.204-1.841 1.204-.96 0-1.576-.532-1.849-1.204a2.235 2.235 0 01-.153-.819c0-.28.049-.56.154-.819.272-.679.888-1.204 1.847-1.204zm1.406 1.379c-.21-.511-.671-.91-1.406-.91-.736 0-1.205.399-1.407.91a1.67 1.67 0 00-.12.644c0 .217.035.441.12.637.203.511.672.91 1.407.91.734 0 1.197-.399 1.406-.91a1.774 1.774 0 000-1.281zm-1.406-8.141a8.76 8.76 0 016.208 2.576 8.744 8.744 0 012.569 6.209c0 2.422-.98 4.62-2.569 6.209a8.755 8.755 0 01-6.209 2.569c-2.428 0-4.62-.98-6.209-2.569a8.762 8.762 0 01-2.575-6.209 8.75 8.75 0 012.576-6.209 8.75 8.75 0 016.209-2.576zm5.872 2.905a8.308 8.308 0 00-5.873-2.429 8.313 8.313 0 00-5.88 2.429 8.313 8.313 0 00-2.428 5.88 8.309 8.309 0 008.308 8.309 8.285 8.285 0 005.873-2.436 8.286 8.286 0 002.436-5.873 8.29 8.29 0 00-2.436-5.88zm-.847.847a7.112 7.112 0 00-5.025-2.079 7.117 7.117 0 00-5.034 2.079 7.117 7.117 0 00-2.078 5.033c0 1.96.797 3.738 2.079 5.026a7.088 7.088 0 005.032 2.079c1.96 0 3.738-.791 5.026-2.079a7.09 7.09 0 002.086-5.026 7.094 7.094 0 00-2.086-5.033zm-27.215-.154v.868h.776v-.868h-.776zm-.477.868v-.868h-2.184a3.06 3.06 0 01-.56.77l-.097.098h2.842zm-29.21 4.193c-.49.049-1.135.042-1.974.028h-.175c-.099.973-.82 1.141-2.157 1.449-.322.07-.685.154-1.091.266-1.107.294-1.653.287-2.584.28l-.392-.007v1.386c2.99 0 3.2-.077 5.545-.875l.735-.252c.748-.252 1.28-.56 1.617-.966.286-.343.44-.763.475-1.309zm-8.94 1.239h-.615c-.785-.014-1.17-.014-1.303.14l-.006.007c-.133.175-.127.595-.112 1.421 0 .28.006.609.006.868 0 .413.448.483.994.483.182 0 .343-.007.505-.007.189-.014.378-.014.532-.014a.089.089 0 00.063-.028l.007-.007c.014-.014.02-.035.02-.063v-2.709c0-.021-.006-.049-.02-.063h-.008a.089.089 0 00-.063-.028zm10.067-4.662h-4.04v2.975l.946.007c2.947.035 3.086.035 3.093-2.982zm-4.515 0H39.11a.234.234 0 01-.105-.021l-3.913-1.512-.041-.021-2.471-.952v1.568l4.872 1.988h4.64v-1.05zm4.934 1.792c-.035.329-.084.595-.168.812l5.334 5.271h13.602c.72 0 1.245-.168 1.581-.476.358-.322.518-.805.518-1.407V87h-.678v2.912c0 .469-.126.868-.4 1.155-.252.266-.615.42-1.112.42H52.607a.213.213 0 01-.161-.07l-5.418-5.285zm-14.924-4.48l-5.537-2.142v1.442l5.537 2.261v-1.561zm.301-.385a.1.1 0 01.042.014l2.471.952v-5.348l-8.35.077v2.044l5.837 2.261zm5.544-56.196l2.422.028c.134 0 .239.105.239.231l-2.66-.259zm.658 1.631l-.007.112c0 .112-.006.231-.006.378 0 .511.07.994.566.994.49 0 .568-.483.568-.994 0-.147-.008-.266-.014-.378v-.112h-1.107zm1.526-1.134l-.566-.007-1.4-.021v.686h1.966v-.658zm7.294 60.291l5.279 5.159h12.999c.357 0 .609-.105.777-.273.181-.196.266-.483.266-.833V87h-.448a.21.21 0 01-.12-.035l-1.91-1.106H47.425zm16.745-8.974H40.986c.666 1.302 1.338 2.604 1.989 3.913.21.406.398.798.79.798h19.069c.91-.007 1.239-.077 1.337-.777v-3.934zm-1.394-.476h1.961l13.72-17.01a.223.223 0 01.19-.098h.888V33.275H73.76v7.714c0 .406-.084.805-.245 1.183a3.281 3.281 0 01-.686 1.022l-4.241 4.347c-.602.616-1.022.672-1.932.798-.197.028-.42.056-.68.098v16.142a.252.252 0 01-.041.14l-4.977 8.61a.227.227 0 01-.203.119H35.394v2.961h27.384zm1.862 4.571a.924.924 0 01-.041.273c-.099.434-.294.637-.672.735a1.178 1.178 0 01-.42.077h-.498v1.799h6.86a2.477 2.477 0 002.471-2.471v-4.508h-7.692c0 .805.013 1.442.02 1.974.014.455.022.847.022 1.12 0 .406-.014.735-.05 1.001zm-2.1 1.085H43.766c-.686 0-.938-.518-1.212-1.057-.678-1.379-1.4-2.751-2.093-4.123h-5.067v5.53l3.759 1.449h23.386v-1.799zm10.276-2.408h1.338v-2.114a.23.23 0 01.084-.175l.826-.833a.274.274 0 01.168-.07h3.745v-.315l-.323-.56-1.21-.322a.238.238 0 01-.19-.231v-2.772c0-.133.106-.238.231-.238l2.934-.049v-4.732l-7.603 9.485v2.926zm14.672-41.65v-4.718c0-.462.064-.854.253-1.148.07-.105.16-.196.266-.273-.47-.357-.567-.938-.427-1.519a2.627 2.627 0 01.721-1.253h-.063c-.798 0-1.596.42-2.191 1.092-.575.651-.96 1.526-.96 2.471v5.348h2.401zm1.17-6.349c.041 0 .09-.007.14-.007v.014c.258-.007.51-.14.728-.35.14-.133.265-.294.37-.469.099-.175.175-.364.225-.553.105-.448.027-.889-.358-1.106a.782.782 0 00-.335-.105v.014h-.19c-.216.035-.426.161-.608.336-.14.133-.267.294-.372.469a2.62 2.62 0 00-.224.553c-.105.448-.028.889.358 1.113a.751.751 0 00.265.091zm-6.84-7.833h1.66v-1.029h-1.66v1.029zm1.66.476h-1.66v13.706h1.66V24.301zm-2.136 8.505v-1.498h-1.316c.007.14.014.287.014.434 0 .196-.007.427-.014.658a7.601 7.601 0 00-.014.406h1.33zm-11.92 1.421c.203 0 .384 0 .56-.007.181-.007.357-.014.532-.014.762-.007 1.358.126 1.358.854v5.985c0 .896 0 1.057-.54 1.596l-.574.574c-.574.581-1.154 1.162-1.582 1.54a.987.987 0 01-.636.245.894.894 0 01-.707-.329 1.012 1.012 0 01-.253-.679v-7.924c0-.504.21-.966.54-1.295a1.843 1.843 0 011.302-.546zm.573.462c-.203.007-.406.014-.573.014a1.365 1.365 0 00-1.366 1.365v7.924c0 .154.05.28.126.371a.532.532 0 00.162.126.47.47 0 00.525-.091c.413-.357.987-.945 1.56-1.519l.568-.574c.406-.399.406-.525.406-1.26V35.06c0-.329-.392-.385-.89-.385-.153 0-.335.007-.517.014zm-4.017 13.272c.224-.035.433-.063.615-.084.799-.112 1.17-.168 1.66-.665l4.242-4.354a2.65 2.65 0 00.588-.868c.14-.315.203-.658.203-1.001v-7.714h-7.308v14.686zm-2.444.896L41.79 52.581c-.538.098-.986.189-1.385.266-.96.196-1.624.329-2.051.203-.694-.217-.721-.931-.175-2.73.356-1.183 1.715-4.865 3.303-8.386 1.009-2.247 2.114-4.431 3.123-5.88l.175-.252c.672-.973 1.078-1.575 2.127-1.575h14.386c.867 0 1.484.126 1.897.469.426.35.622.896.622 1.743l-.084 12.187c0 .119-.084.21-.196.231zm-21.819 3.262l21.547-3.696.076-11.984c0-.693-.14-1.127-.448-1.379-.315-.266-.84-.357-1.596-.357H46.909c-.805 0-1.154.518-1.736 1.365l-.174.252c-.994 1.428-2.087 3.584-3.087 5.81-1.583 3.507-2.927 7.154-3.276 8.323-.448 1.47-.497 2.037-.148 2.142.316.098.931-.028 1.828-.21.42-.084.896-.182 1.4-.266zM26.568 67.778a6.315 6.315 0 011.134-.721c.546-.273 1.12-.476 1.729-.665a.249.249 0 01.07-.014h2.407c.644 0 .862.14.862.56 0 .175-.063.399-.14.693-.294 1.022-.553 2.065-.826 3.087a.228.228 0 01-.134.154l-4.963 2.135-.006.007h-.008l-.125.056v3.423l8.35-.077V54.135c-1.413.035-2.59.392-3.57.966l-.007.021a.234.234 0 01-.273.147 7.553 7.553 0 00-2.064 2.044c-2.08 2.982-2.436 7.259-2.436 9.261v1.204zm.273 4.662l4.535-1.953c.267-.98.56-1.988.798-2.975.07-.266.12-.455.12-.574 0-.063-.091-.084-.386-.084h-2.372c-.582.182-1.12.371-1.625.623a5.791 5.791 0 00-1.07.686v4.277zm8.14-18.781c1.114-3.738 2.346-7.371 3.844-10.829 1.47-3.374 3.192-6.58 5.32-9.555H40.58a161.406 161.406 0 00-4.957 10.773 242.317 242.317 0 00-4.039 10.381c.96-.469 2.087-.749 3.395-.77zm9.745-20.384c-2.199 3.024-3.97 6.293-5.468 9.737-1.511 3.479-2.743 7.147-3.863 10.913v19.054H60.62l4.886-8.463V33.275H44.724zm34.81-.469l.014-.427c.007-.203.014-.406.014-.637 0-.728-.097-1.337-.692-1.337H42.835c-.855 0-1.45 1.218-1.94 2.226l-.084.175h38.724zm-.56 45.367h-2.883l-.26.259v1.225h2.647l.496-.49v-.994zm-3.618 1.484v-1.323c0-.063.02-.119.07-.168l.398-.399a.244.244 0 01.168-.07h2.983v-.756H75.33l-.7.7v2.016h.727zm8.603-14.84h-1.407v12.145h1.407V64.817zm-1.876 0h-1.19v10.731h1.19V64.817zm4.472-24.78l.344 5.523h20.894c1.071.007 2.205.007 2.884-1.162l2.009-3.493a.557.557 0 00.028-.588.497.497 0 00-.203-.196.621.621 0 00-.329-.084H86.556zm34.58 32.865v2.436h31.689v-2.436h-31.689zm-.469 2.436v-2.436h-1.008v2.436h1.008zm52.388 7.91c.042.301.168.609.35.889a2.605 2.605 0 00.959.861l.007.007c.532.266 1.176.469 1.827.609.679.14 1.372.21 1.988.231v-.392h-.077c-1.386 0-2.534-.28-3.332-.707a3.281 3.281 0 01-.679-.455.084.084 0 01-.035-.035c-.343-.308-.553-.651-.616-1.008h-.392zm5.131 3.066a11.767 11.767 0 01-2.079-.238 8.366 8.366 0 01-1.631-.504v1.148h3.71v-.406zm-4.186-.98a3.066 3.066 0 01-.98-.938 2.582 2.582 0 01-.441-1.148h-.119v3.472H174v-1.386zm-.07-2.086c.021.063.042.126.07.182v-.182h-.07zm.546.742c.147.126.322.238.518.343.742.385 1.806.644 3.115.644h.077v-.525c0-.133.105-.238.238-.238h2.884v-3.465h-6.832v3.241zm-2.016-1.211H174v-2.03h-1.54v2.03zm8.848 1.911h-2.646v2.03h2.646v-2.03zm-2.604-9.527v2.156h2.604v-2.156h-2.604zm2.604 2.625h-2.842a.235.235 0 01-.238-.231v-2.394h-3.752v3.878h6.832v-1.253zM174 79.041v-3.878h-1.54v3.878H174zm-1.54-4.347h8.848v-1.127h-8.848v1.127zm8.848 4.823h-8.848v.756h8.848v-.756zm0-7.182h-8.848v.756h8.848v-.756zm15.155-6.055v-1.463h-1.827v1.463h1.827zm1.015 2.492a.235.235 0 11-.469 0v-2.023h-2.919v2.023a.235.235 0 11-.469 0v-1.47h-2.996v5.278h10.038v-5.278h-3.185v1.47zm10.164 15.442h12.005v-8.036h-12.005v8.036zm12.005.469h-36.799v2.38h36.799v-2.38zm-17.36-8.505v8.036h4.879v-8.036h-4.879zm-1.624 8.036v-8.036h-10.038v8.036h10.038zm.469-8.036v8.036h.679v-8.036h-.679zm1.155-8.876v5.278h4.879v-5.278h-4.879zm-1.155 0v5.278h.679v-5.278h-.679zm-12.124 16.912v-8.036h-4.97v8.036h4.97zm.469-8.036v8.036h.679v-8.036h-.679zm-.469-3.598v-5.278h-4.97v5.278h4.97zm.469-5.278v5.278h.679v-5.278h-.679zm-5.908 16.912v-8.036h-.721v8.036h.721zm-.721-8.512h36.799v-2.653h-36.799v2.653zm-19.845 9.541l.007.231c.007.497.007.756-.112.938-.161.252-.399.252-.896.252h-.147c-.518 0-.609-.406-.609-.938 0-.091 0-.217.007-.35l.007-.133h-2.891v.231c.007.497.014.756-.105.938-.161.252-.399.252-.903.252h-.14c-.518 0-.616-.406-.616-.938 0-.091.007-.217.007-.35l.007-.133h-.448v2.072h7.287v-2.072h-.455zm-1.274 0l-.007.154c0 .105-.007.203-.007.329 0 .266.021.462.14.462h.147c.322 0 .476 0 .497-.028.042-.063.042-.28.035-.686v-.231h-.805zm-4.641 0v.154c-.007.105-.007.203-.007.329 0 .266.021.462.14.462h.14c.329 0 .483 0 .504-.028.042-.063.042-.28.035-.686v-.231h-.812zm-.917-1.428h7.287v-6.902h-7.287v6.902zm7.287.476h-7.287v.483h7.287v-.483zm-7.525-7.847h1.183V62.269c0-.126.105-.231.238-.231h4.921c.133 0 .238.105.238.231v14.175h1.176c.133 0 .238.105.238.231v10.64h.714V61.282c0-.42-.175-.798-.448-1.071a1.503 1.503 0 00-1.064-.441h-6.832c-.42 0-.798.168-1.071.441-.203.203-.35.469-.406.763h-.007v.014a1.226 1.226 0 00-.028.28v26.047h.917v-10.64c0-.126.105-.231.231-.231zm1.652-10.185h4.452v-2.478h-4.452v2.478zm4.452 1.218h-4.452v8.967h4.452v-8.967zm0-.742h-4.452v.266h4.452v-.266zm-4.452-3.43h4.452v-.798h-4.452v.798zm-2.632 27.454h16.996c0-.182-.021-.385-.196-.385h-16.604c-.175 0-.196.203-.196.385zm1.022-.861h14.945v-2.107h-14.945v2.107zm-1.666-16.996h-1.008v2.436h1.008v-2.436zm0 2.905h-25.088v4.319h3.472v-.455c0-.126.105-.231.238-.231h1.204c.133 0 .238.105.238.231v.455h.777v-2.149c0-.133.105-.238.238-.238h15.316c.133 0 .238.105.238.238v6.027h3.367v-8.197zm48.419-17.192c.112.336.308.679.833.623l3.542-.581c.266-.049.413-.147.483-.273a.656.656 0 00.084-.294.623.623 0 01-.504-.441c-.028-.091-.035-.182-.028-.266a.68.68 0 01.07-.259.632.632 0 01.616-.357c.014-.084.014-.154-.014-.21-.035-.091-.161-.182-.42-.294l-1.309-.497c.35.196.574.511.686.868.063.21.091.434.07.658-.014.224-.07.441-.161.644l-.007.007c-.252.525-.749.903-1.477.854l-2.464-.182zm8.505-1.596l1.344.098a.616.616 0 01.574.448l.014.042h.329c.077-.007.084-.028.098-.07.014-.063.021-.14.014-.224a1.262 1.262 0 00-.056-.273c-.084-.238-.245-.455-.483-.455-.147 0-.322-.007-.49-.014l-.294-.007c-.518-.007-.931.035-1.05.455zm-3.22.238c-.014 0-.028 0-.049-.007l-.154-.007c-.091-.007-.154.035-.182.091a.166.166 0 00-.021.084c0 .035 0 .063.007.091.021.056.07.112.161.119l4.732.343c.091.007.154-.035.182-.091a.186.186 0 00.021-.084c0-.035 0-.063-.007-.091-.021-.063-.07-.112-.161-.119l-4.529-.329zm-2.359-1.652l-1.631-.623c-.476-.147-.735.126-.917.42l2.268.161c.098.007.189.021.28.042zm-7.308 2.149a1.68 1.68 0 01-.217-.434 1.752 1.752 0 01-.077-.658c.014-.224.07-.441.168-.644.077-.154.175-.301.294-.42l-5.236-.154a5.247 5.247 0 01-.091.413l-.322 1.176 5.481.721zm6.993-1.722l-2.639-.189-2.996-.21h-.098c-.469 0-.798.252-.959.588-.07.147-.112.308-.126.469-.007.168.007.336.056.483.112.343.385.637.833.721l.182.028 5.635.399a.997.997 0 001.015-.581l.007-.007c.07-.147.112-.308.119-.469a1.275 1.275 0 00-.056-.49c-.119-.385-.434-.7-.973-.742zm-23.149-.336c.427 0 .7.231.819.539.049.112.07.238.07.357a.902.902 0 01-.07.357c-.119.308-.392.539-.819.539-.427 0-.7-.231-.819-.539a.902.902 0 01-.07-.357c0-.119.021-.245.07-.357.119-.308.392-.539.819-.539zm.385.714c-.056-.14-.182-.245-.385-.245s-.329.105-.385.245a.526.526 0 00-.035.182c0 .063.014.126.035.182.056.14.182.245.385.245s.329-.105.385-.245a.526.526 0 00.035-.182.526.526 0 00-.035-.182zm.868-5.565c.427 0 .707.231.826.539.042.112.07.238.07.357s-.028.245-.07.357c-.119.301-.399.539-.826.539-.42 0-.7-.231-.819-.539a1.044 1.044 0 01-.07-.357c0-.119.028-.245.07-.357.119-.308.399-.539.819-.539zm.385.714c-.049-.14-.182-.245-.385-.245-.196 0-.329.105-.378.245a.526.526 0 00-.035.182c0 .063.014.126.035.182.049.14.182.245.378.245.203 0 .336-.105.385-.245a.526.526 0 00.035-.182.526.526 0 00-.035-.182zm-3.976-4.529c.427 0 .7.238.819.539.049.112.07.238.07.357a.902.902 0 01-.07.357c-.119.308-.392.546-.819.546a.85.85 0 01-.826-.546 1.037 1.037 0 010-.714.854.854 0 01.826-.539zm.385.714c-.056-.14-.182-.245-.385-.245s-.329.105-.385.245a.526.526 0 00-.035.182c0 .063.014.126.035.182.056.14.182.245.385.245s.329-.105.385-.245a.522.522 0 00.028-.182.522.522 0 00-.028-.182zm-5.418.707c.427 0 .7.238.819.546.049.112.07.238.07.357a.902.902 0 01-.07.357c-.119.301-.392.539-.819.539-.427 0-.7-.238-.819-.539a.902.902 0 01-.07-.357c0-.119.021-.245.07-.357.119-.308.392-.546.819-.546zm.385.721c-.056-.14-.182-.245-.385-.245s-.329.105-.385.245a.526.526 0 00-.035.182c0 .063.014.126.035.182.056.14.182.245.385.245a.397.397 0 00.385-.245.526.526 0 00.035-.182.526.526 0 00-.035-.182zm-1.855 4.214c.427 0 .7.238.819.546.049.112.07.238.07.357a.902.902 0 01-.07.357c-.119.301-.392.539-.819.539a.854.854 0 01-.826-.539 1.037 1.037 0 010-.714.85.85 0 01.826-.546zm.385.721c-.056-.14-.182-.245-.385-.245s-.329.105-.385.245a.526.526 0 00-.035.182c0 .063.014.126.035.182.056.14.182.245.385.245s.329-.105.385-.245a.522.522 0 00.028-.182.522.522 0 00-.028-.182zm3.409 3.087c.427 0 .7.238.819.539.049.112.07.238.07.357a.902.902 0 01-.07.357c-.119.308-.392.546-.819.546-.427 0-.7-.238-.819-.546a.902.902 0 01-.07-.357c0-.119.021-.245.07-.357.119-.301.392-.539.819-.539zm.385.714c-.056-.14-.182-.245-.385-.245s-.329.105-.385.245a.526.526 0 00-.035.182c0 .063.014.126.035.182.056.14.182.245.385.245s.329-.105.385-.245a.526.526 0 00.035-.182.526.526 0 00-.035-.182zm12.075-3.346c.637 0 1.043.357 1.225.805a1.448 1.448 0 010 1.085c-.182.448-.588.805-1.225.805-.637 0-1.05-.357-1.232-.805a1.45 1.45 0 01-.098-.546c0-.182.028-.364.098-.539.182-.448.595-.805 1.232-.805zm.784.98c-.112-.28-.371-.504-.784-.504-.413 0-.679.224-.791.504a.912.912 0 00-.07.364c0 .133.021.252.07.371.112.28.378.504.791.504.413 0 .672-.224.784-.504a.946.946 0 00.07-.371.912.912 0 00-.07-.364zm-17.346-6.118l-.007.007c-.581.602-1.071 1.176-1.162 1.54-.091.364-.014.854.14 1.827l.049.294.105-.364c.105-.357.224-.777.371-1.323.147-.546.252-.973.343-1.337.056-.238.112-.455.161-.644zm10.507.511a40.29 40.29 0 01-.994-.973 40.29 40.29 0 01-.973-.994c-.427-.448-.728-.756-.98-.952a1.124 1.124 0 00-.42-.224c-.371-.098-.854.042-1.813.315-.378.112-.833.245-1.337.378-.497.133-.952.245-1.33.343h-.014c-.966.238-1.456.357-1.722.63l-.021.021h-.007v.007c-.252.273-.371.756-.602 1.694-.091.385-.203.84-.343 1.344-.133.504-.266.959-.371 1.337-.28.959-.42 1.442-.322 1.806.098.371.462.714 1.183 1.407.287.28.63.609.994.966.357.364.686.707.966.994.693.721 1.036 1.085 1.407 1.183.364.098.847-.042 1.806-.322.378-.105.833-.238 1.337-.371.504-.14.952-.252 1.337-.343h.007c.973-.238 1.456-.357 1.722-.63.273-.266.392-.756.63-1.722.091-.385.203-.84.343-1.344.133-.504.266-.959.378-1.337.28-.959.42-1.442.315-1.806-.098-.371-.455-.721-1.176-1.407zm-32.522-.483v9.849h12.502v-9.849h-12.502zm-3.157-.476h24.15V43.46h-24.15v5.516zm-12.39 8.253v-1.148c0-.126.091-.224.21-.238l4.207-.469a.231.231 0 01.259.203c.007.028 0 .056 0 .077l-.455 2.114a.23.23 0 01-.273.182l-3.745-.483a.235.235 0 01-.203-.238zm.469-.938v.735l3.339.434.336-1.582-3.675.413zm.658-3.423v-1.155a.24.24 0 01.21-.231l4.207-.476a.247.247 0 01.266.21c0 .028 0 .049-.007.077l-.455 2.114c-.021.126-.147.203-.273.182l-3.738-.483a.241.241 0 01-.21-.238zm.476-.945v.742l3.332.427.336-1.575-3.668.406zm.637-3.682v-1.155c0-.119.091-.217.21-.231l4.207-.476a.236.236 0 01.259.21.143.143 0 010 .077l-.455 2.114c-.021.126-.147.203-.273.182l-3.738-.483a.241.241 0 01-.21-.238zm.476-.938l-.007.735 3.339.434.336-1.582-3.668.413zm-5.026 33.054v3.647h.728v-4.095h-.728v.448zm-.476.245h-3.472v.434h3.472v-.434zm0 .91h-3.472v2.492h3.472v-2.492zm1.68 2.492h.777v-2.492h-.777v2.492zm0-2.968h.777v-.434h-.777v.434zm-11.676-5.229v8.197h4.872v-8.197h-2.534v3.619a.236.236 0 01-.238.238h-1.33a.235.235 0 01-.231-.238v-3.619h-.539zm-1.652 8.197v-8.197h-1.386v8.197h1.386zm.469-8.197v8.197h.707v-8.197h-.707zm2.191.476h.861v-.476h-.861v.476zm.861.476h-.861v2.429h.861v-2.429zm4.186-.952h-.714v8.197h.714v-8.197zm6.874 8.197h14.84v-5.796h-14.84v5.796zm105.707-3.703c2.093 0 3.99.854 5.362 2.226a7.56 7.56 0 012.219 5.362 7.56 7.56 0 01-2.219 5.362 7.56 7.56 0 01-5.362 2.219 7.56 7.56 0 01-5.362-2.219 7.56 7.56 0 01-2.219-5.362 7.56 7.56 0 012.219-5.362 7.566 7.566 0 015.362-2.226zm0-8.267c3.318 0 6.398 1.022 8.946 2.765h24.136a15.792 15.792 0 018.946-2.765c3.318 0 6.398 1.022 8.946 2.765h12.04l-.322-2.492-10.325-7.49h-35.42l-3.654 3.654-.007.007-.007.007-.007.007h-.007v.007h-.014v.007h-.007v.007h-.014v.007h-.014l-.007.007h-.014l-.007.007h-.028v.007h-11.172v-.007h-.035v-.007h-.021v-.007h-.014v-.007h-.014v-.007h-.014v-.007h-.007l-.007-.007h-.007v-.007h-.007v-.007h-.007v-.007l-4.641-3.654h-5.285l-9.954 7.602-.287 2.38h9.366a15.792 15.792 0 018.946-2.765zm9.597 3.234c.567.434 1.106.903 1.61 1.407a15.81 15.81 0 014.347 8.148h3.031l.175-1.029v-2.226l-3.752-3.829a.234.234 0 01-.063-.161v-2.31h-5.348zm6.048 10.031c.021.154.049.315.07.476v.028l.014.091v.035l.007.014v.042l.007.028v.014l.007.021v.056l.021.154.021.203v.007l.042.595v.112l.007.035v.077h2.324l.336-1.988h-2.856zm.21 2.464v.126c0 1.47-.203 2.898-.581 4.249h.665c.014-.091.035-.182.063-.266.154-.455.511-.847 1.085-.847h.434l.56-3.262h-2.226zm-31.654-1.162a15.785 15.785 0 014.592-9.926 14.76 14.76 0 011.61-1.407h-8.778l-1.12 9.198 3.696 2.135zm11.963 14.63l.091.021c.497.133.728.196.819.49v.021c.049.21-.021.462-.154.931l-.07.252a15.2 15.2 0 002.275.294l-.007-.154c0-.14-.007-.273-.007-.371 0-.539.098-.952.623-.952h.105c.518 0 .756 0 .91.266.119.182.112.455.105.959v.252a15.2 15.2 0 002.275-.294l-.049-.154c-.042-.126-.077-.252-.105-.35-.14-.525-.154-.945.357-1.085l.105-.028c.49-.133.721-.196.945.021.161.147.224.413.35.896l.07.259a14.67 14.67 0 002.107-.875l-.042-.077c-.07-.105-.14-.217-.196-.308-.273-.476-.399-.882.063-1.148l.091-.056c.448-.259.658-.378.931-.231.189.112.322.343.574.784l.091.168c.637-.42 1.239-.882 1.813-1.393l-.07-.056a11.1 11.1 0 01-.266-.252l-.007-.014c-.378-.378-.602-.742-.231-1.113l.077-.077c.364-.364.539-.532.833-.462.217.056.406.252.756.609l.133.14a15.33 15.33 0 001.4-1.82l-.154-.077a9.04 9.04 0 01-.315-.175l-.014-.007c-.462-.273-.77-.56-.504-1.008l.049-.098c.259-.441.378-.651.686-.658.217 0 .448.133.882.392l.238.14c.343-.679.637-1.393.882-2.121l-.175-.042h-.007c-.119-.028-.238-.056-.343-.084-.525-.14-.903-.336-.763-.847v-.014l.021-.091c.133-.497.196-.728.49-.819h.028c.203-.056.462.021.931.154l.266.07c.154-.742.252-1.498.301-2.275l-.182.007c-.133 0-.266.007-.364.007-.546 0-.952-.098-.952-.623v-.105c-.007-.518-.007-.756.259-.917.189-.112.455-.105.959-.098h.28a16.267 16.267 0 00-.294-2.282l-.182.056a4.737 4.737 0 01-.35.105c-.525.14-.945.154-1.078-.357l-.028-.105c-.133-.49-.196-.728.014-.945.154-.161.413-.224.903-.35l.273-.07a16.204 16.204 0 00-.882-2.128l-.154.098c-.112.07-.217.14-.315.189-.469.273-.875.399-1.134-.056l-.056-.098c-.259-.441-.378-.651-.231-.917.105-.196.343-.322.784-.574l.245-.133a16.185 16.185 0 00-1.4-1.827l-.126.133a11.1 11.1 0 01-.252.266l-.014.014c-.378.371-.735.588-1.099.224l-.077-.077c-.364-.364-.539-.532-.462-.833.049-.21.245-.399.602-.749l.203-.203a14.62 14.62 0 00-1.512-1.183v-.007h-.007c-.098-.07-.203-.14-.301-.21l-.091.168c-.056.105-.112.21-.175.322-.273.469-.56.777-1.015.511l-.014-.007-.077-.042c-.448-.259-.658-.378-.658-.686-.007-.224.133-.448.385-.882l.147-.245a14.956 14.956 0 00-2.128-.882l-.042.182v.007c-.028.119-.056.238-.084.343-.14.525-.336.903-.847.763h-.014l-.091-.028c-.497-.126-.728-.189-.812-.49l-.007-.021c-.049-.203.021-.462.154-.931l.077-.273a15.292 15.292 0 00-2.282-.294l.007.182c.007.133.014.266.014.364 0 .539-.098.952-.623.952h-.112c-.511 0-.756.007-.91-.259-.112-.189-.112-.455-.105-.959v-.28c-.777.042-1.533.147-2.275.301l.049.168c.042.126.077.252.105.357.14.525.154.945-.35 1.078l-.105.028c-.497.133-.728.196-.952-.014-.154-.154-.224-.413-.35-.903l-.07-.266c-.728.238-1.442.532-2.121.882l.098.147c.063.112.133.217.189.315.273.469.392.875-.063 1.134l-.091.056c-.448.259-.651.378-.924.231-.189-.105-.322-.343-.567-.784l-.133-.238c-.098.07-.196.133-.294.203h-.007l-.007.007c-.525.364-1.036.763-1.512 1.19l.126.119c.098.091.189.182.259.252l.014.014c.378.378.595.735.224 1.099l-.077.077c-.364.364-.532.539-.826.462-.217-.056-.406-.245-.756-.602l-.189-.196a15.859 15.859 0 00-1.393 1.82l.147.084c.105.056.21.112.322.175.469.266.777.56.518 1.015l-.007.014-.049.077c-.252.448-.378.658-.686.658-.217.007-.448-.133-.882-.385l-.231-.14a14.84 14.84 0 00-.875 2.121l.161.042h.014c.119.028.238.056.343.084.525.14.896.336.763.847l-.007.014-.021.091c-.133.497-.196.728-.49.812l-.021.007c-.21.049-.469-.021-.931-.154l-.259-.07a15.462 15.462 0 00-.301 2.429c.294-.007.693 0 .91.021.007 0 .196.021.322.105a.453.453 0 01.189.238c.021.07.042.189.035.343a.561.561 0 000 .154h-.469v-.168c.014-.224-.245-.238-.483-.238l-.518.007v.238c0 .189 0 .35.007.539l.511.007c.224.007.35-.028.413-.07.098-.063.07-.238.07-.315h.469c0 .357-.021.49-.091.588-.147.21-.427.231-.455.231-.182.028-.511.021-.896.021.049.721.147 1.456.294 2.142l.154-.042c.126-.042.252-.077.35-.105.525-.14.945-.154 1.085.35l.028.105c.133.497.196.728-.021.952-.154.154-.413.224-.896.35l-.252.063c.238.728.532 1.435.875 2.114l.14-.084c.105-.07.21-.133.308-.189.469-.273.875-.392 1.141.063l.049.091c.259.448.378.651.231.924-.105.189-.343.322-.777.567l-.224.126c.42.644.889 1.246 1.393 1.82l.112-.119c.091-.098.175-.189.245-.259l.014-.014c.378-.378.735-.595 1.106-.224l.077.077c.364.364.532.532.455.826-.049.217-.245.406-.602.756l-.182.175c.567.511 1.176.98 1.82 1.4l.07-.14c.056-.105.112-.21.175-.322.273-.469.56-.777 1.015-.518l.014.007.077.049c.448.252.658.378.665.686 0 .217-.133.448-.392.882l-.133.224c.679.336 1.386.637 2.121.875l.035-.154v-.014c.028-.119.056-.238.084-.343.14-.525.336-.896.847-.763l.014.007zm-.028.476l-.105-.028c-.126-.035-.203.161-.273.427a4.526 4.526 0 00-.077.329l-.042.175.763.203.07-.245c.105-.385.168-.602.147-.686v-.014c-.014-.035-.161-.077-.483-.161zm-3.444-1.47l-.091-.056c-.112-.063-.238.105-.378.343-.049.084-.105.196-.168.308l-.077.147.686.399.126-.217c.217-.364.329-.553.329-.637 0-.042-.14-.119-.427-.287zm-2.947-2.31l-.07-.077c-.091-.091-.252.035-.448.224l-.007.014c-.091.091-.161.168-.238.252l-.119.119.56.56.182-.175c.301-.294.455-.448.476-.532.014-.042-.098-.147-.336-.385zm-2.247-2.989l-.049-.098c-.07-.112-.259-.028-.497.112a4.292 4.292 0 00-.301.182l-.14.091.392.679.224-.119c.364-.21.56-.315.595-.392.021-.035-.056-.168-.224-.455zm-1.393-3.479l-.028-.098c-.035-.126-.238-.098-.504-.028-.119.035-.224.07-.336.105l-.161.042.203.77.245-.063c.406-.105.623-.161.679-.224.028-.028-.014-.182-.098-.504zm.077-7.413l.028-.112c.035-.119-.161-.196-.427-.273-.105-.028-.217-.049-.329-.077l-.175-.035-.203.763.245.063c.385.112.595.168.686.154l.014-.007c.035-.007.077-.154.161-.476zm1.47-3.444l.056-.098c.063-.112-.105-.238-.343-.371-.084-.049-.196-.105-.308-.168l-.147-.077-.399.679.217.133c.364.21.553.329.637.322.042 0 .119-.133.287-.42zm2.31-2.947l.077-.077c.091-.091-.035-.252-.224-.441l-.014-.014c-.091-.084-.168-.161-.252-.238l-.119-.112-.56.56.175.182c.294.294.448.455.532.476.042.007.147-.098.385-.336zm2.989-2.247l.098-.056c.112-.063.028-.259-.112-.497a6.697 6.697 0 00-.182-.294l-.091-.14-.679.392.119.224c.203.357.315.553.392.595.035.021.168-.056.455-.224zm3.472-1.4l.105-.028c.126-.028.098-.238.028-.504l-.105-.336-.049-.161-.763.21.063.245c.105.399.161.616.224.679.028.028.175-.014.497-.105zm3.717-.448h.112c.126 0 .154-.21.154-.483-.007-.126-.007-.238-.014-.35l-.007-.168h-.791v.259c-.007.413-.007.637.035.707.021.042.182.035.511.035zm3.703.532l.105.028c.126.028.203-.168.28-.434.028-.105.049-.217.077-.329l.035-.168-.763-.203-.063.238c-.112.392-.168.602-.154.693v.007c.014.042.161.077.483.168zm3.444 1.463l.098.056c.112.063.238-.105.371-.343.049-.077.105-.189.168-.308l.077-.147-.686-.392-.126.217c-.21.357-.329.553-.322.637 0 .042.133.119.42.28zm2.947 2.31l.077.077c.091.091.252-.035.441-.224l.014-.014c.084-.084.161-.168.238-.245l.112-.126-.56-.56-.182.182c-.294.287-.455.441-.476.525-.014.042.098.154.336.385zm2.247 2.996l.056.091c.063.112.259.028.497-.112.098-.056.196-.112.294-.175l.14-.091-.392-.686-.224.126c-.364.203-.553.315-.595.385-.021.042.056.175.224.462zm1.393 3.472l.028.105c.035.126.245.091.511.021.112-.028.224-.063.336-.098l.161-.049-.21-.763-.245.063c-.399.105-.616.161-.679.217-.028.035.014.182.098.504zm.455 3.717v.105c0 .133.21.154.483.154.126 0 .238-.007.35-.007l.161-.007v-.791h-.252c-.413-.007-.637-.014-.707.035-.042.021-.035.175-.035.511zm-.532 3.703l-.028.105c-.028.126.168.203.434.273.105.028.217.056.329.077l.168.042.203-.763-.238-.07c-.392-.105-.602-.168-.693-.147h-.007c-.042.014-.084.161-.168.483zm-1.463 3.444l-.056.091c-.063.112.098.238.329.371l.014.007c.112.063.21.112.308.168l.147.077.392-.686-.217-.126c-.357-.217-.546-.329-.637-.329-.042 0-.119.133-.28.427zm-8.778 6.587l-.105.028c-.126.035-.091.238-.021.504.028.119.063.224.098.336l.049.161.763-.203-.063-.245c-.105-.406-.161-.623-.217-.679-.035-.028-.182.014-.504.098zm-3.717.448h-.105c-.133 0-.154.21-.154.483 0 .133 0 .238.007.35l.007.168h.791v-.252c.007-.413.007-.637-.035-.714-.021-.035-.175-.035-.511-.035zm10.234-4.039l-.077.077c-.091.091.035.252.224.441l.014.014c.091.091.168.161.252.238l.091.091c.105-.098.203-.196.301-.294.084-.091.175-.182.266-.273l-.154-.154c-.294-.294-.448-.455-.532-.476-.042-.014-.147.098-.385.336zm-3.01 2.261l-.091.049c-.112.07-.028.266.112.504.056.098.119.196.182.294l.063.112c.238-.126.462-.259.693-.399l-.105-.189c-.203-.364-.315-.56-.392-.602-.035-.021-.168.063-.462.231zm-7.063-17.213a4.63 4.63 0 013.283 1.358l.014.014a4.636 4.636 0 011.351 3.276 4.606 4.606 0 01-1.365 3.283 4.635 4.635 0 01-3.283 1.365 4.635 4.635 0 01-3.283-1.365 4.606 4.606 0 01-1.365-3.283c0-1.281.518-2.443 1.358-3.29h.007a4.63 4.63 0 013.283-1.358zm-3.087 1.834c.406.322.245.847-.014 1.435l-.126.28c-.056.133-.119.266-.182.413a.795.795 0 01-.763.483v.392c.504-.049.763.427.994 1.015l.112.308c.056.14.112.287.161.406a.763.763 0 010 .595.78.78 0 01-.196.287l.147.147c.042.049.084.084.133.126.315-.385.84-.231 1.421.028l.28.126c.133.056.266.119.413.182.203.084.35.238.427.42a.79.79 0 01.056.336c.077.007.147.007.224.007h.182c-.049-.504.434-.763 1.022-.994l.287-.105c.133-.056.273-.105.42-.168a.85.85 0 01.602 0 .847.847 0 01.28.196c.056-.049.105-.098.161-.154.035-.035.077-.077.112-.119-.399-.315-.245-.847.014-1.428l.126-.28c.063-.133.126-.266.182-.413a.775.775 0 01.777-.483c.007-.077.007-.154.007-.224v-.182c-.504.049-.763-.434-.994-1.022l-.105-.287c-.049-.14-.105-.28-.161-.427a.763.763 0 010-.595.703.703 0 01.196-.28l-.147-.147-.007-.014c-.042-.042-.091-.084-.133-.126-.315.413-.847.259-1.442 0l-.28-.126a5.635 5.635 0 00-.413-.182.784.784 0 01-.42-.427.772.772 0 01-.063-.357c-.063 0-.133-.007-.203-.007-.063 0-.126.007-.189.007.063.511-.42.777-1.015 1.008l-.308.119c-.14.056-.287.105-.413.161a.83.83 0 01-.595 0 .845.845 0 01-.287-.21c-.049.049-.098.091-.147.14-.042.049-.091.091-.133.14zm-.441 1.246c.147-.343.252-.644.168-.819a4.333 4.333 0 00-.455.805 4.32 4.32 0 00-.259.903l.063-.021a.328.328 0 00.168-.168c.056-.133.126-.28.189-.427l.126-.273zm-.091 2.94c-.133-.336-.273-.623-.455-.686a4.073 4.073 0 00.707 1.708c.007-.021.021-.035.028-.056a.348.348 0 000-.238 6.706 6.706 0 01-.168-.427l-.112-.301zm2.03 2.156c-.336-.147-.637-.252-.819-.168.252.182.525.329.812.455.28.119.581.203.896.259-.007-.021-.007-.042-.021-.063a.314.314 0 00-.161-.168c-.14-.056-.287-.126-.434-.189l-.273-.126zm5.208-4.907c.133.343.273.637.462.7a4.45 4.45 0 00-.259-.889 3.895 3.895 0 00-.448-.819.14.14 0 00-.028.056.311.311 0 000 .238c.056.133.112.287.168.434l.105.28zm-2.247 4.998c-.343.133-.63.273-.693.455.301-.049.602-.133.889-.252.287-.112.56-.266.819-.448a.21.21 0 00-.056-.028.283.283 0 00-.238 0c-.133.049-.287.112-.441.168l-.28.105zm2.142-2.03c-.154.336-.259.637-.175.819a4.02 4.02 0 00.455-.812c.119-.28.21-.581.259-.896a.204.204 0 00-.063.014.315.315 0 00-.161.168c-.056.14-.126.287-.196.434l-.119.273zm-1.946-5.103c.336.147.644.259.819.168a4.148 4.148 0 00-.812-.448 3.781 3.781 0 00-.896-.259.482.482 0 00.021.056c.028.077.091.14.168.168.133.056.28.126.427.196l.273.119zm-2.947-.084c.343-.133.63-.273.693-.462-.308.056-.609.14-.889.259a4.044 4.044 0 00-.819.448.14.14 0 00.056.028c.07.035.161.035.238 0 .147-.056.287-.112.427-.161l.294-.112zm1.379 1.575c.959 0 1.575.525 1.841 1.204.105.259.161.539.161.819 0 .28-.056.553-.161.819-.266.672-.882 1.204-1.841 1.204s-1.575-.532-1.841-1.204a2.244 2.244 0 01-.161-.819c0-.28.056-.56.161-.819.266-.679.882-1.204 1.841-1.204zm1.407 1.379c-.203-.511-.672-.91-1.407-.91s-1.204.399-1.407.91a1.774 1.774 0 000 1.281c.203.511.672.91 1.407.91s1.204-.399 1.407-.91a1.774 1.774 0 000-1.281zm-1.407-8.141c2.422 0 4.62.987 6.209 2.576a8.744 8.744 0 012.569 6.209c0 2.422-.98 4.62-2.569 6.209a8.756 8.756 0 01-6.209 2.569c-2.429 0-4.62-.98-6.209-2.569a8.762 8.762 0 01-2.576-6.209 8.75 8.75 0 012.576-6.209 8.75 8.75 0 016.209-2.576zm5.873 2.905a8.297 8.297 0 00-5.873-2.429 8.284 8.284 0 00-5.873 2.429 8.29 8.29 0 00-2.436 5.88c0 2.289.931 4.368 2.436 5.873a8.261 8.261 0 005.873 2.436 8.274 8.274 0 005.873-2.436 8.286 8.286 0 002.436-5.873 8.29 8.29 0 00-2.436-5.88zm-.847.847a7.113 7.113 0 00-5.026-2.079 7.088 7.088 0 00-5.026 2.079 7.094 7.094 0 00-2.086 5.033 7.09 7.09 0 002.086 5.026 7.06 7.06 0 005.026 2.079c1.96 0 3.738-.791 5.026-2.079a7.09 7.09 0 002.086-5.026 7.094 7.094 0 00-2.086-5.033zm23.128 4.781v.112c0 .511 0 .749-.266.91-.182.112-.455.112-.959.105h-.259c.042.77.147 1.533.301 2.268l.154-.042c.126-.042.245-.077.35-.105.525-.14.945-.154 1.085.35l.028.105c.133.497.196.728-.021.952-.154.154-.413.224-.896.35l-.252.063c.238.728.532 1.435.875 2.114l.14-.084c.105-.07.21-.133.308-.189.469-.273.875-.392 1.141.063l.049.091c.259.448.378.651.231.924-.105.189-.343.322-.777.567l-.224.126c.42.644.889 1.246 1.393 1.82l.112-.119c.084-.098.175-.189.245-.259l.014-.014c.378-.378.735-.595 1.106-.224l.077.077c.364.364.532.532.462.826-.056.217-.252.406-.609.756l-.182.175c.567.511 1.176.98 1.82 1.4l.07-.14c.056-.105.112-.21.175-.322.273-.469.56-.777 1.015-.518l.014.007.077.049c.448.252.658.378.665.686 0 .217-.133.448-.392.882l-.133.224c.679.336 1.386.637 2.121.875l.035-.154v-.014c.028-.119.056-.238.084-.343.14-.525.336-.896.847-.763l.014.007.091.021c.497.133.728.196.812.49l.007.021c.049.21-.021.462-.154.931l-.07.252a15.2 15.2 0 002.275.294l-.007-.154c-.007-.14-.007-.273-.007-.371 0-.539.098-.952.623-.952h.105c.518 0 .756 0 .917.266.112.182.105.455.098.959v.252a15.2 15.2 0 002.275-.294l-.049-.154c-.042-.126-.077-.252-.105-.35-.14-.525-.154-.945.357-1.085l.105-.028c.49-.133.721-.196.945.021.161.147.224.413.35.896l.063.259a14.43 14.43 0 002.114-.875l-.042-.077c-.07-.105-.14-.217-.196-.308-.273-.476-.399-.882.063-1.148l.098-.056c.441-.259.651-.378.924-.231.189.112.322.343.574.784l.091.168c.637-.42 1.239-.882 1.813-1.393l-.07-.056a11.1 11.1 0 01-.266-.252l-.007-.014c-.385-.378-.602-.742-.231-1.113l.077-.077c.364-.364.539-.532.833-.462.217.056.406.252.756.609l.14.14c.504-.574.973-1.176 1.393-1.82l-.154-.077a9.04 9.04 0 01-.315-.175l-.014-.007c-.462-.273-.77-.56-.504-1.008l.049-.098c.259-.441.378-.651.686-.658.217 0 .448.133.882.392l.238.14c.343-.679.637-1.393.882-2.121l-.175-.042h-.007c-.119-.028-.238-.056-.343-.084-.525-.14-.903-.336-.77-.847l.007-.014.021-.091c.133-.497.196-.728.497-.819h.014c.21-.056.469.021.938.154l.266.07a15.2 15.2 0 00.294-2.275l-.175.007c-.133 0-.266.007-.364.007-.539 0-.959-.098-.952-.623v-.105c-.007-.518-.007-.756.259-.917.189-.112.455-.105.959-.098h.28a15.296 15.296 0 00-.301-2.282l-.175.056a6.021 6.021 0 01-.35.105c-.525.14-.945.154-1.078-.357l-.028-.105c-.14-.49-.203-.728.014-.945.154-.161.413-.224.903-.35l.273-.07a16.204 16.204 0 00-.882-2.128l-.154.098c-.112.07-.217.14-.315.189-.469.273-.875.399-1.134-.056l-.056-.098c-.259-.441-.378-.651-.231-.917.105-.196.343-.322.777-.574l.252-.133a17.05 17.05 0 00-1.4-1.827l-.126.133a11.1 11.1 0 01-.252.266l-.014.014c-.378.371-.735.588-1.099.224l-.077-.077c-.364-.364-.539-.532-.462-.833.049-.21.245-.399.602-.749l.203-.203c-.476-.42-.98-.819-1.505-1.183h-.007v-.007h-.007c-.098-.07-.203-.14-.301-.21l-.091.168c-.056.105-.112.21-.175.322-.273.469-.56.777-1.015.511l-.014-.007-.077-.042c-.448-.259-.658-.378-.658-.686-.007-.224.133-.448.385-.882l.147-.245a14.956 14.956 0 00-2.128-.882l-.042.182v.007c-.028.119-.056.238-.084.343-.14.525-.336.903-.847.763h-.014l-.091-.028c-.497-.126-.728-.189-.812-.49l-.007-.021c-.049-.203.021-.462.154-.931l.077-.273a15.292 15.292 0 00-2.282-.294l.007.182c.007.133.014.266.014.364-.007.539-.098.952-.623.952h-.112c-.511 0-.756.007-.91-.259-.112-.189-.112-.455-.105-.959v-.28c-.777.042-1.533.147-2.275.301l.049.168c.042.126.077.252.105.357.14.525.154.945-.35 1.078l-.105.028c-.497.133-.728.196-.952-.014-.154-.154-.224-.413-.35-.903l-.07-.266c-.728.238-1.442.532-2.121.882l.098.147c.063.112.133.217.189.315.273.469.392.875-.063 1.134l-.091.056c-.448.259-.651.378-.924.231-.189-.105-.322-.343-.567-.784l-.133-.238c-.098.07-.196.133-.294.203h-.007l-.007.007c-.525.364-1.036.763-1.512 1.19l.126.119c.098.091.189.182.259.252l.014.014c.378.378.595.735.224 1.099l-.077.077c-.364.364-.532.539-.826.462-.217-.056-.406-.245-.756-.602l-.189-.196a15.859 15.859 0 00-1.393 1.82l.147.084c.105.056.21.112.322.175.469.266.777.56.518 1.015l-.014.014-.042.077c-.259.448-.378.658-.686.658-.217.007-.448-.133-.882-.385l-.231-.14a14.84 14.84 0 00-.875 2.121l.161.042h.014c.119.028.238.056.343.084.525.14.896.336.763.847l-.007.014-.021.091c-.133.497-.196.728-.49.812l-.021.007c-.21.049-.469-.021-.931-.154l-.259-.07-.063.329v.021h-.007v.007c-.077.42-.133.847-.175 1.281l-.007.049v.049l-.007.014v.063l-.007.014v.077l-.007.021v.021l-.021.329.161-.007c.14-.007.273-.014.364-.014.546 0 .959.098.959.623zm-.469.112v-.112c0-.126-.21-.154-.49-.154-.126.007-.238.007-.343.014l-.168.007v.784l.252.007c.413.007.637.007.714-.035.035-.021.035-.182.035-.511zm40.719-.994h7.28V84.69h-.434v.224c.007.497.007.763-.112.945-.161.245-.392.245-.896.245h-.147c-.518 0-.609-.406-.609-.931 0-.091.007-.224.007-.35l.007-.133h-2.891l.007.224c0 .497.007.763-.112.945-.161.245-.399.245-.896.245h-.147c-.518 0-.616-.406-.616-.931 0-.091.007-.224.014-.35v-.133h-.455v2.065zm3.521-27.524c0-.756.014-1.393.021-1.897.014-.735.021-1.148-.014-1.358-.021-.098-.098-.098-.266-.091l-.224.007h-.007l-.007.007v3.087c.147.112.315.189.497.245zm-.966-.784v-2.548c0-.126.049-.245.14-.336a.482.482 0 01.343-.147h.21c.448-.014.651-.021.742.469.049.259.035.693.021 1.456-.007.483-.021 1.099-.021 1.96h1.162v-3.402c0-.133.056-.252.14-.336a.47.47 0 01.343-.147h.21c.448-.014.651-.021.742.469.042.259.035.693.021 1.456-.007.476-.021 1.099-.021 1.96h1.162v-3.402c0-.133.049-.252.14-.336a.47.47 0 01.343-.147h.21c.448-.014.651-.021.742.469.042.259.035.693.021 1.456-.007.476-.021 1.099-.021 1.96h1.162v-3.402c0-.133.049-.252.14-.336a.47.47 0 01.343-.147h.21c.448-.014.651-.021.742.469.042.259.035.693.021 1.456-.007.476-.021 1.099-.021 1.96h1.162v-3.402c0-.133.049-.252.14-.336a.47.47 0 01.343-.147h.21c.448-.014.644-.021.735.469.049.259.042.693.028 1.456-.007.476-.021 1.099-.021 1.96h1.155v-3.402c0-.133.056-.252.147-.336a.47.47 0 01.343-.147h.21c.448-.014.644-.021.735.469.049.259.042.693.028 1.456-.007.476-.021 1.099-.021 1.96h1.435v-3.416c0-.126.049-.245.133-.329a.489.489 0 01.336-.14h.189c.441-.014.63-.021.721.476.042.245.035.665.021 1.414-.014.483-.021 1.113-.028 1.995h1.316v-3.416c0-.126.056-.245.14-.329a.46.46 0 01.329-.14h.189c.441-.014.63-.021.721.476.042.245.035.665.021 1.414-.014.483-.021 1.113-.028 1.995h1.316v-3.416c0-.126.049-.245.14-.329a.46.46 0 01.329-.14h.189c.441-.014.637-.021.721.476.042.245.035.665.021 1.414-.014.483-.021 1.113-.028 1.995h1.316v-3.416c0-.126.056-.245.14-.329a.46.46 0 01.329-.14h.189c.441-.014.637-.021.721.476.042.245.035.665.021 1.414-.014.483-.021 1.113-.028 1.995h1.316v-3.416c0-.126.056-.245.14-.329a.46.46 0 01.329-.14h.189c.441-.014.637-.021.721.476.042.245.035.665.021 1.414-.007.483-.021 1.113-.021 1.995h1.092l.035-.007v-3.409a.466.466 0 01.469-.469h.196c.427-.014.616-.021.7.441.049.231.042.623.028 1.33-.007.329-.014.742-.021 1.281.133-.231.21-.497.21-.784v-5.586c0-.441-.182-.84-.476-1.134l-.014-.014a1.587 1.587 0 00-1.127-.462h-.175c.007.861.014 1.477.028 1.953.014.77.021 1.204-.028 1.456-.091.497-.287.49-.742.476l-.21-.007a.476.476 0 01-.343-.14l-.014-.014a.492.492 0 01-.126-.329v-3.395h-1.155c0 .861.014 1.477.021 1.953.014.77.021 1.204-.028 1.456-.091.497-.287.49-.735.476l-.217-.007a.449.449 0 01-.336-.14l-.014-.014a.466.466 0 01-.133-.329v-3.395h-1.155c0 .861.014 1.477.021 1.953.014.77.021 1.204-.021 1.456-.091.497-.294.49-.742.476l-.21-.007a.464.464 0 01-.343-.14l-.014-.014a.46.46 0 01-.126-.329v-3.395h-1.162c0 .861.014 1.477.021 1.953.014.77.021 1.204-.021 1.456-.091.497-.294.49-.742.476l-.21-.007a.476.476 0 01-.343-.14l-.014-.014a.492.492 0 01-.126-.329v-3.395h-1.162c.007.861.014 1.477.028 1.953.014.77.021 1.204-.028 1.456-.091.497-.294.49-.742.476l-.21-.007a.476.476 0 01-.343-.14l-.014-.014a.492.492 0 01-.126-.329v-3.395h-1.19c0 .861.014 1.477.021 1.953.014.77.028 1.204-.021 1.456-.091.497-.294.49-.742.476l-.21-.007a.464.464 0 01-.343-.14l-.014-.014a.492.492 0 01-.126-.329v-3.395h-1.253c0 .861.014 1.477.021 1.953.014.77.021 1.204-.021 1.456-.098.497-.294.49-.742.476l-.21-.007a.464.464 0 01-.343-.14l-.014-.014a.46.46 0 01-.126-.329v-3.395h-1.253c0 .861.014 1.477.021 1.953.014.77.021 1.204-.028 1.456-.091.497-.287.49-.735.476l-.217-.007a.449.449 0 01-.336-.14l-.021-.014a.492.492 0 01-.126-.329v-3.395h-1.253c.007.861.014 1.477.028 1.953.014.77.021 1.204-.028 1.456-.091.497-.287.49-.742.476l-.21-.007a.476.476 0 01-.343-.14l-.014-.014a.492.492 0 01-.126-.329v-3.395h-1.253c.007.861.014 1.477.021 1.953.021.77.028 1.204-.021 1.456-.091.497-.294.49-.742.476l-.21-.007a.476.476 0 01-.343-.14l-.014-.014a.492.492 0 01-.126-.329v-3.395h-1.253c0 .861.014 1.477.021 1.953.014.77.028 1.204-.021 1.456-.091.497-.294.49-.742.476l-.21-.007a.464.464 0 01-.343-.14l-.014-.014a.492.492 0 01-.126-.329v-3.339c-.28.07-.532.217-.735.42a1.592 1.592 0 00-.469 1.134v5.586c0 .273.063.532.189.763zm3.563.854c0-.791.014-1.449.021-1.967.014-.735.021-1.148-.014-1.358-.021-.098-.098-.098-.266-.091l-.224.007h-.007l-.007.007v3.402h.497zm2.59 0c.007-.791.021-1.449.028-1.967.014-.735.021-1.148-.021-1.358-.014-.098-.091-.098-.259-.091l-.224.007h-.007l-.007.007v3.402h.49zM342.308 59c0-.728.014-1.344.021-1.827.007-.665.021-1.036-.021-1.225-.014-.07-.077-.07-.224-.063l-.21.007v3.325a1.68 1.68 0 00.434-.217zm-2.506.301c0-.812.014-1.484.028-2.002.014-.714.021-1.12-.021-1.33-.014-.091-.084-.084-.231-.084l-.203.007v3.409h.427zm-2.688 0c0-.812.014-1.484.028-2.002.007-.714.021-1.12-.021-1.33-.014-.091-.084-.084-.231-.084l-.203.007v3.409h.427zm-2.688 0c0-.812.014-1.484.021-2.002.014-.714.028-1.12-.014-1.33-.014-.091-.084-.084-.231-.084l-.21.007v3.409h.434zm-2.688 0c0-.812.014-1.484.021-2.002.014-.714.021-1.12-.014-1.33-.014-.091-.084-.084-.238-.084l-.203.007v3.409h.434zm-2.688 0c0-.812.014-1.484.021-2.002.014-.714.021-1.12-.014-1.33-.014-.091-.084-.084-.238-.084l-.203.007v3.409h.434zm-15.274-8.813c0 .301-.014 3.395.014 3.409l.224.007c.168 0 .245.007.266-.091.035-.21.028-.623.014-1.365-.007-.511-.021-1.169-.021-1.96h-.497zm2.695 0c0 .301-.021 3.395.007 3.409l.224.007c.175 0 .245.007.266-.091.035-.21.028-.623.014-1.365-.007-.511-.021-1.169-.021-1.96h-.49zm2.688 0c0 .301-.021 3.395.007 3.409l.231.007c.168 0 .238.007.259-.091.042-.21.028-.623.014-1.365-.007-.511-.021-1.169-.021-1.96h-.49zm2.688 0c0 .301-.021 3.395.007 3.409l.231.007c.168 0 .245.007.259-.091.042-.21.035-.623.021-1.365a70.35 70.35 0 01-.028-1.96h-.49zm2.688 0c0 .301-.021 3.395.014 3.409l.224.007c.168 0 .245.007.259-.091.042-.21.035-.623.021-1.365-.014-.511-.021-1.169-.028-1.96h-.49zm15.701 0c0 .301-.021 3.395.007 3.409l.231.007c.168 0 .238.007.259-.091.042-.21.028-.623.014-1.365-.007-.511-.021-1.169-.021-1.96h-.49zm-2.597 0c0 .301-.021 3.395.007 3.409l.231.007c.168 0 .245.007.259-.091.042-.21.035-.623.021-1.365-.014-.511-.021-1.169-.028-1.96h-.49zm-2.597 0c0 .301-.014 3.395.014 3.409l.224.007c.168 0 .245.007.259-.091.042-.21.035-.623.021-1.365-.014-.511-.021-1.169-.028-1.96h-.49zm-2.597 0c0 .301-.014 3.395.014 3.409l.224.007c.168 0 .245.007.259-.091.042-.21.035-.623.021-1.365-.007-.511-.021-1.169-.021-1.96h-.497zm-2.59 0c0 .301-.021 3.395.007 3.409l.224.007c.175 0 .245.007.266-.091.035-.21.028-.623.014-1.365-.007-.511-.021-1.169-.021-1.96h-.49zm-2.632 0c0 .301-.014 3.395.014 3.409l.224.007c.168 0 .245.007.266-.091.035-.21.028-.623.014-1.365-.007-.511-.021-1.169-.028-1.96h-.49zm5.257 9.282h-6.251v4.592h.973l2.968-2.968a.217.217 0 01.168-.07h2.142V59.77zm-14.042 0h-.539c.098.07.189.154.273.238l.014.014c.091.084.175.182.252.287v-.539zm2.604-.469c.007-.791.014-1.449.028-1.967.014-.735.021-1.148-.021-1.358-.014-.098-.091-.098-.259-.091l-.224.007h-.007l-.007.007v3.402h.49zm2.597 0c.007-.791.014-1.449.028-1.967.014-.735.021-1.148-.021-1.358-.014-.098-.091-.098-.259-.091l-.224.007h-.014v3.409h.49zm2.359 0h.238c.007-.791.014-1.449.028-1.967.014-.735.021-1.148-.021-1.358-.014-.098-.091-.098-.259-.091l-.224.007h-.014v3.409h.252zm1.561 12.67c.406 0 .665.231.784.518a.933.933 0 010 .679.812.812 0 01-.784.518.812.812 0 01-.784-.518.96.96 0 010-.679.812.812 0 01.784-.518zm.343.693a.35.35 0 00-.343-.217.35.35 0 00-.343.217.415.415 0 000 .329c.049.126.161.217.343.217.182 0 .294-.091.343-.217a.41.41 0 00.028-.161.424.424 0 00-.028-.168zm-.287 7.728v-3.304h-2.254v3.304h2.254zm.469-3.304v3.304h1.624v-3.304h-1.624zm-3.192 12.81V74.61h-5.985v12.383a.236.236 0 01-.238.238h-1.008v2.667h7.231zm1.337-15.757h.532c1.785.021 2.128.028 2.128-1.708 0-.819-.777-.938-1.631-.938-.238 0-.448.007-.651.014l-.378.007v2.625zm-.476-14.371h-6.846v14.364h6.846V59.77zm5.649 26.88c-.189-.21-.707-.203-1.778-.203v3.101l.21.007c.147.007.301.007.483.007.644 0 1.253-.091 1.253-.728l.007-.574c.007-.931.007-1.407-.175-1.61zm-2.247.497h-3.794v1.701h3.794v-1.701zm-3.052 3.227h-17.276c-.035 0 .049.028.042.063a.775.775 0 00-.014.133c0 .042.007.091.014.126s-.077.063-.042.063h17.276c.035 0-.042-.028-.035-.063.007-.035.007-.084.007-.126 0-.049 0-.091-.007-.133-.007-.035.07-.063.035-.063zm-9.086-6.16v-.483h-7.28v.483h7.28zm0-.952v-6.909h-7.28v6.909h7.28zm-.91 1.428h-.805v.147c-.007.105-.014.21-.014.336 0 .259.021.462.14.462h.147c.329 0 .483 0 .504-.035.042-.063.035-.28.035-.679l-.007-.231zm-4.634 0h-.805l-.007.147c-.007.105-.007.21-.007.336 0 .259.021.462.14.462h.147c.322 0 .476 0 .497-.035.042-.063.042-.28.035-.679v-.231zm6.02 2.065h.945V61.751c0-.546-.224-1.036-.588-1.4l-.007-.007a1.957 1.957 0 00-1.393-.574h-6.174a1.985 1.985 0 00-1.372.581 2.09 2.09 0 00-.441.658v.014a1.93 1.93 0 00-.147.728v25.004h.945V76.122c0-.133.105-.238.238-.238h1.176V61.716a.24.24 0 01.238-.238h4.928a.24.24 0 01.238.238v14.168h1.176c.133 0 .238.105.238.238v10.633zm-6.342-21.049h4.452v-2.485h-4.452v2.485zm4.452 1.211h-4.452v8.967h4.452v-8.967zm0-.742h-4.452v.266h4.452v-.266zm-4.452-3.423h4.452v-.805h-4.452v.805zm6.041 24.479h-7.287v2.667h7.287v-2.667zM304.41 75.268h-11.452c.567.434 1.106.903 1.61 1.407a15.774 15.774 0 014.172 7.35h2.709l3.633-3.633-.672-5.124zm-46.795-10.451h-2.919v2.919l2.919-2.919zm-14.497 0h-3.808l3.808 2.996v-2.996zm40.243 15.484c2.093 0 3.99.854 5.362 2.226a7.56 7.56 0 012.219 5.362 7.56 7.56 0 01-2.219 5.362 7.56 7.56 0 01-5.362 2.219 7.56 7.56 0 01-5.362-2.219 7.56 7.56 0 01-2.219-5.362 7.56 7.56 0 012.219-5.362 7.566 7.566 0 015.362-2.226zM268.08 92.138a16.084 16.084 0 01-.574-4.249v-.105l-1.995.007.553 3.234h.259c.581 0 .931.392 1.085.847.028.084.049.175.063.266h.609zm-.56-4.823a15.86 15.86 0 01.196-2.016h-2.625l.343 2.016h2.086zm.28-2.492a15.912 15.912 0 014.347-8.148 16.282 16.282 0 011.617-1.407h-5.117v2.31a.234.234 0 01-.063.161l-3.752 3.829v2.226l.175 1.029h2.793zm11.697 16.884l-.105-.028c-.126-.035-.203.161-.273.427a4.526 4.526 0 00-.077.329l-.042.175.763.203.07-.245c.105-.385.168-.602.147-.686v-.014c-.014-.035-.161-.077-.483-.161zm-3.444-1.47l-.091-.056c-.112-.063-.238.105-.378.343-.049.084-.105.196-.168.308l-.077.147.686.399.126-.217c.217-.364.329-.553.329-.637 0-.042-.14-.119-.427-.287zm-2.947-2.31l-.077-.077c-.084-.091-.245.035-.441.224l-.007.014c-.091.091-.161.168-.238.252l-.119.119.56.56.182-.175c.301-.294.455-.448.476-.532.014-.042-.098-.147-.336-.385zm-2.247-2.989l-.049-.098c-.07-.112-.259-.028-.504.112a6.697 6.697 0 00-.294.182l-.14.091.392.679.224-.119c.364-.21.56-.315.595-.392.021-.035-.056-.168-.224-.455zm-1.393-3.479l-.028-.098c-.035-.126-.245-.098-.504-.028-.119.035-.224.07-.336.105l-.161.042.203.77.245-.063c.406-.105.623-.161.679-.224.028-.028-.014-.182-.098-.504zm.077-7.413l.028-.112c.035-.119-.161-.196-.427-.273-.112-.028-.217-.049-.329-.077l-.175-.035-.203.763.245.063c.385.112.595.168.686.154l.007-.007c.042-.007.084-.154.168-.476zm1.47-3.444l.056-.098c.063-.112-.105-.238-.343-.371-.084-.049-.196-.105-.308-.168l-.147-.077-.399.679.217.133c.364.21.553.329.637.322.042 0 .119-.133.287-.42zm2.31-2.947l.077-.077c.091-.091-.035-.252-.231-.441l-.007-.014c-.091-.084-.168-.161-.252-.238l-.119-.112-.56.56.175.182c.294.294.448.455.532.476.035.007.147-.098.385-.336zm2.989-2.247l.098-.056c.112-.063.028-.259-.112-.497a6.697 6.697 0 00-.182-.294l-.091-.14-.686.392.126.224c.203.357.315.553.392.595.035.021.168-.056.455-.224zm3.472-1.4l.105-.028c.126-.028.098-.238.028-.504l-.105-.336-.049-.161-.763.21.063.245c.105.399.161.616.224.679.028.028.175-.014.497-.105zm3.717-.448h.112c.126 0 .154-.21.154-.483-.007-.126-.007-.238-.014-.35l-.007-.168h-.791v.259c-.007.413-.007.637.035.707.021.042.182.035.511.035zm3.703.532l.105.028c.126.028.203-.168.273-.434.035-.105.056-.217.084-.329l.035-.168-.763-.203-.063.238c-.112.392-.168.602-.154.693v.007c.014.042.161.077.483.168zm3.444 1.463l.098.056c.112.063.231-.105.371-.343.049-.077.105-.189.168-.308l.077-.147-.686-.392-.126.217c-.21.357-.329.553-.329.637.007.042.14.119.427.28zm2.947 2.31l.077.077c.091.091.252-.035.441-.224l.014-.014c.084-.084.161-.168.238-.245l.112-.126-.56-.56-.182.182c-.294.287-.455.441-.476.525-.007.042.098.154.336.385zm2.247 2.996l.056.091c.063.112.259.028.497-.112.098-.056.196-.112.294-.175l.14-.091-.392-.686-.224.126c-.364.203-.553.315-.595.385-.021.042.056.175.224.462zm1.393 3.472l.028.105c.035.126.245.091.511.021.112-.028.224-.063.336-.098l.154-.049-.203-.763-.245.063c-.399.105-.616.161-.679.217-.028.035.014.182.098.504zm.455 3.717v.105c0 .133.21.154.483.154.126 0 .238-.007.35-.007l.161-.007v-.791h-.252c-.413-.007-.637-.014-.707.035-.042.021-.042.175-.035.511zm-.532 3.703l-.028.105c-.035.126.168.203.434.273.105.028.217.056.322.077l.175.042.203-.763-.238-.07c-.392-.105-.602-.168-.693-.147h-.007c-.042.014-.084.161-.168.483zm-1.463 3.444l-.056.091c-.063.112.098.238.329.371l.014.007c.112.063.203.112.308.168l.147.077.392-.686-.217-.126c-.357-.217-.553-.329-.637-.329-.042 0-.119.133-.28.427zm-8.778 6.587l-.105.028c-.126.035-.091.238-.021.504.028.119.063.224.098.336l.049.161.763-.203-.063-.245c-.105-.406-.161-.623-.217-.679-.035-.028-.182.014-.504.098zm-3.717.448h-.105c-.133 0-.154.21-.154.483 0 .133.007.238.007.35l.007.168h.791v-.252c.007-.413.007-.637-.035-.714-.021-.035-.175-.035-.511-.035zm10.234-4.039l-.077.077c-.091.091.035.252.224.441l.014.014c.091.091.168.161.252.238l.091.091c.098-.098.203-.196.301-.294.084-.091.175-.182.266-.273l-.154-.154c-.287-.294-.448-.455-.532-.476-.042-.014-.147.098-.385.336zm-3.01 2.261l-.091.049c-.112.07-.028.266.112.504.056.098.119.196.182.294l.063.112c.238-.126.462-.259.693-.399l-.105-.189c-.21-.364-.315-.56-.392-.602-.035-.021-.168.063-.462.231zm-7.063-17.213a4.63 4.63 0 013.283 1.358l.014.014a4.636 4.636 0 01-.014 6.559 4.635 4.635 0 01-3.283 1.365 4.635 4.635 0 01-3.283-1.365 4.606 4.606 0 01-1.365-3.283c0-1.281.518-2.443 1.358-3.29h.007a4.63 4.63 0 013.283-1.358zm-3.087 1.834c.399.322.245.847-.014 1.435l-.126.28c-.056.133-.119.266-.182.413a.795.795 0 01-.763.483v.392c.504-.049.763.427.994 1.015l.112.308c.056.14.112.287.161.406a.763.763 0 010 .595.78.78 0 01-.196.287l.147.147c.042.049.084.084.133.126.322-.385.84-.231 1.421.028l.28.126c.133.056.266.119.413.182.203.084.35.238.427.42a.79.79 0 01.056.336c.077.007.147.007.224.007h.182c-.049-.504.427-.763 1.022-.994l.287-.105c.133-.056.273-.105.42-.168a.85.85 0 01.602 0 .847.847 0 01.28.196c.049-.049.105-.098.161-.154.035-.035.077-.077.112-.119-.399-.315-.245-.847.014-1.428l.126-.28c.063-.133.126-.266.182-.413a.775.775 0 01.777-.483c.007-.077.007-.154.007-.224v-.182c-.504.049-.763-.434-.994-1.022l-.105-.287c-.049-.14-.105-.28-.161-.427a.763.763 0 010-.595.763.763 0 01.189-.28 2.71 2.71 0 00-.14-.147l-.007-.014c-.042-.042-.091-.084-.133-.126-.322.413-.847.259-1.442 0l-.28-.126a5.635 5.635 0 00-.413-.182.784.784 0 01-.42-.427.772.772 0 01-.063-.357c-.063 0-.133-.007-.203-.007-.063 0-.126.007-.189.007.063.511-.42.777-1.015 1.008l-.308.119c-.14.056-.287.105-.413.161a.83.83 0 01-.595 0 .845.845 0 01-.287-.21c-.049.049-.098.091-.147.14-.042.049-.091.091-.133.14zm-.441 1.246c.147-.343.252-.644.168-.819a3.968 3.968 0 00-.714 1.708l.063-.021a.328.328 0 00.168-.168c.056-.133.126-.28.189-.427l.126-.273zm-.091 2.94c-.133-.336-.273-.623-.455-.686a4.073 4.073 0 00.707 1.708c.007-.021.021-.035.028-.056a.348.348 0 000-.238 6.706 6.706 0 01-.168-.427l-.112-.301zm2.03 2.156c-.336-.147-.637-.252-.819-.168.252.182.525.329.812.455.28.119.581.203.896.259l-.021-.063a.304.304 0 00-.168-.168c-.133-.056-.28-.126-.427-.189l-.273-.126zm5.208-4.907c.133.343.273.637.462.7a4.45 4.45 0 00-.259-.889 3.895 3.895 0 00-.448-.819.14.14 0 00-.028.056.311.311 0 000 .238c.056.133.112.287.168.434l.105.28zm-2.247 4.998c-.343.133-.63.273-.7.455.308-.049.609-.133.896-.252.287-.112.56-.266.819-.448a.21.21 0 00-.056-.028.283.283 0 00-.238 0c-.133.049-.287.112-.441.168l-.28.105zm2.142-2.03c-.147.336-.259.637-.175.819a4.02 4.02 0 00.455-.812 4.14 4.14 0 00.259-.896.132.132 0 00-.056.014.304.304 0 00-.168.168c-.056.14-.126.287-.196.434l-.119.273zm-1.946-5.103c.336.147.644.259.819.168a4.148 4.148 0 00-.812-.448 3.781 3.781 0 00-.896-.259.482.482 0 00.021.056c.028.077.091.14.168.168.133.056.28.126.427.196l.273.119zm-2.94-.084c.336-.133.623-.273.686-.462-.308.056-.609.14-.889.259a3.865 3.865 0 00-.819.448.14.14 0 00.056.028c.07.035.161.035.238 0 .147-.056.287-.112.427-.161l.301-.112zm1.372 1.575c.959 0 1.575.525 1.841 1.204.105.259.161.539.161.819 0 .28-.056.553-.161.819-.266.672-.882 1.204-1.841 1.204s-1.575-.532-1.841-1.204a2.244 2.244 0 01-.161-.819c0-.28.056-.56.161-.819.266-.679.882-1.204 1.841-1.204zm1.407 1.379c-.203-.511-.672-.91-1.407-.91s-1.204.399-1.407.91a1.774 1.774 0 000 1.281c.203.511.672.91 1.407.91s1.204-.399 1.407-.91a1.774 1.774 0 000-1.281zm-1.407-8.141c2.422 0 4.62.987 6.209 2.576a8.744 8.744 0 012.569 6.209c0 2.422-.98 4.62-2.569 6.209a8.756 8.756 0 01-6.209 2.569c-2.422 0-4.62-.98-6.209-2.569a8.762 8.762 0 01-2.576-6.209 8.75 8.75 0 012.576-6.209 8.762 8.762 0 016.209-2.576zm5.873 2.905a8.297 8.297 0 00-5.873-2.429 8.284 8.284 0 00-5.873 2.429 8.29 8.29 0 00-2.436 5.88c0 2.289.931 4.368 2.436 5.873a8.261 8.261 0 005.873 2.436 8.274 8.274 0 005.873-2.436 8.286 8.286 0 002.436-5.873 8.29 8.29 0 00-2.436-5.88zm-.847.847a7.113 7.113 0 00-5.026-2.079 7.088 7.088 0 00-5.026 2.079 7.094 7.094 0 00-2.086 5.033 7.09 7.09 0 002.086 5.026 7.06 7.06 0 005.026 2.079c1.96 0 3.738-.791 5.026-2.079a7.09 7.09 0 002.086-5.026 7.094 7.094 0 00-2.086-5.033zm-23.807 2.261c-.007-.007-.007-.021-.007-.028l-.21-1.239v-2.373c0-.077.028-.14.077-.182l3.738-3.815v-2.212h-11.431v2.212l3.738 3.815a.232.232 0 01.077.182v2.373l-.21 1.239-.007.021-1.008 5.915h6.251l-.581-3.416c-.007-.014-.007-.021-.007-.035l-.42-2.457zm-6.622 7.735h8.827c.098 0 .168-.098.21-.231a.546.546 0 00.021-.154.413.413 0 01-.014-.098.41.41 0 01.014-.091 1.144 1.144 0 00-.056-.259c-.091-.28-.301-.518-.637-.518h-7.903c-.336 0-.546.238-.637.518a1.144 1.144 0 00-.056.259.224.224 0 010 .189c0 .056.014.105.028.154.035.133.105.231.203.231zm-14.371-24.787h10.633v-3.248h-10.633v3.248zm66.045-17.409l11.361-9.569-2.149-2.632-11.263 9.723 2.051 2.478zm-1.267-3.78l8.827-7.616-3.01-3.64-2.828 2.345-6.153 5.089 3.164 3.822zm-4.487-35.581c-.385-.007-.763-.007-1.106-.014-.434-.007-.819-.014-1.253-.014-2.401 0-2.674.28-2.695 2.59l5.054-2.562zm-5.166 3.15c-.014 0-.021.007-.035.014l-1.393.707c-.014.007-.021.007-.028.014l-2.436 1.232-18.704 9.485h-.014c-.343.182-.826.224-1.358.224-.21 0-.462-.007-.721-.021-.161-.007-.322-.007-.49-.014v6.174l1.582.028 29.428-14.77v-6.034l-5.831 2.961zm-.357-.35c0-2.947.238-3.297 3.164-3.297.315 0 .756.007 1.26.014.553.007 1.183.014 1.995.014h2.639c0-.721-.014-1.281-.021-1.736a23.053 23.053 0 01-.007-1.372h-9.989v6.86l.959-.483zm.931 36.778h-3.472a.24.24 0 01-.238-.231v-1.869c0-.126.112-.238.238-.238h3.668l.154-1.743h-3.465a.24.24 0 01-.238-.238v-1.869c0-.126.105-.231.238-.231h3.668l.14-1.652h-3.465a.24.24 0 01-.238-.238v-1.869c0-.126.105-.231.238-.231h3.668l.112-1.316c.014-.126.021-.245.021-.35.028-1.498-.623-2.849-1.659-3.857a6.58 6.58 0 00-4.431-1.841l-19.068-.343-1.624-.028v19.614c0 .273.007.525.021.784.007.294.021.588.021.847 0 .28-.014.553-.042.805v.224c0 .224.091.434.238.581l.007.014a.836.836 0 00.595.245h23.667a.953.953 0 00.602-.21.649.649 0 00.266-.462l.378-4.298zm-3.234-.469h3.269l.035-.392.091-1.001h-3.395v1.393zm.35-4.088h3.276l.035-.413.084-.98h-3.395v1.393zm.35-3.99h3.269l.035-.364.084-1.029h-3.388v1.393zm8.113-24.437l-28.742 14.413 18.109.322c.168.007.322.014.469.028a7.018 7.018 0 014.284 1.953c1.127 1.092 1.827 2.569 1.799 4.2 0 .133-.007.266-.014.385l-.644 7.448 4.585-3.794.007-.007 9.345-7.728.007-.007 8.085-6.692V11.302h-17.136v6.363a.236.236 0 01-.154.224zm3.017-7.063h4.963l-3.199-3.64a22.14 22.14 0 01-.847-.035h-.007c-.518-.028-.777-.042-.847.105a.632.632 0 00-.063.203v3.367zm-31.241 14.273l15.743-7.98h-15.736v7.791c0 .07 0 .133-.007.189zm.007-8.449h16.667l3.185-1.617.427-.217V7.718h-25.06c.238.14.462.315.658.511l.014.014c.616.609.994 1.456.994 2.394v1.876h2.884c.126 0 .231.105.231.238v3.899zm-3.115 8.967l.504.014c.231.007.462.014.707.014.791 0 1.435-.105 1.435-.735V12.982h-2.646v12.635zm-.476 29.106v-2.184h-59.339l-.007.357c-.007.21-.014.434-.014.686 0 1.12.168 2.261 1.435 2.261h3.493v-.182c-.007-.161-.014-.315-.014-.434 0-.693.119-1.267.847-1.267h21.182c.728 0 .847.574.847 1.267 0 .119-.007.273-.014.434l-.007.182h30.604c.651 0 .903-.469.987-1.12zm-23.639-3.696v-.7c0-.014.007-.021.007-.035l.098-38.367v-.147H228.6c-2.352 0-4.109 4.046-6.083 8.603l-.084.196c-1.19 2.751-2.212 5.81-2.947 8.589-.798 3.003-1.26 5.677-1.26 7.273v15.624h31.192v-1.036zm21.091-.469h-20.615v1.505h21.378v-.315c0-.553-.077-1.19-.763-1.19zm-29.512 5.285l.007-.196c0-.133.007-.266.007-.42 0-.434-.049-.798-.371-.798h-21.182c-.322 0-.371.364-.371.798 0 .154 0 .287.007.42l.007.196h21.896zm10.234-42.175h8.561c.924 0 1.442.105 1.757.462.308.35.357.889.357 1.785v5.502c0 .546 0 .819-.105 1.043-.105.238-.273.364-.616.602l-4.053 2.828c-.952.658-.959.658-2.023.651l-3.878.007a.24.24 0 01-.231-.238V13.906c0-.133.105-.238.231-.238zm8.561.469h-8.323v11.935h3.64c.91 0 .924 0 1.75-.574l4.053-2.828c.273-.182.406-.28.462-.399.056-.133.056-.371.056-.854v-5.502c0-.777-.035-1.239-.238-1.477-.203-.231-.616-.301-1.4-.301zm.266-2.359h-10.066v16.065h5.754c1.036.007 1.05.007 1.981-.644 1.477-1.029 3.115-2.086 4.543-3.164.308-.217.462-.329.525-.462.07-.161.07-.427.07-.973l-.007-7.924c0-1.246-.084-1.988-.462-2.387s-1.092-.511-2.338-.511zm-30.513 1.659h15.218a2.752 2.752 0 012.751 2.751v11.473c0 .336-.133.616-.35.833-.224.224-.539.371-.882.434l-20.986 3.815c-.847.154-1.568.063-2.135-.182a2.552 2.552 0 01-1.519-1.925 2.942 2.942 0 01.217-1.729c.161-.371.462-1.197.854-2.275 1.624-4.459 4.802-13.195 6.832-13.195zm15.218.476h-15.218c-1.701 0-4.809 8.526-6.391 12.873-.392 1.092-.693 1.918-.861 2.31a2.499 2.499 0 00-.189 1.463c.063.336.196.651.406.924.21.266.49.49.84.644.49.217 1.113.287 1.862.154l20.986-3.815c.252-.049.476-.154.637-.308a.686.686 0 00.203-.497V16.188c0-.63-.252-1.197-.665-1.61a2.264 2.264 0 00-1.61-.665zm-29.204 22.764l-1.834 6.846v8.54h4.025V36.677h-2.191zm8.596-.469c.987 0 1.61.735 1.883 1.687.098.35.147.735.147 1.113s-.049.763-.147 1.113c-.273.952-.896 1.694-1.883 1.694-.994 0-1.617-.742-1.883-1.694a3.922 3.922 0 01-.154-1.113c0-.378.049-.763.154-1.113.266-.952.889-1.687 1.883-1.687zm1.428 1.813c-.217-.756-.693-1.344-1.428-1.344-.742 0-1.218.588-1.435 1.344a3.815 3.815 0 00-.126.987c0 .336.042.679.126.987.217.756.693 1.344 1.435 1.344.735 0 1.211-.588 1.428-1.344.084-.308.133-.651.133-.987 0-.336-.049-.679-.133-.987zm118.356-11.97c.224-.035.441-.063.644-.084 1.239-.161 1.925-.245 1.925-1.19 0-.511-.525-.777-1.113-1.064-.14-.07-.28-.14-.399-.203a.232.232 0 01-.126-.224l-.021-4.025c0-.014-.007-.035-.007-.049l.007-.518-.007-.518c0-.021.007-.035.007-.049l.021-4.025a.25.25 0 01.126-.231c.119-.063.259-.133.399-.203.588-.287 1.113-.546 1.113-1.057 0-.952-.686-1.036-1.925-1.19-.203-.028-.42-.049-.644-.084v14.714zm-10.738-12.985c1.316 0 2.506.532 3.367 1.393l.014.014a4.742 4.742 0 011.379 3.353 4.745 4.745 0 01-1.393 3.367 4.745 4.745 0 01-3.367 1.393 4.745 4.745 0 01-3.367-1.393 4.745 4.745 0 01-1.393-3.367c0-1.316.532-2.506 1.393-3.367h.007a4.74 4.74 0 013.36-1.393zm3.031 1.729a4.275 4.275 0 00-6.062 0 4.269 4.269 0 00-1.253 3.031c0 1.183.476 2.254 1.253 3.031a4.275 4.275 0 006.062 0 4.288 4.288 0 00.014-6.055l-.014-.007zm.588-3.969l-1.813-1.043h-4.221l-1.813 1.043h7.847zm-12.334 14.21h18.977V11.302h-18.977v13.734zm18.977.476h-18.977v1.617h18.977v-1.617zm-19.453 1.617V11.302h-1.379v15.827h1.379zm14.266 6.251h3.437v-3.129h-3.437v3.129zm.819-5.775h-13.811v5.775H337.8v-3.367c0-.126.105-.231.238-.231h1.057v-2.177zm10.437 0h-9.968v2.177h2.38c.133 0 .238.105.238.231v3.367h7.35v-5.775zm-80.353 28.714h-43.176v2.982h43.176v-2.982z" fill="#000"/></svg>