<svg width="340" height="143" fill="none" xmlns="http://www.w3.org/2000/svg"><path d="M313.113 93.363c2.081 0 3.964.843 5.331 2.203a7.536 7.536 0 012.203 5.331 7.538 7.538 0 01-2.203 5.332 7.504 7.504 0 01-4.998 2.196l7.065 5.052h2.19v-6.058c0-.136.109-.245.245-.245h12.321a4.232 4.232 0 002.999-1.251 4.234 4.234 0 000-5.998 4.254 4.254 0 00-2.999-1.244h-11.784a.25.25 0 01-.231-.157l-8.548-16.66a.118.118 0 01-.027-.047l-3.536-6.889a1.232 1.232 0 01-.068-.136l-6.045-11.777a.146.146 0 01-.034-.054l-1.51-2.938c-.68-1.421-1.843-2.156-3.06-2.333a4.16 4.16 0 00-1.917.177 3.994 3.994 0 00-2.312 1.986.225.225 0 01-.048.115c-.34.755-.455 1.68-.238 2.734v.007c.089.571.177 1.142.259 1.707v.04c.816 5.726 1.081 11.166.945 16.6-.157 5.888-.789 11.777-1.741 18.04l4.406-.606a3.02 3.02 0 012.176.707 3.73 3.73 0 011.115 1.612c.232.619.3 1.306.177 1.958a3.143 3.143 0 01-1.244 1.993l-3.536 2.339 3.305.197.047-.007c.027 0 .055.007.082.014l8.126.476a7.575 7.575 0 01-2.244-1.55 7.515 7.515 0 01-2.21-5.332 7.536 7.536 0 017.541-7.534zm-211.036-44.09h4.27c.136 0 .245.108.245.244v1.244a.244.244 0 01-.245.245h-4.454a.244.244 0 01-.245-.245v-.007c-.013-.217-.02-.34-.027-.414a.608.608 0 01.041-.374c.034-.075.088-.211.177-.517a.247.247 0 01.238-.177zm4.018.489h-3.842a5.47 5.47 0 01-.136.387l-.02.041.027.327h3.971v-.755zm-4.182 1.734h4.434c.136 0 .245.108.245.244v1.245a.244.244 0 01-.245.245h-4.502a.243.243 0 01-.244-.245v-.048c.02-.19.034-.387.047-.584.007-.211.021-.415.021-.613 0-.136.108-.244.244-.244zm4.182.49h-3.944l-.013.387-.027.367h3.984v-.755zm-4.379 1.733h4.631c.136 0 .245.11.245.245v1.245a.244.244 0 01-.245.244h-4.889a.244.244 0 01-.245-.245c0-.027.007-.054.014-.074.047-.204.095-.401.136-.592a22.4 22.4 0 00.115-.619.248.248 0 01.238-.204zm4.379.49h-4.168a9.3 9.3 0 01-.088.428l-.068.327h4.324v-.755zm22.916-.463h5.964c.136 0 .245.11.245.245v1.245a.244.244 0 01-.245.245h-5.964a.244.244 0 01-.245-.245V53.99c0-.136.109-.245.245-.245zm5.719.49h-5.474v.755h5.474v-.755zm-5.719-2.7h5.964c.136 0 .245.11.245.245v1.245a.244.244 0 01-.245.244h-5.964a.244.244 0 01-.245-.244V51.78c0-.136.109-.245.245-.245zm5.719.49h-5.474v.755h5.474v-.755zm-5.719-2.754h5.964c.136 0 .245.109.245.245v1.244a.244.244 0 01-.245.245h-5.964a.244.244 0 01-.245-.245v-1.244c0-.136.109-.245.245-.245zm5.719.49h-5.474v.755h5.474v-.755zm-13.654 3.984h5.963c.136 0 .245.11.245.245v1.245a.244.244 0 01-.245.245h-5.963a.244.244 0 01-.245-.245V53.99c0-.136.109-.245.245-.245zm5.718.49h-5.474v.755h5.474v-.755zm-5.718-2.7h5.963c.136 0 .245.11.245.245v1.245a.244.244 0 01-.245.244h-5.963a.244.244 0 01-.245-.244V51.78c0-.136.109-.245.245-.245zm5.718.49h-5.474v.755h5.474v-.755zm-5.718-2.754h5.963c.136 0 .245.109.245.245v1.244a.244.244 0 01-.245.245h-5.963a.244.244 0 01-.245-.245v-1.244c0-.136.109-.245.245-.245zm5.718.49h-5.474v.755h5.474v-.755zm-13.769 3.984h5.956a.25.25 0 01.252.245v1.245a.25.25 0 01-.252.245h-5.956a.25.25 0 01-.252-.245V53.99a.25.25 0 01.252-.245zm5.712.49h-5.468v.755h5.468v-.755zm-5.712-2.7h5.956a.25.25 0 01.252.245v1.245a.25.25 0 01-.252.244h-5.956a.25.25 0 01-.252-.244V51.78a.25.25 0 01.252-.245zm5.712.49h-5.468v.755h5.468v-.755zm-5.712-2.754h5.956a.25.25 0 01.252.245v1.244a.25.25 0 01-.252.245h-5.956a.25.25 0 01-.252-.245v-1.244a.25.25 0 01.252-.245zm5.712.49h-5.468v.755h5.468v-.755zm-.878-13.212h-8.493v1.461c.191.3.299.64.32.98.02.414-.082.843-.32 1.21v2.434h8.493V36.55zm-8.493-.497h8.493V8.193h-8.493v27.86zm7.371-31.783h.238c.49.007.742.007.816-.054.062-.061.062-.3.055-.782v-.116h-1.109v.952zm1.598-.952v.109c.007.632.014.945-.217 1.156-.211.19-.531.183-1.149.177h-.232v.503c2 0 2.204 0 2.21-1.945h-.612zm1.109-.245c0 2.68-.163 2.68-2.707 2.68v1.944h1.367c.136 0 .245.11.245.245v34.693h6.881l-.006-.367c0-.122 0-.245.006-.367v-9.214h-2.386a.253.253 0 01-.245-.245c0-1.149.945-2.285 2.421-3.114 1.38-.782 3.236-1.306 5.202-1.306h.013c1.959 0 3.815.524 5.195 1.306 1.476.83 2.421 1.965 2.421 3.114 0 .13-.115.245-.245.245h-2.386v7.752h5.263c1.21 0 1.353.972 1.353 1.83l-.007.366h4.427c.136 0 .245.11.245.245v27.438h.618l5.094-64.763h-2.272a.243.243 0 01-.244-.244V2.006c0-.136.108-.245.244-.245h69.87c.136 0 .245.109.245.245V5.31a.244.244 0 01-.245.244h-2.292v42.112h2.231c.075 0 .143.034.19.096l12.063 15.19a.23.23 0 01.061.164v14.6h2.829v-5.195c0-1.428.803-3.06 1.959-4.304.965-1.047 2.189-1.83 3.4-2.027h.013l15.586-2.386h.006l8.983-1.306-.245-1.428a.248.248 0 01.204-.285l4.298-.728a.253.253 0 01.286.197l.414 2.462c1.333-.225 1.925-.28 2.285.34l23.698-3.468a4.47 4.47 0 01.748-1.04 4.624 4.624 0 011.822-1.143 4.58 4.58 0 012.142-.197c1.367.19 2.673 1.02 3.434 2.604l1.449 2.822h4.923v-3.067c0-.136.109-.245.245-.245h1.822c.136 0 .245.11.245.245v3.067h5.44a2.08 2.08 0 011.489.619c.381.38.612.904.612 1.482V85.19h4.121c.136 0 .245.11.245.245v12.757h10.75a4.72 4.72 0 013.346 1.394 4.713 4.713 0 011.387 3.339c0 1.305-.53 2.489-1.387 3.345a4.72 4.72 0 01-3.346 1.394h-12.07v5.814h1.136a.25.25 0 01.245.252v4.515a.244.244 0 01-.245.245h-3.658c-.055 3.577-1.272 6.521-3.21 9.017-1.972 2.543-4.685 4.617-7.67 6.432a95.477 95.477 0 01-8.575 4.604c-2.638 1.237-5.406 2.373-8.099 3.237-.619.231-1.081.306-1.394.265a.662.662 0 01-.455-.238.599.599 0 01-.102-.49c.04-.265.21-.598.516-.979h.007c.592-.7 1.279-1.496 1.993-2.326 1.87-2.162 3.944-4.562 5.399-6.466-.286-.463-.34-.918-.034-1.238a119.907 119.907 0 011.809-2.672c2.74-3.958 4.032-5.835 3.087-11.751-.123-.754-.041-1.156.326-1.387.286-.19.721-.217 1.374-.224l-.007-1.653-3.835-.278a.25.25 0 01-.231-.245v-4.325l-3.795-.217-4.066 2.692a.312.312 0 01-.102.041l-45.648 6.304.054 1.883.979.796a.231.231 0 01.089.217l-.265 2.027a.241.241 0 01-.15.19l-1.136.51-.462 1.972.775.986c.061.075.068.17.034.245l-.7 1.904a.244.244 0 01-.197.163l-1.218.245-.911 1.802.49 1.163a.241.241 0 01-.034.251l-1.17 1.646a.222.222 0 01-.211.102l-1.258-.075-1.366 1.489.156 1.251a.231.231 0 01-.102.232l-1.584 1.264a.232.232 0 01-.245.034l-1.17-.421-1.7 1.095-.129 1.251a.252.252 0 01-.15.204l-1.829.877a.265.265 0 01-.238-.014l-1.061-.686-1.91.659-.449 1.177a.247.247 0 01-.191.156l-1.992.381a.258.258 0 01-.231-.075l-.843-.925-2 .231-.632 1.082a.268.268 0 01-.231.122l-2.02.048a.267.267 0 01-.21-.116l-.674-1.04-1.999-.007-.653 1.054a.24.24 0 01-.231.115h-2.013a.246.246 0 01-.21-.115l-.653-1.054h-1.993l-.652 1.054a.238.238 0 01-.225.115h-2.019a.256.256 0 01-.211-.115l-.646-1.054h-1.999l-.646 1.054a.248.248 0 01-.232.115h-2.019a.245.245 0 01-.204-.115l-.653-1.054h-1.992l-.653 1.054a.241.241 0 01-.231.115h-2.013a.248.248 0 01-.211-.115l-.646-1.054h-1.999l-.653 1.054a.236.236 0 01-.224.115h-2.02a.259.259 0 01-.211-.115l-.646-1.054h-1.999l-.646 1.054a.254.254 0 01-.231.115h-2.013a.24.24 0 01-.211-.115l-.652-1.054h-1.993l-.653 1.054a.24.24 0 01-.231.115h-2.013a.256.256 0 01-.21-.115l-.646-1.054h-2l-.652 1.054a.238.238 0 01-.225.115h-2.019a.235.235 0 01-.204-.115l-.653-1.054h-1.999l-.646 1.054a.248.248 0 01-.232.115h-2.019a.245.245 0 01-.204-.115l-.653-1.054h-1.992l-.653 1.054a.25.25 0 01-.211.115h-2.033a.252.252 0 01-.218-.122l-.639-1.047h-1.999l-.646 1.054a.254.254 0 01-.231.115h-2.02a.237.237 0 01-.204-.115l-.653-1.054h-1.999l-.646 1.054a.254.254 0 01-.231.115h-2.013a.25.25 0 01-.211-.115l-.652-1.054h-1.993l-.653 1.054a.236.236 0 01-.224.115h-2.02a.246.246 0 01-.21-.115l-.646-1.054h-1.999l-.646 1.054a.255.255 0 01-.232.115h-2.019a.236.236 0 01-.204-.115l-.653-1.054h-1.992l-.653 1.054a.238.238 0 01-.225.115h-2.019a.248.248 0 01-.211-.115l-.653-1.054h-1.992l-.653 1.054a.237.237 0 01-.224.115h-2.02a.259.259 0 01-.211-.115l-.653-1.054h-1.992l-.646 1.054a.254.254 0 01-.231.115h-2.02a.259.259 0 01-.211-.115l-.646-1.054h-1.999l-.646 1.054a.247.247 0 01-.231.115h-2.013a.246.246 0 01-.21-.115l-.653-1.054h-1.993l-.652 1.054a.238.238 0 01-.225.115h-2.019a.256.256 0 01-.211-.115l-.646-1.054-2.006.007-.673 1.04a.252.252 0 01-.211.116l-2.04-.048a.259.259 0 01-.204-.122l-.633-1.082-2.006-.231-.843.925a.251.251 0 01-.231.075l-1.999-.381a.23.23 0 01-.184-.156l-.449-1.177-1.91-.653-1.061.68a.241.241 0 01-.245.007l-1.83-.877a.224.224 0 01-.135-.197l-.136-1.251-1.7-1.095-1.183.428a.255.255 0 01-.231-.041l-1.592-1.271a.236.236 0 01-.088-.238l.184-1.455-47.947 4.488h-.014l-2.332.224a.255.255 0 01-.272-.224l-.197-2.646h-3.108a.243.243 0 01-.245-.244v-1.041h-9.676l-1.122.898a.231.231 0 01-.15.047H19.39l-15.062 6.25a2.53 2.53 0 01-2.046.36 2.998 2.998 0 01-1.095-.517 3.06 3.06 0 01-.816-.904c-.503-.857-.558-1.965.245-2.992l5.025-6.474a.252.252 0 01.197-.095H7.66l6.127-44.03c0-.067.034-.135.088-.176v-.007l.007-.007h.007l.007-.007h.007l.007-.007.02-.006v-.007l13.79-6.861a2.602 2.602 0 011.285-.354c.374 0 .735.088 1.048.258a2 2 0 01.782.762c.204.347.32.775.32 1.285v6.74c0 .407-.076.842-.26 1.23a1.899 1.899 0 01-.76.83L27.57 92.2v3.856l9.302 3.298c.13.047.19.19.15.313l-1.238 2.856 2.482.387.72-1.244a.242.242 0 01.212-.123h2.114l2.462-4.352c.054-.108.19-.163.313-.108l.557.23 10.01-11.212V46.294c0-1.809 1.564-1.87 2.57-1.863.027-.483.238-.918.558-1.238a1.9 1.9 0 011.353-.558h31.524l12.472-13.98a.252.252 0 01.34-.027l.006.006.007.007.007.007 4.998 4.556a.245.245 0 01.014.34l-1.782 2.006 2.156 1.924V7.942c0-.136.108-.245.244-.245h1.374V3.318h-2.462a.249.249 0 01-.244-.251l-.014-.517c0-.741.122-1.585 1.19-1.585h9.302c1.061 0 1.184.844 1.184 1.585 0 .17-.007.34-.007.51v.013zm-11.173-.251h10.683l.007-.272c0-.51-.075-1.095-.694-1.095h-9.302c-.626 0-.7.585-.7 1.095l.006.272zm7.97 4.875V3.318h-5.256v4.38h5.256zm-7.31 30.546c-.007-.014-.014-.02-.02-.034a1.272 1.272 0 00-.225-.245l-2.291-2.054-.578.646c.136.116.272.232.414.347.211.17.415.347.612.524.918.816 1.551 1.659.714 2.59l-2.679 3a.12.12 0 01-.034.047l-3.556 3.978c-.007.007-.014.02-.027.027l-5.753 6.44c0 .006-.007.013-.014.02l-.007.007L89.81 59.9c-.014.007-.02.02-.028.028l-.013.013L74.503 77.03c-.837.939-1.74.402-2.652-.414a15.22 15.22 0 01-.585-.544c-.13-.13-.258-.252-.38-.367l-.708.795 2.292 2.04a1.5 1.5 0 001.094.38 1.54 1.54 0 001.04-.489L102.9 46.743l.034-.034 3.557-3.985.02-.02 2.299-2.578a.665.665 0 00.102-.129c.006-.007.013-.014.02-.027.197-.286.286-.619.265-.952a1.471 1.471 0 00-.265-.775zm-.054 4.392v-1.85l-1.653 1.85h1.653zm25.853-7.092h-9.01v5.148c.204-.157.476-.252.857-.252h8.153v-4.896zm-9.01-.496h9.01v-2.36h-9.01v2.36zm9.262-2.856h2.359c-.129-.878-.945-1.755-2.149-2.435-1.312-.748-3.087-1.237-4.964-1.237-1.883 0-3.658.49-4.97 1.237-1.204.68-2.013 1.558-2.149 2.435h11.873zm-9.262 9.764v.68h15.62v-.034c.006-.088.006-.183.006-.333 0-.625-.088-1.34-.863-1.34h-13.906c-.646 0-.816.497-.857 1.027zm91.303 5.712V5.555h-4.44v42.112h4.44zm-4.678-42.601h7.221V2.25h-69.38v2.815h62.159zm-32.511 35.733h27.152c.537 0 1.027-.224 1.381-.578a1.93 1.93 0 00.578-1.387V12.008c0-.537-.218-1.026-.578-1.387a1.95 1.95 0 00-1.381-.57h-27.152a1.963 1.963 0 00-1.965 1.957v26.826c0 .544.224 1.034.578 1.387.353.354.85.578 1.387.578zm27.152.49h-27.152a2.43 2.43 0 01-1.734-.72 2.446 2.446 0 01-.721-1.735V12.008a2.458 2.458 0 012.455-2.455h27.152a2.47 2.47 0 011.734.721c.442.45.714 1.061.714 1.734v26.826a2.44 2.44 0 01-.714 1.734 2.442 2.442 0 01-1.734.721zm-93.961 44.118h5.956a.25.25 0 01.252.245v1.251a.25.25 0 01-.252.245h-5.956a.25.25 0 01-.252-.245v-1.251a.25.25 0 01.252-.245zm5.712.496h-5.468v.755h5.468v-.755zm2.339-.496h5.963c.136 0 .245.109.245.245v1.251a.244.244 0 01-.245.245h-5.963a.244.244 0 01-.245-.245v-1.251c0-.136.109-.245.245-.245zm5.718.496h-5.474v.755h5.474v-.755zm2.217-.496h5.964c.136 0 .245.109.245.245v1.251a.244.244 0 01-.245.245h-5.964a.244.244 0 01-.245-.245v-1.251c0-.136.109-.245.245-.245zm5.719.496h-5.474v.755h5.474v-.755zm-30.688-7.534h2.305c.136 0 .245.109.245.245v1.244a.244.244 0 01-.245.245h-1.333a.229.229 0 01-.197-.109l-.966-1.23a.235.235 0 01.041-.34.205.205 0 01.15-.055zm2.053.49h-1.55l.592.748h.958v-.748zm-3.835-2.761h4.087c.136 0 .245.109.245.245v1.244a.244.244 0 01-.245.245h-3.114a.24.24 0 01-.198-.102l-.965-1.238a.234.234 0 01.041-.34.203.203 0 01.149-.054zm3.835.49h-3.332l.592.754h2.74v-.754zm-5.616-2.761h5.868c.136 0 .245.109.245.245v1.244a.244.244 0 01-.245.245h-4.896a.228.228 0 01-.197-.109l-.966-1.23a.235.235 0 01.041-.34.205.205 0 01.15-.055zm5.616.49h-5.113l.591.754h4.522v-.755zm-7.398-2.761h7.65c.136 0 .245.108.245.244v1.245a.244.244 0 01-.245.245H99.67a.228.228 0 01-.198-.11l-.972-1.23a.241.241 0 01.047-.34.205.205 0 01.15-.054zm7.398.49H99.2l.592.754h6.303v-.755zm-4.923-16.103h5.175c.136 0 .245.109.245.245v1.244a.244.244 0 01-.245.245h-5.651a.244.244 0 01-.211-.367c.075-.184.157-.374.238-.585.075-.197.15-.408.218-.612a.238.238 0 01.231-.17zm4.923.49h-4.746c-.054.156-.109.312-.17.469l-.116.285h5.032v-.755zm-5.868 1.733h6.12c.136 0 .245.11.245.245v1.245a.244.244 0 01-.245.245H99.5a.25.25 0 01-.252-.245c0-.062.02-.116.054-.157.123-.183.245-.38.36-.585.123-.203.239-.407.347-.618a.253.253 0 01.218-.13zm5.868.49h-5.718c-.096.17-.191.347-.286.51l-.15.245h6.154v-.755zm-7.303 1.734h7.555c.136 0 .245.109.245.245v1.244a.244.244 0 01-.245.245h-8.643a.244.244 0 01-.244-.245c0-.075.034-.142.088-.183.183-.197.367-.388.537-.592.177-.197.347-.408.517-.619a.238.238 0 01.19-.095zm7.303.49h-7.18c-.15.19-.306.367-.463.55l-.177.198h7.82v-.748zm-9.445 1.734h9.697c.136 0 .245.108.245.245v1.244a.244.244 0 01-.245.245h-11.41a.244.244 0 01-.245-.245c0-.095.054-.177.13-.218.291-.183.57-.374.85-.57a24.1 24.1 0 00.822-.64.227.227 0 01.156-.061zm9.445.49h-9.356a15.13 15.13 0 01-.776.604l-.21.15h10.342v-.755zm-12.668 1.733h12.92c.136 0 .245.109.245.245v1.244a.244.244 0 01-.245.245H94.4a.24.24 0 01-.205-.109l-.965-1.23a.24.24 0 01.04-.34.232.232 0 01.157-.055zm12.668.49H93.93l.585.755h11.58v-.755zM95.168 67.06h11.179c.136 0 .245.109.245.245v1.244a.244.244 0 01-.245.245H96.14a.238.238 0 01-.197-.102l-.965-1.238a.234.234 0 01.04-.34.205.205 0 01.15-.054zm10.927.49H95.671l.592.754h9.832v-.755zm-9.18 1.733h9.432c.136 0 .245.11.245.245v1.245a.244.244 0 01-.245.244h-8.46a.228.228 0 01-.196-.108l-.973-1.231a.246.246 0 01.041-.34.272.272 0 01.156-.055zm9.18.49h-8.676l.585.755h8.091v-.755zm6.93 13.39h5.956a.25.25 0 01.252.244v1.251a.25.25 0 01-.252.245h-5.956a.25.25 0 01-.252-.245v-1.251a.25.25 0 01.252-.245zm5.712.495h-5.468v.748h5.468v-.748zm-5.712-2.7h5.956a.25.25 0 01.252.246v1.244a.25.25 0 01-.252.245h-5.956a.25.25 0 01-.252-.245v-1.244a.25.25 0 01.252-.245zm5.712.49h-5.468v.755h5.468v-.754zm-5.712-2.7h5.956a.25.25 0 01.252.246v1.244a.25.25 0 01-.252.245h-5.956a.25.25 0 01-.252-.245v-1.244a.25.25 0 01.252-.245zm5.712.49h-5.468v.755h5.468v-.754zm-5.712-2.7h5.956a.25.25 0 01.252.246v1.244a.25.25 0 01-.252.245h-5.956a.25.25 0 01-.252-.245v-1.244a.25.25 0 01.252-.245zm5.712.49h-5.468v.755h5.468v-.755zm-5.712-2.753h5.956a.25.25 0 01.252.244v1.245a.25.25 0 01-.252.245h-5.956a.25.25 0 01-.252-.245V74.52a.25.25 0 01.252-.244zm5.712.49h-5.468v.754h5.468v-.755zm2.339 8.397h5.963c.136 0 .245.109.245.245v1.251a.244.244 0 01-.245.245h-5.963a.244.244 0 01-.245-.245v-1.251c0-.136.109-.245.245-.245zm5.718.496h-5.474v.748h5.474v-.748zm-5.718-2.7h5.963c.136 0 .245.11.245.246v1.244a.244.244 0 01-.245.245h-5.963a.244.244 0 01-.245-.245v-1.244c0-.136.109-.245.245-.245zm5.718.49h-5.474v.755h5.474v-.754zm-5.718-2.7h5.963c.136 0 .245.11.245.246v1.244a.244.244 0 01-.245.245h-5.963a.244.244 0 01-.245-.245v-1.244c0-.136.109-.245.245-.245zm5.718.49h-5.474v.755h5.474v-.754zm-5.718-2.7h5.963c.136 0 .245.11.245.246v1.244a.244.244 0 01-.245.245h-5.963a.244.244 0 01-.245-.245v-1.244c0-.136.109-.245.245-.245zm5.718.49h-5.474v.755h5.474v-.755zm-5.718-2.753h5.963c.136 0 .245.108.245.244v1.245a.244.244 0 01-.245.245h-5.963a.244.244 0 01-.245-.245V74.52c0-.136.109-.244.245-.244zm5.718.49h-5.474v.754h5.474v-.755zm2.217 8.397h5.964c.136 0 .245.109.245.245v1.251a.244.244 0 01-.245.245h-5.964a.244.244 0 01-.245-.245v-1.251c0-.136.109-.245.245-.245zm5.719.496h-5.474v.748h5.474v-.748zm-5.719-2.7h5.964c.136 0 .245.11.245.246v1.244a.244.244 0 01-.245.245h-5.964a.244.244 0 01-.245-.245v-1.244c0-.136.109-.245.245-.245zm5.719.49h-5.474v.755h5.474v-.754zm-5.719-2.7h5.964c.136 0 .245.11.245.246v1.244a.244.244 0 01-.245.245h-5.964a.244.244 0 01-.245-.245v-1.244c0-.136.109-.245.245-.245zm5.719.49h-5.474v.755h5.474v-.754zm-5.719-2.7h5.964c.136 0 .245.11.245.246v1.244a.244.244 0 01-.245.245h-5.964a.244.244 0 01-.245-.245v-1.244c0-.136.109-.245.245-.245zm5.719.49h-5.474v.755h5.474v-.755zm-5.719-2.753h5.964c.136 0 .245.108.245.244v1.245a.244.244 0 01-.245.245h-5.964a.244.244 0 01-.245-.245V74.52c0-.136.109-.244.245-.244zm5.719.49h-5.474v.754h5.474v-.755zm-5.719-16.606h5.964c.136 0 .245.109.245.245v1.25a.244.244 0 01-.245.245h-5.964a.244.244 0 01-.245-.244v-1.252c0-.136.109-.244.245-.244zm5.719.496h-5.474v.755h5.474v-.755zm-5.719-2.7h5.964c.136 0 .245.11.245.245v1.245a.244.244 0 01-.245.245h-5.964a.244.244 0 01-.245-.245V56.2c0-.136.109-.245.245-.245zm5.719.49h-5.474v.755h5.474v-.755zm-13.654 8.337h5.963a.25.25 0 01.245.251v1.245a.244.244 0 01-.245.245h-5.963a.244.244 0 01-.245-.245v-1.245a.25.25 0 01.245-.251zm5.718.496h-5.474v.755h5.474v-.755zm-5.718-2.7h5.963c.136 0 .245.11.245.245v1.245a.244.244 0 01-.245.245h-5.963a.244.244 0 01-.245-.245v-1.245c0-.136.109-.244.245-.244zm5.718.49h-5.474v.755h5.474v-.755zm-5.718-2.7h5.963c.136 0 .245.11.245.245v1.245a.25.25 0 01-.245.252h-5.963a.25.25 0 01-.245-.252v-1.245c0-.136.109-.244.245-.244zm5.718.49h-5.474v.755h5.474v-.755zm-5.718-2.7h5.963c.136 0 .245.11.245.245v1.252a.244.244 0 01-.245.245h-5.963a.244.244 0 01-.245-.245v-1.252c0-.136.109-.244.245-.244zm5.718.497h-5.474v.755h5.474v-.755zm-5.718-2.7h5.963c.136 0 .245.11.245.245v1.245a.244.244 0 01-.245.245h-5.963a.244.244 0 01-.245-.245V56.2c0-.136.109-.245.245-.245zm5.718.49h-5.474v.755h5.474v-.755zm-13.769 8.337h5.956c.136 0 .252.115.252.251v1.245a.25.25 0 01-.252.245h-5.956a.25.25 0 01-.252-.245v-1.245c0-.136.116-.251.252-.251zm5.712.496h-5.468v.755h5.468v-.755zm-5.712-2.7h5.956a.25.25 0 01.252.245v1.245a.25.25 0 01-.252.245h-5.956a.25.25 0 01-.252-.245v-1.245a.25.25 0 01.252-.244zm5.712.49h-5.468v.755h5.468v-.755zm-5.712-2.7h5.956a.25.25 0 01.252.245v1.245a.256.256 0 01-.252.252h-5.956a.256.256 0 01-.252-.252v-1.245a.25.25 0 01.252-.244zm5.712.49h-5.468v.755h5.468v-.755zm-5.712-2.7h5.956a.25.25 0 01.252.245v1.252a.25.25 0 01-.252.245h-5.956a.25.25 0 01-.252-.245v-1.252a.25.25 0 01.252-.244zm5.712.497h-5.468v.755h5.468v-.755zm-5.712-2.7h5.956a.25.25 0 01.252.245v1.245a.25.25 0 01-.252.245h-5.956a.25.25 0 01-.252-.245V56.2a.25.25 0 01.252-.245zm5.712.49h-5.468v.755h5.468v-.755zm4.61 73.936c.013 0 .034-.007.047-.007h.007l.816-.075h.034l1.449-.136 5.29-.496h.014l.408-.041c.013-.007.034-.007.047-.007h.007l4.889-.455c.014-.007.034-.007.055-.007h.006l.17-.014c.014-.006.028-.006.034-.006l7.786-.728h.014c.02-.007.034-.007.054-.007l28.778-2.699-.49-5.114a5.472 5.472 0 01-.088-.945l-.531-5.488-77.54 6.827a.238.238 0 01-.122.007L79.4 122.324a.238.238 0 01-.123.007l-36.746 3.237.938 12.301 47.974-4.495c.013 0 .02-.007.034-.007l7.316-.68c.014-.007.028-.007.041-.007l22.528-2.114h.055l1.931-.184zm.292.462v6.168a4.802 4.802 0 002.829.918h4.746v-7.793l-.054.007c-.265.462-.619.87-1.027 1.197a4.527 4.527 0 01-2.244.945 4.155 4.155 0 01-2.448-.442 4.316 4.316 0 01-1.285-1.047l-.517.047zm-.489 5.753v-5.705l-1.49.143v2.087c0 1.326.538 2.53 1.408 3.4l.082.075zm8.561-6.507v7.84h4.447v-8.255l-4.447.415zm-1.884.87a3.61 3.61 0 00.714-.762l-5.773.544c.279.279.585.504.904.674.68.353 1.435.469 2.163.38a3.99 3.99 0 001.992-.836zm19.849-.911v7.881h7.569v-7.881a4.284 4.284 0 01-3.788 2.271 4.282 4.282 0 01-3.781-2.271zm-.496 7.881v-9.479l-4.461.421v9.058h4.461zm8.554-9.608v9.608h4.094v-9.608h-4.094zm-1.781-.504c.448.007.904.007 1.407.007h80.92a16.125 16.125 0 002.971-6.929h-11.852c-.177.252-.367.49-.585.707h-.007a4.878 4.878 0 01-3.461 1.435 4.911 4.911 0 01-3.468-1.435l-.007-.007a5.18 5.18 0 01-.578-.7h-32.707v2.081a.26.26 0 01-.123.211l-3.223 1.856a.312.312 0 01-.109.041l-11.58 1.088h-.014l-17.584 1.645zm.183 2.911a3.715 3.715 0 001.102-2.407h-5.909c-.572.013-1.122.047-1.639.088a3.704 3.704 0 001.129 2.353 3.775 3.775 0 002.638 1.061 3.777 3.777 0 002.679-1.095zm-19.482-.667v7.868h7.569v-7.881a4.067 4.067 0 01-1.265 1.428 4.542 4.542 0 01-2.142.802 4.255 4.255 0 01-2.264-.36 3.976 3.976 0 01-1.898-1.857zm6.025 1.014a3.628 3.628 0 001.449-2.149l-7.154.673c.401.918 1.04 1.53 1.782 1.877a3.851 3.851 0 002.006.313 4.125 4.125 0 001.917-.714zm19.638-1.027v7.881h7.576v-7.881a4.4 4.4 0 01-.762 1.027 4.296 4.296 0 01-3.026 1.244 4.284 4.284 0 01-3.788-2.271zm8.065-1.727v9.608h4.726v-9.608h-4.726zm-1.598 2.407a3.715 3.715 0 001.102-2.407h-7.562a3.715 3.715 0 001.102 2.407 3.789 3.789 0 002.679 1.095 3.789 3.789 0 002.679-1.095zm32.483-.68v7.881h4.747a4.76 4.76 0 002.829-.925v-6.956a4.239 4.239 0 01-.769 1.027 4.28 4.28 0 01-3.019 1.244 4.284 4.284 0 01-3.788-2.271zm-.496 7.881v-9.608h-4.087v9.608h4.087zm-12.151-7.881v7.881h7.575v-7.881a4.284 4.284 0 01-3.788 2.271 4.296 4.296 0 01-3.026-1.244 4.396 4.396 0 01-.761-1.027zm-.49 7.881v-9.608h-4.468v9.608h4.468zm21.202-9.608v8.275l.075-.075a4.802 4.802 0 001.414-3.4v-4.8h-1.489zm-1.598 2.407a3.742 3.742 0 001.095-2.407h-7.555a3.715 3.715 0 001.102 2.407 3.777 3.777 0 002.679 1.095c1.04 0 1.992-.415 2.679-1.095zm-12.648 0a3.715 3.715 0 001.102-2.407h-7.562c.062.938.47 1.781 1.102 2.407a3.789 3.789 0 002.679 1.095 3.787 3.787 0 002.679-1.095zm-19.488-.68v7.881h7.575v-7.881a4.284 4.284 0 01-3.788 2.271 4.296 4.296 0 01-3.026-1.244 4.396 4.396 0 01-.761-1.027zm6.466.68a3.715 3.715 0 001.102-2.407h-7.555a3.742 3.742 0 001.095 2.407 3.789 3.789 0 002.679 1.095 3.787 3.787 0 002.679-1.095zm-40.84-33.381h52.652l33.286 4.168a16.628 16.628 0 019.914 4.787 16.652 16.652 0 014.903 11.832c0 .857-.068 1.707-.191 2.53 0 .013-.006.027-.006.041a16.658 16.658 0 01-3.176 7.5c-.007.007-.014.02-.02.027-.463.612-.966 1.19-1.51 1.727a16.648 16.648 0 01-11.825 4.903h-.027l-14.212.007a5.348 5.348 0 01-1.258 1.999 5.285 5.285 0 01-3.74 1.557h-79.546a5.289 5.289 0 01-3.747-1.557 5.348 5.348 0 01-1.258-1.999l-15.116-.007c-1.197 0-2.727-.211-4.141-.53-1.374-.306-2.645-.721-3.427-1.156l-7.08.666-.183 1.442 1.38 1.101 1.157-.415a.26.26 0 01.224.021l1.904 1.224a.257.257 0 01.109.183l.13 1.231 1.59.762 1.034-.667a.26.26 0 01.224-.027l2.129.728a.25.25 0 01.149.149l.442 1.156 1.734.327.837-.911a.255.255 0 01.21-.082l2.244.258h.028v.007h.027v.007h.013v.007h.014l.014.007a.133.133 0 01.034.02c.027.02.047.048.061.075l.625 1.067 1.762.041.673-1.033a.24.24 0 01.211-.116l2.25-.007a.254.254 0 01.232.116l.646 1.054h1.761l.653-1.054a.245.245 0 01.204-.116h2.257a.237.237 0 01.225.116l.652 1.054h1.761l.646-1.054a.26.26 0 01.211-.116h2.251a.246.246 0 01.231.116l.646 1.054h1.768l.646-1.054a.25.25 0 01.211-.116h2.251a.253.253 0 01.231.116l.646 1.054h1.761l.653-1.054a.249.249 0 01.211-.116h2.251a.236.236 0 01.224.116l.653 1.054h1.761l.653-1.054a.257.257 0 01.211-.116h2.244a.247.247 0 01.231.116l.653 1.054h1.761l.646-1.054a.249.249 0 01.211-.116h2.271c.081 0 .163.041.204.116l.652 1.054h1.762l.652-1.054a.248.248 0 01.204-.116h2.258a.235.235 0 01.224.116l.653 1.054h1.761l.646-1.054a.26.26 0 01.211-.116h2.251a.253.253 0 01.231.116l.646 1.054h1.761l.653-1.054a.25.25 0 01.211-.116h2.251a.253.253 0 01.231.116l.646 1.054h1.761l.653-1.054a.246.246 0 01.204-.116h2.258a.236.236 0 01.224.116l.653 1.054h1.761l.646-1.054a.257.257 0 01.211-.116h2.25a.247.247 0 01.232.116l.646 1.054h1.768l.646-1.054a.247.247 0 01.21-.116h2.251a.237.237 0 01.225.116l.652 1.054h1.762l.652-1.054a.248.248 0 01.204-.116h2.258a.235.235 0 01.224.116l.653 1.054h1.761l.646-1.054a.26.26 0 01.211-.116h2.251a.246.246 0 01.231.116l.646 1.054h1.761l.653-1.054a.26.26 0 01.211-.116h2.251a.254.254 0 01.231.116l.646 1.054h1.761l.653-1.054a.246.246 0 01.204-.116h2.251a.24.24 0 01.231.116l.653 1.054h1.761l.646-1.054a.257.257 0 01.211-.116h2.25a.254.254 0 01.232.116l.646 1.054h1.761l.653-1.054a.247.247 0 01.21-.116h2.251a.237.237 0 01.225.116l.652 1.054h1.762l.652-1.054a.248.248 0 01.204-.116l2.272.007h.054l.007.007h.013l.007.007h.014v.006h.013l.007.007h.007v.007h.014v.007h.006l.007.007h.007v.006l.007.007h.007v.007l.013.014h.007v.006h.007v.007l.007.007v.007h.006v.007l.674 1.033 1.761-.041.625-1.067a.248.248 0 01.184-.123l2.251-.258a.267.267 0 01.21.075l.837.918 1.734-.327.442-1.149a.243.243 0 01.149-.156l2.136-.728a.232.232 0 01.21.021l1.041.673 1.591-.762.129-1.231a.24.24 0 01.116-.183l1.897-1.224a.23.23 0 01.211-.021l1.169.415 1.381-1.101-.15-1.231a.22.22 0 01.061-.19l1.51-1.646a.22.22 0 01.204-.095l1.238.075 1.02-1.435-.483-1.143a.253.253 0 01.007-.21l1.02-2.006a.238.238 0 01.17-.13l1.217-.244.605-1.66-.768-.972c-.041-.061-.062-.136-.041-.211l.51-2.196a.253.253 0 01.143-.17l1.128-.51.232-1.748-.959-.782a.243.243 0 01-.095-.183l-.062-2.19c-.006-.014-.006-.027-.006-.041v-.02c0-.068.027-.143.088-.191l.938-.809-.278-1.741-1.15-.476a.248.248 0 01-.142-.156l-.558-1.931a.263.263 0 01.027-.225l.714-1.013-.693-1.618-1.224-.184a.238.238 0 01-.177-.122l-.83-1.428-.007-.007-.006-.007-.177-.306a.252.252 0 01-.014-.21l.449-1.156-1.061-1.408-1.237.116a.257.257 0 01-.198-.075l-.761-.782-.007-.007-.632-.646a.264.264 0 01-.082-.211l.15-1.231-1.381-1.101-1.149.415a.239.239 0 01-.224-.014l-1.728-1.054a.257.257 0 01-.115-.184l-.157-1.23-1.604-.728-1.027.687a.225.225 0 01-.218.034l-1.217-.388c-.014-.007-.034-.013-.048-.02l-.659-.211a.227.227 0 01-.109-.068h-.007v-.007l-.007-.007-.006-.006v-.007l-.007-.007v-.007h-.007v-.007l-.007-.006v-.014l-.007-.007v-.007l-.435-1.156-1.734-.34-.836.912a.238.238 0 01-.218.074l-2.013-.32a.247.247 0 01-.183-.142l-.517-1.129-1.754-.217-.762.952a.242.242 0 01-.231.102l-2.026-.252a.23.23 0 01-.191-.143l-.517-1.129-1.747-.217-.769.952a.248.248 0 01-.231.109l-2.026-.259a.246.246 0 01-.191-.136l-.51-1.129-1.754-.224-.768.952a.25.25 0 01-.232.109l-2.019-.259a.254.254 0 01-.197-.136l-.51-1.128-1.755-.225-.761.959c-.055.068-.143.116-.232.102l-2.026-.252a.257.257 0 01-.19-.142l-.517-1.13-1.755-.217-.761.952c-.055.068-.143.116-.231.102l-2.027-.251a.259.259 0 01-.19-.143l-.517-1.129-1.747-.218-.769.96a.26.26 0 01-.217.094l-2.027-.122a.242.242 0 01-.197-.122l-.646-1.054h-1.768l-.639 1.04a.256.256 0 01-.218.136h-2.04a.26.26 0 01-.211-.122l-.646-1.054h-1.768l-.646 1.047a.245.245 0 01-.21.129h-2.04a.256.256 0 01-.211-.122l-.646-1.054h-1.768l-.639 1.04a.256.256 0 01-.218.136h-2.04a.258.258 0 01-.211-.122l-.646-1.054h-1.768l-.639 1.04a.255.255 0 01-.218.136h-2.039a.256.256 0 01-.211-.122l-.646-1.054h-1.768l-.639 1.04a.259.259 0 01-.225.136h-2.033a.256.256 0 01-.224-.136l-.633-1.04h-1.768l-.653 1.054a.245.245 0 01-.204.122h-2.04a.257.257 0 01-.224-.136l-.639-1.04h-1.761l-.653 1.054a.248.248 0 01-.204.122h-2.04a.268.268 0 01-.225-.136l-.639-1.04h-1.761l-.653 1.054a.245.245 0 01-.204.122h-2.04a.247.247 0 01-.217-.13l-.646-1.046h-1.761l-.653 1.054a.25.25 0 01-.211.122h-2.033a.259.259 0 01-.225-.136l-.632-1.04h-1.768l-.653 1.054a.24.24 0 01-.19.122l-1 .061h-.047l-.986.061a.24.24 0 01-.211-.095l-.769-.959-1.754.218-.517 1.129a.259.259 0 01-.19.143l-2.027.251a.24.24 0 01-.224-.102l-.768-.952-1.755.218-.51 1.129a.256.256 0 01-.197.136l-2.02.258a.244.244 0 01-.231-.102l-.768-.959-1.755.225-.51 1.128a.254.254 0 01-.197.136l-2.019.259a.25.25 0 01-.232-.109l-.768-.952-1.747.224-.517 1.13a.236.236 0 01-.191.135l-2.026.259a.263.263 0 01-.231-.11l-.762-.951-1.754.217-.517 1.13a.23.23 0 01-.19.142l-2.02.252a.248.248 0 01-.238-.102l-.762-.952-1.754.217-.51 1.129a.272.272 0 01-.19.143l-2.006.32a.23.23 0 01-.218-.075l-.843-.912-1.734.34-.435 1.163a.222.222 0 01-.157.143l-1.924.619a.227.227 0 01-.218-.034l-1.026-.687-1.605.728-.157 1.23a.257.257 0 01-.115.184l-1.727 1.054a.238.238 0 01-.225.014l-1.15-.415-1.38 1.101.15 1.231a.246.246 0 01-.082.211l-1.4 1.435a.255.255 0 01-.198.075l-1.237-.116-1.06 1.408.394 1.006c.006.014.006.02.013.027l.048.123a.252.252 0 01-.02.21l-.81 1.394c-.007.007-.007.021-.013.028l-.19.326a.264.264 0 01-.178.122l-1.23.184-.694 1.618.714 1.013c.048.068.054.15.027.225l-.557 1.931a.233.233 0 01-.143.156l-1.15.476-.278 1.741.945.809a.283.283 0 01.082.225l-.17 1.027 4.787 1.53a16.696 16.696 0 014.488-12.227 16.666 16.666 0 0110.893-5.256l33.585-4.107a.094.094 0 01.061 0h2.564zm1.979.49c.333.176.625.4.884.659.53.53.897 1.204 1.081 1.924.19.714.19 1.483-.014 2.204-.265.911-.856 1.747-1.829 2.325v.966h1.115c.136 0 .245.109.245.245v2.019h43.411v-2.019c0-.136.109-.245.245-.245h1.108v-.966c-.972-.578-1.564-1.414-1.822-2.325a4.258 4.258 0 01-.021-2.204 4.18 4.18 0 011.082-1.924c.258-.258.55-.483.884-.66h-46.369zm-4.087 7.112c-.972-.578-1.564-1.414-1.822-2.325a4.258 4.258 0 01-.021-2.204 4.187 4.187 0 011.081-1.924c.259-.258.551-.483.884-.66h-.591l-30.219 3.7a16.598 16.598 0 016.405 2.189 16.801 16.801 0 016.079 6.195l7.358-1.727a.195.195 0 01.068-.014h9.425v-2.019c0-.136.109-.245.245-.245h1.108v-.966zm4.624-6.106c-.612-.612-1.462-1.007-2.516-1.007s-1.911.395-2.523 1.007a3.8 3.8 0 00-.938 3.645c.211.714.646 1.38 1.353 1.876v-2.958l.007-.04v-.048l.007-.041.006-.041v-.006l.007-.041.007-.041.007-.041.007-.041c.142-.727.625-1.21 1.21-1.441a2.301 2.301 0 011.7 0 1.939 1.939 0 011.224 1.523l.007.041.007.041v.047l.006.041v.048l.007.04v2.958a3.426 3.426 0 001.353-1.876c.184-.64.184-1.313.021-1.952a3.706 3.706 0 00-.959-1.693zm-.904 7.072v-4.508l-.007-.034v-.034l-.007-.034-.007-.034v-.027l-.007-.034-.006-.034-.007-.027-.007-.034-.007-.027-.007-.034-.006-.027-.014-.028v-.006l-.007-.028-.013-.027-.007-.027-.014-.027-.013-.027a1.462 1.462 0 00-.81-.776 1.819 1.819 0 00-.666-.122c-.231 0-.462.04-.673.122l-.014.007a1.45 1.45 0 00-.884 1.027v.007l-.007.027-.006.027v.034h-.007v.034l-.007.027v.007l-.007.027v.034l-.007.034v.068l-.006.034v4.441h3.23zm1.353 10.206v-9.716h-5.937v10.241l5.937-.524zm-6.426.572v-8.018h-9.398l-15.395 3.618c.231.367.361.802.361 1.265v5.283l24.432-2.148zm6.922-8.018v7.406l27.655-2.435h.041l10.615-.027a.233.233 0 01.19.075l4.91 4.903v-9.922h-43.411zm48.851-10.839c.333.177.626.402.884.66.53.53.898 1.204 1.081 1.924a4.174 4.174 0 01-.02 2.204c-.259.911-.85 1.747-1.823 2.325v.966h1.109c.136 0 .245.109.245.245v2.019h9.125l7.14.755a16.773 16.773 0 015.984-5.501 16.589 16.589 0 016.004-1.911l-29.45-3.686h-.279zm.537 1.007c-.612-.612-1.462-1.007-2.523-1.007-1.047 0-1.904.395-2.516 1.007a3.64 3.64 0 00-.952 1.693 3.726 3.726 0 00.014 1.952c.204.714.646 1.38 1.353 1.876v-2.958l.007-.04v-.048l.007-.041.007-.047v-.041l.006-.041.007-.041.014-.041a1.922 1.922 0 011.203-1.441 2.305 2.305 0 011.707 0 1.939 1.939 0 011.224 1.523l.007.041.007.041v.047l.007.041v.048l.006.04v2.965a3.438 3.438 0 001.354-1.883c.183-.64.183-1.313.02-1.952a3.77 3.77 0 00-.959-1.693zm-.904 7.072v-4.475l-.007-.034v-.034l-.007-.034v-.034l-.007-.034-.006-.027v-.034l-.007-.034-.007-.027-.007-.034a1.461 1.461 0 00-.897-1.034 1.862 1.862 0 00-.674-.122c-.231 0-.455.04-.666.122-.422.17-.775.517-.898 1.034l-.006.034-.007.027-.007.034v.034l-.007.027-.007.034v.034l-.006.034v.034l-.007.034v4.475h3.23zm1.353 14.484v-13.995h-5.936V120.4h5.936zm.49-11.724V120.4h20.406a10.147 10.147 0 011.897-8.528 10.106 10.106 0 018.031-3.923 10.11 10.11 0 018.085 3.998 10.206 10.206 0 012.108 6.181c0 .748-.081 1.51-.258 2.272h6.052c.102-.742.156-1.496.156-2.265 0-4.488-1.822-8.547-4.76-11.485a16.225 16.225 0 00-9.343-4.617h-.027l-.327-.041a17.104 17.104 0 00-1.781-.095c-2.815 0-5.454.714-7.759 1.965a16.315 16.315 0 00-5.875 5.447c-.014.013-.02.027-.027.041h-.007v.006h-.007a.227.227 0 01-.245.075l-7.201-.755h-9.118zm-110.636 8.582l.13-.823-.905-.782-2.536-1.061-1.013 2.537.754.245.334-.898a.24.24 0 01.299-.15l2.937.932zm-.843-2.162l.279-1.707a.226.226 0 01.15-.184l1.156-.483.503-1.713-.721-1.02a.254.254 0 01-.027-.252l.802-1.87a.24.24 0 01.19-.149l.381-.055h-4.862l-1.713 4.379 1.85.776a.24.24 0 01.129.312l-.402 1.007 2.285.959zm3.788-7.922l.612-1.047H62.317a1.8 1.8 0 01-1.788-1.796V85.156l-2.815 3.155v17.442c0 .387.156.741.415.999.115.116.244.211.394.279l.272.095.034.014c.095.02.197.034.306.034h28.186zm.55-1.544l-.32-.802a.243.243 0 01.028-.245l1.23-1.632a.253.253 0 01.219-.095l1.257.115 1.245-1.278-.15-1.251a.231.231 0 01.089-.218l1.598-1.271a.233.233 0 01.23-.034l1.19.421 1.524-.931.157-1.238a.25.25 0 01.142-.204l1.857-.843a.25.25 0 01.238.02l1.04.7 1.707-.543.435-1.156a.241.241 0 01.19-.177l2-.395a.249.249 0 01.224.075l.843.918 1.755-.279.51-1.115a.235.235 0 01.197-.163l2.026-.252a.231.231 0 01.218.089l.782.965 1.747-.217.51-1.109a.236.236 0 01.198-.163l2.026-.251a.231.231 0 01.218.088l.775.966 1.754-.218.503-1.108a.266.266 0 01.204-.164l2.027-.251a.252.252 0 01.217.088l.775.973 1.755-.225.503-1.108a.256.256 0 01.204-.163l2.02-.252c.081-.007.17.02.224.095l.775.966 1.748-.225.51-1.108a.23.23 0 01.204-.156l2.019-.259a.235.235 0 01.218.095l.782.966 1.748-.224.51-1.109a.228.228 0 01.197-.156l2.026-.259a.253.253 0 01.218.096l.782.972.653-.04V70.562c0-.136.115-.245.244-.245h4.964v-23.18h-40.391c-9.425 10.526-18.863 21.046-28.234 31.62a2.035 2.035 0 01-1.373.652 2.044 2.044 0 01-1.462-.51c-.755-.686-1.517-1.36-2.278-2.04l-2.074 2.32-.007.013h-.007v.007l-.007.007-.007.006-.013.007-.007.007-.014.007-.006.007h-.014l-.007.006-.013.007h-.021v.007a.27.27 0 01-.224-.055c-.007-.006-.014-.02-.02-.027l-.85-.788-5.542 6.208v19.733a1.3 1.3 0 001.298 1.299h25.554zm51.007-14.307l.632-.04.64-1.048a.244.244 0 01.224-.136h2.04c.075 0 .156.04.204.116l.653 1.054h1.761l.639-1.034a.253.253 0 01.225-.136h2.033a.24.24 0 01.21.116l.653 1.054h1.761l.64-1.034a.251.251 0 01.224-.136h2.033a.24.24 0 01.211.116l.653 1.054h1.761l.646-1.04a.249.249 0 01.218-.13h2.04a.24.24 0 01.204.116l.652 1.054h1.768l.633-1.034a.252.252 0 01.224-.136h2.04c.082 0 .157.04.204.116l.653 1.054h1.768l.646-1.054a.25.25 0 01.211-.116h2.033c.102 0 .184.054.224.136l.64 1.034h1.767l.646-1.054a.252.252 0 01.211-.116h2.033c.102 0 .184.054.225.136l.639 1.034h1.768l.646-1.054a.25.25 0 01.211-.116h2.04a.24.24 0 01.217.136l.64 1.034h1.761l.653-1.054a.25.25 0 01.21-.116h2.04c.096 0 .177.054.218.136l.639 1.034h1.768l.646-1.054a.25.25 0 01.211-.116h2.04c.095 0 .177.054.218.136l.646 1.047 1.774.109.782-.972a.243.243 0 01.225-.089l2.019.252c.096.007.17.075.204.156l.503 1.109 1.755.224.775-.966a.235.235 0 01.218-.095l2.026.259c.095.006.17.074.197.156l.51 1.108 1.755.225.775-.966a.235.235 0 01.217-.095l2.027.252c.088.013.17.081.197.163l.503 1.108 1.755.225.775-.973a.258.258 0 01.224-.088l2.02.251c.095.014.17.082.204.164l.503 1.108 1.754.218.776-.966a.24.24 0 01.224-.088l2.02.251c.095.014.17.082.204.163l.503 1.109 1.754.217.775-.965a.231.231 0 01.218-.089l2.026.252c.095.014.17.075.197.163l.51 1.115 1.755.28.843-.919a.269.269 0 01.231-.075l1.999.395c.089.02.164.088.191.177l.428 1.156.252.081V82.45h-92.697v8.874zm93.186 5.216l.966.306 1.04-.7a.25.25 0 01.238-.021l1.857.843c.088.04.136.116.143.204l.156 1.238 1.53.931 1.183-.421a.232.232 0 01.231.034l1.598 1.271a.233.233 0 01.089.218l-.15 1.251.279.286 3.42-10.54V78.206h-5.406l-7.174 4.141V96.54zm9.548 5.841l.584.591 1.252-.115a.252.252 0 01.217.095l1.231 1.632a.244.244 0 01.027.245l-.455 1.163.04.068 50.361-6.896c.19-1.292.381-2.563.544-3.821l-25.269-5.63c-.381.815-1.265.754-2.033.605-.109-.02-.245-.055-.36-.082l-.041-.007-.551 2.768a.25.25 0 01-.286.197l-4.277-.857a.238.238 0 01-.197-.285l.381-1.918-17.646-3.957v5.303a.25.25 0 01-.02.096l-3.502 10.805zm3.162 4.141l.591 1.013 1.245.184a.24.24 0 01.19.149l.809 1.87a.254.254 0 01-.034.252l-.721 1.02.504 1.713 1.162.483a.253.253 0 01.15.184l.32 2.013a.249.249 0 01-.082.224l-.462.408 45.042-6.229 8.221-5.44a2.664 2.664 0 001.061-1.686 3.325 3.325 0 00-.156-1.707 3.338 3.338 0 00-.973-1.4 2.573 2.573 0 00-1.829-.592l-55.038 7.541zm-132.144 5.345l7.786-1.83a16.4 16.4 0 00-5.827-5.888 16.17 16.17 0 00-8.242-2.251c-.381 0-.755.014-1.122.034l-.136.014h-.048a16.165 16.165 0 00-10.56 5.1 16.2 16.2 0 00-4.372 11.09c0 .327.007.646.027.959l4.386 1.401 4.835-.422v-6.514c0-.66.272-1.265.707-1.707l.013-.007a2.388 2.388 0 011.694-.7h9.146a2.4 2.4 0 011.706.714l.007.007zm.211 7.017v-5.324c0-.476-.177-.918-.469-1.251l-.014-.014a.787.787 0 00-.075-.082l-.006-.006a1.907 1.907 0 00-1.36-.565h-9.146c-.524 0-1 .211-1.347.551l-.013.014a1.915 1.915 0 00-.565 1.353v6.467l12.995-1.143zm98.47 9.439v4.8c0 .436-.054.857-.15 1.258l14.063-.006h.027a16.19 16.19 0 0011.478-4.76c.415-.408.803-.844 1.17-1.292h-26.588zm-89.991 6.058a5.094 5.094 0 01-.156-1.258v-2.046l-21.427 2.012c.708.286 1.619.551 2.578.769 1.38.313 2.869.517 4.032.517l14.973.006zm104.026-21.148c1.353 0 2.577.551 3.468 1.435v.007a4.853 4.853 0 011.435 3.461c0 .816-.204 1.591-.558 2.265h5.08c.19-.755.279-1.517.279-2.272a9.732 9.732 0 00-2.006-5.882 9.61 9.61 0 00-5.196-3.481 9.692 9.692 0 00-2.502-.326c-.836 0-1.645.102-2.414.299a9.676 9.676 0 00-5.236 3.434 9.723 9.723 0 00-2.04 5.956c0 .748.082 1.51.265 2.272h5.08a4.8 4.8 0 01-.558-2.265c0-1.353.544-2.577 1.435-3.468l.007-.007a4.876 4.876 0 013.461-1.428zm3.121 1.782a4.42 4.42 0 00-6.242 0 4.41 4.41 0 00-1.292 3.121c0 .871.252 1.68.687 2.367.007.006.013.02.02.034a4.41 4.41 0 003.706 2.012 4.42 4.42 0 003.121-1.292c.218-.224.415-.469.585-.727l.007-.021h.007a4.41 4.41 0 00-.599-5.494zm-40.371 5.848a.232.232 0 01-.129-.211c0-.095.047-.177.129-.217v-1.143l-5.182-5.181-2.026.006c.7.3 1.333.728 1.863 1.258a5.885 5.885 0 011.727 4.176 5.882 5.882 0 01-1.727 4.175 5.892 5.892 0 01-1.89 1.271l4.168-.394 3.067-1.768v-1.972zm-146.39-19.026a.195.195 0 01-.074.129l-.789 1.408 1.836.605 1.04-2.985a.24.24 0 01.313-.15l1.524.53.163-.469c.04-.122.183-.19.313-.149l1.754.612c.13.04.197.183.15.312l-.517 1.496 10.036 3.489a1.89 1.89 0 01-.23-.911v-2.618l-2.401-1.007c-.014-.007-.027-.013-.034-.02l-6.977-2.931c-.007 0-.02-.007-.034-.014l-3.142-1.319-.04-.02-.504-.211-2.386 4.223zm-.673.197H39.34l-.55.959 1.563.251.68-1.21zm-5.535 6.46h-.034a2.176 2.176 0 00-.306-.02c-.897 0-2.23.89-3.223 1.557-.537.36-.979.659-1.258.741a.196.196 0 01-.088.02h-3.02v8.684h2.047l7.16-7.018a2.288 2.288 0 00.701-1.645 2.35 2.35 0 00-.177-.898 2.28 2.28 0 00-1.802-1.421zm-.108-.503l.87-1.442-1.74-1.115-1.36 3.128a.239.239 0 01-.307.129l-4.726-1.673-.007-.006-.55-.191v3.475h2.985c.21-.068.619-.34 1.108-.673 1.047-.701 2.455-1.639 3.495-1.639.075 0 .157 0 .231.007zm1.278-1.17l-.762 1.258c.49.129.912.388 1.238.728a2.817 2.817 0 01.775 1.496l2.08-1.755-1.305-.435-.027-.007-.007-.006h-.006v-.007c-.014 0-.02-.007-.028-.014l-1.958-1.258zm3.876 1.904l-2.577 2.183a2.735 2.735 0 01-.85 1.897l-7.229 7.092a.234.234 0 01-.17.068H27.57v2.591c1.108 1.081 2.53 1.843 4.039 2.353 1.91.653 3.957.904 5.725.904h2.347l-.11-1.489a.238.238 0 01.225-.258l2.34-.191a.245.245 0 01.264.225l.089.979 36.658-3.23.449-1.204-2.394-.788-.217.666a.247.247 0 01-.306.156l-17.503-5.793c-.32.775-.823 1.353-1.435 1.686-.673.374-1.476.449-2.298.163l-11.37-3.95-.523 1.496a.242.242 0 01-.313.149l-1.762-.605a.257.257 0 01-.15-.313l.164-.462-1.523-.531a.241.241 0 01-.15-.312l1.163-3.339-.435-.143zm-5.406.66c.666 0 1.088.36 1.278.836.075.177.11.367.11.558 0 .197-.035.387-.11.564-.19.469-.612.836-1.278.836s-1.088-.367-1.278-.836a1.438 1.438 0 01-.11-.564c0-.191.035-.381.11-.558.19-.476.612-.836 1.278-.836zm.823 1.013c-.116-.293-.395-.524-.823-.524-.428 0-.707.231-.823.524a1.044 1.044 0 00-.068.381c0 .136.02.265.068.38.116.3.395.531.823.531.428 0 .707-.231.823-.531a.994.994 0 000-.761zM17.785 87.243l3.495 10.84a.304.304 0 01.006.074v32.864h5.794V89.82a2.57 2.57 0 00-.755-1.815 2.576 2.576 0 00-1.822-.762h-6.718zm3.012 43.778v-32.83l-3.523-10.948h-3.026l-6.092 43.778h12.641zm-8.874.49l-6.739 9.248 14.049-5.828a.188.188 0 01.109-.027h6.711l1.027-.816v-2.577H11.923zm-7.215 9.071l6.61-9.071H5.959l-4.957 6.378c-.66.843-.619 1.748-.21 2.448.17.292.407.551.686.755.272.204.585.36.918.435.293.075.599.082.905.027a.14.14 0 01.068-.041l.714-.299c.224-.156.435-.367.625-.632zm22.862-9.309v2.686h9.52v-7.657c-1.755-.02-3.76-.292-5.638-.925-1.428-.489-2.774-1.19-3.882-2.155v8.051zm10.01 2.937v1.034h2.82l-.68-8.942h-2.14v7.908zm4.44-8.86l-.089-.972-1.856.156.115 1.496v.02l.918 12.043 1.87-.177-.959-12.546v-.02zm-16.926-37.1c.667 0 1.095.367 1.279.836.075.183.109.374.109.564 0 .19-.034.381-.11.565-.183.469-.611.836-1.278.836-.66 0-1.088-.367-1.278-.836a1.63 1.63 0 01-.109-.565c0-.19.041-.38.109-.564.19-.47.619-.837 1.278-.837zm.823 1.02c-.115-.3-.387-.53-.823-.53-.428 0-.707.23-.822.53a1.022 1.022 0 00-.068.38c0 .13.02.265.068.381.115.3.394.53.822.53.436 0 .708-.23.823-.53a1.021 1.021 0 000-.762zm1.653 2.359l2.318-1.387a1.45 1.45 0 00.565-.619c.15-.313.21-.68.21-1.02v-6.739c0-.421-.095-.768-.251-1.04a1.554 1.554 0 00-.592-.578 1.743 1.743 0 00-.816-.197c-.346 0-.707.095-1.047.292l-12.886 6.413h9.432c.843 0 1.611.346 2.162.904l.007.007c.558.55.898 1.319.898 2.155v1.809zm0 4.95v9.718l.503.183 3.651-8.425-4.154-1.476zm4.617 1.64l-3.652 8.424 4.27 1.51 1.374-3.169c.007-.007.007-.02.014-.027l1.013-2.332.007-.021 1.244-2.87-4.27-1.516zm3.393 4.766l-.864 1.992 3.938 2.537 1.489-3.808-1.775-.286h-.007l-2.781-.435zm8.867 1.578l.945-2.727-1.292-.449-.959 2.747 1.306.429zm.938-1.218l-.475 1.367 1.298.435 1.184-3.4-1.293-.448-.713 2.046zm-3.944 5.678l-1.088 3.108 1.3.455.53-1.53.557-1.604-1.299-.429zm-.081-.544h.007l.292.096 1.462.489h.014l.156.054 33.306 11.016 1.15-3.508.006-.007.15-.476-37.278-12.328-1.53 3.916 2.258.748h.007zm1.85 1.129l-.538 1.537-.802 2.291 1.299.449 1.34-3.849-.096-.034-1.203-.394zm16.51-1.945c.217.184.401.402.557.633a2.96 2.96 0 01.47 1.659l17.543 5.8c.13.048.198.184.157.313l-.157.476 1.3.428 1.114-2.781v-.007l.007-.013v-.007l.395-.993-1.823-.761-.013-.007c-.007-.007-.02-.007-.028-.014l-11.24-4.726H59.72zm-1.387-.176l-11.07-3.849-.579 1.659 13.573 4.495a2.464 2.464 0 00-1.564-2.183 1.744 1.744 0 01-.36-.122zm-.823 8.656c.503-.279.925-.762 1.197-1.408l-8.44-2.795-5.283-1.747-.74 2.128 11.369 3.951c.68.238 1.34.177 1.897-.129zm21.712-4.291l1.632-4.189H69.26l9.962 4.189zm1.414 5.984l-2.495-.823-.782 2.38 2.407.789.87-2.346zm12.628 2.774l-3.44-1.101h-.008l-5.31-1.693-.02-.007-2.972-.945-.334.897v.007l-1.496 4.032 13.58-1.19zM45.12 97.518l2.707 1.135 6.881-7.71.014-.021 2.55-2.856.02-.02 3.291-3.686a.094.094 0 01.02-.027l5.604-6.277-2.033-1.89-3.203 3.59-.007.007-.013.014-3.292 3.685c-.006.014-.013.02-.02.028l-2.543 2.849c-.007.013-.014.02-.02.027L45.12 97.518zm3.183 1.34l6.35 2.665v-9.785l-6.35 7.12zm6.84 2.876l2.081.87V88.862l-2.08 2.325v10.547zm11.56-23.882l.007.007.014.007.856.802 1.904-2.135-4.685-4.182-1.815 2.033 3.72 3.468zm-11.56 7.698l2.081-2.326V44.92c-.83-.007-2.08.048-2.08 1.374V85.55zm2.57-2.876l2.816-3.163v-28.45c0-.49.204-.939.524-1.265a1.81 1.81 0 011.264-.524h.123v-2.38c0-.136.108-.245.245-.245h18.713l3.339-3.468a.143.143 0 01.075-.054H59.135a1.413 1.413 0 00-1.421 1.421v38.128zm3.306-3.713l2.801-3.128-1.34-1.251a.247.247 0 01-.02-.347l2.128-2.387.007-.007h.007l8.215-9.214c-1.53-1.611-2.442-3.72-2.972-5.99-.524-2.251-.666-4.652-.68-6.875h-6.847c-.354 0-.68.15-.919.38a1.32 1.32 0 00-.38.918v27.9zm4.107-6.97l4.671 4.168 16.871-18.89-4.522-4.359-3.087 3.461a.053.053 0 01-.027.027l-.007.007-5.685 6.372-.007.007v.007h-.007l-8.2 9.2zm4.528-22.23c.014 2.197.157 4.563.667 6.767.51 2.176 1.374 4.195 2.822 5.732l5.385-6.032c-1.026-1.237-1.006-3.535-.992-5.793.006-.204.006-.388.006-.673h-7.888zm8.718 17.551l.15.15c.367.347.85.72 1.292.258l4.624-4.807c.442-.456.068-.932-.354-1.34a7.775 7.775 0 00-.279-.251l-.047-.048-5.386 6.038zm5.712-6.398l.048.04c.102.089.204.184.292.273.592.564 1.108 1.258.367 2.026l-4.624 4.8c-.755.783-1.462.266-1.985-.237l-.136-.136-6.834 7.656c.129.13.265.252.394.381.197.184.388.374.571.537.714.633 1.408 1.075 1.965.45L89.266 59.77l-2.238-2.155-2.944 3.298zm-6.052-11.152l-.007.673c-.013 2.135-.034 4.304.837 5.42l2.93-3.278-2.924-2.815h-.836zm11.56 9.642l5.386-6.032-2.244-2.155-5.38 6.032 2.238 2.155zm5.712-6.392l5.243-5.875h-4.169L93.06 50.85l2.244 2.162zm5.685-6.365l3.141-3.522h-4.175l-3.141 3.522h4.175zm3.583-4.012l2.625-2.944c.551-.619.041-1.265-.673-1.904a46.26 46.26 0 00-.605-.51c-.143-.116-.286-.238-.429-.354l-5.093 5.712h4.175zm2.217.49l-3.148 3.522h40.201c.136 0 .245.11.245.245v23.426h1.924V43.125h-39.222zM86.994 56.902l5.38-6.032-4.523-4.352-5.379 6.032 4.522 4.352zM92.7 50.51l11.736-13.138 3.543-3.97-4.644-4.237-12.37 13.865-.02.02-2.767 3.101L92.7 50.51zm-10.581 1.7l5.379-6.032-2.584-2.489-3.224 3.36c-.013.006-.02.02-.034.027l-2.339 2.434 2.802 2.7zm5.705-6.399l2.4-2.686H85.01a.176.176 0 01.075.048l2.74 2.638zm-8.956 3.461l2.054-2.135H62.929v2.135h15.939zm52.673 11.52h5.297c.136 0 .245.108.245.244v3.155a.25.25 0 01-.245.252h-5.297a.25.25 0 01-.245-.252v-3.155c0-.136.109-.245.245-.245zm5.052.489h-4.807v2.665h4.807v-2.665zm41.983 55.079c1.51 0 2.475.83 2.904 1.898.163.408.244.85.244 1.292 0 .442-.081.884-.244 1.292-.429 1.067-1.394 1.897-2.904 1.897s-2.482-.83-2.904-1.897a3.363 3.363 0 01-.251-1.292c0-.442.081-.884.251-1.292.422-1.068 1.394-1.898 2.904-1.898zm2.448 2.074c-.354-.884-1.17-1.577-2.448-1.577s-2.094.693-2.455 1.577a3.12 3.12 0 00-.204 1.116c0 .38.068.761.204 1.108.361.891 1.177 1.584 2.455 1.584s2.094-.693 2.448-1.584a3.06 3.06 0 00.211-1.108c0-.381-.075-.762-.211-1.116zm-3.686 6.889a5.86 5.86 0 01-2.937-1.598 5.763 5.763 0 01-.973-1.272l.313 3.21 3.597-.34zm-4.365-7.65a5.894 5.894 0 011.428-2.299 5.9 5.9 0 011.836-1.251l-3.604.014.34 3.536zm9.431-1.952a5.407 5.407 0 00-3.828-1.584 5.395 5.395 0 00-3.828 1.584 5.394 5.394 0 00-1.585 3.829v.088l.082.864a5.382 5.382 0 001.503 2.876 5.395 5.395 0 003.828 1.584 5.407 5.407 0 005.413-5.412c0-1.496-.605-2.85-1.585-3.829zM157.578 9.554h9.105a1.6 1.6 0 011.149.482c.293.293.476.7.476 1.143v51.87a1.623 1.623 0 01-1.625 1.625h-13.212l-.13-.007a1.648 1.648 0 01-1.047-.476 1.46 1.46 0 01-.455-1.047l.006-.115 4.108-51.864a1.81 1.81 0 01.51-1.149l.013-.014a1.56 1.56 0 011.102-.448zm9.105.496h-9.105a1.07 1.07 0 00-.755.306l-.007.007a1.34 1.34 0 00-.374.836l-4.107 51.87v.075a.98.98 0 00.306.7c.19.19.456.313.741.334l.089.006h13.212a1.135 1.135 0 001.136-1.135v-51.87c0-.313-.13-.592-.334-.803a1.13 1.13 0 00-.802-.326zm4.406 60.268V5.555h-18.38l-5.093 64.763h23.473zm.497-64.763v64.763h2.461V5.555h-2.461zm2.951 0v64.763h4.263v-18.51c0-.788.32-1.502.837-2.019a2.869 2.869 0 012.019-.836h2.367v-1.041a.25.25 0 01.251-.245h27.819V5.555h-37.556zm-27.173 65.253h-8.486V76.6h45.145v-5.793h-36.659zm36.659-21.366h-2.367a2.37 2.37 0 00-2.366 2.367v18.509h4.733V49.442zm.245 27.649h-45.39v4.869h67.347v-4.87h-21.957zm34.169 6.297h8.983c.347 0 .666.142.898.373l.006.007c.225.231.368.544.368.891v3.468c0 .347-.143.666-.374.898l-.007.006a1.277 1.277 0 01-.891.368h-8.983a1.27 1.27 0 01-.897-.374l-.007-.007a1.279 1.279 0 01-.367-.89v-3.469c0-.347.143-.666.374-.898l.007-.006c.224-.225.544-.367.89-.367zm8.983.49h-8.983a.768.768 0 00-.55.23.782.782 0 00-.232.551v3.468c0 .21.089.408.232.55a.768.768 0 00.55.232h8.983a.783.783 0 00.551-.231.781.781 0 00.231-.55v-3.469a.781.781 0 00-.231-.55.783.783 0 00-.551-.232zm-20.706-6.787v4.869h24.861v-4.87h-24.861zm-18.747-23.16c.68 0 1.19-.014 1.611-.021 1.088-.027 1.646-.041 1.972.197.381.279.368.748.34 1.7-.013.285-.02.619-.02 1.06a.814.814 0 01-.238.586l-.02.013a.828.828 0 01-.565.224c-.673 0-1.183.014-1.605.028-1.094.02-1.645.034-1.978-.204-.374-.28-.361-.748-.334-1.7a41 41 0 00.014-1.061c0-.224.095-.435.245-.585a.839.839 0 01.578-.238zm1.618.468c-.455.007-1.006.02-1.618.02a.355.355 0 00-.231.096.343.343 0 00-.102.238c0 .388-.007.761-.014 1.074-.027.782-.034 1.163.136 1.292.197.143.694.13 1.673.11a53.894 53.894 0 011.618-.028.333.333 0 00.225-.089l.006-.006a.33.33 0 00.102-.238c0-.388.007-.755.021-1.075.02-.782.027-1.163-.143-1.285-.19-.143-.694-.136-1.673-.109zm-3.522-4.488h18.36c.136 0 .244.11.244.245v11.356a.243.243 0 01-.244.245h-18.36a.25.25 0 01-.252-.245V50.156a.25.25 0 01.252-.245zm18.115.49h-17.87v10.866h17.87V50.401zm2.047 14.633h-21.706v11.567h21.706V65.034zm-21.706-.496h21.706V48.164h-21.706v16.374zm22.195-16.374V76.6h24.861V63.205l-11.941-15.041h-12.92zm25.35 30.042v3.577l6.195-3.577h-6.195zm11.118-11.968c.449.122.857.36 1.177.687.476.476.775 1.142.775 1.863v5.889l11.567-1.68-1.027-8.67-12.492 1.911zm1.952 8.935v2.543h1.523l.163-.673a.252.252 0 01.293-.184l17.523 3.945.129-.633a.24.24 0 01.286-.19l4.277.85a.244.244 0 01.197.285l-.448 2.265c1.434.285 1.985.455 2.026 1.326l24.915 5.555c.313-3.114.524-6.167.605-9.214a98.681 98.681 0 00-.904-16.3l-22.658 3.312c.048 1.054-.87 1.34-1.693 1.483-.129.02-.251.034-.367.054h-.034l.442 2.605a.245.245 0 01-.204.278l-4.298.735a.252.252 0 01-.285-.204l-.157-.932-21.331 3.094zm-5.957 2.543h5.467v-8.928c0-.592-.244-1.129-.632-1.516a2.143 2.143 0 00-1.523-.633h-1.68c-.136 0-.272.007-.408.027l-.061.007h-.014c-1.094.177-2.216.905-3.114 1.877-1.081 1.163-1.829 2.666-1.829 3.971v5.195h3.794zm5.957.49v5.814l1.408-5.814h-1.408zm1.958-.204c0 .014 0 .02-.006.034l-1.85 7.657 17.639 3.957 1.666-8.364-17.299-3.896-.15.612zm22.658 11.376v-.007c0-.013.007-.034.02-.047.007-.041.021-.082.027-.123.143-.727.286-1.373.402-1.917.081-.395.156-.741.224-1.081.374-1.87.184-2.013-1.448-2.34l-1.17 5.882.048.014c.102.02.217.048.346.075.612.122 1.313.177 1.551-.456zm.537-.136l25.194 5.617c.177-1.387.34-2.754.483-4.107l-24.881-5.549c-.028.3-.089.66-.177 1.095-.061.292-.136.666-.231 1.088l-.388 1.856zm-1.292-7.976l-3.801-.755-2.265 11.397 3.795.755 2.271-11.397zm-4.073-18.285l-8.765 1.278 1.026 8.67 9.201-1.333-1.462-8.615zm8.071 4.59l22.658-3.312c-.075-.483-.15-.972-.225-1.468-.204-1.007-.136-1.904.13-2.673l-23.277 3.407c.096.32.184.734.272 1.265.048.285.109.666.17 1.094.075.476.164 1.027.272 1.687zm-3.168-1.755l-.47-2.78v-.008l-.414-2.447-3.822.645.245 1.428v.02l1.7 10.01 3.821-.646-1.06-6.222zm2.244-.945c-.32-1.876-.551-1.944-2.19-1.672l1.006 5.915.048-.006c.116-.014.238-.034.354-.055.659-.109 1.407-.333 1.264-1.163-.122-.714-.224-1.366-.312-1.93l-.17-1.089zm23.201 37.176c-.007-.014-.007-.028-.007-.034l-.285-1.224-1.476.333 1.231 5.385 1.475-.34-.938-4.12zm.401-.456l2.584-1.51c.864-.462 1.727-.326 2.387.123a2.695 2.695 0 011.135 1.809c.116.788-.156 1.632-1.006 2.244-.19.136-.387.238-.591.312a2.455 2.455 0 01-.66.136l-3.135.034.354 1.564a.252.252 0 01-.184.293l-1.958.442a.242.242 0 01-.293-.184l-1.332-5.861a.247.247 0 01.183-.293l1.952-.449a.254.254 0 01.299.191l.265 1.149zm.605 2.659l3.21-.027c.177-.014.354-.055.524-.116.163-.061.326-.143.469-.252.687-.489.904-1.156.816-1.774a2.172 2.172 0 00-.313-.83 2.097 2.097 0 00-.612-.639c-.524-.354-1.204-.463-1.884-.095l-2.706 1.577.496 2.156zm16.531-39.236c.925 0 1.523.51 1.782 1.163.102.251.149.523.149.795 0 .266-.047.538-.149.79-.259.652-.85 1.162-1.782 1.162-.925 0-1.523-.51-1.782-1.163a2.11 2.11 0 01-.149-.789c0-.272.047-.544.149-.795.259-.653.857-1.163 1.782-1.163zm1.326 1.346c-.19-.482-.632-.856-1.326-.856-.694 0-1.136.374-1.326.856-.075.19-.116.402-.116.612 0 .204.041.415.116.606.19.482.632.856 1.326.856.694 0 1.136-.374 1.326-.856.082-.19.116-.402.116-.606 0-.21-.034-.421-.116-.612zm-1.326 5.583c.932 0 1.523.51 1.782 1.163.102.252.149.524.149.789 0 .272-.047.544-.149.795-.259.653-.857 1.163-1.782 1.163-.258 0-.496-.04-.7-.115l2.992 5.827 4.562 3.386V64.736c0-.442-.176-.85-.469-1.142a1.64 1.64 0 00-1.142-.47h-12.424l5.297 10.316c.028-.115.062-.224.102-.333.259-.653.857-1.163 1.782-1.163zm1.326 1.347c-.19-.483-.632-.857-1.326-.857-.694 0-1.136.374-1.326.857a1.668 1.668 0 000 1.217c.014.034.027.068.041.095l.027.054c.218.408.639.708 1.258.708.694 0 1.136-.374 1.326-.857.082-.19.116-.401.116-.612 0-.204-.034-.415-.116-.605zm-14.565 58.098c.013.014.02.028.027.041.115.157.272.313.449.463.217.197.482.374.761.523.911.483 2.047.646 2.836-.115l4.399-8.528c.578-1.122.864-1.89.85-2.624-.013-.735-.333-1.476-.965-2.578l-2.176-3.801c-.619 0-1.02.014-1.211.136-.17.109-.197.374-.109.905.98 6.106-.353 8.03-3.168 12.104-.551.795-1.156 1.672-1.816 2.679l-.027.041c-.143.142-.082.394.102.68.014.027.034.047.048.074zm-.177.558c-1.449 1.89-3.489 4.25-5.331 6.385-.701.809-1.374 1.591-1.993 2.319-.251.306-.387.557-.415.741-.006.054-.006.095.007.116.021.02.068.04.143.054.231.034.612-.041 1.149-.245h.014c2.672-.857 5.426-1.992 8.044-3.223a91.971 91.971 0 008.534-4.576c2.938-1.782 5.603-3.822 7.534-6.311 1.891-2.434 3.081-5.31 3.108-8.812l-10.302-5.461-3.754-.272.007 1.795 2.217 3.87c.666 1.169 1.006 1.978 1.027 2.815.02.829-.286 1.659-.905 2.856l-4.413 8.547a.454.454 0 01-.047.082c-.98.972-2.353.796-3.434.224a4.434 4.434 0 01-1.19-.904zm13.198-23.528l-10.519-.612v4.06l7.901.584c.034 0 .068.007.096.028l10.424 5.521h3.597v-4.025h-3.651a.258.258 0 01-.143-.048l-7.705-5.508zm-.469-45.784v-2.822h-1.333v2.822h1.333zm-9.105 27.56l.496 3.713c.123 1.183-.435 2.088-1.244 2.611a3.253 3.253 0 01-1.217.476 3.282 3.282 0 01-1.312-.054c-.925-.238-1.734-.932-2.02-2.156a2.928 2.928 0 01-.068-.802 2.78 2.78 0 01.143-.789l1.489-3.278-1.829-.136a.245.245 0 01-.225-.265l.177-2.42a.244.244 0 01.265-.225l7.249.544a.244.244 0 01.231.258l-.183 2.421a.239.239 0 01-.259.225l-1.693-.123zm-3.216-.245l-1.544 3.414a2.229 2.229 0 00-.115.64c-.014.217.006.441.054.666.238 1.026.904 1.598 1.666 1.795.36.095.741.109 1.108.047a2.896 2.896 0 001.034-.4c.666-.436 1.122-1.177 1.02-2.156l-.51-3.802-2.713-.204zm-2.067-.646l1.924.143h.007l.013.007 4.821.36.143-1.93-6.766-.504-.142 1.924zm4.589-24.575l-.353-3.753c-.123-.959-.721-1.57-1.455-1.843a2.762 2.762 0 00-1.081-.15 2.53 2.53 0 00-1.048.286c-.686.36-1.196 1.054-1.196 2.088 0 .23.027.448.088.652.054.211.143.408.252.592l2.244 2.924 2.549-.796zm-3.053.952l-2.148-2.815a3.117 3.117 0 01-.32-.72 3.026 3.026 0 01-.109-.79c0-1.244.626-2.087 1.469-2.522a3.035 3.035 0 011.244-.34c.436-.027.871.034 1.279.183.897.327 1.625 1.068 1.774 2.238l.34 3.672 1.598-.497a.24.24 0 01.306.157l.708 2.284a.243.243 0 01-.164.306l-6.84 2.129a.242.242 0 01-.306-.157l-.707-2.284a.245.245 0 01.163-.306l1.713-.538zm5.039-1.054l-1.639.51h-.007l-.006.007h-.007l-4.719 1.469.564 1.816 6.372-1.986-.558-1.816zm15.599 21.053a.244.244 0 01-.163-.061l-4.141-3.067 8.031 15.64h.394V85.679h-4.121zm-1.809 10.234a7.046 7.046 0 00-4.984-2.06 7.046 7.046 0 00-4.984 2.06 7.047 7.047 0 00-2.061 4.984c0 1.945.789 3.706 2.061 4.985a7.048 7.048 0 004.984 2.06 7.048 7.048 0 004.984-2.06 7.049 7.049 0 002.061-4.985 7.047 7.047 0 00-2.061-4.984z" fill="#fff"/></svg>