<svg width="558" height="165" fill="none" xmlns="http://www.w3.org/2000/svg"><path d="M155.841 127.716a12.04 12.04 0 018.531 3.541 12.025 12.025 0 013.53 8.53c0 3.329-1.347 6.347-3.53 8.53a12.03 12.03 0 01-8.531 3.529 12.03 12.03 0 01-8.53-3.529 12.036 12.036 0 01-3.541-8.53c0-3.33 1.358-6.347 3.541-8.53a12.04 12.04 0 018.53-3.541zm25.146 10.178h7.139l-1.415-10.367h-8.82a25.142 25.142 0 013.096 10.367zm7.941.289v.056l.089.635h3.909v-4.51h-1.983a.373.373 0 01-.367-.379v-24.52a.36.36 0 01.3-.367l19.3-5.178c.033-.011.067-.011.1-.011h36.171v-.824H171.41l14.21 11.681a.37.37 0 01.123.233l3.185 23.184zm4.744.691h50.414v-4.51h-50.414v4.51zm51.171 0h1.604v-4.51h-1.604v4.51zm1.971.757h-58.12a.448.448 0 01-.167-.045l-.023-.011-.011-.011h-.011l-.011-.011h-.011v-.011h-.011v-.011h-.011v-.011h-.012v-.012h-.011v-.011l-.011-.011-.011-.011-.011-.011v-.011h-.011v-.011l-.011-.011v-.012l-.011-.011v-.022h-.012v-.022l-.011-.011v-.045l-.011-.011 58.499.334zm-.367-42.203v-.156H129.649v5.055h116.798v-4.899zm-117.556 3.875v-6.247h-2.639l-21.348 26.469h11.337l12.65-15.779v-4.443zm.758-4.777h.712V52.908h-2.115V94.31h1.024c.212 0 .379.167.379.367v1.849zm1.47 0h8.797l-1.158-18.652v-.134l-1.024-16.558h-6.615v35.344zm9.555 0h45.815l-5.758-16.792-.545-1.57h-40.648l1.136 18.362zm46.605 0h36.171l4.945-22.471a8.739 8.739 0 00.301-1.76c.122-1.67-.323-3.129-1.303-4.298-1.003-1.192-2.584-2.116-4.733-2.695-1.136-.3-2.45-.512-3.909-.612h-.011l-30.993-2.417a2.72 2.72 0 01-.334 1.18l-.39.858c-.902 2.216-2.494 5.59-3.853 8.43l-2.305 5.066 6.414 18.719zm36.94 0h13.597v-1.849c0-.2.178-.367.379-.367h2.283V78.642h-4.655a.376.376 0 01-.379-.378v-9.532c0-.212.167-.379.379-.379h39.178c.211 0 .378.167.378.379v9.532a.375.375 0 01-.378.378H261.86V94.31h19.176c-.412-.345-.879-.835-1.514-1.492a77.075 77.075 0 00-3.096-3.096c-1.247-1.203-1.871-1.804-2.082-2.583a1.672 1.672 0 01-.067-.346c-.145-1.113-.29-1.993-.401-2.705-.267-1.66-.401-2.495-.212-3.218.19-.769 1.014-1.738 2.038-2.784.379-.39.824-.847 1.37-1.437a.584.584 0 01.111-.122c.579-.58 1.415-.78 3.096-1.192l.011-.011a54.31 54.31 0 002.116-.534 96.348 96.348 0 002.116-.59c1.659-.49 2.484-.724 3.274-.513.323.078.602.234.913.468l18.498 10.467c.668.379 1.025.991 1.192 1.67.089.368.111.758.111 1.136l9.956.29c.078 0 .167 0 .256.01l4.521.324c.435-.78 1.014-1.815 2.539-1.314a89.807 89.807 0 015.402 2.049c.612.267.924.523 1.069.857.1.223.111.446.078.69l3.92.29c.189-1.303 1.191-1.436 2.438-1.414l.479.011c.234.011.468.011.758.011.779 0 1.258.59 1.481 1.247.067.2.1.412.122.613.011.2 0 .39-.033.568-.089.4-.312.679-.691.701-.356.011-.601.011-.79-.022l-.023.044c-.033.056-.066.123-.1.168.112.1.212.2.301.3.223.29.189.613.178 1.336v.123h19.377v-4.744h-16.537c-2.673 0-3.04-2.194-3.04-4.354 0-.334.022-.724.033-1.113 0-.3.011-.59.011-.913v-14.02c0-.033.011-.067.011-.1l.134-.457-61.428-10.01h-.023l-1.77-.29h-.034l-.011-.011-8.72-1.414a.374.374 0 01-.311-.423l.323-2.506-5.725-.868c-1.113.211-2.639.189-4.755.156-.746-.012-1.581-.023-2.661-.023h-.056l-.022-.01h-.034l-.011-.012c-.022 0-.044-.011-.067-.022l-19.789-10.512-100.751-1.192v18.964h1.047v-8.507c0-1.693.691-3.263 1.726-4.432 1.081-1.214 2.562-1.993 4.043-1.993h1.503c.423-.067.869 0 1.303.256.947.545 1.158 1.57.913 2.583a4.487 4.487 0 01-.434 1.08c-.2.334-.445.657-.724.913-.546.524-1.236.846-1.926.757-.39.045-.646.2-.802.435-.212.312-.279.801-.279 1.403v7.505h45.058a1.788 1.788 0 011.548.835c.045.078.078.156.111.234l31.204 2.439c1.515.1 2.863.323 4.054.634 2.305.624 4.009 1.626 5.101 2.94 1.124 1.325 1.614 2.962 1.492 4.822a10.795 10.795 0 01-.323 1.882l-4.911 22.304zm-43.187 42.114c.022.379.022.757.022 1.147a25.123 25.123 0 01-6.537 16.948.356.356 0 01-.111.223l-1.415 1.425a.392.392 0 01-.233.1 24.695 24.695 0 01-3.263 2.506.397.397 0 01-.167.189l-1.738 1.013a.386.386 0 01-.245.045 25.132 25.132 0 01-11.504 2.761 25.14 25.14 0 01-17.84-7.382 25.13 25.13 0 01-7.383-17.828c0-1.515.133-3.007.389-4.454h-7.483l-5.145 2.973a.348.348 0 01-.212.067h-8.441v5.3c0 1.169-.345 2.127-1.08 2.784-.68.624-1.682.969-3.018.969H83.845a.446.446 0 01-.267-.112l-8.475-8.373c-.245.256-.59.423-1.036.523-.044 1.102-.345 1.982-.935 2.684-.635.768-1.593 1.325-2.907 1.77l-1.18.401c-3.831 1.303-4.177 1.425-9.054 1.436v.257c0 .245-.1.467-.256.634h-.011a.894.894 0 01-.635.268c-.3 0-.557.011-.824.022-.29.011-.59.022-.824.022-1.281 0-2.34-.223-2.34-1.526 0-.634 0-1.024-.01-1.38-.023-1.481-.034-2.25.356-2.728l.022-.034c.435-.512 1.159-.501 2.64-.49l.98.011a.84.84 0 01.623.256h.011a.89.89 0 01.268.635v.345l.635.011c1.403.012 2.238.023 3.908-.423.646-.178 1.237-.311 1.76-.434 1.704-.39 2.65-.612 2.84-1.57h-.835a.383.383 0 01-.38-.379v-2.694h-7.46c-.045 0-.09 0-.134-.023l-8.03-3.273c-.022 0-.033-.012-.055-.023l-9.51-3.875a.37.37 0 01-.257-.356v-13.051c0-.111.056-.211.134-.289a.332.332 0 01.111-.056l.178-.078v-6.537a.212.212 0 01-.122 0c-.011 0-.033-.011-.056-.011l-.01-.011-.023-.011h-.022l-.011-.011-.012-.011h-.01v-.011c-.012-.011-.034-.023-.045-.034l-.011-.011-.034-.033v-.011l-.011-.023h-.011a.632.632 0 01-.045-.133v-2.806c0-3.263.59-10.245 3.998-15.156 1.003-1.425 2.228-2.683 3.742-3.619 2.105-5.824 4.321-11.614 6.726-17.349 2.44-5.846 5.079-11.636 7.996-17.37.011-.023.011-.034.023-.045l.39-.78c.868-1.804 1.926-3.964 3.752-3.964h57.33c1.069 0 1.537.579 1.738 1.425h2.193v-7.605l-64.802-.769v1.426c0 .2-.167.378-.379.378h-.3l.01.156c0 .223.012.457.012.624 0 1.191-.212 2.338-1.648 2.338-1.448 0-1.648-1.147-1.648-2.338 0-.167.01-.401.01-.624l.012-.156h-.334a.383.383 0 01-.379-.378v-1.481l-18.464-.212-2.595 2.183a.355.355 0 01-.267.122h-2.895l.01.468c0 1.191-.2 2.561-1.904 2.561-1.715 0-1.915-1.37-1.915-2.561l.011-.468c-.2 0-.4.011-.601.011-.368.011-.747.034-1.07.034-.367 0-.734-.023-1.09-.056-.012 0-.034.011-.057.011H25.48c-.435 0-.825.011-1.215.023-.4.022-.802.033-1.124.033-1.07 0-1.95-.123-2.372-.68l-.98 3.208h9.009c.69 0 1.024.2 1.17.623h3.251c.212 0 .379.167.379.379v.133c.189-.01.356-.01.534-.022.29-.011.58-.022.802-.022 1.036 0 1.782.178 1.782 1.069 0 .89-.746 1.058-1.782 1.058-.223 0-.512-.011-.802-.023-.178 0-.345-.01-.534-.01v.133c0 .2-.167.379-.379.379h-3.53l-11.57 1.815-2.184 7.182a.377.377 0 01-.267.278l-10.245 2.74-.012.01h-.01l-2.027.535a.366.366 0 01-.457-.256L.968 54a.384.384 0 01.267-.468l2.027-.534.011-.012 2.239-.59 3.252-36.602a7.591 7.591 0 01-1.816-1.525 7.583 7.583 0 01-1.782-4.187 7.557 7.557 0 01.925-4.454 7.592 7.592 0 011.425-1.815l-.557-.958a1.482 1.482 0 01-.144-1.103c.089-.334.311-.645.623-.846l.056-.022.011-.011c.635-.368 1.704-.98 2.428.267l.557.958a7.57 7.57 0 016.782 1.236 7.54 7.54 0 012.55 3.496c.3.88.457 1.826.412 2.829l.824.456a.606.606 0 01.09.067 1.56 1.56 0 01.89-.278h8.141c.345-.034.701-.045 1.058-.045.334 0 .712.011 1.091.022.212 0 .423.011.646.011l.123-5.033a.385.385 0 01.356-.367l33.075-1.893a.359.359 0 01.323.145l4.176 5.2 59.691.712V4.86c0-.2.178-.378.378-.378h4.9c.212 0 .379.178.379.378v3.864l231.224 2.784h122.478a1.32 1.32 0 01.123-.334c.345-.668.913-.635 2.06-.568.401.022.88.045 1.481.045.111 0 .212.044.29.133l5.623 6.414h23.175l4.098-2.36a.373.373 0 01.179-.056h6.915c.067 0 .134.022.19.056l4.087 2.36h9.499l.011.011h.022c.502.078.98.134 1.415.19 2.394.3 3.719.467 3.719 2.639 0 1.28-1.035 1.793-2.183 2.36l-.423.212-.033 7.104.033 7.105.423.211c1.148.568 2.183 1.08 2.183 2.361 0 2.172-1.325 2.338-3.719 2.64-.346.044-.724.088-1.114.144v.958h9.266c.211 0 .378.178.378.378v9.944c0 .2-.167.379-.378.379h-39.323a.381.381 0 01-.368-.379V43.89h-3.474v1.459a.385.385 0 01-.156.3L501.369 56.16l4.778 5.78 1.86-1.604a.383.383 0 01.534.033l3.898 4.777c.134.156.1.401-.056.524l-.011.01-18.631 15.69a.37.37 0 01-.523-.044l-3.742-4.52a.37.37 0 01.044-.524l1.448-1.248-5.045-6.09-7.595 6.269-.456 5.356-.624 7.238c-.044.5-.312.935-.713 1.258a2.38 2.38 0 01-1.425.501h-37.652a2.025 2.025 0 01-1.47-.623l-.022-.011a4.03 4.03 0 01-.279-.346c-.345.602-.935.98-1.893.98h-3.853v4.744h67.998l-.011-.011v-.011h-.011v-.011h-.011c-.078-.067-.145-.123-.212-.19a3.317 3.317 0 01-.968-2.35v-8.885c0-.913.367-1.738.968-2.339a3.303 3.303 0 011.949-.946c.034-.023.078-.023.134-.023h44.267c.902 0 1.726.357 2.328.947l.022.022a3.29 3.29 0 01.969 2.339v8.886a3.292 3.292 0 01-1.192 2.538c-.011.023-.033.034-.044.045h-.012a3.366 3.366 0 01-1.436.68.429.429 0 01-.212.055c-.033 0-.067 0-.1-.011-.1.011-.212.011-.323.011h-13.397v2.84a.373.373 0 01-.368.378h-3.63l-4.722 4.721a.41.41 0 01-.267.112h-1.704v9.888c.2 0 .39-.011.579-.022.368-.011.746-.022 1.058-.022 1.76 0 3.341.3 3.341 2.249 0 3.519-.657 3.508-4.132 3.474-.311-.011-.634-.011-1.213-.011h-1.014v3.196h7.294a.37.37 0 01.368.367v6.013a.37.37 0 01-.368.368h-7.294v9.242h6.036v-.735c0-.2.167-.378.368-.378l.033.011h.345c1.927-.011 2.851-.011 3.386.568.49.523.478 1.392.467 3.073v.902c0 1.67-1.336 1.915-2.75 1.915-.234 0-.513-.011-.791-.022-.223 0-.434-.011-.69-.011a.373.373 0 01-.368-.379v-.735h-6.036v.925h1.181c.378 0 .601.312.679.712a1.873 1.873 0 010 .702c-.078.401-.301.713-.679.713h-27.485c-.379 0-.601-.312-.679-.713a1.795 1.795 0 010-.702c.078-.4.3-.712.679-.712h.958v-2.305h-4.9a.384.384 0 01-.379-.334l-1.514-11.537-5.479 5.479a.363.363 0 01-.268.111h-4.287a25.33 25.33 0 01.579 5.39 25.138 25.138 0 01-6.548 16.948.358.358 0 01-.112.223l-1.414 1.425a.37.37 0 01-.234.1 24.63 24.63 0 01-3.263 2.506.392.392 0 01-.167.189l-1.737 1.013c-.078.045-.167.056-.245.045a25.132 25.132 0 01-11.504 2.761 25.158 25.158 0 01-17.84-7.382 25.417 25.417 0 01-6.248-10.323h-1.18c-.012.078-.034.145-.045.223-.156.534-.501.924-1.058.924h-14.043c-.546 0-.902-.39-1.047-.924-.022-.078-.033-.145-.055-.223h-1.259a25.255 25.255 0 01-5.412 9.443.361.361 0 01-.111.223l-1.415 1.425a.37.37 0 01-.234.1 24.565 24.565 0 01-3.263 2.506.392.392 0 01-.167.189l-1.737 1.013c-.078.045-.167.056-.245.045a25.132 25.132 0 01-11.504 2.761 25.114 25.114 0 01-17.829-7.382c-4.566-4.566-7.395-10.869-7.395-17.828 0-.412.012-.813.034-1.214l-5.925-3.418-.802 6.603v.022h-.011v.056l-.011.011v.022l-.011.011v.011l-.011.012v.011h-.011v.022h-.011l-.012.022-.011.023h-.011v.011h-.011l-.011.011v.011h-.011l-.011.011c-.023.022-.045.033-.056.045h-.011l-.022.011-.023.011h-.033l-.011.011h-21.026l-2.895 2.895a.369.369 0 01-.267.112h-49.747c-.1 0-.2-.034-.267-.112l-4.844-4.844v2.829h.568c.957 0 1.069.735 1.069 1.369l-.011.379a.376.376 0 01-.379.379h-27.785a.373.373 0 01-.368-.379l-.011-.379c0-.634.112-1.369 1.069-1.369h.568v-3.352h-1.537l-65.782-.991zm-10.802-35.555h-34.957v10.89l43.732-3.686-8.775-7.204zm322.086-8.029H306.528a.368.368 0 01-.323.056.417.417 0 01-.123-.056h-43.565c.067.056.122.111.189.178.356.357.635.802.791 1.292h227.605a3.65 3.65 0 01.757-1.07 5.17 5.17 0 01.457-.4zM285.68 94.31h13.242l-5.758-2.873a2.333 2.333 0 01-.445.624c-.568.579-1.415.779-3.096 1.191h-.011c-.58.145-1.259.312-2.116.546-.724.189-1.315.356-1.816.512zm14.901 0h5.457l.957-3.53.747-3.051c.033-.423.022-.858-.078-1.258-.112-.49-.368-.936-.825-1.203l-16.047-9.075c.312.323.668.701 1.114 1.147.657.645 1.158 1.124 1.57 1.525 1.247 1.203 1.882 1.804 2.093 2.584.201.79-.033 1.614-.523 3.273a98.118 98.118 0 00-.59 2.116c-.234.869-.401 1.548-.546 2.127a31.087 31.087 0 01-.468 1.782l7.139 3.563zm6.236 0h16.348c-.245-.345-.389-.769-.501-1.147l-4.232-.3a4.129 4.129 0 01-.389-.045l-10.446-1.381-.78 2.873zm22.139 0h8.843v-.123c-.446-.033-.802-.156-1.081-.378-.3-.245-.479-.59-.534-1.07l-4.098-.3c-.023.29-.089.557-.234.802-.223.367-.613.646-1.27.78-.534.1-1.08.2-1.626.289zm-88.111.746h-2.271v1.47h8.018a3.23 3.23 0 01.79-1.292c.056-.067.123-.122.19-.178h-6.727zm249.978 2.216H263.63v5.055h204.698c.089 0 .167.034.234.089l16.637 12.06c.09.067.145.178.156.278l.591 4.499v.067l1.136 8.608v.055l1.57 11.937h4.577v-1.18h-2.138a.375.375 0 01-.379-.378V98.207c0-.323.033-.634.111-.935zm-120.005 5.813H351.14v35.766a.376.376 0 01-.379.379h-59.279a.375.375 0 01-.378-.379v-35.766h-.958v35.21a.375.375 0 01-.379.378h-14.811a.375.375 0 01-.379-.378v-35.21H263.63v35.789h9.689v.011h.045v.011h.033v.011h.022v.011h.022v.011h.012l.011.012h.011v.011h.011v.011h.011l.011.011.011.011 5.379 5.367h49.435l2.895-2.884a.361.361 0 01.267-.111h20.77l.824-6.704a.363.363 0 01.022-.322l.011-.012 1.838-15.01v-.034l.534-4.342a.413.413 0 01.156-.268l15.168-11.58zm-20.424 0h-36.138v2.327h.49c.212 0 .379.167.379.367v.513h15.791c.212 0 .379.167.379.367v8.775h19.099v-12.349zm-40.537 0H291.85v12.349h1.147v-8.775c0-.2.167-.367.379-.367h15.613v-.513c0-.2.167-.367.378-.367h.49v-2.327zm-20.457 0h-14.076v11.202H289.4v-11.202zM186.99 62.106l-.034-.167a1.18 1.18 0 00-.111-.278.945.945 0 00-.379-.345 1.043 1.043 0 00-.523-.134H138.48l.111 1.726h40.837c.334 0 .635.09.891.234.245.145.457.345.59.579.145.234.223.512.223.813 0 .29-.067.59-.245.89l-3.207 5.557c-1.292 2.239-3.319 2.227-5.234 2.227h-33.22l.256 4.198h40.715c.3-.78 1.113-2.494 2.082-4.532l.256-.534 3.92-8.619c.323-.78.513-1.359.535-1.615zM70.058 7.933l-3.675-4.577-32.54 1.86-.1 3.908a1.97 1.97 0 01.189-.245c.757-.88 1.949-1.336 3.753-1.336l32.373.39zm-36.394 4.153l-.01.434v10.067l318.522 2.995.055-.111c3.308-6.347 7.373-11.447 11.894-13.262l-228.129-2.74-4.9-.044c-.033 0-.055-.011-.089-.011L70.86 8.69h-.033l-33.142-.401c-1.57 0-2.584.367-3.185 1.08-.535.624-.78 1.537-.836 2.717zm-.01 11.247v16.202l8.663.089h.011l18.944.234.022-.011.033.01 69.034.814v-4.8c0-.211.168-.378.379-.378h3.397c.2 0 .378.167.378.378v4.844l99.426 1.18-17.529-10.11c-.122-.067-.223-.2-.223-.346 0-.211.179-.378.379-.378h19.054c.212 0 .379.167.379.378 0 3.608 4.544 6.225 10.724 8.063 2.517.757 5.29 1.37 8.152 1.881V25.415L33.653 23.333zM8.306 3.69l.022.022v.011l2.183 3.786h.011v.012l.022.033.011.022.012.011.01.023v.01l.012.023.011.022.011.011.011.023.011.01.012.023 1.113 1.927c.368.478.702.512 1.46.078a.642.642 0 00.122-.123.763.763 0 00.189-.312c.022-.178-.022-.39-.111-.623L12.26 6.674l-.01-.01v-.012l-.012-.011-.044-.09-.012-.01-.01-.011L10 2.755l-.023-.023-.701-1.213c-.345-.602-1.002-.223-1.392 0l-.023.01a.69.69 0 00-.256.936l.702 1.225zm-.401.79a6.773 6.773 0 00-1.993 5.523 6.825 6.825 0 001.603 3.776c.379.434.824.835 1.325 1.169l.49-5.59v-.033c0-.546.134-1.103.435-1.626L7.906 4.48zm4.822 1.504c.846.011 1.526.267 2.038.68l4.722 2.594a6.58 6.58 0 00-.368-2.172 6.857 6.857 0 00-2.305-3.151 6.84 6.84 0 00-3.63-1.392 6.888 6.888 0 00-2.317.223l1.86 3.218zm1.381 2.394l.022.033c.145.268.212.535.19.791.022.445-.156.835-.657 1.147-.09.067-.19.134-.29.19-.178.1-.367.189-.568.233-.635.234-1.036.1-1.437-.367a.995.995 0 01-.167-.212c-.133-.19-.256-.4-.4-.646-.134-.234-.245-.423-.368-.646l-.212-.39a2.53 2.53 0 00-.133.802v.034c0 .423.111.846.312 1.214.2.378.5.712.868.957.39.256.869.412 1.415.412 1.225 0 2.015-.668 2.35-1.514a2.8 2.8 0 00.21-1.08c0-.368-.066-.746-.21-1.08a2.305 2.305 0 00-.713-.98l-.468-.256a.612.612 0 01-.1-.078 2.604 2.604 0 00-.546-.156l.078.133c.167.256.334.513.457.735.144.245.267.49.367.724zm19.489 38.773v.546l.556.022c.257.011.513.023.78.023.601 0 1.036-.056 1.036-.312 0-.267-.435-.312-1.036-.312-.267 0-.512 0-.78.011l-.556.023zm-3.52-.512v.223c0 .156-.01.4-.022.668 0 .2-.01.423-.01.68h2.806v-1.572h-2.773zm-.79 1.626v-1.882c-.056-.245-.19-.356-.49-.356h-9.232l-1.214 3.964 10.936-1.726zM18.92 45.57c0-.022.011-.044.022-.066l1.56-5.145V10.66l-.77-.412c-.044-.023-.088-.045-.133-.078l-3.83-2.105c.144.412.222.835.222 1.27 0 .456-.09.924-.256 1.358-.446 1.114-1.47 1.982-3.051 1.982-.69 0-1.315-.2-1.827-.534a3.219 3.219 0 01-.935-.924l-.39 4.365c0 .033 0 .055-.011.089L6.236 52.719a.397.397 0 01-.279.334l-2.138.568 1.748 6.548 9.7-2.606 2.194-7.205.011-.022 1.448-4.766zm5.067-3.596a1.936 1.936 0 01-.423-1.214V11.819c0-.434.145-.846.4-1.17h-1.926a.793.793 0 00-.557.235.793.793 0 00-.234.556v29.698c0 .724.825.847 1.894.847.29 0 .568 0 .846-.011zm4.187-.045c-.378-.379-.612-.924-.612-1.715v-27.85c0-.79.234-1.336.612-1.714H25.47a1.182 1.182 0 00-.814.345l-.022.011c-.2.212-.323.501-.323.813v28.94c0 .324.134.613.345.825.212.211.49.345.802.345h2.717zm2.361-31.302c-.044.011-.089.023-.134.023h-.144c-1.092.122-1.95.523-1.95 1.714v27.85c0 1.537 1.426 1.76 2.919 1.76.39 0 .723-.012 1.046-.023l.58-.01.055-27.405V10.65l-.601-.023c-.334-.01-.668-.022-1.07-.022-.233 0-.467.011-.7.022zM4.844 60.358l-1.749-6.536-1.303.345 1.76 6.547 1.292-.356zm31.103-17.672h-2.294c-.01.123-.01.256-.01.468 0 .846.122 1.815 1.157 1.815 1.036 0 1.159-.969 1.159-1.815 0-.212-.012-.345-.012-.468zm-2.294-2.394v1.637h5.803l1.848-1.559-7.65-.078zm101.965-31.58V5.238h-4.143v3.43l4.143.044zm133.803 37.36l-3.931-.602a4.588 4.588 0 00-.033.557c0 3.83-.234 5.645-1.415 6.503l4.444.68.935-7.139zm-3.742-1.326l3.842.58.112-.858a2.09 2.09 0 01.167-.624 97.926 97.926 0 01-2.929-.211c-.445.145-.78.412-1.013.768a3.401 3.401 0 00-.179.345zm-10.056 7.728c.769 0 1.559.011 2.283.023 6.047.077 6.793.089 6.793-6.47 0-.769.167-1.47.524-2.027a3.01 3.01 0 01.379-.468 135.31 135.31 0 01-9.979-1.258v10.2zm25.748-6.77l-1.96 12.215 61.138 9.967 2.673-9.989c0-.657.033-1.37.078-2.104l-61.929-10.09zm-2.695 12.093l1.948-12.216-.991-.167-2.026 12.216 1.069.167zm-43.41-25.979h-17.295l17.562 10.133.011.011 19.333 10.256V42.141c-2.94-.513-5.791-1.147-8.363-1.916-6.292-1.882-10.958-4.587-11.248-8.407zm20.357-6.403v16.09c7.818 1.326 16.092 1.816 21.081 1.816h68.801c1.481-5.68 3.63-11.726 6.292-17.004l-96.174-.902zm21.248 32.092l2.016-12.215-7.996-1.303c-.156-.011-.267-.011-.334.045-.078.078-.145.233-.178.523l-1.526 11.636 8.018 1.314zm-.812-13.429l3.307.535h.022l.011.01 1.693.268.011.011h.034l62.219 10.133c.278-3.162.946-6.96 1.96-10.957h-69.257zm70.103-.323a.208.208 0 01-.022.078c-1.348 5.234-2.105 10.122-2.161 13.741h3.408c.067-2.639.802-6.781 2.027-11.391 1.18-4.443 2.806-9.343 4.722-13.775l.144-.312c3.241-7.483 6.125-14.141 10.357-14.141h50.047c2.205 0 3.486.233 4.265 1.057.769.813.947 2.127.947 4.31v12.605c0 .98 0 1.459-.178 1.849-.179.411-.49.623-1.092 1.046-2.383 1.503-4.877 3.408-7.216 5.033-1.682 1.17-1.704 1.17-3.586 1.17h-9.221l-.089 34.63h32.797c1.759 0 1.971 1.404 1.971 2.64l-.011.5h2.093V16.898a4.62 4.62 0 00-1.358-3.285l-.012-.011a4.623 4.623 0 00-3.262-1.348h-63.077c-5.601 0-10.724 5.835-14.756 13.563-2.873 5.49-5.189 11.937-6.737 17.94zm-85.895.924c1.548 0 2.539.858 2.974 1.938.167.423.256.869.256 1.325 0 .446-.089.89-.256 1.314-.435 1.091-1.426 1.938-2.974 1.938-1.537 0-2.528-.847-2.962-1.938a3.584 3.584 0 01-.256-1.314c0-.456.089-.902.256-1.325.434-1.08 1.425-1.938 2.962-1.938zm2.272 2.216c-.323-.813-1.08-1.458-2.272-1.458-1.18 0-1.938.646-2.272 1.458a2.82 2.82 0 00-.189 1.047c0 .356.056.713.189 1.036.334.824 1.092 1.47 2.272 1.47 1.192 0 1.949-.646 2.272-1.47a2.813 2.813 0 000-2.082zm74.413 45.9c.045.2.123.334.245.435.201.156.524.222.98.222.212 0 .379.168.379.38v.478h1.069v-.134c.011-.768.078-1.102-.768-1.247l-1.905-.133zM244.454 115.2h1.993v-10.545h-36.126l-18.999 5.1v5.445h53.132zm-58.812 4.51h-10.924l-1.203 2.082.156.156a25.196 25.196 0 013.775 4.833h9.154l-.958-7.071zm-12.684 1.548l1.192-2.072a.392.392 0 01.345-.222h11.036l-.501-3.72-5.201-4.264-44.556 3.741v8.062a.373.373 0 01-.368.379h-2.996a.373.373 0 01-.367-.379v-1.882h-2.272a.374.374 0 01-.379-.367v-5.312l-4.287.078v3.753l1.815.479a.402.402 0 01.245.2l.635 1.102a.36.36 0 01.045.179v5.055c0 .1-.034.189-.101.256l-1.013 1.013a.389.389 0 01-.267.112h-9.166v2.004c0 .457-.066.902-.2 1.325h15.68a25.136 25.136 0 015.724-8.83c4.566-4.554 10.869-7.383 17.84-7.383a25.152 25.152 0 0117.117 6.693zm-40.959 10.278h-9.466v1.38h9.031c.134-.467.279-.935.435-1.38zm-.635 2.126h-17.206a4.546 4.546 0 01-2.049.479H75.86c-.011.624-.011 1.181-.022 1.671H103.3c.078 0 .145.022.212.066l3.018 1.749h11.537l5.167-2.985a.296.296 0 01.19-.055h7.728a28 28 0 01.212-.925zm18.375 27.349l.145.033c.79.212 1.158.312 1.291.78l.011.033c.078.334-.033.735-.245 1.481l-.111.401c1.181.245 2.383.401 3.619.468l-.011-.245c-.011-.223-.022-.434-.022-.59.011-.858.156-1.515.991-1.515h.178c.813 0 1.203 0 1.448.423.178.29.178.724.167 1.526v.401a24.382 24.382 0 003.619-.468l-.078-.245c-.066-.2-.122-.401-.167-.557-.222-.835-.245-1.503.568-1.726l.156-.044c.791-.212 1.158-.312 1.515.033.256.234.356.657.557 1.426l.1.412a23.596 23.596 0 003.363-1.392l-.078-.123c-.1-.167-.211-.345-.301-.49-.434-.757-.634-1.403.101-1.826l.144-.089c.713-.412 1.047-.601 1.47-.368.312.179.524.546.914 1.248l.144.267a23.263 23.263 0 002.885-2.216l-.101-.089c-.155-.145-.311-.29-.423-.401l-.022-.022c-.601-.602-.947-1.181-.356-1.771l.122-.122c.579-.579.847-.847 1.325-.735.346.089.646.401 1.203.969l.212.222a24.386 24.386 0 002.227-2.895l-.245-.122c-.189-.101-.368-.201-.512-.279l-.023-.011c-.735-.434-1.213-.891-.801-1.604l.089-.155c.412-.702.601-1.036 1.091-1.047.345 0 .713.211 1.403.623l.379.223a25.613 25.613 0 001.403-3.374l-.278-.067h-.011c-.201-.044-.379-.089-.557-.133-.836-.223-1.426-.535-1.214-1.348l.011-.022.033-.145c.212-.79.312-1.158.78-1.303h.033c.334-.089.746.034 1.481.245l.435.112c.245-1.181.401-2.383.468-3.619l-.279.011c-.223 0-.434.011-.579.011-.869 0-1.526-.156-1.526-.991v-.167c0-.824 0-1.203.424-1.459.289-.178.723-.167 1.525-.156h.446a25.898 25.898 0 00-.479-3.63l-.279.089c-.2.067-.389.123-.556.167-.836.223-1.504.245-1.727-.568l-.044-.167c-.212-.779-.312-1.158.033-1.503.245-.256.657-.356 1.437-.557l.434-.111a25.757 25.757 0 00-1.403-3.385l-.256.156a4.91 4.91 0 01-.49.3c-.746.435-1.392.635-1.815-.089l-.078-.156c-.412-.701-.602-1.035-.368-1.458.167-.312.546-.513 1.236-.913l.39-.212a24.503 24.503 0 00-2.227-2.906l-.201.211a7.688 7.688 0 01-.389.423l-.023.023c-.601.59-1.169.935-1.759.356l-.123-.123c-.579-.579-.846-.846-.724-1.325.078-.334.39-.634.958-1.191l.323-.323a27.086 27.086 0 00-2.906-2.227l-.134.267c-.089.167-.178.334-.279.512-.434.746-.89 1.236-1.614.813l-.023-.011-.122-.067c-.713-.412-1.047-.601-1.058-1.091 0-.356.212-.713.624-1.403l.233-.39a24.462 24.462 0 00-3.385-1.403l-.067.29v.011c-.044.189-.089.378-.133.545-.223.836-.535 1.437-1.348 1.214h-.022l-.145-.044c-.791-.201-1.158-.301-1.292-.78l-.011-.033c-.078-.323.033-.735.245-1.481l.123-.435a24.37 24.37 0 00-3.631-.467l.011.289c.011.212.011.423.011.579 0 .858-.144 1.515-.991 1.515h-.167c-.824 0-1.203.011-1.448-.412-.178-.301-.178-.724-.167-1.526v-.445c-1.236.067-2.45.234-3.619.479l.078.267c.067.2.123.401.167.568.223.835.245 1.503-.568 1.715l-.156.044c-.79.212-1.158.312-1.514-.022-.256-.245-.357-.657-.557-1.437l-.111-.423c-1.17.379-2.295.847-3.375 1.403l.145.234c.111.178.223.345.312.501.423.746.623 1.392-.1 1.804l-.145.089c-.713.412-1.047.602-1.47.368-.301-.167-.512-.546-.902-1.247l-.223-.379a28.092 28.092 0 00-2.895 2.227l.2.189c.156.145.312.29.423.401l.022.023c.602.601.947 1.169.357 1.748l-.123.122c-.579.579-.846.858-1.325.735-.334-.089-.635-.39-1.191-.957l-.301-.312a25.313 25.313 0 00-2.227 2.895l.245.134c.167.089.334.178.512.278.746.423 1.236.891.813 1.615l-.011.022-.067.122c-.412.713-.602 1.047-1.092 1.047-.345.011-.712-.211-1.403-.612l-.367-.223a23.5 23.5 0 00-1.392 3.374l.256.067h.011c.189.044.379.089.557.133.835.223 1.425.535 1.214 1.348l-.011.022-.034.145c-.211.79-.312 1.158-.779 1.292l-.034.011c-.334.078-.746-.034-1.492-.245l-.401-.112a23.815 23.815 0 00-.479 3.798c1.08-.045 1.348-.012 1.626.055.301.089.479.234.579.412.156.267.123.702.123.969h-.746v-.312c0-.211 0-.289-.201-.345a1.75 1.75 0 00-.245-.045c-.245-.033-.813.012-1.147.012 0 .144-.011.289-.011.434 0 .278 0 .545.011.824.557.011.835.022 1.225 0 .056.011.178-.011.245-.022.089-.023.134-.067.123-.546h.746c-.011.278.022.757-.268 1.036a.932.932 0 01-.545.256c-.279.055-.869.022-1.493.033.078 1.158.234 2.305.457 3.419l.256-.067c.201-.067.39-.123.557-.167.835-.223 1.503-.245 1.726.557l.045.167c.211.79.311 1.158-.034 1.514-.245.245-.657.356-1.436.557l-.39.1a24.016 24.016 0 001.392 3.363l.212-.134c.178-.111.345-.211.501-.3.746-.435 1.392-.624 1.804.1l.089.145c.412.712.601 1.035.367 1.469-.167.301-.545.513-1.236.902l-.356.201a25.514 25.514 0 002.216 2.895l.167-.189c.145-.156.29-.301.401-.412l.022-.023c.602-.601 1.17-.946 1.76-.356l.111.123c.59.579.858.846.735 1.314-.078.345-.39.645-.958 1.202l-.289.279a24.27 24.27 0 002.884 2.227l.123-.223a25.6 25.6 0 01.278-.512c.434-.746.891-1.236 1.615-.824l.022.011.123.078c.712.401 1.046.601 1.046 1.091.012.345-.211.713-.612 1.403l-.212.357a24.967 24.967 0 003.375 1.391l.055-.245v-.022c.045-.189.089-.378.134-.545.223-.836.535-1.426 1.347-1.214l.023.011zm-.045.757l-.167-.044c-.2-.056-.323.256-.434.679-.056.167-.089.345-.134.523l-.055.279 1.213.323.101-.39c.178-.613.278-.958.245-1.091v-.023c-.023-.055-.257-.122-.769-.256zm-5.479-2.338l-.156-.089c-.178-.101-.367.167-.59.545-.078.134-.167.312-.267.49l-.123.234 1.092.635.2-.345c.345-.579.523-.88.523-1.014-.011-.067-.222-.189-.679-.456zm-4.688-3.675l-.123-.122c-.145-.145-.401.055-.701.356l-.023.022c-.133.145-.256.267-.378.401l-.178.189.89.891.29-.278c.479-.468.724-.713.757-.847.023-.066-.156-.233-.534-.612zM135.952 151l-.089-.156c-.1-.178-.412-.044-.791.178-.156.09-.312.19-.468.29l-.222.145.623 1.08.357-.189c.579-.334.879-.502.946-.624.034-.056-.089-.267-.356-.724zm-2.216-5.534l-.045-.156c-.055-.2-.39-.156-.813-.045l-.534.167-.245.067.323 1.225.389-.1c.646-.167.98-.256 1.081-.356.044-.045-.023-.29-.156-.802zm.122-11.792l.045-.179c.056-.189-.267-.311-.691-.434-.167-.044-.334-.078-.512-.122l-.278-.056-.323 1.214.39.1c.612.178.946.267 1.091.245l.011-.011c.067-.011.134-.245.267-.757zm2.339-5.479l.078-.156c.111-.178-.167-.379-.535-.59-.133-.078-.311-.167-.49-.267l-.245-.123-.623 1.08.345.212c.568.334.88.523 1.013.512.067 0 .19-.212.457-.668zm3.664-4.688l.122-.123c.145-.144-.055-.4-.356-.701l-.011-.022c-.145-.134-.267-.256-.401-.379l-.201-.178-.879.891.278.289c.457.468.713.724.835.757.067.012.245-.155.613-.534zm4.766-3.575l.145-.089c.189-.1.044-.412-.167-.79-.1-.156-.189-.312-.29-.468l-.144-.223-1.092.624.201.356c.323.568.501.88.612.947.067.033.279-.089.735-.357zm5.524-2.227l.167-.044c.2-.045.145-.379.033-.802a8.958 8.958 0 00-.156-.534l-.078-.257-1.213.335.1.389c.167.635.256.98.345 1.08.056.045.29-.022.802-.167zm5.913-.712h.167c.212 0 .245-.334.245-.769 0-.2 0-.378-.011-.556l-.011-.268h-1.258v.412c-.012.657-.012 1.014.055 1.125.034.067.279.056.813.056zm5.891.846l.167.045c.201.044.323-.268.435-.691a35.8 35.8 0 00.133-.523l.056-.267-1.214-.323-.111.378c-.167.624-.267.958-.234 1.103v.011c.022.067.256.122.768.267zm5.479 2.327l.145.089c.178.101.379-.167.602-.545.078-.123.167-.301.267-.49l.122-.234-1.091-.624-.2.346c-.346.567-.524.879-.524 1.013 0 .067.223.189.679.445zm4.689 3.675l.122.122c.134.145.401-.055.702-.356l.011-.022c.145-.134.267-.267.379-.39l.189-.2-.891-.891-.289.289c-.479.457-.724.702-.758.836-.022.066.156.244.535.612zm3.575 4.766l.078.145c.111.178.423.044.801-.178.156-.09.312-.179.468-.279l.223-.145-.624-1.091-.356.201c-.579.322-.88.501-.947.612-.033.067.089.278.357.735zm2.216 5.523l.044.167c.056.201.39.145.802.034.189-.045.368-.101.535-.156l.256-.078-.323-1.214-.39.1c-.646.167-.991.256-1.08.345-.045.056.022.29.156.802zm.712 5.913v.167c0 .212.335.245.78.245.2 0 .379-.011.546-.011l.267-.011v-1.259h-.401c-.657-.011-1.013-.022-1.136.056-.056.033-.056.278-.056.813zm-.835 5.891l-.044.167c-.056.2.267.323.69.434.167.044.334.089.512.122l.279.067.323-1.214-.39-.111c-.612-.167-.947-.267-1.091-.234h-.011c-.067.023-.134.256-.268.769zm-2.338 5.478l-.078.145c-.112.178.156.379.523.59l.022.011c.167.1.323.178.479.268l.234.122.635-1.091-.345-.201c-.568-.345-.88-.523-1.014-.523-.067 0-.189.212-.456.679zm-13.954 10.479l-.167.044c-.201.056-.156.379-.034.802.045.189.101.356.156.534l.078.257 1.214-.323-.1-.39c-.167-.646-.256-.991-.357-1.08-.044-.045-.278.022-.79.156zm-5.914.712h-.178c-.2 0-.234.334-.234.769 0 .211 0 .378.011.556l.012.268h1.258v-.401c.011-.657.011-1.014-.056-1.136-.033-.056-.278-.056-.813-.056zm16.282-6.425l-.123.123c-.145.144.056.401.357.701l.022.022c.133.145.267.257.401.379l.145.145.467-.468c.145-.145.29-.289.423-.434l-.233-.245c-.468-.468-.713-.724-.847-.757-.067-.023-.245.156-.612.534zm-4.789 3.597l-.145.078c-.189.111-.044.423.167.802.101.155.19.311.29.467l.111.178c.368-.2.735-.412 1.092-.634l-.167-.301c-.323-.579-.49-.891-.613-.958-.056-.033-.278.101-.735.368zm-11.237-27.382c2.038 0 3.887.824 5.223 2.16l.023.022a7.377 7.377 0 01-.023 10.434 7.371 7.371 0 01-5.223 2.172 7.399 7.399 0 01-5.234-12.628h.012a7.364 7.364 0 015.222-2.16zm-4.911 2.917c.635.513.39 1.348-.022 2.283l-.2.446c-.101.211-.19.423-.29.657a1.254 1.254 0 01-.679.668 1.094 1.094 0 01-.535.1c0 .1-.011.212-.011.323 0 .1.011.2.011.301.791-.078 1.214.679 1.582 1.614l.178.49c.089.223.178.457.256.646a1.267 1.267 0 01-.312 1.403l.234.234c.067.078.134.133.212.2.501-.612 1.336-.367 2.26.045l.446.2c.211.089.423.19.657.29.312.133.545.378.668.668.078.167.111.356.1.534.123.012.234.012.356.012h.279c-.067-.802.69-1.214 1.626-1.582l.456-.167c.223-.089.446-.167.68-.267.312-.122.657-.111.946 0 .167.067.323.178.446.312.089-.078.178-.156.256-.245.067-.056.122-.123.189-.189-.635-.502-.39-1.348.022-2.272l.201-.445c.1-.212.189-.424.289-.657.134-.323.379-.557.669-.68.178-.067.378-.1.568-.089.011-.122.011-.245.011-.356v-.29c-.802.078-1.214-.69-1.582-1.625l-.167-.457c-.089-.223-.167-.445-.267-.679a1.326 1.326 0 010-.947c.078-.167.178-.323.312-.445a4.374 4.374 0 00-.223-.234l-.022-.022-.201-.201c-.512.657-1.358.412-2.294 0l-.445-.2c-.212-.1-.423-.201-.657-.29a1.299 1.299 0 01-.679-.679 1.382 1.382 0 01-.09-.568c-.111 0-.211-.011-.323-.011-.1 0-.2.011-.3.011.1.813-.668 1.236-1.615 1.604l-.49.189c-.223.089-.457.167-.657.256a1.321 1.321 0 01-.947 0 1.336 1.336 0 01-.456-.334c-.078.078-.156.145-.234.223-.078.078-.145.144-.212.222zm-.712 1.983c.245-.546.412-1.025.278-1.303a6.29 6.29 0 00-.724 1.28 6.901 6.901 0 00-.412 1.437l.1-.034a.517.517 0 00.268-.267c.078-.212.189-.445.3-.679l.19-.434zm-.134 4.676c-.212-.534-.434-.991-.724-1.091.078.49.212.969.401 1.414.189.457.434.902.713 1.303.022-.033.033-.056.055-.089a.494.494 0 00-.011-.379c-.089-.233-.178-.456-.256-.679l-.178-.479zm3.23 3.43c-.535-.234-1.025-.401-1.303-.267.4.289.824.523 1.291.724.446.189.925.323 1.426.412a.519.519 0 00-.301-.368c-.211-.089-.445-.2-.679-.3l-.434-.201zm8.285-7.806c.212.546.434 1.014.724 1.114a6.39 6.39 0 00-.401-1.414 6.694 6.694 0 00-.713-1.303.219.219 0 00-.044.089.446.446 0 000 .378c.078.212.178.457.267.691l.167.445zm-3.575 7.951c-.545.211-1.013.434-1.113.724.49-.078.957-.212 1.425-.401a6.466 6.466 0 001.303-.713c-.033-.022-.067-.033-.089-.044a.449.449 0 00-.379 0c-.211.078-.456.178-.701.267l-.446.167zm3.397-3.229c-.234.534-.401 1.013-.267 1.302.289-.4.534-.835.723-1.291a6.56 6.56 0 00.412-1.426c-.033 0-.066.012-.1.023a.563.563 0 00-.267.267c-.089.223-.189.456-.301.69l-.2.435zm-3.085-8.118c.535.234 1.025.412 1.303.267a6.992 6.992 0 00-1.292-.713 6.025 6.025 0 00-1.425-.412.804.804 0 00.033.09.43.43 0 00.267.267c.212.089.446.2.68.312l.434.189zm-4.688-.134c.545-.211 1.002-.434 1.102-.735-.49.089-.969.223-1.414.412-.468.19-.902.423-1.303.713.022.022.056.033.089.045a.455.455 0 00.379 0c.233-.09.456-.179.668-.257l.479-.178zm2.193 2.506c1.526 0 2.495.835 2.929 1.915.167.412.245.857.245 1.303 0 .445-.078.88-.245 1.303-.434 1.069-1.403 1.915-2.929 1.915-1.525 0-2.505-.846-2.94-1.915a3.557 3.557 0 01-.245-1.303c0-.446.078-.891.245-1.303.435-1.08 1.415-1.915 2.94-1.915zm2.239 2.193c-.334-.812-1.069-1.447-2.239-1.447-1.169 0-1.915.635-2.238 1.447a2.654 2.654 0 00-.189 1.025c0 .345.055.701.189 1.013.323.813 1.069 1.448 2.238 1.448 1.17 0 1.905-.635 2.239-1.448a2.833 2.833 0 000-2.038zm-2.239-12.95c3.854 0 7.35 1.57 9.878 4.098a13.908 13.908 0 014.087 9.877c0 3.853-1.559 7.349-4.087 9.877a13.928 13.928 0 01-9.878 4.087c-3.864 0-7.35-1.559-9.877-4.087a13.938 13.938 0 01-4.099-9.877c0-3.864 1.571-7.349 4.099-9.877a13.916 13.916 0 019.877-4.098zm9.344 4.621a13.22 13.22 0 00-9.344-3.864c-3.652 0-6.96 1.481-9.354 3.864a13.224 13.224 0 00-3.864 9.354 13.217 13.217 0 0013.218 13.218 13.18 13.18 0 009.344-3.876 13.18 13.18 0 003.875-9.342c0-3.653-1.481-6.96-3.875-9.354zm-1.348 1.348a11.315 11.315 0 00-7.996-3.308c-3.129 0-5.957 1.27-8.007 3.308a11.318 11.318 0 00-3.307 8.006c0 3.118 1.269 5.946 3.307 7.995a11.278 11.278 0 008.007 3.307c3.119 0 5.947-1.258 7.996-3.307a11.278 11.278 0 003.319-7.995c0-3.129-1.27-5.958-3.319-8.006zm-43.298-.245v1.38h1.236v-1.38h-1.236zm-.757 1.38v-1.38h-3.475a4.832 4.832 0 01-.891 1.224l-.155.156h4.521zm-46.472 6.67c-.78.078-1.804.067-3.14.045h-.279c-.156 1.548-1.303 1.815-3.43 2.305-.512.111-1.091.245-1.737.423-1.76.468-2.628.457-4.11.446l-.623-.012v2.205c4.755 0 5.09-.122 8.82-1.392l1.17-.401c1.19-.4 2.037-.89 2.572-1.536.456-.546.701-1.214.757-2.083zm-14.221 1.971h-.98c-1.248-.022-1.86-.022-2.072.223l-.01.011c-.212.279-.201.947-.179 2.261 0 .445.011.968.011 1.38 0 .657.713.769 1.582.769.29 0 .545-.011.801-.011.301-.023.602-.023.847-.023a.142.142 0 00.1-.044l.011-.011c.022-.023.033-.056.033-.1v-4.31c0-.033-.01-.078-.033-.1h-.011a.143.143 0 00-.1-.045zm16.014-7.416h-6.426v4.733l1.504.011c4.688.056 4.91.056 4.922-4.744zm-7.183 0h-4.744a.376.376 0 01-.167-.033l-6.226-2.405a2.101 2.101 0 00-.066-.034l-3.931-1.514v2.494l7.75 3.163h7.384v-1.671zm7.851 2.851c-.056.523-.134.946-.267 1.292l8.486 8.385h21.638c1.147 0 1.982-.268 2.516-.758.568-.512.825-1.28.825-2.238v-5.3h-1.081v4.632c0 .746-.2 1.381-.634 1.837-.401.423-.98.668-1.771.668H84.647a.338.338 0 01-.256-.111l-8.62-8.407zm-23.743-7.127l-8.809-3.407v2.294l8.81 3.596v-2.483zm.48-.612c.021 0 .044.011.066.022l3.931 1.514v-8.507l-13.286.123v3.251l9.288 3.597zm8.82-89.395l3.852.044c.212 0 .379.167.379.368l-4.232-.412zm1.046 2.594l-.011.178c0 .179-.011.368-.011.602 0 .813.111 1.581.902 1.581.78 0 .902-.768.902-1.581 0-.234-.011-.423-.023-.602v-.178h-1.759zm2.428-1.804l-.902-.01-2.228-.034v1.091h3.13v-1.047zm11.604 95.91l8.397 8.206h20.68c.568 0 .969-.167 1.236-.434.29-.312.423-.768.423-1.325v-4.632h-.713a.33.33 0 01-.189-.056l-3.04-1.759H76.406zm26.638-14.276H66.16c1.058 2.071 2.127 4.142 3.163 6.225.334.646.635 1.269 1.259 1.269h30.335c1.448-.011 1.971-.122 2.127-1.236v-6.258zm-2.216-.757h3.118l21.827-27.06a.355.355 0 01.301-.155h1.414V52.908h-9.187V65.18a4.79 4.79 0 01-.39 1.882 5.218 5.218 0 01-1.091 1.625l-6.749 6.915c-.958.98-1.626 1.07-3.074 1.27-.311.044-.668.089-1.08.156v25.678a.4.4 0 01-.067.223l-7.918 13.696a.36.36 0 01-.323.19H57.262v4.71h43.566zm2.962 7.271c0 .145-.022.29-.067.434-.156.691-.467 1.014-1.069 1.17a1.87 1.87 0 01-.668.122h-.791v2.862h10.914c1.08 0 2.06-.434 2.773-1.147a3.94 3.94 0 001.158-2.784v-7.171h-12.239c0 1.281.023 2.294.034 3.14.022.724.033 1.348.033 1.782 0 .646-.022 1.169-.078 1.592zm-3.341 1.726H70.582c-1.092 0-1.493-.824-1.927-1.681-1.08-2.194-2.227-4.376-3.33-6.559h-8.063v8.797l5.98 2.305h37.207v-2.862zm16.348-3.83h2.127v-3.363c0-.112.056-.212.134-.279l1.314-1.325a.433.433 0 01.267-.111h5.958v-.501l-.512-.891-1.926-.512a.38.38 0 01-.301-.368v-4.409c0-.212.167-.379.367-.379l4.666-.078v-7.527l-12.094 15.088v4.655zm23.342-66.256v-7.505c0-.735.1-1.359.401-1.826.111-.167.256-.312.423-.435-.746-.568-.902-1.492-.679-2.416.089-.368.234-.746.434-1.08.201-.345.446-.657.713-.913h-.1c-1.27 0-2.539.668-3.486 1.737-.913 1.035-1.526 2.427-1.526 3.93v8.508h3.82zm1.86-10.1c.067 0 .145-.01.223-.01v.021c.412-.01.813-.222 1.158-.556.223-.212.423-.468.59-.746.156-.279.279-.58.356-.88.168-.713.045-1.414-.567-1.76a1.25 1.25 0 00-.535-.167v.023h-.301c-.345.055-.679.256-.969.534a3.578 3.578 0 00-.59.746c-.156.29-.278.59-.356.88-.167.713-.045 1.414.568 1.77.133.078.278.123.423.145zm-10.88-12.46h2.639v-1.637h-2.639v1.637zm2.639.757h-2.639v21.803h2.639V38.633zm-3.397 13.53v-2.384h-2.093c.011.223.022.457.022.69 0 .313-.011.68-.022 1.048-.011.211-.022.423-.022.645h2.115zm-18.965 2.26c.323 0 .613 0 .891-.011.29-.011.568-.023.847-.023 1.213-.01 2.16.2 2.16 1.359v9.52c0 1.426 0 1.682-.858 2.54l-.913.913c-.913.924-1.837 1.848-2.517 2.45-.322.267-.668.39-1.013.39a1.428 1.428 0 01-1.125-.523 1.61 1.61 0 01-.401-1.081V57.352c0-.802.334-1.537.858-2.06a2.93 2.93 0 012.071-.87zm.913.735c-.323.011-.645.022-.913.022-.601 0-1.147.245-1.537.635-.389.39-.634.935-.634 1.537v12.605a.9.9 0 00.2.59.849.849 0 00.256.2.75.75 0 00.312.067.812.812 0 00.523-.211c.658-.568 1.571-1.504 2.484-2.417l.902-.913c.646-.635.646-.835.646-2.004v-9.521c0-.523-.624-.612-1.414-.612-.245 0-.535.01-.825.022zm-6.392 21.113c.357-.056.691-.1.98-.134 1.27-.178 1.86-.267 2.639-1.058l6.749-6.926a4.23 4.23 0 00.936-1.38 3.93 3.93 0 00.323-1.593V52.908h-11.627v23.363zm-3.886 1.425l-34.59 5.924c-.858.156-1.57.3-2.205.423-1.526.312-2.584.523-3.263.323-1.102-.345-1.147-1.481-.278-4.343.568-1.882 2.728-7.739 5.256-13.34 1.604-3.575 3.363-7.049 4.967-9.354l.278-.4c1.07-1.549 1.715-2.506 3.386-2.506h22.885c1.38 0 2.361.2 3.018.746.679.557.991 1.425.991 2.773l-.134 19.386a.37.37 0 01-.311.368zm-34.713 5.189l34.278-5.88.123-19.063c0-1.103-.223-1.793-.713-2.194-.501-.423-1.336-.568-2.54-.568H75.583c-1.281 0-1.838.824-2.762 2.172l-.278.4c-1.582 2.272-3.32 5.702-4.912 9.243-2.516 5.579-4.655 11.38-5.211 13.24-.713 2.338-.791 3.24-.234 3.407.5.156 1.48-.044 2.906-.334.668-.134 1.426-.29 2.228-.423zm-24.099 24.91c.58-.457 1.17-.835 1.804-1.147.87-.434 1.782-.757 2.751-1.058a.4.4 0 01.112-.022h3.83c1.025 0 1.37.222 1.37.891 0 .278-.1.634-.222 1.102-.468 1.626-.88 3.285-1.315 4.911a.365.365 0 01-.211.245l-7.896 3.396-.011.011h-.011l-.2.089v5.445l13.285-.122V86.092c-2.25.056-4.12.624-5.68 1.537l-.01.033a.372.372 0 01-.435.234c-1.325.868-2.405 1.982-3.285 3.251-3.308 4.744-3.876 11.548-3.876 14.733v1.915zm.435 7.416l7.216-3.107c.423-1.559.891-3.162 1.27-4.732.111-.423.189-.724.189-.913 0-.101-.145-.134-.612-.134H47.94c-.924.29-1.782.59-2.583.991a9.245 9.245 0 00-1.704 1.091v6.804zm12.951-29.876c1.771-5.947 3.731-11.726 6.114-17.227 2.339-5.367 5.078-10.467 8.464-15.2h-5.669a256.71 256.71 0 00-7.884 17.138c-2.294 5.49-4.41 10.99-6.426 16.514 1.526-.746 3.319-1.192 5.401-1.225zm15.502-32.426c-3.497 4.81-6.314 10.01-8.697 15.489-2.406 5.534-4.366 11.37-6.148 17.36v30.31h40.136l7.773-13.462V52.908H72.107zm55.381-.747l.023-.679c.011-.323.022-.646.022-1.013 0-1.158-.156-2.127-1.103-2.127H69.1c-1.358 0-2.305 1.938-3.084 3.541l-.134.278h61.606zm-.891 72.169h-4.588l-.412.412v1.949h4.21l.79-.78v-1.581zm-5.757 2.361v-2.105c0-.1.033-.189.111-.267l.635-.635a.388.388 0 01.267-.111h4.744v-1.203h-5.802l-1.113 1.114v3.207h1.158zm13.686-23.607h-2.238v19.32h2.238v-19.32zm-2.984 0h-1.893v17.07h1.893v-17.07zm7.116-39.42l.546 8.786h33.242c1.704.011 3.508.011 4.588-1.848l3.196-5.557a.972.972 0 00.156-.512c0-.156-.045-.3-.111-.423a.795.795 0 00-.323-.312.99.99 0 00-.524-.134h-40.77zm55.014 52.281v3.875h50.414v-3.875h-50.414zm-.746 3.875v-3.875h-1.604v3.875h1.604zm83.344 12.583c.067.479.267.969.557 1.414a4.142 4.142 0 001.47 1.337.276.276 0 01.056.033l.011.011c.846.423 1.871.746 2.906.969 1.081.223 2.183.334 3.163.367v-.623h-.122c-2.205 0-4.032-.446-5.301-1.125a5.224 5.224 0 01-1.081-.724.133.133 0 01-.055-.055c-.546-.49-.88-1.036-.98-1.604h-.624zm8.163 4.877a18.67 18.67 0 01-3.307-.378 13.364 13.364 0 01-2.595-.802v1.826h5.902v-.646zm-6.659-1.559a4.875 4.875 0 01-1.56-1.492c-.378-.568-.634-1.191-.701-1.826h-.189v5.523h2.45v-2.205zm-.112-3.318c.034.1.067.201.112.29v-.29h-.112zm.869 1.18c.234.201.512.379.824.546 1.18.613 2.873 1.025 4.956 1.025h.122v-.836c0-.211.167-.378.379-.378h4.588v-5.512h-10.869v5.155zm-3.207-1.926h2.45v-3.229h-2.45v3.229zm14.076 3.04h-4.21v3.229h4.21v-3.229zm-4.143-15.155v3.429h4.143v-3.429h-4.143zm4.143 4.175h-4.521a.373.373 0 01-.379-.367v-3.808h-5.969v6.169H289.4v-1.994zm-11.626 1.994v-6.169h-2.45v6.169h2.45zm-2.45-6.915H289.4v-1.793h-14.076v1.793zm14.076 7.672h-14.076v1.203H289.4v-1.203zm0-11.425h-14.076v1.203H289.4v-1.203zm24.11-9.632v-2.327h-2.906v2.327h2.906zm1.615 3.964a.373.373 0 11-.746 0v-3.218h-4.644v3.218a.373.373 0 11-.746 0v-2.338h-4.767v8.396h15.97v-8.396h-5.067v2.338zm16.17 24.565h19.099v-12.784h-19.099v12.784zm19.099.746H291.85v3.786h58.544v-3.786zm-27.618-13.53v12.784h7.762v-12.784h-7.762zm-2.584 12.784v-12.784h-15.97v12.784h15.97zm.746-12.784v12.784h1.08v-12.784h-1.08zm1.838-14.119v8.396h7.762v-8.396h-7.762zm-1.838 0v8.396h1.08v-8.396h-1.08zm-19.288 26.903v-12.784h-7.907v12.784h7.907zm.746-12.784v12.784h1.08v-12.784h-1.08zm-.746-5.723v-8.396h-7.907v8.396h7.907zm.746-8.396v8.396h1.08v-8.396h-1.08zm-9.399 26.903v-12.784h-1.147v12.784h1.147zM291.85 120.4h58.544v-4.22H291.85v4.22zm-31.572 15.178l.011.367c.012.791.012 1.203-.178 1.492-.256.401-.634.401-1.425.401h-.234c-.824 0-.969-.646-.969-1.492 0-.145 0-.345.011-.557l.011-.211h-4.599v.367c.011.791.022 1.203-.167 1.492-.256.401-.635.401-1.437.401h-.222c-.824 0-.98-.646-.98-1.492 0-.145.011-.345.011-.557l.011-.211h-.713v3.296h11.593v-3.296h-.724zm-2.027 0l-.011.245c0 .167-.011.323-.011.523 0 .423.034.735.223.735h.234c.512 0 .757 0 .791-.045.066-.1.066-.445.055-1.091v-.367h-1.281zm-7.383 0v.245c-.011.167-.011.323-.011.523 0 .423.033.735.223.735h.222c.524 0 .769 0 .802-.045.067-.1.067-.445.056-1.091v-.367h-1.292zm-1.459-2.272h11.593v-10.979h-11.593v10.979zm11.593.757h-11.593v.769h11.593v-.769zm-11.971-12.483h1.882V99.031c0-.2.167-.367.378-.367h7.829c.212 0 .379.167.379.367v22.549h1.871c.211 0 .378.168.378.368v16.926h1.136V97.461c0-.668-.278-1.27-.712-1.704a2.393 2.393 0 00-1.693-.701H249.61c-.669 0-1.27.267-1.704.701a2.346 2.346 0 00-.646 1.214h-.011v.022c-.034.145-.045.29-.045.446v41.435h1.459v-16.926c0-.2.167-.368.368-.368zm2.628-16.202h7.082v-3.941h-7.082v3.941zm7.082 1.938h-7.082v14.264h7.082v-14.264zm0-1.18h-7.082v.423h7.082v-.423zm-7.082-5.457h7.082v-1.27h-7.082v1.27zm-4.188 43.673h27.04c0-.289-.034-.612-.312-.612h-26.416c-.278 0-.312.323-.312.612zm1.626-1.369h23.777v-3.352h-23.777v3.352zm-2.65-27.037h-1.604v3.875h1.604v-3.875zm0 4.621h-39.913v6.871h5.524v-.724c0-.201.167-.368.378-.368h1.916c.212 0 .379.167.379.368v.724h1.236v-3.419c0-.211.167-.378.378-.378h24.367c.211 0 .378.167.378.378v9.588h5.357v-13.04zm77.03-27.348c.178.534.49 1.08 1.325.99l5.635-.924c.424-.078.657-.233.769-.434.078-.133.122-.29.133-.468a.99.99 0 01-.801-.701 1.116 1.116 0 01-.045-.423 1.09 1.09 0 01.111-.412c.168-.334.502-.59.98-.568.023-.134.023-.245-.022-.334-.055-.145-.256-.29-.668-.468l-2.083-.79c.557.311.914.812 1.092 1.38.1.334.145.69.111 1.047a2.94 2.94 0 01-.256 1.024l-.011.012c-.401.835-1.192 1.436-2.35 1.358l-3.92-.29zm13.531-2.54l2.138.157a.98.98 0 01.913.712l.023.067h.523c.122-.011.134-.044.156-.111.022-.1.033-.223.022-.357a1.972 1.972 0 00-.089-.434c-.134-.378-.39-.724-.768-.724-.234 0-.513-.01-.78-.022l-.468-.011c-.824-.011-1.481.056-1.67.724zm-5.123.38c-.022 0-.044 0-.078-.012l-.245-.01c-.145-.012-.245.055-.289.144a.257.257 0 00-.034.133c0 .056 0 .1.011.145.034.09.112.178.257.19l7.528.545c.144.011.245-.056.289-.145a.3.3 0 00.034-.133c0-.056 0-.1-.012-.145-.033-.1-.111-.178-.256-.19l-7.205-.523zm-3.753-2.629l-2.595-.99c-.757-.234-1.169.2-1.458.668l3.608.256c.156.01.3.033.445.066zm-11.626 3.419a2.666 2.666 0 01-.345-.69 2.78 2.78 0 01-.123-1.047c.022-.356.111-.702.267-1.025.123-.245.279-.478.468-.668l-8.33-.245a7.98 7.98 0 01-.145.657l-.512 1.871 8.72 1.147zm11.125-2.74l-4.198-.3-4.767-.334h-.156c-.746 0-1.269.4-1.525.935-.112.234-.178.49-.201.746a2.18 2.18 0 00.089.769 1.67 1.67 0 001.326 1.147l.289.044 8.965.635c.791.056 1.347-.356 1.615-.924l.011-.011c.111-.234.178-.49.189-.746a2.033 2.033 0 00-.089-.78c-.189-.612-.69-1.114-1.548-1.18zm-36.828-.534c.679 0 1.114.368 1.303.858.078.178.111.378.111.567 0 .19-.033.39-.111.568-.189.49-.624.858-1.303.858-.679 0-1.114-.368-1.303-.858a1.433 1.433 0 01-.111-.567c0-.19.033-.39.111-.568.189-.49.624-.858 1.303-.858zm.613 1.136c-.089-.223-.29-.39-.613-.39s-.523.167-.612.39a.823.823 0 00-.056.29c0 .1.022.2.056.289.089.223.289.39.612.39s.524-.167.613-.39a.846.846 0 00.055-.29c0-.1-.022-.2-.055-.289zm1.381-8.853c.679 0 1.124.368 1.314.858.066.178.111.378.111.568 0 .189-.045.39-.111.568-.19.478-.635.857-1.314.857-.669 0-1.114-.368-1.303-.857a1.658 1.658 0 01-.112-.568c0-.19.045-.39.112-.568.189-.49.634-.858 1.303-.858zm.612 1.136c-.078-.223-.29-.39-.612-.39-.312 0-.524.167-.602.39a.846.846 0 00-.056.29c0 .1.023.2.056.29.078.222.29.389.602.389.322 0 .534-.167.612-.39a.846.846 0 00.056-.29c0-.1-.023-.2-.056-.289zm-6.325-7.204c.679 0 1.113.378 1.303.857.077.178.111.379.111.568 0 .19-.034.39-.111.568-.19.49-.624.868-1.303.868-.68 0-1.114-.378-1.315-.868a1.669 1.669 0 010-1.136c.201-.479.635-.858 1.315-.858zm.612 1.135c-.089-.222-.29-.39-.612-.39-.323 0-.524.168-.613.39a.846.846 0 00-.056.29c0 .1.023.2.056.29.089.222.29.39.613.39.322 0 .523-.168.612-.39a.84.84 0 00.045-.29c0-.1-.012-.2-.045-.29zm-8.619 1.125c.679 0 1.113.379 1.302.869.078.178.112.378.112.568 0 .189-.034.39-.112.567-.189.48-.623.858-1.302.858-.68 0-1.114-.379-1.303-.858a1.434 1.434 0 01-.112-.567c0-.19.034-.39.112-.568.189-.49.623-.869 1.303-.869zm.612 1.147c-.089-.223-.29-.39-.612-.39-.323 0-.524.167-.613.39a.846.846 0 00-.056.29c0 .1.023.2.056.289.089.223.29.39.613.39a.631.631 0 00.612-.39.846.846 0 00.056-.29c0-.1-.023-.2-.056-.289zm-2.951 6.703c.679 0 1.114.38 1.303.87.078.177.111.378.111.567 0 .19-.033.39-.111.568-.189.479-.624.857-1.303.857-.679 0-1.114-.378-1.314-.857a1.645 1.645 0 010-1.136c.2-.49.635-.869 1.314-.869zm.612 1.147c-.089-.222-.289-.39-.612-.39s-.524.168-.613.39a.846.846 0 00-.055.29c0 .1.022.2.055.29.089.222.29.39.613.39s.523-.168.612-.39a.817.817 0 00.045-.29c0-.1-.011-.2-.045-.29zm5.424 4.911c.679 0 1.113.379 1.303.858.078.178.111.378.111.567 0 .19-.033.39-.111.568-.19.49-.624.869-1.303.869-.68 0-1.114-.379-1.303-.869a1.434 1.434 0 01-.112-.567c0-.19.034-.39.112-.568.189-.48.623-.858 1.303-.858zm.612 1.136c-.089-.223-.289-.39-.612-.39s-.524.167-.613.39a.846.846 0 00-.055.29c0 .1.022.2.055.289.089.223.29.39.613.39s.523-.167.612-.39a.823.823 0 00.056-.29c0-.1-.022-.2-.056-.29zm19.21-5.323c1.014 0 1.66.568 1.949 1.28a2.305 2.305 0 010 1.726c-.289.713-.935 1.281-1.949 1.281-1.013 0-1.67-.568-1.959-1.28a2.295 2.295 0 01-.156-.869c0-.29.044-.579.156-.857.289-.713.946-1.28 1.959-1.28zm1.248 1.56c-.178-.446-.59-.803-1.248-.803-.657 0-1.08.357-1.258.802a1.45 1.45 0 00-.111.58c0 .21.033.4.111.59.178.445.601.801 1.258.801.658 0 1.07-.356 1.248-.802a1.5 1.5 0 00.111-.59c0-.2-.033-.4-.111-.579zm-27.596-9.733l-.011.011c-.925.958-1.704 1.87-1.849 2.45-.145.579-.022 1.358.223 2.906l.078.468.167-.58c.167-.567.356-1.235.59-2.104.234-.868.401-1.548.546-2.127.089-.378.178-.724.256-1.024zm16.716.813a63.503 63.503 0 01-1.582-1.548 65.241 65.241 0 01-1.548-1.581c-.679-.713-1.158-1.203-1.559-1.515a1.793 1.793 0 00-.668-.356c-.59-.156-1.359.067-2.884.501-.602.178-1.326.39-2.127.601-.791.212-1.515.39-2.116.546h-.023c-1.536.379-2.316.568-2.739 1.002l-.034.034h-.011v.01c-.401.435-.59 1.203-.957 2.695a56.27 56.27 0 01-.546 2.139c-.212.801-.423 1.525-.59 2.126-.446 1.526-.669 2.294-.513 2.873.156.59.735 1.136 1.882 2.239.457.445 1.003.968 1.582 1.536.568.58 1.091 1.125 1.537 1.581 1.102 1.147 1.648 1.726 2.238 1.882.579.156 1.348-.067 2.873-.512.602-.167 1.325-.379 2.127-.59a56.512 56.512 0 012.127-.546h.011c1.548-.378 2.317-.568 2.74-1.002.434-.423.624-1.203 1.002-2.74a56.27 56.27 0 01.546-2.137c.212-.802.423-1.526.601-2.127.446-1.526.668-2.294.501-2.873-.155-.59-.723-1.147-1.87-2.238zm-51.74-.769V94.31h19.89V78.642h-19.89zm-5.023-.757h38.421V69.11h-38.421v8.775zM216.49 91.014v-1.826c0-.2.145-.357.334-.379l6.693-.746a.367.367 0 01.412.323c.011.044 0 .089 0 .122l-.724 3.363a.367.367 0 01-.434.29l-5.958-.769a.375.375 0 01-.323-.378zm.746-1.492v1.169l5.312.69.535-2.516-5.847.657zm1.047-5.446V82.24c0-.19.156-.345.334-.367l6.693-.758a.393.393 0 01.423.334c0 .045 0 .079-.011.123l-.724 3.363c-.033.2-.234.323-.434.29l-5.947-.769a.384.384 0 01-.334-.379zm.757-1.503v1.18l5.301.68.535-2.506-5.836.646zm1.014-5.857v-1.837c0-.19.145-.346.334-.368l6.693-.757a.376.376 0 01.412.334.23.23 0 010 .123l-.724 3.362c-.033.2-.234.323-.434.29l-5.947-.768a.384.384 0 01-.334-.379zm.757-1.492l-.011 1.169 5.312.69.534-2.516-5.835.657zm-7.996 52.581v5.802h1.158v-6.515h-1.158v.713zm-.757.39h-5.524v.69h5.524v-.69zm0 1.448h-5.524v3.964h5.524v-3.964zm2.673 3.964h1.236v-3.964h-1.236v3.964zm0-4.722h1.236v-.69h-1.236v.69zm-18.576-8.318v13.04h7.751v-13.04h-4.031v5.757a.376.376 0 01-.379.379h-2.116a.373.373 0 01-.367-.379v-5.757h-.858zm-2.628 13.04v-13.04h-2.205v13.04h2.205zm.746-13.04v13.04h1.125v-13.04h-1.125zm3.486.757h1.37v-.757h-1.37v.757zm1.37.758h-1.37v3.864h1.37v-3.864zm6.659-1.515h-1.136v13.04h1.136v-13.04zm10.936 13.04h23.609v-9.22h-23.609v9.22zm168.17-5.891a12.04 12.04 0 018.531 3.541 12.029 12.029 0 013.53 8.53 12.03 12.03 0 01-3.53 8.53 12.03 12.03 0 01-8.531 3.529c-3.33 0-6.348-1.347-8.53-3.529a12.027 12.027 0 01-3.53-8.53c0-3.33 1.347-6.347 3.53-8.53a12.037 12.037 0 018.53-3.541zm0-13.151a25.12 25.12 0 0114.232 4.399h38.399a25.12 25.12 0 0114.232-4.399 25.12 25.12 0 0114.232 4.399h19.155l-.512-3.965-16.427-11.914h-56.35l-5.813 5.812-.011.011-.011.012-.011.011h-.011v.011h-.023v.011h-.011v.011h-.022v.011h-.022l-.011.011h-.023l-.011.011h-.044v.012h-17.774v-.012h-.056v-.011h-.033v-.011h-.022v-.011h-.023v-.011h-.022v-.011h-.011l-.011-.011h-.011v-.011h-.011v-.012h-.012v-.011l-7.383-5.812h-8.408l-15.836 12.093-.456 3.786h14.9a25.125 25.125 0 0114.232-4.399zm15.268 5.145c.902.69 1.76 1.436 2.562 2.238a25.152 25.152 0 016.915 12.962h4.822l.279-1.637v-3.541l-5.969-6.091a.374.374 0 01-.101-.257v-3.674h-8.508zm9.622 15.957c.033.245.078.501.111.757v.045l.023.144v.056l.011.022v.067l.011.045v.022l.011.033v.089l.033.245.034.323v.011l.067.947v.178l.011.056v.122h3.697l.535-3.162h-4.544zm.334 3.919v.201c0 2.338-.323 4.61-.924 6.759h1.058c.022-.145.055-.289.1-.423.245-.724.813-1.347 1.726-1.347h.691l.89-5.19h-3.541zm-50.359-1.848c.49-6.147 3.185-11.67 7.306-15.79a23.454 23.454 0 012.561-2.238h-13.965l-1.782 14.632 5.88 3.396zm19.033 23.273l.144.033c.791.212 1.158.312 1.303.78v.033c.078.334-.033.735-.245 1.481l-.111.401c1.18.245 2.383.401 3.619.468l-.011-.245c0-.223-.011-.434-.011-.59 0-.858.156-1.515.991-1.515h.167c.824 0 1.203 0 1.448.423.189.29.178.724.167 1.526v.401a24.195 24.195 0 003.619-.468l-.078-.245c-.067-.2-.122-.401-.167-.557-.223-.835-.245-1.503.568-1.726l.167-.044c.78-.212 1.147-.312 1.504.033.256.234.356.657.556 1.426l.112.412a23.462 23.462 0 003.352-1.392l-.067-.123a16.661 16.661 0 01-.312-.49c-.434-.757-.635-1.403.1-1.826l.145-.089c.713-.412 1.047-.601 1.481-.368.301.179.513.546.913 1.248l.145.267a25.11 25.11 0 002.885-2.216l-.112-.089c-.156-.145-.312-.29-.423-.401l-.011-.022c-.601-.602-.958-1.181-.368-1.771l.123-.122c.579-.579.857-.847 1.325-.735.345.089.646.401 1.203.969l.211.222a24.394 24.394 0 002.228-2.895l-.245-.122c-.19-.101-.368-.201-.501-.279l-.023-.011c-.735-.434-1.225-.891-.802-1.604l.078-.155c.412-.702.602-1.036 1.092-1.047.345 0 .713.211 1.403.623l.379.223a25.75 25.75 0 001.403-3.374l-.279-.067h-.011a20.098 20.098 0 01-.545-.133c-.836-.223-1.437-.535-1.214-1.348v-.022l.033-.145c.212-.79.312-1.158.78-1.303h.044c.323-.089.735.034 1.481.245l.424.112c.245-1.181.4-2.383.478-3.619l-.289.011c-.212 0-.423.011-.579.011-.869 0-1.515-.156-1.515-.991v-.167c-.011-.824-.011-1.203.412-1.459.301-.178.724-.167 1.526-.156h.445a25.745 25.745 0 00-.467-3.63l-.29.089c-.189.067-.39.123-.557.167-.835.223-1.503.245-1.715-.568l-.044-.167c-.212-.779-.312-1.158.022-1.503.245-.256.657-.356 1.437-.557l.434-.111a25.894 25.894 0 00-1.403-3.385l-.245.156c-.178.111-.345.222-.501.3-.747.435-1.392.635-1.804-.089l-.09-.156c-.412-.701-.601-1.035-.367-1.458.167-.312.546-.513 1.247-.913l.39-.212a25.73 25.73 0 00-2.227-2.906l-.201.211c-.145.156-.289.312-.401.423l-.022.023c-.601.59-1.169.935-1.748.356l-.123-.123c-.579-.579-.857-.846-.735-1.325.078-.334.39-.634.958-1.191l.323-.323a23.199 23.199 0 00-2.406-1.882v-.011h-.011c-.156-.111-.323-.223-.479-.334l-.144.267c-.089.167-.179.334-.279.512-.434.746-.891 1.236-1.615.813l-.022-.011-.122-.067c-.713-.412-1.047-.601-1.047-1.091-.011-.356.211-.713.612-1.403l.234-.39a23.914 23.914 0 00-3.385-1.403l-.067.29v.011c-.045.189-.089.378-.134.545-.222.836-.534 1.437-1.347 1.214h-.022l-.145-.044c-.791-.201-1.158-.301-1.292-.78l-.011-.033c-.078-.323.033-.735.245-1.481l.122-.435a24.34 24.34 0 00-3.63-.467l.011.289c.011.212.022.423.022.579 0 .858-.156 1.515-.991 1.515h-.178c-.813 0-1.203.011-1.448-.412-.178-.301-.178-.724-.167-1.526v-.445a24.2 24.2 0 00-3.619.479l.078.267c.067.2.122.401.167.568.223.835.245 1.503-.557 1.715l-.167.044c-.791.212-1.158.312-1.515-.022-.245-.245-.356-.657-.556-1.437l-.112-.423a23.052 23.052 0 00-3.374 1.403l.156.234c.1.178.211.345.301.501.434.746.623 1.392-.101 1.804l-.144.089c-.713.412-1.036.602-1.47.368-.301-.167-.513-.546-.903-1.247l-.211-.379c-.156.111-.312.212-.468.323h-.011l-.011.011a24.778 24.778 0 00-2.406 1.893l.201.189c.156.145.301.29.412.401l.022.023c.602.601.947 1.169.357 1.748l-.123.122c-.579.579-.846.858-1.314.735-.345-.089-.646-.39-1.203-.957l-.3-.312a25.34 25.34 0 00-2.217 2.895l.234.134c.167.089.334.178.513.278.746.423 1.236.891.824 1.615l-.011.022-.078.122c-.401.713-.602 1.047-1.092 1.047-.345.011-.712-.211-1.403-.612l-.367-.223a23.5 23.5 0 00-1.392 3.374l.256.067h.022c.189.044.379.089.546.133.835.223 1.425.535 1.213 1.348l-.011.022-.033.145c-.212.79-.312 1.158-.78 1.292l-.033.011c-.334.078-.746-.034-1.481-.245l-.412-.112a24.658 24.658 0 00-.479 3.864c.468-.011 1.102 0 1.448.034.011 0 .311.033.512.167a.72.72 0 01.301.378c.033.112.066.301.055.546a.904.904 0 000 .245h-.746v-.267c.022-.357-.39-.379-.768-.379l-.824.011v.379c0 .301 0 .557.011.857l.813.011c.356.012.557-.044.657-.111.156-.1.111-.379.111-.501h.746c0 .568-.033.779-.144.935-.234.334-.68.368-.724.368-.29.044-.813.033-1.426.033.078 1.147.234 2.316.468 3.408l.245-.067c.2-.067.401-.123.557-.167.835-.223 1.503-.245 1.726.557l.044.167c.212.79.312 1.158-.033 1.514-.245.245-.657.356-1.425.557l-.401.1a23.896 23.896 0 001.392 3.363l.222-.134a8.8 8.8 0 01.49-.3c.747-.435 1.392-.624 1.816.1l.078.145c.412.712.601 1.035.367 1.469-.167.301-.546.513-1.236.902l-.356.201a25.514 25.514 0 002.216 2.895l.178-.189c.145-.156.278-.301.39-.412l.022-.023c.601-.601 1.169-.946 1.759-.356l.123.123c.579.579.846.846.724 1.314-.078.345-.39.645-.958 1.202l-.289.279a23.45 23.45 0 002.895 2.227l.111-.223c.089-.167.179-.334.279-.512.434-.746.891-1.236 1.615-.824l.022.011.122.078c.713.401 1.047.601 1.058 1.091 0 .345-.211.713-.623 1.403l-.212.357a24.954 24.954 0 003.374 1.391l.056-.245v-.022c.045-.189.089-.378.134-.545.222-.836.534-1.426 1.347-1.214l.023.011zm-.045.757l-.167-.044c-.201-.056-.323.256-.434.679-.045.167-.09.345-.123.523l-.067.279 1.214.323.111-.39c.168-.613.268-.958.234-1.091v-.023c-.022-.055-.256-.122-.768-.256zm-5.479-2.338l-.145-.089c-.178-.101-.379.167-.601.545-.078.134-.167.312-.268.49l-.122.234 1.091.635.201-.345c.345-.579.523-.88.523-1.014 0-.067-.223-.189-.679-.456zm-4.689-3.675l-.111-.122c-.145-.145-.401.055-.713.356l-.011.022c-.145.145-.256.267-.378.401l-.19.189.891.891.29-.278c.479-.468.724-.713.757-.847.022-.066-.156-.233-.535-.612zM365.005 151l-.078-.156c-.112-.178-.412-.044-.791.178-.167.09-.323.19-.479.29l-.223.145.624 1.08.356-.189c.58-.334.891-.502.947-.624.033-.056-.089-.267-.356-.724zm-2.216-5.534l-.045-.156c-.056-.2-.379-.156-.802-.045-.189.056-.356.112-.534.167l-.256.067.322 1.225.39-.1c.646-.167.991-.256 1.08-.356.045-.045-.022-.29-.155-.802zm.122-11.792l.045-.179c.055-.189-.257-.311-.68-.434-.167-.044-.345-.078-.523-.122l-.279-.056-.322 1.214.389.1c.613.178.947.267 1.092.245l.022-.011c.056-.011.122-.245.256-.757zm2.339-5.479l.089-.156c.1-.178-.167-.379-.546-.59-.134-.078-.312-.167-.49-.267l-.234-.123-.635 1.08.346.212c.579.334.879.523 1.013.512.067 0 .189-.212.457-.668zm3.675-4.688l.122-.123c.145-.144-.056-.4-.356-.701l-.022-.022c-.145-.134-.268-.256-.401-.379l-.19-.178-.891.891.279.289c.468.468.713.724.846.757.067.012.234-.155.613-.534zm4.755-3.575l.156-.089c.178-.1.044-.412-.178-.79-.089-.156-.19-.312-.29-.468l-.145-.223-1.08.624.189.356c.323.568.502.88.624.947.056.033.267-.089.724-.357zm5.524-2.227l.167-.044c.2-.045.155-.379.044-.802l-.167-.534-.078-.257-1.214.335.1.389c.168.635.257.98.357 1.08.044.045.278-.022.791-.167zm5.913-.712h.178c.201 0 .245-.334.245-.769-.011-.2-.011-.378-.022-.556l-.011-.268h-1.259v.412c-.011.657-.011 1.014.056 1.125.033.067.29.056.813.056zm5.891.846l.167.045c.201.044.323-.268.446-.691.044-.167.078-.345.122-.523l.056-.267-1.214-.323-.1.378c-.179.624-.268.958-.245 1.103v.011c.022.067.256.122.768.267zm5.479 2.327l.156.089c.178.101.379-.167.59-.545.078-.123.167-.301.268-.49l.122-.234-1.091-.624-.201.346c-.334.567-.523.879-.512 1.013 0 .067.212.189.668.445zm4.689 3.675l.122.122c.145.145.401-.055.702-.356l.022-.022c.134-.134.256-.267.379-.39l.178-.2-.891-.891-.29.289c-.467.457-.724.702-.757.836-.022.066.156.244.535.612zm3.574 4.766l.089.145c.101.178.412.044.791-.178.156-.09.312-.179.468-.279l.223-.145-.624-1.091-.356.201c-.579.322-.88.501-.947.612-.033.067.089.278.356.735zm2.216 5.523l.045.167c.056.201.39.145.813.034.178-.045.356-.101.535-.156l.256-.078-.334-1.214-.39.1c-.635.167-.98.256-1.08.345-.045.056.022.29.155.802zm.724 5.913v.167c0 .212.334.245.769.245.2 0 .378-.011.557-.011l.256-.011v-1.259h-.401c-.657-.011-1.014-.022-1.125.056-.067.033-.056.278-.056.813zm-.846 5.891l-.045.167c-.044.2.268.323.691.434.167.044.345.089.523.122l.268.067.323-1.214-.379-.111c-.624-.167-.958-.267-1.103-.234h-.011c-.067.023-.133.256-.267.769zm-2.328 5.478l-.089.145c-.1.178.156.379.524.59l.022.011c.178.1.334.178.49.268l.234.122.624-1.091-.346-.201c-.568-.345-.868-.523-1.013-.523-.067 0-.189.212-.446.679zm-13.965 10.479l-.167.044c-.2.056-.144.379-.033.802.045.189.1.356.156.534l.078.257 1.214-.323-.1-.39c-.168-.646-.257-.991-.346-1.08-.055-.045-.289.022-.802.156zm-5.913.712h-.167c-.212 0-.245.334-.245.769 0 .211 0 .378.011.556l.011.268h1.259v-.401c.011-.657.011-1.014-.056-1.136-.033-.056-.278-.056-.813-.056zm16.281-6.425l-.122.123c-.145.144.056.401.356.701l.023.022c.144.145.267.257.401.379l.144.145c.167-.156.323-.312.479-.468.134-.145.279-.289.423-.434l-.245-.245c-.467-.468-.712-.724-.846-.757-.067-.023-.234.156-.613.534zm-4.788 3.597l-.145.078c-.178.111-.045.423.178.802.089.155.19.311.29.467l.1.178c.379-.2.735-.412 1.102-.634l-.167-.301c-.322-.579-.501-.891-.623-.958-.056-.033-.267.101-.735.368zm-11.237-27.382c2.038 0 3.887.824 5.223 2.16l.022.022a7.374 7.374 0 012.15 5.212 7.323 7.323 0 01-2.172 5.222 7.371 7.371 0 01-5.223 2.172 7.373 7.373 0 01-5.223-2.172 7.327 7.327 0 01-2.171-5.222c0-2.038.824-3.886 2.16-5.234h.011a7.367 7.367 0 015.223-2.16zm-4.911 2.917c.646.513.39 1.348-.022 2.283l-.201.446c-.089.211-.189.423-.289.657a1.272 1.272 0 01-.668.668 1.14 1.14 0 01-.546.1v.624c.802-.078 1.214.679 1.581 1.614l.178.49c.09.223.179.457.257.646.133.323.122.657 0 .946a1.244 1.244 0 01-.312.457l.234.234c.067.078.133.133.211.2.501-.612 1.337-.367 2.261.045l.445.2c.212.089.424.19.657.29.323.133.557.378.68.668.067.167.1.356.089.534.122.012.234.012.356.012h.29c-.078-.802.69-1.214 1.626-1.582l.456-.167c.212-.089.435-.167.668-.267.323-.122.657-.111.958 0 .167.067.312.178.446.312.089-.078.167-.156.256-.245.055-.056.122-.123.178-.189-.635-.502-.39-1.348.022-2.272l.201-.445c.1-.212.2-.424.289-.657a1.236 1.236 0 011.236-.769c.011-.122.011-.245.011-.356v-.29c-.801.078-1.213-.69-1.581-1.625l-.167-.457c-.078-.223-.167-.445-.256-.679a1.211 1.211 0 010-.947c.067-.167.167-.323.312-.445l-.234-.234-.011-.022c-.067-.067-.145-.134-.212-.201-.501.657-1.347.412-2.294 0l-.445-.2c-.212-.1-.424-.201-.657-.29a1.247 1.247 0 01-.669-.679 1.227 1.227 0 01-.1-.568c-.1 0-.211-.011-.323-.011-.1 0-.2.011-.3.011.1.813-.669 1.236-1.615 1.604l-.49.189c-.223.089-.457.167-.657.256a1.321 1.321 0 01-.947 0 1.336 1.336 0 01-.456-.334c-.078.078-.156.145-.234.223-.067.078-.145.144-.212.222zm-.702 1.983c.234-.546.401-1.025.268-1.303-.29.401-.524.824-.724 1.28a6.901 6.901 0 00-.412 1.437l.1-.034a.515.515 0 00.267-.267c.089-.212.201-.445.301-.679l.2-.434zm-.144 4.676c-.212-.534-.435-.991-.724-1.091.078.49.211.969.401 1.414.189.457.434.902.724 1.303.011-.033.033-.056.044-.089a.549.549 0 000-.379c-.1-.233-.189-.456-.267-.679l-.178-.479zm3.229 3.43c-.534-.234-1.013-.401-1.303-.267.401.289.836.523 1.292.724a6.6 6.6 0 001.426.412c-.012-.034-.012-.067-.034-.101a.497.497 0 00-.256-.267c-.223-.089-.457-.2-.69-.3l-.435-.201zm8.286-7.806c.211.546.434 1.014.735 1.114a7.077 7.077 0 00-.412-1.414 6.249 6.249 0 00-.713-1.303c-.022.022-.033.055-.045.089a.499.499 0 000 .378c.089.212.179.457.268.691l.167.445zm-3.575 7.951c-.546.211-1.002.434-1.103.724a6.413 6.413 0 001.415-.401 6.182 6.182 0 001.303-.713.35.35 0 00-.089-.044.449.449 0 00-.379 0c-.212.078-.457.178-.702.267l-.445.167zm3.408-3.229c-.245.534-.412 1.013-.279 1.302.29-.4.535-.835.724-1.291.189-.446.334-.925.412-1.426-.033 0-.067.012-.1.023a.496.496 0 00-.256.267c-.089.223-.201.456-.312.69l-.189.435zm-3.096-8.118c.534.234 1.024.412 1.303.267a6.654 6.654 0 00-1.292-.713 6.033 6.033 0 00-1.426-.412c.012.034.023.067.034.09a.454.454 0 00.267.267c.212.089.446.2.679.312l.435.189zm-4.689-.134c.546-.211 1.003-.434 1.103-.735-.49.089-.969.223-1.414.412-.457.19-.903.423-1.303.713.022.022.055.033.089.045a.453.453 0 00.378 0c.234-.09.457-.179.68-.257l.467-.178zm2.194 2.506c1.526 0 2.506.835 2.929 1.915.167.412.256.857.256 1.303 0 .445-.089.88-.256 1.303-.423 1.069-1.403 1.915-2.929 1.915-1.525 0-2.505-.846-2.929-1.915a3.572 3.572 0 01-.256-1.303c0-.446.089-.891.256-1.303.424-1.08 1.404-1.915 2.929-1.915zm2.239 2.193c-.323-.812-1.069-1.447-2.239-1.447-1.169 0-1.915.635-2.238 1.447a2.812 2.812 0 000 2.038c.323.813 1.069 1.448 2.238 1.448 1.17 0 1.916-.635 2.239-1.448a2.833 2.833 0 000-2.038zm-2.239-12.95c3.853 0 7.35 1.57 9.878 4.098a13.908 13.908 0 014.087 9.877c0 3.853-1.559 7.349-4.087 9.877a13.93 13.93 0 01-9.878 4.087 13.91 13.91 0 01-9.878-4.087 13.937 13.937 0 01-4.098-9.877c0-3.864 1.57-7.349 4.098-9.877a13.92 13.92 0 019.878-4.098zm9.344 4.621a13.202 13.202 0 00-9.344-3.864c-3.653 0-6.96 1.481-9.343 3.864a13.184 13.184 0 00-3.876 9.354c0 3.641 1.481 6.948 3.876 9.342a13.139 13.139 0 009.343 3.876c3.653 0 6.949-1.481 9.344-3.876a13.18 13.18 0 003.875-9.342c0-3.653-1.481-6.96-3.875-9.354zm-1.348 1.348a11.317 11.317 0 00-7.996-3.308c-3.129 0-5.958 1.27-7.996 3.308a11.282 11.282 0 00-3.318 8.006c0 3.118 1.269 5.946 3.318 7.995a11.232 11.232 0 007.996 3.307 11.27 11.27 0 007.996-3.307 11.278 11.278 0 003.319-7.995c0-3.129-1.27-5.958-3.319-8.006zm36.795 7.605v.178c0 .813 0 1.192-.423 1.448-.29.178-.724.178-1.526.167h-.412c.067 1.225.234 2.438.479 3.608l.245-.067c.2-.067.389-.123.556-.167.836-.223 1.504-.245 1.727.557l.044.167c.212.79.312 1.158-.033 1.514-.245.245-.657.356-1.426.557l-.401.1a24.137 24.137 0 001.392 3.363l.223-.134c.167-.111.334-.211.49-.3.746-.435 1.392-.624 1.815.1l.078.145c.412.712.602 1.035.368 1.469-.167.301-.546.513-1.236.902l-.357.201a25.749 25.749 0 002.216 2.895l.179-.189c.133-.156.278-.301.389-.412l.023-.023c.601-.601 1.169-.946 1.759-.356l.123.123c.579.579.846.846.735 1.314-.089.345-.401.645-.969 1.202l-.29.279a23.46 23.46 0 002.896 2.227l.111-.223c.089-.167.178-.334.279-.512.434-.746.89-1.236 1.614-.824l.023.011.122.078c.713.401 1.047.601 1.058 1.091 0 .345-.212.713-.624 1.403l-.211.357a24.954 24.954 0 003.374 1.391l.056-.245v-.022c.044-.189.089-.378.133-.545.223-.836.535-1.426 1.348-1.214l.022.011.145.033c.791.212 1.158.312 1.292.78l.011.033c.078.334-.033.735-.245 1.481l-.111.401c1.18.245 2.383.401 3.619.468l-.011-.245c-.011-.223-.011-.434-.011-.59 0-.858.156-1.515.991-1.515h.167c.824 0 1.203 0 1.459.423.178.29.167.724.156 1.526v.401a24.212 24.212 0 003.619-.468l-.078-.245c-.067-.2-.123-.401-.167-.557-.223-.835-.245-1.503.568-1.726l.167-.044c.779-.212 1.147-.312 1.503.033.256.234.357.657.557 1.426l.1.412a23.091 23.091 0 003.364-1.392l-.067-.123a14.808 14.808 0 01-.312-.49c-.434-.757-.635-1.403.1-1.826l.156-.089c.702-.412 1.036-.601 1.47-.368.301.179.512.546.913 1.248l.145.267a25.1 25.1 0 002.884-2.216l-.111-.089c-.156-.145-.312-.29-.423-.401l-.011-.022c-.613-.602-.958-1.181-.368-1.771l.123-.122c.579-.579.857-.847 1.325-.735.345.089.646.401 1.203.969l.222.222a25.514 25.514 0 002.216-2.895l-.245-.122a16.349 16.349 0 01-.501-.279l-.022-.011c-.735-.434-1.225-.891-.802-1.604l.078-.155c.412-.702.602-1.036 1.092-1.047.345 0 .712.211 1.403.623l.378.223a25.618 25.618 0 001.404-3.374l-.279-.067h-.011a20.202 20.202 0 01-.546-.133c-.835-.223-1.436-.535-1.225-1.348l.011-.022.034-.145c.211-.79.312-1.158.791-1.303h.022c.334-.089.746.034 1.492.245l.423.112c.245-1.181.401-2.383.468-3.619l-.278.011c-.212 0-.424.011-.579.011-.858 0-1.526-.156-1.515-.991v-.167c-.011-.824-.011-1.203.412-1.459.301-.178.724-.167 1.526-.156h.445a24.365 24.365 0 00-.479-3.63l-.278.089c-.201.067-.39.123-.557.167-.835.223-1.503.245-1.715-.568l-.044-.167c-.223-.779-.323-1.158.022-1.503.245-.256.657-.356 1.436-.557l.435-.111a25.894 25.894 0 00-1.403-3.385l-.245.156c-.179.111-.346.222-.502.3-.746.435-1.392.635-1.804-.089l-.089-.156c-.412-.701-.601-1.035-.367-1.458.167-.312.545-.513 1.236-.913l.401-.212a27.225 27.225 0 00-2.228-2.906l-.2.211c-.145.156-.29.312-.401.423l-.022.023c-.602.59-1.17.935-1.749.356l-.122-.123c-.579-.579-.858-.846-.735-1.325.078-.334.39-.634.958-1.191l.323-.323a26.33 26.33 0 00-2.395-1.882h-.011v-.011h-.011c-.156-.111-.323-.223-.479-.334l-.145.267c-.089.167-.178.334-.278.512-.434.746-.891 1.236-1.615.813l-.022-.011-.123-.067c-.712-.412-1.046-.601-1.046-1.091-.012-.356.211-.713.612-1.403l.234-.39a23.914 23.914 0 00-3.385-1.403l-.067.29v.011c-.045.189-.089.378-.134.545-.223.836-.535 1.437-1.347 1.214h-.023l-.145-.044c-.79-.201-1.158-.301-1.291-.78l-.011-.033c-.078-.323.033-.735.245-1.481l.122-.435a24.34 24.34 0 00-3.63-.467l.011.289c.011.212.022.423.022.579-.011.858-.156 1.515-.991 1.515h-.178c-.813 0-1.203.011-1.448-.412-.178-.301-.178-.724-.167-1.526v-.445a24.2 24.2 0 00-3.619.479l.078.267c.066.2.122.401.167.568.222.835.245 1.503-.557 1.715l-.167.044c-.791.212-1.158.312-1.515-.022-.245-.245-.356-.657-.557-1.437l-.111-.423a23.052 23.052 0 00-3.374 1.403l.156.234c.1.178.211.345.3.501.435.746.624 1.392-.1 1.804l-.145.089c-.712.412-1.035.602-1.47.368-.3-.167-.512-.546-.902-1.247l-.211-.379c-.156.111-.312.212-.468.323h-.011l-.011.011a24.538 24.538 0 00-2.406 1.893l.201.189c.156.145.3.29.412.401l.022.023c.601.601.947 1.169.356 1.748l-.122.122c-.579.579-.847.858-1.314.735-.346-.089-.646-.39-1.203-.957l-.301-.312a25.218 25.218 0 00-2.216 2.895l.234.134c.167.089.334.178.512.278.746.423 1.236.891.824 1.615l-.022.022-.067.122c-.412.713-.601 1.047-1.091 1.047-.345.011-.713-.211-1.403-.612l-.368-.223a23.73 23.73 0 00-1.392 3.374l.256.067h.023c.189.044.378.089.545.133.836.223 1.426.535 1.214 1.348l-.011.022-.033.145c-.212.79-.312 1.158-.78 1.292l-.033.011c-.334.078-.746-.034-1.481-.245l-.412-.112c-.034.167-.067.346-.101.524v.033h-.011v.011a24.55 24.55 0 00-.278 2.038l-.011.078v.078l-.012.022v.1l-.011.023v.122l-.011.034v.033l-.033.523.256-.011c.223-.011.434-.022.579-.022.869 0 1.526.156 1.526.991zm-.746.178v-.178c0-.2-.335-.245-.78-.245-.2.011-.379.011-.546.022l-.267.011v1.248l.401.011c.657.011 1.013.011 1.136-.056.056-.033.056-.289.056-.813zm64.78-1.581h11.582v-3.285h-.691v.356c.011.791.011 1.214-.178 1.504-.256.389-.624.389-1.425.389h-.234c-.824 0-.969-.646-.969-1.481 0-.144.011-.356.011-.556l.011-.212h-4.599l.011.356c0 .791.011 1.214-.178 1.504-.256.389-.635.389-1.426.389h-.234c-.824 0-.98-.646-.98-1.481 0-.144.012-.356.023-.556v-.212h-.724v3.285zm5.601-43.785c0-1.202.023-2.215.034-3.017.022-1.17.033-1.826-.022-2.16-.034-.156-.156-.156-.424-.145l-.356.011h-.011l-.011.011v4.91c.234.179.501.301.79.39zm-1.536-1.247v-4.053c0-.2.078-.39.222-.534a.767.767 0 01.546-.234h.334c.713-.022 1.036-.034 1.18.746.078.412.056 1.102.034 2.316-.011.768-.034 1.748-.034 3.118h1.849v-5.412c0-.212.089-.4.223-.534a.748.748 0 01.546-.234h.334c.712-.022 1.035-.034 1.18.746.067.412.056 1.102.034 2.316-.012.757-.034 1.748-.034 3.118h1.849v-5.412c0-.212.078-.4.222-.534a.75.75 0 01.546-.234h.334c.713-.022 1.036-.034 1.181.746.067.412.055 1.102.033 2.316-.011.757-.033 1.748-.033 3.118h1.848v-5.412c0-.212.078-.4.223-.534a.748.748 0 01.546-.234h.334c.713-.022 1.035-.034 1.18.746.067.412.056 1.102.034 2.316-.011.757-.034 1.748-.034 3.118h1.849v-5.412c0-.212.078-.4.223-.534a.746.746 0 01.545-.234h.334c.713-.022 1.025-.034 1.17.746.078.412.067 1.102.044 2.316-.011.757-.033 1.748-.033 3.118h1.837v-5.412c0-.212.089-.4.234-.534a.748.748 0 01.546-.234h.334c.713-.022 1.025-.034 1.169.746.078.412.067 1.102.045 2.316-.011.757-.034 1.748-.034 3.118h2.283v-5.434c0-.2.078-.39.212-.523a.778.778 0 01.535-.223h.3c.702-.022 1.003-.034 1.147.757.067.39.056 1.058.034 2.25-.023.768-.034 1.77-.045 3.173h2.094v-5.434c0-.2.089-.39.223-.523a.728.728 0 01.523-.223h.301c.701-.022 1.002-.034 1.147.757.066.39.055 1.058.033 2.25-.022.768-.033 1.77-.045 3.173h2.094v-5.434c0-.2.078-.39.223-.523a.731.731 0 01.523-.223h.301c.702-.022 1.013-.034 1.147.757.067.39.056 1.058.033 2.25a165.8 165.8 0 00-.044 3.173h2.093v-5.434c0-.2.09-.39.223-.523a.732.732 0 01.524-.223h.3c.702-.022 1.014-.034 1.147.757.067.39.056 1.058.034 2.25-.022.768-.034 1.77-.045 3.173h2.094v-5.434c0-.2.089-.39.223-.523a.728.728 0 01.523-.223h.301c.701-.022 1.013-.034 1.147.757.067.39.055 1.058.033 2.25-.011.768-.033 1.77-.033 3.173h1.737l.056-.011v-5.423a.743.743 0 01.746-.746h.312c.679-.022.98-.034 1.113.701.078.368.067.991.045 2.116-.011.523-.022 1.18-.034 2.038.212-.368.335-.79.335-1.247v-8.886a2.54 2.54 0 00-.758-1.804l-.022-.023a2.524 2.524 0 00-1.793-.735h-.278c.011 1.37.022 2.35.044 3.107.022 1.225.034 1.915-.044 2.316-.145.791-.457.78-1.181.758l-.334-.012a.757.757 0 01-.546-.222l-.022-.022a.785.785 0 01-.2-.524v-5.4h-1.838c0 1.37.022 2.349.034 3.106.022 1.225.033 1.915-.045 2.316-.145.791-.457.78-1.169.758l-.346-.012a.714.714 0 01-.534-.222l-.022-.022a.74.74 0 01-.212-.524v-5.4h-1.837c0 1.37.022 2.349.033 3.106.022 1.225.033 1.915-.033 2.316-.145.791-.468.78-1.181.758l-.334-.012a.74.74 0 01-.546-.222l-.022-.022a.73.73 0 01-.2-.524v-5.4h-1.849c0 1.37.022 2.349.033 3.106.023 1.225.034 1.915-.033 2.316-.145.791-.468.78-1.18.758l-.335-.012a.755.755 0 01-.545-.222l-.023-.022a.785.785 0 01-.2-.524v-5.4h-1.849c.012 1.37.023 2.349.045 3.106.022 1.225.033 1.915-.045 2.316-.144.791-.467.78-1.18.758l-.334-.012a.757.757 0 01-.546-.222l-.022-.022a.78.78 0 01-.201-.524v-5.4h-1.893c0 1.37.022 2.349.034 3.106.022 1.225.044 1.915-.034 2.316-.145.791-.467.78-1.18.758l-.334-.012a.74.74 0 01-.546-.222l-.022-.022a.78.78 0 01-.201-.524v-5.4h-1.993c0 1.37.022 2.349.033 3.106.023 1.225.034 1.915-.033 2.316-.156.791-.468.78-1.181.758l-.334-.012a.737.737 0 01-.545-.222l-.023-.022a.734.734 0 01-.2-.524v-5.4h-1.994c0 1.37.023 2.349.034 3.106.022 1.225.033 1.915-.045 2.316-.144.791-.456.78-1.169.758l-.345-.012a.714.714 0 01-.535-.222l-.033-.022a.78.78 0 01-.201-.524v-5.4h-1.993c.011 1.37.022 2.349.045 3.106.022 1.225.033 1.915-.045 2.316-.145.791-.457.78-1.18.758l-.335-.012a.756.756 0 01-.545-.222l-.022-.022a.78.78 0 01-.201-.524v-5.4h-1.993c.011 1.37.022 2.349.033 3.106.033 1.225.045 1.915-.033 2.316-.145.791-.468.78-1.181.758l-.334-.012a.759.759 0 01-.546-.222l-.022-.022a.785.785 0 01-.2-.524v-5.4h-1.994c0 1.37.023 2.349.034 3.106.022 1.225.044 1.915-.034 2.316-.145.791-.467.78-1.18.758l-.334-.012a.74.74 0 01-.546-.222l-.022-.022a.78.78 0 01-.201-.524V80.38a2.52 2.52 0 00-1.169.669 2.532 2.532 0 00-.746 1.804v8.886c0 .434.1.846.301 1.213zm5.668 1.359c0-1.258.022-2.305.033-3.13.023-1.168.034-1.825-.022-2.16-.033-.155-.156-.155-.423-.144l-.356.011h-.012l-.011.011v5.412h.791zm4.12 0c.012-1.258.034-2.305.045-3.13.022-1.168.033-1.825-.033-2.16-.023-.155-.145-.155-.412-.144l-.357.011h-.011l-.011.011v5.412h.779zm37.964-.479c0-1.158.023-2.138.034-2.906.011-1.058.033-1.648-.034-1.949-.022-.111-.122-.111-.356-.1l-.334.011v5.29a2.69 2.69 0 00.69-.346zm-3.987.479c0-1.292.023-2.36.045-3.185.022-1.136.033-1.781-.033-2.116-.023-.144-.134-.133-.368-.133l-.323.011v5.423h.679zm-4.276 0c0-1.292.022-2.36.045-3.185.011-1.136.033-1.781-.034-2.116-.022-.144-.133-.133-.367-.133l-.323.011v5.423h.679zm-4.276 0c0-1.292.022-2.36.033-3.185.022-1.136.045-1.781-.022-2.116-.022-.144-.134-.133-.368-.133l-.334.011v5.423h.691zm-4.277 0c0-1.292.023-2.36.034-3.185.022-1.136.033-1.781-.022-2.116-.023-.144-.134-.133-.379-.133l-.323.011v5.423h.69zm-4.276 0c0-1.292.022-2.36.033-3.185.023-1.136.034-1.781-.022-2.116-.022-.144-.133-.133-.378-.133l-.323.011v5.423h.69zm-24.3-14.02c0 .48-.022 5.401.023 5.423l.356.012c.267 0 .39.01.423-.145.056-.334.045-.991.023-2.172-.012-.813-.034-1.86-.034-3.118h-.791zm4.288 0c0 .48-.033 5.401.011 5.423l.356.012c.279 0 .39.01.424-.145.055-.334.044-.991.022-2.172-.011-.813-.033-1.86-.033-3.118h-.78zm4.276 0c0 .48-.033 5.401.011 5.423l.368.012c.267 0 .379.01.412-.145.067-.334.045-.991.022-2.172-.011-.813-.033-1.86-.033-3.118h-.78zm4.277 0c0 .48-.034 5.401.011 5.423l.367.012c.268 0 .39.01.412-.145.067-.334.056-.991.034-2.172-.023-.813-.045-1.86-.045-3.118h-.779zm4.276 0c0 .48-.033 5.401.022 5.423l.357.012c.267 0 .389.01.412-.145.067-.334.055-.991.033-2.172-.022-.813-.033-1.86-.044-3.118h-.78zm24.979 0c0 .48-.033 5.401.011 5.423l.368.012c.267 0 .378.01.412-.145.066-.334.044-.991.022-2.172-.011-.813-.034-1.86-.034-3.118h-.779zm-4.132 0c0 .48-.033 5.401.011 5.423l.368.012c.267 0 .39.01.412-.145.067-.334.056-.991.033-2.172-.022-.813-.033-1.86-.044-3.118h-.78zm-4.131 0c0 .48-.023 5.401.022 5.423l.356.012c.268 0 .39.01.412-.145.067-.334.056-.991.034-2.172-.022-.813-.034-1.86-.045-3.118h-.779zm-4.132 0c0 .48-.022 5.401.022 5.423l.357.012c.267 0 .39.01.412-.145.067-.334.056-.991.033-2.172-.011-.813-.033-1.86-.033-3.118h-.791zm-4.12 0c0 .48-.034 5.401.011 5.423l.356.012c.279 0 .39.01.423-.145.056-.334.045-.991.023-2.172-.012-.813-.034-1.86-.034-3.118h-.779zm-4.188 0c0 .48-.022 5.401.023 5.423l.356.012c.267 0 .39.01.423-.145.056-.334.045-.991.023-2.172-.012-.813-.034-1.86-.045-3.118h-.78zm8.364 14.766h-9.945v7.305h1.548l4.722-4.722a.345.345 0 01.267-.111h3.408v-2.472zm-22.34 0h-.857c.156.111.3.245.434.379l.022.022c.145.134.279.29.401.456v-.857zm4.143-.746c.011-1.258.022-2.305.045-3.13.022-1.168.033-1.825-.034-2.16-.022-.155-.145-.155-.412-.144l-.356.011h-.011l-.012.011v5.412h.78zm4.132 0c.011-1.258.022-2.305.044-3.13.022-1.168.034-1.825-.033-2.16-.023-.155-.145-.155-.412-.144l-.357.011h-.022v5.423h.78zm3.753 0h.378c.011-1.258.022-2.305.045-3.13.022-1.168.033-1.825-.034-2.16-.022-.155-.144-.155-.412-.144l-.356.011h-.022v5.423h.401zm2.483 20.155a1.29 1.29 0 011.247.824c.067.167.1.356.1.546 0 .178-.033.367-.1.534a1.29 1.29 0 01-1.247.824 1.29 1.29 0 01-1.247-.824 1.463 1.463 0 01-.101-.534c0-.19.034-.368.101-.546a1.29 1.29 0 011.247-.824zm.546 1.102c-.078-.189-.256-.345-.546-.345-.29 0-.468.156-.546.345a.68.68 0 00-.055.268c0 .089.022.178.055.256.078.2.256.345.546.345.29 0 .468-.145.546-.345a.66.66 0 00.044-.256.683.683 0 00-.044-.268zm-.457 12.294v-5.256h-3.586v5.256h3.586zm.746-5.256v5.256h2.584v-5.256h-2.584zm-5.078 20.378v-24.32h-9.522v19.699a.375.375 0 01-.378.378h-1.604v4.243h11.504zm2.127-25.066h.846c2.84.033 3.386.044 3.386-2.717 0-1.303-1.236-1.492-2.595-1.492-.379 0-.713.011-1.036.022l-.601.011v4.176zm-.757-22.861h-10.892v22.85h10.892v-22.85zm8.987 42.76c-.301-.334-1.125-.323-2.829-.323v4.933l.334.011c.234.011.479.011.769.011 1.024 0 1.993-.145 1.993-1.158l.011-.913c.011-1.481.011-2.238-.278-2.561zm-3.575.791h-6.036v2.705h6.036v-2.705zm-4.855 5.133h-27.485c-.056 0 .078.044.067.1-.011.067-.022.134-.022.212 0 .067.011.144.022.2.011.056-.123.1-.067.1h27.485c.055 0-.067-.044-.056-.1.011-.056.011-.133.011-.2 0-.078 0-.145-.011-.212-.011-.056.111-.1.056-.1zm-14.455-9.799v-.769h-11.582v.769h11.582zm0-1.515v-10.99h-11.582v10.99h11.582zm-1.448 2.272h-1.281v.234a7.696 7.696 0 00-.022.534c0 .412.033.735.223.735h.234c.523 0 .768 0 .801-.055.067-.101.056-.446.056-1.081l-.011-.367zm-7.372 0H495.2l-.011.234c-.011.167-.011.334-.011.534 0 .412.033.735.222.735h.234c.513 0 .758 0 .791-.055.067-.101.067-.446.056-1.081v-.367zm9.577 3.285h1.503V98.207c0-.868-.356-1.648-.935-2.227l-.011-.01a3.114 3.114 0 00-2.216-.914h-9.823a3.155 3.155 0 00-2.182.924c-.301.3-.535.657-.702 1.047v.022a3.066 3.066 0 00-.234 1.158v39.776h1.504v-16.915c0-.211.167-.378.378-.378h1.871V98.152c0-.212.178-.379.379-.379h7.84c.2 0 .378.167.378.379v22.538h1.871c.212 0 .379.167.379.378v16.915zm-10.09-33.484h7.083v-3.953h-7.083v3.953zm7.083 1.926h-7.083v14.265h7.083v-14.265zm0-1.18h-7.083v.423h7.083v-.423zm-7.083-5.445h7.083v-1.28h-7.083v1.28zm9.611 38.94h-11.593v4.243h11.593v-4.243zm-20.335-19.03h-18.219a25.71 25.71 0 012.561 2.238 25.095 25.095 0 016.638 11.692h4.309l5.78-5.779-1.069-8.151zm-74.447-16.625h-4.643v4.643l4.643-4.643zm-23.063 0h-6.058l6.058 4.766v-4.766zm64.023 24.631c3.33 0 6.348 1.359 8.53 3.541a12.026 12.026 0 013.531 8.53c0 3.329-1.348 6.347-3.531 8.53a12.026 12.026 0 01-8.53 3.529c-3.33 0-6.348-1.347-8.53-3.529a12.027 12.027 0 01-3.531-8.53c0-3.33 1.348-6.347 3.531-8.53a12.037 12.037 0 018.53-3.541zm-24.311 18.83a25.593 25.593 0 01-.913-6.759v-.167l-3.174.011.88 5.145h.412c.924 0 1.481.623 1.726 1.347.045.134.078.278.1.423h.969zm-.891-7.672c.034-1.092.145-2.161.312-3.207h-4.176l.546 3.207h3.318zm.446-3.964a25.306 25.306 0 016.916-12.962 25.724 25.724 0 012.572-2.238h-8.141v3.674c0 .089-.033.19-.1.257l-5.969 6.091v3.541l.278 1.637h4.444zm18.609 26.858l-.167-.044c-.201-.056-.323.256-.435.679a7.278 7.278 0 00-.122.523l-.067.279 1.214.323.111-.39c.167-.613.267-.958.234-1.091v-.023c-.022-.055-.256-.122-.768-.256zm-5.479-2.338l-.145-.089c-.178-.101-.379.167-.602.545-.078.134-.167.312-.267.49l-.122.234 1.091.635.2-.345c.346-.579.524-.88.524-1.014 0-.067-.223-.189-.679-.456zm-4.689-3.675l-.122-.122c-.134-.145-.39.055-.702.356l-.011.022c-.145.145-.256.267-.379.401l-.189.189.891.891.289-.278c.479-.468.724-.713.758-.847.022-.066-.156-.233-.535-.612zM431.867 151l-.078-.156c-.111-.178-.412-.044-.801.178-.156.09-.312.19-.468.29l-.223.145.624 1.08.356-.189c.579-.334.891-.502.947-.624.033-.056-.089-.267-.357-.724zm-2.216-5.534l-.044-.156c-.056-.2-.39-.156-.802-.045-.189.056-.356.112-.535.167l-.256.067.323 1.225.39-.1c.646-.167.991-.256 1.08-.356.045-.045-.022-.29-.156-.802zm.123-11.792l.044-.179c.056-.189-.256-.311-.679-.434-.178-.044-.345-.078-.523-.122l-.279-.056-.323 1.214.39.1c.613.178.947.267 1.091.245l.012-.011c.066-.011.133-.245.267-.757zm2.338-5.479l.09-.156c.1-.178-.168-.379-.546-.59-.134-.078-.312-.167-.49-.267l-.234-.123-.635 1.08.345.212c.579.334.88.523 1.014.512.067 0 .189-.212.456-.668zm3.675-4.688l.123-.123c.145-.144-.056-.4-.368-.701l-.011-.022c-.144-.134-.267-.256-.401-.379l-.189-.178-.891.891.279.289c.467.468.712.724.846.757.056.012.234-.155.612-.534zm4.756-3.575l.156-.089c.178-.1.044-.412-.179-.79a10.776 10.776 0 00-.289-.468l-.145-.223-1.091.624.2.356c.323.568.501.88.624.947.055.033.267-.089.724-.357zm5.523-2.227l.167-.044c.201-.045.156-.379.045-.802l-.167-.534-.078-.257-1.214.335.1.389c.167.635.256.98.357 1.08.044.045.278-.022.79-.167zm5.914-.712h.178c.2 0 .245-.334.245-.769-.011-.2-.011-.378-.022-.556l-.012-.268h-1.258v.412c-.011.657-.011 1.014.056 1.125.033.067.289.056.813.056zm5.891.846l.167.045c.2.044.323-.268.434-.691.056-.167.089-.345.134-.523l.055-.267-1.213-.323-.101.378c-.178.624-.267.958-.245 1.103v.011c.023.067.257.122.769.267zm5.479 2.327l.156.089c.178.101.367-.167.59-.545.078-.123.167-.301.267-.49l.123-.234-1.092-.624-.2.346c-.334.567-.523.879-.523 1.013.011.067.222.189.679.445zm4.688 3.675l.123.122c.145.145.401-.055.701-.356l.023-.022c.133-.134.256-.267.378-.39l.178-.2-.89-.891-.29.289c-.468.457-.724.702-.757.836-.011.066.156.244.534.612zm3.575 4.766l.089.145c.1.178.412.044.791-.178.156-.09.312-.179.468-.279l.222-.145-.623-1.091-.357.201c-.579.322-.879.501-.946.612-.034.067.089.278.356.735zm2.216 5.523l.045.167c.055.201.39.145.813.034.178-.045.356-.101.534-.156l.245-.078-.323-1.214-.389.1c-.635.167-.98.256-1.081.345-.044.056.023.29.156.802zm.724 5.913v.167c0 .212.334.245.769.245.2 0 .378-.011.556-.011l.256-.011v-1.259h-.4c-.657-.011-1.014-.022-1.125.056-.067.033-.067.278-.056.813zm-.846 5.891l-.045.167c-.055.2.267.323.691.434.167.044.345.089.512.122l.278.067.323-1.214-.378-.111c-.624-.167-.958-.267-1.103-.234h-.011c-.067.023-.134.256-.267.769zm-2.328 5.478l-.089.145c-.1.178.156.379.524.59l.022.011c.178.1.323.178.49.268l.234.122.623-1.091-.345-.201c-.568-.345-.88-.523-1.013-.523-.067 0-.19.212-.446.679zm-13.965 10.479l-.167.044c-.2.056-.145.379-.033.802.044.189.1.356.156.534l.078.257 1.213-.323-.1-.39c-.167-.646-.256-.991-.345-1.08-.056-.045-.289.022-.802.156zm-5.913.712h-.167c-.212 0-.245.334-.245.769 0 .211.011.378.011.556l.011.268h1.258v-.401c.012-.657.012-1.014-.055-1.136-.034-.056-.279-.056-.813-.056zm16.281-6.425l-.122.123c-.145.144.055.401.356.701l.022.022c.145.145.268.257.401.379l.145.145c.156-.156.323-.312.479-.468.134-.145.278-.289.423-.434l-.245-.245c-.457-.468-.713-.724-.846-.757-.067-.023-.234.156-.613.534zm-4.788 3.597l-.145.078c-.178.111-.045.423.178.802.089.155.189.311.289.467l.101.178c.378-.2.735-.412 1.102-.634l-.167-.301c-.334-.579-.501-.891-.623-.958-.056-.033-.268.101-.735.368zm-11.237-27.382c2.038 0 3.887.824 5.223 2.16l.022.022a7.377 7.377 0 01-.022 10.434 7.371 7.371 0 01-5.223 2.172 7.371 7.371 0 01-5.223-2.172 7.323 7.323 0 01-2.172-5.222c0-2.038.824-3.886 2.161-5.234h.011a7.365 7.365 0 015.223-2.16zm-4.911 2.917c.635.513.39 1.348-.022 2.283l-.201.446c-.089.211-.189.423-.289.657a1.27 1.27 0 01-.669.668 1.135 1.135 0 01-.545.1v.624c.802-.078 1.214.679 1.581 1.614l.178.49c.089.223.178.457.256.646.134.323.123.657 0 .946a1.241 1.241 0 01-.311.457l.233.234c.067.078.134.133.212.2.512-.612 1.336-.367 2.261.045l.445.2c.212.089.423.19.657.29.323.133.557.378.679.668.067.167.101.356.09.534.122.012.233.012.356.012h.29c-.078-.802.679-1.214 1.625-1.582l.457-.167c.212-.089.434-.167.668-.267.312-.122.657-.111.958 0 .167.067.312.178.445.312.078-.078.167-.156.257-.245.055-.056.122-.123.178-.189-.635-.502-.39-1.348.022-2.272l.2-.445c.101-.212.201-.424.29-.657a1.238 1.238 0 011.236-.769c.011-.122.011-.245.011-.356v-.29c-.802.078-1.214-.69-1.581-1.625l-.167-.457c-.078-.223-.167-.445-.256-.679a1.211 1.211 0 010-.947c.067-.167.167-.323.3-.445-.066-.078-.144-.156-.222-.234l-.011-.022c-.067-.067-.145-.134-.212-.201-.512.657-1.348.412-2.294 0l-.446-.2c-.211-.1-.423-.201-.657-.29a1.245 1.245 0 01-.668-.679 1.227 1.227 0 01-.1-.568c-.1 0-.212-.011-.323-.011-.1 0-.201.011-.301.011.1.813-.668 1.236-1.615 1.604l-.489.189c-.223.089-.457.167-.658.256a1.319 1.319 0 01-.946 0 1.35 1.35 0 01-.457-.334c-.078.078-.156.145-.234.223-.066.078-.144.144-.211.222zm-.702 1.983c.234-.546.401-1.025.267-1.303a6.334 6.334 0 00-.723 1.28 6.84 6.84 0 00-.412 1.437l.1-.034a.519.519 0 00.267-.267c.089-.212.201-.445.301-.679l.2-.434zm-.145 4.676c-.211-.534-.434-.991-.723-1.091.078.49.211.969.401 1.414.189.457.434.902.723 1.303.011-.033.034-.056.045-.089a.56.56 0 000-.379c-.1-.233-.189-.456-.267-.679l-.179-.479zm3.23 3.43c-.535-.234-1.013-.401-1.303-.267a7.04 7.04 0 001.292.724 6.59 6.59 0 001.425.412l-.033-.101a.488.488 0 00-.267-.267c-.212-.089-.446-.2-.68-.3l-.434-.201zm8.285-7.806c.212.546.435 1.014.735 1.114a7.012 7.012 0 00-.412-1.414 6.199 6.199 0 00-.712-1.303.208.208 0 00-.045.089.494.494 0 000 .378c.089.212.178.457.267.691l.167.445zm-3.574 7.951c-.546.211-1.003.434-1.114.724.49-.078.969-.212 1.425-.401a6.158 6.158 0 001.303-.713.32.32 0 00-.089-.044.446.446 0 00-.378 0c-.212.078-.457.178-.702.267l-.445.167zm3.407-3.229c-.233.534-.412 1.013-.278 1.302.29-.4.535-.835.724-1.291.189-.446.323-.925.412-1.426a.212.212 0 00-.089.023.477.477 0 00-.267.267c-.09.223-.201.456-.312.69l-.19.435zm-3.096-8.118c.535.234 1.025.412 1.303.267a6.646 6.646 0 00-1.291-.713 6.047 6.047 0 00-1.426-.412.637.637 0 00.034.09.452.452 0 00.267.267c.211.089.445.2.679.312l.434.189zm-4.677-.134c.535-.211.991-.434 1.092-.735-.49.089-.969.223-1.415.412a6.18 6.18 0 00-1.303.713c.023.022.056.033.089.045a.456.456 0 00.379 0c.234-.09.457-.179.679-.257l.479-.178zm2.183 2.506c1.526 0 2.506.835 2.929 1.915.167.412.256.857.256 1.303 0 .445-.089.88-.256 1.303-.423 1.069-1.403 1.915-2.929 1.915-1.526 0-2.506-.846-2.929-1.915a3.572 3.572 0 01-.256-1.303c0-.446.089-.891.256-1.303.423-1.08 1.403-1.915 2.929-1.915zm2.238 2.193c-.323-.812-1.069-1.447-2.238-1.447s-1.916.635-2.238 1.447a2.812 2.812 0 000 2.038c.322.813 1.069 1.448 2.238 1.448s1.915-.635 2.238-1.448a2.812 2.812 0 000-2.038zm-2.238-12.95c3.853 0 7.35 1.57 9.878 4.098a13.908 13.908 0 014.087 9.877c0 3.853-1.559 7.349-4.087 9.877a13.93 13.93 0 01-9.878 4.087 13.93 13.93 0 01-9.878-4.087 13.937 13.937 0 01-4.098-9.877c0-3.864 1.57-7.349 4.098-9.877a13.94 13.94 0 019.878-4.098zm9.343 4.621a13.198 13.198 0 00-9.343-3.864c-3.653 0-6.96 1.481-9.343 3.864a13.184 13.184 0 00-3.876 9.354c0 3.641 1.481 6.948 3.876 9.342a13.139 13.139 0 009.343 3.876c3.653 0 6.949-1.481 9.343-3.876a13.177 13.177 0 003.876-9.342c0-3.653-1.481-6.96-3.876-9.354zm-1.347 1.348a11.317 11.317 0 00-7.996-3.308c-3.129 0-5.958 1.27-7.996 3.308a11.283 11.283 0 00-3.319 8.006c0 3.118 1.27 5.946 3.319 7.995a11.232 11.232 0 007.996 3.307 11.27 11.27 0 007.996-3.307 11.278 11.278 0 003.319-7.995c0-3.129-1.27-5.958-3.319-8.006zm-37.875 3.596c-.011-.011-.011-.033-.011-.044l-.334-1.971v-3.775a.37.37 0 01.122-.29l5.947-6.068v-3.519h-18.185v3.519l5.946 6.068a.37.37 0 01.123.29v3.775l-.334 1.971-.011.033-1.604 9.41h9.945l-.925-5.435c-.011-.022-.011-.033-.011-.055l-.668-3.909zm-10.535 12.305h14.043c.156 0 .267-.156.334-.368a.879.879 0 00.034-.245.608.608 0 01-.023-.155.6.6 0 01.023-.145 1.833 1.833 0 00-.09-.412c-.144-.446-.478-.824-1.013-.824h-12.573c-.534 0-.869.378-1.013.824a1.777 1.777 0 00-.089.412.356.356 0 010 .3.88.88 0 00.044.245c.056.212.167.368.323.368zm-22.863-39.431h16.916v-5.166H388.48v5.166zm105.072-27.693l18.074-15.222-3.419-4.187-17.918 15.467 3.263 3.942zm-2.016-6.013l14.043-12.116-4.789-5.79-4.499 3.73-9.789 8.096 5.034 6.08zm-7.138-56.602c-.613-.01-1.214-.01-1.76-.022-.69-.011-1.303-.022-1.993-.022-3.82 0-4.254.445-4.288 4.12l8.041-4.076zm-8.219 5.011c-.022 0-.033.011-.056.023l-2.216 1.124c-.022.011-.033.011-.044.023l-3.876 1.96-29.756 15.088h-.022c-.546.29-1.315.356-2.161.356-.334 0-.735-.011-1.147-.033-.256-.011-.512-.011-.78-.023v9.822l2.517.044 46.818-23.495v-9.599l-9.277 4.71zm-.568-.556c0-4.689.379-5.245 5.034-5.245.501 0 1.202.01 2.004.022.88.011 1.882.022 3.174.022h4.199c0-1.147-.023-2.037-.034-2.761-.022-.947-.033-1.648-.011-2.183h-15.892v10.913l1.526-.768zm1.481 58.505h-5.523a.38.38 0 01-.379-.368v-2.973c0-.2.178-.378.379-.378h5.835l.245-2.773h-5.512a.383.383 0 01-.379-.379V71.06c0-.2.167-.367.379-.367h5.835l.223-2.628h-5.513a.382.382 0 01-.378-.379v-2.973c0-.2.167-.368.378-.368h5.836l.178-2.093c.022-.2.033-.39.033-.557.045-2.383-.991-4.532-2.639-6.135-1.648-1.615-3.931-2.684-6.359-2.895a7.335 7.335 0 00-.69-.034l-30.336-.546-2.584-.044V83.24c0 .435.012.835.034 1.248.011.467.033.935.033 1.347 0 .445-.022.88-.067 1.28v.357c0 .356.145.69.379.924l.011.022c.245.245.579.39.947.39h37.652c.356 0 .701-.123.958-.334.245-.19.401-.445.423-.735l.601-6.837zm-5.145-.746h5.201l.056-.624.144-1.592h-5.401v2.216zm.557-6.503h5.212l.056-.657.133-1.56h-5.401v2.217zm.557-6.347h5.201l.055-.58.134-1.636h-5.39v2.216zm12.907-38.874L440.242 51.36l28.81.512c.267.011.512.022.746.044 2.606.223 5.045 1.37 6.815 3.107 1.793 1.737 2.907 4.087 2.862 6.681 0 .212-.011.424-.022.613l-1.024 11.848 7.294-6.035.011-.012 14.867-12.293.011-.011 12.863-10.646V17.954h-27.262v10.123c0 .167-.1.3-.245.356zm4.8-11.236h7.895l-5.089-5.79a35.242 35.242 0 01-1.347-.056h-.012c-.824-.044-1.236-.067-1.347.167a.988.988 0 00-.1.323v5.356zm-49.702 22.705l25.046-12.694h-25.035v12.394c0 .111 0 .211-.011.3zm.011-13.44h26.516l5.067-2.572.679-.346v-11.29h-39.868c.379.222.735.5 1.047.812l.022.022a5.331 5.331 0 011.581 3.809v2.984h4.589c.2 0 .367.167.367.378v6.203zm-4.956 14.264l.802.023c.368.01.735.022 1.125.022 1.258 0 2.283-.167 2.283-1.17V20.628h-4.21v20.1zm-.757 46.301v-3.474h-94.403l-.011.568c-.011.334-.022.69-.022 1.091 0 1.782.267 3.597 2.283 3.597h5.557v-.29c-.011-.256-.022-.5-.022-.69 0-1.102.189-2.015 1.347-2.015h33.699c1.158 0 1.347.913 1.347 2.015 0 .19-.011.434-.022.69l-.011.29h48.688c1.036 0 1.437-.746 1.57-1.782zm-37.607-5.88v-1.113c0-.022.011-.033.011-.055l.156-61.034v-.233h-33.287c-3.742 0-6.537 6.436-9.677 13.685l-.134.312c-1.893 4.376-3.519 9.242-4.688 13.663-1.27 4.777-2.005 9.03-2.005 11.57v24.854h49.624v-1.648zm33.554-.745h-32.797v2.393h34.01v-.501c0-.879-.122-1.892-1.213-1.892zm-46.951 8.407l.011-.312c0-.211.011-.423.011-.668 0-.69-.078-1.27-.59-1.27h-33.699c-.512 0-.59.58-.59 1.27 0 .245 0 .457.011.668l.011.312h34.835zm16.281-67.09h13.62c1.47 0 2.294.166 2.795.734.49.557.568 1.414.568 2.84v8.752c0 .869 0 1.303-.167 1.66-.167.378-.434.578-.98.957l-6.448 4.499c-1.515 1.046-1.526 1.046-3.218 1.035l-6.17.011a.38.38 0 01-.367-.378V22.097c0-.212.167-.379.367-.379zm13.62.745H401.02V41.45h5.791c1.447 0 1.47 0 2.784-.913l6.448-4.499c.434-.29.646-.445.735-.634.089-.212.089-.59.089-1.359v-8.752c0-1.236-.056-1.971-.379-2.35-.323-.367-.98-.479-2.227-.479zm.423-3.752H398.67v25.555h9.154c1.648.012 1.67.012 3.152-1.024 2.349-1.637 4.955-3.318 7.227-5.033.49-.345.735-.524.835-.735.112-.256.112-.68.112-1.548l-.011-12.605c0-1.982-.134-3.163-.735-3.797-.602-.635-1.738-.813-3.72-.813zm-48.543 2.639h24.21a4.4 4.4 0 013.096 1.28 4.377 4.377 0 011.281 3.096v18.25c0 .535-.212.98-.557 1.326-.357.356-.858.59-1.403.69l-33.387 6.07c-1.348.244-2.495.1-3.397-.29a4.132 4.132 0 01-1.626-1.259 4.054 4.054 0 01-.79-1.804c-.167-.88-.056-1.837.345-2.75.256-.59.735-1.904 1.359-3.619 2.583-7.093 7.639-20.99 10.869-20.99zm24.21.757h-24.21c-2.707 0-7.651 13.563-10.168 20.478-.624 1.737-1.102 3.051-1.37 3.675a3.973 3.973 0 00-.3 2.327c.1.535.311 1.035.646 1.47.334.423.779.78 1.336 1.024.779.346 1.771.457 2.962.245l33.387-6.069c.401-.078.757-.245 1.013-.49.201-.2.323-.467.323-.79V25.727a3.601 3.601 0 00-1.058-2.561 3.601 3.601 0 00-2.561-1.058zM343.89 58.32l-2.918 10.89v13.586h6.404V58.32h-3.486zm13.676-.746c1.57 0 2.561 1.17 2.995 2.684.156.557.234 1.17.234 1.77 0 .602-.078 1.214-.234 1.77-.434 1.515-1.425 2.696-2.995 2.696-1.582 0-2.573-1.18-2.996-2.695a6.24 6.24 0 01-.245-1.77c0-.602.078-1.214.245-1.771.423-1.515 1.414-2.684 2.996-2.684zm2.271 2.884c-.345-1.202-1.102-2.138-2.271-2.138-1.181 0-1.938.936-2.283 2.138a6.052 6.052 0 00-.201 1.57c0 .535.067 1.08.201 1.57.345 1.203 1.102 2.139 2.283 2.139 1.169 0 1.926-.936 2.271-2.138.134-.49.212-1.036.212-1.57 0-.535-.078-1.08-.212-1.57zm188.294-19.041c.356-.056.702-.1 1.025-.134 1.971-.256 3.062-.39 3.062-1.893 0-.813-.835-1.236-1.771-1.693-.222-.11-.445-.222-.634-.322a.37.37 0 01-.201-.357l-.033-6.403c0-.022-.011-.055-.011-.077l.011-.825-.011-.824c0-.033.011-.055.011-.078l.033-6.402a.397.397 0 01.201-.368c.189-.1.412-.211.634-.323.936-.456 1.771-.868 1.771-1.681 0-1.515-1.091-1.648-3.062-1.893-.323-.045-.669-.078-1.025-.134v23.407zM531.048 20.76c2.094 0 3.987.846 5.356 2.216l.023.022a7.545 7.545 0 012.194 5.334 7.548 7.548 0 01-2.217 5.356 7.546 7.546 0 01-5.356 2.216 7.55 7.55 0 01-5.357-2.216 7.551 7.551 0 01-2.216-5.356c0-2.094.847-3.987 2.216-5.356h.011a7.544 7.544 0 015.346-2.216zm4.822 2.75a6.801 6.801 0 00-9.644 0 6.792 6.792 0 00-1.994 4.822 6.79 6.79 0 001.994 4.821 6.801 6.801 0 009.644 0 6.8 6.8 0 002.004-4.821 6.82 6.82 0 00-1.982-4.81l-.022-.012zm.935-6.314l-2.884-1.659h-6.715l-2.884 1.66h12.483zm-19.622 22.605h30.191V17.954h-30.191v21.848zm30.191.757h-30.191v2.573h30.191v-2.573zm-30.948 2.573V17.954h-2.194v25.178h2.194zm22.696 9.944h5.468v-4.978h-5.468v4.977zm1.303-9.187h-21.972v9.186h19.911V47.72c0-.2.167-.367.379-.367h1.682V43.89zm16.604 0h-15.858v3.463h3.786c.212 0 .379.167.379.367v5.356h11.693V43.89zM429.195 89.566h-68.689v4.744h68.689v-4.744z" fill="#000"/></svg>