<svg width="627" height="205" fill="none" xmlns="http://www.w3.org/2000/svg"><path d="M386.411 9.59h33.135v89.192h-33.135V9.591zm131.662 154.952c-.05.176-.138.338-.251.489-.112.137-.25.263-.4.35-.389.213-.89.238-1.353-.125-.464-.376-.552-.852-.439-1.277.05-.176.138-.338.263-.476.1-.151.251-.276.401-.363.376-.226.877-.238 1.341.137.463.364.563.852.438 1.265zm-4.059 2.818a7.585 7.585 0 01-1.052 1.853c0 .025-.025.025-.025.05a7.231 7.231 0 01-3.646 2.493c-.025.012-.075.037-.112.037a8.716 8.716 0 01-2.568.363c-.965 0-1.817-.125-2.594-.363-.037-.012-.1-.025-.137-.037-2.331-.739-3.896-2.405-4.698-4.396-.426-1.052-.627-2.204-.627-3.356 0-1.152.201-2.305.627-3.357 1.077-2.692 3.558-4.809 7.429-4.809 2.843 0 4.935 1.165 6.276 2.868.025.063.087.1.125.163a7.37 7.37 0 011.002 1.778 8.986 8.986 0 01.639 3.357 8.98 8.98 0 01-.639 3.356zm-.05 1.866c.15-.113.313-.2.489-.251.175-.05.363-.075.538-.05.439.038.852.313 1.015.877.175.589-.025 1.039-.376 1.302-.15.126-.313.201-.488.251a1.282 1.282 0 01-.539.063c-.439-.051-.852-.326-1.027-.89a1.57 1.57 0 010-.726c.087-.1.138-.225.213-.326.062-.087.087-.2.175-.25zm-4.021 3.444c.163.075.325.163.463.275.326.301.489.764.288 1.328-.213.563-.638.801-1.089.814a1.3 1.3 0 01-.527-.088 1.423 1.423 0 01-.463-.275c-.338-.301-.501-.764-.288-1.328.175-.476.526-.689.902-.751.087-.038.188-.025.275-.05.151.012.301.025.439.075zm-5.788.3l.013.013c.087.15.15.313.188.476.1.438-.05.914-.539 1.24-.514.325-1.002.275-1.366.025a2.22 2.22 0 01-.375-.389 1.298 1.298 0 01-.201-.5c-.1-.439.038-.915.539-1.24.338-.226.639-.238.927-.163.163.063.301.138.476.175.125.1.25.213.338.363zm-4.835-2.529c-.176.4-.577.714-1.165.701-.602-.025-.978-.351-1.128-.776a1.48 1.48 0 01-.075-.526c0-.188.05-.364.113-.539.175-.401.576-.701 1.165-.689.601.013.964.351 1.127.764.05.163.088.351.075.539 0 .175-.05.363-.112.526zm-1.942-5.31a1.38 1.38 0 01-.376.388c-.376.238-.864.288-1.353-.05-.501-.338-.639-.814-.539-1.24a1.49 1.49 0 01.213-.501c.113-.15.238-.288.389-.388.363-.238.864-.288 1.353.05.488.338.626.814.526 1.252a1.432 1.432 0 01-.213.489zm-.501-6.412c-.188-.551-.013-1.027.313-1.315.138-.113.288-.213.464-.263.175-.063.363-.1.538-.088.439.013.865.276 1.065.827.2.576.025 1.039-.301 1.327-.137.113-.3.201-.463.263-.176.063-.363.1-.539.088-.438-.013-.877-.263-1.077-.839zm6.138-3.006a1.31 1.31 0 01-.538-.037 1.588 1.588 0 01-.489-.226c-.351-.263-.564-.714-.413-1.302.162-.564.563-.852 1.002-.902.175-.025.376-.012.551.038.175.05.338.125.476.238.351.263.564.713.413 1.29-.075.275-.2.475-.375.613-.138.05-.226.138-.351.176-.1.037-.176.1-.276.112zm5.963-.426a1.32 1.32 0 01-.388-.363 1.467 1.467 0 01-.238-.488c-.113-.426 0-.914.488-1.253.476-.363.965-.325 1.341-.1.15.1.288.238.401.376.1.15.188.313.238.488.1.426-.013.902-.489 1.265a1.17 1.17 0 01-.701.251c-.113-.038-.238-.05-.339-.088-.112-.025-.213-.025-.313-.088zm4.698 2.042c.163-.401.551-.727 1.14-.727.601 0 .977.326 1.152.727v.025c.063.15.088.325.088.513s-.025.376-.088.526c-.175.413-.551.739-1.152.739-.514 0-.827-.263-1.027-.576-.038-.075-.075-.175-.138-.25a1.675 1.675 0 01-.075-.439c0-.188.037-.363.1-.538zm2.192 5.084c-.188.1-.326.251-.476.413-.1-.851-.275-1.703-.589-2.492-.062-.15-.175-.288-.238-.438.101.013.151.088.251.088 1.002 0 1.641-.564 1.929-1.278.113-.263.163-.551.163-.839 0-.275-.05-.563-.15-.826l-.013-.025c-.288-.714-.927-1.253-1.929-1.253-.99 0-1.641.539-1.929 1.265-.05.138-.05.288-.075.426a7.972 7.972 0 00-2.155-1.49c.05-.038.113-.025.175-.075.802-.589.99-1.416.802-2.154a2.577 2.577 0 00-.363-.777 2.89 2.89 0 00-.639-.589c-.652-.4-1.491-.475-2.293.126-.814.588-.989 1.415-.801 2.154.05.188.15.35.25.513-.401-.037-.752-.163-1.177-.163-.715 0-1.303.151-1.917.263.037-.087.113-.125.138-.238.263-.964-.101-1.728-.714-2.191a2.299 2.299 0 00-.777-.363 1.966 1.966 0 00-.852-.075c-.764.1-1.466.576-1.729 1.54-.25.964.113 1.728.714 2.191.126.076.251.113.376.176a8.104 8.104 0 00-1.779 1.465c-.012-.063.013-.1 0-.163-.338-.952-1.077-1.365-1.841-1.39a2.217 2.217 0 00-.852.125 2.5 2.5 0 00-.752.426c-.563.514-.877 1.303-.538 2.242.325.952 1.064 1.365 1.829 1.402.162 0 .325-.05.476-.087v.012c-.339.852-.501 1.754-.602 2.668-.1-.1-.112-.226-.25-.313-.827-.564-1.666-.464-2.305-.038a2.49 2.49 0 00-.602.601 2.121 2.121 0 00-.35.789c-.163.752.05 1.566.877 2.142.826.551 1.666.463 2.305.037.162-.112.275-.263.4-.4a9.76 9.76 0 00.527 1.853c.025.063.075.113.1.175-.088-.012-.138-.075-.226-.087-1.014-.025-1.678.501-1.979 1.202a2.473 2.473 0 00-.188.839c0 .288.038.589.138.852.263.726.889 1.289 1.892 1.327.989.038 1.653-.501 1.966-1.202.05-.138.063-.276.088-.426a7.517 7.517 0 001.929 1.478c-.05.037-.1.025-.163.062-.826.539-1.064 1.353-.914 2.104.05.288.175.551.338.789.163.251.363.464.601.626.614.439 1.466.551 2.305 0 .827-.563 1.065-1.377.902-2.116-.025-.188-.125-.351-.213-.513.539.087 1.04.225 1.642.225.4 0 .726-.113 1.114-.163-.062.1-.15.15-.2.263-.351.939-.05 1.728.526 2.242.213.188.464.351.727.451a2.9 2.9 0 00.852.137c.764-.025 1.503-.438 1.854-1.365.35-.939.05-1.74-.514-2.241-.113-.113-.263-.163-.388-.251a7.564 7.564 0 002.192-1.503c.012.063-.013.113 0 .188.288.952.99 1.415 1.754 1.491.288.025.576 0 .852-.088.288-.075.551-.213.776-.388.589-.476.94-1.24.664-2.204-.275-.952-.989-1.428-1.741-1.491-.188-.025-.363.025-.539.05.088-.162.201-.3.263-.463a8.75 8.75 0 00.539-2.041c.088.1.1.2.2.288.79.613 1.642.576 2.293.188.263-.138.476-.339.651-.564.188-.225.326-.476.401-.764.213-.726.063-1.565-.726-2.166-.79-.627-1.629-.589-2.293-.201zm-7.103 2.58c-.325.776-1.027 1.39-2.154 1.39-1.14 0-1.855-.614-2.168-1.39a2.674 2.674 0 01-.188-.989c0-.338.063-.677.188-.99.313-.776 1.028-1.39 2.168-1.39 1.127 0 1.829.614 2.154 1.39.125.313.176.652.176.99 0 .338-.051.676-.176.989zm-2.154-4.22c-1.541 0-2.531.851-2.957 1.928-.163.414-.25.852-.25 1.303 0 .438.087.889.25 1.302.426 1.09 1.416 1.929 2.957 1.929 1.528 0 2.505-.839 2.931-1.929.175-.413.25-.864.25-1.302 0-.451-.075-.889-.25-1.303-.426-1.077-1.403-1.928-2.931-1.928zm12.402 15.641a17.479 17.479 0 01-12.415 5.147 17.5 17.5 0 01-12.415-5.147 17.468 17.468 0 01-5.148-12.41c0-4.847 1.967-9.243 5.148-12.411a17.5 17.5 0 0112.415-5.147c4.848 0 9.245 1.966 12.415 5.147a17.415 17.415 0 015.148 12.411c0 4.846-1.954 9.242-5.148 12.41zm-12.415-30.82c-5.086 0-9.684 2.067-13.016 5.385a18.362 18.362 0 00-5.387 13.025c0 5.084 2.055 9.68 5.387 13.011a18.348 18.348 0 0013.016 5.398c5.086 0 9.696-2.066 13.028-5.398a18.324 18.324 0 005.387-13.011c0-5.085-2.054-9.693-5.387-13.025a18.424 18.424 0 00-13.028-5.385zm4.334 20.376c-.626 1.578-2.067 2.805-4.321 2.805-2.268 0-3.721-1.227-4.347-2.805a5.478 5.478 0 010-3.932c.626-1.566 2.079-2.793 4.347-2.793 2.254 0 3.695 1.227 4.321 2.793.251.613.376 1.289.376 1.966 0 .676-.125 1.352-.376 1.966zm-4.321-7.589c-2.669 0-4.385 1.465-5.124 3.343a6.204 6.204 0 00-.439 2.28c0 .776.151 1.553.439 2.279.739 1.878 2.455 3.331 5.124 3.331 2.655 0 4.359-1.453 5.111-3.331a6.185 6.185 0 00.426-2.279 6.19 6.19 0 00-.426-2.28c-.752-1.878-2.456-3.343-5.111-3.343zm14.656 20.288a20.625 20.625 0 01-14.656 6.073 20.686 20.686 0 01-14.682-6.073c-3.746-3.757-6.076-8.93-6.076-14.665 0-5.723 2.33-10.921 6.076-14.665a20.687 20.687 0 0114.682-6.074 20.626 20.626 0 0114.656 6.074 20.642 20.642 0 016.076 14.665 20.644 20.644 0 01-6.076 14.665zm-14.656-36.256a21.54 21.54 0 00-15.284 6.325 21.56 21.56 0 00-6.314 15.266 21.562 21.562 0 006.314 15.266 21.543 21.543 0 0015.284 6.324c5.95 0 11.349-2.417 15.258-6.324a21.523 21.523 0 006.326-15.266 21.521 21.521 0 00-6.326-15.266 21.524 21.524 0 00-15.258-6.325zm-87.767 22.129a1.3 1.3 0 01-.25.489 1.535 1.535 0 01-.401.35c-.388.213-.877.238-1.34-.125-.476-.376-.577-.852-.451-1.277.05-.176.137-.338.25-.476.113-.151.263-.276.414-.363.375-.226.876-.238 1.34.137.463.364.564.852.438 1.265zm-4.058 2.818a7.588 7.588 0 01-1.053 1.853c0 .025-.012.025-.025.05a7.25 7.25 0 01-3.633 2.493c-.05.012-.075.037-.125.037-.764.238-1.629.363-2.581.363a8.794 8.794 0 01-2.58-.363 2.182 2.182 0 00-.138-.037c-2.33-.739-3.896-2.405-4.698-4.396-.426-1.052-.626-2.204-.626-3.356 0-1.152.2-2.305.626-3.357 1.078-2.692 3.558-4.809 7.416-4.809 2.869 0 4.961 1.165 6.289 2.868h.013c.012.063.075.1.112.151a7.88 7.88 0 011.003 1.79c.438 1.052.638 2.205.638 3.357 0 1.152-.2 2.304-.638 3.356zm-.051 1.866c.138-.113.301-.2.489-.251a1.32 1.32 0 01.539-.05c.438.038.852.313 1.014.877.176.589-.025 1.039-.375 1.302a1.13 1.13 0 01-.489.251 1.27 1.27 0 01-.526.063c-.451-.051-.865-.326-1.027-.89a1.285 1.285 0 010-.726c.075-.1.125-.225.2-.326.063-.087.1-.2.175-.25zm-4.021 3.444c.176.075.326.163.464.275.325.301.501.764.288 1.328-.213.563-.639.801-1.078.814a1.318 1.318 0 01-.538-.088 1.428 1.428 0 01-.464-.275c-.325-.301-.501-.764-.288-1.328.176-.476.526-.689.902-.751.088-.038.188-.025.276-.05.138.012.3.025.438.075zm-5.787.3l.012.013c.088.15.15.313.188.476.088.438-.05.914-.539 1.24-.501.325-1.002.275-1.365.025a1.839 1.839 0 01-.376-.389 1.312 1.312 0 01-.2-.5c-.101-.439.05-.915.538-1.24.338-.226.639-.238.927-.163.163.063.301.138.476.175.126.1.251.213.339.363zm-4.836-2.529c-.188.4-.564.714-1.165.701-.601-.025-.965-.351-1.127-.776a1.814 1.814 0 01-.076-.526c0-.188.05-.364.113-.539.188-.401.564-.701 1.165-.689.601.013.977.351 1.115.764.063.163.088.351.088.539 0 .175-.038.363-.113.526zm-1.942-5.31a1.566 1.566 0 01-.376.388c-.375.238-.864.288-1.365-.05-.489-.338-.626-.814-.526-1.24a1.47 1.47 0 01.213-.501c.113-.15.238-.288.388-.388.363-.238.865-.288 1.353.05.501.338.626.814.539 1.252a1.442 1.442 0 01-.226.489zm-.488-6.412c-.213-.551-.038-1.027.3-1.315.138-.113.301-.213.476-.263a1.3 1.3 0 01.527-.088c.438.013.876.276 1.077.827.188.576.012 1.039-.313 1.327a1.588 1.588 0 01-.476.263c-.163.063-.351.1-.526.088-.451-.013-.877-.263-1.065-.839zm6.126-3.006a1.313 1.313 0 01-.539-.037 1.6 1.6 0 01-.489-.226c-.35-.263-.563-.714-.401-1.302.151-.564.552-.852.99-.902a1.3 1.3 0 01.539.038c.188.05.351.125.501.238.351.263.551.713.401 1.29a1.197 1.197 0 01-.376.613c-.138.05-.226.138-.363.188-.088.025-.163.088-.263.1zm5.963-.426a1.488 1.488 0 01-.389-.363c-.1-.15-.188-.313-.238-.488-.1-.426 0-.914.489-1.253.476-.363.964-.325 1.34-.1.151.1.288.238.401.376.113.15.188.313.226.488.112.426 0 .902-.476 1.265a1.173 1.173 0 01-.702.251c-.113-.038-.225-.05-.351-.088-.1-.025-.2-.025-.3-.088zm4.697 2.042c.163-.401.552-.727 1.14-.727.602 0 .977.326 1.153.727v.025c.062.15.088.325.088.513s-.038.376-.088.526c-.176.413-.551.739-1.153.739-.501 0-.827-.263-1.027-.589-.05-.075-.075-.162-.125-.237a1.305 1.305 0 01-.088-.439c0-.188.038-.363.1-.538zm2.193 5.084c-.188.1-.326.251-.476.413-.101-.851-.276-1.703-.589-2.492-.063-.15-.176-.288-.238-.438.1.013.15.088.25.088 1.002 0 1.641-.564 1.93-1.278.112-.263.162-.551.162-.839 0-.275-.037-.563-.15-.826l-.012-.025c-.289-.714-.928-1.253-1.93-1.253-1.002 0-1.641.539-1.916 1.265-.063.138-.063.288-.088.426a7.775 7.775 0 00-2.155-1.49c.05-.038.113-.025.176-.075.801-.589.989-1.416.801-2.154a2.348 2.348 0 00-.375-.777 2.573 2.573 0 00-.627-.589c-.639-.4-1.491-.475-2.305.126-.789.588-.99 1.415-.789 2.154.05.188.15.35.238.513-.388-.037-.739-.163-1.178-.163-.701 0-1.29.151-1.904.263.038-.087.113-.125.151-.238.25-.964-.113-1.728-.727-2.191a2.299 2.299 0 00-.777-.363 2.02 2.02 0 00-.864-.075c-.752.1-1.466.576-1.716 1.54-.263.964.112 1.728.726 2.191.1.076.238.113.364.176a8.058 8.058 0 00-1.779 1.465c-.013-.063.012-.1-.013-.163-.326-.952-1.065-1.365-1.829-1.39a2.217 2.217 0 00-.852.125 2.495 2.495 0 00-.751.426c-.564.514-.877 1.303-.539 2.242.326.952 1.065 1.365 1.829 1.402.163 0 .326-.05.476-.087v.012c-.338.852-.501 1.754-.601 2.668-.101-.1-.113-.226-.251-.313-.827-.564-1.666-.464-2.292-.038a2.391 2.391 0 00-.627.601c-.15.238-.275.514-.338.789-.163.752.063 1.566.877 2.142.827.551 1.666.463 2.305.037.163-.112.276-.263.401-.4.113.626.288 1.252.526 1.853.025.063.075.113.1.175-.087-.012-.138-.075-.238-.087-1.002-.025-1.666.501-1.967 1.202a2.201 2.201 0 00-.175.839c-.012.288.025.589.125.852.263.726.89 1.289 1.892 1.327.99.038 1.654-.501 1.967-1.202.05-.138.062-.276.087-.426a7.54 7.54 0 001.93 1.478c-.05.037-.101.025-.151.062-.839.539-1.077 1.353-.927 2.104.063.288.176.551.339.789.15.251.363.464.588.626.627.439 1.478.551 2.318 0 .827-.563 1.065-1.377.914-2.116-.037-.188-.137-.351-.213-.513.539.087 1.028.225 1.616.225.414 0 .739-.113 1.115-.163-.05.1-.138.15-.188.263-.35.939-.05 1.728.527 2.242.213.188.463.351.739.451.263.087.551.137.839.137.764-.025 1.516-.438 1.854-1.365.351-.939.063-1.74-.514-2.241-.112-.113-.263-.163-.4-.238a7.926 7.926 0 002.204-1.516c.013.063-.025.113 0 .188.276.952.99 1.415 1.754 1.491.288.025.576 0 .852-.088.288-.075.551-.213.777-.388.601-.476.952-1.24.664-2.204-.276-.952-.99-1.428-1.742-1.491-.188-.025-.363.025-.526.05.063-.162.188-.3.251-.463.263-.651.438-1.34.551-2.041.075.1.088.2.188.288.789.613 1.641.576 2.305.188.238-.138.463-.339.639-.564.175-.225.325-.476.401-.764.225-.726.05-1.565-.727-2.166-.789-.627-1.628-.589-2.292-.201zm-7.103 2.58c-.314.776-1.04 1.39-2.168 1.39-1.115 0-1.841-.614-2.154-1.39a2.654 2.654 0 01-.188-.989c0-.338.062-.677.188-.99.313-.776 1.039-1.39 2.154-1.39 1.14 0 1.854.614 2.168 1.39.112.313.188.652.188.99 0 .338-.076.676-.188.989zm-2.168-4.22c-1.528 0-2.518.851-2.944 1.928-.162.414-.25.852-.25 1.303 0 .438.088.889.25 1.302.426 1.09 1.416 1.929 2.944 1.929 1.529 0 2.518-.839 2.944-1.929.176-.413.251-.864.251-1.302 0-.451-.075-.889-.251-1.303-.426-1.077-1.415-1.928-2.944-1.928zm12.427 15.641a17.526 17.526 0 01-12.427 5.147 17.475 17.475 0 01-12.414-5.147 17.465 17.465 0 01-5.149-12.41c0-4.847 1.967-9.243 5.149-12.411a17.475 17.475 0 0112.414-5.147c4.848 0 9.246 1.966 12.427 5.147a17.515 17.515 0 015.149 12.411c0 4.846-1.979 9.242-5.149 12.41zm-12.427-30.82c-5.086 0-9.683 2.067-13.015 5.385a18.357 18.357 0 00-5.387 13.025c0 5.084 2.054 9.68 5.387 13.011a18.346 18.346 0 0013.015 5.398c5.086 0 9.697-2.066 13.016-5.398 3.332-3.331 5.4-7.927 5.4-13.011 0-5.085-2.068-9.693-5.4-13.025a18.372 18.372 0 00-13.016-5.385zm4.335 20.376c-.627 1.578-2.067 2.805-4.335 2.805-2.255 0-3.708-1.227-4.334-2.805a5.477 5.477 0 01-.363-1.966c0-.677.125-1.353.363-1.966.626-1.566 2.079-2.793 4.334-2.793 2.268 0 3.708 1.227 4.335 2.793.25.613.376 1.289.376 1.966a5.24 5.24 0 01-.376 1.966zm-4.335-7.589c-2.655 0-4.372 1.465-5.111 3.343a5.966 5.966 0 00-.438 2.28c0 .776.138 1.553.438 2.279.739 1.878 2.456 3.331 5.111 3.331 2.669 0 4.372-1.453 5.124-3.331a6.185 6.185 0 00.426-2.279 6.19 6.19 0 00-.426-2.28c-.752-1.878-2.455-3.343-5.124-3.343zm14.67 20.288a20.63 20.63 0 01-14.657 6.073 20.686 20.686 0 01-14.682-6.073 20.648 20.648 0 01-6.076-14.665 20.647 20.647 0 016.076-14.665 20.687 20.687 0 0114.682-6.074 20.63 20.63 0 0114.657 6.074 20.647 20.647 0 016.076 14.665 20.648 20.648 0 01-6.076 14.665zm-14.657-36.256a21.558 21.558 0 00-15.283 6.325 21.518 21.518 0 00-6.327 15.266 21.52 21.52 0 006.327 15.266 21.562 21.562 0 0015.283 6.324c5.95 0 11.35-2.417 15.258-6.324a21.48 21.48 0 006.339-15.266 21.478 21.478 0 00-6.339-15.266 21.522 21.522 0 00-15.258-6.325zm113.948-24.295h-7.817c-.012 0-.05-.15-.088-.338-.012-.125-.037-.251-.037-.401 0-.15.025-.275.037-.401.038-.2.076-.338.088-.338h7.842c.013.013.013.025.013.038 0 .138.012.326.012.513.013.138.013.276.013.439 0 .275-.013.488-.063.488zm.889-1.44c0-.238-.1-.451-.25-.614l-.013-.025a.91.91 0 00-.626-.25h-7.817c-.514 0-.814.451-.914 1.039a2.628 2.628 0 00-.051.551c0 .188.013.376.051.551.1.589.4 1.04.914 1.04h7.817c.777 0 .915-.576.915-1.34l-.013-.476c0-.138-.013-.276-.013-.476zm10.574 1.44h-7.817c-.013 0-.051-.15-.088-.338a3.698 3.698 0 01-.025-.401c0-.15.012-.275.025-.401.037-.2.075-.338.088-.338h7.854c0 .013.013.025.013.038 0 .138 0 .326.012.513 0 .138.013.276.013.439 0 .275-.013.488-.075.488zm.902-1.44a.864.864 0 00-.264-.614l-.012-.025a.89.89 0 00-.626-.25h-7.817c-.514 0-.815.451-.915 1.039-.038.176-.05.363-.05.551 0 .188.012.376.05.551.1.589.401 1.04.915 1.04h7.817c.776 0 .914-.576.914-1.34l-.012-.476v-.476zm10.785-.038v.038c0 .138.013.326.026.513 0 .138.012.276.012.439 0 .275-.012.488-.075.488h-7.83s-.037-.15-.075-.338a2.211 2.211 0 010-.814c.038-.188.075-.338.075-.338h7.83c.012 0 .025.012.037.012zm-8.769.188c-.037.176-.05.363-.05.551 0 .188.013.376.05.551.101.589.401 1.04.902 1.04h7.83c.777 0 .914-.576.914-1.34l-.012-.464c-.013-.15-.013-.3-.013-.488a.831.831 0 00-.25-.614l-.013-.012a.89.89 0 00-.626-.263h-7.83c-.501 0-.801.451-.902 1.039zm-23.35-3.431a2.075 2.075 0 01-.038-.401c0-.15.013-.288.038-.401.037-.2.062-.35.075-.35h7.829s.013.012.025.012c.013.013.013.025.013.038 0 .137.012.325.012.513 0 .138.013.263.013.438 0 .276-.013.489-.063.489h-7.829c-.013 0-.038-.15-.075-.338zm8.819-.151l-.025-.475v-.476c0-.238-.1-.464-.263-.626v-.013a.94.94 0 00-.627-.25h-7.829c-.501 0-.802.45-.902 1.026a2.85 2.85 0 00-.063.564c0 .188.025.363.063.551.1.589.401 1.039.902 1.039h7.829c.777 0 .915-.588.915-1.34zm-9.822-4.12a1.98 1.98 0 01-.037-.4c0-.151.012-.288.037-.401.025-.188.063-.351.076-.351h7.817c.025 0 .025.013.037.013.013.012.013.025.013.037 0 .138.012.326.012.514 0 .137.013.263.013.438 0 .276-.013.488-.075.488h-7.817c-.013 0-.051-.15-.076-.338zm8.82-.15l-.013-.463c-.012-.151-.012-.301-.012-.489a.892.892 0 00-.264-.626v-.012a.939.939 0 00-.638-.251h-7.817c-.502 0-.802.451-.902 1.027a2.85 2.85 0 00-.063.564c0 .187.025.363.063.551.1.588.4 1.039.902 1.039h7.817c.776 0 .927-.576.927-1.34zm-9.834-4.12a3.698 3.698 0 01-.025-.401c0-.15.012-.288.025-.401.05-.2.075-.338.087-.338h7.855c.012.013.012.025.012.038 0 .138.013.325.013.513 0 .138.013.276.013.439 0 .275-.013.488-.076.488h-7.817c-.012 0-.037-.15-.087-.338zm8.831-.15l-.012-.464c-.013-.15-.013-.3-.013-.488a.84.84 0 00-.263-.614v-.025a.945.945 0 00-.639-.25h-7.817c-.501 0-.801.45-.914 1.027-.025.187-.05.375-.05.563 0 .188.025.376.05.551.113.589.413 1.04.914 1.04h7.817c.777 0 .927-.577.927-1.34zm-9.834-4.922c.038-.2.076-.35.088-.35h7.817c.013 0 .025.012.038.024 0 0 .012.013.012.025 0 .138.013.326.013.514 0 .138.012.275.012.438 0 .276-.012.489-.075.489h-7.817c-.012 0-.05-.151-.088-.339a4.208 4.208 0 01-.025-.4c0-.138.013-.288.025-.401zm.088 1.991h7.817c.777 0 .915-.576.915-1.34l-.013-.463v-.489a.87.87 0 00-.263-.626v-.012a.955.955 0 00-.639-.263h-7.817c-.501 0-.802.463-.914 1.052-.025.175-.05.363-.05.551 0 .175.025.375.05.551.112.588.413 1.039.914 1.039zm-1.09-6.262c.038-.187.075-.35.088-.35h7.817c.013 0 .025.012.038.025 0 0 .012.012.012.025 0 .138 0 .326.013.513 0 .138.012.276.012.439 0 .288-.012.488-.075.488h-7.817c-.013 0-.05-.15-.088-.338-.012-.125-.037-.263-.037-.4 0-.139.025-.276.037-.402zm.088 1.992h7.817c.777 0 .915-.576.915-1.34V95.7c-.013-.15-.013-.3-.013-.488a.89.89 0 00-.263-.626h-.013a.867.867 0 00-.626-.263h-7.817c-.514 0-.802.45-.915 1.04-.037.174-.05.362-.05.55 0 .175.013.363.05.551.113.589.401 1.04.915 1.04zm-1.09-6.262c.038-.188.075-.338.088-.338h7.817c.012 0 .025 0 .037.012 0 0 .013.013.013.025 0 .138 0 .326.012.514 0 .138.013.275.013.45 0 .276-.013.477-.075.477h-7.817c-.013 0-.05-.15-.088-.339-.012-.125-.037-.263-.037-.4 0-.15.025-.288.037-.401zm.088 1.991h7.817c.776 0 .914-.576.914-1.327l-.012-.476c0-.15-.013-.3-.013-.489a.83.83 0 00-.25-.613l-.013-.013a.87.87 0 00-.626-.263h-7.817c-.514 0-.802.451-.915 1.04-.037.175-.05.375-.05.55 0 .189.013.364.05.552.113.588.401 1.04.915 1.04zm-1.09-5.46c-.025-.125-.025-.25-.025-.4 0-.138 0-.276.025-.401.037-.188.075-.339.075-.339h7.855c.012.013.025.025.025.038 0 .138 0 .326.012.513v.439c0 .275 0 .488-.062.488h-7.83s-.038-.15-.075-.338zm8.819-.15l-.012-.464c0-.15-.013-.288-.013-.488a.905.905 0 00-.25-.626h-.013a.87.87 0 00-.626-.263h-7.83c-.501 0-.789.45-.902 1.04a2.68 2.68 0 00-.05.55c0 .176.013.376.05.551.113.589.401 1.04.902 1.04h7.83c.776 0 .914-.576.914-1.34zm-1.891-5.248c.012 0 .012.013.012.025 0 .138.013.326.025.526v.439c0 .263 0 .476-.063.476h-7.817c-.012 0-.05-.15-.075-.338a1.317 1.317 0 01-.05-.401c0-.138.013-.276.05-.401.025-.188.063-.338.075-.338h7.817c.013 0 .026 0 .026.012zm-8.757.176c-.038.175-.05.375-.05.55 0 .189.012.376.05.552.1.588.401 1.04.914 1.04h7.817c.777 0 .915-.577.915-1.328l-.013-.476c0-.15-.012-.3-.012-.489a.83.83 0 00-.251-.613l-.012-.013a.871.871 0 00-.627-.263h-7.817c-.513 0-.814.451-.914 1.04zm7.767-4.446v.025c0 .138.012.338.025.526v.438c0 .276 0 .489-.063.489h-7.829s-.038-.163-.075-.351a2.075 2.075 0 010-.802 7.28 7.28 0 01.075-.338h7.829c.013 0 .025 0 .038.013zm-8.769.175a2.71 2.71 0 00-.05.551c0 .188.012.376.05.551.1.589.401 1.04.902 1.04h7.829c.777 0 .915-.576.915-1.328l-.013-.476c0-.15-.012-.3-.012-.488a.85.85 0 00-.251-.614l-.012-.012a.85.85 0 00-.627-.263h-7.829c-.501 0-.802.45-.902 1.04zm-.176-4.12c.038-.188.076-.338.076-.338h7.829c.013 0 .025.013.038.013v.025c0 .137.012.338.025.513v.45c0 .276 0 .49-.063.49h-7.829s-.038-.164-.076-.351c-.025-.113-.025-.25-.025-.401 0-.138 0-.276.025-.4zm.076 1.991h7.829c.777 0 .915-.576.915-1.327l-.013-.476c0-.15-.013-.288-.013-.489a.83.83 0 00-.25-.613l-.013-.013a.868.868 0 00-.626-.263h-7.829c-.502 0-.802.451-.902 1.04a2.625 2.625 0 00-.051.55c0 .189.013.376.051.564.1.576.4 1.027.902 1.027zm20.419 37.245a2.075 2.075 0 01-.038-.401c0-.15.013-.288.038-.401.038-.2.063-.35.075-.35h7.83c.012 0 .012.012.025.012.012.013.012.025.012.038 0 .137.013.325.013.513.012.138.012.263.012.438 0 .276-.012.489-.062.489h-7.83c-.012 0-.037-.15-.075-.338zm8.819-.151l-.012-.475c0-.138-.013-.288-.013-.476a.881.881 0 00-.25-.626l-.013-.013a.914.914 0 00-.626-.25h-7.83c-.501 0-.802.45-.902 1.026a2.925 2.925 0 00-.062.564c0 .188.025.363.062.551.1.589.401 1.039.902 1.039h7.83c.776 0 .914-.588.914-1.34zm-9.821-4.12a1.976 1.976 0 01-.038-.4c0-.151.013-.288.038-.401.037-.188.062-.351.075-.351h7.83c.012 0 .012.013.025.013.012.012.012.025.012.037 0 .138.013.326.025.514v.438c0 .276 0 .488-.062.488h-7.83c-.013 0-.038-.15-.075-.338zm8.819-.15l-.012-.463c0-.151-.013-.301-.013-.489a.88.88 0 00-.251-.626l-.012-.012a.934.934 0 00-.626-.251h-7.83c-.501 0-.802.451-.902 1.027a2.85 2.85 0 00-.063.564c0 .187.025.363.063.551.1.588.401 1.039.902 1.039h7.83c.776 0 .914-.576.914-1.34zm-1.892-5.26c.013.013.013.025.013.038 0 .138.012.325.012.513.013.138.013.276.013.439 0 .275-.013.488-.063.488h-7.829c-.013 0-.038-.15-.075-.338a2.075 2.075 0 01-.038-.401c0-.15.013-.288.038-.401.037-.2.062-.35.075-.35h7.829c.013 0 .013.012.025.012zm-8.756.188a2.62 2.62 0 00-.063.551c0 .175.025.376.063.551.1.576.401 1.04.902 1.04h7.829c.777 0 .915-.577.915-1.34l-.013-.464c0-.15-.012-.3-.012-.488a.856.856 0 00-.251-.626h-.012a.854.854 0 00-.627-.276h-7.829c-.501 0-.802.463-.902 1.052zm7.729-2.98h-7.829s-.038-.151-.076-.339a2.073 2.073 0 01-.037-.4c0-.138.012-.288.037-.401.038-.2.076-.338.076-.338h7.854c.013.012.013.025.013.037 0 .138.012.326.012.514.013.138.013.263.013.438 0 .276-.013.489-.063.489zm.89-1.44a.938.938 0 00-.251-.627h-.012a.894.894 0 00-.627-.263h-7.829c-.501 0-.802.451-.902 1.027a2.845 2.845 0 00-.063.564c0 .175.025.375.063.551.1.576.401 1.039.902 1.039h7.829c.777 0 .915-.576.915-1.34l-.013-.463c-.012-.15-.012-.3-.012-.489zm-1.892-2.831h-7.83s-.037-.15-.075-.338a2.077 2.077 0 01-.037-.4c0-.139.012-.276.037-.402.038-.187.075-.338.075-.338h7.855c0 .013.013.025.013.038 0 .138.012.338.012.513.013.138.013.263.013.439 0 .275-.013.488-.063.488zm.889-1.44c0-.238-.1-.463-.25-.626h-.013a.891.891 0 00-.626-.263h-7.83c-.501 0-.801.45-.914 1.04a3.89 3.89 0 00-.05.55c0 .175.025.376.05.551.113.589.413 1.04.914 1.04h7.83c.764 0 .914-.576.914-1.34l-.012-.464c-.013-.15-.013-.288-.013-.488zm-1.904-2.83h-7.817c-.012 0-.037-.138-.075-.339a1.987 1.987 0 01-.037-.4c0-.138.012-.288.037-.401.038-.2.063-.338.075-.338h7.817c.025 0 .038 0 .038.012 0 0 .012.013.012.025 0 .138.013.326.013.514.012.138.012.275.012.438 0 .288-.012.489-.075.489zm.902-1.44c0-.239-.1-.464-.25-.614l-.013-.013a.899.899 0 00-.639-.263h-7.817c-.501 0-.801.464-.914 1.04-.025.175-.05.375-.05.55 0 .189.025.376.05.552.113.588.413 1.04.914 1.04h7.817c.777 0 .927-.577.927-1.34l-.012-.464c-.013-.138-.013-.288-.013-.489zm-1.904-2.83h-7.817c-.012 0-.038-.139-.075-.339a1.897 1.897 0 01-.038-.4c0-.138.013-.276.038-.401.037-.2.063-.339.075-.339h7.817c.025 0 .038 0 .038.013 0 0 .012.012.012.025 0 .138.013.326.013.526.012.125.012.263.012.438 0 .263-.012.476-.075.476zm.902-1.441c0-.238-.1-.463-.25-.614l-.013-.012a.899.899 0 00-.639-.263h-7.817c-.514 0-.802.45-.914 1.04a4.105 4.105 0 00-.051.55c0 .188.026.376.051.551.112.589.4 1.04.914 1.04h7.817c.777 0 .915-.576.915-1.328v-.476c-.013-.15-.013-.288-.013-.488zm-1.867-4.296s.013.013.013.025c0 .138 0 .326.013.526.012.126.012.263.012.439 0 .263-.012.476-.075.476h-7.817c-.013 0-.05-.15-.075-.338a1.897 1.897 0 01-.038-.401c0-.138.013-.276.038-.401.025-.188.062-.338.075-.338h7.817c.012 0 .025 0 .037.012zm-8.769.176c-.025.175-.05.375-.05.55 0 .189.025.376.05.552.113.588.401 1.04.915 1.04h7.817c.777 0 .914-.577.914-1.328l-.012-.476c0-.15-.013-.3-.013-.489a.83.83 0 00-.25-.613v-.013a.9.9 0 00-.639-.263h-7.817c-.514 0-.802.451-.915 1.04zm7.767-4.446s.013.013.013.025c0 .138 0 .338.012.526 0 .125.013.263.013.438 0 .276-.013.489-.075.489h-7.817c-.013 0-.038-.163-.088-.351-.025-.125-.025-.263-.025-.4 0-.138 0-.276.025-.401.05-.188.075-.339.088-.339h7.817c.012 0 .025 0 .037.013zm-8.769.175c-.037.176-.05.376-.05.551 0 .188.013.376.05.551.113.589.401 1.04.915 1.04h7.817c.776 0 .914-.576.914-1.328l-.012-.476c0-.15-.013-.3-.013-.488a.854.854 0 00-.25-.614l-.013-.012a.87.87 0 00-.626-.263h-7.817c-.514 0-.802.45-.915 1.04zm-.175-4.12c.05-.188.075-.338.088-.338h7.817c.012 0 .025.013.025.013.012 0 .025.012.025.025 0 .137 0 .338.012.513 0 .138.013.276.013.45 0 .276-.013.49-.075.49h-7.817c-.013 0-.038-.164-.088-.351-.025-.113-.025-.25-.025-.401 0-.138 0-.276.025-.4zm.088 1.991h7.817c.776 0 .914-.576.914-1.327l-.012-.476c0-.15-.013-.288-.013-.489a.83.83 0 00-.251-.613l-.012-.013a.848.848 0 00-.626-.263h-7.817c-.514 0-.815.451-.915 1.04-.038.175-.05.363-.05.55 0 .189.012.376.05.564.1.576.401 1.027.915 1.027zm28.524 36.105c.013.013.013.025.013.038 0 .137.012.325.012.513.013.138.013.263.013.438 0 .276-.013.489-.063.489h-7.829c-.013 0-.038-.15-.076-.338a2.076 2.076 0 01-.037-.401c0-.15.012-.288.037-.413.038-.188.063-.338.076-.338h7.829s.013.012.025.012zm-8.756.175a2.85 2.85 0 00-.063.564c0 .188.025.363.063.551.1.589.4 1.027.902 1.027h7.829c.777 0 .915-.564.915-1.328l-.013-.475c-.012-.138-.012-.288-.012-.476a.878.878 0 00-.251-.626l-.013-.013a.877.877 0 00-.626-.25h-7.829c-.502 0-.802.45-.902 1.026zm7.754-4.445c.013.012.013.025.013.037 0 .138 0 .326.012.514 0 .137.013.263.013.438 0 .276-.013.488-.063.488h-7.83c-.012 0-.037-.15-.075-.338a2.073 2.073 0 01-.037-.4c0-.151.012-.288.037-.414.038-.188.063-.338.075-.338h7.83s.012.013.025.013zm-8.757.188a2.688 2.688 0 00-.062.551c0 .187.025.363.062.551.101.588.401 1.039.902 1.039h7.83c.777 0 .914-.576.914-1.34l-.025-.463v-.489c0-.238-.1-.463-.25-.626l-.013-.012a.89.89 0 00-.626-.263h-7.83c-.501 0-.801.463-.902 1.052zm7.755-4.459c.012.013.012.025.012.038 0 .138.013.325.013.513 0 .138.012.276.012.439 0 .275-.012.488-.062.488h-7.83c-.012 0-.037-.15-.075-.338a2.075 2.075 0 01-.038-.401c0-.15.013-.288.038-.401.038-.2.063-.35.075-.35h7.83s.012.012.025.012zm-8.757.188a2.688 2.688 0 00-.062.551c0 .175.025.376.062.551.1.576.401 1.04.902 1.04h7.83c.764 0 .914-.577.914-1.34l-.025-.464v-.488c0-.251-.1-.464-.263-.626h-.012a.807.807 0 00-.614-.276h-7.83c-.501 0-.802.463-.902 1.052zm7.755-4.446c.012 0 .012.013.012.025 0 .138 0 .326.013.514 0 .138.012.275.012.438 0 .276-.012.489-.062.489h-7.83c-.013 0-.05-.151-.088-.339a4.208 4.208 0 01-.025-.4c0-.151.013-.288.025-.401.038-.2.075-.338.088-.338h7.83c.012 0 .012 0 .025.012zm-8.769.163a4.126 4.126 0 00-.051.564c0 .187.025.375.051.551.1.576.413 1.039.914 1.039h7.83c.776 0 .914-.576.914-1.34l-.025-.463v-.489a.84.84 0 00-.263-.613v-.013a.891.891 0 00-.626-.263h-7.83c-.501 0-.814.451-.914 1.027zm7.766-4.446c0 .013.013.025.013.038 0 .138 0 .326.012.513 0 .138.013.276.013.439 0 .275-.013.488-.075.488h-7.817c-.013 0-.05-.15-.088-.338a4.213 4.213 0 01-.025-.4c0-.151.013-.289.025-.402.038-.2.075-.338.088-.338h7.854zm-8.769.188c-.025.175-.05.363-.05.551 0 .188.025.376.05.551.113.589.414 1.04.915 1.04h7.817c.777 0 .914-.576.914-1.34l-.012-.464v-.488a.84.84 0 00-.263-.614v-.012a.9.9 0 00-.639-.263h-7.817c-.501 0-.802.45-.915 1.04zm7.767-4.458c0 .012.013.025.013.037 0 .138.012.326.012.514 0 .138.013.275.013.438 0 .276-.013.489-.075.489h-7.817c-.013 0-.051-.15-.088-.339a3.691 3.691 0 01-.025-.4c0-.138.012-.288.025-.401.037-.2.075-.338.088-.338h7.854zm-8.769.188c-.025.175-.05.363-.05.55 0 .176.025.376.05.552.113.588.401 1.04.915 1.04h7.817c.776 0 .914-.577.914-1.34v-.464c-.012-.15-.012-.288-.012-.489a.844.844 0 00-.263-.613l-.013-.013a.87.87 0 00-.626-.263h-7.817c-.514 0-.802.451-.915 1.04zm7.767-4.459c0 .013.013.025.013.038 0 .138.012.326.012.513 0 .138.013.276.013.439 0 .275-.013.488-.076.488h-7.817c-.012 0-.05-.15-.087-.338a3.496 3.496 0 01-.025-.4c0-.138.012-.289.025-.401.037-.2.075-.339.087-.339h7.855zm-8.769.188c-.038.175-.05.363-.05.551 0 .176.012.376.05.551.113.589.401 1.04.914 1.04h7.817c.777 0 .915-.576.915-1.34l-.013-.464c0-.15-.012-.288-.012-.488a.83.83 0 00-.251-.614v-.012a.899.899 0 00-.639-.263h-7.817c-.513 0-.801.45-.914 1.04zm7.767-4.446s.012.013.012.025v.526c.013.126.013.263.013.439 0 .263-.013.476-.063.476h-7.817c-.012 0-.05-.15-.087-.338a1.897 1.897 0 01-.038-.401c0-.138.013-.276.038-.401.037-.188.075-.338.087-.338h7.817c.013 0 .025 0 .038.012zm-8.769.176c-.038.175-.05.375-.05.55 0 .189.012.376.05.552.113.588.401 1.04.914 1.04h7.817c.777 0 .915-.577.915-1.328l-.013-.476c0-.15-.012-.3-.012-.489a.83.83 0 00-.251-.613l-.012-.013a.871.871 0 00-.627-.263h-7.817c-.513 0-.801.451-.914 1.04zm7.754-4.446c.013 0 .025.013.025.025 0 .138 0 .338.013.526v.438c0 .276 0 .489-.063.489h-7.817c-.012 0-.05-.163-.088-.351-.012-.125-.037-.263-.037-.4 0-.138.025-.276.037-.401.038-.188.076-.339.088-.339h7.817c.013 0 .025 0 .025.013zm-8.756.175a2.704 2.704 0 00-.051.551c0 .188.013.376.051.551.1.589.4 1.04.914 1.04h7.817c.777 0 .915-.576.915-1.328l-.013-.476c0-.15-.012-.3-.012-.488a.85.85 0 00-.251-.614l-.013-.012a.867.867 0 00-.626-.263h-7.817c-.514 0-.814.45-.914 1.04zm-.176-4.12c.038-.188.075-.338.075-.338h7.83c.012 0 .025.013.025.013.012 0 .025.012.025.025v.513c.013.138.013.276.013.45 0 .276-.013.49-.063.49h-7.83s-.037-.164-.075-.351a1.902 1.902 0 01-.037-.401c0-.138.012-.276.037-.4zm.075 1.991h7.83c.777 0 .914-.576.914-1.327l-.012-.476c0-.15-.013-.288-.013-.489a.83.83 0 00-.25-.613l-.013-.013a.848.848 0 00-.626-.263h-7.83c-.501 0-.801.451-.902 1.04-.037.175-.05.363-.05.55 0 .189.013.376.05.564.101.576.401 1.027.902 1.027zm-27.334 1.816c.526.514.877 1.265 1.065 2.092l7.679 32.673c.037.2.063.388.063.589 0 .638-.238 1.252-.627 1.753-.388.476-.914.839-1.466.964-.15.038-.288.05-.451.05h-43.958V77.292h36.066c.677 0 1.215.263 1.629.676zm-38.108-1.528a.422.422 0 00-.426.426v39.649c0 .238.188.426.426.426h44.371c.226 0 .439-.025.652-.075.739-.176 1.415-.639 1.929-1.278a3.631 3.631 0 00.814-2.266c0-.251-.037-.514-.087-.777l-7.692-32.673c-.226-.965-.639-1.866-1.278-2.505h-.012a3.01 3.01 0 00-2.218-.927h-36.479zM19.85 172.582c-.213.551-.714.964-1.49.964-.777 0-1.265-.413-1.479-.964a1.708 1.708 0 01-.125-.676c0-.238.038-.476.125-.689.213-.538.702-.952 1.479-.952.776 0 1.277.414 1.49.952v.013c.088.213.126.438.126.676 0 .238-.038.476-.125.676zm.978-.676c0-.326-.063-.664-.188-.977l-.013-.025c-.325-.839-1.09-1.49-2.267-1.49-1.178 0-1.93.651-2.268 1.49a2.736 2.736 0 00-.188 1.002c0 .338.063.676.188 1.002.338.839 1.09 1.478 2.268 1.478 1.177 0 1.942-.639 2.267-1.478.138-.326.2-.664.2-1.002zm257.235-11.772c.2-.501.651-.889 1.378-.889.714 0 1.177.388 1.378.889a1.872 1.872 0 010 1.277c-.201.489-.664.877-1.378.877-.727 0-1.178-.388-1.378-.877a1.62 1.62 0 01-.125-.651c0-.213.037-.438.125-.626zm1.378 3.006c1.115 0 1.841-.627 2.167-1.416.113-.313.175-.626.175-.964 0-.313-.062-.639-.175-.939-.326-.802-1.052-1.428-2.167-1.428-1.128 0-1.842.626-2.167 1.428-.113.3-.188.626-.188.939 0 .338.075.651.188.964.325.789 1.039 1.416 2.167 1.416zm-26.032-84.233l.013-.012c.225-.551.751-.99 1.553-.99.814 0 1.34.439 1.566 1.002.088.226.125.476.125.727 0 .238-.037.488-.125.714l-.013.025c-.225.55-.739.977-1.553.977s-1.34-.439-1.566-1.002a1.987 1.987 0 01-.125-.714c0-.25.037-.501.125-.727zm1.566 3.294c1.215 0 1.992-.664 2.343-1.515v-.025a2.66 2.66 0 00.213-1.027c0-.35-.076-.714-.213-1.04-.339-.864-1.115-1.54-2.343-1.54-1.203 0-1.992.664-2.33 1.515l-.013.025c-.137.326-.2.69-.2 1.04 0 .35.063.701.2 1.027.339.864 1.128 1.54 2.343 1.54zm204.132 79.949c-.313.777-1.027 1.39-2.155 1.39-1.127 0-1.841-.613-2.154-1.39a2.874 2.874 0 01-.176-.989c0-.338.063-.676.176-.977.313-.789 1.027-1.39 2.154-1.39 1.128 0 1.842.601 2.155 1.39.113.301.188.639.188.977 0 .351-.075.676-.188.989zm-2.155-4.208c-1.515 0-2.505.839-2.931 1.916a3.403 3.403 0 00-.251 1.303c0 .438.076.889.251 1.302.426 1.077 1.416 1.929 2.931 1.929 1.529 0 2.506-.852 2.944-1.929.163-.413.238-.864.238-1.302 0-.438-.075-.877-.238-1.303-.438-1.077-1.415-1.916-2.944-1.916zm3.909 4.997c-.564 1.415-1.879 2.53-3.909 2.53-2.029 0-3.332-1.115-3.908-2.53a5.021 5.021 0 010-3.556c.576-1.403 1.879-2.518 3.908-2.518 2.03 0 3.345 1.115 3.909 2.518.225.563.326 1.177.326 1.778 0 .614-.101 1.215-.326 1.778zm-3.909-6.925c-2.43 0-3.996 1.34-4.685 3.055a5.751 5.751 0 00-.401 2.092c0 .714.138 1.428.401 2.091.689 1.716 2.255 3.056 4.685 3.056 2.443 0 4.009-1.34 4.686-3.056a5.467 5.467 0 00.413-2.091c0-.714-.138-1.415-.413-2.092-.677-1.715-2.243-3.055-4.686-3.055zm4.36 9.505a6.155 6.155 0 01-4.36 1.816 6.154 6.154 0 01-4.359-1.816 6.142 6.142 0 01-1.804-4.358c0-1.691.689-3.231 1.804-4.346a6.105 6.105 0 014.359-1.816c1.704 0 3.245.689 4.36 1.816h.025a6.152 6.152 0 01-.025 8.704zm.601-9.317a6.986 6.986 0 00-4.961-2.042 7.022 7.022 0 00-4.948 2.029l-.012.013a7.032 7.032 0 00-2.055 4.959 6.99 6.99 0 002.055 4.959 6.984 6.984 0 004.96 2.054 6.942 6.942 0 004.961-2.054 6.94 6.94 0 002.055-4.959 7.008 7.008 0 00-2.03-4.934l-.025-.025zm.752 10.67a8.094 8.094 0 01-5.713 2.354 8.044 8.044 0 01-5.7-2.354 8.048 8.048 0 01-2.367-5.711c0-2.229.902-4.246 2.367-5.698a8.001 8.001 0 015.7-2.367c2.23 0 4.247.902 5.713 2.367a8.033 8.033 0 012.355 5.698 8.088 8.088 0 01-2.355 5.711zm.589-12.01a8.85 8.85 0 00-6.302-2.618 8.904 8.904 0 00-6.288 2.605l-.013.013a8.885 8.885 0 00-.012 12.586l.012.025a8.935 8.935 0 006.301 2.605c2.468 0 4.686-.99 6.302-2.605l.012-.013a8.883 8.883 0 002.606-6.299c0-2.455-.99-4.671-2.606-6.299h-.012zm-370.157 9.68a1.51 1.51 0 01-.25.489 1.4 1.4 0 01-.413.35c-.376.213-.877.238-1.34-.125-.464-.376-.565-.852-.44-1.277.05-.176.139-.338.251-.476a1.35 1.35 0 01.401-.363c.388-.226.877-.238 1.353.137.464.364.551.852.438 1.265zm-4.058 2.818a8.508 8.508 0 01-1.053 1.853c-.012.025-.025.025-.037.05a7.25 7.25 0 01-3.633 2.493c-.038.012-.075.037-.113.037a8.799 8.799 0 01-2.58.363 8.885 8.885 0 01-2.594-.363 2.086 2.086 0 00-.137-.037c-2.33-.739-3.896-2.405-4.698-4.396a9.226 9.226 0 01-.627-3.356 9.22 9.22 0 01.627-3.357c1.09-2.692 3.558-4.809 7.428-4.809 2.857 0 4.949 1.165 6.277 2.868h.012c.025.063.088.1.113.151a7.935 7.935 0 011.015 1.79 8.987 8.987 0 01.639 3.357 8.982 8.982 0 01-.64 3.356zm-.05 1.866c.137-.113.3-.2.476-.251a1.36 1.36 0 01.55-.05c.44.038.84.313 1.016.877.162.589-.038 1.039-.376 1.302-.15.126-.314.201-.489.251a1.33 1.33 0 01-.539.063c-.438-.051-.851-.326-1.027-.89a1.296 1.296 0 010-.726c.088-.1.126-.225.2-.326.063-.087.1-.187.189-.25zm-4.034 3.444c.175.075.338.163.463.275.326.301.501.764.288 1.328-.2.563-.639.801-1.077.814a1.355 1.355 0 01-.539-.088 1.568 1.568 0 01-.463-.275c-.326-.301-.489-.764-.288-1.328.175-.476.538-.689.914-.751.075-.038.188-.025.263-.05.15.012.301.025.439.075zm-5.788.3l.025.013c.088.15.15.313.188.476.088.438-.05.914-.551 1.24-.501.325-1.002.275-1.353.025a1.635 1.635 0 01-.388-.389 1.548 1.548 0 01-.2-.5c-.089-.439.05-.915.55-1.24.326-.226.627-.238.927-.163.15.063.288.138.464.175.125.1.25.213.338.363zm-4.835-2.529c-.176.4-.564.714-1.165.701-.602-.025-.965-.351-1.115-.776a1.497 1.497 0 01-.088-.526c.013-.188.05-.364.113-.539.188-.401.576-.701 1.177-.689.602.013.965.351 1.115.764.063.163.088.351.088.539a1.54 1.54 0 01-.125.526zm-1.942-5.31a1.38 1.38 0 01-.376.388c-.376.238-.864.288-1.365-.05-.476-.338-.614-.814-.526-1.24.05-.175.112-.351.225-.501.1-.15.238-.288.376-.388.363-.238.864-.288 1.353.05.5.338.626.814.538 1.252a1.243 1.243 0 01-.225.489zm-.489-6.412c-.2-.551-.025-1.027.301-1.315.138-.113.3-.213.476-.263.175-.063.363-.1.539-.088.438.013.864.276 1.064.827.201.576.026 1.039-.3 1.327-.138.113-.3.201-.476.263a1.36 1.36 0 01-.539.088c-.438-.013-.864-.263-1.065-.839zm6.139-3.006a1.373 1.373 0 01-.552-.037 1.74 1.74 0 01-.488-.226c-.35-.263-.564-.714-.4-1.302.15-.564.563-.852.989-.902a1.35 1.35 0 01.55.038c.176.05.34.125.49.238.35.263.563.713.4 1.29a1.122 1.122 0 01-.376.613c-.125.05-.225.138-.363.188-.087.025-.163.088-.25.1zm5.963-.426a1.18 1.18 0 01-.389-.363c-.112-.15-.2-.313-.238-.488-.112-.426 0-.914.476-1.253.476-.363.977-.325 1.353-.1.15.1.276.238.389.376.112.15.2.313.238.488.112.426 0 .902-.489 1.265a1.111 1.111 0 01-.689.251c-.113-.038-.238-.05-.35-.088-.1-.025-.214-.025-.301-.088zm4.685 2.042c.163-.401.551-.727 1.152-.727.59 0 .977.326 1.14.727v.025a1.404 1.404 0 010 1.039c-.163.413-.55.739-1.14.739a1.13 1.13 0 01-1.027-.589c-.063-.075-.088-.162-.138-.237a1.292 1.292 0 01-.075-.439c0-.188.025-.363.088-.538zm2.205 5.084c-.188.1-.338.251-.476.413-.1-.851-.276-1.703-.59-2.492-.062-.15-.174-.275-.25-.438.1.025.15.088.263.088.99 0 1.641-.564 1.93-1.278.1-.263.15-.551.15-.839a2.1 2.1 0 00-.15-.826v-.025c-.288-.714-.94-1.253-1.93-1.253-1.002 0-1.64.539-1.929 1.265-.062.138-.062.288-.088.426a7.773 7.773 0 00-2.154-1.49c.05-.038.125-.025.188-.075.802-.589.99-1.416.789-2.154a2.315 2.315 0 00-.363-.777 2.626 2.626 0 00-.64-.589c-.638-.4-1.49-.475-2.292.126-.802.588-.99 1.415-.802 2.154.05.188.15.35.251.513-.4-.037-.752-.163-1.177-.163-.702 0-1.303.151-1.917.263.037-.087.125-.125.15-.238.25-.964-.113-1.728-.726-2.191a2.098 2.098 0 00-.777-.363 2.006 2.006 0 00-.864-.075c-.752.1-1.454.576-1.704 1.54-.263.964.112 1.728.714 2.191.113.076.25.113.363.176a8.084 8.084 0 00-1.779 1.465c-.012-.063.025-.1 0-.163-.338-.952-1.077-1.365-1.841-1.39a2.215 2.215 0 00-.852.125 2.435 2.435 0 00-.74.426c-.576.514-.876 1.303-.55 2.242.338.952 1.077 1.365 1.841 1.402.163 0 .313-.05.476-.087v.012c-.35.852-.514 1.754-.601 2.668-.1-.1-.125-.226-.263-.313-.814-.564-1.666-.464-2.293-.038a2.337 2.337 0 00-.614.601 2.629 2.629 0 00-.35.789c-.163.752.062 1.566.877 2.142.826.551 1.678.463 2.317.037.15-.112.263-.263.401-.4.113.626.288 1.252.526 1.853.025.063.063.113.088.175-.088-.012-.125-.075-.226-.087-1.002-.025-1.666.501-1.966 1.202a2.203 2.203 0 00-.188.839 2.17 2.17 0 00.137.852c.251.726.877 1.289 1.88 1.327 1.002.038 1.653-.501 1.966-1.202.063-.138.063-.276.1-.426a7.52 7.52 0 001.93 1.478c-.063.037-.113.025-.163.062-.84.539-1.078 1.353-.915 2.104a2.2 2.2 0 00.326.789c.163.251.363.464.601.626.627.439 1.466.551 2.305 0 .84-.563 1.065-1.377.915-2.116a1.842 1.842 0 00-.213-.513c.539.087 1.027.225 1.629.225.4 0 .739-.113 1.114-.163-.05.1-.15.15-.188.263-.35.939-.05 1.728.514 2.242.213.188.464.351.74.451.262.087.563.137.851.137.764-.025 1.503-.438 1.854-1.365.338-.939.05-1.74-.513-2.241-.126-.113-.276-.163-.401-.238a8.309 8.309 0 002.205-1.516c0 .063-.026.113 0 .188.275.952.99 1.415 1.74 1.491.289.025.577 0 .865-.088a2.21 2.21 0 00.764-.388c.602-.476.952-1.24.677-2.204-.288-.952-1.002-1.428-1.754-1.491-.188-.025-.35.025-.526.05.075-.162.2-.3.263-.463a10.2 10.2 0 00.538-2.041c.088.1.088.2.201.288.777.613 1.629.576 2.293.188a2.34 2.34 0 001.052-1.328c.213-.726.05-1.565-.727-2.166-.789-.627-1.64-.589-2.292-.201zm-7.116 2.58c-.313.776-1.027 1.39-2.167 1.39-1.127 0-1.841-.614-2.155-1.39a2.668 2.668 0 01-.188-.989c0-.338.063-.677.188-.99.314-.776 1.028-1.39 2.155-1.39 1.14 0 1.854.614 2.167 1.39.126.313.188.652.188.99 0 .338-.063.676-.188.989zm-2.167-4.22c-1.528 0-2.505.851-2.931 1.928a3.358 3.358 0 000 2.605c.425 1.09 1.403 1.929 2.931 1.929 1.54 0 2.518-.839 2.956-1.929a3.59 3.59 0 00.251-1.302c0-.451-.088-.889-.25-1.303-.439-1.077-1.416-1.928-2.957-1.928zm12.427 15.641a17.506 17.506 0 01-12.427 5.147 17.52 17.52 0 01-12.415-5.147 17.506 17.506 0 01-5.136-12.41c0-4.847 1.967-9.243 5.136-12.411a17.52 17.52 0 0112.415-5.147c4.86 0 9.245 1.966 12.427 5.147a17.465 17.465 0 015.149 12.411c0 4.846-1.967 9.242-5.149 12.41zm-12.427-30.82a18.418 18.418 0 00-13.016 5.385 18.413 18.413 0 00-5.387 13.025c0 5.084 2.067 9.68 5.387 13.011a18.37 18.37 0 0013.016 5.398c5.099 0 9.696-2.066 13.028-5.398a18.327 18.327 0 005.387-13.011 18.36 18.36 0 00-5.387-13.025 18.403 18.403 0 00-13.028-5.385zm4.347 20.376c-.639 1.578-2.08 2.805-4.334 2.805-2.268 0-3.709-1.227-4.335-2.805a5.229 5.229 0 01-.376-1.966c0-.677.125-1.353.376-1.966.626-1.566 2.067-2.793 4.335-2.793 2.254 0 3.695 1.227 4.334 2.793a5.47 5.47 0 01.363 1.966c0 .676-.125 1.352-.363 1.966zm-4.334-7.589c-2.669 0-4.373 1.465-5.124 3.343a6.2 6.2 0 00-.439 2.28c0 .776.15 1.553.439 2.279.752 1.878 2.455 3.331 5.124 3.331 2.655 0 4.371-1.453 5.11-3.331a6.194 6.194 0 00.44-2.279c0-.777-.151-1.553-.44-2.28-.739-1.878-2.455-3.343-5.11-3.343zm14.669 20.288a20.68 20.68 0 01-14.67 6.073 20.71 20.71 0 01-14.681-6.073 20.689 20.689 0 01-6.064-14.665 20.687 20.687 0 016.063-14.665 20.71 20.71 0 0114.683-6.074 20.681 20.681 0 0114.669 6.074 20.697 20.697 0 016.076 14.665c0 5.735-2.33 10.908-6.076 14.665zm-14.67-36.256a21.53 21.53 0 00-15.27 6.325 21.519 21.519 0 00-6.327 15.266 21.52 21.52 0 006.327 15.266 21.534 21.534 0 0015.27 6.324 21.534 21.534 0 0015.271-6.324 21.52 21.52 0 006.327-15.266 21.519 21.519 0 00-6.327-15.266 21.53 21.53 0 00-15.27-6.325zm543.998 12.774c-1.554-2.429-3.846-5.285-6.928-7.401-2.593-1.778-5.712-3.018-9.383-3.018h-4.673l-3.595-6.876h10.874c3.708 0 6.927 1.691 9.32 4.133 2.744 2.793 4.385 6.575 4.385 9.856v3.306zm-24.028-4.608c-.338.313-.689.626-.977.914l-6.288 5.448a7.895 7.895 0 00.576-2.931 7.93 7.93 0 00-7.942-7.94c-1.04 0-2.03.213-2.944.576l8.38-9.705c.451-.551.965-.99 1.541-1.315a4.656 4.656 0 012.405-.651 3.798 3.798 0 012.268.826c.388.326.739.726 1.04 1.24l4.271 8.165c1.203 2.092-.613 3.77-2.33 5.373zm-14.631 10.519a7.105 7.105 0 01-5.024-2.066 7.12 7.12 0 01-2.067-5.022c0-1.966.789-3.732 2.067-5.022a7.105 7.105 0 015.024-2.066c1.966 0 3.733.789 5.023 2.066a7.099 7.099 0 012.067 5.022 7.12 7.12 0 01-2.067 5.022 7.105 7.105 0 01-5.023 2.066zm-24.855 9.643c.038-.037.113-.012.126-.062l2.668-10.821 14.431-7.952a7.838 7.838 0 00-.313 2.104c0 2.192.89 4.183 2.33 5.623 1.266 1.252 2.969 2.054 4.848 2.242l-24.177 9.342c.05-.15.05-.313.087-.476zm-2.117 2.129a5.573 5.573 0 01-3.958 1.628c-1.554 0-2.969-.613-3.971-1.628a5.71 5.71 0 01-1.166-1.715l-.062-.163a5.623 5.623 0 01-.426-2.092 5.55 5.55 0 011.654-3.97 5.584 5.584 0 013.971-1.653 5.6 5.6 0 013.958 1.653 5.592 5.592 0 011.641 3.97 5.613 5.613 0 01-1.641 3.97zm-12.815-10.707c-.013-.176-.013-.351-.025-.514l-.088-1.715v-.013a40.898 40.898 0 00-1.591-7.89c-.012 0 0-.012 0-.012l-.012-.038c-.627-2.003-1.441-3.92-2.343-5.786h13.968c.1.714.363 1.366.852 1.841l.012.013a3.182 3.182 0 002.268.952h6.476l-4.509 18.371c-.289-1.152-.777-2.229-1.591-3.043a6.443 6.443 0 00-4.56-1.891 6.45 6.45 0 00-4.573 1.891c-1.002 1.002-1.578 2.367-1.754 3.845l-2.392-5.949c-.025-.062-.101-.025-.138-.062zm-6.727 22.717l-1.115 1.753c-.038.076-.1.138-.151.201l-3.658.012 1.566-2.717 3.771.062a7.653 7.653 0 01-.413.689zm4.334-9.618l-3.47 1.177.601-3.08 3.621-1.153-.414 1.691c-.112.464-.213.914-.338 1.365zm1.566-12.498l.063 1.102-2.994 2.116-.301-3.13 3.132-2.129c.062.676.088 1.365.1 2.041zm-1.754-10.67l-2.23 2.93-1.215-2.905 2.368-2.968 1.077 2.943zm-9.846 40.062c-.201.188-.414.363-.627.564l-4.271-1.39a.385.385 0 00-.426.087l-3.019 2.818a.474.474 0 00-.113.188.436.436 0 00.288.526l3.583 1.089a40.232 40.232 0 01-6.84 4.045l-3.595-2.705a.43.43 0 00-.426-.05l-3.771 1.691c-.05.038-.113.075-.163.138a.421.421 0 00.1.588l3.082 2.23c-2.155.676-4.41 1.139-6.715 1.44l-2.605-3.62a.454.454 0 00-.414-.2l-4.096.501a.335.335 0 00-.201.075.423.423 0 00-.087.589l2.28 3.043h-.1c-2.393 0-4.711-.251-6.978-.651l-1.391-4.271a.425.425 0 00-.325-.288l-4.047-.764a.708.708 0 00-.225 0 .45.45 0 00-.263.551l1.252 3.595a39.199 39.199 0 01-6.025-2.505l-.1-4.496a.453.453 0 00-.238-.376l-3.633-1.903a.49.49 0 00-.226-.05.43.43 0 00-.413.438l.163 3.795a40.219 40.219 0 01-4.811-3.908l1.165-4.345a.431.431 0 00-.113-.414l-2.956-2.842a.339.339 0 00-.213-.126.418.418 0 00-.501.313l-.915 3.682a40.304 40.304 0 01-4.159-6.161l2.481-3.795a.402.402 0 00.025-.426l-1.929-3.644a.386.386 0 00-.151-.163.425.425 0 00-.588.126l-1.992 3.193c-.84-2.142-1.516-4.371-1.955-6.688l3.496-2.867a.404.404 0 00.162-.401l-.751-4.058a.515.515 0 00-.1-.2.407.407 0 00-.589-.038l-2.856 2.417c-.051-.839-.126-1.678-.126-2.529 0-1.253.075-2.492.188-3.707l4.159-1.754a.429.429 0 00.276-.35l.426-4.095a.408.408 0 00-.025-.213c-.1-.213-.351-.313-.564-.213l-3.445 1.528a40.876 40.876 0 012.004-6.4l4.51-.438a.448.448 0 00.351-.263l1.616-3.77c.038-.062.05-.15.038-.237a.405.405 0 00-.464-.364l-3.746.439a41.532 41.532 0 014.159-5.911l4.41.951a.428.428 0 00.413-.125l2.706-3.118a.434.434 0 00.101-.2.408.408 0 00-.339-.489l-3.67-.726c1.466-1.328 3.019-2.58 4.685-3.695l3.984 2.129c.125.088.3.088.438 0l3.47-2.241a.481.481 0 00.151-.163.45.45 0 00-.188-.576l-3.358-1.691a39.434 39.434 0 016.765-2.605l3.094 3.244a.39.39 0 00.426.125l3.971-1.052a.682.682 0 00.213-.113.43.43 0 000-.601l-2.655-2.642c1.866-.276 3.77-.464 5.725-.464.538 0 1.064.051 1.603.076l1.917 4.032c.062.125.2.226.35.238l4.122.213a.379.379 0 00.225-.05.411.411 0 00.176-.564l-1.679-3.331c2.03.338 3.996.827 5.913 1.465l.702 4.434a.442.442 0 00.288.325l3.883 1.34c.063.038.15.038.226.025a.409.409 0 00.338-.488l-.677-3.67a38.897 38.897 0 015.938 3.557l-.613 4.458a.442.442 0 00.175.389l3.295 2.454a.427.427 0 00.689-.288l.438-3.719c.276.263.564.488.827.764a39.19 39.19 0 012.743 3.043l-1.741 4.17a.406.406 0 00.05.426l2.556 3.231c.05.063.1.113.175.138a.416.416 0 00.551-.238l1.378-3.482a38.111 38.111 0 012.694 5.097l-2.819 3.532a.425.425 0 00-.063.438l1.579 3.795a.32.32 0 00.138.175c.187.15.451.113.601-.075l2.28-2.993a38.963 38.963 0 011.303 6.625l-3.721 2.542a.418.418 0 00-.2.401l.388 4.107c0 .076.025.151.075.201.138.2.401.238.589.1l3.069-2.167a38.96 38.96 0 01-.651 6.325l-4.297 1.365a.425.425 0 00-.288.325l-.802 4.045a.456.456 0 00.012.226c.088.213.314.338.539.263l3.583-1.227a39.238 39.238 0 01-3.094 7.113l-4.485-.088a.436.436 0 00-.413.213l-2.042 3.582a.407.407 0 00-.063.2c0 .238.188.426.426.426l3.746-.013c-1.165 1.578-2.406 3.081-3.796 4.471zm-1.716 1.566l-1.654 1.415a6.894 6.894 0 00-.376.275l-3.482-1.064 2.305-2.142 3.57 1.165c-.113.113-.238.238-.363.351zm-12.352 7.476c-.389.15-.777.288-1.178.426l-2.944-2.142 2.869-1.277 3.032 2.279-1.779.714zm-11.55 2.48c-.464.025-.928.062-1.404.075l-2.179-2.906 3.132-.375 2.204 3.08-1.753.126zm-12.215-1.115c-.426-.113-.864-.2-1.29-.325l-1.203-3.444 3.095.588 1.177 3.607-1.779-.426zm-12.038-8.779l2.781 1.453.087 3.795-1.716-1.002c-.326-.201-.676-.401-.989-.614l-.163-3.632zm-7.604-2.93c-.263-.288-.527-.564-.777-.852l.877-3.531 2.267 2.179-.989 3.656-1.378-1.452zm-7.391-11.484l1.941-3.118 1.478 2.767-2.079 3.169c-.05-.088-.1-.188-.15-.288l-1.19-2.53zm-23.577-3.669c.013-.013.025-.013.025-.026l.351-1.427c.2-.777.413-1.541.576-2.342l.05-.2c.013-.038 0-.088 0-.126.101-.551.163-1.102.251-1.665.426.451.839.914 1.315 1.302a12.792 12.792 0 008.118 2.83 12.8 12.8 0 008.118-2.88c.463-.388.877-.864 1.302-1.315 0 .038.013.088.013.138l.225 1.59c0 .025.026.05.038.088a40.074 40.074 0 002.33 7.827s-.012.013-.012.025l.062.138c.351.814.739 1.59 1.128 2.379h-26.42c1.002-2.028 1.879-4.132 2.53-6.336zm-5.086 9.179l-1.115 1.753c-.05.076-.1.138-.15.201l-3.646.012 1.554-2.717 3.783.062c-.15.238-.288.464-.426.689zm4.335-9.618l-3.471 1.177.614-3.08 3.608-1.153-.401 1.666c-.112.463-.225.927-.35 1.39zm-10.035 16.894c-.2.188-.413.363-.626.564l-4.272-1.39a.386.386 0 00-.426.087l-3.019 2.818a.474.474 0 00-.113.188.436.436 0 00.288.526l3.583 1.089a40.194 40.194 0 01-6.84 4.045l-3.582-2.705a.464.464 0 00-.439-.05l-3.758 1.691a.49.49 0 00-.176.138.422.422 0 00.101.588l3.081 2.23c-2.167.676-4.422 1.139-6.714 1.44l-2.606-3.62c-.075-.137-.238-.212-.413-.2l-4.097.501a.284.284 0 00-.2.075.422.422 0 00-.088.589l2.28 3.043h-.113c-2.38 0-4.697-.251-6.965-.651l-1.39-4.271a.425.425 0 00-.326-.288l-4.059-.764a.634.634 0 00-.213 0 .461.461 0 00-.263.551l1.253 3.595a39.345 39.345 0 01-6.038-2.505l-.088-4.496a.453.453 0 00-.238-.376l-3.633-1.903a.484.484 0 00-.225-.05.423.423 0 00-.414.438l.163 3.795a40.288 40.288 0 01-4.81-3.908l1.165-4.345a.434.434 0 00-.113-.414l-2.957-2.842a.345.345 0 00-.2-.126.425.425 0 00-.514.313l-.914 3.682a40.232 40.232 0 01-4.159-6.161l2.48-3.795a.402.402 0 00.025-.426l-1.929-3.644a.39.39 0 00-.15-.163.427.427 0 00-.589.126l-1.992 3.193a39.669 39.669 0 01-1.967-6.688l3.52-2.867a.413.413 0 00.138-.401l-.739-4.058a.684.684 0 00-.088-.2.435.435 0 00-.613-.038l-2.844 2.417c-.05-.839-.125-1.678-.125-2.529 0-1.253.075-2.492.188-3.707l4.159-1.754a.399.399 0 00.263-.35l.438-4.095a.398.398 0 00-.025-.213c-.1-.213-.351-.313-.564-.213l-3.445 1.528a40.773 40.773 0 012.005-6.4l4.51-.438a.447.447 0 00.35-.263l1.616-3.77a.469.469 0 00.05-.237c-.037-.238-.238-.401-.476-.364l-3.745.439a41.372 41.372 0 014.159-5.911l4.409.951a.439.439 0 00.414-.125l2.706-3.118a.344.344 0 00.1-.2.407.407 0 00-.338-.489l-3.671-.726c1.466-1.328 3.019-2.58 4.685-3.695l3.972 2.129a.418.418 0 00.451 0l3.47-2.241a.489.489 0 00.15-.163.437.437 0 00-.188-.576l-3.357-1.691a39.392 39.392 0 016.764-2.605l3.095 3.244c.1.125.263.175.438.125l3.959-1.052a.587.587 0 00.213-.113.43.43 0 000-.601l-2.656-2.642c1.879-.276 3.771-.464 5.712-.464.552 0 1.078.051 1.616.076l1.905 4.032c.075.125.2.226.363.238l4.121.213a.324.324 0 00.213-.05.406.406 0 00.188-.564l-1.678-3.331c2.029.338 4.008.827 5.912 1.465l.714 4.434a.43.43 0 00.276.325l3.871 1.34a.386.386 0 00.238.025c.238-.037.376-.25.338-.488l-.664-3.67a39.368 39.368 0 015.926 3.557l-.602 4.458a.406.406 0 00.163.389l3.295 2.454c.063.05.138.075.225.088a.421.421 0 00.464-.376l.426-3.719c.288.25.576.488.839.764a37.464 37.464 0 012.744 3.055l-1.754 4.158a.44.44 0 00.062.426l2.556 3.231a.417.417 0 00.727-.1l1.39-3.482c1.002 1.628 1.917 3.319 2.681 5.097l-2.819 3.532a.422.422 0 00-.062.438l1.578 3.795a.32.32 0 00.138.175c.188.15.463.113.589-.075l2.292-2.993c.614 2.154 1.078 4.358 1.316 6.625l-3.734 2.542a.42.42 0 00-.2.401l.388 4.107a.426.426 0 00.677.301l3.057-2.167a39.072 39.072 0 01-.652 6.325l-4.297 1.365a.406.406 0 00-.288.325l-.802 4.045a.469.469 0 00.013.226.435.435 0 00.539.263l3.582-1.227a39.1 39.1 0 01-3.094 7.113l-4.485-.088a.42.42 0 00-.401.213l-2.054 3.582a.407.407 0 00-.063.2c0 .238.188.426.426.426l3.746-.013c-1.165 1.578-2.405 3.081-3.796 4.471zm-1.691 1.541l-1.691 1.44c-.125.1-.251.175-.363.275l-3.483-1.064 2.305-2.142 3.583 1.165c-.125.113-.238.225-.351.326zm-12.377 7.501c-.388.15-.777.288-1.178.426l-2.956-2.142 2.869-1.277 3.044 2.279-1.779.714zm-11.55 2.48c-.464.025-.927.062-1.403.075l-2.167-2.906 3.119-.375 2.205 3.08-1.754.126zm-12.202-1.102c-.438-.113-.864-.213-1.303-.338l-1.202-3.444 3.094.588 1.178 3.607-1.767-.413zm-12.051-8.792l2.781 1.453.088 3.795-1.691-.99c-.339-.2-.689-.401-1.028-.626l-.15-3.632zm-7.604-2.93c-.263-.288-.526-.564-.777-.852l.877-3.531 2.268 2.179-.99 3.656-1.378-1.452zm-7.404-11.484l1.967-3.118 1.466 2.767-2.08 3.169a1.432 1.432 0 01-.075-.138l-1.278-2.68zm-2.605-9.543l-.288-2.079c0-.062 0-.1-.013-.15l2.794-2.367.563 3.093-2.918 2.392c-.051-.3-.101-.588-.138-.889zm.15-12.598c.05-.326.088-.664.138-1.002l3.37-1.491-.339 3.119-3.495 1.465.326-2.091zm4.159-12.136l3.658-.438-1.24 2.893-3.783.363 1.365-2.818zm-10.222 3.219v-11.234h14.82l-.376.389a.397.397 0 00-.063.125c-1.816 2.129-3.457 4.433-4.81 6.913h-.013l-.025.05a46.474 46.474 0 00-1.766 3.657v.012c-.013.025-.025.063-.038.088h-7.729zm-.852 7.414h-2.468v-3.469h2.468v3.469zm-19.192 0h-2.468v-3.469h2.468v3.469zm-35.176-33.15c-17.012-15.416-29.49-26.687-45.111-26.862l-1.867-9.468.464-.087a.428.428 0 00.351-.489 2697.51 2697.51 0 01-.827-4.91c18.59.126 28.925 7.427 51.963 23.745l26.896 19.048v7.113h-16.724a.423.423 0 00-.426.426v4.634l-5.687-5.034c-3.17-2.818-6.164-5.523-9.032-8.116zm-40.451 10.808l-.626.2-9.546-46.7 2.818-.488 9.233 46.938a3.335 3.335 0 00-1.879.05zm3.295 3.356c-.063.839-.564 1.628-1.629 1.966l-4.86 1.528v-4.959l3.445-1.089c1.064-.326 1.929.037 2.455.676a2.654 2.654 0 01.589 1.878zm3.683 8.779h-88.681v-3.957h88.681v3.957zm-1.416 9.23h-2.054c-.614-1.929-1.792-3.607-3.708-4.771l-.025-.013c-1.842-1.102-4.297-1.753-7.404-1.753h-36.505c-2.63 0-5.649.939-8.005 2.254-2.242 1.24-3.845 2.83-4.108 4.283h-25.456v-8.391h87.265v8.391zm2.731-6.111l7.779 10.882c.188.326.289.764.289 1.215a3.48 3.48 0 01-.401 1.628 3.123 3.123 0 01-1.178 1.278 3.22 3.22 0 01-1.616.413h-6l1.39-5.46c.125-.464.188-.902.188-1.29 0-.614-.15-1.14-.451-1.566-.301-.413-.752-.701-1.315-.864-.176-.037-.376-.037-.564-.062v-6.174h1.879zm22.624 9.117v6.299h-15.408c.488-.376.939-.789 1.202-1.303a4.352 4.352 0 00.501-2.016c0-.601-.137-1.19-.413-1.653l-.952-1.327h15.07zm-27.171-2.154h2.23c.3 0 .551.037.776.087.376.1.664.288.852.551.188.263.288.626.288 1.065 0 .313-.05.676-.163 1.077l-1.541 6.074c0 .012-.025.012-.025.025 0 .012.025.012.025.012l-.601 2.329a476.879 476.879 0 00-1.841-11.22zm.789 27.313c-1.115 1.603-2.932 2.993-5.738 3.832l-2.906-16.005-.276-1.49c-.313-1.703-.613-3.294-1.064-4.784.012-.038.075-.025.075-.075 0-.063-.1-.063-.138-.125-.99-3.206-2.731-5.836-6.965-7.489-1.729-.664-3.834-1.177-6.439-1.516-2.593-.338-5.663-.513-9.333-.513h-27.147c.301-1.152 1.704-2.455 3.671-3.544 2.242-1.24 5.098-2.142 7.591-2.142h36.505c2.944 0 5.261.601 6.965 1.628l.025.013c1.829 1.102 2.969 2.692 3.47 4.571l3.257 20.551c.263 2.141.038 4.834-1.553 7.088zm-12.577 7.501c-1.316.414-2.769.689-4.423.852 0-.025.025-.038.025-.05.088-.225.138-.451.138-.676 0-.238-.05-.476-.138-.689-.225-.576-.751-1.027-1.553-1.027h-3.42v-.626h.338c.339.012.702.025.99.025 2.305 0 4.948-.376 4.948-3.594v-3.995h4.184a.43.43 0 00.426-.426v-6.637c0-.226-.2-.426-.426-.426h-4.184v-2.492c0-3.219-2.643-3.595-4.948-3.595-.288 0-.651.013-.99.013-.112.012-.225.012-.338.012v-2.266h11.187c.413 1.427.714 2.955 1.002 4.583 1.09 5.899 2.13 11.785 3.22 17.683-1.992 1.491-3.859 2.605-6.038 3.331zm-11.814.489a.944.944 0 010-.739c.113-.276.364-.488.777-.488h5.086c.413 0 .664.212.777.488a1.2 1.2 0 01.062.376c0 .125-.025.238-.062.363-.101.263-.351.438-.714.463-.752.038-1.554.038-2.418.025h-2.731c-.413 0-.664-.213-.777-.488zm-1.891-21.165a31.633 31.633 0 00-.476-1.089l-.339-.714h4.297v1.803h-3.482zm9.771 3.833v.463h-5.437v-6.099l.363-.013c.276 0 .564-.012.965-.012 1.904 0 4.109.288 4.109 2.743v2.918zm.839 5.748v-5.323h3.758v5.786h-3.758v-.463zm-6.276-4.434h5.437v4.02h-5.437v-4.02zm0 4.86h5.437v4.884c0 2.454-2.205 2.742-4.109 2.742-.401 0-.689 0-.965-.012h-.363v-7.614zm-2.53-17.483h6.814v1.716h-6.814v-1.716zm-132.376-22.605l-.777-1.077c-.025-.025-.05-.037-.075-.05-.614-.776-1.278-1.49-1.954-2.216H235.47v4.408H114.92c-.251-.363-.526-.702-.789-1.065zm1.34 45.21l-1.115 1.765c-.05.076-.112.138-.163.201l-3.645.012 1.566-2.717 3.771.062c-.138.226-.276.464-.414.677zm4.322-9.606l-3.47 1.177.614-3.08 3.62-1.153-.413 1.679a46.13 46.13 0 01-.351 1.377zm1.629-11.396l-2.994 2.116-.288-3.13 3.119-2.129c.062.701.088 1.402.113 2.103l.05 1.04zm-1.817-11.772l-2.23 2.93-1.215-2.905 2.38-2.968 1.065 2.943zm-4.773-10.006c.038.05.063.1.101.15l-1.353 3.406-1.955-2.467 1.479-3.481c.137.175.263.376.4.551l1.328 1.841zm-5.061 50.068c-.2.188-.426.363-.626.564l-4.284-1.39a.371.371 0 00-.414.087l-3.019 2.818c-.05.05-.1.113-.113.188-.075.213.051.451.276.526l3.583 1.089a39.768 39.768 0 01-6.84 4.045l-3.583-2.705a.438.438 0 00-.426-.05l-3.77 1.691c-.063.038-.126.075-.176.138a.433.433 0 00.1.588l3.094 2.23c-2.167.676-4.422 1.139-6.727 1.44l-2.605-3.62c-.076-.137-.238-.212-.414-.2l-4.084.501a.341.341 0 00-.213.075.422.422 0 00-.087.589l2.28 3.043h-.113c-2.368 0-4.685-.251-6.965-.651l-1.39-4.271a.408.408 0 00-.314-.288l-4.059-.764a.71.71 0 00-.225 0 .432.432 0 00-.25.551l1.252 3.595a38.84 38.84 0 01-6.038-2.505l-.1-4.496a.438.438 0 00-.226-.376l-3.645-1.903a.454.454 0 00-.226-.05.412.412 0 00-.4.438l.15 3.795a40.3 40.3 0 01-4.81-3.908l1.177-4.345a.433.433 0 00-.113-.414l-2.969-2.842a.346.346 0 00-.2-.126.437.437 0 00-.514.313l-.914 3.682a40.24 40.24 0 01-4.16-6.161l2.493-3.795a.465.465 0 00.025-.426l-1.941-3.644a.276.276 0 00-.15-.163.412.412 0 00-.577.126l-2.004 3.193c-.827-2.142-1.504-4.371-1.955-6.688l3.508-2.867a.422.422 0 00.15-.401l-.751-4.058a.473.473 0 00-.088-.2.421.421 0 00-.601-.038l-2.844 2.417c-.063-.839-.125-1.678-.125-2.529 0-1.253.062-2.492.175-3.707l4.172-1.754a.397.397 0 00.263-.35l.438-4.095a.583.583 0 00-.037-.213.413.413 0 00-.552-.213l-3.457 1.528a39.604 39.604 0 012.017-6.4l4.51-.438a.449.449 0 00.35-.263l1.617-3.77a.674.674 0 00.037-.237.41.41 0 00-.476-.364l-3.733.439a40.458 40.458 0 014.159-5.911l4.397.951a.42.42 0 00.413-.125l2.719-3.118a.425.425 0 00.087-.2c.038-.226-.1-.451-.325-.489l-3.683-.726c1.478-1.328 3.031-2.58 4.685-3.695l3.984 2.129a.418.418 0 00.45 0l3.458-2.241a.381.381 0 00.15-.163c.113-.201.026-.464-.187-.576l-3.358-1.691a39.545 39.545 0 016.778-2.605l3.081 3.244c.1.125.276.175.439.125l3.97-1.052a.813.813 0 00.201-.113.409.409 0 000-.601l-2.643-2.642c1.867-.276 3.77-.464 5.7-.464.551 0 1.077.051 1.616.076l1.917 4.032c.062.125.2.226.363.238l4.121.213c.063.012.138-.013.213-.05.2-.1.288-.351.188-.564l-1.678-3.331a38.75 38.75 0 015.9 1.465l.714 4.434a.427.427 0 00.276.325l3.883 1.34c.075.038.15.038.226.025a.4.4 0 00.338-.488l-.664-3.67a39.533 39.533 0 015.938 3.557l-.614 4.458a.406.406 0 00.163.389l3.295 2.454a.45.45 0 00.225.088.415.415 0 00.464-.376l.438-3.719c.276.25.576.488.839.764a42.041 42.041 0 012.744 3.043l-1.754 4.17a.384.384 0 00.063.426l2.555 3.231c.038.063.1.113.176.138a.42.42 0 00.551-.238l1.378-3.482c1.002 1.628 1.929 3.319 2.693 5.097l-2.831 3.532a.453.453 0 00-.063.438l1.579 3.795c.037.075.075.138.15.175a.41.41 0 00.589-.075l2.292-2.993c.602 2.154 1.065 4.358 1.303 6.625l-3.72 2.542a.426.426 0 00-.213.401l.388 4.107a.363.363 0 00.088.201c.125.2.401.238.588.1l3.057-2.167a40.345 40.345 0 01-.639 6.325l-4.309 1.365a.412.412 0 00-.276.325l-.814 4.045a.462.462 0 00.025.226.43.43 0 00.539.263l3.582-1.227a40.022 40.022 0 01-3.094 7.113l-4.497-.088a.419.419 0 00-.401.213l-2.054 3.582c-.025.062-.063.137-.063.2 0 .238.2.426.426.426l3.758-.013c-1.165 1.578-2.418 3.081-3.796 4.471zm-1.703 1.541l-1.692 1.44c-.125.1-.238.175-.363.275l-3.47-1.064 2.293-2.142 3.582 1.165a4.326 4.326 0 01-.35.326zm-12.377 7.501c-.389.15-.777.288-1.165.426l-2.957-2.142 2.869-1.277 3.031 2.279-1.778.714zm-11.55 2.48c-.464.025-.928.062-1.391.075l-2.18-2.906 3.12-.375 2.204 3.08-1.754.126zm-12.202-1.102c-.426-.113-.864-.213-1.29-.338l-1.203-3.444 3.082.588 1.177 3.607-1.766-.413zM59.9 193.784l2.781 1.453.075 3.795-1.703-.99c-.338-.213-.677-.401-1.002-.626l-.15-3.632zm-7.604-2.93c-.263-.288-.526-.564-.776-.852l.876-3.531 2.255 2.179-.99 3.656-1.365-1.452zm-7.404-11.484l1.955-3.118 1.465 2.767-2.08 3.169a.761.761 0 01-.087-.176l-1.253-2.642zm-30.115 5.134l-.3-4.758 5.8-3.044h.012l20.758-10.845c.025.514.037 1.052.087 1.578 0 .025-.037.038-.037.063l.05.325c.012.188.037.376.05.564l-26.42 16.117zm-13.442 9.092c.05-.213.088-.438.138-.676.138-.851.225-1.841.238-2.705V151.23c0-.464.188-.889.489-1.202h.012a1.75 1.75 0 011.203-.501h6.852c.476 0 .852.125 1.115.35.238.226.388.564.426 1.027l.363 5.924v.025l1.792 28.165-12.628 8.578zm13.229-39.987v3.006l-1.566-.175-.188-3.044 1.754.213zm1.24-6.274l4.335-.401.313.176v20.5c-.213-.112-.376-.263-.614-.325l-.013-.013c-1.59-.426-3.169-1.791-4.41-3.569V147.31c.126 0 .251.038.39.025zm-2.944-2.292c-.2-.375-.3-.789-.35-1.202a3.541 3.541 0 01.125-1.265c.313-1.039 1.152-1.903 2.555-2.029l24.166-2.179v5.936L20.84 146.02l-5.412.413c-1.24 0-2.142-.551-2.568-1.39zm29.577 12.098c.05-.301.088-.614.138-.914l3.357-1.491-.325 3.119-3.495 1.465.325-2.179zM22.47 169.439a4.288 4.288 0 00-1.178-1.378v-9.856l19.843 2.179a43.33 43.33 0 00-.175 3.62c0 .313.037.601.037.914l-18.79 9.831c.225-.401.488-.789.614-1.228.2-.688.262-1.402.212-2.091a5.434 5.434 0 00-.563-1.991zm1.716-20.288l-.764 1.327a.425.425 0 00.15.577l2.205 1.264-.752 1.591-3.733-.413v-5.924l2.894 1.578zm.426-.726l-2.97-1.628 4.135-.389-1.165 2.017zm8.706-2.718l6.038 2.392v7.364l-8.03-.877-1.277-.138c.175-.363.363-.776.5-1.027.314-.651.49-1.001.565-1.352.087-.413.037-.739-.076-1.428-.037-.238-.087-.526-.15-.901a.416.416 0 00-.3-.351l-1.792-.514a.427.427 0 00-.35.051l-1.354.789a.418.418 0 00-.175.187l-.79 1.653-1.753-1.014 2.43-4.233 6.514-.601zm6.038 1.478l-4.159-1.641 4.16-.388v2.029zm-11.725 3.193l1.102-.638 1.366.388.1.651c.1.576.15.864.088 1.115-.05.25-.213.551-.501 1.152-.113.225-.276.563-.426.889h-.013l-.2.413-3.232-.35 1.716-3.62zm13.88 7.176c-.1.664-.225 1.315-.3 1.991l-19.919-2.191v-3.006l4.11.451 3.958.426.751.075 1.128.138 8.493.926c.013 0 .013-.025.025-.025.013 0 0 .025.013.025h1.93l-.189 1.19zm-26.946 4.759c-.852-1.578-1.403-3.331-1.503-5.009l1.503.175v4.834zm-.15 16.506l-1.078-17.082c.326.726.677 1.428 1.115 2.091 1.378 2.104 3.245 3.745 5.136 4.258l.013.013c.99.275 1.691.927 2.104 1.728.276.501.427 1.077.477 1.666.05.601 0 1.214-.176 1.803-.313 1.09-1.027 2.091-2.117 2.655l-5.474 2.868zm27.873-8.979l-.3-2.104v-.138l2.78-2.367.576 3.093-2.93 2.392a21.49 21.49 0 01-.126-.876zm4.297-24.747l3.658-.438-1.24 2.893-3.771.363 1.353-2.818zm5.75-7.989l1.553-1.629c.075-.075.15-.137.238-.212l3.57.701-2.067 2.367-3.683-.802.389-.425zm-12.127-30.846c0-1.277.514-2.442 1.366-3.293a4.617 4.617 0 013.294-1.365H58.66v28.854a41.198 41.198 0 00-4.936 4.032c-.025.013-.062 0-.075.025l-.338.351c-.15.138-.3.263-.439.401-.413.413-.789.864-1.19 1.289l-.864.915c-.038.037-.05.075-.075.125a40.808 40.808 0 00-4.81 6.913l-.026.05a39.232 39.232 0 00-1.766 3.657l-.013.012a41.044 41.044 0 00-2.267 7.289h-1.654v-49.255zm23.276.802H62.18v-5.836l1.303-.15v5.986zm.852-21.014c.175 0 .35 0 .514.012.313 0 .576 0 .851.013v13.888l-1.365.15V86.046zm-2.117-1.04l-.013-.012a.548.548 0 01-.175-.413c0-.564-.013-1.153-.025-1.654-.025-1.315-.038-1.953.225-2.166.288-.238 1.053-.213 2.58-.188a60.77 60.77 0 002.243.038c.163 0 .3.062.414.162v.013c.112.1.175.25.175.413 0 .564.013 1.165.025 1.653.038 1.315.038 1.954-.213 2.167-.188.15-.664.188-1.303.188-.012 0-.012-.038-.037-.038H63.91c-.013 0-.013.025-.013.025-.425-.012-.814-.025-1.265-.025a.587.587 0 01-.413-.163zm3.482 22.48v3.03h-1.365v-9.542l1.365-.163v6.675zm-1.791 3.869h2.205c.238 0 .438-.175.438-.413v-3.03h1.265v4.984H62.18v-4.984h1.303v3.03c0 .238.188.413.426.413zm-4.397 18.548v-28.366l1.816-.213v27.489c-.426.25-.839.501-1.252.764l-.564.326zm3.608-1.128l3.294 1.654-2.643 1.715-3.345-1.791.075-.05 2.619-1.528zm9.257-3.443l1.955-.439.538-.075 2.568 2.567-3.031.814-2.606-2.73c.188-.05.376-.1.576-.137zm50.084-31.284l1.667 13.726c-8.081 2.592-15.885 5.184-22.312 7.702-6.564 2.592-11.738 5.122-14.406 7.576-.225.213-.45.426-.664.639l-.363-.038c-.439-.05-.89-.087-1.34-.125l-1.516-.15a.4.4 0 00-.238.037v.026c-.564-.026-1.103-.088-1.679-.088-2.255 0-4.46.225-6.627.588-.025 0-.063-.037-.1-.025l-.714.151c-.677.125-1.328.275-1.992.425l-1.315.301a.316.316 0 00-.188.1 40.275 40.275 0 00-7.742 3.031c-.013.012-.025 0-.038 0l-.175.1c-.175.1-.364.175-.539.276v-14.553h6.063a.42.42 0 00.426-.413v-5.848a.43.43 0 00-.426-.426h-1.69v-6.349l55.908-6.663zm110.479-.088l-107.973 13.626-1.666-13.638L232.94 80.911v13.05zm2.104-17.883h9.746v23.87h-10.999v-23.87h1.253zm.426-4.947h9.32v4.096h-9.32V71.13zm14.444 4.096h-1.879V71.13h1.203l.676 4.096zm-5.9-46.537a2.994 2.994 0 011.941-1.24l1.203-.213.05-.012a3.075 3.075 0 012.23.513 2.958 2.958 0 011.228 1.916c2.918 15.354 5.161 31.396 7.704 46.863-.063-.063-.15-.088-.213-.15a3.826 3.826 0 00-.902-.615c-.138-.075-.263-.15-.413-.212a4.737 4.737 0 00-1.692-.313h-4.384l-.739-4.484c.012-.025.062-.012.062-.05 0-.037-.075-.037-.075-.075L243.5 30.968a3.07 3.07 0 01.514-2.28zm18.816 103.806h-.527l-8.856-45.11 2.004-.35 9.558 46.8-1.753.551v-1.465a.423.423 0 00-.426-.426zm-2.932 2.905v-2.054h2.506v7.377h-2.506V135.4zm-23.576-4.345h2.242v9.655h-2.242v-9.655zm-3.282-3.269l-4.31-17.833 1.692-.489c.225-.062.35-.3.3-.526l-.188-.601 3.032-3.869h11.65a.423.423 0 00.426-.426v-3.244h2.681a.423.423 0 00.426-.426v-5.835h5.236l7.442 37.958h-1.955a.423.423 0 00-.426.426v2.054h-16.46l-1.391-2.781a.415.415 0 00-.388-.25h-1.391v-1.303a.422.422 0 00-.426-.425h-3.094a.422.422 0 00-.426.425v4.822h-1.065v-5.072c0-1.24-.576-2.091-1.365-2.605zm-4.159 2.605c0-1.115.601-1.816 1.365-2.129a2.794 2.794 0 011.942 0c.777.313 1.365 1.014 1.365 2.129v5.072h-4.672v-5.072zm-.251-28.628l4.31-6.1v8.229l-2.694 3.443-1.616-5.572zm-6.076 8.954h-3.582v-5.886h1.866l1.716 5.886zm5.563-1.465l-3.345.976-1.366.389-2.43-8.366c-.438-1.503.1-2.705 1.027-3.431a3.77 3.77 0 011.24-.64 3.756 3.756 0 011.391-.124c1.178.112 2.28.839 2.718 2.354l2.431 8.366-1.666.476zm1.277 18.534l-4.021-16.856 2.531-.739 4.171 17.207c-.275-.075-.564-.163-.852-.163-.438 0-.877.088-1.29.251a3.256 3.256 0 00-.539.3zm4.397-26.988h10.999v2.818h-10.999v-2.818zm11.851-29.668h1.554v4.096h-1.554V71.13zm0 13.087h2.255v9.468h-2.255v-9.468zm0 10.32h2.255v5.41h-2.255v-5.41zm6.239-7.314a.423.423 0 00.488.35l.251-.037 1.203 6.149h-5.074v-9.468h2.631l.501 3.006zm-1.478-11.146h4.747c.439 0 .827.05 1.178.163 1.065.326 1.766 1.064 2.13 1.966a4.107 4.107 0 010 3.018c-.476 1.203-1.579 2.142-3.308 2.142h-9.508v-7.289h4.761zM85.005 124.38l1.265.112c.35.038.69.113 1.04.163l1.628 3.231-3.131-.162-1.616-3.394c.275.025.55.025.814.05zm13.73 6.975l-2.982-1.027-.588-3.707c.463.163.914.314 1.365.489l.827.338c.25.1.476.238.714.338l.664 3.569zm7.003 1.027l.25.188 1.666 1.365c.176.15.338.313.501.451l-.413 3.607-2.518-1.866.514-3.745zm80.562 2.342c0-1.215.126-2.605 1.178-2.605h15.221c1.064 0 1.177 1.39 1.177 2.605v.739h-17.563l-.013-.739zm18.428.739v-.739c0-1.615-.2-3.444-2.029-3.444h-15.221c-1.816 0-2.029 1.829-2.029 3.444l.012.739h-74.9c-.063-.063-.126-.138-.188-.2-.464-.464-.965-.877-1.454-1.328-.025-.012-.012-.063-.037-.088l-.664-.551a52.643 52.643 0 00-1.741-1.415l-.777-.626c-.05-.05-.125-.075-.188-.1a41.3 41.3 0 00-6.815-4.008c-.037-.037-.05-.1-.1-.112l-.877-.363c-.3-.126-.601-.238-.902-.351l-2.042-.814c-.063-.038-.138-.038-.225-.025-2.18-.727-4.448-1.253-6.778-1.616l.2-.188c2.594-2.379 7.668-4.859 14.144-7.401 6.514-2.567 14.394-5.172 22.574-7.802l107.772-13.6-4.134 5.848-.162-.563c-.552-1.891-1.955-2.806-3.445-2.943a4.615 4.615 0 00-1.704.15 4.505 4.505 0 00-1.541.789c-1.178.914-1.866 2.442-1.315 4.333l.438 1.49h-2.067c-.225 0-.413.201-.413.439v6.725c0 .238.188.425.413.425h4.585c.025 0 .025-.05.05-.05.025-.012.038.038.075.038l1.316-.388 4.121 17.257c-.388.501-.639 1.152-.639 1.966v5.072h-23.313zm37.582 5.26h-2.894v-7.928h1.128l3.958 7.928h-2.192zm3.144 0l-2.443-4.897h16.035v4.897h-13.592zm13.893-55.24l-6.702 1.176-.401-2.442h2.906c.527 0 1.003-.087 1.441-.213.15-.05.263-.137.401-.187.263-.113.539-.213.752-.364.137-.1.25-.237.375-.35.176-.163.364-.3.514-.489.1-.137.175-.3.263-.463.1-.175.238-.338.313-.526l.614 3.782-.476.075zm77.156 25.847c0-.35 0-.713-.013-1.152-.012-.3-.012-.651-.012-1.002h2.292v2.154h-2.267zm-3.658 2.58l-1.165-.025v-7.288l.789-.025c.363-.013.726-.026 1.115-.026 1.127 0 2.029.138 2.029.965 0 .426.013.801.013 1.215 0 .012-.013.012-.013.012v3.018c0 .013.038.013.038.038 0 .927-.05 1.503-.251 1.791-.263.363-1.015.363-2.555.325zm-7.191-48.315c-.063-1.828.276-3.694.864-6.725l9.483-52.285h46.915v97.77h-43.432l-12.239-32.098c-1.04-3.005-1.516-4.834-1.591-6.662zm-.326-37.22l-1.967-.25.226-1.19 8.481-3.38-1.015 5.547-5.725-.726zm-1.616 6.763l-1.516-.35 1.015-5.836 1.553.2-1.052 5.986zm3.52 2.03c.176.262.238.613.163.938l-2.981 13.388c-.075.338-.288.6-.564.789a1.283 1.283 0 01-.94.163l-5.963-1.328a1.206 1.206 0 01-.776-.564 1.214 1.214 0 01-.176-.939l2.994-13.387c.076-.338.276-.614.552-.777a1.23 1.23 0 01.939-.175l1.153.263 2.342.514v.012-.012l2.468.55c.338.076.614.289.789.564zm.527-36.244h55.157v4.822h-55.157V.924zm100.005 4.81h-43.996V.923h43.996v4.81zm-5.838 51.508v47.113h-38.158V6.585h38.158v50.657zm12.277.426h22.499v69.993h-31.093c-.401-.2-.802-.388-1.215-.576-.025-.013-.025-.038-.038-.05l-.751-.301-.213-.1c-.113-.038-.226-.1-.338-.138a2.772 2.772 0 01-.289-.125V57.668h11.438zm.401-1.403a24.8 24.8 0 01-.025-1.04c0-1.452.213-2.817 1.653-2.817.965 0 1.98-.013 2.856-.025 2.518-.038 3.871-.05 4.498.326l.025.012c.614.388.614 1.428.601 3.607v.488h-9.596l-.012-.55zm31.456-2.517h9.395v4.208l-5.336-.3-4.059-.264v-3.644zm.839-9.117h7.729v8.278h-7.729V44.63zm7.729-.84h-7.729V41.2h7.729v2.592zm-12.439-3.844l-.013-.025a2.358 2.358 0 01-.037-.6c.025-.239.05-.49.125-.727.2-.689.664-1.29 1.466-1.29h14.055c.815 0 1.278.601 1.478 1.29.063.238.113.488.126.714 0 .238 0 .45-.05.638-.05.238-.101.401-.138.401h-16.874c-.051 0-.101-.163-.138-.4zm30.253-12.51a10.79 10.79 0 013.182-7.652 10.743 10.743 0 017.241-3.181l-.013 6.024a8.689 8.689 0 00-3.77 3.03 8.475 8.475 0 00-1.529 4.86v29.191c-1.691-.15-3.407-.288-5.111-.426V27.436zM338.77 137.077v13.814l-15.609-13.814h15.609zm-11.688-.839h-4.61v-4.721h4.61v4.721zm15.847-16.418v-2.68l2.643-4.583h12.39v7.263h-15.033zm18.34 0h-2.468v-7.251h2.468v7.251zm-2.455 14.703v-10.758h2.455v10.758h-2.455zm-15.885-3.006h15.033v2.993h-15.033v-2.993zm15.033-.852h-15.033v-6.912h15.033v6.912zm-18.34.426v-7.326h2.455v10.758h-2.455v-3.432zm0 7.364h2.455v9.856h-2.455v-9.856zm3.307 0h15.033v9.856h-15.033v-9.856zm18.34 9.856h-2.468v-9.856h2.468v9.856zm0-11.647v.952h-21.647v-2.254h21.647v1.302zm-21.647-24.909v-6.561h44.384v20.513h-8.23l-6.339-13.713a.41.41 0 00-.401-.275h-23.714a.437.437 0 00-.364.213l-2.705 4.671h-2.631v-4.847zm0 5.698h2.455v2.355h-2.455v-2.355zm0 3.219h21.647v2.242h-21.647v-2.242zm-.852 10.845v4.721h-10.824v-4.721h10.824zm22.499 19.887h-21.647v-2.242h21.647v2.242zm20.783-19.173h-12.064c-.263 0-.501.088-.689.238a.838.838 0 00-.326.664v.513c-.012.188-.025.376-.025.501 0 .789.163 1.378 1.04 1.378h8.393c-.225.225-.426.475-.651.713h-15.609v-4.721h20.883c-.313.238-.639.463-.952.714zm-12.064 2.442c-.163 0-.188-.225-.188-.526 0-.175.013-.313.013-.463.012-.201.025-.389.025-.551v-.013a.265.265 0 01.15-.05h7.404v1.603h-7.404zm9.496-.188c-.025.013-.063 0-.088.025l-.163.163h-1.002v-1.603h2.794c-.527.451-1.04.927-1.541 1.415zm-1.391 2.618l1.541-1.629c.088-.075.163-.137.238-.212l3.583.701-2.067 2.367-3.683-.802.388-.425zm10.586-9.18c-.013.012-.013 0-.025 0l-.176.1a39.072 39.072 0 00-2.63 1.54l-.752.439c-.013 0-.025.025-.038.037-.3.201-.614.414-.914.626h-22.023v-18.107h6.652l6.351 13.763a.41.41 0 00.376.25h16.01c-.965.401-1.892.877-2.831 1.353zm.2.851l3.282 1.654-2.63 1.715-3.345-1.791c.012-.012.037-.025.062-.05l2.631-1.528zm9.245-3.443l1.954-.439.539-.075 2.568 2.567-3.031.814-2.593-2.73a8.7 8.7 0 01.563-.137zm12.64-.952l1.253.112c.363.038.702.113 1.052.163l1.629 3.231-3.144-.162-1.604-3.394c.263.025.539.025.814.05zm2.719-.526c-.05-.013-.075-.075-.126-.075l-1.215-.126c-.438-.05-.889-.087-1.34-.125l-1.516-.15a.386.386 0 00-.238.037c-.012 0 0 .026-.012.026-.552-.026-1.103-.088-1.667-.088-2.267 0-4.472.225-6.627.588-.037 0-.062-.037-.1-.025l-.714.151a51.92 51.92 0 00-2.004.425l-1.303.301a.318.318 0 00-.188.1 32.73 32.73 0 00-2.656.839s0-.025-.012-.025h-8.907v-20.513h37.068v20.513h-.864l-.526-.2a.35.35 0 00-.226-.025 42.625 42.625 0 00-6.827-1.628zm11.011 7.501l-2.981-1.027-.589-3.707c.451.163.914.314 1.365.489l.827.338c.238.1.476.238.714.338l.664 3.569zm6.99 1.027c.088.063.176.125.251.188l1.666 1.365c.175.15.351.313.514.463l-.414 3.595-2.53-1.866.513-3.745zm7.78 7.865l1.328 1.841c.037.05.062.1.1.163l-1.353 3.393-1.954-2.467 1.465-3.481c.138.175.276.376.414.551zm22.424 5.097h-10.26c.438-.626.877-1.29 1.253-1.941 1.039-1.854 2.016-3.557 3.983-3.557 1.716 0 2.669 1.666 3.708 3.494.401.676.852 1.353 1.316 2.004zm1.002 0c-.589-.752-1.103-1.603-1.579-2.43-1.177-2.053-2.242-3.919-4.447-3.919-2.468 0-3.545 1.916-4.71 3.982-.464.814-.952 1.641-1.528 2.367h-1.992a36.603 36.603 0 001.741-2.542c1.766-2.806 3.533-5.623 6.364-5.623 2.819 0 4.598 2.817 6.351 5.623.564.901 1.153 1.74 1.742 2.542h-1.942zm4.773 11.559c.025-.225.05-.451.1-.676l3.357-1.491-.338 3.119-3.495 1.465.376-2.417zm-.201 12.962l-.288-2.129c0-.05 0-.088-.012-.138l2.793-2.367.577 3.093-2.932 2.392c-.05-.288-.1-.563-.138-.851zm-19.367-3.056c1.153 1.853 2.643 3.306 4.435 4.145a11.079 11.079 0 004.698 1.002 11.042 11.042 0 004.672-1.064c1.779-.852 3.245-2.317 4.385-4.183.012.25.012.488.025.726 0 .025-.025.038-.025.063l.05.325c.025.326.075.664.113.99a13.33 13.33 0 01-1.667 1.69 12.108 12.108 0 01-7.591 2.705 12.008 12.008 0 01-7.592-2.655 12.489 12.489 0 01-1.678-1.678c.087-.676.125-1.365.175-2.066zm-.764-3.983l.05 1.04-2.994 2.116-.288-3.13 3.119-2.129c.063.701.088 1.402.113 2.103zm19.618-6.95l-.113.764c-.889-1.916-2.117-3.482-3.683-4.508-1.766-1.153-3.858-1.741-5.925-1.754a11.077 11.077 0 00-5.963 1.678c-1.591 1.015-2.832 2.58-3.746 4.484a50.269 50.269 0 00-.426-1.979c.977-1.49 2.205-2.692 3.595-3.569a11.988 11.988 0 016.502-1.866c2.28 0 4.535.639 6.502 1.903a11.84 11.84 0 013.57 3.607c-.088.413-.226.814-.301 1.227 0 .013-.012.013-.012.013zm-.602 4.083a39.621 39.621 0 00-.213 4.045c0 .451.051.889.076 1.352-1.053 2.254-2.731 3.832-4.673 4.772a10.148 10.148 0 01-4.309.989c-1.491 0-2.982-.301-4.335-.939-1.954-.902-3.658-2.48-4.735-4.709.012-.476.075-.939.075-1.415v-.013c0-.012.012-.025.012-.037 0-.94-.087-1.841-.15-2.755l-.062-1.315v-.013c-.076-.676-.201-1.34-.301-2.016.789-2.317 2.242-4.02 3.984-5.122 1.653-1.052 3.582-1.566 5.499-1.553 1.917.012 3.846.538 5.474 1.615 1.742 1.127 3.157 2.856 3.934 5.173-.088.626-.213 1.252-.276 1.891v.051zm-20.782-7.865l-2.243 2.93-1.202-2.905 2.367-2.968 1.078 2.943zm23.751-3.87c-.726 1.741-1.302 3.544-1.779 5.385-.977-1.327-2.092-2.467-3.382-3.293a13.005 13.005 0 00-6.965-2.042 12.982 12.982 0 00-6.965 1.992c-1.291.826-2.418 1.953-3.395 3.281-.138-.501-.238-1.027-.388-1.516v-.012l-.013-.025c-.626-2.004-1.441-3.933-2.343-5.799h26.208c-.339.677-.677 1.328-.978 2.017v.012zm2.456-3.131l3.658-.438-1.241 2.893-3.783.363 1.366-2.818zm5.737-7.977l1.554-1.641c.075-.075.162-.137.25-.212l3.57.701-2.067 2.367-3.683-.802.376-.413zm7.015-7.113c-.012 0-.025.025-.037.037a39.85 39.85 0 00-5.575 4.446c-.025.013-.062 0-.087.025l-.339.351c-.15.138-.3.263-.438.401-.414.425-.789.864-1.19 1.302l-.852.902c-.038.037-.05.075-.075.125-1.829 2.129-3.458 4.433-4.811 6.913h-.012l-.013.05c-.15.25-.263.526-.401.789h-4.823c-.726-.902-1.39-1.941-2.067-2.993-1.879-3.006-3.783-6.011-7.065-6.011-3.295 0-5.186 3.005-7.078 6.011-.664 1.052-1.328 2.091-2.054 2.993h-3.934a38.887 38.887 0 00-1.954-3.356c0-.025.012-.038 0-.063l-.201-.288a38.69 38.69 0 00-1.465-2.004l-.752-1.052c-.013-.025-.05-.037-.063-.05a39.99 39.99 0 00-2.906-3.268c-.476-.464-.977-.877-1.466-1.328-.012-.012 0-.063-.025-.088l-.664-.551a52.174 52.174 0 00-1.753-1.415l-.765-.626c-.05-.05-.125-.075-.188-.1-1.315-.952-2.68-1.854-4.108-2.643h59.642c-.601.339-1.19.714-1.766 1.077l-.715.414zm3.784-1.228l3.282 1.654-2.643 1.715-3.345-1.791c.025-.012.037-.025.05-.025l2.656-1.553zm9.245-3.443l1.967-.439.526-.075 2.568 2.567-3.032.814-2.593-2.73c.188-.05.376-.1.564-.137zm12.64-.952l1.253.112c.363.038.701.113 1.052.163l1.628 3.231-3.144-.162-1.616-3.394c.276.025.551.025.827.05zm13.717 6.975l-2.969-1.027-.588-3.707c.451.163.914.314 1.365.489l.827.338c.238.1.463.238.714.338l.651 3.569zm26.17-63.931c4.923 1.314 7.717 3.193 9.433 5.36 1.716 2.141 2.38 4.596 3.031 7.038l10.047 41.527-5.148 6.312h-42.506c-.35-.175-.701-.351-1.052-.514-.05-.037-.05-.1-.1-.112l-.889-.363c-.301-.126-.602-.238-.902-.351l-2.03-.814c-.062-.038-.15-.038-.225-.025h-.013a42.127 42.127 0 00-6.815-1.628c-.05-.013-.075-.075-.125-.075l-1.215-.126c-.439-.05-.89-.087-1.353-.125l-1.503-.15a.427.427 0 00-.251.037v.026c-.551-.026-1.102-.088-1.653-.088-2.28 0-4.473.225-6.64.588-.038 0-.075-.037-.1-.025l-.727.151c-.676.125-1.328.275-1.992.438l-1.315.288a.285.285 0 00-.175.1 40.007 40.007 0 00-7.204 2.768h-30.904V57.693c2.718.163 5.349.35 8.042.513.025 0 .025.025.038.025l4.672.276c11.739.751 23.351 1.565 34.638 2.667 15.484 1.503 30.517 3.47 44.936 6.25zm27.76 49.655l7.679 1.264-2.493 17.608c-.037-.05-.025-.112-.062-.162l-.013-.025a1.682 1.682 0 00-1.19-.489h-1.077v-4.383c0-.889-.351-1.691-.94-2.279h-.012a3.188 3.188 0 00-2.28-.952h-1.14l1.528-10.582zm4.735 27.651a.87.87 0 01-.225.576.865.865 0 01-.589.238h-10.335v-9.417h10.335c.238 0 .439.1.589.238l.013.025a.777.777 0 01.212.551v7.789zM574.558 149h2.694c.864 0 1.628-.326 2.205-.877.075-.063.112-.163.175-.225v2.88l-5.074 2.793V149zm-6.99 0h6.151v5.034l-8.556 4.709 2.405-9.743zm.301-12.874h2.518v9.405h-2.518v-9.405zm0 12.022v-1.753h11.688a2.335 2.335 0 01-.677 1.114 2.344 2.344 0 01-1.628.639h-9.383zm9.383-19.637c.664 0 1.253.263 1.691.702.426.426.702 1.027.702 1.678v4.383h-11.776v-6.763h9.383zm-19.405 0h9.183v19.638h-6.815a2.338 2.338 0 01-1.679-.701 2.348 2.348 0 01-.689-1.666v-17.27zm-18.816 4.559h-1.904c-1.027 0-1.19-1.065-1.19-2.405 0-.438 0-.839.025-1.239l.025-.915h3.044v4.559zm10.222 0h-9.37v-4.559h9.37v4.559zm3.896-4.559l.038.915c.012.4.025.814.025 1.239 0 1.34-.175 2.405-1.19 2.405h-1.917v-4.559h3.044zm-22.436 3.87c.088.063.175.138.263.201l1.654 1.34.513.475-.413 3.595-2.531-1.866.514-3.745zm7.792 7.902l1.303 1.804c.037.05.075.1.113.163l-1.353 3.393-1.955-2.467 1.466-3.481c.15.188.288.388.426.588zm4.197 5.06a42.591 42.591 0 00-1.955-3.356c-.012-.025.013-.038 0-.063l-.213-.288c-.451-.676-.939-1.328-1.428-1.991l-.776-1.065c-.013-.025-.051-.037-.063-.05a38.014 38.014 0 00-2.919-3.268c-.451-.464-.965-.877-1.441-1.315-.025-.025-.012-.076-.05-.101l-.664-.551a48.003 48.003 0 00-1.728-1.402l-.777-.639a.434.434 0 00-.188-.088c-1.315-.964-2.668-1.866-4.109-2.655h8.744c-.012.301-.012.602-.025.877-.012.451-.025.902-.025 1.277 0 1.804.288 3.257 2.042 3.257h14.895c1.741 0 2.042-1.453 2.042-3.257 0-.375-.025-.826-.038-1.277-.012-.275-.012-.576-.025-.877h2.994v16.832h-14.293zm-300.217 47.551a28.113 28.113 0 01-1.265 2.004h-2.781a24.337 24.337 0 003.733-6.575 23.802 23.802 0 001.491-8.315c0-4.459-1.228-8.629-3.345-12.186a23.992 23.992 0 00-8.719-8.553l1.441-1.728a25.975 25.975 0 0110.811 12.36v.013a27.196 27.196 0 011.415 4.471c1.353 6.123.527 12.723-2.781 18.509zm379.351-51.458c-2.53-2.593-5.975-4.409-9.921-4.409h-11.312l-.213-.388a5.564 5.564 0 00-1.253-1.503 4.485 4.485 0 00-2.769-1.002 5.451 5.451 0 00-2.856.752 6.536 6.536 0 00-1.766 1.515l-10.21 11.822c-.012 0 0 0 0 .013-.062.05-.138.1-.188.163-.325.313-.601.676-.864 1.039v-3.043h1.077c.464 0 .865-.188 1.165-.489l.025-.012c.288-.288.476-.714.476-1.165v-5.548l2.994-21.127a.439.439 0 00-.363-.475l-8.518-1.416a.422.422 0 00-.476.364l-1.617 11.133h-6.902l4.835-5.936a.482.482 0 00.076-.363l-10.085-41.766c-.676-2.517-1.365-5.06-3.194-7.351-1.829-2.28-4.761-4.27-9.884-5.648l-.038-.013c-14.444-2.78-29.502-4.746-45.048-6.249-2.167-.213-4.41-.363-6.614-.55V30.516c0-1.615.526-3.13 1.39-4.37a7.665 7.665 0 013.633-2.83.43.43 0 00.288-.401v-6.75a.428.428 0 00-.413-.426c-3.22 0-6.151 1.315-8.268 3.431-2.117 2.129-3.433 5.047-3.433 8.265v31.772c-5.061-.4-10.134-.814-15.283-1.164v-4.71a.422.422 0 00-.426-.425h-.401v-11.71h3.721c.513 0 .839-.45.964-1.089.063-.25.076-.538.063-.839a3.418 3.418 0 00-.163-.914c-.275-1.002-.989-1.916-2.28-1.916H463.73c-1.278 0-1.98.914-2.28 1.916a3.989 3.989 0 00-.151.914c-.012.288 0 .563.05.801v.038c.126.639.464 1.09.978 1.09h3.72v11.709h-.413a.422.422 0 00-.426.426v4.007c-2.694-.163-5.337-.363-8.055-.513 0-.013 0 0-.013 0-.012 0 0-.013-.012-.013h-12.077v-.476c.026-2.517.026-3.694-.989-4.333l-.038-.025c-.839-.5-2.267-.476-4.936-.438-.764 0-1.653.012-2.856.012-2.192 0-2.505 1.779-2.505 3.67 0 .313.012.688.025 1.064v.526h-10.987V6.585h5.425a.422.422 0 00.426-.426V.511a.433.433 0 00-.426-.438H327.333c-.226 0-.414.2-.414.438V6.16a.42.42 0 00.414.426h7.817l-2.907 15.992-9.157 3.645a.423.423 0 00-.288.325l-.351 1.866-1.077 6.2-.702-.163a2.09 2.09 0 00-1.578.287 2.076 2.076 0 00-.927 1.316l-2.994 13.374c-.126.564 0 1.127.275 1.59.301.452.752.79 1.328.915l5.951 1.34c.576.125 1.127 0 1.591-.288.45-.275.789-.739.927-1.315l2.981-13.375a2.082 2.082 0 00-.276-1.578 2.126 2.126 0 00-1.315-.939l-2.092-.463 1.065-6.05 5.299.665-5.212 28.766c-.601 3.105-.952 4.997-.876 6.925.062 1.929.551 3.832 1.616 6.913l12.339 32.323v3.469h-2.305v-.814c0-1.553-1.278-1.816-2.881-1.816-.339 0-.739.025-1.14.025a17.66 17.66 0 01-1.178.038.432.432 0 00-.438.425v8.128c0 .238.2.426.438.426.677 0 1.153.012 1.566.025 1.842.025 2.744.05 3.27-.689.275-.401.363-1.014.388-1.891h2.28v10.332l-26.42-18.698c-23.238-16.48-33.636-23.819-52.59-23.907-2.781-16.781-5.699-33.625-8.255-50.394a3.81 3.81 0 00-1.591-2.467 3.875 3.875 0 00-2.844-.663c-.413.062-.839.15-1.252.225a3.784 3.784 0 00-2.493 1.59 3.909 3.909 0 00-.664 2.906l6.439 39.16h-14.056a.43.43 0 00-.426.426v4.534h-1.253a.422.422 0 00-.425.425v4.396L122.787 93.16l-56.235 6.7v-13.8c.652-.038 1.115-.126 1.428-.389.59-.463.564-1.24.539-2.83-.013-.426-.025-.94-.025-1.64a1.44 1.44 0 00-.426-1.015l-.013-.013a1.432 1.432 0 00-1.002-.413c-.952 0-1.64-.013-2.217-.025-1.729-.038-2.606-.05-3.144.363-.59.476-.564 1.265-.526 2.843 0 .438.012.94.012 1.64 0 .401.163.752.426 1.027h.012c.264.263.614.414 1.015.414.313 0 .589 0 .852.012v14.177l-4.422.538H44.867a5.493 5.493 0 00-3.895 1.616 5.488 5.488 0 00-1.617 3.894v31.259l-24.24 2.191c-1.804.163-2.894 1.278-3.282 2.618-.163.513-.213 1.052-.163 1.578.038.526.188 1.052.439 1.515a3.422 3.422 0 002.455 1.853v5.486l-1.816-.226-.1-1.678c-.05-.689-.289-1.227-.702-1.603-.414-.376-.977-.576-1.679-.576H3.415a2.55 2.55 0 00-1.804.751l-.013.013a2.548 2.548 0 00-.726 1.791v38.985c-.013.814-.1 1.753-.238 2.567-.126.727-.288 1.34-.464 1.666-.125.2-.05.463.15.576.15.088.326.075.464-.025l13.83-9.405 26.72-16.305c.038.263.076.513.113.751l.213 1.54c0 .025.026.05.038.088a40.033 40.033 0 002.33 7.827v.025l.063.125c.388.952.852 1.866 1.315 2.781l.389.814c0 .012.012.012.012.025a39.935 39.935 0 004.91 7.113c.013.025 0 .05.013.062l.915.977c.413.439.801.902 1.227 1.34.126.113.264.226.389.338l.288.314c.05.05.1.075.163.1a40.653 40.653 0 005.687 4.521c.013 0 0 .025.025.037l1.165.676c.677.414 1.353.84 2.067 1.203l.326.188c.05.037.1.037.15.05a40.6 40.6 0 007.053 2.817c.025 0 .025.025.05.038l1.416.326c.726.187 1.466.388 2.217.526l.376.1c.05 0 .113 0 .163-.013 2.342.426 4.748.677 7.203.677.313 0 .614-.038.927-.051.025.013.038.038.063.038l1.566-.113c.701-.05 1.403-.087 2.104-.163l.439-.025a.613.613 0 00.162-.062 40.25 40.25 0 007.705-1.766c.025-.013.05.013.075.013l1.19-.489c.74-.263 1.466-.538 2.167-.851l.451-.176a.504.504 0 00.176-.125 40.416 40.416 0 007.704-4.659c.025-.012.062.013.088-.012l.463-.401a39.424 39.424 0 001.754-1.503l.902-.764a.556.556 0 00.1-.137c.238-.226.489-.426.727-.652a41.65 41.65 0 004.372-5.234c.012-.026.05-.013.062-.038l.226-.351c.438-.626.827-1.277 1.227-1.928l.752-1.165c.025-.038.025-.088.038-.125a40.896 40.896 0 003.507-8.215c0-.013.013-.013.025-.026l.351-1.452c.201-.764.414-1.528.564-2.305l.05-.212c.012-.038 0-.088 0-.126.463-2.442.727-4.946.739-7.526v-.05c0-.827-.075-1.628-.125-2.442l-.088-1.628v-.013a40.013 40.013 0 00-1.591-7.89v-.012l-.012-.025c-1.103-3.582-2.719-6.926-4.698-10.006-.013-.025.012-.038-.013-.063l-.213-.288c0-.025-.025-.05-.037-.075h68.386v13.613c0 .238.188.426.426.426h53.88c3.645 0 6.69.162 9.22.5 2.531.326 4.573.814 6.251 1.466 3.646 1.415 5.324 3.656 6.289 6.412h-5.8v-2.142a.423.423 0 00-.426-.426h-7.654a.43.43 0 00-.426.426v2.555c0 .238.2.426.426.426h2.104v2.279h-4.873c-1.904-3.469-4.497-6.612-7.892-9.029a32.896 32.896 0 00-2.268-1.453.461.461 0 00-.563.125l-1.967 2.392c-.15.175-.113.451.063.601l.075.038a23.115 23.115 0 018.819 8.478 22.88 22.88 0 013.232 11.76c0 2.817-.514 5.522-1.441 8.014a22.894 22.894 0 01-4.159 7.014.433.433 0 00.05.601c.076.075.176.1.276.112h3.896c.15 0 .288-.1.363-.212a24.73 24.73 0 001.416-2.23c3.42-5.961 4.284-12.786 2.881-19.098-.263-1.24-.701-2.429-1.14-3.619h3.232v14.953h-2.017c-.075.338-.15.676-.238 1.014-.075.251-.137.514-.213.789h2.468v1.478h-.814c-.814 0-1.328.451-1.566 1.027a1.812 1.812 0 00-.125.689c0 .225.037.451.125.676.238.576.752 1.027 1.566 1.027h5.086c.025 0 .038-.025.063-.025 2.417-.1 4.384-.426 6.151-1.002 2.342-.777 4.309-1.954 6.439-3.557 3.232-.876 5.299-2.442 6.576-4.258 1.717-2.467 1.98-5.372 1.704-7.664-.326-2.217-.676-4.496-1.015-6.763l1.028-4.07h24.39a.422.422 0 00.426-.425v-7.151a.423.423 0 00-.426-.426h-16.097L275.332 148a.411.411 0 00-.376-.213h-2.092v-1.428h.99a.428.428 0 00.426-.413v-4.796a.43.43 0 00-.426-.426h-9.333l3.846-1.215c1.453-.463 2.129-1.553 2.23-2.705a3.393 3.393 0 00-.163-1.315 3.437 3.437 0 00-.614-1.152 2.834 2.834 0 00-.539-.489l-7.316-37.27c15.208.264 27.56 11.397 44.372 26.626 2.881 2.604 5.888 5.335 9.045 8.115l23.388 20.701v4.133c0 .237.188.425.426.425h3.307a.43.43 0 00.426-.425v-3.895h15.033v3.895c0 .237.188.425.426.425h3.307a.43.43 0 00.426-.425v-6.989h7.429c-.852 2.155-1.554 4.384-2.017 6.7 0 .013-.013.013-.013.013l-.225 1.49c-.126.839-.301 1.678-.376 2.543v.037c-.013 0 0 .013 0 .013a39.34 39.34 0 00-.201 4.045c0 1.164.076 2.304.163 3.431 0 .025-.025.038-.025.063l.05.325c.063.739.188 1.478.301 2.217l.213 1.54c0 .025.025.05.037.088a39.203 39.203 0 002.331 7.827s-.013.013 0 .025l.05.125c.388.915.826 1.791 1.265 2.655l.438.94a.295.295 0 01.025.025c1.366 2.554 3.032 4.934 4.899 7.113.025.025 0 .05.025.062l.914.977c.414.439.789.902 1.215 1.34.126.113.263.226.389.338l.3.314c.05.05.1.087.163.112a42.16 42.16 0 005.675 4.509c.025 0 .013.025.025.037l1.178.676c.676.414 1.353.84 2.054 1.203l.338.188c.05.037.088.037.151.05a40.588 40.588 0 007.052 2.817c.026 0 .026.025.051.038l1.403.326c.739.187 1.478.388 2.23.526l.375.1c.05 0 .101 0 .163-.013 2.343.426 4.736.677 7.203.677.314 0 .602-.038.915-.051.025.013.037.038.075.038l1.553-.113c.702-.05 1.416-.087 2.105-.163l.451-.025a.836.836 0 00.163-.062 40.245 40.245 0 007.704-1.766c.025-.013.038.013.075.013l1.19-.489a35.26 35.26 0 002.168-.851l.438-.176a.348.348 0 00.175-.125 39.672 39.672 0 007.705-4.659c.037-.012.075.013.1-.012l.463-.401a38.863 38.863 0 001.754-1.503l.902-.764a.495.495 0 00.088-.137c.238-.226.501-.426.739-.652 1.604-1.615 3.044-3.381 4.372-5.234.013-.026.05-.013.063-.038l.213-.338c.438-.639.839-1.29 1.252-1.966l.74-1.14c.025-.038.025-.088.025-.125.2-.338.388-.689.576-1.04h27.096c.05 0 .05-.062.101-.075l.2.439.013.025a39.951 39.951 0 004.923 7.113c0 .025 0 .05.012.062l.877.94c.426.451.814.939 1.253 1.377.125.113.275.226.401.351l.288.301c.037.05.1.075.163.1a40.655 40.655 0 005.687 4.521s0 .025.025.037l1.14.664c.677.413 1.366.839 2.092 1.215l.326.188c.038.037.088.037.15.05a40.63 40.63 0 007.053 2.817c.025 0 .025.025.05.038l1.403.326c.739.187 1.466.388 2.218.526l.375.1c.063 0 .113 0 .163-.013 2.355.426 4.748.677 7.229.677.3 0 .601-.038.901-.051.026.013.038.038.076.038l1.553-.113c.702-.05 1.416-.087 2.117-.163l.439-.025a.828.828 0 00.162-.062 40.481 40.481 0 007.705-1.766c.025-.013.05.013.075.013l1.19-.489a35.233 35.233 0 002.167-.851l.451-.176a.635.635 0 00.163-.112 41.233 41.233 0 007.717-4.672c.025-.012.062.013.088-.012l.463-.401a28.88 28.88 0 001.754-1.515l.902-.752c.037-.037.062-.087.088-.137.238-.226.501-.426.726-.652 1.604-1.615 3.057-3.381 4.385-5.234.012-.026.05-.013.05-.038l.225-.338c.439-.626.84-1.29 1.24-1.941l.74-1.165c.025-.038.025-.088.037-.125a39.515 39.515 0 003.508-8.215c0-.013.025-.013.025-.026l.351-1.402c.2-.777.413-1.566.563-2.367l.063-.2c.012-.038 0-.088 0-.126.438-2.354.689-4.771.714-7.251l2.794 6.963c.025.075.05.138.075.201l.113.25c.012.038.062.013.087.038.313.613.652 1.202 1.14 1.678a6.397 6.397 0 004.573 1.891 6.389 6.389 0 004.56-1.891c.313-.313.501-.727.751-1.102 0 0 .013.025.025.012l27.773-10.72c.013-.012.013-.037.013-.05a7.837 7.837 0 003.432-1.966c.063-.075.113-.175.188-.238.013-.012.013 0 .025 0l8.419-7.301c.313-.326.638-.601.952-.902 1.753-1.628 3.557-3.331 2.843-5.573h4.297c3.483 0 6.452 1.178 8.907 2.856 3.508 2.417 5.988 5.873 7.466 8.428a.434.434 0 00.364.213.43.43 0 00.426-.426v-4.809c0-3.494-1.742-7.489-4.636-10.444zm-42.229-.238c-.2.501-.664.889-1.378.889-.727 0-1.178-.388-1.378-.889a1.57 1.57 0 01-.125-.639c0-.213.037-.438.125-.626.2-.501.651-.889 1.378-.889.714 0 1.178.388 1.378.889.075.188.113.413.113.626 0 .225-.038.438-.113.639zm-1.378-3.006c-1.127 0-1.854.626-2.167 1.415a2.794 2.794 0 00-.188.952c0 .326.075.651.188.964.313.789 1.04 1.415 2.167 1.415 1.127 0 1.841-.626 2.155-1.415a2.535 2.535 0 000-1.916c-.314-.789-1.028-1.415-2.155-1.415zm-20.507 31.484c-.251.613-.814 1.077-1.691 1.077-.89 0-1.454-.464-1.704-1.077a2.356 2.356 0 01-.138-.777c0-.275.05-.538.138-.789.25-.601.814-1.077 1.704-1.077.877 0 1.44.476 1.691 1.077.1.251.138.514.138.789 0 .263-.038.526-.138.777zm-1.691-3.494c-1.291 0-2.117.714-2.481 1.615a3.025 3.025 0 00-.213 1.102c0 .363.075.739.213 1.09.364.902 1.19 1.615 2.481 1.615 1.277 0 2.104-.713 2.468-1.615a3.03 3.03 0 00.212-1.09c0-.375-.075-.751-.212-1.102-.364-.901-1.191-1.615-2.468-1.615zm3.282 4.208c-.476 1.202-1.566 2.129-3.282 2.129-1.729 0-2.819-.927-3.295-2.129a4.048 4.048 0 010-2.993c.476-1.19 1.566-2.129 3.295-2.129 1.716 0 2.806.939 3.282 2.129a4.048 4.048 0 010 2.993zm.776-3.307c-.588-1.49-1.941-2.667-4.058-2.667-2.13 0-3.483 1.177-4.084 2.667a4.724 4.724 0 00-.338 1.816c0 .614.1 1.228.338 1.816.601 1.49 1.954 2.643 4.084 2.643 2.117 0 3.47-1.153 4.058-2.643a4.804 4.804 0 00.351-1.816c0-.626-.112-1.24-.351-1.816zM426.924 62.74c0-.138.063-.263.151-.363.1-.088.225-.15.363-.15.301 0 .664-.013 1.027-.026.288-.012.577-.025.89-.025.802 0 1.415.088 1.415.564v12.548c0 .463-.613.551-1.415.551-.313 0-.602-.012-.89-.025-.363 0-.726-.025-1.027-.025a.5.5 0 01-.363-.15.501.501 0 01-.151-.35v-12.55zm.514 13.9c.363 0 .689.013.99.026.338.012.664.025.927.025 1.278 0 2.255-.213 2.255-1.403V62.74c0-1.19-.977-1.415-2.255-1.415-.263 0-.589.012-.927.037-.301 0-.627.013-.99.013-.376 0-.714.15-.964.4-.251.25-.401.59-.401.965v12.548c0 .363.15.714.401.952.25.25.588.4.964.4zM332.03 61.326l.188-1.453 7.83-45.785h31.193a5.18 5.18 0 013.658 1.515 5.19 5.19 0 011.528 3.67v74.65a5.19 5.19 0 01-1.528 3.67l-.013.013a5.131 5.131 0 01-3.645 1.503h-27.673l-10.661-29.005c-1.465-4.232-1.328-5.36-.877-8.778zm11.25 38.634h27.961a5.998 5.998 0 004.234-1.74l.025-.026a6.011 6.011 0 001.779-4.27V19.27a5.96 5.96 0 00-1.779-4.258 5.962 5.962 0 00-4.259-1.778h-31.557c-.2 0-.375.15-.413.35-2.668 15.567-6.138 32.098-8.08 47.627-.464 3.57-.614 4.746.927 9.167l10.748 29.28c.051.175.213.3.414.3zm72.245-10.858a5.202 5.202 0 01-1.516 3.67 5.228 5.228 0 01-3.658 1.515h-14.745a5.205 5.205 0 01-3.658-1.515c-.939-.952-1.528-2.242-1.528-3.67v-69.83c0-1.428.576-2.73 1.528-3.657a5.163 5.163 0 013.658-1.528h14.745c1.415 0 2.718.59 3.658 1.528a5.128 5.128 0 011.516 3.657v69.83zm-5.174-75.866h-14.745A5.993 5.993 0 00391.36 15l-.013.012a5.982 5.982 0 00-1.779 4.258V89.1a5.96 5.96 0 001.779 4.258 5.985 5.985 0 004.259 1.779h14.745a5.998 5.998 0 004.247-1.766l.012-.013a6.021 6.021 0 001.767-4.257v-69.83a6 6 0 00-1.767-4.259 5.985 5.985 0 00-4.259-1.778zM329.7 58.945c3.019-16.293 5.512-32.974 8.256-49.354h42.129v91.483h-38.96l-10.598-29.317c-2.092-5.874-1.666-8.216-.827-12.812zm11.124 42.98h39.687a.43.43 0 00.426-.425V9.165a.42.42 0 00-.426-.413h-42.919c-.2 0-.375.137-.413.35l-8.306 49.693c-.876 4.734-1.315 7.15.865 13.237l10.673 29.568c.05.188.213.325.413.325zm79.135-2.304a.422.422 0 00.426-.426V9.165a.42.42 0 00-.426-.413h-33.974a.42.42 0 00-.426.413v90.03c0 .238.188.426.426.426h33.974z" fill="#fff"/></svg>