<svg width="1000" height="708" fill="none" xmlns="http://www.w3.org/2000/svg"><path d="M997.04 550.38c-1.04 11.62-2.62 23.1-4.56 34.38v.16c0 4.4-1.34 7.68-3.34 9.94-2.38 2.64-5.7 3.9-8.94 3.9h-15.36l-.26-2.32c0-.1-.02-.2-.06-.3-.04-.06-.08-.06-.12-.12-1.78-11.2-5.38-21.8-10.68-31.38 0-.02.02-.02.02-.04l-1.92-3.1c-.92-1.52-1.8-3.08-2.82-4.56l-.38-.64a.713.713 0 00-.2-.22c-.02-.02-.04.02-.06 0-2.4-3.44-5.04-6.68-7.86-9.78 2.66-1.38 5.4-3.28 8.24-5.68 2.98-2.5 6.02-5.5 9.12-8.74 6.94 7.44 13.36 15.66 19.34 24.48.3.46.56.86.78 1.22.56.9.94 1.52 1.52 1.7.94.26 1.5-.6 2.24-3.18.62-2.1.76-4.4.4-6.7-.36-2.16-1.16-4.3-2.52-6.34-5.96-9.02-12.16-17-18.56-24.08-6.4-7.06-13-13.2-19.76-18.52-8.42-6.6-17.1-11.96-26.02-16.24-8.88-4.28-18.02-7.5-27.32-9.84-.08-.02-.18-.04-.26-.02-10.74.9-21.74 2.38-31.98 4.36-9.78 1.86-18.88 4.2-26.42 6.84-2.52.9-4.6 2.32-6.26 3.9-.26.22-.4.5-.62.74-.16.1-.26.22-.32.38-1.5 1.7-2.66 3.48-3.26 5.02-.26.56.1 1.2.7 1.78.66.64 1.68 1.34 2.24 1.68.48.26 1.94-.12 4.26-.74 2.9-.78 7.26-1.98 12.06-2.82 2.74-.5 5.34-.82 8-1.18.4 4.44.92 8.66 1.66 12.46.76 3.7 1.74 6.96 3 9.74-1.34.24-2.62.58-3.92.9l-3.12.68c-.08.02-.16.06-.24.1-.04.02 0 .06-.02.08a95.79 95.79 0 00-25.42 11.24c-.08.02-.14-.04-.2 0l-1.22.86c-1.3.84-2.54 1.74-3.78 2.64l-2.98 2.08c-.08.06-.16.12-.22.22-.02.02.04.06.02.08-3 2.38-5.92 4.84-8.62 7.54-4.4 4.42-8.36 9.24-11.86 14.42h-.02l-2 3.32c-.94 1.54-1.94 3.04-2.8 4.66l-.26.4c-.04.08-.08.16-.08.26v.04a96.136 96.136 0 00-9.42 26.7c0 .02-.06.02-.06.06l-.72 5.02c-.16 1.26-.42 2.5-.54 3.78l-.12.88c-.02.08-.02.16 0 .24.02.04.04.06.06.1-.18 2-.26 4.06-.32 6.1h-7.6c4.6-20.24 9.76-38.62 15.62-54.92 8.9-24.76 19.26-45.3 31.06-62.42l.02-.04c1.64-2.5 2.48-4.54 2.4-6.24-.08-1.82-1.16-3.18-3.34-4.18l-.08-.04-3.44-1.22 96.94-51.66 2.12-1.14 21.98-11.7c3.78-2.18 7.04-3.74 10.38-4.6 3.34-.88 6.82-1.1 10.98-.62l28.5 2.96c3.82.42 6.06.84 7.58 2.14 1.54 1.34 2.48 3.64 3.72 7.82.7 2.38 1.24 5 1.68 7.62.44 2.62.78 5.26 1.06 7.68l.18 1.76c2.86 25.22 5.68 50.34 5.88 74.88.1 11.92-.44 23.72-1.5 35.38zM840.92 407.56c.16-.18.32-.36.54-.54 2.52-2 4.72-3.82 6.62-5.4 10.56-8.76 11-9.14 21.72-1.28l.02.02c.46.34.84.7 1.14 1.1.52.66.8 1.38.82 2.12.02.72-.24 1.48-.8 2.24-.32.42-.76.86-1.3 1.28-1.76 1.38-3.42 2.72-4.9 3.9l-.04.04c-5.6 4.46-8.42 6.72-10.74 7.02-2.26.28-4.36-1.34-8.6-4.62-1-.76-2.14-1.64-3.46-2.62-.32-.26-.62-.54-.84-.82l-.02-.04c-.32-.4-.48-.82-.52-1.22-.02-.4.1-.8.36-1.18zm-.96 3.34c.3.36.68.72 1.12 1.06 1.26.94 2.4 1.82 3.44 2.62 4.56 3.54 6.82 5.28 9.66 4.9 2.72-.34 5.64-2.68 11.46-7.32l.04-.04c1.4-1.12 2.98-2.38 4.9-3.88.64-.5 1.16-1.02 1.56-1.56.76-1.04 1.1-2.1 1.08-3.14-.02-1.06-.42-2.06-1.12-2.96-.38-.5-.86-.94-1.42-1.36l-.04-.04c-11.6-8.52-12.1-8.1-23.48 1.34-1.82 1.52-3.94 3.28-6.58 5.38-.32.24-.58.52-.8.8-.5.68-.72 1.38-.66 2.12.06.7.34 1.4.82 2.04l.02.04zM380.6 47.7a9.03 9.03 0 01-6.1 3.4c-2.3.26-4.72-.36-6.68-1.9l-.08-.06c-1.96-1.56-3.08-3.76-3.36-6.08-.26-2.3.36-4.72 1.9-6.68l.06-.08a9.068 9.068 0 016.08-3.34c2.32-.28 4.74.34 6.72 1.92 1.98 1.56 3.12 3.78 3.4 6.1.26 2.32-.36 4.74-1.94 6.72zm-8.34-16.18c-2.7.3-5.26 1.64-7.08 3.94a10.422 10.422 0 00-2.22 7.76c.3 2.7 1.64 5.26 3.92 7.08 2.28 1.82 5.1 2.54 7.78 2.22 2.7-.3 5.26-1.64 7.08-3.92 1.82-2.28 2.54-5.1 2.22-7.78a10.56 10.56 0 00-3.92-7.08c-2.28-1.82-5.1-2.52-7.78-2.22zm-173.54 26.8c-.34.5-.74.92-1.22 1.24-1.18.82-2.78 1.02-4.4-.04-1.62-1.08-2.08-2.62-1.78-4.04.12-.56.34-1.1.66-1.6.34-.48.74-.9 1.22-1.24 1.18-.82 2.8-1.02 4.4.06 1.62 1.06 2.08 2.62 1.78 4.04-.12.56-.34 1.1-.66 1.58zm-.32-6.82c-2.18-1.46-4.38-1.18-6.02-.04-.62.42-1.16 1-1.6 1.62-.42.64-.7 1.36-.86 2.1-.42 1.96.2 4.1 2.38 5.54 2.2 1.44 4.38 1.16 6.02.04.64-.44 1.18-1 1.6-1.64.42-.64.72-1.34.88-2.1.4-1.94-.22-4.08-2.4-5.52zm79.62 122.44c-1.12 1.36-2.66 2.14-4.28 2.28-1.6.16-3.28-.3-4.64-1.4a6.353 6.353 0 01-2.26-4.28c-.16-1.6.3-3.24 1.38-4.58l.08-.1a6.216 6.216 0 014.24-2.22c1.58-.16 3.22.28 4.58 1.36l.08.08a6.3 6.3 0 012.22 4.24c.16 1.62-.3 3.28-1.4 4.62zm.06-10a7.85 7.85 0 00-5.7-1.74 7.87 7.87 0 00-5.2 2.74l-.04.06a7.802 7.802 0 00-1.74 5.68c.2 1.98 1.14 3.88 2.8 5.24 1.64 1.36 3.7 1.92 5.68 1.74a7.662 7.662 0 005.24-2.8c1.36-1.64 1.92-3.7 1.74-5.68a7.744 7.744 0 00-2.74-5.2l-.04-.04zm-37.76-28.68c.96-2.02 2.98-3.54 5.96-3.36 3 .18 4.8 1.92 5.5 4.06.28.84.4 1.74.34 2.64-.06.88-.26 1.76-.64 2.58-.96 2.02-2.98 3.52-5.96 3.34-2.98-.18-4.8-1.92-5.52-4.04a7.37 7.37 0 01-.32-2.64c.06-.9.28-1.78.64-2.58zm5.12 10.7c3.66.22 6.14-1.66 7.34-4.18.46-.96.72-2.02.78-3.1.06-1.08-.06-2.18-.4-3.18-.88-2.66-3.12-4.82-6.78-5.04-3.68-.22-6.16 1.66-7.36 4.18-.44.98-.72 2.02-.78 3.1-.06 1.08.06 2.18.4 3.18.88 2.66 3.1 4.82 6.8 5.04zm211.28-89.82c.34-.88 1.14-1.6 2.4-1.62 1.14 0 1.88.6 2.18 1.38.14.32.22.68.22 1.06 0 .36-.08.74-.22 1.1-.34.88-1.14 1.6-2.4 1.6-1.14.02-1.88-.58-2.2-1.36-.14-.34-.18-.7-.18-1.06 0-.38.04-.76.2-1.1zm2.2 4.96c1.94-.02 3.2-1.12 3.74-2.52.2-.52.28-1.08.28-1.62 0-.56-.08-1.1-.28-1.6-.54-1.3-1.72-2.3-3.56-2.28-1.92.02-3.2 1.14-3.74 2.54a4.475 4.475 0 000 3.22c.54 1.3 1.7 2.28 3.56 2.26zm438.56 332.04c.46-1.16 1.52-2.06 3.18-2.06 1.66 0 2.72.9 3.16 2.06.18.44.28.94.28 1.44s-.1 1.02-.28 1.48c-.44 1.14-1.5 2.04-3.16 2.04-1.66 0-2.72-.9-3.18-2.04-.18-.46-.28-.96-.28-1.48 0-.5.1-1 .28-1.44zm3.18 6.4c2.34 0 3.84-1.3 4.5-2.96.26-.62.4-1.32.4-2 0-.66-.14-1.36-.4-1.98-.66-1.66-2.16-2.96-4.5-2.96s-3.86 1.3-4.52 2.96c-.26.62-.38 1.32-.38 1.98 0 .68.14 1.38.38 2 .66 1.66 2.18 2.96 4.52 2.96zm-86.52 124.22c-.38.94-1.24 1.68-2.62 1.68-1.38 0-2.24-.74-2.64-1.68-.14-.38-.2-.8-.2-1.22 0-.42.06-.84.22-1.2.38-.96 1.24-1.68 2.62-1.68 1.38 0 2.24.72 2.62 1.68.14.36.22.78.22 1.2 0 .42-.08.84-.22 1.22zm-2.62-5.56c-2.06 0-3.38 1.14-3.96 2.58-.22.58-.34 1.18-.34 1.76 0 .6.12 1.2.34 1.74.58 1.46 1.9 2.6 3.96 2.6s3.38-1.14 3.96-2.6c.22-.54.32-1.14.32-1.74 0-.6-.1-1.18-.32-1.76-.58-1.44-1.9-2.58-3.96-2.58zm6.32 7.22c-.9 2.28-3.02 4.08-6.32 4.08-3.3 0-5.42-1.8-6.32-4.08-.36-.9-.54-1.9-.54-2.88 0-1 .18-1.98.54-2.88.92-2.28 3.02-4.08 6.32-4.08 3.3 0 5.42 1.8 6.32 4.08.36.9.54 1.88.54 2.88 0 .98-.18 1.98-.54 2.88zm-6.32-11.28c-3.98 0-6.54 2.18-7.66 5a9.025 9.025 0 00-.66 3.4c0 1.16.22 2.32.66 3.42 1.12 2.8 3.68 4.98 7.66 4.98s6.54-2.18 7.66-4.98a9.412 9.412 0 000-6.82c-1.12-2.82-3.68-5-7.66-5zM675 412.92v-102.5c0-2.08.52-3.68 1.7-4.72 1.2-1.06 3.12-1.56 5.86-1.42 8.34 0 17.44.18 25.74.56 2.04.12 4.14.2 6.2.28 16.4.6 31.3 1.18 35.16 17.42 2.78 11.52 4.96 24.44 6.84 38.2 1.86 13.76 3.38 28.34 4.78 43.14.32 3.32.5 6.5-.48 8.9-.94 2.3-3.02 3.96-7.26 4.5l-68.06 6.24c-4.86.78-7.46-.36-8.84-2.4-1.44-2.08-1.64-5.22-1.64-8.2zm10.68 12.04l68.04-6.26c4.86-.6 7.28-2.6 8.42-5.38 1.1-2.7.92-6.06.58-9.6-1.42-14.82-2.94-29.4-4.8-43.18-1.86-13.78-4.06-26.76-6.86-38.34-4.1-17.3-19.52-17.9-36.5-18.54-2.04-.06-4.1-.14-6.18-.24l-25.74-.58c-3.14-.16-5.4.46-6.9 1.78-1.52 1.32-2.18 3.3-2.18 5.8v102.5c0 3.22.24 6.58 1.88 9 1.68 2.48 4.72 3.9 10.24 3.04zm-175.54 75.32h-.02c-2.14.96-4.88.16-7.58-1.9-2.82-2.16-5.58-5.7-7.58-10.1l-.02-.06c-2-4.4-2.86-8.82-2.64-12.4.22-3.42 1.42-6.02 3.56-7l.02-.02c2.14-.96 4.88-.16 7.58 1.9 2.82 2.16 5.58 5.7 7.58 10.08l.02.08c2.02 4.42 2.88 8.84 2.64 12.4-.22 3.42-1.42 6.04-3.56 7.02zm2.22-20.08c-2.12-4.62-5.02-8.34-8.02-10.64-3.14-2.4-6.4-3.26-9.06-2.06h-.02c-2.66 1.22-4.14 4.28-4.4 8.22-.24 3.8.66 8.48 2.76 13.1l.04.06c2.1 4.62 5.02 8.34 8 10.64 3.14 2.38 6.38 3.26 9.04 2.06l.04-.02c2.66-1.2 4.16-4.26 4.4-8.2.24-3.8-.66-8.46-2.76-13.1l-.02-.06zm186.72 45.52h-16.52c-1.7 0-2.86-.2-3.54-.88-.68-.72-1-2-1-4.14l-.02-71.78c0-3.74.14-6.1 1.16-7.62.98-1.46 2.92-2.28 6.52-2.94l53.18-6.54c3.64-.42 4.04.44 4.96 2.32l.42.88 3.26 6.5c.64 1.1 1.18 1.76 1.86 2.24.68.48 1.42.74 2.48 1.02 1.12.4 2.06.88 2.84 1.48 1.1.82 1.82 1.86 2.14 3.02.3 1.18.2 2.52-.3 4-.46 1.26-1.2 2.6-2.28 4.02l-46.2 62.7-.54.72c-2.36 3.14-3.74 5-8.42 5zm9.56-4.14c14.32-21.08 31.5-42.72 46.76-63.42 1.16-1.54 1.98-3.02 2.48-4.4.6-1.76.72-3.4.34-4.86-.4-1.48-1.3-2.76-2.66-3.8-.9-.68-1.98-1.24-3.26-1.7l-.06-.02c-.92-.24-1.56-.44-2.04-.8-.5-.34-.94-.88-1.46-1.78l-3.22-6.44-.4-.86c-1.2-2.52-1.78-3.66-6.44-3.12l-53.16 6.56h-.1c-4.02.76-6.22 1.7-7.46 3.56-1.24 1.84-1.42 4.4-1.4 8.42l.02 71.78c0 2.56.44 4.14 1.42 5.16 1 1 2.48 1.32 4.56 1.32h16.52c5.4 0 6.94-2.08 9.56-5.6zm-113.44-65.7c18.36-4.8 36.22-8.44 54.16-11.06h.02c2.92-.4 4.36.18 5.04 1.42.74 1.38.74 3.64.74 6.34v64.1c0 2.9-.24 5.22-1.36 6.74-1.08 1.48-3.08 2.3-6.66 2.3H587.7c-3.82 0-7.12-.48-10.04-1.54-2.9-1.04-5.46-2.66-7.76-4.96l-33.98-35.56c-.66-.72-1.18-1.44-1.52-2.14-.54-1.02-.7-2.02-.54-2.96.18-.96.72-1.88 1.68-2.76.66-.6 1.52-1.18 2.58-1.72 19.9-7.36 38.74-13.36 57.08-18.2zm-57.68 16.88c-1.22.62-2.2 1.28-2.96 1.98-1.2 1.1-1.88 2.3-2.12 3.56-.22 1.26 0 2.56.64 3.86.44.84 1.04 1.68 1.76 2.48l34 35.54.04.06c2.46 2.44 5.18 4.18 8.28 5.3 3.1 1.12 6.58 1.64 10.54 1.64h59.44c4.1 0 6.46-1.04 7.84-2.9 1.32-1.84 1.62-4.42 1.62-7.6v-64.1c0-2.88 0-5.32-.92-7.02-.98-1.8-2.84-2.66-6.48-2.18h-.04c-18 2.64-35.92 6.28-54.32 11.12-18.42 4.84-37.3 10.86-57.24 18.24l-.08.02zm93.44-160.66h.02c9.58-1.72 15.68-1.64 19.34.6 3.56 2.18 4.84 6.54 4.84 13.42l.02 86.54c0 4.18-1.22 7.18-3.62 9.3-2.46 2.16-6.16 3.48-11.06 4.26-20.08 2.36-39.86 6.06-59.38 10.9-19.54 4.84-38.8 10.8-57.88 17.62-2.74.98-5.5 1.14-7.94.56-2.36-.58-4.4-1.86-5.78-3.82l-10.46-14.78c-1.3-2.12-2.16-3.96-2.1-6.32.06-2.46 1.08-5.5 3.54-10.02l.02-.02c17.72-36.16 37.68-61.24 59.56-78.26 21.84-16.98 45.58-25.96 70.88-29.98zM499.22 419.68c-2.56 4.72-3.62 7.98-3.7 10.66-.06 2.72.88 4.78 2.3 7.1l10.52 14.86c1.58 2.26 3.92 3.74 6.62 4.4 2.7.66 5.76.46 8.76-.6 19.06-6.8 38.28-12.74 57.74-17.58 19.46-4.82 39.18-8.52 59.2-10.86l.08-.02c5.18-.82 9.1-2.24 11.78-4.6 2.72-2.4 4.1-5.74 4.1-10.38l-.02-86.54c0-7.4-1.46-12.16-5.54-14.64-3.96-2.46-10.38-2.58-20.32-.8-25.54 4.04-49.5 13.1-71.54 30.28-22.04 17.12-42.14 42.34-59.98 78.72zm168.46 145.68v-28.7h34.56l-12.9 16.04c-3 3.5-5.76 6.7-9.2 9-3.24 2.18-7.16 3.54-12.46 3.66zm0-265.62h48.36c11.1 0 19.12 1.18 24.96 3.46 5.72 2.22 9.32 5.5 11.66 9.7 3.66 6.62 6.78 21.82 9.26 39.16 3.6 25.26 5.82 54.94 6.38 69.8l-11.44 3.08c-3.6.96-5.74 3.08-6.66 5.44-.48 1.22-.62 2.52-.48 3.76.14 1.22.58 2.4 1.28 3.42 1.26 1.8 3.34 3.06 6.04 3.06 3.2 0 5.32.38 6.6 1.54 1.24 1.1 1.74 3.04 1.76 6.12-1.58 4.26-4 8.84-7.82 14.7l-54.2 72.24h-35.7V299.74zm99.24 143.66c-.12.46-.28.92-.42 1.38-.34-1.6-.92-2.82-1.9-3.7-1.58-1.42-4.02-1.92-7.56-1.92-2.18 0-3.86-.98-4.86-2.42-.56-.82-.9-1.78-1.04-2.78-.12-1 .02-2.06.4-3.04.78-1.98 2.6-3.74 5.7-4.58l11.1-3.02c0 8.44-.06 14.34-1.42 20.08zm-100.7-11.46c-22.08 2.26-46.04 6.48-71.86 12.64-25.86 6.16-53.6 14.28-83.14 24.24-8.96-11.64-17.84-23.74-26.56-36.52 8-18.82 17.1-35.8 27.4-50.8 10.36-15.1 21.92-28.22 34.72-39.26 15.98-13.76 32.7-24.38 52.08-31.58 19.2-7.12 41.06-10.82 67.36-10.9v132.18zm0 103.28H602.5c-14.32 0-22.88-.82-29.36-3.14-6.42-2.3-10.84-6.12-16.88-12.16l-.02-.02c-12.58-11.94-24.78-25.5-36.72-40.28-2.5-3.06-4.9-6.4-7.36-9.58 29.3-9.88 56.84-17.92 82.54-24.06 25.72-6.14 49.56-10.34 71.52-12.6v101.84zm0 30.18H539.9c-8.92 0-15.24-1.82-19.98-4.98-4.74-3.14-7.98-7.62-10.68-12.9-5.62-11.94-11.08-23.86-16.1-35.76-5.04-11.9-9.68-23.84-13.72-35.82-2.44-9.06-2.46-17.38-1.24-24.66 1.16-6.8 3.4-12.66 5.78-17.48 8.58 12.58 17.32 24.5 26.16 35.96 0 .06-.04.12 0 .2.06.22.26.36.48.42 2.6 3.36 5.16 6.9 7.78 10.16 11.98 14.82 24.24 28.4 36.84 40.4 6.18 6.18 10.74 10.1 17.44 12.5 6.66 2.38 15.36 3.22 29.84 3.22h63.72v28.74zm24.22-11.76c23.38-27.28 48.22-61.14 68.32-89.86 5.4-8.26 8.16-14.1 9.56-20.06 1.4-5.94 1.46-11.94 1.46-20.58v-.02c-.48-14.44-2.72-45.26-6.44-71.26-2.5-17.5-5.66-32.86-9.42-39.64-2.5-4.5-6.32-8-12.42-10.38-6-2.32-14.18-3.54-25.46-3.54h-49.08c-26.82 0-49.04 3.76-68.6 11-19.54 7.26-36.42 17.98-52.52 31.86-12.9 11.12-24.54 24.32-34.98 39.52-10.4 15.18-19.6 32.34-27.66 51.38-2.64 5.1-5.18 11.52-6.44 18.98-1.24 7.48-1.22 16 1.26 25.26l.02.06c4.06 12.02 8.72 24 13.78 35.96 5.06 12 10.5 23.92 16.12 35.8l.02.02c2.8 5.52 6.16 10.18 11.16 13.48 4.98 3.32 11.56 5.22 20.78 5.22h127.06c6.02 0 10.36-1.5 13.98-3.94 3.6-2.4 6.44-5.68 9.5-9.26zm35.22-5.78c3.16 0 5.18 1.7 6.04 3.9.36.86.52 1.82.52 2.76 0 .94-.16 1.9-.52 2.76-.86 2.2-2.88 3.9-6.04 3.9s-5.18-1.7-6.06-3.9a7.6 7.6 0 010-5.52c.88-2.2 2.9-3.9 6.06-3.9zm-7.4 3.36a8.87 8.87 0 00-.62 3.3c0 1.12.2 2.24.62 3.3 1.1 2.7 3.54 4.82 7.4 4.82 3.84 0 6.3-2.12 7.38-4.82.42-1.06.64-2.18.64-3.3 0-1.12-.22-2.26-.64-3.3-1.08-2.7-3.54-4.82-7.38-4.82-3.86 0-6.3 2.12-7.4 4.82zm10.76-17.52l.04.02c.6.3 1.3.68 2.2 1.1l10.6 5c.96.54 1.54 1.18 1.76 1.96v.02c.22.84.06 1.9-.42 3.26l-7.98 18.38c-1.1 2.56-1.8 3.92-2.74 4.56-.9.62-2.22.64-4.56.54l-24.08-1.12c-.92-.06-1.66-.28-2.14-.64-.2-.16-.34-.34-.44-.52-.08-.18-.14-.4-.12-.64.04-.46.26-1 .74-1.6l21.92-28.7c2.36-3.08 2.72-2.92 5.22-1.62zm-6.36.76l-21.94 28.68c-.64.84-.98 1.66-1.02 2.4-.02.48.06.94.28 1.34.18.4.46.76.84 1.04.7.52 1.72.86 2.96.94l24.1 1.12c2.64.12 4.14.08 5.42-.78 1.22-.84 2.02-2.36 3.26-5.2l8-18.46c.58-1.64.74-2.98.46-4.12l-.02-.04c-.32-1.16-1.12-2.08-2.44-2.84l-10.68-5.02c-.84-.4-1.56-.78-2.16-1.1h-.04c-3.46-1.8-3.94-2.02-7.02 2.04zm196.02-108.04l.02-.04c.44-1.06 1.44-1.9 2.98-1.9 1.58 0 2.6.86 3.02 1.94.18.44.26.9.26 1.38 0 .48-.08.96-.26 1.4-.42 1.08-1.44 1.94-3.02 1.94-1.56 0-2.56-.86-3-1.94-.18-.44-.26-.92-.26-1.4 0-.48.08-.94.26-1.38zm3 6.16c2.28 0 3.72-1.26 4.36-2.84.24-.62.38-1.28.38-1.94 0-.64-.14-1.3-.38-1.92-.64-1.58-2.08-2.84-4.36-2.84-2.22 0-3.68 1.22-4.32 2.8l-.02.04a5.354 5.354 0 000 3.86c.64 1.58 2.1 2.84 4.34 2.84zM952.7 475c-.62 1.56-2.04 2.74-4.26 2.74-2.22 0-3.64-1.18-4.24-2.74-.24-.6-.38-1.26-.38-1.94 0-.66.14-1.34.38-1.94.6-1.54 2.02-2.74 4.24-2.74s3.64 1.2 4.26 2.74c.22.6.36 1.28.36 1.94 0 .68-.14 1.34-.36 1.94zm-4.26-8.06c-2.9 0-4.76 1.6-5.58 3.66a6.594 6.594 0 000 4.94c.82 2.06 2.68 3.64 5.58 3.64s4.78-1.58 5.58-3.64a6.594 6.594 0 000-4.94c-.8-2.06-2.68-3.66-5.58-3.66zM398 647.8c-9.38 9.38-22.36 15.2-36.68 15.2s-27.28-5.82-36.66-15.2c-9.38-9.38-15.18-22.34-15.18-36.66 0-14.3 5.8-27.26 15.18-36.66 9.38-9.38 22.34-15.18 36.66-15.18 14.32 0 27.3 5.8 36.68 15.18 9.36 9.4 15.18 22.36 15.18 36.66 0 14.32-5.8 27.28-15.18 36.66zm-36.68-89.94c-14.72 0-28.04 5.96-37.68 15.6s-15.6 22.96-15.6 37.68c0 14.72 5.96 28.04 15.6 37.7 9.64 9.64 22.96 15.6 37.68 15.6 14.72 0 28.06-5.96 37.7-15.6 9.64-9.66 15.6-22.98 15.6-37.7 0-14.72-5.96-28.04-15.6-37.68s-22.98-15.6-37.7-15.6zm-19.62 30.06v-.04c.28-.92.98-1.36 1.7-1.42.28-.02.6.02.88.1h.04c.28.1.54.24.76.42l.02.02c.56.46.86 1.2.58 2.12-.28.94-.98 1.4-1.7 1.44-.3.04-.6 0-.88-.08-.3-.08-.58-.24-.8-.4-.58-.46-.9-1.22-.6-2.16zm.98 3.94c.46.14.94.18 1.42.16 1.28-.12 2.48-.88 2.96-2.5.46-1.56-.08-2.84-1.06-3.64l-.04-.04c-.34-.28-.76-.5-1.2-.64l-.06-.02c-.48-.14-.96-.2-1.44-.16-1.26.12-2.44.86-2.94 2.44l-.02.04c-.48 1.6.1 2.9 1.1 3.7.38.3.82.52 1.28.66zm-10.2 9.34c.22-.18.5-.34.78-.42l.02-.02c.28-.08.58-.12.86-.1.74.04 1.42.46 1.74 1.4.3.94 0 1.7-.56 2.16-.22.2-.5.34-.78.44-.3.1-.6.14-.88.12-.74-.06-1.44-.48-1.74-1.42-.3-.92 0-1.68.56-2.16zm1.08 5.02c.48.04.96-.04 1.42-.2.46-.14.9-.38 1.26-.68.98-.82 1.52-2.14 1.02-3.72-.54-1.58-1.76-2.32-3.02-2.4-.48-.04-.94.04-1.4.16l-.02.02c-.48.16-.9.38-1.26.7-.98.82-1.54 2.12-1.02 3.72.54 1.58 1.76 2.32 3.02 2.4zm2.18 15.18a2.6 2.6 0 01-.66.58c-.62.4-1.44.44-2.22-.14-.8-.58-1-1.38-.82-2.08.08-.28.22-.56.4-.8.18-.26.4-.46.66-.62.62-.38 1.44-.44 2.22.16.8.58.98 1.38.8 2.08-.06.28-.2.56-.38.82zm-3.4-4.28c-.42.26-.78.58-1.06.98-.28.38-.5.82-.62 1.3-.32 1.22-.02 2.62 1.34 3.6 1.34 1 2.76.88 3.84.22.4-.26.78-.6 1.06-.98s.5-.84.62-1.3c.32-1.24 0-2.62-1.34-3.6-1.34-1-2.76-.88-3.84-.22zm13.96 18.12c-.26.68-.9 1.2-1.9 1.18-.98 0-1.6-.54-1.86-1.22-.1-.28-.16-.58-.16-.88.02-.3.08-.6.18-.88.28-.68.92-1.18 1.92-1.18.96 0 1.6.54 1.84 1.24.12.28.16.58.16.88 0 .3-.06.6-.18.86zm-1.8-4.42c-1.68-.02-2.78.88-3.26 2.06-.18.44-.28.94-.28 1.42-.02.48.06.96.24 1.42.46 1.18 1.52 2.12 3.18 2.14 1.68.02 2.76-.88 3.26-2.06.18-.44.28-.92.28-1.42.02-.48-.08-.96-.24-1.4-.46-1.2-1.52-2.14-3.18-2.16zm17.04 10.74c-.82.54-1.62.46-2.22.04-.24-.18-.46-.4-.62-.64-.18-.26-.3-.54-.36-.84-.14-.7.1-1.5.9-2.02.84-.56 1.64-.46 2.24-.04.24.16.46.4.62.64l.04.02c.14.26.26.52.32.8.14.72-.1 1.52-.92 2.04zm1.76-3.66c-.26-.4-.6-.74-1-1.02-1.04-.74-2.44-.92-3.84 0-1.4.94-1.78 2.3-1.52 3.54.08.46.28.92.56 1.32.26.4.6.76.98 1.04 1.06.72 2.46.9 3.86 0 1.4-.94 1.78-2.3 1.52-3.54-.08-.46-.26-.9-.52-1.3l-.04-.04zm15.78-2.06c-.36.92-1.08 1.32-1.8 1.32-.3 0-.6-.06-.88-.16a2.72 2.72 0 01-.76-.48l-.04-.02c-.5-.5-.74-1.26-.4-2.16.36-.94 1.08-1.32 1.8-1.32.3 0 .6.06.88.16.28.12.56.28.76.46.54.52.8 1.3.44 2.2zm-.68-4c-.44-.16-.92-.28-1.4-.26-1.28 0-2.54.68-3.14 2.24-.6 1.52-.16 2.84.76 3.72l.04.04c.36.32.76.58 1.22.76.44.18.92.26 1.42.26 1.26-.02 2.52-.68 3.12-2.24.6-1.54.14-2.88-.8-3.76-.36-.32-.76-.58-1.22-.76zm11.24-9.3c-.26.18-.52.32-.8.4-.3.08-.6.1-.9.06-.72-.08-1.4-.54-1.66-1.48-.26-.96.08-1.7.66-2.14.24-.18.52-.32.82-.4.28-.08.6-.1.88-.06.72.08 1.4.54 1.66 1.5.26.94-.08 1.68-.66 2.12zm-.84-5.06c-.48-.04-.96-.02-1.42.12-.48.12-.92.34-1.3.62-1.02.78-1.62 2.06-1.2 3.66.46 1.62 1.62 2.42 2.9 2.56.48.04.96.02 1.44-.12.46-.12.9-.34 1.28-.62 1.02-.76 1.62-2.06 1.2-3.66-.46-1.62-1.62-2.42-2.9-2.56zm1.42-14.12c-.18.26-.4.46-.66.62-.62.38-1.44.44-2.22-.14-.8-.6-.98-1.4-.8-2.1.08-.28.2-.56.38-.8.2-.24.4-.46.66-.6.62-.4 1.44-.44 2.24.14.78.6.98 1.38.78 2.08-.06.3-.2.58-.38.8zm-3.38-4.26c-.42.26-.78.6-1.08.98-.28.38-.5.84-.62 1.3-.32 1.22 0 2.62 1.34 3.6 1.34 1 2.76.9 3.84.24.42-.28.78-.62 1.06-1 .28-.36.5-.82.62-1.3.34-1.22.02-2.6-1.34-3.6-1.34-1-2.74-.88-3.82-.22zm-27.56-18.3c.78-.58 1.6-.54 2.22-.18.26.16.48.38.66.62.18.24.32.5.4.8.18.7 0 1.5-.78 2.1-.8.58-1.6.54-2.24.16-.24-.16-.46-.38-.66-.6-.18-.26-.3-.52-.38-.82-.2-.7-.02-1.5.78-2.08zm-.48 4.74c1.08.66 2.5.74 3.84-.26 1.34-1 1.64-2.38 1.32-3.6-.14-.48-.34-.92-.64-1.32-.3-.38-.66-.72-1.06-.96-1.1-.66-2.52-.76-3.84.24-1.34 1-1.64 2.38-1.32 3.62.12.48.34.9.64 1.3.28.38.64.72 1.06.98zm17.2 1.3c.28-.68.9-1.2 1.9-1.2.98 0 1.6.52 1.86 1.2l.02.02c.1.26.16.56.16.86 0 .3-.06.6-.18.88-.26.68-.88 1.2-1.86 1.2-1 0-1.62-.52-1.9-1.2-.1-.28-.16-.56-.16-.88 0-.32.06-.62.16-.88zm1.9 4.4c1.66 0 2.74-.92 3.22-2.12.16-.44.26-.92.26-1.4 0-.46-.08-.92-.26-1.38v-.04c-.48-1.18-1.56-2.1-3.22-2.1-1.68 0-2.76.92-3.22 2.1-.2.44-.28.94-.28 1.42s.08.96.28 1.4c.46 1.2 1.54 2.12 3.22 2.12zm2.58 28.54c-2.78 6.98-9.16 12.42-19.16 12.42-9.98 0-16.36-5.44-19.14-12.42-1.1-2.72-1.64-5.68-1.64-8.62 0-2.98.54-5.94 1.64-8.66 2.78-6.96 9.16-12.42 19.14-12.42 10 0 16.38 5.46 19.16 12.42 1.08 2.72 1.64 5.68 1.64 8.66 0 2.94-.56 5.9-1.64 8.62zm-19.16-31.14c-10.66 0-17.5 5.84-20.48 13.34-1.16 2.88-1.74 6.02-1.74 9.18 0 3.12.58 6.28 1.74 9.16 2.98 7.48 9.82 13.34 20.48 13.34 10.68 0 17.5-5.86 20.5-13.34 1.16-2.88 1.74-6.04 1.74-9.16 0-3.16-.58-6.3-1.74-9.18-3-7.5-9.82-13.34-20.5-13.34zm4.68 24.64c-.68 1.7-2.24 3.02-4.68 3.02-2.44 0-4-1.32-4.68-3.02a5.869 5.869 0 010-4.26c.68-1.7 2.24-3.02 4.68-3.02 2.44 0 4 1.32 4.68 3.02.28.66.4 1.4.4 2.12 0 .74-.12 1.48-.4 2.14zm-4.68-8.72c-3.12 0-5.12 1.72-6.02 3.92-.32.84-.5 1.76-.5 2.66 0 .92.18 1.84.5 2.68.9 2.2 2.9 3.92 6.02 3.92 3.14 0 5.14-1.72 6.02-3.92.34-.84.5-1.76.5-2.68 0-.9-.16-1.82-.5-2.66-.88-2.2-2.88-3.92-6.02-3.92zm32.48 39.06a45.75 45.75 0 01-32.48 13.46c-12.68 0-24.16-5.14-32.48-13.46-8.3-8.3-13.44-19.8-13.44-32.48 0-12.68 5.14-24.16 13.44-32.48 8.32-8.3 19.8-13.44 32.48-13.44 12.68 0 24.18 5.14 32.48 13.44 8.3 8.32 13.46 19.8 13.46 32.48 0 12.68-5.16 24.18-13.46 32.48zm-32.48-79.84c-13.08 0-24.92 5.3-33.5 13.86-8.56 8.58-13.86 20.42-13.86 33.5 0 13.08 5.3 24.94 13.86 33.5 8.58 8.58 20.42 13.88 33.5 13.88 13.1 0 24.94-5.3 33.5-13.88a47.185 47.185 0 0013.88-33.5c0-13.08-5.3-24.92-13.88-33.5-8.56-8.56-20.4-13.86-33.5-13.86zM905.9 647.8c-9.38 9.38-22.34 15.2-36.66 15.2-14.32 0-27.28-5.82-36.66-15.2-9.38-9.38-15.18-22.34-15.18-36.66 0-14.3 5.8-27.28 15.18-36.66 9.38-9.38 22.34-15.18 36.66-15.18 14.32 0 27.28 5.8 36.66 15.18 9.38 9.38 15.2 22.36 15.2 36.66 0 14.32-5.82 27.28-15.2 36.66zm-36.66-89.94c-14.72 0-28.04 5.96-37.68 15.6s-15.6 22.96-15.6 37.68c0 14.72 5.96 28.04 15.6 37.7 9.64 9.64 22.96 15.6 37.68 15.6 14.72 0 28.04-5.96 37.68-15.6 9.64-9.66 15.62-22.98 15.62-37.7 0-14.72-5.98-28.04-15.62-37.68-9.64-9.64-22.96-15.6-37.68-15.6zm-19.64 30.06c.28-.94.98-1.4 1.7-1.46.3-.02.6.02.9.1.28.08.56.22.78.42.58.44.9 1.2.62 2.14-.3.94-.98 1.4-1.7 1.44-.3.04-.62 0-.9-.08s-.56-.24-.8-.4c-.54-.46-.86-1.22-.6-2.16zm.98 3.94c.48.14.96.2 1.44.16 1.28-.12 2.48-.88 2.96-2.5.48-1.58-.1-2.88-1.1-3.68-.38-.3-.82-.52-1.28-.66-.46-.14-.94-.2-1.42-.16-1.28.12-2.46.88-2.96 2.48-.48 1.6.1 2.9 1.1 3.7.38.3.82.52 1.26.66zm-10.18 9.34c.22-.18.5-.34.78-.42.28-.1.58-.14.88-.12.72.04 1.42.46 1.72 1.4.32.94 0 1.7-.54 2.16-.22.2-.5.34-.78.44-.3.1-.6.14-.9.12-.72-.06-1.42-.48-1.72-1.42-.32-.92 0-1.68.56-2.16zm1.08 5.02c.48.04.96-.04 1.42-.2.46-.14.88-.38 1.26-.68.98-.82 1.52-2.14 1-3.72s-1.74-2.32-3-2.4c-.48-.04-.98.04-1.42.18-.48.16-.9.38-1.26.7-1 .82-1.54 2.12-1.02 3.72.52 1.58 1.74 2.32 3.02 2.4zm2.18 15.18h-.02c-.18.24-.4.44-.64.58-.62.4-1.44.44-2.24-.14-.8-.58-.98-1.38-.8-2.08.08-.28.22-.56.4-.8.18-.26.4-.46.66-.62.62-.38 1.42-.44 2.22.16.8.58.98 1.38.8 2.08-.08.28-.22.56-.38.82zm-3.4-4.28c-.42.26-.78.58-1.06.98-.3.38-.5.82-.62 1.3-.32 1.22-.02 2.62 1.34 3.6 1.34 1 2.76.88 3.84.22.4-.26.76-.58 1.04-.96l.02-.02c.28-.38.5-.82.62-1.3.32-1.24 0-2.62-1.34-3.6-1.34-1-2.76-.9-3.84-.22zm13.96 18.12c-.28.68-.92 1.2-1.9 1.18-.98 0-1.6-.54-1.86-1.22-.1-.28-.16-.58-.14-.88 0-.3.04-.6.16-.88.28-.68.92-1.18 1.9-1.18.98 0 1.6.54 1.86 1.24.12.28.16.58.16.88 0 .3-.06.6-.18.86zm-1.82-4.42c-1.66-.02-2.76.88-3.24 2.06-.18.44-.28.94-.3 1.42 0 .48.08.96.26 1.42.44 1.18 1.52 2.12 3.18 2.14 1.68.02 2.76-.88 3.24-2.06.2-.44.28-.92.3-1.42 0-.48-.08-.96-.24-1.4-.46-1.2-1.52-2.14-3.2-2.16zm17.06 10.74c-.82.54-1.64.46-2.24.04-.24-.18-.44-.4-.62-.64-.16-.26-.28-.54-.34-.84-.14-.7.08-1.5.92-2.02.82-.56 1.62-.46 2.22-.04l.04.02c.22.16.42.38.58.62.18.24.3.54.34.82.16.72-.06 1.52-.9 2.04zm.82-4.66l-.06-.02c-1.04-.74-2.44-.92-3.84 0-1.4.94-1.78 2.3-1.54 3.54.1.46.3.92.56 1.32.28.4.62.76 1.02 1.04 1.04.72 2.44.9 3.84 0 1.4-.94 1.78-2.3 1.52-3.54-.08-.48-.28-.92-.56-1.34-.24-.38-.56-.74-.94-1zm16.72-1.06c-.36.92-1.08 1.32-1.8 1.32-.3 0-.6-.06-.88-.16-.3-.12-.56-.28-.76-.48l-.04-.02c-.52-.5-.74-1.26-.4-2.16.36-.94 1.08-1.32 1.8-1.32.3 0 .6.06.88.16.28.12.54.28.76.48l.04.02c.5.5.76 1.26.4 2.16zm.54-3.24c-.34-.32-.76-.58-1.22-.76-.44-.16-.92-.28-1.4-.26-1.28 0-2.54.68-3.14 2.24-.6 1.52-.16 2.84.74 3.72l.06.04c.34.32.76.58 1.22.76.44.18.92.26 1.4.26 1.28-.02 2.54-.68 3.14-2.24.6-1.52.14-2.84-.76-3.72l-.04-.04zm9.02-13.68c-.28-.04-.56-.02-.84.06l-.04.02c-.3.08-.58.2-.82.38-.58.44-.92 1.18-.66 2.14.26.94.94 1.4 1.66 1.48.28.04.6.02.88-.06.3-.08.58-.22.8-.4.6-.44.94-1.18.68-2.12-.26-.96-.94-1.42-1.66-1.5zm1.58-15.56c-.18.26-.4.46-.66.62-.62.38-1.44.44-2.22-.14-.8-.6-.98-1.4-.8-2.1.06-.28.22-.56.38-.8.18-.24.4-.46.66-.6.62-.4 1.44-.44 2.24.14.78.6.98 1.38.8 2.08-.1.3-.22.58-.4.8zm-3.4-4.26c-.4.26-.76.6-1.06.98-.28.38-.5.84-.62 1.3-.32 1.22-.02 2.62 1.34 3.6 1.34 1 2.76.9 3.84.24.42-.28.78-.62 1.06-1 .28-.36.5-.82.62-1.3.32-1.22.02-2.6-1.32-3.6-1.36-1-2.78-.88-3.86-.22zm-27.54-18.3c.78-.58 1.6-.54 2.22-.18.26.16.48.38.66.62.18.24.32.5.4.8.18.7 0 1.5-.78 2.1-.8.58-1.62.54-2.24.16-.24-.16-.46-.38-.66-.6-.18-.26-.3-.52-.4-.82-.18-.7 0-1.5.8-2.08zm-.48 4.74c1.08.66 2.5.74 3.84-.26 1.34-1 1.64-2.38 1.32-3.6-.14-.48-.36-.92-.64-1.32-.3-.38-.66-.72-1.06-.96-1.1-.66-2.52-.76-3.84.24-1.36 1-1.66 2.38-1.32 3.62.12.48.34.9.62 1.3.3.38.66.72 1.08.98zm17.2 1.3c.26-.68.9-1.2 1.9-1.2.98 0 1.6.52 1.86 1.2l.02.02c.1.26.16.56.16.86 0 .3-.06.6-.18.88-.26.68-.88 1.2-1.86 1.2-1 0-1.64-.52-1.9-1.2v-.04c-.12-.26-.16-.54-.16-.84 0-.32.06-.6.16-.88zm-1.32 2.28c.46 1.2 1.54 2.12 3.22 2.12 1.66 0 2.74-.92 3.2-2.12a3.72 3.72 0 00.02-2.78l-.02-.04c-.46-1.18-1.54-2.1-3.2-2.1-1.68 0-2.76.92-3.22 2.1-.2.44-.28.94-.28 1.42 0 .46.08.94.26 1.36l.02.04zm5.8 30.66c-2.78 6.98-9.18 12.42-19.16 12.42s-16.36-5.44-19.16-12.42c-1.08-2.72-1.62-5.68-1.62-8.62 0-2.98.54-5.94 1.62-8.66 2.8-6.96 9.18-12.42 19.16-12.42s16.38 5.46 19.16 12.42c1.08 2.72 1.62 5.68 1.62 8.66 0 2.94-.54 5.9-1.62 8.62zm-19.16-31.14c-10.66 0-17.5 5.84-20.48 13.34-1.16 2.88-1.74 6.02-1.74 9.18 0 3.12.58 6.28 1.74 9.16 2.98 7.48 9.82 13.34 20.48 13.34s17.5-5.86 20.5-13.34c1.16-2.88 1.74-6.04 1.74-9.16 0-3.16-.58-6.3-1.74-9.18-3-7.5-9.84-13.34-20.5-13.34zm4.68 24.64c-.68 1.7-2.24 3.02-4.68 3.02-2.44 0-4-1.32-4.68-3.02a5.869 5.869 0 010-4.26c.68-1.7 2.24-3.02 4.68-3.02 2.44 0 4 1.32 4.68 3.02a5.869 5.869 0 010 4.26zm-4.68-8.72c-3.12 0-5.14 1.72-6 3.92-.36.84-.52 1.76-.52 2.66 0 .92.16 1.84.52 2.68.86 2.2 2.88 3.92 6 3.92s5.14-1.72 6.02-3.92c.32-.84.5-1.76.5-2.68 0-.9-.16-1.82-.5-2.66-.88-2.2-2.9-3.92-6.02-3.92zm32.48 39.06a45.75 45.75 0 01-32.48 13.46c-12.68 0-24.16-5.14-32.48-13.46-8.3-8.3-13.44-19.8-13.44-32.48 0-12.68 5.14-24.16 13.44-32.48 8.32-8.3 19.8-13.44 32.48-13.44 12.68 0 24.18 5.14 32.48 13.44 8.3 8.32 13.46 19.8 13.46 32.48 0 12.68-5.16 24.18-13.46 32.48zm-32.48-79.84c-13.08 0-24.92 5.3-33.5 13.86-8.58 8.58-13.86 20.42-13.86 33.5 0 13.08 5.28 24.94 13.86 33.5 8.58 8.58 20.42 13.88 33.5 13.88 13.08 0 24.92-5.3 33.5-13.88a47.185 47.185 0 0013.88-33.5c0-13.08-5.3-24.92-13.88-33.5-8.58-8.56-20.42-13.86-33.5-13.86zM983.2 441.3c-.66 1.46-1.76 2.84-3.52 3.78l-15.92 6.64v-11.1c0-.4-.32-.72-.72-.72h-.64v-3c3.68-1.08 6.04-3.52 7.06-6.46.56-1.64.76-3.38.54-5.08-.18-1.7-.76-3.36-1.68-4.82-1.76-2.76-4.78-4.74-8.94-4.74-4.16 0-7.2 1.98-8.96 4.74-.92 1.46-1.5 3.12-1.68 4.82-.2 1.7-.02 3.44.54 5.08 1.04 2.94 3.38 5.4 7.06 6.46v3h-.64c-.4 0-.72.32-.72.72v14.78l-14.96 6.24c-2.78.62-5.02.64-6.98.06-1.98-.6-3.7-1.84-5.46-3.74l-1.1-1.3c-2.82-3.28-5.42-6.34-7.22-10.44-.64-1.48-.94-2.92-.46-4.34.5-1.48 1.84-3.04 4.5-4.76l26.94-20.1c3.82-2.86 3.94-2.84 7.22-2.26.66.1 1.44.24 2.38.38l14.4 2.16c5.98.92 6.08 1.44 7.2 6.92.76 3.78 1.68 7.74 2.32 11.5.34 1.52.3 3.64-.56 5.58zm-20.88 18.62c0 .42-.82.5-1.94.5-.56 0-1.08-.02-1.6-.04-.66-.02-1.34-.04-1.92-.04-.14 0-.24-.06-.3-.14h-.02a.45.45 0 01-.12-.28v-18.16c0-.12.06-.24.14-.3v-.02c.06-.06.18-.1.3-.1h4.86c.38.06.6.2.6.42v18.16zm-1.36-27.4v7.3c-.2 0-.38-.02-.58-.02-.46 0-1.04.02-1.66.04-.28.02-.62.02-.94.04v-7.36c.54.14 1.06.2 1.6.2.52 0 1.06-.06 1.58-.2zm-1.58-1.26c-2.22 0-3.64-1.2-4.26-2.72-.24-.6-.36-1.28-.36-1.94 0-.68.12-1.34.36-1.96.62-1.52 2.04-2.72 4.26-2.72 2.22 0 3.62 1.2 4.24 2.72.24.62.38 1.28.38 1.96 0 .66-.14 1.34-.38 1.94-.62 1.52-2.02 2.72-4.24 2.72zm-3.04 4.18c-2.98-.98-4.84-3.06-5.7-5.5-.48-1.4-.66-2.92-.48-4.42.18-1.5.68-2.94 1.48-4.2 1.5-2.38 4.12-4.06 7.74-4.06 3.6 0 6.22 1.68 7.74 4.06.78 1.26 1.3 2.7 1.46 4.2.16 1.5.02 3.02-.48 4.42-.84 2.44-2.72 4.52-5.7 5.5v-3.52c1.2-.66 2.08-1.64 2.56-2.84.32-.8.46-1.64.46-2.48 0-.84-.14-1.7-.46-2.48-.82-2.04-2.68-3.64-5.58-3.64s-4.78 1.6-5.58 3.64c-.32.78-.48 1.64-.48 2.48 0 .84.16 1.68.48 2.48.46 1.2 1.36 2.18 2.54 2.84v3.52zm26.52-11.5c-1.3-6.4-1.42-7-8.42-8.06l-14.38-2.16c-.94-.14-1.7-.28-2.36-.4-3.86-.66-4.02-.68-8.32 2.52l-26.9 20.1c-2.92 1.9-4.44 3.7-5.04 5.48-.62 1.84-.26 3.6.5 5.38 1.88 4.3 4.54 7.42 7.44 10.82l1.12 1.3.02.02c1.92 2.08 3.86 3.44 6.1 4.12 2.24.68 4.72.66 7.76-.04l.14-.04 14.46-6.02v2.96c0 .5.2.94.54 1.28l.02.04c.34.32.8.54 1.32.54.66 0 1.28.02 1.86.04.62.02 1.2.06 1.66.06 1.96 0 3.38-.34 3.38-1.96v-6.64l16.58-6.92c2.08-1.1 3.4-2.74 4.18-4.48.98-2.26 1.04-4.7.64-6.48l-2.3-11.46zm-19.7 173.68c.1.6.22 1.18.28 1.8l.42 4.12c.06.76.08 1.54.12 2.3l-17.8 9.06-1.22-8.2 18.2-9.08zm-15.24-39.72l2.22 3.62c.7 1.14 1.44 2.26 2.08 3.44l-12.1 15.98-4.68-6.84 12.48-16.2zm-94.76-40.3l11.04 16.68-8.02 2.14-11.08-17.06c.7-.18 1.42-.38 2.12-.54l4.6-1.02c.44-.06.9-.12 1.34-.2zm8.8-24.82c.4 4.48.92 8.76 1.68 12.6.72 3.58 1.68 6.74 2.86 9.46-4.42.12-8.76.56-13.02 1.26-.08-.02-.12-.1-.2-.08l-1.1.24c-1.26-2.72-2.24-6.02-3-9.76-.74-3.76-1.24-7.96-1.66-12.4 4.96-.64 9.78-1.12 14.44-1.32zm75.26 36.86c2.98-2.54 6.04-5.54 9.16-8.8 3.66 3.12 7.12 6.48 10.46 10.02-3.06 3.22-6.08 6.18-9.02 8.66-2.88 2.44-5.64 4.36-8.32 5.7-.7-.74-1.34-1.56-2.06-2.28-2.7-2.7-5.62-5.18-8.62-7.54 2.7-1.4 5.5-3.32 8.4-5.76zm-39.38 9.98l-8.16-1.52-2.66-20.24c.12.02.26.04.38.06l4.72 1.12c.98.22 1.96.48 2.92.74l2.8 19.84zm29.4-3.6l-4.8 19.42-7-4.46 5.06-19.74c.24.16.5.28.72.44l3.6 2.52c.82.6 1.64 1.2 2.42 1.82zm-1.54-2.96c-1.22-.88-2.44-1.78-3.7-2.6l-1.5-1.06c-.08-.04-.16-.08-.24-.1-.06-.02-.1.02-.14.02-7.46-4.64-15.56-8.32-24.2-10.8-.04-.02-.02-.08-.08-.08l-3.32-.8c-1.62-.4-3.24-.82-4.88-1.14l-1.32-.32a.57.57 0 00-.26 0c-.04 0-.08.04-.1.06-5.46-.96-11-1.54-16.72-1.54-.42 0-.82.06-1.22.06-1.24-2.7-2.22-5.96-2.96-9.66-.74-3.76-1.26-7.96-1.66-12.38 23.14-.82 42.52 3.64 59.16 12.04 8.2 4.14 15.74 9.24 22.72 15.14-3.06 3.18-6.08 6.16-9 8.64-3 2.52-5.88 4.54-8.64 5.88l-1.94-1.36zm-100.34-43.6c1.26-1.02 2.68-1.92 4.4-2.54 7.5-2.62 16.52-4.94 26.24-6.78 10.14-1.96 21.04-3.44 31.7-4.34 9.18 2.32 18.18 5.5 26.96 9.72 8.82 4.22 17.42 9.52 25.74 16.08 6.72 5.28 13.26 11.36 19.6 18.36 6.34 7 12.5 14.94 18.44 23.9.76 1.14 1.26 2.34 1.66 3.54-17.92-26.26-40.04-45.36-66.6-55.38-25.34-9.56-54.68-10.86-88.14-2.56zm87.64 3.92c27.18 10.24 49.7 30.06 67.78 57.48.12 1.66.02 3.3-.42 4.84-.46 1.56-.34 2.24-.46 2.2-.02-.02-.3-.44-.7-1.08-.24-.38-.5-.82-.8-1.28-6.18-9.08-12.8-17.52-20-25.16-.02-.02.02-.06 0-.08-.02-.02-.06.02-.08 0-3.66-3.88-7.46-7.58-11.46-10.98v-.02c-7.26-6.16-15.1-11.52-23.66-15.84-17.02-8.58-36.9-13.12-60.64-12.16l-.02-.02c-.02 0-.02.02-.02.02-5.02.2-10.28.74-15.64 1.46-.08-.02-.14-.08-.22-.08-.1.02-.16.1-.26.14-2.82.38-5.62.72-8.56 1.26-4.9.88-9.26 2.06-12.18 2.84-1.96.52-3.06.92-3.14.9-.52-.3-1.4-.9-1.98-1.46-.18-.18-.48 0-.4-.12l.04-.12c.56-1.42 1.66-3.12 3.08-4.72 34.2-8.9 64.06-7.72 89.74 1.98zm-101.42 42.38c.72-.54 1.46-1.1 2.22-1.64l3.54-2.48c.34-.22.68-.4 1-.6l16.62 11.12-6.56 5.08-16.82-11.48zm-25.7 29.84l2.44-4.02c.6-1 1.18-2.06 1.84-3.04l19.78 3.44-3.96 7.3-20.1-3.68zm-11.14 36.04l.5-3.56c.22-1.54.42-3.08.7-4.6l19.54-4.52-.8 8.26-19.94 4.42zm186.24 33.8l-21.32.96c-.3.02-.56.22-.66.52l-2.6 9.44c-.04.08-.04.16-.04.26.02.4.36.7.76.68l20.36-1.08c-3.54 8.86-8.32 17.06-14.2 24.38l-19.92-7.78a.713.713 0 00-.82.2l-6.2 7.54c-.06.06-.1.14-.14.24-.16.38.04.8.4.92l19.06 7.3a94.65 94.65 0 01-21.98 16.06l-15.22-15.06c-.2-.22-.54-.28-.84-.14l-8.72 4.5c-.08.04-.12.08-.18.14-.28.28-.28.74.02 1.02l14.56 14.22a93.95 93.95 0 01-28.96 6.12l-7.44-19.92c-.1-.3-.38-.52-.72-.5l-9.76.42c-.08 0-.18 0-.26.04-.38.14-.56.56-.42.94l7.26 18.96c-10.26-.66-20.1-2.9-29.22-6.58l1.7-21.32a.741.741 0 00-.46-.74l-9.02-3.76a.554.554 0 00-.26-.06c-.4-.02-.74.26-.76.66l-1.46 20.4c-7.9-4.36-15.12-9.76-21.46-16.1-.66-.66-1.24-1.38-1.88-2.08l10.46-18.6c.14-.26.1-.6-.1-.84l-6.64-7.2a.783.783 0 00-.2-.16c-.36-.2-.8-.06-.98.28l-9.82 17.82c-5.4-7.3-9.76-15.4-12.9-24.08l16.98-12.94c.24-.18.34-.5.24-.8l-3.22-9.26a.477.477 0 00-.12-.22c-.24-.32-.7-.36-1.02-.12l-16.1 12.46c-1.6-6.9-2.52-14.06-2.52-21.44 0-2.7.18-5.36.4-8l20.86-4.64c.3-.06.54-.3.56-.62l.94-9.74c.02-.1 0-.18-.02-.28-.08-.38-.46-.62-.86-.54l-19.94 4.62c1.82-8.86 4.9-17.22 9-25l21.02 3.86c.32.06.64-.08.8-.36l4.66-8.62c.04-.06.08-.16.1-.24.06-.4-.2-.78-.6-.84-6.68-1.16-13.44-2.26-20.1-3.5 3.28-4.74 6.94-9.2 11-13.28 2.6-2.58 5.42-5 8.3-7.28l17.66 12.04c.24.16.58.16.84-.02l7.78-6c.06-.06.1-.12.14-.18.24-.32.14-.78-.18-1l-16.9-11.32c7.36-4.52 15.38-8.08 23.92-10.46l11.62 17.86c.16.28.48.44.82.36l9.48-2.56c.06 0 .14-.04.2-.08.34-.22.44-.66.22-1l-11.24-16.96c4.1-.62 8.28-1.02 12.54-1.12.2.14.42.18.66.08.04-.04.06-.08.1-.1.4-.02.8-.08 1.22-.08 5.56 0 10.98.58 16.28 1.5l2.8 21.16c.04.3.26.56.58.62l9.62 1.78c.08.02.16.04.26.02.4-.06.66-.42.62-.82l-2.84-20.22c8.08 2.42 15.64 5.92 22.66 10.28l-5.3 20.6c-.1.32.02.68.3.86l8.3 5.26c.06.04.12.06.2.1.38.08.78-.14.88-.54l4.9-19.78c2.76 2.2 5.42 4.52 7.92 7 .76.76 1.42 1.62 2.16 2.38 0 .06-.02.12 0 .18.1.2.28.3.5.36 2.84 3.1 5.52 6.36 7.94 9.82l-13.04 16.92a.69.69 0 00-.02.86l5.5 8.08c.04.06.1.14.18.2.32.24.78.18 1.02-.14l12.34-16.3c4.9 9.14 8.26 19.2 9.96 29.8l-19.1 9.52c-.28.14-.44.44-.4.76l1.44 9.68c.02.08.04.16.08.24.18.36.62.5.96.32l18.12-9.22c.04 1.24.18 2.46.18 3.72 0 8.42-1.18 16.54-3.26 24.3zm-.58 2.32l-1.56 4.74c-.26.76-.54 1.52-.82 2.26l-19.98 1.04 2.22-7.98 20.36-.92c-.08.28-.14.58-.22.86zm-23.6 40.16l-18.74-7.18 5.26-6.4 19.04 7.46c-1.76 2.12-3.62 4.14-5.56 6.12zm-27.04 19.06l-4.52 2.06c-.14.06-.28.1-.44.16l-14.36-14 7.38-3.78 14.48 14.34c-.84.42-1.7.82-2.54 1.22zm-38.78 9.08l-3.82-.02c-.88 0-1.72-.08-2.58-.12l-7.14-18.64 8.28-.36 7.12 19.06c-.62 0-1.24.06-1.86.08zm-38.62-7.38l-4.98-2.34c-.82-.4-1.66-.78-2.46-1.2l1.42-20 7.64 3.18-1.62 20.36zm-34.78-25.3l-2.72-3.22c-.34-.44-.66-.92-1-1.36l9.64-17.52 5.62 6.1-9.96 17.76c-.52-.6-1.06-1.16-1.58-1.76zm-18.44-32.26l-1.4-4.72c-.22-.76-.4-1.52-.58-2.3l15.8-12.24 2.72 7.84-16.2 12.34c-.12-.3-.24-.62-.34-.92zm-15.36-32.04c-.18.14-.32.3-.32.56 0 .12.06.2.12.3-2.22 9.98-4.38 20.28-6.3 31.28h-19.16c1.34-14.46 4.1-29.28 7.66-43.96 3.62-14.98 8.1-29.82 12.82-43.96 4.5-13.48 9.66-27.1 16-40.04 6.24-12.76 13.6-24.9 22.56-35.58l13.3 4.76c1.64.74 2.44 1.7 2.5 2.92.06 1.38-.7 3.16-2.16 5.38l-.02.02c-11.84 17.22-22.28 37.86-31.22 62.76-5.92 16.5-11.16 35.06-15.78 55.56zm-40.58 32.14c6.46-34 17-72.78 33.94-110.74.3-.68.62-1.34.92-2l7.06 2.84c-2.86 7.14-5.5 14.34-7.88 21.54-4.74 14.18-9.24 29.06-12.86 44.06-3.6 14.8-6.34 29.72-7.7 44.3H723.2zm-105.9 0V600.2h51.02l56.8 24.56c-1.22 5.58-2.38 11.1-3.4 16.46H617.3zm-.72-65.64h-84.76c-7.42 0-13.58-3.22-18.58-7.68-5.06-4.5-8.92-10.26-11.74-15.24-5.82-11.32-11.16-22.58-16.08-34.1-4.92-11.54-9.4-23.36-13.56-35.84-3.54-10.16-4.6-19.1-4-27.18.58-8.08 2.8-15.28 5.84-21.98l.02-.04c9.04-20.78 18.38-38.9 28.32-54.62 9.94-15.72 20.52-29.06 32.1-40.32 17.78-17.32 36.96-29.48 57.32-37.2 20.34-7.7 41.88-10.98 64.4-10.54l33.56.02h18.3c15.5 0 27.7.64 36.7 3.88 8.84 3.18 14.6 8.92 17.3 19.08l.04.1c2.96 8.46 5.22 18.04 7.1 28.46 1.9 10.44 3.42 21.8 4.88 33.76.66 5.38 1.5 13.08 2.22 21.42.54 6.38 1.04 13.12 1.3 19.48.36 8.02.32 15.6-.5 22.1-.8 6.44-2.36 11.8-5.04 15.5l-.06.08c-7.5 12.12-14.94 23.42-22.52 34.58-7.62 11.18-15.38 22.18-23.56 33.74-4.14 5.82-8.8 11.52-13.46 17.2-4.64 5.7-9.28 11.38-13.48 17.28-3.62 4.62-7.26 9.18-11.82 12.54-4.54 3.32-10 5.52-17.34 5.52h-52.9zm-.72 18.66h-71.22v-17.22h71.22v17.22zm0 35.64h-24.9c-.04-.18-.04-.4-.1-.58-.38-1.14-1.28-2.04-2.68-2.04H572.3c-1.4 0-2.28.9-2.68 2.04-.06.18-.06.4-.08.58h-24.9v-34.2h71.22v34.2zm-44.98.66c0-.28.04-.54.1-.78.22-.6.66-1.06 1.32-1.06h15.88c.68 0 1.12.46 1.32 1.06.06.24.1.5.12.78-.02.02-.04.04-.04.06 0 .02.02.04.04.08-.02.26-.06.52-.12.76-.2.6-.64 1.06-1.32 1.06H572.3c-.66 0-1.1-.46-1.32-1.06-.06-.24-.1-.5-.1-.76 0-.04.02-.06.02-.08 0-.02-.02-.04-.02-.06zm44.98 10.68h-71.22v-9.9h24.9c.02.2.02.4.08.58.4 1.14 1.28 2.04 2.68 2.04h15.88c1.4 0 2.3-.9 2.68-2.04.06-.18.06-.38.1-.58h24.9v9.9zm-72.66-42.46h-40.9l-11.24-27.74h23.86c4.74 3.54 10.3 6 16.9 6h11.38v21.74zm0 42.46h-23.7l-16.62-41.02h40.32v41.02zm-46.08 0c-3.68 0-5.82-.88-7.02-2.4-1.1-1.38-1.42-3.4-1.5-5.74h26.06l3.28 8.14h-20.82zm-10.72-30.28c-1.56-1.44-3.96-2.02-7.58-2.02h-21.16c-.02-.86-.08-1.7-.12-2.56.02-.08.12-.14.12-.22l-.28-2.7c-.1-1.42-.26-2.86-.44-4.28l-.26-2.72c0-.1-.02-.2-.08-.3-.02-.06-.08-.06-.12-.12-1.78-11.2-5.38-21.8-10.68-31.38 0-.02.02-.02.02-.04l-2.06-3.34c-.88-1.44-1.7-2.92-2.66-4.3l-.4-.68a.948.948 0 00-.2-.2c-.02-.02-.04.02-.04 0-3.28-4.68-6.9-9.1-10.94-13.14-1.56-1.56-3.24-3-4.92-4.46h28.04v5.62c0 5.12 0 7.48 5.94 10.9l.12.06 28.62 10.54 26.74 66.04h-25.5v-13.66c0-3.32-.6-5.58-2.16-7.04zm-31.14-13.32c.08.6.2 1.18.28 1.78l.4 4.14c.06.76.08 1.54.12 2.3l-17.78 9.06-1.22-8.2 18.2-9.08zM440 557.9l2.28 3.72c.68 1.1 1.4 2.2 2.04 3.34l-12.14 15.98-4.66-6.84L440 557.9zm13.08 77.54l-21.32.96c-.3.02-.58.22-.66.52l-2.62 9.44c-.02.08-.04.16-.04.26.02.4.36.7.76.68l20.36-1.08a94.807 94.807 0 01-14.2 24.38l-19.92-7.78c-.28-.12-.6-.04-.82.2l-6.2 7.54a.48.48 0 00-.14.24c-.14.38.04.8.4.92l19.06 7.3a94.885 94.885 0 01-21.98 16.08l-15.22-15.08a.7.7 0 00-.82-.14l-8.74 4.5c-.06.04-.12.08-.2.14-.26.28-.26.74.02 1.02l14.58 14.22a93.948 93.948 0 01-28.94 6.12l-7.46-19.92c-.1-.3-.38-.52-.7-.5l-9.78.42c-.08 0-.18 0-.26.04-.38.14-.56.56-.42.94l7.26 18.96c-10.3-.66-20.12-2.9-29.22-6.58l1.7-21.32a.754.754 0 00-.44-.74l-9.04-3.76a.554.554 0 00-.26-.06c-.4-.02-.74.26-.76.66l-1.46 20.4a94.953 94.953 0 01-21.34-16.02c-.7-.7-1.32-1.46-1.98-2.18l10.44-18.58c.14-.26.1-.6-.1-.84l-6.64-7.2a.545.545 0 00-.2-.16.72.72 0 00-.98.28l-9.78 17.76a95.708 95.708 0 01-12.92-24.04l16.96-12.92c.24-.18.36-.5.24-.8l-3.22-9.26a.477.477 0 00-.12-.22.706.706 0 00-1-.12l-16.1 12.46c-1.6-6.92-2.54-14.08-2.54-21.44 0-2.7.18-5.36.4-8l20.84-4.64c.32-.06.56-.3.6-.62l.92-9.74a.66.66 0 000-.28.74.74 0 00-.86-.54l-19.94 4.62c1.8-8.86 4.9-17.22 8.98-25l21.04 3.86c.3.06.64-.08.8-.36l4.64-8.62c.04-.06.08-.16.1-.24.06-.4-.2-.78-.58-.84-6.7-1.16-13.46-2.26-20.12-3.5 3.28-4.74 6.94-9.2 11-13.28 2.62-2.58 5.42-5 8.3-7.28l17.66 12.04c.26.16.58.16.84-.02l7.76-6c.06-.06.12-.12.16-.18a.73.73 0 00-.18-1l-16.9-11.32c7.38-4.52 15.4-8.08 23.92-10.46l11.62 17.86c.16.28.5.44.82.36l9.48-2.56c.08 0 .14-.04.22-.08a.73.73 0 00.2-1l-11.22-16.96c4.74-.72 9.56-1.22 14.5-1.22.3 0 .6.04.9.04.04.04.04.1.1.14.24.1.48.04.68-.1 4.96.1 9.84.6 14.58 1.4l2.82 21.42c.04.3.28.56.58.6l9.6 1.78c.1.04.18.04.28.02.4-.04.66-.4.62-.8l-2.88-20.48c8.1 2.42 15.68 5.94 22.7 10.3l-5.28 20.6c-.12.32 0 .68.28.86l8.28 5.26c.08.04.14.06.22.1.4.08.78-.14.88-.54l4.9-19.78c2.76 2.2 5.44 4.52 7.92 7 3.92 3.92 7.42 8.2 10.6 12.74l-13.04 16.92a.75.75 0 00-.02.86l5.5 8.08c.06.06.12.14.18.2.32.24.78.18 1.02-.14l12.34-16.3c4.9 9.14 8.26 19.2 9.96 29.8l-19.1 9.52c-.28.14-.44.44-.4.76l1.44 9.68c.02.08.04.16.08.24.18.36.62.5.96.32l18.12-9.22c.06 1.24.18 2.46.18 3.72 0 8.42-1.2 16.54-3.24 24.3zm-.58 2.3l-1.6 4.8c-.26.74-.52 1.48-.8 2.22l-19.98 1.04 2.22-7.98 20.36-.92c-.08.28-.14.56-.2.84zm-23.62 40.18l-18.74-7.18 5.26-6.4 19.04 7.46c-1.76 2.12-3.62 4.14-5.56 6.12zm-27.02 19.06l-4.54 2.06c-.14.06-.3.1-.42.16l-14.38-14 7.38-3.78 14.48 14.34c-.82.42-1.68.82-2.52 1.22zm-38.8 9.08l-3.82-.02c-.86 0-1.72-.08-2.58-.12l-7.14-18.64 8.28-.36 7.12 19.06c-.62 0-1.22.06-1.86.08zm-38.62-7.38l-5.8-2.74c-.54-.28-1.1-.5-1.66-.8l1.44-20 7.66 3.18-1.64 20.36zm-35.36-26l-1.62-1.92c-.52-.64-.98-1.34-1.5-2l9.62-17.48 5.62 6.1-9.94 17.72c-.74-.82-1.48-1.6-2.18-2.42zm-18.04-32.12l-1.02-3.48c-.28-.98-.52-2-.76-3l15.78-12.22 2.74 7.84-16.18 12.32c-.18-.5-.38-.98-.56-1.46zm-3.76-42.16c.22-1.66.44-3.3.74-4.92l19.54-4.52-.8 8.26-19.96 4.42.48-3.24zm13.06-36.72c.64-1.06 1.22-2.12 1.9-3.14l19.78 3.44-3.94 7.3-20.12-3.68 2.38-3.92zm2.08-22.16c-2.92-2.48-5.96-5.44-9.02-8.66 3.36-3.54 6.82-6.9 10.46-10.02 3.14 3.28 6.2 6.3 9.22 8.84 2.88 2.44 5.72 4.36 8.52 5.82-2.94 2.34-5.8 4.8-8.48 7.44-.76.78-1.44 1.62-2.18 2.4-2.72-1.34-5.56-3.32-8.52-5.82zm104.7-19.56l2.8 19.9-8.16-1.52-2.66-20.28 8.02 1.9zm-2.98-25.64c1.24.18 2.48.36 3.74.56v23.62c-2.74-.8-5.52-1.48-8.36-2.04 1.24-2.76 2.22-6 2.96-9.68.74-3.8 1.26-8.02 1.66-12.46zm-17.54 11.06c.76-3.84 1.28-8.1 1.68-12.6 4.64.22 9.48.7 14.44 1.34-.42 4.42-.92 8.62-1.66 12.38-.76 3.74-1.74 7.02-3 9.74a96.76 96.76 0 00-14.32-1.42c1.18-2.72 2.14-5.86 2.86-9.44zm-56.18 25.66l16.62 11.12-6.56 5.08-16.82-11.48c.74-.54 1.46-1.1 2.22-1.64l3.54-2.48c.32-.22.66-.4 1-.6zm45.86 3.24l-8 2.14-11.1-17.06c.7-.18 1.4-.38 2.12-.54l4.6-1.02c.44-.06.9-.12 1.34-.2l11.04 16.68zm-10.9-18.26l-1.72.36c-1.6.3-3.16.66-4.74 1.04l-3.12.68c-.08.02-.16.06-.24.1-.02.02 0 .06-.02.08a96.075 96.075 0 00-25.42 11.24c-.06.02-.14-.04-.2 0l-1.2.86c-1.32.84-2.58 1.76-3.84 2.68l-2.1 1.46c-2.88-1.42-5.78-3.44-8.78-5.94-2.94-2.48-5.94-5.46-9.04-8.68 6.98-5.88 14.52-11 22.74-15.14 16.62-8.38 36-12.86 59.14-12.04-.4 4.42-.92 8.62-1.66 12.38-.74 3.7-1.72 6.94-2.96 9.64-.3 0-.6-.04-.9-.04-5.38 0-10.62.56-15.76 1.4-.08-.02-.12-.1-.18-.08zm-73.46 14.28c-.02.02-.06-.02-.08 0-.02.02.02.06 0 .1-7.2 7.62-13.84 16.06-19.98 25.16-.32.46-.58.88-.82 1.26-.4.64-.68 1.08-.7 1.08-.12.04 0-.62-.46-2.2-.44-1.52-.54-3.16-.42-4.82 18.08-27.44 40.62-47.24 67.78-57.5 25.68-9.7 55.54-10.86 89.74-1.96 1.42 1.6 2.52 3.28 3.06 4.72l.06.1c.08.12-.22-.04-.4.12-.58.56-1.46 1.16-1.98 1.46-.06.04-1.18-.36-3.14-.9-2.92-.78-7.28-1.96-12.18-2.84-1.18-.22-2.28-.32-3.44-.5-.1-.06-.22-.14-.34-.14-.08 0-.12.06-.18.06-1.54-.24-3.08-.46-4.58-.68-.1-.04-.18-.12-.28-.14-.08 0-.16.06-.24.08-5.34-.7-10.58-1.26-15.58-1.44-.02-.02-.04-.04-.06-.04-.02 0-.02.02-.06.02-23.72-.96-43.58 3.6-60.6 12.16-8.56 4.34-16.4 9.68-23.64 15.84-.02.02-.02 0-.02 0v.02c-4 3.4-7.8 7.1-11.46 10.98zm-20.1 13.56c5.92-8.94 12.08-16.88 18.42-23.88 6.34-7.02 12.88-13.08 19.6-18.38 8.32-6.54 16.92-11.84 25.74-16.08 8.78-4.22 17.78-7.4 26.98-9.72 10.64.9 21.54 2.38 31.7 4.34 9.7 1.86 18.72 4.16 26.22 6.8 1.72.6 3.14 1.52 4.4 2.52-33.46-8.28-62.82-6.98-88.14 2.58-26.56 10.02-48.68 29.1-66.6 55.38.4-1.2.92-2.4 1.68-3.56zm125.5-115.02c-.4.16-.84.24-1.28.24-.44 0-.88-.08-1.3-.24-.98-.38-1.76-1.24-1.76-2.6v-7.82h6.1v7.82c0 1.36-.76 2.22-1.76 2.6zm-6.7-15.44c1.7-.4 3.26-1.14 4.64-2.14l3.3 5.7h-5.88l-2.06-3.56zm-2.92-1.08h-11.54v-6.54h8.54c4 0 6.56-2.2 7.7-5.02.44-1.08.64-2.26.64-3.42 0-1.16-.2-2.34-.64-3.44-1.14-2.8-3.7-5-7.7-5h-8.54v-6.54h11.54c3.16 0 6.04 1.3 8.14 3.4l.04.02c2.08 2.1 3.36 4.96 3.36 8.12v6.88c0 3.16-1.3 6.06-3.4 8.14-2.1 2.1-4.98 3.4-8.14 3.4zm-11.54-21.98h8.54c3.32 0 5.44 1.8 6.36 4.1.36.92.54 1.9.54 2.9s-.18 1.98-.54 2.88c-.92 2.32-3.04 4.12-6.36 4.12h-8.54v-14zm24.36 36.1h7.36v55.26c-2.38-.62-4.84-1.18-7.36-1.74v-53.52zm0-8.02h7.36v6.56h-7.36v-6.56zm38.8 117.6l-4.8 19.42-7-4.46 5.06-19.74c.24.16.48.28.72.44l3.6 2.54c.84.58 1.64 1.18 2.42 1.8zm40.66-33.44l-13.46 16.68c-.12.12-.2.3-.2.5v17.28h-23.3c-.76-.64-1.58-1.22-2.38-1.84-.04-.04 0-.12-.06-.16l-2.8-1.98c-1.22-.88-2.44-1.78-3.72-2.6l-1.48-1.06c-.08-.04-.16-.08-.24-.1-.06-.02-.1.02-.14.02-4.8-2.98-9.84-5.58-15.12-7.7l62.9-19.04zm-7.34 34.46h-4.88V520l11.16-13.8c-2.84 5.86-6.28 13.16-6.28 20.24v10.6zm9.32-34.02l24.62 60.78-27.32-10.08c-5.18-3-5.18-5.08-5.18-9.62v-17.66c0-6.92 3.54-14.24 6.32-20.04.6-1.24 1.06-2.3 1.56-3.38zm9.1-18.24c4.04 11.94 8.34 23.3 13.04 34.34 4.94 11.58 10.28 22.84 16.12 34.2l.02.04c2.86 5.08 6.84 10.98 12.04 15.6.24.22.52.4.76.6h-22.58l-27.66-68.32 8.26-16.46zm105.24-178.3c-5 2.5-9.92 5.3-14.74 8.38.08-.16.18-.38.28-.54 2.1-4.08 3.16-6.1 4.76-7.02 1.6-.9 3.98-.88 8.72-.82h.98zM554.86 305c2.04-3.5 4.6-6 7.76-7.6 3.18-1.64 6.96-2.38 11.42-2.38h32.56c-5.3 1.4-10.5 3.08-15.66 5.02-3.92 1.48-7.78 3.2-11.62 5.02-1.76 0-2.94-.02-3.98-.02-5-.06-7.52-.08-9.44 1.02-2 1.12-3.1 3.26-5.34 7.6-.44.86-.94 1.82-1.5 2.88-5.86 3.9-11.6 8.26-17.22 13.1L554.86 305zm.08-14.2c0-.54.24-1.06.6-1.42.36-.36.86-.58 1.4-.58h7.12c1.74 0 3.34.58 4.62 1.58 1.12.88 1.92 2.1 2.42 3.48-3.38.28-6.52.9-9.14 2.24-2.78 1.44-5.06 3.68-7.02 6.46V290.8zm41.96-23.36l5.56-6.26 36.64 28.6c-8.88.6-17.54 2-26.06 3.88l-16.14-26.22zm-84.18-66.62c-.38-.3-.7-.6-1-.92-1.34-1.44-1.68-2.9-1.48-4.24.18-1.4.92-2.66 1.72-3.66.26-.34.52-.58.78-.84l1.88 1.46c-.46.62-.94 1.5-1.12 2.48-.18 1.12 0 2.34.98 3.38.12.16.28.3.46.44l15.1 11.9c.04.08-.04.16.02.22.3.24.76.2 1.02-.1l.1-.14 2.64-3.18 2.56 1.98-2.72 3.3c-.26.3-.22.76.08 1.02.06.04.14-.04.2-.02l15.66 12.34a5.88 5.88 0 004.2 1.26c1.36-.1 2.58-.74 3.5-1.56l44.02 34.36-5.4 6.08-83.2-65.56zm19.96 5.9l-2.18 2.64-14.66-11.56c-.12-.1-.22-.2-.32-.3-.6-.64-.7-1.44-.58-2.16.12-.72.48-1.34.84-1.82l16.9 13.2zm23.48 18.32c-.7.54-1.52.94-2.48 1.04-1.06.08-2.18-.18-3.18-.98l-15.18-11.96 2.2-2.64 18.64 14.54zm-132.58-105.3l30.32-21.5c6.02-4.46 6.8-8.46 8-14.74.94-4.9 2.02-9.76 3.06-14.64L717.3 266.42v8.06c0 .4.32.72.74.72h8.22v6.96h-32.62c-4.98 0-4.98 4.44-4.94 7.26h-32.82c-4.9-.1-9.7.06-14.5.3l-217.8-169.98zm-1.78-.48c-9.48 6.78-13.06 3.68-20.88-3.04-1.5-1.3-3.16-2.74-5.04-4.24-2.56-2.02-3.94-3.98-4.14-6.02-.2-2.02.76-4.2 2.82-6.66l35.42-44.84h.02l3.16-4.02c1.14-1.42 2.12-2.1 3.1-2.18 1-.08 2.06.44 3.3 1.44l7.8 6.26c.24.2.6.24.86.06l7.38-4.92a6.937 6.937 0 013.84-1.02c1.12.04 2.22.34 3.2.9.96.54 1.78 1.3 2.38 2.26.62 1.02.98 2.28.96 3.7-1.84 8.74-3.8 17.5-5.5 26.28-1.14 5.96-1.88 9.74-7.44 13.86l-31.24 22.18zm-31.22-12c-.52-.22-1.02-.44-1.56-.68-6-2.7-11.58-5.12-16.96-4.62l-62.44-49.58c-.22-.18-.48-.02-.72.08 10.86-12.44 21.72-25.36 32.98-39.52l20.9-10.96 65.64 52.14-34.96 44.26c-2.32 2.76-3.4 5.28-3.16 7.74.04.38.18.76.28 1.14zm-25.86-2.5l-114.14 55.42-11.3 1.42c3.58-4.02 7.24-7 11.18-10.06l49.64-25.68a.727.727 0 00.12-1.2l-27.48-21.82c-.3-.22-.7-.22-.96.06l-22.2 22.6c-.98-.28-1.98-.5-3-.56-1.7-.1-3.44.12-5.12.7 24.34-25.72 45.8-48.38 67.18-72.88-.06.26-.14.56.08.74l61.38 48.74c-1.8.44-3.6 1.22-5.38 2.52zm-42.38 39.94l-12.38-11.74 51.2-24.86-38.82 36.6zm-36.44 22.78c-.42-1.74-1.12-3.4-2.18-4.82-1.48-2-3.58-3.5-6.06-4.38l31-24.56 8.42 7.98-31.18 25.78zm-30.86-7.86l48.06-23.34-27.16 21.52c-1.44-.28-2.94-.42-4.58-.2l-16.32 2.02zm29.36 13.88c-1.14 3.88-4.62 7.46-11.1 9.14l-52.96 13.92c.28-.26.6-.46.86-.72 3.16-3.14 5.22-7.4 5.5-11.86.02-.22.02-.48.02-.76l.04-2.08c.12-.06.28-.08.32-.2 3.72-7.92 7.26-13.38 10.86-17.72l33.6-4.2c4.82-.62 8.72 1.38 11.02 4.5 1.06 1.4 1.76 3.04 2.1 4.74.32 1.72.24 3.5-.26 5.24zm-75.18 26l-.64-.04c-4.8-.28-9.32-1.86-12.68-4.62-3.02-2.46-5.06-5.88-5.5-10.16l-6.32-63.74 7.06 12.48c.76 1.56 2.22 2.86 3.82 3.5.92.38 1.92.56 2.86.44.96-.14 1.88-.56 2.64-1.36.9-1 1.54-2.58 1.68-4.84.12-4.36.28-8.7.4-13.06l20-.26 3.7-.04-.96 65.4-.02.7c-.26 4.08-2.16 8.02-5.08 10.92-2.88 2.88-6.76 4.74-10.96 4.68zm-23.48-11.16c-.02.36-.06.72-.1 1.08-.56 5.38-2.8 9.68-6.26 12.56-3.46 2.88-8.14 4.34-13.54 4-.38-.02-.76-.06-1.12-.08L1.48 188.92l.16-2.88 162.26 9.84c4.12.24 8-1.22 10.88-3.78 2.88-2.56 4.8-6.22 5.06-10.36l3.36-55.1 3.9 39.28-1.36 22.42zm15.36-70.22l-.4 12.94c-.12 1.92-.62 3.2-1.32 3.96-.48.54-1.1.82-1.74.92-.68.08-1.44-.06-2.14-.36-1.28-.52-2.44-1.56-3.06-2.8l-8.2-14.46 16.86-.2zm-16.06-17.78l5.18.32c-.1 4.06 1.18 6.5 3.28 8 2.02 1.44 4.76 1.92 7.82 2.16l-.18 5.86-17.34.22 1.24-16.56zm17.06-14.96l-.72 23.98c-2.8-.2-5.3-.64-7.04-1.88-1.84-1.28-2.88-3.54-2.64-7.46l.78-12.84 9.62-1.8zm-15.96.28c.3-5.08 2.68-7.94 5.88-9.52 3.06-1.54 6.9-1.9 10.42-1.92l-.26 8.96-.04.74-10.48 1.94c-.32.06-.58.34-.6.68l-.76 12.68-5.16-.32 1-13.24zm.9-11.88l15.72-10.5-.28 9.5c-3.72.02-7.78.4-11.1 2.06-1.94.96-3.56 2.34-4.74 4.26l.4-5.32zm1.04-17.64c.22-3.58 1.88-6.78 4.4-9 2.52-2.22 5.88-3.5 9.48-3.3h.02c1.26.08 2.42.14 3.48.2 5.22.26 7.74.4 8.7 1.8.96 1.4.74 4.32.32 10-.1 1.52-.24 3.26-.36 5.26l-10.64.1c-.16 0-.28.04-.4.12l-15.94 10.64.94-15.82zm28.86 20.78c2.1 3.08 5.16 4.7 8.76 5.96l.54 33.48-23.66.3c.42-14.08.88-28.18 1.3-42.24v-.04l.02-.88.32-10.86 9.82-.1c-.32 6.88.78 11.32 2.9 14.38zm34.12 49.1l21.28-21.64 26.1 20.72-42.86 22.16c.8-.84 1.52-1.76 2.06-2.8.88-1.62 1.42-3.48 1.54-5.44.24-4.02-1.2-7.44-3.56-9.9-1.18-1.24-2.6-2.24-4.12-2.94-.14-.06-.28-.1-.44-.16zm-23.66 14.44l10.3-10.82c2.58-2.46 5.76-3.46 8.8-3.26 1.52.08 3 .48 4.38 1.1 1.38.64 2.64 1.52 3.7 2.62 2.1 2.2 3.38 5.24 3.16 8.84-.12 1.76-.58 3.4-1.36 4.84-.8 1.5-1.92 2.82-3.26 3.84-.02 0 0 .02 0 .02h-.02l-2.1 1.64c-5 3.86-9.52 7.44-13.98 12.78l-.12.12c-3.22 3.88-6.42 8.66-9.72 15.26l.22-36.98zm491.36 126.32h23.86v6.98h-23.86v-6.98zm2.74-9.44c0-2.2.9-4.2 2.34-5.66a8.05 8.05 0 015.66-2.34h2.36c2.2 0 4.2.9 5.64 2.34a7.984 7.984 0 012.36 5.66v8H721.5v-8zm6.2 17.86h5.96v6.96h-5.96v-6.96zm50.88 8.4c.98 0 1.84.4 2.48 1.04.62.62 1.02 1.5 1.02 2.46v6.32c0 2.7-1.1 5.14-2.88 6.92-1.78 1.78-4.22 2.9-6.94 2.9h-14.02c-3.28-4.54-7.62-7.8-13.34-9.86-9.2-3.3-21.56-3.98-37.18-3.98l-17.58.02c-.04-2.26-.04-5.82 3.5-5.82h84.94zm62.36 78.6c-7.1-1.8-12.36-2.26-16.66 5.18-4.86 8.82-10.5 17.48-15.46 26.28-1.76 3.06-2.58 5.8-2.26 8.26.3 2.48 1.72 4.64 4.4 6.5l43.08 33.86h-9.54c-.26 0-.5.14-.62.34l-2.4 3.22-23.16-18.08c-.04-.04-.04-.1-.08-.12l-4.44-3.4-36.56-28.52c-.68-7.68-1.44-14.74-2.06-19.76-1.46-11.94-2.98-23.28-4.9-33.82-1.9-10.52-4.18-20.16-7.16-28.7-.92-3.44-2.28-6.22-3.88-8.76h7.44l74.26 57.52zm3.06 2.3c3.54 1.04 9.06 2.26 15.04 3.56 10.74 2.36 22.98 5.06 27.28 7.52l14.28 8.4c-3.1 0-5.98 1.52-9.78 3.52-1.28.68-2.68 1.44-4.22 2.16l-.02.02c-.86.4-1.46.88-1.86 1.4-.36.48-.52 1-.56 1.52-.04.52.06 1.04.32 1.54.38.8 1.08 1.6 2.02 2.3l3.4 2.48-23.2 34.86-2.7-1.9c-.32-.22-.76-.16-.98.14l-7.38 9.7-43.82-34.46c-2.34-1.62-3.58-3.44-3.84-5.54-.24-2.12.48-4.56 2.08-7.34 4.92-8.6 10.2-17.96 15.46-26.28 4.28-7.42 9.88-5.92 17.8-3.8l.68.2zm60.02 59.42c-6.6-4.7-8.88-6.32-16.38-.2l-4.02 3.24L898.26 405 918 419.36l-11.64 6.2c-.84-.58-1.64-1.14-2.34-1.64zm-25.96 13.56c-.24-.18-.46-.38-.66-.6l-.2-.26 2.5-3.74 1.26-1.9 7.58-6.14c6.66-5.42 8.7-3.98 14.64.26l1.74 1.22-17.42 9.3-6.98 3.72-2.46-1.86zm-2.92 2.24l1.22-1.84c.24.26.52.52.84.76l1.94 1.44-1.98 1.04-2.02-1.4zm-7.26-5.12l23.18-34.82 6.02 4.36-17.28 25.96-.2.32-5.64 8.46-6.08-4.28zm-60.48 31.18c4.04-4.22 8.04-7.92 11.54-10.9a.7.7 0 00.3-.58v-1.08l10.64 8.22-6.04 8.1-18.12 9.66-7.58-2.7c2.98-3.82 6.12-7.42 9.26-10.72zm3.86-21.86l6.54 5.04v5.02a155.8 155.8 0 00-11.44 10.82c-3.4 3.54-6.82 7.44-10 11.6-9.18 10.86-16.7 23.22-23.06 36.22-2.78 5.68-5.24 11.52-7.6 17.38l-7.02-2.82c13.34-29.2 30.48-57.82 52.58-83.26zm-8.74-24.46l-3.3 4.32-21.02-16.06c-.24-3.38-.5-6.76-.78-10.02l26.72 20.82c-.62.18-1.22.4-1.62.94zM817.66 431l-.9 1.16-13.98-10.66.88-1.16c.28-.36.66-.56 1.06-.62.4-.06.82.06 1.18.32l7.3 5.56 4.22 3.3c.28.26.5.58.54.92.06.4-.04.84-.3 1.18zm-2.32 5.42l2.14-2.8 1.32-1.74c.36-.46.36-1.04.42-1.58l21.4 16.7-4.22 5.68-21.06-16.26zm-6.44.74l1.3.98c.68.52 1.48.7 2.24.6.78-.1 1.5-.5 2-1.14l.04-.04 21.06 16.26-4.8 6.46-11.5-8.88v-2.8c0-.2-.1-.42-.28-.56l-7.36-5.68c-.02-.02-.04.02-.06 0-.12-.08-.24-.16-.38-.16-1.56 0-3.4-.6-5.28-1.44l3.02-3.6zm-8.68-6.62l7.54 5.76-3.18 3.78c-.7-.4-1.42-.64-2.08-1.12-2-1.42-3.6-3.32-4.8-5.4l2.52-3.02zm-1.2-3.32c-.06-.42.04-.84.3-1.18l2.58-3.4 14 10.68-2.62 3.42c-.26.32-.62.52-1.02.58-.4.04-.82-.04-1.16-.3l-11.48-8.76c-.36-.26-.56-.64-.6-1.04zm-6.28 5.5c-2.18 2-6.22 4.78-14.3 2.76.34-4.2.44-8.72.34-13.48l13.96 10.72zm-13.98-12.56c-.04-1.08 0-2.08-.06-3.18-.1-2.42-.26-4.88-.4-7.36l20.04 15.3-.16.24c-.52.66-.7 1.48-.6 2.24.1.76.5 1.5 1.16 2.02l.34.24-2.16 2.6c-.06-.12-.18-.22-.22-.36-.4-1.04-.92-1.3-1.68-1.04l-.06.02c-.34.14-.72.52-1.12.88l-15.08-11.6zM753.3 535.84c-12.74 29.76-21.66 59.76-27.86 87.5l-56.64-24.5a.657.657 0 00-.34-.08H617.3v-21.74h52.18c7.7 0 13.42-2.3 18.18-5.8 4.72-3.48 8.42-8.1 12.12-12.8l.02-.04c4.14-5.84 8.8-11.54 13.44-17.22 4.52-5.54 9.04-11.08 13.16-16.84l26.9 11.52zm3.7-8.48c-.38.84-.8 1.68-1.18 2.52-.68 1.54-1.3 3.1-1.96 4.64l-26.6-11.4c8.02-11.3 15.64-22.12 23.08-33.02 7.58-11.14 15-22.44 22.56-34.62 2.84-3.9 4.46-9.5 5.3-16.16.08-.74.08-1.62.16-2.38 9.58 2.3 13.92-1.74 16.08-3.84.48-.46.84-.8 1.04-.86l.02-.02c.02 0-.18.12-.14.2.18.52.58.92.84 1.42.04.1-.08.24.02.32.06.06.12-.04.18 0 1.3 2.34 3.1 4.44 5.26 5.98.8.56 1.66.96 2.52 1.4.02.04-.02.08 0 .12.06.04.12-.04.18-.02 1.82.92 3.64 1.66 5.3 1.9-22.12 25.6-39.26 54.36-52.58 83.68-.02.02-.06.04-.08.06-.02.04 0 .04 0 .08zm82.38-66.1l-1.82.98-3.14 1.66 12.14-16.3c.22-.28.54-.46.86-.52.3-.04.64.02.92.22.04.04.08.06.14.08.06.06.14.16.2.32l.02.02c.1.18.18.4.18.64 0 .22-.08.46-.24.68l-9.26 12.22zm10.4-11.36c.4-.5.56-1.04.56-1.54 0-.48-.16-.94-.34-1.3l-.02-.04c-.2-.38-.46-.68-.66-.82-.08-.06-.16-.1-.24-.14-.58-.38-1.26-.5-1.9-.4-.68.1-1.32.48-1.76 1.08l-13.98 18.76-4.6 2.44 18.02-24.22h10.7c.22 0 .44-.08.58-.28l.2-.26 7.4-9.72 2.76 1.94 9.24 6.5-33.32 17.76 7.36-9.76zm56.06-62.84l2.18 1.28 34 20.48c-1.14.16-2.3.24-3.4.54-3.5.92-6.88 2.5-10.74 4.72l-8.48 4.54-32.04-23.32c-.76-.58-1.32-1.18-1.58-1.76-.14-.3-.2-.58-.18-.84.02-.26.1-.5.28-.74.26-.34.68-.68 1.3-.96l.04-.02a257.5 257.5 0 004.28-2.2c5.56-2.94 9.04-4.74 14.34-1.72zm-516.5 38.66v-7.3h6.08v7.82c0 1.36-.76 2.22-1.76 2.6-.38.16-.84.24-1.28.24-.44 0-.88-.08-1.28-.24-1-.38-1.76-1.24-1.76-2.6v-.52zm0-40.3c0-1.44.78-2.38 1.76-2.78.4-.14.84-.24 1.28-.24.44 0 .88.1 1.28.24 1 .4 1.76 1.34 1.76 2.78v31.54h-6.08v-31.54zm7.54 32.28v-32.2l4.1-15.3c.32-1.22.76-2.04 1.24-2.62.44-.52.96-.82 1.46-.98 1-.32 1.52-.32 1.8-.04.36.36.58 1.14.88 2.22 1.6 5.78 2.54 19.46 2.66 33.28.12 13.3-.5 26.7-2.02 33.36l-.08.28c-.14.64-.28 1.28-.46 1.8-.4 1.26-1.06 2.04-2.78 1.5-.52-.18-1.02-.48-1.46-1-.5-.56-.92-1.4-1.24-2.6l-4.1-15.32v-2.38zm597.22 22.28l-.2-1.78c-.26-2.42-.6-5.1-1.06-7.76-.44-2.68-1-5.34-1.72-7.78-1.3-4.46-2.36-6.96-4.16-8.5-1.82-1.58-4.26-2.06-8.38-2.48l-28.48-2.98c-2.08-.24-3.96-.28-5.8-.2l-35.48-21.36-.16-.1-1.94-1.16c-.12-.08-.22-.1-.32-.16l-19.36-11.38c-4.54-2.6-16.86-5.3-27.7-7.68-5.92-1.3-11.36-2.5-14.84-3.52l-75.46-58.46h3.22c3.1 0 5.9-1.28 7.94-3.3l.02-.02c2.04-2.04 3.3-4.84 3.3-7.94v-6.32c0-1.36-.56-2.6-1.44-3.48-.9-.9-2.14-1.46-3.5-1.46h-43.5v-6.96h8.26c.4 0 .72-.32.72-.72v-8.42c0-.4-.32-.72-.72-.72h-2.04v-8c0-2.6-1.06-4.96-2.78-6.68-1.72-1.72-4.08-2.78-6.66-2.78h-2.36c-2.6 0-4.96 1.08-6.66 2.78l-.02.02a9.403 9.403 0 00-2.76 6.66v8h-1.8L465.28 67.28c.72-3.36 1.42-6.74 2.12-10.12.02-.04.02-.1.02-.14.04-1.74-.4-3.26-1.18-4.54-.74-1.16-1.74-2.12-2.9-2.76a8.282 8.282 0 00-3.86-1.08 8.37 8.37 0 00-4.66 1.26l-6.96 4.62-7.4-5.94c-1.54-1.22-2.9-1.86-4.3-1.76-1.4.12-2.74.96-4.14 2.74l-2.7 3.44L363.3.56c-.24-.2-.56-.2-.82-.04l-21.4 11.2a.8.8 0 00-.24.2l-32.22 40.56-75.58 79.98-5.66 5.94.32-21.32h-.02c0-.02.02-.02.02-.02l-.58-34.72c0-.3-.2-.58-.48-.66-3.54-1.18-6.54-2.68-8.52-5.58-2-2.9-3.02-7.28-2.6-14.24.14-2.2.28-4.18.4-5.92.46-6 .68-9.1-.56-10.9-1.36-2-4.12-2.14-9.82-2.44-1.02-.06-2.16-.12-3.46-.2h-.04c-3.98-.22-7.72 1.2-10.52 3.66-2.78 2.48-4.64 6-4.9 10l-1 17.26-1.96 26.2-.02.02.02.02-1.36 18v.02l-3.9 64.08c-.22 3.74-1.96 7.06-4.58 9.36-2.62 2.32-6.1 3.64-9.86 3.42l-162.94-9.9c-.4-.02-.74.3-.76.68l-.26 4.3c-.02.4.28.72.66.76l163.92 17.04c.4.04.78.08 1.16.1 5.8.36 10.82-1.22 14.56-4.34 3.74-3.1 6.18-7.76 6.78-13.52.04-.38.06-.76.08-1.14l.84-13.48.98 9.88c.46 4.7 2.72 8.44 6.02 11.14 3.58 2.94 8.4 4.64 13.5 4.94.22.02.44.02.7.02 2.8.04 5.42-.76 7.8-2.04.04 0 .06.02.08.02l56.6-14.88c7.04-1.82 10.82-5.78 12.1-10.12.48-1.58.52-3.2.36-4.76l32-26.44 3.7 3.52c.28.26.72.26 1 0l42.7-40.26c7.02-5.18 14.5-1.84 22.9 1.92.94.44 1.92.86 2.98 1.32.78 1.32 1.94 2.62 3.56 3.9 1.88 1.52 3.52 2.92 5 4.22 8.32 7.16 12.18 10.44 22.38 3.3l89.26 69.66c-.26.26-.52.5-.78.82-.94 1.16-1.8 2.68-2.04 4.36-.24 1.72.18 3.6 1.86 5.42.34.36.72.72 1.16 1.08l83.64 65.88 15.82 25.74h-37.24c-.52 0-.94.12-1.44.14-.58-1.78-1.6-3.36-3.04-4.48a8.918 8.918 0 00-5.5-1.88h-7.12c-.94 0-1.8.38-2.42 1-.64.62-1.02 1.5-1.02 2.44v13.72l-14.68 27.76c-1.92 1.7-3.82 3.44-5.68 5.28-11.66 11.32-22.3 24.76-32.32 40.56-10 15.8-19.34 33.98-28.44 54.84-3.1 6.84-5.38 14.22-5.98 22.48-.58 8.16.48 17.22 4.02 27.44l-8.92 17.72-66.7 20.2c-1.8-.68-3.6-1.36-5.46-1.94v-23.78c.94.16 1.84.24 2.8.42 4.8.86 9.16 2.04 12.08 2.82 2.3.62 3.78 1.02 4.24.74.56-.32 1.58-1.02 2.24-1.66.6-.6.96-1.22.7-1.8-.6-1.52-1.76-3.3-3.26-5-.04-.18-.16-.3-.32-.38-.22-.26-.36-.52-.62-.76-1.64-1.58-3.74-3-6.24-3.88-3.56-1.26-7.48-2.42-11.62-3.52v-52.8c.38.34.76.74 1.24.92.58.22 1.18.34 1.8.34.6 0 1.24-.12 1.8-.34 1.52-.58 2.7-1.9 2.7-3.94v-.58l2.7 10.1c.38 1.42.92 2.44 1.52 3.16.66.76 1.4 1.2 2.14 1.44 2.86.94 3.92-.36 4.6-2.42.18-.6.34-1.26.48-1.92l.08-.28c1.56-6.76 2.2-20.3 2.06-33.7-.12-13.92-1.08-27.72-2.7-33.64-.36-1.3-.66-2.26-1.28-2.88-.7-.68-1.66-.82-3.24-.3-.74.24-1.48.68-2.12 1.44-.62.7-1.16 1.74-1.54 3.16l-3.48 13c-.48-.7-1.14-1.2-1.92-1.52-.56-.22-1.18-.34-1.8-.34-.62 0-1.24.12-1.8.34-1.52.62-2.7 1.98-2.7 4.12v31.54h-7.66l-3.84-6.62c.16-.14.34-.26.48-.4 2.36-2.34 3.82-5.6 3.82-9.16v-6.88c0-3.54-1.44-6.76-3.78-9.12l-.04-.04c-2.34-2.36-5.6-3.82-9.16-3.82h-12.26c-.4 0-.72.32-.72.72v31.4c0 .4.32.72.72.72h12.26c.46 0 .92-.1 1.38-.14l2.46 4.26v8.36c0 2.04 1.18 3.36 2.7 3.94.56.22 1.18.34 1.8.34.6 0 1.22-.12 1.8-.34.48-.18.84-.58 1.24-.92v50.4c-1.5-.3-3-.64-4.56-.92-10.24-1.98-21.24-3.48-31.96-4.38-.1 0-.2 0-.28.02-9.3 2.36-18.42 5.56-27.32 9.84-8.92 4.3-17.62 9.64-26.02 16.26-6.76 5.3-13.36 11.44-19.76 18.52-6.4 7.08-12.6 15.06-18.58 24.08-1.32 2.02-2.14 4.18-2.5 6.32-.38 2.3-.22 4.6.4 6.7.74 2.58 1.3 3.46 2.24 3.18.56-.16.96-.78 1.52-1.7.22-.34.48-.76.78-1.22 5.98-8.82 12.4-17.04 19.34-24.46 3.1 3.22 6.14 6.22 9.12 8.72 2.9 2.46 5.74 4.4 8.46 5.82-3.14 3.44-6.1 7.04-8.7 10.92h-.02l-1.72 2.88c-1.06 1.68-2.14 3.34-3.08 5.1l-.26.4a.99.99 0 00-.08.26v.04a95.91 95.91 0 00-9.42 26.7c0 .02-.04.02-.06.06l-.76 5.32c-.16 1.16-.38 2.3-.5 3.48l-.12.88c-.02.08 0 .16 0 .24.02.04.04.06.06.1-.24 2.74-.42 5.52-.42 8.32 0 7.82 1.06 15.42 2.84 22.74-.02.08-.1.12-.08.22l1 3.34c.34 1.2.68 2.4 1.04 3.58l.74 2.44c.02.08.06.18.12.26.04.04.1-.02.14.02a96.94 96.94 0 0013.76 25.4c.02.1-.04.2.02.3l1.84 2.2c.56.68 1.14 1.34 1.72 2.02l2.72 3.28c.06.06.14.12.22.16.04.04.1-.04.14-.04.72.78 1.38 1.62 2.14 2.36 6.64 6.66 14.28 12.32 22.68 16.82 0 0 0 .02.02.02l1.9.9c2.12 1.08 4.26 2.14 6.48 3.06l.42.2c.1.06.2.08.3.1 0 0 0-.02.02-.02 9.6 3.88 20.02 6.24 30.94 6.82.08.04.12.16.2.16h2.9c.74.02 1.48.12 2.22.12.64 0 1.24-.08 1.88-.1l2.8.02c.08 0 .16-.02.24-.06.08 0 .1-.08.14-.12 10.76-.56 21.04-2.84 30.56-6.62.04-.02.08.04.12.02l.74-.34c1.66-.68 3.26-1.46 4.88-2.22l3.26-1.5c.08-.02.18-.08.24-.14.02-.02 0-.04 0-.04 8.64-4.56 16.5-10.32 23.34-17.16.02-.02.06-.06.1-.08 0-.02.02 0 .02-.02l5.26-5.82c.28-.32.6-.62.86-.94l.42-.46c.06-.06.14-.14.16-.26.02-.02 0-.04 0-.06 6.26-7.74 11.28-16.5 14.92-25.94.04-.04.12-.04.14-.1l.86-2.6c.56-1.64 1.14-3.28 1.62-4.94l.58-1.76c.02-.08.04-.16.04-.26 0-.04-.06-.08-.08-.12 2.12-7.94 3.36-16.24 3.36-24.84 0-.26-.04-.5-.04-.78h21.08c3.26 0 5.34.46 6.58 1.64 1.24 1.14 1.7 3.06 1.7 5.98v14.4c0 2.96.4 5.48 1.86 7.34 1.48 1.86 3.98 2.94 8.16 2.94h260.76c.34 0 .66-.24.72-.58 1.94-11.18 4.12-21.62 6.36-31.72h7.88c0 .28-.04.52-.04.78 0 7.86 1.04 15.46 2.82 22.78 0 .06-.1.1-.06.18l.76 2.64c.48 1.64.94 3.28 1.48 4.9l.54 1.82c.02.08.06.18.12.26.02.04.08-.02.1.02 3.32 9.22 8 17.78 13.8 25.46.04.08-.02.16.02.24l1.36 1.6c.9 1.14 1.82 2.22 2.76 3.3l2.16 2.6c.06.06.12.12.22.16.04.04.06-.04.12-.02.68.74 1.32 1.54 2.04 2.26 6.7 6.7 14.38 12.38 22.78 16.88.02.02.02.04.02.04l2.9 1.36c1.78.88 3.56 1.78 5.4 2.56l.52.24c.1.06.18.08.28.1.02 0 .04-.02.06-.02 9.64 3.9 20.04 6.24 30.92 6.82.08.04.12.16.2.16h2.9c.74.02 1.48.12 2.22.12.64 0 1.24-.08 1.86-.1l2.82.02c.08 0 .16-.02.24-.06.08 0 .1-.08.14-.12 10.74-.56 21.04-2.84 30.56-6.62.04-.02.08.04.12.02l.74-.34c1.66-.68 3.24-1.44 4.86-2.22l3.28-1.5a.75.75 0 00.24-.14c.02-.02 0-.04 0-.04 8.62-4.56 16.52-10.32 23.34-17.16l.08-.08c.02-.02.04 0 .04-.02l5.34-5.9c.26-.28.52-.56.78-.86l.42-.46c.06-.06.12-.14.16-.26v-.06c6.26-7.74 11.28-16.5 14.94-25.94.02-.04.1-.04.12-.1l.86-2.62c.56-1.62 1.12-3.26 1.62-4.92l.58-1.76c.02-.08.02-.16.02-.26 0-.04-.04-.08-.06-.12 2.12-7.94 3.36-16.24 3.36-24.84 0-1.6-.16-3.18-.24-4.78.02-.08.12-.14.1-.22l-.26-2.68c-.08-1.1-.14-2.18-.28-3.26h15.18c3.62 0 7.34-1.4 10-4.38 2.22-2.48 3.7-6.08 3.72-10.84 1.92-11.28 3.5-22.8 4.56-34.48 1.06-11.68 1.6-23.54 1.52-35.5-.22-24.66-3.06-49.78-5.9-75.02z" fill="#F7B726"/></svg>