<svg width="160" height="79" fill="none" xmlns="http://www.w3.org/2000/svg"><path d="M123.47 24.798h7.618v20.555h-7.618V24.798zm30.273 35.71a.345.345 0 01-.15.193.272.272 0 01-.311-.029.274.274 0 01-.04-.404.278.278 0 01.092-.083c.086-.052.202-.055.308.031.107.084.13.197.101.292zm-.933.65c-.058.15-.141.294-.242.426 0 .006-.006.006-.006.012a1.665 1.665 0 01-.864.583 2.006 2.006 0 01-.591.084c-.221 0-.417-.03-.596-.084l-.032-.009a1.707 1.707 0 01-1.08-1.013 2.07 2.07 0 01-.144-.773c0-.266.046-.531.144-.774.248-.62.818-1.108 1.708-1.108.654 0 1.135.268 1.443.661.006.014.021.023.029.038.095.127.176.265.231.41.098.242.147.507.147.773 0 .265-.049.53-.147.773zm-.012.43a.35.35 0 01.113-.058.299.299 0 01.123-.012.263.263 0 01.234.202c.04.136-.006.24-.087.3a.297.297 0 01-.112.058.275.275 0 01-.36-.19.35.35 0 010-.168c.02-.023.032-.052.049-.075.014-.02.02-.046.04-.058zm-.924.793a.51.51 0 01.106.063c.075.07.112.177.066.306-.049.13-.147.185-.25.188a.293.293 0 01-.121-.02.325.325 0 01-.107-.064c-.078-.069-.115-.176-.066-.306a.255.255 0 01.207-.173c.021-.008.044-.005.064-.011.034.003.069.006.101.017zm-1.331.07l.003.002a.41.41 0 01.043.11c.023.1-.012.21-.124.286-.118.075-.23.063-.314.005a.494.494 0 01-.086-.09.293.293 0 01-.046-.115.26.26 0 01.123-.285.249.249 0 01.214-.038c.037.015.069.032.109.04a.33.33 0 01.078.084zm-1.112-.584a.273.273 0 01-.268.162c-.138-.006-.225-.08-.259-.179a.376.376 0 01.008-.245c.041-.093.133-.162.268-.16a.27.27 0 01.26.177.36.36 0 01-.009.245zm-.447-1.223a.269.269 0 01-.397.078c-.115-.078-.147-.188-.124-.286a.35.35 0 01.049-.116.385.385 0 01.089-.09.269.269 0 01.311.012.268.268 0 01.121.289.3.3 0 01-.049.113zm-.115-1.478a.274.274 0 01.179-.364.308.308 0 01.124-.02c.101.003.198.064.245.19.046.133.005.24-.07.306a.383.383 0 01-.106.061.31.31 0 01-.124.02c-.101-.003-.202-.06-.248-.193zm1.412-.693a.299.299 0 01-.124-.008.363.363 0 01-.113-.052c-.08-.061-.129-.165-.095-.3.038-.13.13-.197.231-.208a.316.316 0 01.236.063c.081.06.13.165.095.297a.258.258 0 01-.086.142c-.032.011-.052.032-.081.04-.023.009-.04.023-.063.026zm1.371-.098a.305.305 0 01-.09-.084.347.347 0 01-.054-.112.26.26 0 01.112-.289.262.262 0 01.308-.023.406.406 0 01.092.087.276.276 0 01-.057.404.27.27 0 01-.161.057c-.026-.008-.055-.011-.078-.02-.026-.006-.049-.006-.072-.02zm1.08.47a.27.27 0 01.262-.167c.138 0 .225.075.265.168v.005a.32.32 0 01.02.119.272.272 0 01-.285.291.266.266 0 01-.236-.133c-.009-.017-.017-.04-.032-.057-.008-.032-.017-.067-.017-.101 0-.044.009-.084.023-.124zm.504 1.172a.42.42 0 00-.109.095 2.286 2.286 0 00-.136-.574c-.014-.034-.04-.066-.055-.1.023.002.035.02.058.02.23 0 .377-.13.444-.295a.543.543 0 00.003-.384l-.003-.006a.453.453 0 00-.444-.288.453.453 0 00-.444.291c-.011.032-.011.067-.017.098a1.83 1.83 0 00-.495-.343c.011-.009.026-.006.04-.017a.455.455 0 00.184-.497.6.6 0 00-.083-.179.646.646 0 00-.147-.135.447.447 0 00-.527.028.45.45 0 00-.184.497c.011.043.034.08.057.118-.092-.008-.173-.037-.271-.037-.164 0-.299.034-.44.06.008-.02.026-.029.031-.054a.454.454 0 00-.164-.506.535.535 0 00-.178-.083.455.455 0 00-.196-.018.462.462 0 00-.398.355.465.465 0 00.164.505c.029.018.058.026.087.04a1.853 1.853 0 00-.409.339c-.003-.015.003-.024 0-.038a.452.452 0 00-.424-.32.51.51 0 00-.196.029.56.56 0 00-.172.098.459.459 0 00-.124.516c.075.22.245.315.42.324.038 0 .075-.012.11-.02v.002a2.338 2.338 0 00-.138.615c-.024-.023-.026-.052-.058-.072a.453.453 0 00-.53-.009.562.562 0 00-.219.32.461.461 0 00.202.494c.19.127.383.107.53.009.037-.026.063-.06.092-.093.026.145.066.289.121.428.006.014.017.025.023.04-.02-.003-.032-.018-.052-.02a.455.455 0 00-.455.277.571.571 0 00-.043.193.56.56 0 00.031.196.456.456 0 00.435.306.456.456 0 00.453-.277c.011-.032.014-.063.02-.098.126.136.273.248.443.34-.011.01-.023.006-.037.015a.453.453 0 00-.21.485c.011.066.04.127.077.182a.514.514 0 00.139.144.452.452 0 00.53 0 .457.457 0 00.207-.488c-.006-.043-.029-.08-.049-.118.124.02.239.052.377.052.093 0 .167-.026.257-.038-.015.023-.035.035-.046.061a.449.449 0 00.121.517c.049.043.106.08.167.104.063.02.132.031.196.031a.46.46 0 00.426-.314.453.453 0 00-.118-.517c-.026-.026-.061-.037-.09-.058.193-.09.363-.204.505-.346.002.014-.003.026 0 .043.066.22.227.327.403.344.066.006.132 0 .196-.02a.496.496 0 00.178-.09.46.46 0 00.153-.508.45.45 0 00-.4-.343c-.044-.006-.084.005-.124.011.02-.037.046-.069.06-.106.061-.15.101-.31.124-.471.02.023.023.046.046.066a.45.45 0 00.527.044.458.458 0 00.15-.13.448.448 0 00.092-.176.446.446 0 00-.167-.5.446.446 0 00-.527-.046zm-1.633.595a.508.508 0 01-.496.32.507.507 0 01-.498-.32.612.612 0 010-.456.507.507 0 01.498-.32c.26 0 .421.14.496.32a.61.61 0 01.04.228.61.61 0 01-.04.228zm-.496-.973c-.354 0-.581.196-.679.445a.807.807 0 000 .6c.098.251.325.444.679.444.352 0 .576-.193.674-.444a.762.762 0 00.058-.3.751.751 0 00-.058-.3.689.689 0 00-.674-.445zm2.852 3.605a4.015 4.015 0 01-2.855 1.186 4.02 4.02 0 01-2.854-1.186 4.028 4.028 0 01-1.184-2.86c0-1.117.452-2.13 1.184-2.86a4.02 4.02 0 012.854-1.187c1.115 0 2.126.454 2.855 1.187a4.016 4.016 0 011.184 2.86c0 1.117-.449 2.13-1.184 2.86zm-2.855-7.103a4.237 4.237 0 00-4.231 4.243 4.23 4.23 0 001.239 2.998 4.221 4.221 0 005.988 0 4.23 4.23 0 001.239-2.998 4.237 4.237 0 00-4.235-4.243zm.997 4.696c-.144.364-.475.646-.994.646-.521 0-.855-.282-.999-.646a1.259 1.259 0 010-.906c.144-.361.478-.644.999-.644.519 0 .85.283.994.644a1.2 1.2 0 01.087.453 1.2 1.2 0 01-.087.453zm-.994-1.75c-.613 0-1.008.339-1.178.771a1.436 1.436 0 00-.101.526c0 .179.035.358.101.525.17.433.565.768 1.178.768.611 0 1.003-.335 1.176-.768a1.43 1.43 0 00.098-.525c0-.18-.032-.358-.098-.526-.173-.432-.565-.77-1.176-.77zm3.37 4.676a4.736 4.736 0 01-3.37 1.4 4.777 4.777 0 01-4.773-4.78 4.777 4.777 0 014.773-4.779c1.317 0 2.509.534 3.37 1.4a4.76 4.76 0 011.397 3.38 4.76 4.76 0 01-1.397 3.38zm-3.37-8.355a4.947 4.947 0 00-3.514 1.458 4.974 4.974 0 00-1.452 3.518c0 1.374.556 2.617 1.452 3.518.899.9 2.14 1.457 3.514 1.457 1.369 0 2.61-.556 3.509-1.457a4.967 4.967 0 001.454-3.518 4.967 4.967 0 00-1.454-3.518 4.944 4.944 0 00-3.509-1.458zm-20.18 5.1a.345.345 0 01-.15.193.268.268 0 01-.308-.029c-.109-.086-.133-.196-.104-.294a.315.315 0 01.058-.11.32.32 0 01.095-.083c.086-.052.202-.055.308.031.107.084.13.197.101.292zm-.933.65c-.058.15-.141.294-.242.426 0 .006-.003.006-.006.012a1.67 1.67 0 01-.835.574c-.012.003-.018.009-.029.009a1.998 1.998 0 01-.594.084 2.02 2.02 0 01-.625-.093 1.707 1.707 0 01-1.08-1.013 2.07 2.07 0 01-.144-.773c0-.266.046-.531.144-.774.248-.62.818-1.108 1.705-1.108.66 0 1.141.268 1.446.661h.003c.003.014.018.023.026.035.095.127.173.268.231.412.101.243.147.508.147.774 0 .265-.046.53-.147.773zm-.012.43a.298.298 0 01.113-.058.299.299 0 01.123-.012.263.263 0 01.234.202c.04.136-.006.24-.087.3a.258.258 0 01-.112.058.296.296 0 01-.121.014.268.268 0 01-.236-.204.297.297 0 010-.168c.017-.023.029-.052.046-.075.014-.02.023-.046.04-.058zm-.924.793c.04.017.074.038.106.063.075.07.115.177.066.306-.049.13-.147.185-.247.188a.299.299 0 01-.124-.02.325.325 0 01-.107-.064.268.268 0 01-.066-.306.255.255 0 01.207-.173c.021-.008.044-.005.064-.011.031.003.069.006.101.017zm-1.331.07l.003.002a.41.41 0 01.043.11.27.27 0 01-.124.286c-.115.075-.23.063-.314.005a.41.41 0 01-.086-.09.293.293 0 01-.046-.115c-.023-.1.011-.21.123-.285a.249.249 0 01.214-.038c.037.015.069.032.109.04a.33.33 0 01.078.084zm-1.112-.584a.273.273 0 01-.268.162.272.272 0 01-.259-.179.376.376 0 01.008-.245.272.272 0 01.268-.16c.139.004.225.082.257.177a.36.36 0 01.02.124.3.3 0 01-.026.121zm-.447-1.223a.344.344 0 01-.086.089.273.273 0 01-.314-.011c-.112-.078-.144-.188-.121-.286a.35.35 0 01.049-.116.385.385 0 01.089-.09.269.269 0 01.311.012.268.268 0 01.124.289.306.306 0 01-.052.113zm-.112-1.478a.26.26 0 01.069-.303.313.313 0 01.11-.06.294.294 0 01.121-.021.27.27 0 01.247.19c.044.133.003.24-.072.306a.36.36 0 01-.23.081c-.104-.003-.202-.06-.245-.193zm1.409-.693a.299.299 0 01-.124-.008.363.363 0 01-.113-.052c-.08-.061-.129-.165-.092-.3.035-.13.127-.197.228-.208a.33.33 0 01.239.063c.081.06.127.165.092.297a.276.276 0 01-.086.142c-.032.011-.052.032-.084.043-.02.006-.037.02-.06.023zm1.371-.098a.347.347 0 01-.09-.084.394.394 0 01-.054-.112.264.264 0 01.112-.289.262.262 0 01.308-.023.406.406 0 01.092.087.276.276 0 01.052.112c.026.098 0 .208-.109.292a.27.27 0 01-.161.058c-.026-.01-.052-.012-.081-.02-.023-.007-.046-.007-.069-.02zm1.08.47a.27.27 0 01.262-.167c.138 0 .225.075.265.168v.005a.381.381 0 010 .24.272.272 0 01-.265.17.266.266 0 01-.236-.136c-.012-.017-.017-.037-.029-.054a.313.313 0 01-.02-.101c0-.044.009-.084.023-.124zm.504 1.172a.42.42 0 00-.109.095 2.286 2.286 0 00-.136-.574c-.014-.034-.04-.066-.055-.1.024.002.035.02.058.02.231 0 .377-.13.444-.295a.49.49 0 00.037-.193.502.502 0 00-.034-.19l-.003-.007a.452.452 0 00-.444-.288.445.445 0 00-.441.291c-.014.032-.014.067-.02.098a1.785 1.785 0 00-.495-.343c.011-.009.026-.006.04-.017a.455.455 0 00.184-.497.542.542 0 00-.23-.314.452.452 0 00-.53.028c-.181.136-.228.327-.181.497.011.043.034.08.054.118-.089-.008-.17-.037-.271-.037-.161 0-.296.034-.437.06.008-.02.026-.029.034-.054a.46.46 0 00-.167-.506.535.535 0 00-.178-.083.469.469 0 00-.594.337.456.456 0 00.167.505c.023.018.055.026.084.04a1.853 1.853 0 00-.409.339c-.003-.015.003-.024-.003-.038a.446.446 0 00-.421-.32.51.51 0 00-.196.029.573.573 0 00-.172.098.459.459 0 00-.124.516c.075.22.245.315.42.324.038 0 .075-.012.11-.02v.002a2.338 2.338 0 00-.138.615c-.023-.023-.026-.052-.058-.072a.449.449 0 00-.527-.009.538.538 0 00-.144.139.58.58 0 00-.078.181.464.464 0 00.202.494c.19.127.383.107.53.009.037-.026.063-.06.092-.093.026.145.066.289.121.428.006.014.017.025.023.04-.02-.003-.032-.018-.055-.02a.454.454 0 00-.452.277.504.504 0 00-.04.193.499.499 0 00.028.196.456.456 0 00.435.306.456.456 0 00.453-.277c.011-.032.014-.063.02-.098.126.136.273.248.443.34-.011.01-.023.006-.034.015a.45.45 0 00-.213.485c.014.066.04.127.077.182a.505.505 0 00.136.144c.144.101.34.127.533 0a.464.464 0 00.21-.488c-.009-.043-.032-.08-.049-.118.124.02.236.052.371.052.096 0 .17-.026.257-.038-.012.023-.032.035-.043.061a.449.449 0 00.121.517c.049.043.106.08.17.104a.61.61 0 00.193.031.457.457 0 00.426-.314.448.448 0 00-.118-.517c-.026-.026-.061-.037-.092-.055.195-.092.363-.207.507-.349.002.014-.006.026 0 .043.063.22.227.327.403.344.066.006.132 0 .196-.02a.496.496 0 00.178-.09.451.451 0 00.153-.508.45.45 0 00-.4-.343c-.044-.006-.084.005-.121.011.014-.037.043-.069.057-.106.061-.15.101-.31.127-.471.017.023.02.046.043.066a.455.455 0 00.53.044.516.516 0 00.147-.13.491.491 0 00.092-.176.446.446 0 00-.167-.5.446.446 0 00-.527-.046zm-1.633.595a.51.51 0 01-.499.32.508.508 0 01-.495-.32.612.612 0 010-.456.508.508 0 01.495-.32c.263 0 .427.14.499.32a.68.68 0 01.043.228.679.679 0 01-.043.228zm-.499-.973a.692.692 0 00-.676.445.807.807 0 000 .6c.098.251.325.444.676.444.352 0 .579-.193.677-.444a.762.762 0 00.058-.3.751.751 0 00-.058-.3.693.693 0 00-.677-.445zm2.858 3.605a4.027 4.027 0 01-5.712 0 4.028 4.028 0 01-1.184-2.86c0-1.117.452-2.13 1.184-2.86a4.027 4.027 0 015.712 0 4.04 4.04 0 011.184 2.86 4.04 4.04 0 01-1.184 2.86zm-2.858-7.103a4.237 4.237 0 00-4.231 4.243 4.23 4.23 0 001.239 2.998 4.213 4.213 0 002.992 1.244c1.17 0 2.23-.476 2.993-1.244a4.233 4.233 0 001.242-2.998 4.24 4.24 0 00-4.235-4.243zm.997 4.696c-.144.364-.475.646-.997.646-.518 0-.852-.282-.996-.646a1.259 1.259 0 010-.906c.144-.361.478-.644.996-.644.522 0 .853.283.997.644a1.2 1.2 0 01.087.453 1.2 1.2 0 01-.087.453zm-.997-1.75c-.61 0-1.005.339-1.175.771a1.377 1.377 0 00-.101.526c0 .179.032.358.101.525.17.433.565.768 1.175.768.614 0 1.006-.335 1.179-.768a1.43 1.43 0 00.098-.525c0-.18-.032-.358-.098-.526-.173-.432-.565-.77-1.179-.77zm3.373 4.676a4.736 4.736 0 01-3.37 1.4 4.754 4.754 0 01-3.376-1.4 4.764 4.764 0 01-1.397-3.38c0-1.318.533-2.516 1.397-3.379a4.754 4.754 0 013.376-1.4c1.317 0 2.509.534 3.37 1.4a4.76 4.76 0 011.398 3.38 4.76 4.76 0 01-1.398 3.38zm-3.37-8.355a4.967 4.967 0 00-4.968 4.976 4.967 4.967 0 004.968 4.975c1.369 0 2.61-.556 3.509-1.457a4.958 4.958 0 001.457-3.518 4.958 4.958 0 00-1.457-3.518 4.944 4.944 0 00-3.509-1.458zm26.201-5.599h-1.798a.452.452 0 01-.02-.078c-.003-.029-.008-.058-.008-.092 0-.035.005-.064.008-.093a.375.375 0 01.02-.078h1.804c.003.003.003.006.003.01l.002.117c.003.032.003.064.003.101 0 .064-.003.113-.014.113zm.204-.332a.21.21 0 00-.057-.141l-.003-.006a.212.212 0 00-.144-.058h-1.798c-.118 0-.187.104-.21.24a.66.66 0 00-.011.127.66.66 0 00.011.127c.023.135.092.24.21.24h1.798c.178 0 .21-.133.21-.31l-.003-.11c0-.031-.003-.063-.003-.109zm2.431.332h-1.797a.365.365 0 01-.02-.078c-.003-.029-.006-.058-.006-.092 0-.035.003-.064.006-.093a.312.312 0 01.02-.078h1.806c0 .003.003.006.003.01 0 .03 0 .074.003.117 0 .032.003.064.003.101 0 .064-.003.113-.018.113zm.208-.332a.197.197 0 00-.061-.141l-.002-.006a.207.207 0 00-.145-.058h-1.797c-.118 0-.187.104-.21.24a.59.59 0 00-.012.127.59.59 0 00.012.127c.023.135.092.24.21.24h1.797c.179 0 .211-.133.211-.31l-.003-.11v-.109zm2.48-.009v.01c0 .03.003.074.006.117 0 .032.003.064.003.101 0 .064-.003.113-.018.113h-1.8s-.009-.035-.017-.078a.46.46 0 010-.188c.008-.043.017-.078.017-.078h1.8l.009.003zm-2.016.044a.59.59 0 00-.012.127.59.59 0 00.012.127c.023.135.092.24.207.24h1.8c.179 0 .211-.133.211-.31l-.003-.106c-.003-.035-.003-.07-.003-.113a.19.19 0 00-.058-.141l-.003-.003a.204.204 0 00-.144-.06h-1.8c-.115 0-.184.103-.207.239zm-5.37-.791a.548.548 0 010-.185c.009-.046.015-.08.018-.08h1.8l.006.002c.003.003.003.006.003.009 0 .032.003.075.003.118l.002.101c0 .064-.002.113-.014.113h-1.8c-.003 0-.009-.035-.018-.078zm2.028-.035l-.005-.11v-.11a.204.204 0 00-.061-.143v-.003a.214.214 0 00-.144-.058h-1.8c-.115 0-.185.104-.208.237a.717.717 0 00-.014.13c0 .043.006.083.014.127.023.135.093.24.208.24h1.8c.179 0 .21-.137.21-.31zm-2.258-.95a.44.44 0 010-.184.324.324 0 01.017-.08h1.798c.005 0 .005.002.008.002.003.003.003.006.003.009 0 .032.003.075.003.118 0 .032.003.06.003.101 0 .064-.003.113-.017.113h-1.798a.284.284 0 01-.017-.078zm2.028-.034l-.003-.107c-.003-.034-.003-.069-.003-.112a.207.207 0 00-.06-.144v-.003a.22.22 0 00-.147-.058h-1.798c-.115 0-.184.104-.207.236a.638.638 0 000 .257c.023.136.092.24.207.24h1.798c.178 0 .213-.133.213-.309zm-2.261-.95a.847.847 0 010-.184c.011-.046.017-.078.02-.078h1.806c.003.003.003.006.003.009 0 .031.003.075.003.118 0 .032.003.063.003.1 0 .064-.003.114-.018.114h-1.797c-.003 0-.009-.035-.02-.078zm2.03-.034l-.002-.107c-.003-.034-.003-.07-.003-.112a.192.192 0 00-.061-.142v-.006a.216.216 0 00-.147-.057h-1.797c-.115 0-.184.104-.21.236a.95.95 0 00-.012.13.87.87 0 00.012.127c.026.136.095.24.21.24h1.797c.179 0 .213-.133.213-.31zm-2.261-1.134a.443.443 0 01.02-.081h1.798c.003 0 .006.003.009.006 0 0 .002.002.002.005 0 .032.003.075.003.119 0 .031.003.063.003.1 0 .064-.003.113-.017.113h-1.798a.452.452 0 01-.025-.17.86.86 0 01.005-.092zm.02.459h1.798c.178 0 .21-.133.21-.31l-.003-.106v-.113a.202.202 0 00-.06-.144v-.003a.222.222 0 00-.147-.06h-1.798c-.115 0-.184.106-.21.242a.87.87 0 00-.011.127c0 .04.005.087.011.127.026.136.095.24.21.24zm-.25-1.444a.428.428 0 01.02-.08h1.797c.003 0 .006.003.009.006 0 0 .003.002.003.005 0 .032 0 .075.003.119 0 .031.003.063.003.1 0 .067-.003.113-.018.113h-1.797a.367.367 0 01-.02-.078c-.003-.029-.009-.06-.009-.092s.006-.064.009-.093zm.02.46h1.797c.179 0 .211-.133.211-.31v-.106c-.003-.035-.003-.07-.003-.113a.204.204 0 00-.061-.144h-.003a.198.198 0 00-.144-.06h-1.797c-.118 0-.184.103-.21.239a.626.626 0 000 .254c.026.136.092.24.21.24zm-.251-1.444a.335.335 0 01.021-.078h1.797c.003 0 .006 0 .009.003 0 0 .003.003.003.006 0 .032 0 .075.002.118 0 .032.003.064.003.104 0 .064-.003.11-.017.11h-1.797a.335.335 0 01-.021-.078c-.002-.029-.008-.06-.008-.092 0-.035.006-.067.008-.093zm.021.46h1.797c.179 0 .21-.134.21-.307l-.003-.11-.002-.112a.193.193 0 00-.058-.141l-.003-.003a.198.198 0 00-.144-.06h-1.797c-.119 0-.185.103-.211.239a.681.681 0 000 .254c.026.135.092.24.211.24zm-.251-1.26c-.006-.028-.006-.057-.006-.091 0-.032 0-.064.006-.093l.017-.078h1.806c.003.003.006.006.006.009 0 .032 0 .075.003.118v.101c0 .064 0 .113-.014.113h-1.801l-.017-.078zm2.028-.034l-.003-.106c0-.035-.003-.067-.003-.113a.206.206 0 00-.058-.144h-.002a.202.202 0 00-.144-.061h-1.801c-.115 0-.181.104-.207.24a.59.59 0 00-.012.127c0 .04.003.086.012.127.026.135.092.24.207.24h1.801c.178 0 .21-.134.21-.31zm-.435-1.209c.003 0 .003.003.003.006 0 .031.003.075.006.12v.102c0 .06 0 .11-.015.11h-1.797a.263.263 0 01-.018-.078.322.322 0 01-.011-.093.35.35 0 01.011-.092.263.263 0 01.018-.078h1.797c.003 0 .006 0 .006.003zm-2.014.04a.68.68 0 000 .254c.023.136.093.24.211.24h1.797c.179 0 .21-.133.21-.306l-.002-.11c0-.034-.003-.069-.003-.112a.194.194 0 00-.058-.142l-.003-.003a.198.198 0 00-.144-.06h-1.797c-.118 0-.188.104-.211.24zm1.786-1.024v.006c0 .031.003.078.006.12v.102c0 .063 0 .112-.014.112H150.6l-.017-.08a.46.46 0 010-.185l.017-.078h1.801c.003 0 .005 0 .008.003zm-2.016.04a.607.607 0 00-.012.127.59.59 0 00.012.127c.023.136.092.24.207.24h1.801c.178 0 .21-.133.21-.306l-.003-.11c0-.035-.003-.07-.003-.112a.198.198 0 00-.057-.142l-.003-.003a.197.197 0 00-.144-.06H150.6c-.115 0-.184.103-.207.24zm-.04-.95c.008-.043.017-.077.017-.077h1.8l.009.003v.005c0 .032.003.078.006.119v.104c0 .063 0 .112-.015.112h-1.8s-.009-.037-.017-.08c-.006-.027-.006-.058-.006-.093 0-.032 0-.063.006-.092zm.017.46h1.8c.179 0 .211-.133.211-.306l-.003-.11c0-.035-.003-.066-.003-.113a.19.19 0 00-.058-.141l-.003-.003a.198.198 0 00-.144-.06h-1.8c-.115 0-.184.103-.207.239a.635.635 0 000 .257c.023.133.092.236.207.236zm4.695 8.583a.46.46 0 010-.185c.009-.046.014-.08.017-.08h1.801c.003 0 .003.002.005.002.003.003.003.006.003.009 0 .032.003.075.003.118.003.032.003.06.003.101 0 .064-.003.113-.014.113h-1.801c-.003 0-.008-.035-.017-.078zm2.028-.035l-.003-.11c0-.031-.003-.066-.003-.11a.205.205 0 00-.057-.143l-.003-.003a.212.212 0 00-.144-.058h-1.801c-.115 0-.184.104-.207.237a.638.638 0 000 .257c.023.135.092.24.207.24h1.801c.178 0 .21-.137.21-.31zm-2.258-.95a.44.44 0 010-.184c.008-.043.014-.08.017-.08h1.8l.006.002c.003.003.003.006.003.009 0 .032.003.075.006.118v.101c0 .064 0 .113-.015.113h-1.8c-.003 0-.009-.035-.017-.078zm2.027-.034l-.002-.107c0-.034-.003-.069-.003-.112a.2.2 0 00-.058-.144l-.003-.003a.213.213 0 00-.144-.058h-1.8c-.115 0-.184.104-.207.236a.64.64 0 00-.015.13c0 .044.006.084.015.127.023.136.092.24.207.24h1.8c.179 0 .21-.133.21-.309zm-.434-1.212c.002.003.002.006.002.009 0 .031.003.075.003.118.003.032.003.063.003.1 0 .064-.003.114-.014.114h-1.8c-.003 0-.009-.035-.018-.078a.461.461 0 01-.008-.093c0-.034.002-.066.008-.092.009-.046.015-.08.018-.08h1.8l.006.002zm-2.014.043a.59.59 0 000 .254c.023.133.092.24.208.24h1.8c.178 0 .21-.133.21-.31l-.003-.106c0-.034-.003-.07-.003-.112a.2.2 0 00-.057-.145h-.003a.197.197 0 00-.144-.063h-1.8c-.116 0-.185.107-.208.242zm1.777-.687h-1.8s-.009-.034-.017-.078a.46.46 0 010-.184c.008-.047.017-.078.017-.078h1.806c.003.003.003.005.003.008 0 .032.003.075.003.119.003.031.003.06.003.1 0 .064-.003.113-.015.113zm.205-.332a.214.214 0 00-.058-.144h-.003a.204.204 0 00-.144-.06h-1.8c-.115 0-.184.103-.207.236a.639.639 0 00-.015.13c0 .04.006.087.015.127.023.133.092.24.207.24h1.8c.179 0 .211-.133.211-.31l-.003-.106c-.003-.035-.003-.07-.003-.113zm-.435-.652h-1.8l-.018-.078a.548.548 0 010-.184c.009-.044.018-.078.018-.078h1.806c0 .003.003.005.003.008l.002.119c.003.031.003.06.003.1 0 .064-.003.113-.014.113zm.204-.332a.219.219 0 00-.057-.144h-.003a.205.205 0 00-.144-.06h-1.8c-.116 0-.185.103-.211.239-.005.04-.011.084-.011.127 0 .04.006.087.011.127.026.136.095.24.211.24h1.8c.176 0 .21-.133.21-.31l-.003-.106c-.003-.035-.003-.067-.003-.113zm-.437-.652h-1.798c-.003 0-.008-.032-.017-.078a.44.44 0 010-.185c.009-.046.014-.078.017-.078h1.798c.005 0 .008 0 .008.003 0 0 .003.003.003.006 0 .032.003.075.003.118.003.032.003.064.003.101 0 .067-.003.113-.017.113zm.207-.332a.202.202 0 00-.058-.141l-.003-.003a.205.205 0 00-.146-.06h-1.798c-.115 0-.184.106-.21.239a.91.91 0 00-.012.127.87.87 0 00.012.127c.026.135.095.24.21.24h1.798c.178 0 .213-.134.213-.31l-.003-.106c-.003-.032-.003-.067-.003-.113zm-.438-.652H153.7c-.003 0-.009-.032-.018-.078a.5.5 0 010-.185c.009-.046.015-.078.018-.078h1.797c.006 0 .009 0 .009.003 0 0 .003.003.003.006 0 .032.003.075.003.121.002.029.002.06.002.101 0 .06-.002.11-.017.11zm.208-.332a.202.202 0 00-.058-.142l-.003-.002a.205.205 0 00-.147-.061H153.7c-.118 0-.185.104-.211.24-.005.04-.011.086-.011.127 0 .043.006.086.011.127.026.135.093.24.211.24h1.797c.179 0 .21-.134.21-.307v-.11c-.002-.034-.002-.066-.002-.112zm-.43-.99s.003.003.003.006c0 .031 0 .075.003.12.003.03.003.062.003.102 0 .06-.003.11-.017.11h-1.798a.283.283 0 01-.017-.078.46.46 0 010-.185.283.283 0 01.017-.078h1.798c.003 0 .005 0 .008.003zm-2.016.04a.906.906 0 00-.011.127.87.87 0 00.011.127c.026.136.092.24.21.24h1.798c.178 0 .21-.133.21-.306l-.003-.11c0-.034-.003-.069-.003-.112a.193.193 0 00-.057-.142v-.003a.209.209 0 00-.147-.06h-1.798c-.118 0-.184.104-.21.24zm1.786-1.024s.003.003.003.006c0 .031 0 .078.003.12 0 .03.003.061.003.102 0 .063-.003.112-.018.112h-1.797c-.003 0-.009-.037-.02-.08-.006-.03-.006-.061-.006-.093s0-.063.006-.092c.011-.043.017-.078.02-.078h1.797c.003 0 .006 0 .009.003zm-2.016.04a.607.607 0 00-.012.127.59.59 0 00.012.127c.026.136.092.24.21.24h1.797c.179 0 .211-.133.211-.306l-.003-.11c0-.035-.003-.07-.003-.112a.195.195 0 00-.058-.142l-.003-.003a.198.198 0 00-.144-.06h-1.797c-.118 0-.184.103-.21.24zm-.041-.95c.012-.043.018-.077.02-.077h1.798c.003 0 .006.003.006.003.002 0 .005.002.005.005 0 .032 0 .078.003.119 0 .032.003.063.003.104 0 .063-.003.112-.017.112h-1.798c-.002 0-.008-.037-.02-.08-.005-.027-.005-.058-.005-.093 0-.032 0-.063.005-.092zm.02.46h1.798c.178 0 .21-.133.21-.306l-.003-.11c0-.035-.003-.066-.003-.113a.193.193 0 00-.057-.141l-.003-.003a.197.197 0 00-.144-.06h-1.798c-.118 0-.187.103-.21.239a.712.712 0 000 .257c.023.133.092.236.21.236zm6.559 8.32c.003.003.003.006.003.009 0 .032.003.075.003.118.003.032.003.06.003.101 0 .064-.003.113-.015.113h-1.8c-.003 0-.008-.035-.017-.078a.46.46 0 010-.188c.009-.043.014-.078.017-.078h1.8s.003.003.006.003zm-2.013.04a.64.64 0 00-.015.13c0 .044.006.084.015.128.023.135.092.236.207.236h1.8c.179 0 .211-.13.211-.306l-.003-.11c-.003-.031-.003-.066-.003-.11a.201.201 0 00-.058-.143l-.003-.003a.2.2 0 00-.144-.058h-1.8c-.115 0-.184.104-.207.237zm1.783-1.024c.003.003.003.006.003.009 0 .032 0 .075.003.118l.002.101c0 .064-.002.113-.014.113h-1.8c-.003 0-.009-.035-.018-.078a.55.55 0 010-.188c.009-.043.015-.078.018-.078h1.8s.003.003.006.003zm-2.014.043a.66.66 0 00-.014.127c0 .044.006.084.014.127.023.136.093.24.208.24h1.8c.179 0 .21-.133.21-.309l-.005-.107v-.112a.219.219 0 00-.058-.144l-.003-.003a.204.204 0 00-.144-.061h-1.8c-.115 0-.185.107-.208.242zm1.783-1.027c.003.003.003.006.003.009 0 .031.003.075.003.118 0 .032.003.063.003.1 0 .064-.003.114-.014.114H157.3c-.003 0-.008-.035-.017-.078a.46.46 0 010-.185c.009-.046.014-.08.017-.08h1.801s.002.002.005.002zm-2.013.043a.59.59 0 000 .254c.023.133.092.24.207.24h1.801c.175 0 .21-.133.21-.31l-.006-.106V46.5a.202.202 0 00-.06-.145h-.003a.187.187 0 00-.141-.063H157.3c-.115 0-.184.107-.207.242zm1.783-1.024c.003 0 .003.002.003.005 0 .032 0 .075.003.119 0 .031.003.063.003.1 0 .064-.003.113-.015.113h-1.8a.306.306 0 01-.02-.078.898.898 0 010-.184.267.267 0 01.02-.078h1.8c.003 0 .003 0 .006.003zm-2.016.037a.95.95 0 00-.012.13.87.87 0 00.012.127c.023.133.095.24.21.24h1.8c.179 0 .21-.133.21-.31l-.005-.106v-.113a.192.192 0 00-.061-.141v-.003a.204.204 0 00-.144-.06h-1.8c-.115 0-.187.103-.21.236zm1.785-1.024c0 .003.003.005.003.008 0 .032 0 .075.003.119 0 .031.003.063.003.1 0 .064-.003.113-.017.113h-1.798a.455.455 0 01-.025-.17.82.82 0 01.005-.093.373.373 0 01.02-.077h1.806zm-2.016.043a.87.87 0 00-.011.127.87.87 0 00.011.127c.026.136.095.24.21.24h1.798c.178 0 .21-.133.21-.31l-.003-.106v-.113a.195.195 0 00-.06-.141v-.003a.209.209 0 00-.147-.06h-1.798c-.115 0-.184.103-.21.239zm1.786-1.028c0 .003.003.006.003.01 0 .03.003.074.003.117 0 .032.003.064.003.101 0 .064-.003.113-.018.113h-1.797a.308.308 0 01-.02-.078c-.003-.029-.006-.058-.006-.092 0-.032.003-.067.006-.093a.268.268 0 01.02-.078h1.806zm-2.016.044a.87.87 0 00-.012.127c0 .04.006.086.012.127.026.135.092.24.21.24h1.797c.179 0 .211-.134.211-.31v-.106c-.003-.035-.003-.067-.003-.113a.192.192 0 00-.061-.141l-.003-.003a.198.198 0 00-.144-.06h-1.797c-.118 0-.184.103-.21.239zm1.786-1.028l.002.009c0 .032.003.075.003.118 0 .032.003.064.003.101 0 .064-.003.113-.017.113h-1.797a.333.333 0 01-.021-.078c-.002-.026-.005-.058-.005-.093 0-.031.003-.066.005-.092a.287.287 0 01.021-.078h1.806zm-2.017.044a.681.681 0 000 .254c.026.135.092.24.211.24h1.797c.179 0 .21-.134.21-.31l-.003-.106c0-.035-.003-.067-.003-.113a.193.193 0 00-.057-.142v-.002a.207.207 0 00-.147-.061h-1.797c-.119 0-.185.104-.211.24zm1.786-1.025s.003.003.003.006v.12c.003.03.003.062.003.102 0 .06-.003.11-.014.11h-1.798a.365.365 0 01-.02-.078.46.46 0 010-.185.365.365 0 01.02-.078h1.798a.01.01 0 01.008.003zm-2.016.04a.606.606 0 00-.012.127c0 .044.003.087.012.127.026.136.092.24.21.24h1.798c.178 0 .21-.133.21-.306l-.003-.11c0-.034-.003-.069-.003-.112a.19.19 0 00-.058-.142l-.002-.003a.202.202 0 00-.144-.06h-1.798c-.118 0-.184.104-.21.24zm1.783-1.024c.003 0 .006.003.006.006 0 .031 0 .078.002.12v.102c0 .063 0 .112-.014.112h-1.797a.354.354 0 01-.02-.08c-.003-.03-.009-.061-.009-.093s.006-.063.009-.092a.306.306 0 01.02-.078h1.797c.003 0 .006 0 .006.003zm-2.014.04a.681.681 0 000 .254c.023.136.093.24.211.24h1.797c.179 0 .21-.133.21-.306l-.003-.11-.002-.112a.199.199 0 00-.058-.142l-.003-.003a.198.198 0 00-.144-.06h-1.797c-.118 0-.188.103-.211.24zm-.04-.95l.017-.077h1.801c.003 0 .005.003.005.003.003 0 .006.002.006.005v.119c.003.032.003.063.003.104 0 .063-.003.112-.014.112h-1.801l-.017-.08a.461.461 0 010-.185zm.017.46h1.801c.178 0 .21-.133.21-.306l-.003-.11c0-.035-.003-.066-.003-.113a.193.193 0 00-.057-.141l-.003-.003a.197.197 0 00-.144-.06h-1.801c-.115 0-.184.103-.207.239a.635.635 0 000 .257c.023.133.092.236.207.236zm-6.285.418a.971.971 0 01.245.482l1.766 7.53a.667.667 0 01-.13.54.631.631 0 01-.337.222.403.403 0 01-.104.011h-10.107v-8.94h8.293c.155 0 .279.06.374.155zm-8.762-.352a.097.097 0 00-.098.098v9.138c0 .054.043.098.098.098h10.202a.648.648 0 00.15-.018.825.825 0 00.444-.294.84.84 0 00.167-.701l-1.769-7.53a1.207 1.207 0 00-.293-.578h-.003a.693.693 0 00-.51-.213h-8.388zM39.185 62.36a.347.347 0 01-.343.222.342.342 0 01-.34-.222.396.396 0 01-.029-.156c0-.055.01-.11.03-.159a.344.344 0 01.34-.22c.178 0 .293.096.342.22v.003c.02.05.029.101.029.156a.38.38 0 01-.03.156zm.225-.156a.612.612 0 00-.044-.225l-.002-.006a.531.531 0 00-.522-.343c-.27 0-.444.15-.521.343a.63.63 0 000 .462c.078.193.25.34.521.34a.53.53 0 00.522-.34.59.59 0 00.046-.231zm59.147-2.713a.321.321 0 01.316-.205c.165 0 .271.09.317.205a.434.434 0 010 .294.326.326 0 01-.317.202.323.323 0 01-.316-.202.376.376 0 01-.03-.15c0-.049.01-.1.03-.144zm.316.693a.515.515 0 00.499-.327.625.625 0 000-.439.514.514 0 00-.499-.328.511.511 0 00-.498.329.631.631 0 00-.043.216c0 .078.017.15.043.222.075.182.24.327.498.327zm-5.985-19.413l.003-.002a.368.368 0 01.357-.228c.187 0 .308.1.36.23.02.052.029.11.029.168a.462.462 0 01-.029.164l-.003.006c-.052.127-.17.225-.357.225a.367.367 0 01-.36-.23.46.46 0 01-.029-.165c0-.058.009-.116.029-.167zm.36.76c.28 0 .458-.153.539-.35v-.005a.613.613 0 000-.477.548.548 0 00-.54-.355.549.549 0 00-.535.35l-.003.005a.622.622 0 000 .477c.078.199.26.355.539.355zm46.937 18.425a.506.506 0 01-.496.32.505.505 0 01-.495-.32.664.664 0 010-.453.501.501 0 01.495-.32c.26 0 .424.138.496.32a.65.65 0 01.043.225c0 .08-.017.156-.043.228zm-.496-.97a.69.69 0 00-.674.441.788.788 0 00-.057.3.77.77 0 00.057.3.692.692 0 00.674.445.696.696 0 00.677-.444.815.815 0 00.055-.3.826.826 0 00-.055-.3.693.693 0 00-.677-.442zm.899 1.151c-.13.327-.432.584-.899.584-.466 0-.766-.257-.898-.584a1.16 1.16 0 010-.82c.132-.322.432-.58.898-.58.467 0 .769.258.899.58.052.13.075.272.075.41 0 .142-.023.28-.075.41zm-.899-1.596c-.559 0-.919.31-1.077.705a1.324 1.324 0 000 .964c.158.395.518.704 1.077.704.562 0 .922-.309 1.078-.704a1.267 1.267 0 000-.964c-.156-.396-.516-.705-1.078-.705zm1.003 2.191a1.413 1.413 0 01-2.005 0 1.418 1.418 0 010-2.006 1.4 1.4 0 011.002-.418c.392 0 .746.158 1.003.418h.005a1.423 1.423 0 01-.005 2.006zm.138-2.147a1.605 1.605 0 00-1.141-.47 1.61 1.61 0 00-1.137.467l-.003.003a1.614 1.614 0 102.287.006l-.006-.006zm.173 2.459a1.859 1.859 0 01-3.169-1.316c0-.514.208-.979.545-1.313a1.85 1.85 0 012.624 0 1.865 1.865 0 010 2.63zm.135-2.768a2.032 2.032 0 00-1.449-.603c-.564 0-1.074.23-1.446.6l-.003.003a2.053 2.053 0 00-.002 2.9l.002.006a2.051 2.051 0 002.898 0l.003-.003c.369-.369.599-.883.599-1.451 0-.566-.227-1.077-.599-1.452h-.003zm-85.111 2.23a.323.323 0 01-.153.193.268.268 0 01-.308-.028c-.107-.086-.13-.196-.1-.294a.308.308 0 01.057-.11.316.316 0 01.092-.083c.09-.052.202-.055.311.031a.269.269 0 01.1.292zm-.933.65c-.06.15-.145.295-.242.427-.003.006-.006.006-.009.012-.202.26-.481.465-.835.574-.009.003-.018.009-.026.009a2.02 2.02 0 01-.594.084 2.04 2.04 0 01-.596-.084l-.032-.009a1.704 1.704 0 01-1.08-1.013 2.132 2.132 0 010-1.547c.25-.62.818-1.108 1.708-1.108.657 0 1.138.268 1.443.661h.003c.006.014.02.023.026.035.095.127.176.268.234.412.097.243.146.508.146.774 0 .265-.049.53-.146.773zm-.012.43a.312.312 0 01.236-.07c.101.01.193.073.234.203.037.136-.01.24-.087.3a.3.3 0 01-.112.058.275.275 0 01-.36-.19.3.3 0 010-.168c.02-.023.029-.052.046-.075.014-.02.023-.043.043-.058zm-.928.794c.04.017.078.038.107.063.075.07.115.177.066.306a.264.264 0 01-.247.188.309.309 0 01-.124-.02.362.362 0 01-.107-.064c-.075-.069-.112-.176-.066-.306a.259.259 0 01.21-.173c.017-.008.043-.005.06-.011a.39.39 0 01.102.017zm-1.33.07l.006.002c.02.035.034.072.043.11a.267.267 0 01-.127.286c-.115.075-.23.063-.311.005a.379.379 0 01-.09-.09.362.362 0 01-.045-.115.267.267 0 01.126-.285.244.244 0 01.213-.038c.035.015.067.032.107.04a.31.31 0 01.078.084zm-1.112-.584a.27.27 0 01-.268.162c-.138-.006-.222-.08-.256-.179a.346.346 0 01-.02-.121.45.45 0 01.026-.124.275.275 0 01.27-.16.266.266 0 01.257.177.35.35 0 01.02.124.353.353 0 01-.03.121zm-.447-1.223a.273.273 0 01-.4.078.275.275 0 01-.07-.402.365.365 0 01.087-.09.269.269 0 01.312.012.27.27 0 01.123.289.286.286 0 01-.051.113zm-.112-1.478a.269.269 0 01.07-.303.313.313 0 01.109-.06.31.31 0 01.124-.021c.1.003.198.064.244.19.046.133.006.24-.069.306a.367.367 0 01-.233.081c-.1-.003-.199-.06-.245-.193zm1.412-.693a.313.313 0 01-.127-.008.396.396 0 01-.113-.052.268.268 0 01-.092-.3.266.266 0 01.228-.208.337.337 0 01.24.063c.08.06.129.165.091.297a.258.258 0 01-.086.142c-.03.011-.052.032-.084.043-.02.006-.037.02-.057.023zm1.37-.098a.276.276 0 01-.089-.084.294.294 0 01-.054-.112.262.262 0 01.11-.289.267.267 0 01.31-.023.423.423 0 01.09.087.292.292 0 01.054.112c.026.098 0 .208-.112.292a.255.255 0 01-.159.058c-.026-.01-.054-.012-.08-.02-.023-.007-.05-.007-.07-.02zm1.078.47a.272.272 0 01.265-.167.27.27 0 01.262.168v.005a.324.324 0 010 .24.268.268 0 01-.262.17.26.26 0 01-.236-.136c-.015-.017-.02-.037-.032-.054a.362.362 0 01.003-.225zm.507 1.172a.385.385 0 00-.11.095 2.285 2.285 0 00-.135-.574c-.014-.034-.04-.063-.058-.1.023.005.035.02.06.02.228 0 .378-.13.444-.295a.546.546 0 000-.384v-.006a.454.454 0 00-.443-.288.45.45 0 00-.444.291c-.014.032-.014.067-.02.098a1.789 1.789 0 00-.495-.343c.011-.009.028-.006.043-.017a.45.45 0 00.181-.497.536.536 0 00-.083-.179.603.603 0 00-.147-.135.448.448 0 00-.527.028.456.456 0 00-.184.497c.011.043.034.08.057.118-.092-.008-.173-.037-.27-.037-.162 0-.3.034-.441.06.008-.02.028-.029.034-.054a.46.46 0 00-.167-.506.484.484 0 00-.178-.083.462.462 0 00-.2-.018.455.455 0 00-.39.355.459.459 0 00.163.505c.026.018.058.026.084.04a1.904 1.904 0 00-.41.339c-.002-.015.007-.024 0-.038a.451.451 0 00-.423-.32.506.506 0 00-.195.029.557.557 0 00-.17.098.46.46 0 00-.127.516c.078.22.248.315.423.324.038 0 .072-.012.11-.02v.002a2.155 2.155 0 00-.139.615c-.023-.023-.028-.052-.06-.072a.449.449 0 00-.527-.009.54.54 0 00-.222.32.465.465 0 00.202.494c.19.127.386.107.532.009.035-.026.061-.06.093-.093.026.145.066.289.12.428.006.014.015.025.02.04-.02-.003-.028-.018-.051-.02a.454.454 0 00-.452.277.51.51 0 00-.012.39.449.449 0 00.432.305c.23.009.38-.115.453-.277.014-.032.014-.063.023-.098.126.136.273.248.443.34-.014.01-.026.006-.037.015a.445.445 0 00-.21.485.51.51 0 00.074.182.51.51 0 00.139.144.452.452 0 00.53 0 .458.458 0 00.21-.488.428.428 0 00-.05-.118c.125.02.237.052.375.052.093 0 .17-.026.257-.038-.012.023-.035.035-.044.061a.454.454 0 00.119.517.54.54 0 00.17.104c.06.02.13.031.195.031a.459.459 0 00.427-.314.457.457 0 00-.118-.517c-.03-.026-.064-.037-.093-.055a1.91 1.91 0 00.507-.349c0 .014-.005.026 0 .043.064.22.228.327.4.344.067.006.133 0 .2-.02a.506.506 0 00.175-.09.457.457 0 00.156-.508.456.456 0 00-.403-.343c-.044-.006-.081.005-.121.011.017-.037.046-.069.06-.106.058-.15.098-.31.124-.471.02.023.02.046.046.066a.45.45 0 00.527.044.542.542 0 00.242-.306.452.452 0 00-.167-.5.447.447 0 00-.527-.046zm-1.636.595a.507.507 0 01-.498.32.506.506 0 01-.496-.32.617.617 0 010-.456.506.506 0 01.495-.32c.263 0 .427.14.499.32a.617.617 0 010 .456zm-.498-.973a.69.69 0 00-.675.445.765.765 0 000 .6c.098.251.323.444.675.444a.693.693 0 00.68-.444.818.818 0 000-.6.697.697 0 00-.68-.445zm2.857 3.605a4.02 4.02 0 01-2.858 1.186 4.04 4.04 0 01-4.035-4.046 4.04 4.04 0 014.035-4.047 4.02 4.02 0 012.858 1.187 4.03 4.03 0 011.184 2.86 4.03 4.03 0 01-1.184 2.86zm-2.858-7.103a4.23 4.23 0 00-4.23 4.243 4.241 4.241 0 004.23 4.242c1.173 0 2.23-.476 2.996-1.244a4.229 4.229 0 001.239-2.998 4.236 4.236 0 00-4.234-4.243zm1 4.696c-.147.364-.478.646-.997.646-.521 0-.852-.282-.996-.646a1.207 1.207 0 01-.087-.453c0-.156.03-.312.087-.453.144-.361.475-.644.996-.644.519 0 .85.283.997.644a1.265 1.265 0 010 .906zm-.997-1.75c-.613 0-1.005.339-1.178.771a1.432 1.432 0 000 1.051c.173.433.565.768 1.178.768.611 0 1.006-.335 1.176-.768a1.432 1.432 0 000-1.05c-.17-.433-.565-.771-1.176-.771zm3.373 4.676a4.75 4.75 0 01-3.373 1.4 4.773 4.773 0 01-4.77-4.78 4.773 4.773 0 014.77-4.779 4.776 4.776 0 014.77 4.78 4.776 4.776 0 01-1.397 3.38zm-3.373-8.355a4.945 4.945 0 00-3.51 1.458 4.965 4.965 0 00-1.456 3.518c0 1.374.556 2.617 1.455 3.518.899.9 2.14 1.457 3.511 1.457a4.945 4.945 0 003.512-1.457 4.965 4.965 0 001.454-3.518 4.965 4.965 0 00-1.454-3.518 4.945 4.945 0 00-3.512-1.458zm125.084 2.944c-.358-.56-.885-1.218-1.593-1.706-.597-.41-1.314-.695-2.158-.695h-1.074l-.827-1.585h2.5c.853 0 1.593.39 2.143.953.631.643 1.009 1.515 1.009 2.271v.762zm-5.525-1.062c-.078.072-.159.144-.225.21l-1.446 1.256c.084-.21.133-.436.133-.675a1.83 1.83 0 00-1.826-1.83c-.24 0-.467.049-.677.133l1.927-2.237a1.24 1.24 0 01.354-.303c.173-.101.366-.153.553-.15a.87.87 0 01.521.19c.09.075.17.168.239.286l.983 1.882c.276.482-.142.868-.536 1.238zm-3.364 2.424c-.453 0-.859-.182-1.156-.476a1.646 1.646 0 010-2.315 1.633 1.633 0 011.156-.476c.452 0 .858.182 1.155.476a1.646 1.646 0 010 2.315 1.632 1.632 0 01-1.155.476zm-5.715 2.223c.008-.01.026-.003.029-.015l.613-2.493 3.318-1.833a1.82 1.82 0 00-.072.485c0 .505.205.964.536 1.296a1.84 1.84 0 001.115.516l-5.559 2.153c.011-.034.011-.072.02-.11zm-.487.49a1.28 1.28 0 01-.91.375 1.277 1.277 0 01-1.181-.77l-.015-.038a1.278 1.278 0 01.283-1.397 1.282 1.282 0 011.823 0 1.296 1.296 0 010 1.83zm-2.947-2.467c-.003-.04-.003-.081-.006-.119l-.02-.395v-.003a9.4 9.4 0 00-.366-1.818c-.002 0 0-.003 0-.003l-.002-.009a9.823 9.823 0 00-.539-1.333h3.212a.715.715 0 00.196.424l.002.003c.133.136.32.22.522.22h1.489l-1.037 4.233c-.066-.265-.179-.513-.366-.701a1.482 1.482 0 00-2.1 0c-.23.23-.363.545-.403.886l-.55-1.371c-.006-.014-.023-.006-.032-.014zm-1.547 5.235l-.256.404c-.009.017-.023.032-.034.046l-.842.003.36-.626.867.014c-.028.055-.06.107-.095.159zm.997-2.216l-.798.27.138-.71.833-.265-.095.39c-.026.107-.049.21-.078.314zm.36-2.88l.015.253-.689.488-.069-.722.72-.49c.014.155.02.314.023.47zm-.403-2.46l-.513.675-.279-.67.544-.683.248.678zm-2.264 9.233c-.046.043-.095.084-.144.13l-.982-.32a.088.088 0 00-.098.02l-.695.649a.1.1 0 00.041.165l.824.25a9.272 9.272 0 01-1.573.933l-.827-.624a.098.098 0 00-.098-.011l-.867.39c-.011.008-.026.017-.037.031a.097.097 0 00.023.136l.708.514a9.05 9.05 0 01-1.543.331l-.6-.834a.103.103 0 00-.095-.046l-.942.116a.078.078 0 00-.046.017.097.097 0 00-.02.136l.524.701h-.023a9.19 9.19 0 01-1.604-.15l-.32-.984a.097.097 0 00-.075-.067l-.93-.176a.156.156 0 00-.052 0 .103.103 0 00-.06.127l.288.829a9.018 9.018 0 01-1.386-.578l-.023-1.036a.103.103 0 00-.055-.086l-.835-.439a.11.11 0 00-.052-.012.099.099 0 00-.095.101l.038.875a9.168 9.168 0 01-1.106-.9l.267-1.002a.099.099 0 00-.026-.095l-.679-.655a.08.08 0 00-.049-.03.095.095 0 00-.115.073l-.211.848a9.306 9.306 0 01-.956-1.42l.57-.874a.094.094 0 00.006-.098l-.444-.84a.085.085 0 00-.034-.038.099.099 0 00-.136.03l-.458.735a8.638 8.638 0 01-.449-1.541l.804-.66a.092.092 0 00.037-.093l-.173-.935a.1.1 0 00-.023-.047.093.093 0 00-.135-.008l-.657.557c-.011-.194-.029-.387-.029-.583 0-.289.018-.575.044-.855l.956-.404a.097.097 0 00.063-.08l.098-.944a.09.09 0 00-.006-.05.097.097 0 00-.129-.048l-.792.352a9.405 9.405 0 01.461-1.475l1.037-.101a.102.102 0 00.08-.06l.372-.87a.09.09 0 00.008-.054.092.092 0 00-.106-.084l-.861.101c.279-.482.599-.938.956-1.362l1.014.22a.1.1 0 00.095-.03l.622-.718a.1.1 0 00.023-.046.093.093 0 00-.078-.113l-.844-.167a9.405 9.405 0 011.078-.852l.916.49a.09.09 0 00.1 0l.798-.516a.107.107 0 00.035-.037.104.104 0 00-.043-.133l-.772-.39a9.04 9.04 0 011.555-.6l.712.748c.023.028.06.04.098.028l.913-.242a.17.17 0 00.049-.026.1.1 0 000-.139l-.611-.608a8.964 8.964 0 011.316-.107c.124 0 .245.011.369.017l.441.93a.102.102 0 00.08.054l.948.05a.086.086 0 00.052-.012.095.095 0 00.04-.13l-.386-.768c.467.078.919.19 1.36.338l.161 1.021a.103.103 0 00.066.075l.893.31a.08.08 0 00.052.005.095.095 0 00.078-.112l-.156-.846c.481.234.939.508 1.366.82l-.141 1.027a.1.1 0 00.04.09l.757.565a.099.099 0 00.159-.066l.101-.857c.063.06.129.112.19.176.225.222.432.459.631.701l-.401.961a.095.095 0 00.012.098l.587.745a.087.087 0 00.041.032.095.095 0 00.126-.055l.317-.803c.234.376.444.765.62 1.175l-.648.814a.097.097 0 00-.015.101l.363.874a.074.074 0 00.032.04.097.097 0 00.138-.017l.524-.69c.141.497.245 1.005.3 1.528l-.856.585c-.028.018-.052.055-.046.093l.09.946c0 .018.005.035.017.047a.094.094 0 00.135.023l.706-.5a9.077 9.077 0 01-.15 1.458l-.988.315a.098.098 0 00-.066.075l-.184.932a.114.114 0 00.002.052c.021.049.072.078.124.06l.824-.282a9.013 9.013 0 01-.711 1.639l-1.032-.02a.1.1 0 00-.095.049l-.469.825a.093.093 0 00-.015.046c0 .055.044.098.098.098l.862-.002a9.02 9.02 0 01-.873 1.03zm-.395.36l-.38.327c-.029.02-.058.04-.086.063l-.801-.245.53-.494.821.269a2.177 2.177 0 01-.084.08zm-2.84 1.724a6.932 6.932 0 01-.271.098l-.677-.494.66-.294.697.525-.409.165zm-2.656.571c-.106.006-.213.014-.322.017l-.501-.67.72-.086.507.71-.404.03zm-2.808-.257c-.098-.026-.199-.046-.297-.075l-.276-.793.711.135.271.831-.409-.098zm-2.768-2.023l.639.335.02.874-.394-.23c-.075-.047-.156-.093-.228-.142l-.037-.837zm-1.749-.675c-.06-.067-.121-.13-.178-.197l.201-.813.522.502-.228.843-.317-.335zm-1.699-2.647l.446-.718.34.637-.478.73a1.403 1.403 0 01-.034-.066l-.274-.583zm-5.421-.845c.003-.003.006-.003.006-.006l.08-.33c.046-.178.095-.354.133-.539l.011-.046c.003-.009 0-.02 0-.03.023-.126.038-.253.058-.383.098.104.193.21.302.3a2.94 2.94 0 001.867.653 2.94 2.94 0 001.866-.664c.107-.09.202-.2.3-.303 0 .008.003.02.003.031l.052.367c0 .006.006.011.008.02.118.626.3 1.23.536 1.804 0 0-.003.003-.003.006l.015.032c.08.187.17.366.259.548h-6.075c.23-.468.432-.953.582-1.46zm-1.17 2.115l-.256.404c-.011.017-.023.032-.034.046l-.839.003.357-.626.87.014-.098.159zm.997-2.216l-.798.27.141-.71.83-.265-.092.384c-.026.107-.052.214-.081.32zm-2.307 3.893c-.046.043-.095.084-.144.13l-.982-.32a.088.088 0 00-.098.02l-.695.649a.1.1 0 00.041.165l.824.25a9.272 9.272 0 01-1.573.933l-.824-.624a.106.106 0 00-.101-.011l-.864.39a.106.106 0 00-.04.031.097.097 0 00.023.136l.708.514a9.175 9.175 0 01-1.543.331l-.6-.834c-.017-.031-.054-.049-.095-.046l-.942.116a.066.066 0 00-.046.017.097.097 0 00-.02.136l.524.701h-.026c-.547 0-1.08-.058-1.601-.15l-.32-.984a.097.097 0 00-.075-.067l-.933-.176a.139.139 0 00-.049 0 .105.105 0 00-.06.127l.288.829a9.052 9.052 0 01-1.389-.578l-.02-1.036a.103.103 0 00-.055-.086l-.835-.439a.11.11 0 00-.052-.012.097.097 0 00-.095.101l.038.875a9.168 9.168 0 01-1.106-.9l.267-1.002a.099.099 0 00-.026-.095l-.679-.655a.081.081 0 00-.046-.03c-.055-.01-.107.02-.118.073l-.211.848a9.306 9.306 0 01-.956-1.42l.57-.874a.094.094 0 00.006-.098l-.444-.84a.085.085 0 00-.034-.038.099.099 0 00-.136.03l-.458.735a9.267 9.267 0 01-.452-1.541l.81-.66a.095.095 0 00.031-.093l-.17-.935a.133.133 0 00-.02-.047.1.1 0 00-.141-.008l-.654.557c-.011-.194-.029-.387-.029-.583 0-.289.018-.575.044-.855l.956-.404a.09.09 0 00.06-.08l.101-.944a.1.1 0 00-.005-.05.099.099 0 00-.13-.048l-.792.352a9.405 9.405 0 01.461-1.475l1.037-.101a.102.102 0 00.08-.06l.372-.87a.117.117 0 00.011-.054c-.008-.055-.054-.093-.109-.084l-.861.101c.279-.482.599-.938.956-1.362l1.014.22a.1.1 0 00.095-.03l.622-.718a.076.076 0 00.023-.046.093.093 0 00-.078-.113l-.844-.167a9.405 9.405 0 011.078-.852l.913.49a.092.092 0 00.103 0l.798-.516a.107.107 0 00.035-.037.1.1 0 00-.043-.133l-.772-.39a9.04 9.04 0 011.555-.6l.712.748c.023.028.06.04.1.028l.911-.242a.139.139 0 00.049-.026.1.1 0 000-.139l-.611-.608a8.99 8.99 0 011.313-.107c.127 0 .248.011.372.017l.438.93a.107.107 0 00.083.054l.948.05a.073.073 0 00.049-.012.094.094 0 00.043-.13l-.386-.768c.467.078.922.19 1.36.338l.164 1.021a.1.1 0 00.063.075l.89.31a.091.091 0 00.055.005.094.094 0 00.078-.112l-.153-.846c.478.234.936.508 1.363.82l-.138 1.027a.092.092 0 00.037.09l.758.565a.1.1 0 00.051.02.097.097 0 00.107-.086l.098-.857c.066.057.132.112.193.176.225.222.432.459.631.704l-.404.958a.103.103 0 00.015.098l.587.745a.104.104 0 00.041.032.095.095 0 00.126-.055l.32-.803c.231.376.441.765.617 1.175l-.648.814a.097.097 0 00-.015.101l.363.874a.074.074 0 00.032.04.093.093 0 00.135-.017l.527-.69c.141.497.248 1.005.303 1.528l-.859.585a.097.097 0 00-.046.093l.09.946a.098.098 0 00.155.07l.703-.5a9.077 9.077 0 01-.15 1.458l-.988.315a.094.094 0 00-.066.075l-.184.932a.114.114 0 00.002.052.1.1 0 00.124.06l.824-.282a9.013 9.013 0 01-.711 1.639l-1.032-.02a.097.097 0 00-.092.049l-.472.825a.093.093 0 00-.015.046c0 .055.044.098.098.098l.862-.002a9.02 9.02 0 01-.873 1.03zm-.389.355l-.389.332c-.029.023-.057.04-.083.063l-.801-.245.53-.494.824.269-.081.075zm-2.846 1.729a6.932 6.932 0 01-.271.098l-.679-.494.659-.294.7.525-.409.165zm-2.656.571c-.106.006-.213.014-.322.017l-.499-.67.718-.086.507.71-.404.03zm-2.805-.254c-.101-.026-.199-.049-.3-.078l-.276-.793.711.135.271.831-.406-.095zm-2.771-2.026l.639.335.02.874-.388-.228c-.078-.046-.159-.092-.237-.144l-.034-.837zm-1.749-.675c-.06-.067-.121-.13-.178-.197l.201-.813.522.502-.228.843-.317-.335zm-1.702-2.647l.452-.718.337.637-.478.73c-.006-.008-.011-.02-.017-.031l-.294-.618zm-.599-2.2l-.066-.478c0-.015 0-.023-.003-.035l.642-.545.13.712-.671.552a4.862 4.862 0 01-.032-.205zm.034-2.903c.012-.075.021-.153.032-.23l.775-.344-.078.719-.803.337.074-.482zm.957-2.796l.841-.101-.285.666-.87.084.314-.65zm-2.351.741v-2.588h3.408l-.087.09c-.005.009-.011.017-.014.029a9.384 9.384 0 00-1.106 1.593h-.003l-.006.012c-.147.274-.282.554-.406.842v.003a.17.17 0 00-.008.02h-1.778zm-.196 1.71h-.567v-.8h.567v.8zm-4.412 0h-.568v-.8h.568v.8zm-8.089-7.64c-3.911-3.553-6.78-6.15-10.372-6.191l-.43-2.182.107-.02a.098.098 0 00.08-.113l-.19-1.131c4.275.028 6.652 1.711 11.949 5.472l6.184 4.39V52.7h-3.845a.097.097 0 00-.098.098v1.068l-1.308-1.16c-.729-.65-1.417-1.273-2.077-1.87zm-9.3 2.49l-.145.046-2.195-10.762.649-.113 2.123 10.818a.764.764 0 00-.433.011zm.757.774a.504.504 0 01-.375.453l-1.117.352v-1.143l.792-.251a.507.507 0 01.565.156.612.612 0 01.135.433zm.847 2.023H77.1v-.912h20.39v.912zm-.326 2.127h-.472a1.937 1.937 0 00-.853-1.1l-.005-.003c-.424-.254-.988-.404-1.703-.404H85.74c-.605 0-1.3.217-1.841.52-.516.286-.884.652-.945.987H77.1v-1.934h20.065v1.934zm.628-1.408l1.789 2.508a.574.574 0 01.066.28.803.803 0 01-.092.375.717.717 0 01-.27.294.739.739 0 01-.372.095h-1.38l.32-1.258c.028-.107.043-.208.043-.297a.612.612 0 00-.104-.361.55.55 0 00-.302-.2c-.04-.008-.087-.008-.13-.014v-1.422h.432zm5.202 2.1v1.452h-3.543a.943.943 0 00.277-.3c.078-.147.115-.312.115-.465a.756.756 0 00-.095-.38l-.219-.306h3.465zm-6.247-.496h.512c.07 0 .127.009.179.02a.34.34 0 01.196.127.42.42 0 01.066.246.925.925 0 01-.037.248l-.355 1.4c0 .003-.005.003-.005.005 0 .003.005.003.005.003l-.138.537a112.59 112.59 0 00-.423-2.586zm.181 6.295c-.256.37-.674.69-1.32.883l-.667-3.688-.064-.344a10.228 10.228 0 00-.245-1.102c.003-.01.018-.006.018-.018 0-.014-.023-.014-.032-.029-.228-.738-.628-1.345-1.602-1.726-.397-.153-.88-.27-1.48-.349a16.737 16.737 0 00-2.146-.118h-6.242c.07-.266.392-.566.844-.817.516-.285 1.172-.493 1.746-.493h8.393c.677 0 1.21.138 1.602.375l.006.003c.42.254.682.62.797 1.053l.75 4.736c.06.494.008 1.114-.358 1.634zm-2.892 1.729a5.01 5.01 0 01-1.017.196c0-.006.006-.009.006-.012a.43.43 0 00.032-.156.421.421 0 00-.032-.158.366.366 0 00-.357-.237h-.786v-.144h.077c.078.003.162.006.228.006.53 0 1.138-.087 1.138-.829v-.92h.962a.1.1 0 00.098-.099v-1.53a.101.101 0 00-.098-.097h-.962v-.575c0-.741-.608-.828-1.138-.828-.066 0-.15.003-.228.003-.026.003-.051.003-.077.003v-.523h2.572c.095.33.164.681.23 1.057.25 1.36.49 2.716.74 4.075-.457.343-.887.6-1.388.768zm-2.716.112a.218.218 0 010-.17c.026-.063.083-.113.178-.113h1.17c.095 0 .153.05.178.113a.27.27 0 010 .17c-.022.06-.08.101-.164.107a8.67 8.67 0 01-.556.006H91.5a.183.183 0 01-.18-.113zm-.435-4.877a6.552 6.552 0 00-.11-.251l-.077-.165h.988v.416h-.801zm2.247.883v.107h-1.25V61.29l.083-.003c.064 0 .13-.003.222-.003.438 0 .945.067.945.632v.673zm.193 1.325v-1.227h.864v1.333h-.864v-.106zm-1.443-1.022h1.25v.926h-1.25v-.926zm0 1.12h1.25v1.127c0 .565-.507.631-.945.631-.092 0-.159 0-.222-.003h-.083v-1.754zm-.582-4.03h1.567v.396H91.3v-.395zm-30.438-5.209l-.178-.248a.06.06 0 00-.018-.012 8.384 8.384 0 00-.45-.51h28.546v1.016H61.045c-.058-.084-.121-.162-.182-.246zm.308 10.42l-.256.406c-.012.017-.026.032-.038.046l-.838.003.36-.626.867.014c-.031.052-.063.107-.095.156zm.994-2.215l-.798.272.141-.71.833-.266-.095.387a12.21 12.21 0 01-.08.317zm.374-2.626l-.688.488-.066-.722.717-.49c.014.161.02.323.026.484l.011.24zm-.417-2.713l-.513.675-.28-.67.548-.683.245.678zm-1.098-2.306l.023.035-.31.785-.45-.569.34-.802c.032.04.06.086.092.127l.305.424zm-1.163 11.539c-.046.043-.098.084-.144.13l-.985-.32a.085.085 0 00-.096.02l-.694.649a.084.084 0 00-.026.043.096.096 0 00.064.121l.824.252c-.49.36-1.014.672-1.573.932l-.824-.624a.1.1 0 00-.098-.011l-.867.39a.14.14 0 00-.04.031.1.1 0 00.023.136l.711.514a9.162 9.162 0 01-1.547.331l-.599-.834c-.017-.031-.054-.049-.095-.046l-.939.116a.078.078 0 00-.049.017.097.097 0 00-.02.136l.524.701h-.026a9.216 9.216 0 01-1.601-.15l-.32-.984a.094.094 0 00-.072-.067l-.933-.176a.155.155 0 00-.052 0 .1.1 0 00-.057.127l.288.829a8.905 8.905 0 01-1.389-.578l-.023-1.036a.1.1 0 00-.052-.086l-.838-.439a.105.105 0 00-.052-.012.095.095 0 00-.092.101l.035.875a9.255 9.255 0 01-1.106-.9l.27-1.002a.1.1 0 00-.026-.095l-.682-.655a.079.079 0 00-.046-.03.1.1 0 00-.118.073l-.21.848a9.286 9.286 0 01-.957-1.42l.573-.874a.107.107 0 00.006-.098l-.447-.84a.063.063 0 00-.034-.038.095.095 0 00-.133.03l-.46.735a9.129 9.129 0 01-.45-1.541l.807-.66a.097.097 0 00.034-.093l-.173-.935a.108.108 0 00-.02-.047.096.096 0 00-.138-.008l-.654.557c-.014-.194-.029-.387-.029-.583 0-.289.015-.575.04-.855l.96-.404a.092.092 0 00.06-.08l.101-.944a.136.136 0 00-.009-.05c-.023-.048-.077-.071-.126-.048l-.795.352a9.147 9.147 0 01.463-1.475l1.037-.101a.103.103 0 00.081-.06l.372-.87a.158.158 0 00.008-.054.094.094 0 00-.11-.084l-.858.101c.28-.482.597-.938.957-1.362l1.01.22a.097.097 0 00.096-.03l.625-.718a.097.097 0 00.02-.046c.009-.052-.023-.104-.075-.113l-.847-.167c.34-.306.697-.595 1.078-.852l.916.49a.092.092 0 00.103 0l.795-.516a.087.087 0 00.035-.037c.026-.046.006-.107-.043-.133l-.772-.39a9.073 9.073 0 011.558-.6l.709.748c.023.028.063.04.1.028l.914-.242a.184.184 0 00.046-.026.094.094 0 000-.139l-.608-.608c.43-.064.867-.107 1.31-.107.127 0 .248.011.372.017l.44.93a.103.103 0 00.084.054l.948.05a.095.095 0 00.049-.012.098.098 0 00.043-.13l-.386-.768c.464.078.919.19 1.357.338l.164 1.021a.098.098 0 00.063.075l.893.31a.081.081 0 00.052.005.092.092 0 00.078-.112l-.153-.846c.481.234.936.508 1.366.82l-.142 1.027a.093.093 0 00.038.09l.757.565a.104.104 0 00.052.02.095.095 0 00.107-.086l.1-.857c.064.057.133.112.194.176.222.222.432.459.63.701l-.403.961a.089.089 0 00.015.098l.587.745a.074.074 0 00.04.032.096.096 0 00.127-.055l.317-.803c.23.376.444.765.62 1.175l-.651.814a.105.105 0 00-.015.101l.363.874c.009.018.017.032.035.04.04.035.103.027.135-.017l.527-.69c.138.497.245 1.005.3 1.528l-.856.585a.099.099 0 00-.049.093l.09.946a.084.084 0 00.02.047c.029.046.092.054.135.023l.703-.5c-.012.497-.06.985-.147 1.458l-.99.315a.095.095 0 00-.064.075l-.188.932a.107.107 0 00.006.052.098.098 0 00.124.06l.824-.282a9.242 9.242 0 01-.711 1.639l-1.035-.02a.096.096 0 00-.092.049l-.472.825c-.006.014-.015.032-.015.046a.1.1 0 00.098.098l.864-.002a9.31 9.31 0 01-.872 1.03zm-.392.355l-.389.332c-.029.023-.055.04-.083.063l-.798-.245.527-.494.824.269a.988.988 0 01-.081.075zm-2.846 1.729c-.09.034-.178.066-.268.098l-.68-.494.66-.294.697.525-.409.165zm-2.656.571c-.106.006-.213.014-.32.017l-.5-.67.717-.086.507.71-.404.03zm-2.805-.254c-.098-.026-.199-.049-.297-.078l-.276-.793.708.135.27.831-.405-.095zm-2.768-2.026l.64.335.016.874-.391-.228c-.078-.049-.156-.092-.23-.144l-.035-.837zm-1.749-.675c-.06-.067-.12-.13-.178-.197l.201-.813.519.502-.228.843-.314-.335zm-1.702-2.647l.45-.718.336.637-.478.73a.182.182 0 01-.02-.04l-.288-.609zm-6.925 1.183l-.069-1.096 1.334-.702h.003l4.773-2.499c.005.118.008.242.02.364 0 .005-.009.008-.009.014l.012.075c.002.043.008.087.011.13l-6.075 3.714zm-3.09 2.096c.011-.05.02-.101.031-.156.032-.196.052-.424.055-.624V57.44a.4.4 0 01.112-.277h.003a.402.402 0 01.277-.116h1.575c.11 0 .196.03.257.081.054.052.089.13.098.237l.083 1.365v.006l.412 6.49-2.903 1.978zm3.041-9.216v.693l-.36-.04-.043-.702.403.05zm.285-1.446l.997-.092.072.04v4.725c-.049-.026-.086-.06-.141-.075l-.003-.003c-.366-.098-.729-.413-1.014-.822v-3.778c.029 0 .058.008.09.005zm-.676-.528a.788.788 0 01-.081-.277.817.817 0 01.029-.291.644.644 0 01.587-.468l5.557-.502v1.368l-4.258.395-1.244.096c-.285 0-.492-.127-.59-.32zm6.8 2.788c.012-.07.02-.141.032-.21l.772-.344-.075.719-.804.337.075-.502zm-4.591 2.834a.988.988 0 00-.27-.317v-2.272l4.562.503a9.96 9.96 0 00-.04.834c0 .072.008.138.008.21l-4.32 2.266c.051-.092.112-.182.14-.283.047-.158.061-.323.05-.482a1.256 1.256 0 00-.13-.459zm.395-4.675l-.176.306a.098.098 0 00.034.133l.507.291-.172.367-.859-.096v-1.365l.666.364zm.097-.167l-.682-.376.95-.09-.267.465zm2.002-.627l1.389.551v1.697l-1.847-.202-.293-.031c.04-.084.083-.18.115-.237.072-.15.112-.23.13-.312.02-.095.008-.17-.018-.329l-.034-.208a.096.096 0 00-.07-.08l-.411-.119a.098.098 0 00-.081.012l-.311.182a.096.096 0 00-.04.043l-.182.381-.403-.234.558-.975 1.498-.139zm1.389.34l-.957-.377.957-.09v.468zm-2.696.737l.253-.148.314.09.023.15c.023.133.035.2.02.257-.011.058-.049.127-.115.265-.026.052-.063.13-.098.205h-.003l-.046.096-.743-.081.395-.834zm3.191 1.654c-.023.152-.052.302-.069.458l-4.58-.505v-.692l.945.104.91.098.173.017.26.032 1.952.213c.003 0 .003-.005.006-.005s0 .005.003.005h.443l-.043.275zm-6.196 1.096a2.843 2.843 0 01-.345-1.154l.345.04v1.114zm-.034 3.804l-.248-3.937c.075.168.156.33.256.482.317.485.747.863 1.181.982l.003.003a.77.77 0 01.484.398.968.968 0 01.11.384c.011.138 0 .28-.04.415a.987.987 0 01-.487.612l-1.26.661zm6.409-2.07l-.07-.484v-.032l.64-.545.133.712-.674.552c-.012-.07-.02-.136-.03-.202zm.988-5.702l.84-.101-.284.666-.867.084.31-.65zm1.322-1.842l.357-.375c.017-.017.035-.032.055-.049l.82.162-.475.545-.846-.184.089-.099zm-2.788-7.108a1.07 1.07 0 011.071-1.074h3.172v6.65a9.49 9.49 0 00-1.135.93c-.006.002-.015 0-.018.005l-.078.08c-.034.032-.069.061-.1.093-.095.095-.182.2-.274.297l-.199.211c-.008.009-.011.017-.017.029a9.402 9.402 0 00-1.106 1.593l-.006.012a9.05 9.05 0 00-.406.842l-.003.003a9.47 9.47 0 00-.521 1.68h-.38v-11.35zm5.352.184h-.3v-1.344l.3-.035v1.38zm.195-4.842c.04 0 .081 0 .118.002.072 0 .133 0 .196.003v3.201l-.314.035v-3.241zm-.486-.24l-.003-.003a.126.126 0 01-.04-.095c0-.13-.004-.266-.006-.381-.006-.303-.01-.45.051-.5.067-.054.242-.048.594-.043.15.006.331.009.515.009a.14.14 0 01.095.038v.002c.026.023.04.058.04.096 0 .13.004.268.006.38.01.304.01.45-.048.5-.044.035-.153.043-.3.043-.003 0-.003-.008-.009-.008h-.507c-.002 0-.002.005-.002.005-.098-.002-.188-.005-.291-.005a.135.135 0 01-.096-.038zm.8 5.18v.7h-.314v-2.2l.314-.038v1.539zm-.412.893h.507c.055 0 .101-.04.101-.096v-.698h.291v1.148h-1.296v-1.148h.3v.698c0 .055.043.096.097.096zm-1.01 4.274v-6.537l.417-.05v6.336a9.526 9.526 0 00-.288.176l-.13.075zm.829-.26l.758.381-.608.395-.77-.412.018-.012.602-.352zm2.129-.794l.449-.1.124-.018.59.592-.697.187-.599-.629a1.77 1.77 0 01.133-.032zm11.516-7.21l.383 3.164c-1.858.598-3.653 1.195-5.13 1.775-1.51.597-2.7 1.18-3.313 1.746-.052.05-.104.098-.153.147l-.083-.008c-.1-.012-.205-.02-.308-.03l-.349-.034a.092.092 0 00-.055.009v.006c-.13-.006-.253-.02-.386-.02-.518 0-1.025.051-1.523.135-.006 0-.015-.009-.023-.006l-.164.035c-.156.029-.306.063-.458.098l-.303.07a.072.072 0 00-.043.022 9.245 9.245 0 00-1.78.699c-.003.003-.006 0-.009 0l-.04.023c-.04.023-.084.04-.124.063v-3.353h1.394a.097.097 0 00.098-.096V47.36a.1.1 0 00-.098-.099h-.389v-1.463l12.856-1.535zm25.402-.02l-24.826 3.14-.383-3.142 25.21-3.005v3.008zm.484-4.12h2.241v5.5h-2.529v-5.5h.288zm.098-1.14h2.143v.943h-2.143v-.944zm3.321.943h-.432v-.944h.277l.155.944zm-1.356-10.725a.69.69 0 01.446-.286l.276-.049.012-.003a.706.706 0 01.513.119c.144.1.25.257.282.441.671 3.539 1.187 7.236 1.771 10.8-.014-.014-.034-.02-.049-.034a.877.877 0 00-.207-.142c-.032-.017-.06-.034-.095-.049a1.085 1.085 0 00-.389-.072H92.28l-.17-1.033c.003-.006.014-.003.014-.012 0-.008-.017-.008-.017-.017l-1.498-9.138a.709.709 0 01.119-.525zm4.326 23.923h-.121l-2.037-10.396.461-.08 2.198 10.785-.403.127v-.338a.097.097 0 00-.098-.098zm-.674.67v-.474h.576v1.7h-.576v-1.226zm-5.421-1.002h.516v2.226h-.516V52.79zm-.755-.753l-.99-4.11.388-.112a.102.102 0 00.07-.121l-.044-.14.697-.89h2.679a.097.097 0 00.098-.099v-.747h.616a.097.097 0 00.098-.099v-1.345h1.204l1.711 8.748h-.449a.097.097 0 00-.098.098v.474H90.4l-.32-.641a.095.095 0 00-.089-.058h-.32v-.3a.097.097 0 00-.097-.098h-.712a.097.097 0 00-.098.098v1.111h-.245v-1.169a.684.684 0 00-.314-.6zm-.956.6a.5.5 0 01.314-.49.645.645 0 01.446 0 .497.497 0 01.314.49v1.17h-1.074v-1.17zm-.058-6.597l.991-1.406v1.896l-.62.794-.37-1.284zm-1.397 2.063h-.824v-1.356h.43l.394 1.356zm1.28-.337l-.77.225-.314.09-.559-1.929c-.1-.346.023-.623.237-.79a.864.864 0 01.285-.148c.106-.029.213-.04.32-.029.27.026.524.194.624.543l.56 1.928-.384.11zm.293 4.271l-.925-3.885.582-.17.96 3.966c-.064-.018-.13-.038-.196-.038a.81.81 0 00-.297.058.666.666 0 00-.124.07zm1.011-6.22h2.53v.65h-2.53v-.65zm2.725-6.837h.357v.944h-.357v-.944zm0 3.016h.519v2.182h-.519v-2.182zm0 2.378h.519v1.247h-.519v-1.247zm1.434-1.685c.01.055.06.09.113.08l.057-.008.277 1.417h-1.167v-2.182h.605l.115.693zm-.34-2.569h1.092c.101 0 .19.012.271.038a.755.755 0 01.49.453.952.952 0 010 .695c-.11.278-.363.494-.76.494h-2.188v-1.68h1.094zm-38.03 11.132l.291.026c.08.009.158.026.24.038l.373.744-.72-.037-.371-.783c.063.006.127.006.187.012zm3.157 1.608l-.685-.237-.136-.854c.107.037.21.072.314.112l.19.078c.058.023.11.055.164.078l.153.823zm1.61.236l.058.044.383.314c.04.035.078.072.115.104l-.095.831-.579-.43.118-.863zm18.524.54c0-.28.03-.6.271-.6h3.5c.245 0 .27.32.27.6v.17H77.46l-.003-.17zm4.238.17v-.17c0-.372-.047-.794-.467-.794h-3.5c-.418 0-.466.422-.466.794l.002.17H60.042L60 53.76c-.107-.107-.222-.202-.334-.306-.006-.003-.003-.014-.009-.02l-.152-.127a11.8 11.8 0 00-.4-.326l-.18-.144c-.011-.012-.028-.018-.043-.024a9.476 9.476 0 00-1.567-.923c-.008-.009-.011-.023-.023-.026l-.201-.084a6.243 6.243 0 00-.208-.08l-.47-.188c-.014-.009-.03-.009-.051-.006a9.583 9.583 0 00-1.558-.372l.046-.044c.596-.548 1.763-1.12 3.252-1.705 1.498-.592 3.31-1.192 5.19-1.798l24.78-3.135-.95 1.348-.037-.13c-.127-.436-.45-.646-.792-.678a1.034 1.034 0 00-.746.217c-.271.21-.43.562-.303.998l.101.343h-.475c-.052 0-.095.047-.095.102v1.55c0 .054.043.098.095.098h1.054c.006 0 .006-.012.011-.012.006-.003.01.009.018.009l.302-.09.948 3.977a.723.723 0 00-.147.453v1.17h-5.36zm8.64 1.213h-.665v-1.827h.26l.91 1.827h-.504zm.724 0l-.562-1.129h3.687v1.129H91.06zm3.194-12.731l-1.54.271-.093-.563h.668c.121 0 .23-.02.332-.049.034-.011.06-.032.092-.043.06-.026.123-.05.172-.084.032-.023.058-.055.087-.08.04-.038.083-.07.118-.113.023-.032.04-.07.06-.107.023-.04.055-.078.073-.121l.14.871-.109.018zm17.741 5.957c0-.081 0-.165-.003-.266-.003-.07-.003-.15-.003-.23h.527v.496h-.521zm-.841.594l-.268-.005v-1.68l.181-.006c.084-.003.167-.006.257-.006.259 0 .466.032.466.222 0 .099.003.185.003.28 0 .003-.003.003-.003.003v.696c0 .003.009.003.009.008 0 .214-.012.347-.058.413-.06.084-.233.084-.587.075zm-1.654-11.134c-.014-.422.064-.852.199-1.55l2.181-12.05h10.787v22.532h-9.987l-2.814-7.397c-.239-.693-.348-1.114-.366-1.535zm-.075-8.578l-.452-.058.052-.274 1.95-.78-.233 1.28-1.317-.168zm-.371 1.558l-.349-.08.234-1.345.357.046-.242 1.38zm.809.468a.28.28 0 01.038.216l-.686 3.086a.299.299 0 01-.129.182.295.295 0 01-.216.037l-1.372-.306a.277.277 0 01-.178-.13c-.04-.06-.058-.138-.04-.216l.688-3.085a.271.271 0 01.127-.18.285.285 0 01.216-.04l.265.06.538.12v.002-.003l.568.127a.288.288 0 01.181.13zm.121-8.352h12.683v1.11h-12.683V22.8zm22.995 1.108h-10.116V22.8h10.116v1.108zm-1.342 11.87v10.858h-8.774V24.105h8.774v11.674zm2.822.099h5.174v16.13h-7.15a8.336 8.336 0 00-.279-.133c-.006-.002-.006-.008-.009-.011l-.172-.07-.049-.022c-.026-.01-.052-.023-.078-.032a.65.65 0 01-.066-.029V35.878h2.629zm.093-.324c-.003-.075-.006-.15-.006-.24 0-.334.049-.649.38-.649.222 0 .455-.002.657-.005.579-.009.89-.012 1.034.075l.006.003c.141.089.141.329.138.83v.113h-2.207l-.002-.127zm7.232-.58h2.161v.97l-1.227-.07-.934-.06v-.84zm.193-2.1h1.778v1.907h-1.778v-1.908zm1.778-.194h-1.778v-.598h1.778v.598zm-2.861-.886l-.003-.006c-.008-.043-.011-.09-.008-.139.006-.054.011-.112.029-.167.046-.159.152-.297.337-.297h3.231c.188 0 .294.138.34.297a.824.824 0 01.029.165c0 .054 0 .103-.011.147-.012.055-.023.092-.032.092h-3.88c-.012 0-.023-.037-.032-.092zm6.957-2.884c0-.686.279-1.31.731-1.763a2.467 2.467 0 011.665-.733l-.003 1.388a2 2 0 00-.867.699c-.222.32-.351.704-.351 1.12v6.727c-.389-.035-.784-.066-1.175-.098v-7.34zM112.515 54.18v3.183l-3.589-3.183h3.589zm-2.687-.194h-1.06v-1.088h1.06v1.088zm3.643-3.783v-.618l.608-1.056h2.849v1.674h-3.457zm4.217 0h-.567V48.53h.567v1.672zm-.564 3.388v-2.48h.564v2.479h-.564zm-3.653-.693h3.457v.69h-3.457v-.69zm3.457-.196h-3.457v-1.593h3.457V52.7zm-4.217.098v-1.688h.565v2.479h-.565V52.8zm0 1.697h.565v2.271h-.565v-2.27zm.76 0h3.457v2.271h-3.457v-2.27zm4.217 2.271h-.567v-2.27h.567v2.27zm0-2.684v.22h-4.977v-.52h4.977v.3zm-4.977-5.74V46.83h10.205v4.727h-1.892l-1.457-3.16a.095.095 0 00-.093-.064h-5.452a.1.1 0 00-.084.05l-.622 1.076h-.605v-1.117zm0 1.313h.565v.543h-.565v-.543zm0 .742h4.977v.516h-4.977v-.516zm-.196 2.5v1.087h-2.489v-1.088h2.489zm5.173 4.582h-4.977v-.516h4.977v.516zm4.779-4.418h-2.774a.25.25 0 00-.158.055.193.193 0 00-.075.153v.118a1.934 1.934 0 00-.006.115c0 .182.038.318.239.318h1.93c-.052.052-.098.11-.15.164h-3.589v-1.088h4.802c-.072.055-.147.107-.219.165zm-2.774.563c-.037 0-.043-.053-.043-.122 0-.04.003-.072.003-.106.003-.047.006-.09.006-.127v-.003a.059.059 0 01.034-.012h1.703v.37h-1.703zm2.184-.044c-.006.003-.015 0-.021.006l-.037.037h-.23v-.369h.642a7.381 7.381 0 00-.354.326zm-.32.603l.354-.375c.02-.017.038-.032.055-.049l.824.162-.476.545-.846-.184.089-.099zm2.434-2.115c-.003.003-.003 0-.006 0l-.04.023c-.208.11-.409.23-.605.355l-.173.1c-.003 0-.006.007-.009.01a9.055 9.055 0 00-.21.144h-5.064v-4.175h1.53l1.46 3.172a.095.095 0 00.087.058h3.681c-.222.093-.435.202-.651.312zm.046.196l.755.381-.605.395-.769-.412.014-.012.605-.352zm2.126-.794l.449-.1.124-.018.59.592-.697.187-.596-.629a2.12 2.12 0 01.13-.032zm2.906-.219l.288.026c.084.009.161.026.242.038l.375.744-.723-.037-.369-.783c.06.006.124.006.187.012zm.625-.121c-.011-.003-.017-.017-.029-.017l-.279-.03c-.101-.01-.205-.02-.308-.028l-.349-.035a.09.09 0 00-.055.009c-.002 0 0 .006-.002.006-.127-.006-.254-.02-.384-.02a9.08 9.08 0 00-1.523.135c-.009 0-.015-.009-.023-.006l-.164.035c-.156.029-.309.063-.461.098l-.3.07a.07.07 0 00-.043.022 7.444 7.444 0 00-.611.194s0-.006-.003-.006h-2.048v-4.727h8.524v4.727h-.199l-.121-.046a.082.082 0 00-.052-.006 9.792 9.792 0 00-1.57-.375zm2.532 1.729l-.685-.237-.136-.854c.104.037.21.072.314.112l.19.078c.055.023.11.055.164.078l.153.823zm1.607.236a.73.73 0 01.058.044l.383.314c.04.035.081.072.118.107l-.095.828-.582-.43.118-.863zm1.789 1.813l.305.424a.273.273 0 01.023.038l-.311.782-.449-.569.337-.802c.032.04.063.086.095.127zm5.156 1.175h-2.359c.101-.145.202-.298.288-.448.239-.427.464-.82.916-.82.395 0 .614.384.853.806.092.156.196.311.302.462zm.231 0a4.642 4.642 0 01-.363-.56c-.271-.474-.516-.904-1.023-.904-.567 0-.815.442-1.083.918a4.395 4.395 0 01-.351.546h-.458c.138-.185.27-.379.4-.586.406-.647.812-1.296 1.463-1.296.648 0 1.057.65 1.461 1.296.129.207.265.4.4.586h-.446zm1.097 2.663c.006-.052.012-.103.023-.155l.772-.344-.078.719-.803.337.086-.557zm-.046 2.987l-.066-.49c0-.012 0-.02-.003-.032l.642-.545.133.712-.674.552a4.454 4.454 0 01-.032-.197zm-4.453-.704c.265.428.608.762 1.019.956a2.545 2.545 0 002.155-.015c.409-.196.746-.534 1.008-.964.003.058.003.113.006.168 0 .005-.006.008-.006.014l.012.075c.005.075.017.153.026.228a3.085 3.085 0 01-.384.39 2.779 2.779 0 01-3.491.011 2.897 2.897 0 01-.386-.386c.021-.156.029-.315.041-.477zm-.176-.918l.012.24-.689.488-.066-.722.717-.49c.015.161.02.323.026.484zm4.511-1.601l-.026.176c-.205-.442-.487-.803-.847-1.04a2.53 2.53 0 00-1.362-.403 2.546 2.546 0 00-1.372.386c-.365.234-.65.595-.861 1.034a11.163 11.163 0 00-.098-.456 2.74 2.74 0 012.322-1.253 2.723 2.723 0 012.316 1.27c-.02.095-.052.188-.069.283 0 .003-.003.003-.003.003zm-.138.94a9.01 9.01 0 00-.049.933c0 .104.011.205.017.312a2.269 2.269 0 01-1.075 1.1 2.324 2.324 0 01-1.987.01 2.262 2.262 0 01-1.089-1.084c.003-.11.017-.217.017-.327v-.003c0-.002.003-.005.003-.008 0-.217-.02-.424-.034-.635l-.015-.303v-.003c-.017-.156-.046-.309-.069-.465.182-.534.516-.926.916-1.18a2.33 2.33 0 011.265-.358c.44.003.884.124 1.258.372.401.26.726.658.905 1.192-.02.145-.049.289-.063.436v.012zm-4.779-1.812l-.516.675-.276-.67.544-.683.248.678zm5.461-.892a9.29 9.29 0 00-.409 1.241 2.972 2.972 0 00-.778-.759 2.981 2.981 0 00-1.601-.47 2.982 2.982 0 00-1.602.459c-.296.19-.556.45-.78.756-.032-.116-.055-.237-.089-.35v-.002l-.003-.006a9.86 9.86 0 00-.539-1.336h6.026c-.078.156-.156.306-.225.464v.003zm.565-.721l.841-.101-.285.666-.87.084.314-.65zm1.319-1.839l.357-.378c.017-.017.038-.032.058-.049l.821.162-.476.545-.846-.184.086-.096zm1.613-1.64c-.003 0-.006.007-.009.01a9.113 9.113 0 00-1.281 1.024c-.006.003-.015 0-.021.006l-.077.08c-.035.032-.069.061-.101.093-.095.098-.182.2-.274.3l-.196.208c-.008.009-.011.017-.017.029a9.27 9.27 0 00-1.106 1.593h-.003l-.003.012c-.034.057-.06.12-.092.181h-1.109c-.167-.207-.32-.447-.475-.69-.432-.692-.87-1.385-1.625-1.385-.757 0-1.192.693-1.627 1.386a7.498 7.498 0 01-.473.69h-.904a8.963 8.963 0 00-.449-.774c0-.006.002-.009 0-.014l-.047-.067a8.252 8.252 0 00-.337-.462l-.172-.242c-.003-.006-.012-.009-.015-.012a9.23 9.23 0 00-.668-.753c-.109-.107-.225-.202-.337-.306-.003-.003 0-.014-.006-.02l-.152-.127c-.13-.11-.265-.22-.404-.326l-.175-.144c-.012-.012-.029-.018-.044-.024a9.216 9.216 0 00-.944-.608h13.713c-.138.077-.273.164-.406.248l-.164.095zm.87-.282l.755.381-.608.395-.769-.412c.006-.003.008-.006.011-.006l.611-.358zm2.126-.794l.452-.1.121-.018.59.592-.697.187-.596-.629a2.12 2.12 0 01.13-.032zm2.906-.219l.288.026c.084.009.161.026.242.038l.375.744-.723-.037-.372-.783c.063.006.127.006.19.012zm3.154 1.608l-.683-.237-.135-.854c.104.037.21.072.314.112l.19.078c.055.023.107.055.164.078l.15.823zm6.017-14.734c1.132.303 1.775.736 2.169 1.235.395.494.548 1.06.697 1.622l2.311 9.57-1.184 1.455h-9.774c-.08-.04-.161-.08-.242-.118-.011-.009-.011-.023-.023-.026l-.204-.084a5.585 5.585 0 00-.208-.08l-.466-.188a.08.08 0 00-.052-.006h-.003a9.68 9.68 0 00-1.567-.375c-.011-.003-.017-.017-.029-.017l-.279-.03a9.706 9.706 0 00-.311-.028l-.346-.035a.096.096 0 00-.057.009v.006c-.127-.006-.254-.02-.381-.02-.524 0-1.028.051-1.526.135-.009 0-.018-.009-.023-.006l-.167.035a7.92 7.92 0 00-.458.1l-.303.067a.064.064 0 00-.04.023 9.184 9.184 0 00-1.656.638h-7.106V35.883c.625.038 1.23.081 1.849.119.006 0 .006.005.008.005l1.075.064c2.699.173 5.369.36 7.964.615 3.56.346 7.017.8 10.332 1.44zm6.383 11.444l1.766.291-.573 4.058c-.009-.012-.006-.026-.014-.038l-.003-.005a.387.387 0 00-.274-.113h-.248v-1.01c0-.205-.08-.39-.216-.525h-.003a.73.73 0 00-.524-.22h-.262l.351-2.439zm1.089 6.372a.2.2 0 01-.052.133.196.196 0 01-.135.055h-2.376v-2.17h2.376c.055 0 .101.022.135.054l.003.006a.178.178 0 01.049.127v1.795zm-1.797.984h.619a.722.722 0 00.507-.202c.017-.014.026-.037.04-.052v.664l-1.166.644v-1.054zm-1.607 0h1.414v1.16l-1.967 1.086.553-2.246zm.069-2.967h.579v2.168h-.579V53.96zm0 2.771v-.404h2.687a.539.539 0 01-.155.257.54.54 0 01-.375.147h-2.157zm2.157-4.525a.55.55 0 01.55.548v1.01h-2.707v-1.558h2.157zm-4.462 0H165v4.524h-1.567a.536.536 0 01-.386-.162.541.541 0 01-.159-.383v-3.98zm-4.326 1.05h-.438c-.236 0-.274-.245-.274-.554 0-.101 0-.194.006-.286l.006-.21h.7v1.05zm2.35 0h-2.154v-1.05h2.154v1.05zm.896-1.05l.009.21c.003.093.006.188.006.286 0 .309-.041.554-.274.554h-.441v-1.05h.7zm-5.159.891l.061.047.38.308.118.11-.095.828-.582-.43.118-.863zm1.792 1.822l.3.415c.008.012.017.023.025.038l-.311.782-.449-.569.337-.802c.035.043.066.09.098.136zm.965 1.166a9.818 9.818 0 00-.449-.774c-.003-.006.002-.009 0-.014l-.049-.067c-.104-.156-.216-.306-.329-.459l-.178-.245c-.003-.006-.012-.009-.015-.012a8.732 8.732 0 00-.671-.753c-.104-.107-.222-.202-.331-.303-.006-.006-.003-.017-.012-.023l-.152-.127c-.13-.11-.262-.22-.398-.323l-.178-.147a.099.099 0 00-.044-.02 8.487 8.487 0 00-.944-.612h2.01c-.003.069-.003.138-.006.202a10.66 10.66 0 00-.005.294c0 .416.066.75.469.75h3.425c.4 0 .469-.334.469-.75 0-.087-.005-.19-.008-.294-.003-.064-.003-.133-.006-.202h.689v3.879h-3.287zm-69.03 10.958c-.09.156-.187.312-.29.462h-.64a5.61 5.61 0 00.858-1.515 5.498 5.498 0 00.343-1.917 5.485 5.485 0 00-.77-2.808 5.52 5.52 0 00-2.004-1.971l.331-.398a5.982 5.982 0 012.486 2.849v.002c.138.335.248.681.326 1.03a5.99 5.99 0 01-.64 4.266zm87.226-11.859c-.582-.597-1.374-1.016-2.282-1.016h-2.601l-.049-.09a1.26 1.26 0 00-.288-.346 1.028 1.028 0 00-.636-.23 1.253 1.253 0 00-.657.172c-.15.09-.291.206-.406.35l-2.348 2.724c-.003 0 0 0 0 .003-.014.012-.031.023-.043.038a1.781 1.781 0 00-.199.24v-.702h.248a.373.373 0 00.268-.113l.006-.002a.386.386 0 00.109-.269v-1.279l.689-4.868a.102.102 0 00-.084-.11l-1.959-.326c-.052-.009-.1.029-.109.084l-.372 2.565h-1.587l1.112-1.368c.017-.026.023-.057.017-.084l-2.318-9.625c-.156-.58-.314-1.166-.735-1.694-.42-.525-1.095-.984-2.273-1.302l-.008-.003c-3.321-.64-6.784-1.093-10.358-1.44-.499-.049-1.014-.083-1.521-.127V29.62c0-.372.121-.721.32-1.007a1.76 1.76 0 01.835-.652.099.099 0 00.066-.092v-1.556a.098.098 0 00-.095-.098 2.697 2.697 0 00-2.69 2.696v7.322c-1.164-.093-2.331-.188-3.514-.269V34.88a.098.098 0 00-.098-.098h-.093v-2.699h.856c.118 0 .193-.104.222-.25a.706.706 0 00.014-.194.797.797 0 00-.037-.21c-.064-.232-.228-.442-.525-.442h-3.231c-.294 0-.456.21-.525.441a.932.932 0 00-.023.396v.008c.029.147.107.251.225.251h.855v2.699h-.095a.097.097 0 00-.097.098v.924c-.62-.038-1.228-.084-1.853-.119 0-.003 0 0-.003 0-.002 0 0-.003-.002-.003h-2.777v-.11c.006-.58.006-.85-.228-.998l-.008-.006c-.193-.115-.522-.11-1.135-.1l-.657.002c-.504 0-.576.41-.576.846 0 .072.003.159.006.245v.121h-2.526V24.105h1.247a.097.097 0 00.098-.098v-1.302a.1.1 0 00-.098-.1h-23.191a.098.098 0 00-.095.1v1.302c0 .055.043.098.095.098h1.798l-.669 3.686-2.105.84a.095.095 0 00-.066.075l-.081.43-.248 1.428-.161-.037a.48.48 0 00-.363.066.478.478 0 00-.213.303l-.689 3.082c-.028.13 0 .26.064.367a.488.488 0 00.305.21l1.368.31a.487.487 0 00.579-.37l.686-3.082a.487.487 0 00-.366-.58l-.481-.107.245-1.394 1.218.153-1.198 6.63c-.138.715-.219 1.15-.202 1.595.015.445.127.883.372 1.593l2.837 7.45v.799h-.53v-.188c0-.357-.294-.418-.662-.418-.078 0-.17.006-.262.006a4.047 4.047 0 01-.271.008.1.1 0 00-.101.099v1.873a.1.1 0 00.101.098c.155 0 .265.003.36.005.423.006.631.012.752-.158.063-.093.083-.234.089-.436h.524v2.381l-6.075-4.309c-5.343-3.798-7.734-5.49-12.092-5.51-.64-3.867-1.31-7.749-1.898-11.613a.878.878 0 00-.366-.569.89.89 0 00-.654-.153c-.095.015-.193.035-.288.052a.904.904 0 00-.726 1.036l1.481 9.025h-3.232a.099.099 0 00-.098.098v1.045h-.288a.097.097 0 00-.098.098v1.013l-25.328 3.022-12.93 1.544v-3.18c.15-.01.256-.03.328-.09.136-.107.13-.286.124-.652a12.103 12.103 0 01-.005-.378.332.332 0 00-.098-.234l-.003-.003a.329.329 0 00-.23-.095c-.22 0-.378-.003-.51-.006-.398-.009-.6-.012-.723.084-.136.11-.13.291-.121.655l.002.378a.34.34 0 00.098.237h.003c.06.06.141.095.234.095.072 0 .135 0 .196.003v3.267l-1.017.124h-3.264a1.267 1.267 0 00-1.267 1.27v7.204l-5.574.505c-.415.037-.665.294-.755.603a.918.918 0 00-.037.364.872.872 0 00.1.349.79.79 0 00.565.427v1.264l-.417-.052-.023-.387a.532.532 0 00-.162-.37.555.555 0 00-.386-.132h-1.575a.585.585 0 00-.415.173l-.003.003a.588.588 0 00-.167.413v8.984a4.11 4.11 0 01-.055.592 1.445 1.445 0 01-.106.384.095.095 0 00.034.133c.035.02.075.017.107-.006l3.18-2.168 6.144-3.757c.008.06.017.118.026.173l.049.355c0 .006.005.011.008.02.119.626.3 1.23.536 1.804v.006l.014.029c.09.219.196.43.303.64l.09.188.002.006a9.194 9.194 0 001.13 1.639c.002.006 0 .012.002.014l.21.226c.096.1.185.207.283.308l.089.078.066.073a.102.102 0 00.038.023c.403.383.838.733 1.307 1.041.003 0 0 .006.006.01l.268.155c.156.095.311.193.475.277l.075.043c.012.009.023.009.035.012a9.328 9.328 0 001.621.65c.006 0 .006.005.012.008l.325.075c.168.043.337.09.51.121l.087.023c.011 0 .026 0 .037-.003a9.235 9.235 0 001.657.156c.072 0 .14-.008.213-.011.005.003.008.008.014.008l.36-.026c.161-.011.323-.02.484-.037l.1-.006c.015-.003.027-.009.038-.014a9.243 9.243 0 001.772-.407c.006-.003.011.003.017.003l.274-.113c.17-.06.337-.124.498-.196l.104-.04a.118.118 0 00.04-.03 9.3 9.3 0 001.772-1.073c.005-.003.014.003.02-.003l.106-.092c.139-.11.271-.228.404-.347l.207-.176a.13.13 0 00.023-.031c.055-.052.112-.099.167-.15.369-.373.703-.78 1.005-1.207.003-.006.012-.003.015-.009l.052-.08c.1-.145.19-.295.282-.445l.173-.268c.005-.009.005-.02.008-.03a9.43 9.43 0 00.807-1.892c0-.003.003-.003.005-.006l.081-.335c.046-.176.095-.352.13-.531l.011-.05c.003-.008 0-.02 0-.028a9.52 9.52 0 00.17-1.735v-.011c0-.19-.017-.375-.029-.563l-.02-.375v-.003a9.245 9.245 0 00-.365-1.818v-.003l-.003-.006a9.38 9.38 0 00-1.08-2.306c-.003-.006.002-.009-.003-.014l-.05-.067c0-.006-.005-.011-.008-.017h15.724v3.137c0 .055.044.098.098.098h12.389c.838 0 1.538.038 2.12.116.582.075 1.051.187 1.437.337.839.327 1.225.843 1.446 1.478h-1.333v-.493a.097.097 0 00-.098-.099h-1.76a.099.099 0 00-.098.099v.588c0 .055.046.098.098.098h.484v.526h-1.12a6.16 6.16 0 00-1.816-2.081 7.611 7.611 0 00-.52-.335.106.106 0 00-.13.029l-.453.551c-.034.04-.026.104.015.139l.017.008a5.321 5.321 0 012.028 1.954 5.304 5.304 0 01-.544 6.174.1.1 0 00.011.138c.017.017.04.023.063.026h.896a.106.106 0 00.084-.049c.118-.167.227-.338.325-.514a6.164 6.164 0 00.663-4.401c-.06-.286-.162-.56-.262-.834h.743v3.446h-.464a6.596 6.596 0 01-.055.234c-.017.058-.032.118-.049.182h.568v.34h-.188a.37.37 0 00-.36.237.42.42 0 00-.028.159c0 .052.008.103.028.155a.37.37 0 00.36.237h1.17c.006 0 .009-.006.014-.006.556-.023 1.008-.098 1.415-.23.538-.18.99-.45 1.48-.82.743-.202 1.219-.563 1.512-.982.395-.568.456-1.238.392-1.766-.075-.51-.155-1.036-.233-1.558l.236-.938h5.608a.097.097 0 00.098-.099v-1.648a.097.097 0 00-.098-.098h-3.701l-1.463-2.052a.095.095 0 00-.087-.049h-.48v-.329h.227a.098.098 0 00.098-.095v-1.105a.1.1 0 00-.098-.098h-2.146l.884-.28a.698.698 0 00.513-.624.776.776 0 00-.038-.303.786.786 0 00-.14-.265.65.65 0 00-.125-.113l-1.682-8.59c3.497.061 6.337 2.627 10.203 6.137.662.6 1.354 1.23 2.079 1.87l5.378 4.77v.953c0 .055.043.098.098.098h.761a.099.099 0 00.097-.098v-.897h3.457v.897c0 .055.043.098.098.098h.76a.099.099 0 00.098-.098v-1.61h1.708a9.042 9.042 0 00-.463 1.544c0 .003-.003.003-.003.003l-.052.343c-.029.194-.069.387-.086.586v.009a9.01 9.01 0 00-.047.935c0 .268.018.53.038.79 0 .006-.006.01-.006.015l.012.075c.014.17.043.34.069.51l.049.356c0 .006.006.011.008.02a9.05 9.05 0 00.536 1.804s-.003.003 0 .006l.012.029c.089.21.19.412.291.611l.1.217.006.006a9.194 9.194 0 001.126 1.639c.006.006 0 .012.006.014l.21.226c.096.1.182.207.28.308l.089.078.069.073a.11.11 0 00.038.025c.403.381.838.73 1.305 1.04.005 0 .002.005.005.008l.271.156c.156.095.311.193.473.277l.077.043c.012.009.02.009.035.012a9.3 9.3 0 001.622.65c.005 0 .005.005.011.008l.323.075c.17.043.34.09.512.121l.087.023c.011 0 .023 0 .037-.003a9.213 9.213 0 001.656.156c.073 0 .139-.008.211-.011.006.003.008.008.017.008l.357-.026c.162-.011.326-.02.484-.037l.104-.006a.195.195 0 00.037-.014 9.253 9.253 0 001.772-.407c.006-.003.008.003.017.003l.274-.113c.167-.06.334-.124.498-.196l.101-.04a.08.08 0 00.04-.03 9.135 9.135 0 001.772-1.073c.008-.003.017.003.023-.003l.106-.092c.138-.11.271-.228.403-.347l.208-.176c.009-.008.014-.02.02-.031.055-.052.115-.099.17-.15.369-.373.7-.78 1.005-1.207.003-.006.012-.003.015-.009l.049-.078c.1-.147.193-.297.288-.453l.17-.262c.005-.009.005-.02.005-.03.046-.077.09-.158.133-.239h6.23c.012 0 .012-.014.023-.017l.046.1.003.007c.317.589.7 1.137 1.132 1.639 0 .006 0 .012.003.014l.202.217c.098.104.187.216.288.317.029.026.063.052.092.081l.066.07a.084.084 0 00.038.023c.403.383.838.733 1.307 1.041 0 0 0 .006.006.01l.262.152c.156.095.314.194.481.28l.075.043c.009.009.02.009.035.012a9.3 9.3 0 001.622.65c.005 0 .005.005.011.008l.323.075c.17.043.337.09.509.121l.087.023c.014 0 .026 0 .037-.003a9.28 9.28 0 001.662.156c.069 0 .139-.008.208-.011.006.003.008.008.017.008l.357-.026c.162-.011.326-.02.487-.037l.101-.006a.195.195 0 00.037-.014 9.305 9.305 0 001.772-.407c.005-.003.011.003.017.003l.274-.113c.167-.06.334-.124.498-.196l.104-.04a.147.147 0 00.037-.027 9.467 9.467 0 001.774-1.076c.006-.003.015.003.021-.003l.106-.092a6.35 6.35 0 00.403-.35l.208-.173c.009-.008.014-.02.02-.031.055-.052.115-.099.167-.15a9.86 9.86 0 001.008-1.207c.003-.006.012-.003.012-.009l.052-.078c.1-.144.193-.297.285-.447l.17-.268c.005-.009.005-.02.008-.03a9.125 9.125 0 00.807-1.892c0-.003.006-.003.006-.006l.08-.323c.046-.18.095-.361.13-.546l.014-.046c.003-.009 0-.02 0-.03a9.67 9.67 0 00.165-1.67l.642 1.604a.779.779 0 00.017.047l.026.057c.003.01.014.003.02.01.072.14.15.276.262.386.268.271.64.436 1.052.436.409 0 .78-.165 1.048-.436.072-.072.115-.168.173-.254 0 0 .003.006.006.003l6.386-2.47c.003-.004.003-.01.003-.012.302-.084.573-.24.789-.453.014-.018.026-.04.043-.055.003-.003.003 0 .006 0l1.935-1.683c.072-.075.147-.138.219-.208.404-.375.818-.767.654-1.284h.988c.801 0 1.484.271 2.048.658.807.557 1.377 1.354 1.717 1.942a.1.1 0 00.084.05.099.099 0 00.097-.099V57.59c0-.805-.4-1.726-1.065-2.407zm-9.71-.055a.324.324 0 01-.317.205.321.321 0 01-.317-.205.366.366 0 01-.029-.147c0-.05.009-.101.029-.144a.321.321 0 01.317-.205c.164 0 .271.09.317.205a.406.406 0 010 .291zm-.317-.693a.51.51 0 00-.498.327.645.645 0 00-.044.219c0 .075.018.15.044.222a.51.51 0 00.498.326.506.506 0 00.495-.326.594.594 0 000-.441.506.506 0 00-.495-.327zm-4.715 7.256a.397.397 0 01-.389.248c-.205 0-.334-.106-.392-.248a.549.549 0 01-.032-.179c0-.063.012-.124.032-.181a.401.401 0 01.392-.249c.201 0 .331.11.389.248a.484.484 0 01.031.182c0 .06-.008.121-.031.18zm-.389-.805a.586.586 0 00-.571.372.713.713 0 00-.049.254c0 .084.018.17.049.251a.586.586 0 00.571.373.582.582 0 00.567-.373.689.689 0 000-.505.582.582 0 00-.567-.372zm.754.97c-.109.277-.36.49-.754.49-.398 0-.648-.213-.758-.49a.937.937 0 010-.69c.11-.274.36-.49.758-.49.394 0 .645.216.754.49a.91.91 0 010 .69zm.179-.762c-.135-.344-.446-.615-.933-.615-.49 0-.801.271-.939.615a1.086 1.086 0 00-.078.418c0 .142.023.283.078.419.138.343.449.609.939.609.487 0 .798-.266.933-.61a1.11 1.11 0 000-.836zm-30.619-24.047c0-.032.014-.061.034-.084a.129.129 0 01.084-.035c.069 0 .153-.003.236-.006.066-.002.133-.005.205-.005.184 0 .325.02.325.13v2.891c0 .107-.141.127-.325.127-.072 0-.139-.002-.205-.005-.083 0-.167-.006-.236-.006a.116.116 0 01-.084-.035.116.116 0 01-.034-.08v-2.892zm.118 3.203c.083 0 .158.003.228.006.077.003.152.006.213.006.293 0 .518-.05.518-.324v-2.892c0-.274-.225-.326-.518-.326a2.84 2.84 0 00-.213.009c-.07 0-.145.003-.228.003a.313.313 0 00-.314.315v2.891a.313.313 0 00.314.312zm-21.937-3.53l.043-.334 1.8-10.552h7.172a1.197 1.197 0 011.193 1.195v17.204c0 .329-.136.63-.352.846l-.002.002a1.181 1.181 0 01-.839.347h-6.363l-2.451-6.684c-.337-.976-.305-1.236-.201-2.024zm2.586 8.904h6.429c.381 0 .723-.153.974-.401l.006-.006c.253-.254.409-.6.409-.984V27.029c0-.384-.156-.73-.409-.982a1.372 1.372 0 00-.98-.41h-7.256a.099.099 0 00-.095.081c-.613 3.588-1.411 7.398-1.857 10.976-.107.823-.142 1.094.213 2.113l2.471 6.748c.012.04.049.07.095.07zm16.612-2.502a1.2 1.2 0 01-.349.846 1.2 1.2 0 01-.841.349h-3.39a1.194 1.194 0 01-1.193-1.195V27.029c0-.33.133-.63.352-.843.216-.216.512-.352.841-.352h3.39c.326 0 .625.136.841.352.216.213.349.514.349.843v16.093zm-1.19-17.484h-3.39c-.38 0-.726.155-.977.406l-.003.003c-.253.252-.409.6-.409.982v16.093c0 .384.156.73.409.981.251.254.6.41.98.41h3.39c.38 0 .726-.156.977-.407l.002-.003c.251-.251.407-.6.407-.981V27.029c0-.384-.156-.73-.407-.982a1.373 1.373 0 00-.979-.41zM110.43 36.172c.694-3.755 1.267-7.6 1.898-11.374h9.687V45.88h-8.958l-2.437-6.757c-.481-1.353-.383-1.893-.19-2.952zm2.558 9.905h9.125a.099.099 0 00.098-.098V24.7a.097.097 0 00-.098-.095h-9.869a.096.096 0 00-.095.081l-1.909 11.452c-.202 1.091-.303 1.648.198 3.051l2.455 6.814a.097.097 0 00.095.075zm18.195-.53a.097.097 0 00.098-.099V24.7a.097.097 0 00-.098-.096h-7.811a.097.097 0 00-.098.096v20.748c0 .055.043.098.098.098h7.811z" fill="#fff"/></svg>