<svg width="255" height="181" fill="none" xmlns="http://www.w3.org/2000/svg"><path d="M254.243 140.458a108.864 108.864 0 01-1.163 8.767v.041c0 1.122-.341 1.958-.851 2.535a3.058 3.058 0 01-2.28.994h-3.917l-.066-.591a.21.21 0 00-.015-.077c-.011-.015-.021-.015-.031-.03-.454-2.856-1.372-5.559-2.723-8.002 0-.005.005-.005.005-.01l-.49-.791c-.234-.388-.459-.785-.719-1.163l-.097-.163a.173.173 0 00-.051-.056c-.005-.005-.01.005-.015 0a24.88 24.88 0 00-2.004-2.494c.678-.352 1.377-.836 2.101-1.448.76-.638 1.535-1.403 2.325-2.229 1.77 1.897 3.407 3.993 4.932 6.242.077.118.143.22.199.311.143.23.24.388.388.434.239.066.382-.153.571-.811a3.91 3.91 0 00.102-1.708 4.107 4.107 0 00-.643-1.617 51.272 51.272 0 00-4.733-6.14 41.21 41.21 0 00-5.038-4.723 35.9 35.9 0 00-6.635-4.141 36.437 36.437 0 00-6.967-2.509.135.135 0 00-.066-.005 77.708 77.708 0 00-8.155 1.111c-2.494.475-4.814 1.071-6.737 1.744a4.523 4.523 0 00-1.596.995c-.067.056-.102.127-.158.189a.184.184 0 00-.082.097c-.383.433-.678.887-.831 1.28-.067.142.025.306.178.454.168.163.429.341.571.428.123.066.495-.031 1.087-.189.739-.199 1.851-.505 3.075-.719.699-.127 1.362-.209 2.04-.301.102 1.132.234 2.209.423 3.178.194.943.444 1.774.765 2.483-.342.061-.668.148-.999.23l-.796.173a.266.266 0 00-.061.026c-.01.005 0 .015-.005.02a24.447 24.447 0 00-6.482 2.866c-.021.005-.036-.01-.051 0l-.311.219c-.332.215-.648.444-.964.674l-.76.53a.187.187 0 00-.056.056c-.005.005.01.015.005.021-.765.606-1.51 1.234-2.198 1.922a25.238 25.238 0 00-3.025 3.677h-.005l-.51.847c-.239.393-.494.775-.714 1.188l-.066.102c-.01.021-.02.041-.02.067v.01a24.502 24.502 0 00-2.402 6.808c0 .005-.016.005-.016.015l-.183 1.281c-.041.321-.107.637-.138.963l-.031.225a.126.126 0 000 .061c.005.01.011.015.016.026-.046.51-.067 1.035-.082 1.555h-1.938c1.173-5.161 2.489-9.848 3.983-14.004 2.27-6.314 4.911-11.552 7.92-15.917l.005-.011c.419-.637.633-1.157.612-1.591-.02-.464-.295-.811-.851-1.066l-.021-.01-.877-.311 24.72-13.173.54-.291 5.605-2.983c.964-.556 1.795-.954 2.647-1.173.852-.225 1.739-.281 2.8-.158l7.267.754c.974.107 1.546.215 1.933.546.393.342.633.928.949 1.994.178.607.316 1.275.428 1.943.112.668.199 1.341.27 1.959l.046.448c.73 6.431 1.449 12.837 1.5 19.095a91.083 91.083 0 01-.383 9.021zm-39.81-36.418c.041-.046.082-.092.138-.138.642-.51 1.203-.974 1.688-1.377 2.693-2.234 2.805-2.331 5.538-.326l.005.005c.118.086.215.178.291.28a.906.906 0 01.209.541c.005.183-.061.377-.204.571a1.83 1.83 0 01-.331.326c-.449.352-.872.694-1.25.995l-.01.01c-1.428 1.137-2.147 1.714-2.739 1.79-.576.072-1.111-.342-2.193-1.178-.255-.194-.545-.418-.882-.668a1.374 1.374 0 01-.214-.209l-.005-.01a.586.586 0 01-.133-.311.488.488 0 01.092-.301zm-.245.851c.077.092.174.184.286.271.321.239.612.464.877.668 1.163.902 1.739 1.346 2.463 1.249.694-.086 1.438-.683 2.923-1.866l.01-.011c.357-.285.76-.606 1.249-.989a2.08 2.08 0 00.398-.398c.194-.265.28-.535.275-.8a1.261 1.261 0 00-.285-.755 1.818 1.818 0 00-.362-.347l-.01-.01c-2.958-2.173-3.086-2.066-5.988.341a84.03 84.03 0 01-1.678 1.372 1.158 1.158 0 00-.204.204.789.789 0 00-.168.541c.015.178.087.357.209.52l.005.01zM97.052 12.276c-.397.505-.964.8-1.555.867a2.334 2.334 0 01-1.704-.484l-.02-.016a2.319 2.319 0 01-.857-1.55 2.334 2.334 0 01.485-1.703l.015-.02a2.312 2.312 0 011.55-.852 2.295 2.295 0 011.714.49c.505.397.796.963.867 1.555a2.321 2.321 0 01-.495 1.713zM94.926 8.15a2.668 2.668 0 00-1.806 1.005 2.658 2.658 0 00-.566 1.979 2.682 2.682 0 001 1.805 2.67 2.67 0 001.984.566 2.682 2.682 0 001.805-1 2.67 2.67 0 00.566-1.983 2.693 2.693 0 00-2.983-2.372zm-44.253 6.834a1.149 1.149 0 01-.31.316c-.302.21-.71.26-1.123-.01-.413-.275-.53-.668-.454-1.03a1.24 1.24 0 01.169-.408c.086-.122.188-.23.31-.316.302-.21.715-.26 1.123.015.413.27.53.668.454 1.03-.03.143-.087.28-.169.403zm-.081-1.739c-.556-.372-1.117-.3-1.535-.01a1.653 1.653 0 00-.408.413 1.585 1.585 0 00-.22.536c-.107.5.051 1.045.607 1.412.561.367 1.117.296 1.535.01a1.554 1.554 0 00.632-.954c.103-.494-.055-1.04-.611-1.407zm20.303 31.222a1.586 1.586 0 01-1.092.581 1.626 1.626 0 01-1.183-.357 1.62 1.62 0 01-.224-2.259l.02-.025c.28-.337.673-.53 1.081-.566a1.61 1.61 0 011.168.346l.02.02c.337.286.531.68.567 1.082a1.6 1.6 0 01-.357 1.178zm.015-2.55a2.002 2.002 0 00-1.453-.444 2.007 2.007 0 00-1.326.7l-.01.014a1.974 1.974 0 00.27 2.785c.418.347.943.49 1.448.444.505-.046.99-.291 1.336-.714a1.975 1.975 0 00-.255-2.774l-.01-.01zm-9.629-7.313c.245-.515.76-.903 1.52-.857.765.046 1.224.49 1.403 1.035.071.215.102.444.086.674a1.863 1.863 0 01-.163.657c-.245.516-.76.898-1.52.852-.76-.046-1.224-.49-1.407-1.03a1.88 1.88 0 01.081-1.331zm1.306 2.728c.933.056 1.566-.423 1.872-1.066.117-.244.183-.515.198-.79a2.165 2.165 0 00-.102-.811c-.224-.678-.795-1.23-1.728-1.285-.939-.056-1.571.423-1.877 1.066a2.23 2.23 0 00-.2.79c-.014.276.016.556.103.811.224.678.79 1.23 1.734 1.285zm53.876-22.904a.637.637 0 01.612-.413c.291 0 .479.153.556.352a.686.686 0 01.056.27.8.8 0 01-.056.28.627.627 0 01-.612.409c-.291.005-.48-.148-.561-.347a.696.696 0 01-.046-.27.65.65 0 01.051-.28zm.561 1.265c.495-.005.816-.285.954-.643.051-.132.071-.275.071-.413 0-.142-.02-.28-.071-.408-.138-.331-.439-.586-.908-.58a.996.996 0 00-.954.647 1.14 1.14 0 000 .82c.138.332.434.582.908.577zm111.832 84.67c.117-.296.387-.526.811-.526.423 0 .693.23.805.526a.976.976 0 01.072.367c0 .127-.026.26-.072.377-.112.291-.382.52-.805.52-.424 0-.694-.229-.811-.52a1.032 1.032 0 01-.072-.377c0-.128.026-.255.072-.367zm.811 1.632c.596 0 .979-.332 1.147-.755.066-.158.102-.337.102-.51 0-.169-.036-.347-.102-.505-.168-.423-.551-.755-1.147-.755-.597 0-.985.332-1.153.755a1.33 1.33 0 00-.097.505c0 .173.036.352.097.51.168.423.556.755 1.153.755zm-22.063 31.675c-.097.24-.316.429-.668.429-.352 0-.571-.189-.673-.429a.894.894 0 01-.051-.311c0-.107.015-.214.056-.306.097-.244.316-.428.668-.428.352 0 .571.184.668.428a.897.897 0 010 .617zm-.668-1.417c-.525 0-.862.29-1.01.658a1.19 1.19 0 000 .892c.148.372.485.663 1.01.663s.862-.291 1.01-.663c.056-.138.081-.291.081-.444a1.24 1.24 0 00-.081-.448c-.148-.368-.485-.658-1.01-.658zm1.612 1.841c-.23.581-.77 1.04-1.612 1.04-.841 0-1.382-.459-1.612-1.04a2.018 2.018 0 01-.137-.735c0-.255.046-.505.137-.734.235-.581.771-1.04 1.612-1.04.842 0 1.382.459 1.612 1.04.091.229.137.479.137.734 0 .25-.046.505-.137.735zm-1.612-2.877c-1.015 0-1.668.556-1.953 1.275a2.311 2.311 0 000 1.739c.285.714.938 1.27 1.953 1.27 1.015 0 1.668-.556 1.953-1.27.107-.275.164-.576.164-.872 0-.295-.057-.591-.164-.867-.285-.719-.938-1.275-1.953-1.275zm-34.812-25.811V79.269c0-.53.132-.938.433-1.203.306-.27.796-.398 1.495-.362 2.126 0 4.447.045 6.563.142.52.03 1.056.051 1.581.072 4.182.153 7.982.3 8.966 4.442.709 2.937 1.265 6.232 1.744 9.74.474 3.51.862 7.227 1.219 11.001.082.847.127 1.658-.122 2.27-.24.586-.771 1.01-1.852 1.147l-17.355 1.591c-1.239.199-1.902-.091-2.254-.612-.367-.53-.418-1.331-.418-2.091zm2.723 3.071l17.35-1.597c1.239-.153 1.857-.663 2.147-1.372.281-.688.235-1.545.148-2.448-.362-3.779-.75-7.496-1.224-11.01-.474-3.514-1.035-6.824-1.749-9.777-1.046-4.411-4.978-4.564-9.308-4.728a84.467 84.467 0 01-1.575-.06l-6.564-.149c-.801-.04-1.377.118-1.76.454-.387.337-.555.842-.555 1.48v26.136c0 .822.061 1.678.479 2.295.428.633 1.204.995 2.611.776zm-44.762 19.206h-.005c-.546.245-1.245.041-1.933-.484-.719-.551-1.423-1.454-1.933-2.576l-.005-.015c-.51-1.122-.729-2.249-.673-3.162.056-.872.362-1.535.907-1.785l.006-.005c.545-.245 1.244-.041 1.932.484.72.551 1.423 1.454 1.933 2.571l.005.02c.515 1.127.735 2.254.674 3.162-.057.872-.363 1.54-.908 1.79zm.566-5.12c-.541-1.178-1.28-2.127-2.045-2.713-.801-.612-1.632-.832-2.31-.526h-.006c-.678.311-1.055 1.092-1.122 2.096-.061.969.169 2.163.704 3.341l.01.015c.536 1.178 1.281 2.127 2.04 2.713.801.607 1.627.832 2.306.526l.01-.006c.678-.306 1.061-1.086 1.122-2.091.061-.969-.169-2.157-.704-3.34l-.005-.015zm47.613 11.607h-4.212c-.434 0-.73-.051-.903-.224-.174-.184-.255-.51-.255-1.056l-.005-18.304c0-.953.035-1.555.296-1.943.249-.372.744-.581 1.662-.749l13.561-1.668c.928-.107 1.03.112 1.265.592l.107.224.831 1.657c.163.281.301.449.474.572.174.122.362.188.633.26.285.102.525.224.724.377.28.209.464.474.546.77.076.301.051.643-.077 1.02a3.949 3.949 0 01-.581 1.025l-11.781 15.989-.138.183c-.602.801-.954 1.275-2.147 1.275zm2.438-1.055c3.651-5.376 8.032-10.894 11.924-16.172.295-.393.504-.771.632-1.122.153-.449.184-.867.087-1.24-.102-.377-.332-.704-.679-.969a3.108 3.108 0 00-.831-.433l-.015-.005c-.235-.062-.398-.113-.52-.204-.128-.087-.24-.225-.373-.454l-.821-1.642-.102-.22c-.306-.642-.454-.933-1.642-.795l-13.556 1.672h-.025c-1.025.194-1.586.434-1.902.908-.317.469-.363 1.122-.357 2.147l.005 18.304c0 .653.112 1.056.362 1.316.255.255.632.336 1.163.336h4.212c1.377 0 1.77-.53 2.438-1.427zm-28.927-16.754a126.634 126.634 0 0113.811-2.82h.005c.744-.102 1.111.046 1.285.362.189.352.189.928.189 1.617v16.345c0 .74-.062 1.331-.347 1.719-.276.377-.786.586-1.699.586h-15.157c-.974 0-1.815-.122-2.56-.393a5.282 5.282 0 01-1.979-1.264l-8.664-9.068a2.343 2.343 0 01-.388-.546 1.173 1.173 0 01-.138-.754c.046-.245.184-.48.429-.704.168-.153.387-.301.658-.439 5.074-1.877 9.878-3.407 14.555-4.641zm-14.708 4.305a3.365 3.365 0 00-.755.504c-.306.281-.48.587-.541.908-.056.321 0 .653.163.984.113.215.266.429.449.633l8.67 9.063.01.015a5.705 5.705 0 002.112 1.351c.79.286 1.678.418 2.687.418h15.157c1.046 0 1.648-.265 2-.739.336-.469.413-1.127.413-1.938V115.52c0-.735 0-1.357-.235-1.79-.25-.459-.724-.679-1.652-.556h-.01c-4.59.673-9.16 1.601-13.852 2.835-4.697 1.234-9.511 2.77-14.596 4.651l-.02.006zm23.827-40.968h.005c2.443-.439 3.998-.419 4.931.153.908.555 1.235 1.667 1.235 3.422l.005 22.067c0 1.066-.311 1.831-.923 2.372-.628.55-1.571.887-2.821 1.086a122.128 122.128 0 00-15.141 2.779c-4.983 1.235-9.894 2.754-14.76 4.493-.698.25-1.402.291-2.024.143-.602-.148-1.122-.474-1.474-.974l-2.668-3.769c-.331-.54-.55-1.009-.535-1.611.015-.628.275-1.403.903-2.555l.005-.005c4.518-9.221 9.608-15.617 15.187-19.957 5.57-4.33 11.623-6.62 18.075-7.644zM127.3 107.13c-.653 1.204-.923 2.035-.943 2.719-.016.693.224 1.218.586 1.81l2.683 3.789c.403.577.999.954 1.688 1.122.688.169 1.469.118 2.234-.153 4.86-1.734 9.761-3.248 14.723-4.483 4.963-1.229 9.991-2.172 15.096-2.769l.021-.005c1.32-.209 2.32-.571 3.003-1.173.694-.612 1.046-1.464 1.046-2.647l-.005-22.067c0-1.887-.373-3.101-1.413-3.733-1.01-.628-2.647-.658-5.181-.205-6.513 1.03-12.623 3.34-18.243 7.722-5.62 4.365-10.746 10.796-15.295 20.073zm42.957 37.148v-7.318h8.813l-3.29 4.09c-.765.893-1.468 1.709-2.346 2.295-.826.556-1.825.903-3.177.933zm0-67.732h12.332c2.83 0 4.875.3 6.365.882 1.458.566 2.376 1.403 2.973 2.474.933 1.688 1.729 5.564 2.361 9.985.918 6.442 1.484 14.01 1.627 17.799l-2.917.786c-.918.244-1.464.785-1.698 1.387-.123.311-.159.642-.123.959.036.311.148.611.327.872.321.459.851.78 1.54.78.816 0 1.356.097 1.683.393.316.28.443.775.449 1.56-.403 1.086-1.02 2.254-1.995 3.749l-13.82 18.421h-9.104V76.546zm25.306 36.633c-.03.117-.071.234-.107.352-.087-.408-.235-.719-.484-.944-.403-.362-1.026-.489-1.928-.489-.556 0-.985-.25-1.24-.618a1.672 1.672 0 01-.265-.708c-.03-.255.005-.526.102-.776.199-.504.663-.953 1.454-1.167l2.83-.771c0 2.153-.015 3.657-.362 5.121zm-25.678-2.922c-5.63.576-11.74 1.652-18.324 3.223-6.595 1.57-13.668 3.641-21.201 6.181a200.479 200.479 0 01-6.773-9.313c2.04-4.799 4.361-9.129 6.987-12.954 2.642-3.85 5.59-7.196 8.854-10.01 4.075-3.51 8.338-6.218 13.28-8.054 4.896-1.815 10.47-2.759 17.177-2.78v33.707zm0 26.336h-16.249c-3.651 0-5.834-.209-7.486-.801-1.637-.587-2.765-1.561-4.305-3.101l-.005-.005c-3.208-3.045-6.319-6.502-9.363-10.271-.638-.78-1.25-1.632-1.877-2.443 7.471-2.519 14.494-4.57 21.047-6.135 6.559-1.566 12.638-2.637 18.238-3.213v25.969zm0 7.696h-32.211c-2.275 0-3.887-.465-5.095-1.27-1.209-.801-2.035-1.943-2.724-3.29-1.433-3.045-2.825-6.084-4.105-9.119-1.285-3.034-2.469-6.079-3.499-9.134a14.655 14.655 0 01-.316-6.288 16.212 16.212 0 011.474-4.457 193.936 193.936 0 006.671 9.17c0 .015-.01.03 0 .051.015.056.066.091.122.107.663.856 1.316 1.759 1.984 2.59 3.055 3.779 6.181 7.242 9.394 10.302 1.576 1.576 2.739 2.576 4.447 3.188 1.699.607 3.917.821 7.609.821h16.249v7.329zm6.176-2.999c5.962-6.957 12.296-15.591 17.421-22.914 1.377-2.107 2.081-3.596 2.438-5.116.357-1.514.372-3.044.372-5.247v-.006c-.122-3.682-.693-11.54-1.642-18.17-.637-4.463-1.443-8.38-2.402-10.109-.637-1.147-1.611-2.04-3.167-2.647-1.53-.591-3.616-.902-6.492-.902h-12.515c-6.839 0-12.506.958-17.493 2.805-4.983 1.85-9.287 4.584-13.393 8.124-3.289 2.835-6.257 6.201-8.92 10.077-2.652 3.871-4.998 8.247-7.053 13.102-.673 1.301-1.321 2.938-1.642 4.84a15.123 15.123 0 00.321 6.441l.005.016c1.036 3.065 2.224 6.119 3.514 9.169 1.291 3.06 2.678 6.1 4.111 9.129l.005.005c.714 1.408 1.571 2.596 2.846 3.438 1.27.846 2.947 1.331 5.299 1.331h32.4c1.535 0 2.641-.383 3.564-1.005.918-.612 1.643-1.448 2.423-2.361zm8.981-1.474c.806 0 1.321.433 1.54.994.092.22.133.464.133.704 0 .24-.041.485-.133.704-.219.561-.734.994-1.54.994s-1.321-.433-1.545-.994a1.93 1.93 0 010-1.408c.224-.561.739-.994 1.545-.994zm-1.887.857a2.263 2.263 0 00-.158.841c0 .286.051.571.158.842.28.688.903 1.229 1.887 1.229.979 0 1.606-.541 1.882-1.229a2.268 2.268 0 000-1.683c-.276-.689-.903-1.229-1.882-1.229-.984 0-1.607.54-1.887 1.229zm2.744-4.468l.01.005c.153.077.331.174.561.281l2.703 1.275c.245.137.393.301.449.499v.006c.056.214.015.484-.107.831l-2.035 4.687c-.281.653-.459.999-.699 1.163-.229.158-.566.163-1.163.137l-6.14-.285c-.235-.016-.423-.072-.546-.164a.425.425 0 01-.112-.132.34.34 0 01-.031-.163.787.787 0 01.189-.408l5.59-7.319c.601-.785.693-.744 1.331-.413zm-1.622.194l-5.595 7.313c-.163.214-.25.424-.26.612a.638.638 0 00.072.342.656.656 0 00.214.265c.178.133.438.219.755.24l6.145.285c.673.031 1.056.021 1.382-.199.311-.214.515-.601.831-1.325l2.04-4.708c.148-.418.189-.76.118-1.05l-.005-.011c-.082-.295-.286-.53-.623-.724l-2.723-1.28a14.202 14.202 0 01-.551-.28h-.01c-.882-.459-1.005-.515-1.79.52zm49.985-27.55l.005-.01c.112-.271.367-.485.76-.485.402 0 .663.22.77.495a.914.914 0 01.066.352c0 .122-.02.245-.066.357-.107.275-.368.495-.77.495-.398 0-.653-.22-.765-.495a.943.943 0 01-.067-.357c0-.123.021-.24.067-.352zm.765 1.571c.581 0 .948-.322 1.111-.724.062-.159.097-.327.097-.495 0-.163-.035-.332-.097-.49-.163-.403-.53-.724-1.111-.724-.567 0-.939.311-1.102.714l-.005.01a1.372 1.372 0 000 .985c.163.402.535.724 1.107.724zm7.91 10.817c-.158.398-.521.698-1.087.698s-.928-.3-1.081-.698a1.343 1.343 0 01-.097-.495c0-.168.036-.342.097-.495.153-.392.515-.698 1.081-.698s.929.306 1.087.698c.056.153.091.327.091.495 0 .173-.035.342-.091.495zm-1.087-2.056c-.739 0-1.213.408-1.423.934a1.688 1.688 0 000 1.259c.21.526.684.929 1.423.929.74 0 1.219-.403 1.423-.929a1.67 1.67 0 000-1.259c-.204-.526-.683-.934-1.423-.934zM101.489 165.3a13.192 13.192 0 01-9.353 3.876 13.182 13.182 0 01-9.348-3.876 13.176 13.176 0 01-3.871-9.348c0-3.646 1.479-6.951 3.87-9.348a13.177 13.177 0 019.349-3.871 13.217 13.217 0 0113.224 13.219c0 3.652-1.479 6.956-3.871 9.348zm-9.353-22.934c-3.754 0-7.15 1.52-9.608 3.978a13.543 13.543 0 00-3.978 9.608c0 3.754 1.52 7.15 3.978 9.614a13.544 13.544 0 009.608 3.977c3.754 0 7.155-1.519 9.613-3.977a13.563 13.563 0 003.978-9.614 13.54 13.54 0 00-3.978-9.608 13.555 13.555 0 00-9.613-3.978zm-5.003 7.665v-.01a.485.485 0 01.434-.362.689.689 0 01.224.025h.01a.66.66 0 01.194.107l.005.005c.143.118.22.306.148.541-.072.24-.25.357-.434.367a.563.563 0 01-.224-.02.646.646 0 01-.204-.102.482.482 0 01-.153-.551zm.25 1.005c.117.035.24.046.362.041.326-.031.632-.225.755-.638.117-.398-.02-.724-.27-.928l-.01-.01a.926.926 0 00-.307-.164l-.015-.005a1.003 1.003 0 00-.367-.04c-.322.03-.622.219-.75.622l-.005.01c-.122.408.026.739.28.943.097.077.21.133.327.169zm-2.601 2.381a.604.604 0 01.199-.107l.005-.005a.658.658 0 01.22-.025c.188.01.361.117.443.357.076.239 0 .433-.143.551a.598.598 0 01-.423.142.49.49 0 01-.444-.362.493.493 0 01.143-.551zm.275 1.281a.897.897 0 00.362-.051.932.932 0 00.322-.174c.25-.209.387-.546.26-.948-.138-.403-.449-.592-.77-.612-.123-.011-.24.01-.357.04l-.005.005a.899.899 0 00-.322.179c-.25.209-.392.541-.26.949.138.402.449.591.77.612zm.556 3.87a.652.652 0 01-.168.148c-.158.102-.367.112-.566-.035-.204-.148-.255-.352-.21-.531a.64.64 0 01.271-.362.48.48 0 01.566.041c.204.148.25.352.204.53a.59.59 0 01-.097.209zm-.867-1.091a.901.901 0 00-.27.25.951.951 0 00-.158.331.833.833 0 00.341.918.84.84 0 00.98.056 1.06 1.06 0 00.27-.249 1 1 0 00.158-.332c.082-.316 0-.668-.342-.918a.842.842 0 00-.979-.056zm3.56 4.621c-.066.173-.23.306-.484.3a.48.48 0 01-.475-.311.67.67 0 01-.04-.224.826.826 0 01.045-.224c.072-.174.235-.301.49-.301.245 0 .408.137.47.316.03.071.04.148.04.224a.532.532 0 01-.046.22zm-.459-1.128c-.428-.005-.709.225-.831.526a.971.971 0 00-.072.362.888.888 0 00.061.362.84.84 0 00.811.546c.429.005.704-.225.832-.526a.952.952 0 00.071-.362.94.94 0 00-.061-.357c-.117-.306-.388-.545-.811-.551zm4.345 2.739c-.209.138-.413.117-.566.01a.69.69 0 01-.158-.163.57.57 0 01-.092-.214.488.488 0 01.23-.515c.214-.143.418-.117.57-.01.062.04.118.102.159.163l.01.005a.778.778 0 01.082.204.488.488 0 01-.235.52zm.449-.933a.946.946 0 00-.255-.26c-.265-.189-.622-.235-.98 0-.356.239-.453.586-.387.902a.85.85 0 00.143.337c.066.102.153.194.25.265.27.184.627.23.984 0 .357-.239.454-.586.388-.902a.886.886 0 00-.133-.332l-.01-.01zm4.024-.525c-.092.234-.276.336-.46.336a.66.66 0 01-.224-.041.68.68 0 01-.193-.122l-.01-.005a.497.497 0 01-.103-.551c.092-.24.276-.337.46-.337.076 0 .152.016.224.041a.736.736 0 01.194.118.49.49 0 01.112.561zm-.174-1.02a.943.943 0 00-.357-.067c-.326 0-.647.174-.8.571-.153.388-.041.725.194.949l.01.01c.091.082.194.148.31.194a.95.95 0 00.363.066.841.841 0 00.796-.571c.152-.393.035-.734-.205-.959a1.023 1.023 0 00-.31-.193zm2.867-2.372a.576.576 0 01-.434.117.485.485 0 01-.423-.377c-.067-.245.02-.434.168-.546a.624.624 0 01.21-.102.569.569 0 01.224-.015c.183.02.357.138.423.382a.484.484 0 01-.168.541zm-.215-1.29a.98.98 0 00-.362.03.964.964 0 00-.331.158c-.26.199-.413.526-.306.934.117.413.413.617.74.653a.996.996 0 00.693-.189c.26-.194.413-.525.306-.933-.117-.414-.413-.618-.74-.653zm.362-3.601a.534.534 0 01-.168.158.486.486 0 01-.566-.035c-.204-.153-.25-.357-.204-.536a.627.627 0 01.097-.204.604.604 0 01.168-.153c.158-.102.368-.112.572.036.198.153.25.352.198.53a.47.47 0 01-.097.204zm-.861-1.086a1.068 1.068 0 00-.276.25.996.996 0 00-.158.331.84.84 0 00.342.918c.341.255.704.23.979.062.107-.072.199-.159.27-.255a.915.915 0 00.158-.332c.087-.311.005-.663-.341-.918a.834.834 0 00-.974-.056zm-7.028-4.667a.5.5 0 01.734.113.584.584 0 01.102.204.498.498 0 01-.199.535c-.204.148-.408.138-.57.041a.963.963 0 01-.17-.153.652.652 0 01-.096-.209c-.051-.179-.005-.383.199-.531zm-.123 1.209c.276.168.638.189.98-.066.341-.255.418-.607.336-.918a1.027 1.027 0 00-.163-.337 1.038 1.038 0 00-.27-.245.843.843 0 00-.98.062.844.844 0 00-.336.923c.03.122.087.229.163.331a.97.97 0 00.27.25zm4.386.332c.072-.174.23-.306.485-.306.25 0 .408.132.474.306l.005.005a.62.62 0 01.041.219.565.565 0 01-.046.224c-.066.174-.224.306-.474.306-.255 0-.413-.132-.485-.306a.643.643 0 010-.448zm.485 1.122c.423 0 .699-.235.821-.541.04-.112.066-.235.066-.357a.956.956 0 00-.066-.352v-.01c-.122-.301-.398-.536-.821-.536-.428 0-.704.235-.821.536a.883.883 0 00-.072.362c0 .122.02.245.072.357.117.306.392.541.82.541zm.658 7.277c-.71 1.78-2.336 3.167-4.886 3.167-2.545 0-4.172-1.387-4.88-3.167a5.884 5.884 0 01-.419-2.198c0-.76.138-1.514.418-2.208.71-1.775 2.336-3.167 4.881-3.167 2.55 0 4.177 1.392 4.886 3.167a6.004 6.004 0 010 4.406zm-4.886-7.94c-2.718 0-4.462 1.489-5.222 3.401a6.285 6.285 0 00-.444 2.341c0 .796.148 1.602.444 2.336.76 1.907 2.504 3.402 5.222 3.402 2.723 0 4.463-1.495 5.228-3.402.295-.734.443-1.54.443-2.336 0-.806-.148-1.606-.444-2.341-.764-1.912-2.504-3.401-5.227-3.401zm1.193 6.283c-.173.433-.57.77-1.193.77-.622 0-1.02-.337-1.193-.77a1.507 1.507 0 010-1.086c.173-.434.57-.771 1.193-.771.622 0 1.02.337 1.193.771.072.168.102.357.102.54 0 .189-.03.377-.102.546zm-1.193-2.224c-.796 0-1.306.439-1.535 1a1.928 1.928 0 00-.128.678c0 .235.046.469.128.683.23.561.74 1 1.535 1 .8 0 1.31-.439 1.535-1 .087-.214.128-.448.128-.683 0-.229-.041-.464-.128-.678-.224-.561-.734-1-1.535-1zm8.282 9.96a11.663 11.663 0 01-8.282 3.433c-3.233 0-6.16-1.311-8.282-3.433a11.682 11.682 0 01-3.427-8.282 11.69 11.69 0 013.427-8.282 11.69 11.69 0 018.282-3.427 11.68 11.68 0 018.282 3.427 11.694 11.694 0 013.433 8.282c0 3.233-1.316 6.166-3.433 8.282zm-8.282-20.359a12.058 12.058 0 00-8.542 3.535 12.058 12.058 0 00-3.535 8.542 12.05 12.05 0 003.535 8.543 12.044 12.044 0 008.542 3.539c3.34 0 6.36-1.352 8.542-3.539a12.034 12.034 0 003.54-8.543 12.04 12.04 0 00-3.54-8.542 12.038 12.038 0 00-8.542-3.535zM231.003 165.3a13.182 13.182 0 01-9.348 3.876 13.183 13.183 0 01-9.349-3.876 13.176 13.176 0 01-3.871-9.348c0-3.646 1.479-6.956 3.871-9.348a13.179 13.179 0 019.349-3.871c3.651 0 6.956 1.479 9.348 3.871a13.191 13.191 0 013.876 9.348 13.18 13.18 0 01-3.876 9.348zm-9.348-22.934c-3.754 0-7.151 1.52-9.609 3.978a13.544 13.544 0 00-3.978 9.608c0 3.754 1.52 7.15 3.978 9.614a13.544 13.544 0 009.609 3.977c3.753 0 7.15-1.519 9.608-3.977a13.572 13.572 0 003.983-9.614c0-3.753-1.525-7.15-3.983-9.608a13.544 13.544 0 00-9.608-3.978zm-5.009 7.665a.49.49 0 01.434-.372.716.716 0 01.229.025.507.507 0 01.199.107c.148.113.23.306.158.546-.076.24-.25.357-.433.367a.592.592 0 01-.23-.02.795.795 0 01-.204-.102.517.517 0 01-.153-.551zm.25 1.005c.123.035.245.051.367.041.327-.031.633-.225.755-.638a.838.838 0 00-.28-.938.99.99 0 00-.689-.209c-.326.03-.627.224-.755.632-.122.408.026.739.281.943.097.077.209.133.321.169zm-2.596 2.381a.608.608 0 01.199-.107.57.57 0 01.225-.03c.183.01.362.117.438.357a.487.487 0 01-.137.551.612.612 0 01-.429.142.488.488 0 01-.438-.362.485.485 0 01.142-.551zm.276 1.281a.897.897 0 00.362-.051.984.984 0 00.321-.174c.25-.209.388-.546.255-.948-.132-.403-.444-.592-.765-.612a.955.955 0 00-.683.224c-.255.209-.393.541-.26.949a.845.845 0 00.77.612zm.556 3.87h-.005a.534.534 0 01-.164.148c-.158.102-.367.112-.571-.035-.204-.148-.25-.352-.204-.531a.651.651 0 01.27-.362c.159-.097.363-.112.567.041.204.148.249.352.204.53a.9.9 0 01-.097.209zm-.867-1.091a.912.912 0 00-.271.25.882.882 0 00-.158.331.834.834 0 00.342.918.84.84 0 00.979.056.996.996 0 00.265-.244l.005-.005a.954.954 0 00.159-.332.839.839 0 00-.342-.918c-.342-.255-.704-.229-.979-.056zm3.559 4.621a.483.483 0 01-.484.3.479.479 0 01-.474-.311.552.552 0 01-.036-.224c0-.077.01-.153.041-.224.071-.174.234-.301.484-.301.25 0 .408.137.475.316.03.071.04.148.04.224a.526.526 0 01-.046.22zm-.464-1.128c-.423-.005-.703.225-.826.526a1.084 1.084 0 00-.076.362c0 .122.02.245.066.362.112.301.388.541.811.546.428.005.704-.225.826-.526a.973.973 0 00.015-.719c-.117-.306-.387-.545-.816-.551zm4.351 2.739c-.209.138-.419.117-.572.01a.814.814 0 01-.158-.163.664.664 0 01-.086-.214.476.476 0 01.234-.515c.209-.143.413-.117.566-.01l.011.005a.617.617 0 01.147.158.468.468 0 01.087.209.469.469 0 01-.229.52zm.209-1.188l-.016-.005c-.265-.189-.622-.235-.979 0-.357.239-.454.586-.392.902.025.118.076.235.142.337.072.102.158.194.26.265.266.184.623.23.98 0 .357-.239.453-.586.387-.902a.856.856 0 00-.143-.342.867.867 0 00-.239-.255zm4.263-.27c-.092.234-.275.336-.459.336a.658.658 0 01-.224-.041.559.559 0 01-.194-.122l-.01-.005c-.133-.128-.189-.321-.102-.551.092-.24.275-.337.459-.337.076 0 .153.016.224.041a.696.696 0 01.194.123l.01.005a.487.487 0 01.102.551zm.138-.827a.97.97 0 00-.311-.193.943.943 0 00-.357-.067c-.327 0-.648.174-.801.571-.153.388-.041.725.189.949l.015.01a.973.973 0 00.668.26.842.842 0 00.801-.571.84.84 0 00-.194-.948l-.01-.011zm2.3-3.488a.518.518 0 00-.214.015l-.01.005a.607.607 0 00-.209.097c-.148.112-.235.301-.169.546.067.24.24.357.424.377a.549.549 0 00.224-.015.544.544 0 00.204-.102.477.477 0 00.173-.541c-.066-.244-.239-.362-.423-.382zm.403-3.968a.537.537 0 01-.168.158.486.486 0 01-.566-.035c-.204-.153-.25-.357-.204-.536a.635.635 0 01.096-.204.537.537 0 01.169-.153c.158-.102.367-.112.571.036.199.153.25.352.204.53a.64.64 0 01-.102.204zm-.867-1.086a.973.973 0 00-.428.581.831.831 0 00.341.918c.342.255.704.23.979.062.108-.072.199-.159.271-.255a.928.928 0 00.158-.332c.081-.311.005-.663-.337-.918-.347-.255-.709-.224-.984-.056zm-7.023-4.667a.499.499 0 01.735.113.593.593 0 01.102.204.498.498 0 01-.199.535c-.204.148-.413.138-.571.041a.94.94 0 01-.169-.153.81.81 0 01-.102-.209.485.485 0 01.204-.531zm-.122 1.209c.275.168.637.189.979-.066.342-.255.418-.607.337-.918a1.134 1.134 0 00-.164-.337 1.03 1.03 0 00-.27-.245.842.842 0 00-.979.062c-.347.255-.423.607-.337.923a.994.994 0 00.159.331c.076.097.168.184.275.25zm4.386.332c.066-.174.229-.306.484-.306.25 0 .408.132.475.306l.005.005a.575.575 0 01-.005.443c-.067.174-.225.306-.475.306-.255 0-.418-.132-.484-.306v-.01a.493.493 0 01-.041-.214c0-.082.015-.153.041-.224zm-.337.581c.118.306.393.541.821.541.424 0 .699-.235.816-.541a.948.948 0 00.005-.709l-.005-.01c-.117-.301-.392-.536-.816-.536-.428 0-.703.235-.821.536a.883.883 0 00-.071.362c0 .117.02.24.066.347l.005.01zm1.479 7.818c-.709 1.78-2.341 3.167-4.885 3.167-2.545 0-4.172-1.387-4.886-3.167a5.97 5.97 0 01-.413-2.198c0-.76.137-1.514.413-2.208.714-1.775 2.341-3.167 4.886-3.167 2.544 0 4.176 1.392 4.885 3.167.276.694.413 1.448.413 2.208a5.97 5.97 0 01-.413 2.198zm-4.885-7.94c-2.719 0-4.463 1.489-5.223 3.401a6.281 6.281 0 00-.444 2.341c0 .796.148 1.602.444 2.336.76 1.907 2.504 3.402 5.223 3.402 2.718 0 4.462-1.495 5.227-3.402a6.29 6.29 0 00.444-2.336c0-.806-.148-1.606-.444-2.341-.765-1.912-2.509-3.401-5.227-3.401zm1.193 6.283c-.174.433-.571.77-1.193.77-.623 0-1.02-.337-1.194-.77a1.513 1.513 0 010-1.086c.174-.434.571-.771 1.194-.771.622 0 1.019.337 1.193.771a1.501 1.501 0 010 1.086zm-1.193-2.224c-.796 0-1.311.439-1.53 1a1.725 1.725 0 00-.133.678c0 .235.041.469.133.683.219.561.734 1 1.53 1 .795 0 1.31-.439 1.535-1 .081-.214.127-.448.127-.683 0-.229-.041-.464-.127-.678-.225-.561-.74-1-1.535-1zm8.282 9.96a11.666 11.666 0 01-8.282 3.433 11.675 11.675 0 01-8.283-3.433 11.684 11.684 0 01-3.427-8.282c0-3.233 1.311-6.161 3.427-8.282a11.69 11.69 0 018.283-3.427c3.233 0 6.165 1.31 8.282 3.427a11.697 11.697 0 013.432 8.282c0 3.233-1.316 6.166-3.432 8.282zm-8.282-20.359a12.058 12.058 0 00-8.543 3.535 12.036 12.036 0 00-3.534 8.542 12.03 12.03 0 003.534 8.543 12.045 12.045 0 008.543 3.539c3.335 0 6.354-1.352 8.542-3.539a12.034 12.034 0 003.539-8.543 12.04 12.04 0 00-3.539-8.542 12.057 12.057 0 00-8.542-3.535zm29.059-31.232a2.003 2.003 0 01-.898.964l-4.059 1.693v-2.83a.184.184 0 00-.184-.184h-.163v-.765c.938-.275 1.54-.897 1.8-1.647.143-.418.194-.862.138-1.295a2.89 2.89 0 00-.428-1.229c-.449-.704-1.219-1.209-2.28-1.209-1.061 0-1.836.505-2.285 1.209a2.89 2.89 0 00-.428 1.229c-.051.433-.005.877.138 1.295.265.75.861 1.377 1.8 1.647v.765h-.163a.184.184 0 00-.184.184v3.769l-3.815 1.591c-.709.158-1.28.163-1.78.015-.505-.153-.943-.469-1.392-.953l-.28-.332c-.72-.836-1.383-1.617-1.842-2.662-.163-.378-.239-.745-.117-1.107.128-.377.469-.775 1.148-1.214l6.869-5.125c.974-.729 1.005-.724 1.841-.576.169.025.368.061.607.097l3.672.55c1.525.235 1.551.368 1.836 1.765.194.964.429 1.974.592 2.932.087.388.076.929-.143 1.423zm-5.324 4.748c0 .107-.209.128-.495.128-.143 0-.275-.005-.408-.01-.168-.005-.342-.011-.49-.011a.092.092 0 01-.076-.035h-.005a.119.119 0 01-.031-.072v-4.63c0-.031.016-.062.036-.077v-.005a.116.116 0 01.076-.026h1.24c.097.016.153.051.153.108v4.63zm-.347-6.987v1.862c-.051 0-.097-.005-.148-.005-.117 0-.265.005-.423.01-.072.005-.158.005-.24.01v-1.877c.138.036.27.051.408.051.133 0 .27-.015.403-.051zm-.403-.321c-.566 0-.928-.306-1.086-.693a1.382 1.382 0 010-.995c.158-.388.52-.694 1.086-.694.566 0 .923.306 1.081.694.061.158.097.326.097.5 0 .168-.036.342-.097.495-.158.387-.515.693-1.081.693zm-.775 1.066c-.76-.25-1.234-.78-1.454-1.402a2.558 2.558 0 01.255-2.199c.383-.606 1.051-1.035 1.974-1.035.918 0 1.586.429 1.974 1.035.199.322.331.689.372 1.071.041.383.005.771-.122 1.128-.215.622-.694 1.152-1.454 1.402v-.898a1.43 1.43 0 00.653-.724c.081-.204.117-.418.117-.632 0-.214-.036-.434-.117-.633-.209-.52-.684-.928-1.423-.928s-1.219.408-1.423.928a1.697 1.697 0 000 1.265c.117.306.347.556.648.724v.898zm6.762-2.932c-.331-1.632-.362-1.785-2.147-2.056l-3.667-.551c-.239-.035-.433-.071-.601-.102-.985-.168-1.025-.173-2.122.643l-6.859 5.125c-.745.485-1.133.944-1.286 1.398-.158.469-.066.918.128 1.372.479 1.096 1.158 1.892 1.897 2.759l.286.331.005.005c.489.531.984.878 1.555 1.051.571.173 1.204.168 1.979-.01l.036-.01 3.687-1.535v.754c0 .128.051.24.138.327l.005.01a.49.49 0 00.336.138c.169 0 .327.005.475.01.158.005.306.015.423.015.5 0 .862-.087.862-.5v-1.693l4.228-1.764c.53-.281.867-.699 1.066-1.143.25-.576.265-1.198.163-1.652l-.587-2.922zm-5.023 44.288c.025.153.056.3.071.459l.107 1.05c.016.194.021.393.031.587l-4.539 2.31-.311-2.091 4.641-2.315zm-3.886-10.129l.566.923c.178.291.367.576.53.877l-3.085 4.075-1.194-1.744 3.183-4.131zM217.554 132.1l2.815 4.253-2.045.546-2.825-4.351c.178-.045.362-.096.54-.137l1.173-.26c.113-.016.23-.031.342-.051zm2.244-6.329c.102 1.142.235 2.233.429 3.213.183.912.428 1.718.729 2.412-1.127.03-2.234.143-3.32.321-.021-.005-.031-.025-.051-.02l-.281.061c-.321-.694-.571-1.535-.765-2.489-.188-.959-.316-2.03-.423-3.162a43.594 43.594 0 013.682-.336zm19.191 9.399c.76-.648 1.54-1.413 2.336-2.244a33.778 33.778 0 012.667 2.555c-.78.821-1.55 1.576-2.3 2.208-.734.622-1.438 1.112-2.121 1.454-.179-.189-.342-.398-.526-.582a24.482 24.482 0 00-2.198-1.922c.689-.357 1.403-.847 2.142-1.469zm-10.042 2.545l-2.08-.388-.679-5.161.097.015 1.204.286c.25.056.5.122.744.189l.714 5.059zm7.497-.918l-1.224 4.952-1.785-1.138 1.291-5.033c.061.041.127.071.183.112l.918.643c.209.153.418.306.617.464zm-.392-.755c-.311-.225-.623-.454-.944-.663l-.382-.27a.273.273 0 00-.062-.026c-.015-.005-.025.005-.035.005a24.474 24.474 0 00-6.171-2.754c-.01-.005-.005-.02-.021-.02l-.846-.204c-.413-.102-.826-.209-1.245-.291l-.336-.081a.123.123 0 00-.066 0c-.011 0-.021.01-.026.015a24.48 24.48 0 00-4.263-.393c-.108 0-.21.015-.312.015-.316-.688-.566-1.519-.754-2.463-.189-.959-.322-2.03-.424-3.157 5.901-.209 10.843.928 15.086 3.07a29.738 29.738 0 015.794 3.861c-.781.811-1.551 1.571-2.295 2.203-.765.643-1.5 1.158-2.204 1.5l-.494-.347zm-25.587-11.118c.321-.26.684-.49 1.122-.648 1.913-.668 4.213-1.259 6.691-1.729a77.766 77.766 0 018.084-1.106 36.358 36.358 0 016.875 2.478 34.867 34.867 0 016.563 4.101 40.465 40.465 0 014.998 4.681c1.617 1.785 3.188 3.81 4.702 6.095.194.291.322.597.424.903-4.57-6.697-10.211-11.567-16.983-14.122-6.462-2.438-13.944-2.77-22.476-.653zm22.348 1c6.931 2.611 12.674 7.665 17.284 14.657.031.423.005.841-.107 1.234-.117.398-.087.571-.117.561a5.142 5.142 0 01-.179-.275c-.061-.097-.127-.209-.204-.327-1.576-2.315-3.264-4.467-5.1-6.416-.005-.005.005-.015 0-.02-.005-.005-.015.005-.02 0a37.03 37.03 0 00-2.923-2.8v-.005c-1.851-1.571-3.85-2.937-6.033-4.039-4.34-2.188-9.409-3.346-15.463-3.101l-.005-.005c-.005 0-.005.005-.005.005a43.36 43.36 0 00-3.988.372c-.021-.005-.036-.02-.056-.02-.026.005-.041.026-.067.036-.719.097-1.433.183-2.182.321-1.25.224-2.362.525-3.106.724-.5.133-.781.235-.801.23a2.971 2.971 0 01-.505-.373c-.046-.045-.122 0-.102-.03l.01-.031c.143-.362.424-.795.786-1.203 8.721-2.27 16.335-1.969 22.883.505zm-25.862 10.806c.184-.137.373-.28.566-.418l.903-.632c.087-.056.174-.102.255-.153l4.238 2.835-1.673 1.296-4.289-2.928zm-6.553 7.61l.622-1.026c.153-.255.301-.525.469-.775l5.044.877-1.01 1.862-5.125-.938zm-2.841 9.19l.128-.908c.056-.393.107-.786.178-1.173l4.983-1.153-.204 2.107-5.085 1.127zm47.491 8.619l-5.437.244a.191.191 0 00-.168.133l-.663 2.407c-.01.021-.01.041-.01.066a.184.184 0 00.194.174l5.192-.276a24.322 24.322 0 01-3.621 6.217l-5.08-1.984a.183.183 0 00-.209.051l-1.581 1.923a.18.18 0 00-.036.061.175.175 0 00.102.235l4.86 1.861a24.145 24.145 0 01-5.604 4.096l-3.881-3.841a.184.184 0 00-.215-.035l-2.223 1.147c-.021.01-.031.021-.046.036a.18.18 0 00.005.26l3.713 3.626a23.986 23.986 0 01-7.385 1.561l-1.897-5.08a.182.182 0 00-.184-.127l-2.489.107c-.02 0-.045 0-.066.01a.185.185 0 00-.107.24l1.851 4.834a23.983 23.983 0 01-7.451-1.678l.434-5.436a.19.19 0 00-.118-.189l-2.3-.959a.14.14 0 00-.066-.015c-.102-.005-.189.066-.194.168l-.372 5.202a24.356 24.356 0 01-5.472-4.105c-.169-.168-.316-.352-.48-.531l2.668-4.743a.196.196 0 00-.026-.214l-1.693-1.836a.2.2 0 00-.051-.04.182.182 0 00-.25.071l-2.504 4.544a24.108 24.108 0 01-3.289-6.14l4.329-3.3c.062-.046.087-.128.062-.204l-.822-2.361a.118.118 0 00-.03-.056c-.061-.082-.179-.092-.26-.031l-4.106 3.177a24.15 24.15 0 01-.642-5.467c0-.688.046-1.367.102-2.04l5.319-1.183a.174.174 0 00.143-.158l.239-2.484c.006-.025 0-.046-.005-.071a.183.183 0 00-.219-.138l-5.085 1.178a24.071 24.071 0 012.295-6.375l5.36.984a.19.19 0 00.204-.091l1.189-2.198a.23.23 0 00.025-.062.185.185 0 00-.153-.214c-1.703-.296-3.427-.576-5.125-.892a24.73 24.73 0 012.805-3.387 25.24 25.24 0 012.116-1.856l4.503 3.07a.194.194 0 00.215-.005l1.984-1.53c.015-.015.025-.031.035-.046a.181.181 0 00-.046-.255l-4.309-2.886a23.923 23.923 0 016.099-2.668l2.964 4.555c.04.071.122.112.209.091l2.417-.652a.183.183 0 00.107-.276l-2.866-4.325a25.252 25.252 0 013.198-.285.164.164 0 00.168.02c.01-.01.015-.02.025-.025.102-.005.204-.021.312-.021 1.417 0 2.799.148 4.151.383l.714 5.396c.01.076.066.142.148.158l2.453.454c.02.005.041.01.066.005a.189.189 0 00.158-.209l-.724-5.156a23.967 23.967 0 015.778 2.621l-1.351 5.253a.193.193 0 00.076.219l2.117 1.341c.015.011.03.016.051.026a.19.19 0 00.224-.138l1.25-5.044a25 25 0 012.019 1.785c.194.194.362.413.551.607 0 .016-.005.031 0 .046.026.051.071.077.128.092.724.79 1.407 1.622 2.024 2.504l-3.325 4.315a.176.176 0 00-.005.219l1.402 2.06a.187.187 0 00.306.016l3.147-4.157a24.16 24.16 0 012.54 7.599l-4.871 2.428a.188.188 0 00-.102.193l.368 2.469c.005.02.01.041.02.061a.182.182 0 00.245.082l4.62-2.351c.011.316.046.627.046.948 0 2.147-.301 4.218-.831 6.197zm-.148.591l-.398 1.209c-.066.194-.137.387-.209.576l-5.095.265.566-2.035 5.192-.234c-.02.071-.035.148-.056.219zm-6.018 10.241l-4.779-1.831 1.342-1.632 4.855 1.902a25.459 25.459 0 01-1.418 1.561zm-6.895 4.86l-1.153.525c-.035.016-.071.026-.112.041l-3.662-3.57 1.882-.964 3.693 3.657c-.214.107-.434.209-.648.311zm-9.889 2.315l-.974-.005c-.224 0-.438-.02-.658-.03l-1.82-4.753 2.111-.092 1.815 4.86c-.158 0-.316.015-.474.02zm-9.848-1.881l-1.27-.597c-.209-.102-.423-.199-.627-.306l.362-5.1 1.948.811-.413 5.192zm-8.869-6.452l-.693-.821c-.087-.112-.169-.235-.255-.347l2.458-4.467 1.433 1.555-2.54 4.529c-.132-.153-.27-.296-.403-.449zm-4.702-8.226l-.357-1.204a10.908 10.908 0 01-.148-.586l4.029-3.121.694 1.999-4.131 3.147a4.821 4.821 0 01-.087-.235zm-3.917-8.17c-.045.036-.081.076-.081.143 0 .03.015.051.03.076a175.3 175.3 0 00-1.606 7.976h-4.886c.342-3.687 1.046-7.466 1.953-11.209.924-3.82 2.066-7.604 3.27-11.21 1.147-3.437 2.463-6.91 4.08-10.21 1.591-3.254 3.467-6.35 5.752-9.073l3.392 1.214c.418.189.622.433.637.744.016.352-.178.806-.551 1.372l-.005.005c-3.019 4.392-5.681 9.655-7.961 16.004-1.509 4.208-2.845 8.94-4.024 14.168zm-10.347 8.195c1.647-8.669 4.335-18.558 8.654-28.238.077-.173.158-.342.235-.51l1.8.724a95.261 95.261 0 00-2.009 5.493c-1.209 3.616-2.356 7.41-3.28 11.235-.918 3.774-1.616 7.579-1.963 11.296h-3.437zm-27.005 0v-10.46h13.01l14.484 6.263a159.359 159.359 0 00-.867 4.197H157.41zm-.183-16.738h-21.614c-1.892 0-3.463-.821-4.738-1.958-1.29-1.147-2.274-2.616-2.993-3.886a134.667 134.667 0 01-4.101-8.696 119.771 119.771 0 01-3.458-9.139c-.902-2.59-1.173-4.87-1.02-6.931.148-2.06.714-3.896 1.49-5.604l.005-.011c2.305-5.298 4.687-9.919 7.221-13.928 2.535-4.008 5.233-7.41 8.186-10.281 4.534-4.417 9.424-7.517 14.616-9.486 5.187-1.963 10.68-2.8 16.422-2.688l8.558.005h4.666c3.953 0 7.064.164 9.359.99 2.254.81 3.723 2.274 4.411 4.865l.01.026c.755 2.157 1.331 4.6 1.811 7.257.484 2.662.872 5.559 1.244 8.609.169 1.371.383 3.335.566 5.462.138 1.627.266 3.345.332 4.967.092 2.045.081 3.978-.128 5.635-.204 1.643-.601 3.009-1.285 3.953l-.015.02a245.306 245.306 0 01-5.743 8.818c-1.943 2.851-3.922 5.656-6.007 8.604-1.056 1.484-2.244 2.937-3.433 4.386-1.183 1.453-2.366 2.902-3.437 4.406-.923 1.178-1.851 2.341-3.014 3.198-1.158.846-2.55 1.407-4.422 1.407h-13.489zm-.184 4.759h-18.161v-4.391h18.161v4.391zm0 9.088h-6.349c-.01-.046-.01-.102-.026-.148-.097-.291-.326-.52-.683-.52h-4.05c-.357 0-.581.229-.683.52-.015.046-.015.102-.02.148h-6.35v-8.721h18.161v8.721zm-11.47.168c0-.071.011-.138.026-.199.056-.153.168-.27.336-.27h4.05c.173 0 .285.117.336.27.016.061.026.128.031.199-.005.005-.01.01-.01.015 0 .005.005.011.01.021a1.121 1.121 0 01-.031.194c-.051.153-.163.27-.336.27h-4.05c-.168 0-.28-.117-.336-.27a.832.832 0 01-.026-.194c0-.01.005-.016.005-.021 0-.005-.005-.01-.005-.015zm11.47 2.723h-18.161v-2.524h6.35c.005.051.005.102.02.148.102.291.326.52.683.52h4.05c.357 0 .586-.229.683-.52.016-.046.016-.097.026-.148h6.349v2.524zm-18.528-10.827h-10.429l-2.867-7.073h6.085c1.208.902 2.626 1.53 4.309 1.53h2.902v5.543zm0 10.827h-6.043l-4.238-10.46h10.281v10.46zm-11.75 0c-.939 0-1.484-.224-1.79-.612-.281-.351-.362-.867-.383-1.463h6.645l.837 2.075h-5.309zm-2.734-7.721c-.398-.367-1.01-.515-1.933-.515h-5.395c-.006-.219-.021-.433-.031-.653.005-.02.031-.035.031-.056l-.072-.688c-.025-.362-.066-.73-.112-1.092l-.066-.693a.14.14 0 00-.021-.077c-.005-.015-.02-.015-.03-.03-.454-2.856-1.372-5.559-2.724-8.002 0-.005.005-.005.005-.01l-.525-.852c-.224-.367-.433-.745-.678-1.097l-.102-.173a.274.274 0 00-.051-.051c-.005-.005-.01.005-.01 0a25.136 25.136 0 00-2.79-3.351c-.398-.398-.826-.765-1.255-1.137h7.15v1.433c0 1.306 0 1.907 1.515 2.78l.031.015 7.298 2.688 6.818 16.84h-6.502v-3.484c0-.846-.153-1.423-.551-1.795zm-7.94-3.396c.02.153.051.3.071.453l.102 1.056c.015.194.02.393.031.587l-4.534 2.31-.311-2.091 4.641-2.315zm-3.892-10.129l.582.949c.173.28.357.561.52.851l-3.096 4.075-1.188-1.744 3.182-4.131zm3.336 19.773l-5.437.244a.185.185 0 00-.168.133l-.668 2.407c-.005.021-.011.041-.011.066a.184.184 0 00.194.174l5.192-.276a24.178 24.178 0 01-3.621 6.217l-5.079-1.984a.186.186 0 00-.21.051l-1.581 1.923a.123.123 0 00-.035.061c-.036.097.01.204.102.235l4.86 1.861a24.188 24.188 0 01-5.605 4.101l-3.88-3.846a.178.178 0 00-.21-.035l-2.229 1.147-.05.036a.19.19 0 00.004.26l3.718 3.626a23.976 23.976 0 01-7.38 1.561l-1.902-5.08a.18.18 0 00-.178-.127l-2.494.107c-.02 0-.046 0-.066.01a.185.185 0 00-.107.24l1.85 4.834a23.88 23.88 0 01-7.45-1.678l.433-5.436a.193.193 0 00-.112-.189l-2.305-.959a.143.143 0 00-.066-.015c-.102-.005-.19.066-.194.168l-.372 5.202a24.175 24.175 0 01-5.442-4.085c-.179-.178-.337-.372-.505-.556l2.662-4.738a.195.195 0 00-.025-.214l-1.694-1.836a.138.138 0 00-.05-.04.183.183 0 00-.25.071l-2.494 4.529a24.416 24.416 0 01-3.295-6.13l4.325-3.295a.175.175 0 00.061-.204l-.821-2.361a.117.117 0 00-.03-.056.18.18 0 00-.256-.031l-4.105 3.177a24.219 24.219 0 01-.648-5.467c0-.688.046-1.367.102-2.04l5.314-1.183a.184.184 0 00.153-.158l.235-2.484a.167.167 0 000-.071.189.189 0 00-.22-.138l-5.084 1.178a24.012 24.012 0 012.29-6.375l5.365.984a.195.195 0 00.204-.091l1.183-2.198a.227.227 0 00.026-.062.186.186 0 00-.148-.214c-1.709-.296-3.432-.576-5.13-.892a24.81 24.81 0 012.804-3.387 26.016 26.016 0 012.117-1.856l4.503 3.07a.192.192 0 00.214-.005l1.979-1.53a.33.33 0 00.04-.046.186.186 0 00-.045-.255l-4.31-2.886a24.07 24.07 0 016.1-2.668l2.963 4.555c.04.071.128.112.21.091l2.416-.652c.02 0 .036-.011.057-.021a.186.186 0 00.05-.255l-2.86-4.325c1.208-.183 2.437-.311 3.697-.311.077 0 .153.011.23.011.01.01.01.025.025.035.061.026.122.01.173-.025 1.265.025 2.51.153 3.718.357l.72 5.462c.01.076.07.143.147.153l2.448.454c.026.01.046.01.072.005.102-.01.168-.102.158-.204l-.735-5.223a23.999 23.999 0 015.789 2.627l-1.347 5.253c-.03.081 0 .173.072.219l2.111 1.341c.021.011.036.016.056.026a.189.189 0 00.225-.138l1.249-5.044a24.188 24.188 0 012.02 1.785c.999 1 1.892 2.091 2.703 3.249l-3.325 4.315a.192.192 0 00-.006.219l1.403 2.06c.015.016.031.036.046.051a.187.187 0 00.26-.035l3.147-4.157a24.158 24.158 0 012.539 7.599l-4.87 2.428a.188.188 0 00-.102.193l.367 2.469c.005.02.01.041.021.061a.181.181 0 00.244.082l4.621-2.351c.015.316.046.627.046.948a24.33 24.33 0 01-.826 6.197zm-.148.586l-.408 1.224c-.067.189-.133.377-.204.566l-5.095.265.566-2.035 5.192-.234c-.021.071-.036.143-.051.214zm-6.023 10.246l-4.779-1.831 1.341-1.632 4.855 1.902a25.442 25.442 0 01-1.417 1.561zm-6.89 4.86l-1.158.525c-.036.016-.077.026-.107.041l-3.667-3.57 1.882-.964 3.692 3.657c-.209.107-.428.209-.642.311zm-9.894 2.315l-.974-.005c-.22 0-.439-.02-.658-.03l-1.82-4.753 2.11-.092 1.816 4.86c-.158 0-.311.015-.474.02zm-9.848-1.881l-1.48-.699c-.137-.071-.28-.128-.423-.204l.368-5.1 1.953.811-.418 5.192zm-9.017-6.63l-.413-.49c-.133-.163-.25-.342-.383-.51l2.454-4.457 1.433 1.555-2.535 4.519c-.189-.209-.377-.408-.556-.617zm-4.6-8.191l-.26-.887c-.072-.25-.133-.51-.194-.765l4.024-3.116.698 1.999-4.125 3.141c-.046-.127-.097-.249-.143-.372zm-.959-10.751c.056-.423.112-.841.189-1.254l4.982-1.153-.204 2.107-5.09 1.127.123-.827zm3.33-9.363c.163-.27.311-.541.485-.801l5.044.877-1.005 1.862-5.13-.938.606-1zm.53-5.651a30.337 30.337 0 01-2.3-2.208 35.81 35.81 0 012.668-2.555c.8.836 1.58 1.606 2.351 2.254a11.85 11.85 0 002.173 1.484 27.367 27.367 0 00-2.163 1.897c-.194.199-.367.413-.556.612-.693-.341-1.417-.846-2.172-1.484zm26.699-4.988l.714 5.075-2.08-.388-.68-5.171 2.046.484zm-.76-6.538c.316.046.633.092.954.143v6.023a24.589 24.589 0 00-2.132-.52c.316-.704.566-1.53.755-2.468.189-.969.321-2.046.423-3.178zm-4.473 2.821c.194-.98.327-2.066.429-3.213a46.05 46.05 0 013.682.341c-.107 1.127-.235 2.198-.423 3.157-.194.954-.444 1.79-.765 2.484a24.607 24.607 0 00-3.652-.362c.301-.694.546-1.495.73-2.407zm-14.325 6.543l4.238 2.835-1.673 1.296-4.29-2.928c.19-.137.373-.28.567-.418l.903-.632c.081-.056.168-.102.255-.153zm11.694.826l-2.04.546-2.83-4.351c.178-.045.356-.096.54-.137l1.173-.26c.112-.016.23-.031.342-.051l2.815 4.253zm-2.78-4.656l-.438.092c-.408.076-.806.168-1.209.265l-.796.173a.268.268 0 00-.06.026c-.006.005 0 .015-.006.02a24.528 24.528 0 00-6.482 2.866c-.015.005-.036-.01-.05 0l-.307.219c-.336.215-.658.449-.979.684l-.535.372c-.735-.362-1.474-.877-2.24-1.515-.75-.632-1.514-1.392-2.305-2.213 1.78-1.499 3.703-2.805 5.8-3.861 4.237-2.136 9.179-3.279 15.08-3.07-.102 1.127-.235 2.198-.424 3.157-.188.944-.438 1.77-.755 2.458-.076 0-.152-.01-.229-.01-1.372 0-2.708.143-4.019.357-.02-.005-.03-.025-.046-.02zm-18.732 3.641c-.005.005-.015-.005-.02 0-.005.005.005.015 0 .026-1.836 1.943-3.53 4.095-5.095 6.415-.082.118-.148.225-.21.322a3.899 3.899 0 01-.178.275c-.03.01 0-.158-.117-.561a3.518 3.518 0 01-.107-1.229c4.61-6.997 10.358-12.046 17.284-14.662 6.548-2.474 14.162-2.77 22.883-.5.362.408.643.836.781 1.203l.015.026c.02.03-.056-.01-.102.03a2.971 2.971 0 01-.505.373c-.015.01-.301-.092-.801-.23-.744-.199-1.856-.5-3.106-.724-.3-.056-.581-.082-.877-.127-.025-.016-.056-.036-.087-.036-.02 0-.03.015-.045.015-.393-.061-.786-.117-1.168-.173-.026-.01-.046-.031-.072-.036-.02 0-.04.015-.06.02-1.363-.178-2.699-.321-3.974-.367-.005-.005-.01-.01-.015-.01-.005 0-.005.005-.015.005-6.049-.245-11.113.918-15.453 3.101a30.746 30.746 0 00-6.028 4.039c-.005.005-.005 0-.005 0v.005a36.9 36.9 0 00-2.923 2.8zm-5.125 3.458c1.51-2.28 3.08-4.305 4.697-6.089a40.46 40.46 0 014.998-4.687 35.41 35.41 0 016.563-4.101 36.276 36.276 0 016.88-2.478c2.713.229 5.493.607 8.084 1.106 2.473.475 4.773 1.061 6.686 1.734.438.153.8.388 1.122.643-8.532-2.111-16.02-1.78-22.476.658-6.772 2.555-12.413 7.42-16.983 14.122.102-.306.235-.612.429-.908zm32.002-29.33a.926.926 0 01-.658 0 .679.679 0 01-.449-.663v-1.994h1.556v1.994a.672.672 0 01-.449.663zm-1.709-3.937a3.302 3.302 0 001.184-.546l.841 1.454h-1.5l-.525-.908zm-.744-.276H90.82v-1.667h2.178c1.02 0 1.673-.561 1.963-1.28.113-.276.164-.577.164-.872 0-.296-.051-.597-.164-.878-.29-.714-.943-1.275-1.963-1.275H90.82v-1.667h2.943c.806 0 1.54.331 2.076.867l.01.005a2.93 2.93 0 01.857 2.07v1.755a2.92 2.92 0 01-.867 2.075 2.929 2.929 0 01-2.076.867zm-2.943-5.604h2.178c.846 0 1.387.459 1.622 1.045a2.029 2.029 0 010 1.474c-.235.592-.776 1.051-1.622 1.051H90.82v-3.57zm6.212 9.205h1.877v14.091a54.337 54.337 0 00-1.877-.444v-13.647zm0-2.045h1.877v1.673h-1.877v-1.673zm9.894 29.988l-1.224 4.952-1.785-1.138 1.29-5.033c.061.041.123.071.184.112l.918.648c.214.148.418.301.617.459zm10.368-8.527l-3.432 4.253a.179.179 0 00-.051.127v4.407h-5.942c-.193-.163-.402-.311-.606-.469-.011-.011 0-.031-.016-.041l-.714-.505c-.311-.225-.622-.454-.948-.663l-.378-.27a.266.266 0 00-.061-.026c-.015-.005-.025.005-.036.005a24.86 24.86 0 00-3.855-1.963l16.039-4.855zm-1.872 8.787h-1.244v-4.345l2.846-3.519c-.724 1.494-1.602 3.355-1.602 5.161v2.703zm2.377-8.675l6.278 15.499-6.966-2.571c-1.321-.765-1.321-1.295-1.321-2.453v-4.503c0-1.765.902-3.631 1.611-5.11.153-.317.271-.587.398-.862zm2.32-4.651a122.707 122.707 0 003.326 8.756 133.63 133.63 0 004.11 8.721l.005.01c.73 1.296 1.745 2.8 3.07 3.978.062.056.133.102.194.153h-5.758l-7.053-17.421 2.106-4.197zm26.836-45.466a41.2 41.2 0 00-3.758 2.136c.02-.04.046-.096.071-.137.536-1.04.806-1.556 1.214-1.79.408-.23 1.015-.225 2.224-.21h.249zm-5.467-.378c.52-.892 1.173-1.53 1.979-1.938.811-.418 1.775-.607 2.912-.607h8.303a41.178 41.178 0 00-3.993 1.28c-1 .378-1.984.816-2.963 1.28-.449 0-.75-.005-1.015-.005-1.275-.015-1.918-.02-2.408.26-.51.286-.79.832-1.361 1.938-.112.22-.24.465-.383.735a44.594 44.594 0 00-4.391 3.34l3.32-6.283zm.021-3.62c0-.139.061-.271.153-.363a.505.505 0 01.357-.148h1.815a1.9 1.9 0 011.178.403c.286.224.49.535.617.887-.861.072-1.662.23-2.33.572-.709.367-1.291.938-1.79 1.647v-2.999zm10.699-5.958l1.418-1.596 9.343 7.293c-2.264.153-4.472.51-6.645.99l-4.116-6.687zm-21.465-16.988a2.229 2.229 0 01-.255-.234c-.342-.367-.429-.74-.378-1.081.046-.357.235-.679.439-.934.066-.086.132-.148.199-.214l.479.372c-.117.159-.24.383-.285.633a.98.98 0 00.249.862c.031.04.072.076.118.112l3.85 3.034c.01.02-.01.041.005.056a.19.19 0 00.26-.025l.026-.036.673-.81.653.504-.694.842a.185.185 0 00.021.26c.015.01.035-.01.051-.005l3.993 3.147a1.5 1.5 0 001.963-.077l11.226 8.762-1.377 1.55-21.216-16.718zm5.089 1.505l-.555.673-3.739-2.948a.626.626 0 01-.229-.627c.03-.184.122-.342.214-.464l4.309 3.366zm5.988 4.672c-.179.137-.388.24-.633.265-.27.02-.555-.046-.81-.25l-3.871-3.05.561-.673 4.753 3.708zm-33.808-26.852l7.732-5.482c1.535-1.138 1.734-2.158 2.04-3.759.239-1.25.515-2.489.78-3.733l64.346 50.377v2.056c0 .102.082.183.189.183h2.096v1.775h-8.318c-1.27 0-1.27 1.132-1.26 1.851h-8.369a52.285 52.285 0 00-3.697.077l-55.539-43.345zm-.454-.122c-2.417 1.729-3.33.938-5.324-.775-.383-.332-.806-.7-1.285-1.082-.653-.515-1.005-1.015-1.056-1.535-.05-.515.194-1.07.719-1.698L109.644 14h.005l.806-1.025c.291-.362.541-.536.791-.556.255-.02.525.112.841.367l1.989 1.596a.184.184 0 00.219.016l1.882-1.255a1.77 1.77 0 011.795-.03c.245.137.454.331.607.576.158.26.25.581.245.943-.469 2.229-.969 4.463-1.402 6.702-.291 1.52-.48 2.483-1.898 3.534l-7.966 5.656zm-7.96-3.06c-.133-.056-.26-.112-.398-.174-1.53-.688-2.953-1.305-4.325-1.178L78.953 13.47c-.056-.046-.123-.006-.184.02a283.336 283.336 0 008.41-10.078l5.33-2.794 16.737 13.295-8.914 11.287c-.592.703-.867 1.346-.806 1.973.01.097.046.194.071.29zm-6.595-.638L63.898 40.958l-2.882.362c.913-1.025 1.846-1.785 2.851-2.565l12.658-6.548a.185.185 0 00.03-.306l-7.007-5.564c-.076-.056-.178-.056-.245.015l-5.66 5.763a3.551 3.551 0 00-.765-.143 3.388 3.388 0 00-1.306.179c6.207-6.559 11.679-12.337 17.13-18.585-.014.067-.035.143.021.19l15.652 12.428a3.841 3.841 0 00-1.372.642zM82.196 37.011l-3.157-2.994 13.056-6.339-9.899 9.333zm-9.292 5.809a3.361 3.361 0 00-.556-1.23 3.253 3.253 0 00-1.545-1.116l7.905-6.263 2.147 2.035-7.95 6.574zm-7.87-2.005l12.256-5.951-6.926 5.487a3.536 3.536 0 00-1.168-.05l-4.161.514zm7.488 3.54c-.291.99-1.178 1.902-2.83 2.33l-13.506 3.55c.072-.066.153-.117.22-.184.806-.8 1.33-1.887 1.402-3.024.005-.056.005-.122.005-.194l.01-.53c.031-.015.072-.02.082-.05.949-2.02 1.851-3.413 2.77-4.52l8.567-1.07c1.23-.159 2.224.351 2.81 1.147.27.357.45.775.536 1.209a2.9 2.9 0 01-.066 1.336zm-19.171 6.63l-.163-.01c-1.224-.072-2.377-.475-3.234-1.178a3.767 3.767 0 01-1.402-2.591L46.94 30.952l1.8 3.183c.194.397.567.729.975.892.234.097.49.143.729.112a1.13 1.13 0 00.673-.347c.23-.255.393-.657.428-1.234.031-1.111.072-2.218.102-3.33l5.1-.066.944-.01-.245 16.676-.005.179c-.066 1.04-.55 2.045-1.295 2.784-.735.735-1.724 1.21-2.795 1.194zm-5.987-2.846a6.24 6.24 0 01-.026.275c-.143 1.372-.714 2.469-1.596 3.203-.883.735-2.076 1.107-3.453 1.02-.097-.005-.194-.015-.285-.02L.378 48.287l.04-.734 41.376 2.509a3.852 3.852 0 004.065-3.606l.857-14.05.994 10.016-.346 5.717zm3.916-17.906l-.102 3.3c-.03.49-.158.816-.336 1.01a.732.732 0 01-.444.234 1.095 1.095 0 01-.546-.092 1.544 1.544 0 01-.78-.714l-2.091-3.687 4.3-.05zM47.185 25.7l1.32.082c-.025 1.035.302 1.657.837 2.04.515.367 1.214.49 1.994.55l-.045 1.495-4.422.056.316-4.223zm4.35-3.815L51.352 28c-.714-.05-1.352-.163-1.795-.48-.47-.325-.735-.902-.674-1.901l.2-3.274 2.452-.46zm-4.07.072c.077-1.296.684-2.025 1.5-2.428.78-.392 1.76-.484 2.657-.49l-.066 2.285-.01.19-2.673.494a.19.19 0 00-.153.173l-.194 3.234-1.316-.082.255-3.376zm.23-3.03l4.009-2.677-.072 2.423c-.948.005-1.984.101-2.83.525a2.883 2.883 0 00-1.209 1.086l.102-1.357zm.265-4.498a3.33 3.33 0 011.122-2.295 3.369 3.369 0 012.418-.841h.005c.321.02.617.036.887.05 1.331.067 1.974.103 2.219.46.244.357.188 1.101.081 2.55-.025.387-.061.831-.092 1.341l-2.713.026c-.04 0-.071.01-.102.03l-4.064 2.713.24-4.034zm7.36 5.3c.535.785 1.315 1.198 2.233 1.519l.138 8.537-6.033.077c.107-3.59.224-7.186.331-10.771v-.01l.005-.225.082-2.77 2.504-.025c-.082 1.755.199 2.887.74 3.667zm8.7 12.52l5.426-5.519 6.656 5.284-10.93 5.65a3.15 3.15 0 00.526-.713 3.35 3.35 0 00.393-1.387c.06-1.026-.306-1.898-.908-2.525a3.448 3.448 0 00-1.05-.75c-.036-.015-.072-.025-.113-.04zm-6.033 3.682l2.626-2.76a2.943 2.943 0 012.244-.83 3.134 3.134 0 012.06.948c.536.561.862 1.336.806 2.254a3.01 3.01 0 01-1.178 2.213c-.005 0 0 .006 0 .006h-.005l-.535.418c-1.275.984-2.428 1.897-3.565 3.259l-.03.03c-.822.99-1.638 2.209-2.48 3.892l.057-9.43zM183.282 68.14h6.085v1.78h-6.085v-1.78zm.699-2.407c0-.561.23-1.071.597-1.443a2.052 2.052 0 011.443-.597h.602c.561 0 1.071.23 1.438.597.372.372.602.882.602 1.443v2.04h-4.682v-2.04zm1.581 4.554h1.52v1.775h-1.52v-1.775zm12.974 2.142a.892.892 0 01.893.893v1.611a2.49 2.49 0 01-.734 1.765 2.496 2.496 0 01-1.77.74h-3.575c-.837-1.158-1.943-1.99-3.402-2.515-2.346-.842-5.498-1.015-9.481-1.015l-4.483.005c-.01-.576-.01-1.484.893-1.484h21.659zm15.902 20.043c-1.81-.459-3.152-.576-4.248 1.32-1.239 2.25-2.678 4.458-3.942 6.702-.449.78-.658 1.479-.577 2.106.077.633.439 1.184 1.122 1.658l10.986 8.634h-2.433a.186.186 0 00-.158.087l-.612.821-5.906-4.61c-.01-.011-.01-.026-.02-.031l-1.133-.867-9.322-7.273a152.696 152.696 0 00-.526-5.038c-.372-3.045-.759-5.937-1.249-8.624-.485-2.683-1.066-5.141-1.826-7.319a7.927 7.927 0 00-.989-2.234h1.897l18.936 14.668zm.78.587c.903.265 2.311.576 3.836.907 2.738.602 5.859 1.29 6.956 1.918l3.641 2.142c-.79 0-1.525.387-2.494.897-.326.174-.683.368-1.076.551l-.005.005a1.245 1.245 0 00-.474.357.72.72 0 00-.143.388.72.72 0 00.082.393c.097.204.275.408.515.586l.867.632-5.916 8.89-.689-.485a.183.183 0 00-.25.036l-1.881 2.473-11.174-8.787c-.597-.413-.913-.877-.98-1.413-.061-.54.123-1.162.531-1.871 1.254-2.193 2.601-4.58 3.942-6.702 1.091-1.892 2.519-1.51 4.539-.969l.173.052zm15.305 15.151c-1.683-1.198-2.264-1.611-4.177-.051l-1.025.827 3.734-5.6 5.033 3.662-2.968 1.581a47.382 47.382 0 01-.597-.419zm-6.619 3.458a1.174 1.174 0 01-.169-.153l-.051-.066.638-.954.321-.484 1.933-1.566c1.698-1.382 2.218-1.015 3.733.066l.444.311-4.442 2.372-1.78.948-.627-.474zm-.745.571l.311-.469c.061.066.133.133.214.194l.495.367-.505.265-.515-.357zm-1.851-1.305l5.911-8.879 1.535 1.112-4.407 6.619-.051.082-1.438 2.157-1.55-1.091zm-15.423 7.951a40.573 40.573 0 012.943-2.78.179.179 0 00.077-.148v-.275l2.713 2.096-1.54 2.065-4.621 2.464-1.933-.689a37.106 37.106 0 012.361-2.733zm.985-5.575l1.667 1.286v1.28a39.614 39.614 0 00-2.917 2.759 34.786 34.786 0 00-2.55 2.958c-2.341 2.769-4.258 5.921-5.88 9.236-.709 1.448-1.336 2.937-1.938 4.432l-1.79-.72c3.402-7.445 7.772-14.743 13.408-21.231zm-2.229-6.237l-.841 1.102-5.36-4.096c-.062-.861-.128-1.723-.199-2.555l6.813 5.309c-.158.046-.311.102-.413.24zm3.861 2.943l-.23.296-3.565-2.719.225-.295a.418.418 0 01.27-.159.416.416 0 01.301.082l1.861 1.418 1.077.841a.404.404 0 01.137.235.402.402 0 01-.076.301zm-.592 1.382l.546-.714.336-.444c.092-.117.092-.265.108-.403l5.456 4.259-1.076 1.448-5.37-4.146zm-1.642.189l.331.249a.765.765 0 00.572.153.769.769 0 00.51-.29l.01-.01 5.37 4.146-1.224 1.647-2.932-2.264v-.714a.187.187 0 00-.072-.143l-1.877-1.448c-.005-.006-.01.005-.015 0-.03-.021-.061-.041-.097-.041-.398 0-.867-.153-1.346-.367l.77-.918zm-2.213-1.688l1.922 1.468-.811.964c-.178-.102-.362-.163-.53-.285a4.344 4.344 0 01-1.224-1.377l.643-.77zm-.306-.847a.396.396 0 01.076-.301l.658-.867 3.57 2.723-.668.872a.407.407 0 01-.556.072l-2.927-2.234a.367.367 0 01-.153-.265zm-1.602 1.402c-.556.51-1.586 1.219-3.646.704.086-1.071.112-2.223.086-3.437l3.56 2.733zm-3.565-3.202c-.01-.276 0-.531-.015-.811-.025-.617-.066-1.245-.102-1.877l5.11 3.901-.041.062a.765.765 0 00-.153.571.795.795 0 00.296.515l.087.061-.551.663c-.015-.03-.046-.056-.056-.092-.102-.265-.235-.331-.428-.265l-.016.005c-.086.036-.183.133-.285.225l-3.846-2.958zm-6.492 29.498c-3.249 7.589-5.523 15.238-7.104 22.312l-14.443-6.247a.163.163 0 00-.087-.021H157.41v-5.543h13.306c1.964 0 3.422-.587 4.636-1.479 1.204-.888 2.147-2.066 3.091-3.264l.005-.011c1.055-1.489 2.244-2.942 3.427-4.391 1.152-1.412 2.305-2.825 3.356-4.294l6.859 2.938zm.944-2.163c-.097.215-.204.429-.301.643-.174.393-.332.79-.5 1.183l-6.783-2.907a554.354 554.354 0 005.885-8.42 247.662 247.662 0 005.753-8.828c.724-.994 1.137-2.422 1.352-4.121.02-.188.02-.413.04-.607 2.443.587 3.55-.443 4.101-.979.122-.117.214-.204.265-.219l.005-.005c.005 0-.046.031-.036.051.046.133.148.235.214.362.011.026-.02.061.006.082.015.015.03-.011.045 0a4.65 4.65 0 001.342 1.524c.204.143.423.245.642.357.005.011-.005.021 0 .031.016.01.031-.01.046-.005.464.235.928.423 1.352.484-5.641 6.528-10.011 13.862-13.408 21.339-.005.005-.015.01-.02.015-.006.01 0 .01 0 .02zm21.006-16.855l-.464.25-.801.423 3.096-4.156a.366.366 0 01.219-.133.332.332 0 01.235.056c.01.01.02.016.036.021a.23.23 0 01.051.081l.005.005a.345.345 0 01.046.164.304.304 0 01-.061.173l-2.362 3.116zm2.652-2.897a.621.621 0 00.143-.392.759.759 0 00-.087-.332l-.005-.01a.613.613 0 00-.168-.209c-.02-.016-.041-.026-.061-.036a.691.691 0 00-.934.173l-3.564 4.784-1.173.622 4.595-6.176h2.728c.056 0 .112-.02.148-.071l.051-.066 1.887-2.479.704.495 2.356 1.657-8.497 4.529 1.877-2.489zm14.295-16.024l.556.327 8.67 5.222c-.29.041-.586.061-.867.138-.892.234-1.754.637-2.738 1.203l-2.163 1.158-8.17-5.947c-.194-.148-.337-.301-.403-.448a.43.43 0 01-.046-.215.344.344 0 01.072-.188.842.842 0 01.331-.245l.01-.005c.398-.2.76-.388 1.092-.561 1.418-.75 2.305-1.209 3.656-.439zM99.281 108.67v-1.861h1.55v1.994a.672.672 0 01-.448.663.864.864 0 01-.327.061.879.879 0 01-.326-.061.672.672 0 01-.449-.663v-.133zm0-10.276c0-.367.199-.607.449-.709a.992.992 0 01.326-.061c.112 0 .225.025.327.061.255.102.448.342.448.709v8.043h-1.55v-8.043zm1.923 8.231v-8.21l1.045-3.902c.082-.311.194-.52.316-.668a.807.807 0 01.373-.25c.255-.082.387-.082.459-.01.092.092.148.29.224.566.408 1.474.648 4.962.678 8.486.031 3.392-.127 6.809-.515 8.507l-.02.071c-.036.163-.071.327-.117.459-.102.322-.271.52-.709.383a.84.84 0 01-.373-.255c-.127-.143-.234-.357-.316-.663l-1.045-3.907v-.607zm152.29 5.682l-.051-.454a31.464 31.464 0 00-.271-1.979 16.694 16.694 0 00-.438-1.984c-.332-1.137-.602-1.775-1.061-2.167-.464-.403-1.086-.526-2.137-.633l-7.262-.76a9.267 9.267 0 00-1.479-.051l-9.048-5.446-.04-.026-.495-.296c-.031-.02-.056-.025-.082-.04l-4.937-2.902c-1.157-.663-4.299-1.352-7.063-1.959-1.51-.331-2.897-.637-3.784-.897l-19.242-14.907h.821c.79 0 1.504-.327 2.025-.842l.005-.005c.52-.52.841-1.234.841-2.025v-1.611a1.258 1.258 0 00-1.26-1.26h-11.092v-1.775h2.106a.183.183 0 00.184-.183v-2.148a.183.183 0 00-.184-.183h-.52v-2.04a2.4 2.4 0 00-.709-1.703 2.397 2.397 0 00-1.698-.71h-.602a2.4 2.4 0 00-1.698.71l-.005.005a2.396 2.396 0 00-.704 1.698v2.04h-.459l-64.509-50.505c.183-.857.362-1.719.54-2.58.005-.01.005-.026.005-.036a2.098 2.098 0 00-.301-1.158 2.111 2.111 0 00-1.723-.98 2.137 2.137 0 00-1.189.322l-1.774 1.178-1.887-1.514c-.393-.311-.74-.475-1.097-.45-.357.031-.699.246-1.056.7l-.688.877L92.641.256a.176.176 0 00-.21-.01L86.976 3.1a.204.204 0 00-.061.051l-8.216 10.343L59.425 33.89l-1.443 1.514.081-5.436h-.005c0-.005.005-.005.005-.005l-.148-8.854a.176.176 0 00-.122-.168c-.903-.3-1.668-.683-2.173-1.423-.51-.74-.77-1.856-.663-3.631.036-.561.072-1.066.102-1.51.118-1.53.174-2.32-.142-2.78-.347-.51-1.051-.545-2.505-.621-.26-.016-.55-.03-.882-.051h-.01a3.735 3.735 0 00-3.932 3.483l-.255 4.401-.5 6.681-.005.005.005.005-.347 4.59v.005l-.994 16.34c-.056.954-.5 1.8-1.168 2.387a3.47 3.47 0 01-2.514.872L.26 47.17a.187.187 0 00-.193.173L0 48.44a.186.186 0 00.169.194l41.799 4.345c.102.01.199.02.296.025 1.479.092 2.759-.31 3.712-1.106.954-.79 1.576-1.98 1.73-3.448.01-.097.014-.194.02-.29l.214-3.438.25 2.52c.117 1.198.693 2.152 1.535 2.84.913.75 2.142 1.183 3.442 1.26.056.005.112.005.179.005.714.01 1.382-.194 1.989-.52.01 0 .015.005.02.005l14.433-3.794c1.795-.465 2.76-1.474 3.086-2.581.122-.403.132-.816.091-1.214l8.16-6.742.944.898a.188.188 0 00.255 0l10.888-10.267c1.79-1.32 3.698-.469 5.84.49.24.112.49.22.76.337.198.336.494.668.907.994.48.388.898.745 1.275 1.076 2.122 1.826 3.106 2.662 5.707.842l22.761 17.763c-.066.066-.132.127-.199.209-.239.296-.459.683-.52 1.112-.061.438.046.918.474 1.382a3.2 3.2 0 00.296.275l21.328 16.8 4.034 6.563h-9.496c-.132 0-.24.03-.367.036a2.355 2.355 0 00-.775-1.143c-.388-.3-.872-.48-1.403-.48h-1.815a.87.87 0 00-.617.256.863.863 0 00-.26.622v3.499l-3.744 7.078c-.489.434-.974.878-1.448 1.347-2.974 2.886-5.687 6.314-8.242 10.343-2.55 4.028-4.931 8.664-7.252 13.984-.79 1.744-1.372 3.626-1.525 5.732-.148 2.081.123 4.391 1.025 6.997l-2.274 4.519-17.009 5.151a24.562 24.562 0 00-1.392-.495v-6.064c.24.041.47.061.714.107 1.224.219 2.336.52 3.08.719.587.158.964.26 1.082.189.142-.082.403-.26.571-.423.153-.153.245-.311.178-.459-.153-.388-.448-.842-.831-1.275a.14.14 0 00-.082-.097c-.056-.067-.091-.133-.158-.194a4.407 4.407 0 00-1.591-.989 38.43 38.43 0 00-2.963-.898v-13.464c.097.087.194.189.316.235.148.056.301.086.459.086.153 0 .316-.03.459-.086a1.03 1.03 0 00.689-1.005v-.148l.688 2.576c.097.362.235.622.388.805.168.194.357.306.546.368.729.239.999-.092 1.173-.618.045-.153.086-.321.122-.489l.02-.072c.398-1.723.561-5.176.526-8.593-.031-3.55-.276-7.069-.689-8.578-.092-.332-.168-.576-.326-.734-.179-.174-.424-.21-.826-.077a1.166 1.166 0 00-.541.367c-.158.179-.296.444-.393.806l-.887 3.315a1.08 1.08 0 00-.49-.388 1.267 1.267 0 00-.918 0c-.387.158-.688.505-.688 1.051v8.043h-1.954l-.979-1.688c.041-.036.087-.067.123-.102a3.288 3.288 0 00.974-2.336v-1.755c0-.902-.367-1.723-.964-2.325l-.01-.01a3.288 3.288 0 00-2.336-.975h-3.126a.183.183 0 00-.184.184v8.007c0 .102.082.184.184.184h3.126c.117 0 .234-.026.352-.036l.627 1.086v2.132c0 .52.301.857.689 1.005a1.267 1.267 0 00.918 0c.122-.046.214-.148.316-.235v12.852c-.383-.077-.765-.163-1.163-.235a78.075 78.075 0 00-8.15-1.116c-.025 0-.05 0-.071.005a36.9 36.9 0 00-6.967 2.509 35.75 35.75 0 00-6.635 4.146 40.396 40.396 0 00-5.038 4.723 51.812 51.812 0 00-4.738 6.14 4.232 4.232 0 00-.638 1.612 3.836 3.836 0 00.102 1.708c.189.658.332.882.571.811.143-.041.245-.199.388-.434.056-.086.122-.193.199-.311 1.525-2.249 3.162-4.345 4.931-6.237.791.821 1.566 1.586 2.326 2.224.74.627 1.464 1.122 2.157 1.484-.8.877-1.555 1.795-2.218 2.784h-.005l-.439.735c-.27.428-.546.851-.785 1.3l-.067.102a.259.259 0 00-.02.067v.01a24.455 24.455 0 00-2.402 6.808c0 .005-.01.005-.015.015l-.194 1.357c-.04.296-.097.587-.128.887l-.03.225c-.005.02 0 .041 0 .061.005.01.01.015.015.026a24.287 24.287 0 00-.107 2.121c0 1.994.27 3.932.724 5.799-.005.02-.025.03-.02.056l.255.852c.087.306.173.612.265.912l.189.623c.005.02.015.046.03.066.01.01.026-.005.036.005a24.726 24.726 0 003.509 6.477c.005.025-.01.051.005.076l.47.561c.142.174.29.342.438.516l.693.836a.23.23 0 00.056.041c.01.01.026-.01.036-.01.184.198.352.413.546.601a24.45 24.45 0 005.783 4.289s0 .006.005.006l.485.229c.54.275 1.086.546 1.652.78l.107.051a.213.213 0 00.077.026s0-.005.005-.005a24.507 24.507 0 007.89 1.739c.02.01.03.041.05.041h.74c.189.005.377.03.566.03.163 0 .316-.02.48-.025l.713.005c.02 0 .041-.005.062-.016.02 0 .025-.02.035-.03a24.536 24.536 0 007.793-1.688c.01-.005.02.01.031.005l.188-.087c.424-.173.832-.372 1.245-.566l.831-.382a.152.152 0 00.061-.036c.005-.005 0-.01 0-.01a24.723 24.723 0 005.952-4.376.11.11 0 01.025-.02c0-.006.005 0 .005-.006l1.342-1.484c.071-.081.153-.158.219-.239l.107-.118c.015-.015.036-.035.041-.066.005-.005 0-.01 0-.015a24.595 24.595 0 003.805-6.615c.01-.01.03-.01.035-.025l.22-.663c.142-.419.29-.837.413-1.26l.148-.449a.261.261 0 00.01-.066c0-.01-.016-.021-.021-.031.541-2.024.857-4.141.857-6.334 0-.066-.01-.127-.01-.199h5.375c.832 0 1.362.118 1.678.418.316.291.434.781.434 1.525v3.672c0 .755.102 1.398.474 1.872.377.474 1.015.75 2.081.75h66.493a.188.188 0 00.184-.148 175.07 175.07 0 011.621-8.089h2.01c0 .072-.01.133-.01.199 0 2.004.265 3.942.719 5.809 0 .015-.026.025-.016.046l.194.673c.123.418.24.836.378 1.25l.137.464c.005.02.016.046.031.066.005.01.02-.005.025.005a24.606 24.606 0 003.519 6.492c.01.021-.005.041.005.061l.347.408c.23.291.464.567.704.842l.551.663c.015.015.03.031.056.041.01.01.015-.01.03-.005.174.188.337.392.521.576a24.703 24.703 0 005.809 4.304.017.017 0 01.005.011l.739.346c.454.225.908.454 1.377.653l.133.061a.186.186 0 00.071.026c.005 0 .01-.005.015-.005a24.474 24.474 0 007.885 1.739c.02.01.031.041.051.041h.739c.189.005.378.03.567.03.163 0 .316-.02.474-.025l.719.005c.02 0 .041-.005.061-.016.02 0 .026-.02.036-.03a24.575 24.575 0 007.793-1.688c.01-.005.02.01.03.005l.189-.087a22.25 22.25 0 001.239-.566l.837-.382c.02-.005.04-.021.061-.036.005-.005 0-.01 0-.01a24.717 24.717 0 005.951-4.376l.021-.02c.005-.006.01 0 .01-.006l1.362-1.504c.066-.071.132-.143.199-.219l.107-.118a.159.159 0 00.04-.066v-.015a24.69 24.69 0 003.81-6.615c.005-.01.026-.01.031-.025l.219-.668c.143-.414.286-.832.413-1.255l.148-.449c.005-.02.005-.041.005-.066 0-.01-.01-.021-.015-.031.54-2.024.857-4.141.857-6.334 0-.408-.041-.811-.062-1.219.005-.02.031-.035.026-.056l-.066-.683c-.021-.281-.036-.556-.072-.832h3.871c.923 0 1.872-.357 2.55-1.116.566-.633.944-1.551.949-2.765.489-2.876.892-5.814 1.162-8.792.271-2.978.408-6.003.388-9.052-.056-6.289-.78-12.694-1.504-19.13z" fill="#fff"/></svg>