<svg width="1000" height="416" fill="none" xmlns="http://www.w3.org/2000/svg"><path d="M920.92 272.24c6.12 0 11.66 2.48 15.68 6.48 4 4.02 6.48 9.56 6.48 15.68 0 6.12-2.48 11.66-6.48 15.68-3.8 3.8-8.98 6.22-14.7 6.46l20.78 14.86h6.44v-17.82c0-.4.32-.72.72-.72h36.24c3.42 0 6.54-1.4 8.82-3.68 2.26-2.26 3.66-5.38 3.66-8.82 0-3.42-1.4-6.54-3.66-8.82-2.28-2.26-5.4-3.66-8.82-3.66h-34.66c-.3 0-.56-.18-.68-.46l-25.14-49a.322.322 0 01-.08-.14l-10.4-20.26a3.73 3.73 0 01-.2-.4l-17.78-34.64a.435.435 0 01-.1-.16l-4.44-8.64c-2-4.18-5.42-6.34-9-6.86-1.9-.28-3.84-.08-5.64.52-1.8.6-3.46 1.62-4.78 3a11.6 11.6 0 00-2.02 2.84.65.65 0 01-.14.34c-1 2.22-1.34 4.94-.7 8.04v.02c.26 1.68.52 3.36.76 5.02v.12c2.4 16.84 3.18 32.84 2.78 48.82-.46 17.32-2.32 34.64-5.12 53.06l12.96-1.78c2.5-.18 4.68.66 6.4 2.08 1.48 1.22 2.62 2.9 3.28 4.74.68 1.82.88 3.84.52 5.76-.4 2.22-1.58 4.32-3.66 5.86l-10.4 6.88 9.72.58.14-.02c.08 0 .16.02.24.04l23.9 1.4c-2.48-1.12-4.7-2.66-6.6-4.56-4.02-4.02-6.5-9.56-6.5-15.68 0-6.12 2.48-11.66 6.5-15.68 4.02-4 9.56-6.48 15.68-6.48zm-620.7-129.68h12.56c.4 0 .72.32.72.72v3.66c0 .4-.32.72-.72.72h-13.1c-.4 0-.72-.32-.72-.72v-.02c-.04-.64-.06-1-.08-1.22-.04-.32-.06-.46-.02-.64.02-.16.06-.28.14-.46.1-.22.26-.62.52-1.52.1-.32.38-.52.7-.52zm11.82 1.44h-11.3c-.2.62-.32.94-.4 1.14l-.06.12.08.96h11.68V144zm-12.3 5.1h13.04c.4 0 .72.32.72.72v3.66c0 .4-.32.72-.72.72h-13.24c-.4 0-.72-.32-.72-.72v-.14c.06-.56.1-1.14.14-1.72.02-.62.06-1.22.06-1.8 0-.4.32-.72.72-.72zm12.3 1.44h-11.6l-.04 1.14-.08 1.08h11.72v-2.22zm-12.88 5.1h13.62c.4 0 .72.32.72.72v3.66c0 .4-.32.72-.72.72H298.4c-.4 0-.72-.32-.72-.72 0-.08.02-.16.04-.22.14-.6.28-1.18.4-1.74.12-.6.24-1.22.34-1.82.06-.34.36-.6.7-.6zm12.88 1.44h-12.26c-.08.42-.16.84-.26 1.26l-.2.96h12.72v-2.22zm67.4-1.36h17.54c.4 0 .72.32.72.72v3.66c0 .4-.32.72-.72.72h-17.54c-.4 0-.72-.32-.72-.72v-3.66c0-.4.32-.72.72-.72zm16.82 1.44h-16.1v2.22h16.1v-2.22zm-16.82-7.94h17.54c.4 0 .72.32.72.72v3.66c0 .4-.32.72-.72.72h-17.54c-.4 0-.72-.32-.72-.72v-3.66c0-.4.32-.72.72-.72zm16.82 1.44h-16.1v2.22h16.1v-2.22zm-16.82-8.1h17.54c.4 0 .72.32.72.72v3.66c0 .4-.32.72-.72.72h-17.54c-.4 0-.72-.32-.72-.72v-3.66c0-.4.32-.72.72-.72zm16.82 1.44h-16.1v2.22h16.1V144zm-40.16 11.72h17.54c.4 0 .72.32.72.72v3.66c0 .4-.32.72-.72.72H356.1c-.4 0-.72-.32-.72-.72v-3.66c0-.4.32-.72.72-.72zm16.82 1.44h-16.1v2.22h16.1v-2.22zm-16.82-7.94h17.54c.4 0 .72.32.72.72v3.66c0 .4-.32.72-.72.72H356.1c-.4 0-.72-.32-.72-.72v-3.66c0-.4.32-.72.72-.72zm16.82 1.44h-16.1v2.22h16.1v-2.22zm-16.82-8.1h17.54c.4 0 .72.32.72.72v3.66c0 .4-.32.72-.72.72H356.1c-.4 0-.72-.32-.72-.72v-3.66c0-.4.32-.72.72-.72zm16.82 1.44h-16.1v2.22h16.1V144zm-40.5 11.72h17.52c.4 0 .74.32.74.72v3.66c0 .4-.34.72-.74.72h-17.52c-.4 0-.74-.32-.74-.72v-3.66c0-.4.34-.72.74-.72zm16.8 1.44h-16.08v2.22h16.08v-2.22zm-16.8-7.94h17.52c.4 0 .74.32.74.72v3.66c0 .4-.34.72-.74.72h-17.52c-.4 0-.74-.32-.74-.72v-3.66c0-.4.34-.72.74-.72zm16.8 1.44h-16.08v2.22h16.08v-2.22zm-16.8-8.1h17.52c.4 0 .74.32.74.72v3.66c0 .4-.34.72-.74.72h-17.52c-.4 0-.74-.32-.74-.72v-3.66c0-.4.34-.72.74-.72zm16.8 1.44h-16.08v2.22h16.08V144zm-2.58-38.86h-24.98v4.3c.56.88.88 1.88.94 2.88.06 1.22-.24 2.48-.94 3.56v7.16h24.98v-17.9zm-24.98-1.46h24.98V21.74h-24.98v81.94zm21.68-93.48h.7c1.44.02 2.18.02 2.4-.16.18-.18.18-.88.16-2.3V7.4h-3.26v2.8zm4.7-2.8v.32c.02 1.86.04 2.78-.64 3.4-.62.56-1.56.54-3.38.52h-.68v1.48c5.88 0 6.48 0 6.5-5.72h-1.8zm3.26-.72c0 7.88-.48 7.88-7.96 7.88v5.72h4.02c.4 0 .72.32.72.72v102.04h20.24l-.02-1.08c0-.36 0-.72.02-1.08v-27.1h-7.02c-.38 0-.72-.34-.72-.72 0-3.38 2.78-6.72 7.12-9.16 4.06-2.3 9.52-3.84 15.3-3.84h.04c5.76 0 11.22 1.54 15.28 3.84 4.34 2.44 7.12 5.78 7.12 9.16 0 .38-.34.72-.72.72h-7.02v22.8h15.48c3.56 0 3.98 2.86 3.98 5.38l-.02 1.08h13.02c.4 0 .72.32.72.72v80.7h1.82l14.98-190.48H441c-.4 0-.72-.32-.72-.72V3.54c0-.4.32-.72.72-.72h205.5c.4 0 .72.32.72.72v9.72c0 .4-.32.72-.72.72h-6.74v123.86h6.56c.22 0 .42.1.56.28l35.48 44.68c.12.12.18.3.18.48v42.94h8.32v-15.28c0-4.2 2.36-9 5.76-12.66 2.84-3.08 6.44-5.38 10-5.96h.04l45.84-7.02h.02l26.42-3.84-.72-4.2c-.06-.4.2-.78.6-.84l12.64-2.14c.4-.06.76.2.84.58l1.22 7.24c3.92-.66 5.66-.82 6.72 1l69.7-10.2c.6-1.14 1.34-2.18 2.2-3.06 1.5-1.54 3.36-2.68 5.36-3.36 2.02-.68 4.18-.9 6.3-.58 4.02.56 7.86 3 10.1 7.66l4.26 8.3h14.48v-9.02c0-.4.32-.72.72-.72h5.36c.4 0 .72.32.72.72v9.02h16c1.7 0 3.26.68 4.38 1.82a6.136 6.136 0 011.8 4.36v60.16h12.12c.4 0 .72.32.72.72v37.52h31.62c3.82 0 7.3 1.56 9.84 4.1 2.52 2.52 4.08 6 4.08 9.82 0 3.84-1.56 7.32-4.08 9.84-2.54 2.54-6.02 4.1-9.84 4.1h-35.5v17.1h3.34c.4 0 .72.34.72.74v13.28c0 .4-.32.72-.72.72h-10.76c-.16 10.52-3.74 19.18-9.44 26.52-5.8 7.48-13.78 13.58-22.56 18.92-7.12 4.32-15.9 9.14-25.22 13.54-7.76 3.64-15.9 6.98-23.82 9.52-1.82.68-3.18.9-4.1.78-.6-.08-1.04-.32-1.34-.7-.3-.38-.4-.88-.3-1.44.12-.78.62-1.76 1.52-2.88h.02c1.74-2.06 3.76-4.4 5.86-6.84 5.5-6.36 11.6-13.42 15.88-19.02-.84-1.36-1-2.7-.1-3.64 1.94-2.96 3.7-5.52 5.32-7.86 8.06-11.64 11.86-17.16 9.08-34.56-.36-2.22-.12-3.4.96-4.08.84-.56 2.12-.64 4.04-.66l-.02-4.86-11.28-.82c-.38-.04-.68-.34-.68-.72v-12.72l-11.16-.64-11.96 7.92c-.1.06-.2.1-.3.12L729.3 340.56l.16 5.54 2.88 2.34c.2.16.3.4.26.64l-.78 5.96c-.04.26-.2.46-.44.56l-3.34 1.5-1.36 5.8 2.28 2.9c.18.22.2.5.1.72l-2.06 5.6c-.08.26-.32.44-.58.48l-3.58.72-2.68 5.3 1.44 3.42c.12.24.06.54-.1.74l-3.44 4.84c-.14.22-.38.32-.62.3l-3.7-.22-4.02 4.38.46 3.68a.68.68 0 01-.3.68l-4.66 3.72c-.22.18-.5.2-.72.1l-3.44-1.24-5 3.22-.38 3.68c-.04.28-.2.5-.44.6l-5.38 2.58c-.24.1-.5.08-.7-.04l-3.12-2.02-5.62 1.94-1.32 3.46c-.1.26-.32.42-.56.46l-5.86 1.12c-.26.04-.52-.04-.68-.22l-2.48-2.72-5.88.68-1.86 3.18c-.16.24-.4.36-.68.36l-5.94.14c-.24 0-.48-.14-.62-.34l-1.98-3.06-5.88-.02-1.92 3.1c-.14.24-.4.36-.68.34h-5.92c-.26 0-.5-.14-.62-.34l-1.92-3.1h-5.86l-1.92 3.1c-.14.24-.4.36-.66.34h-5.94c-.26 0-.48-.14-.62-.34l-1.9-3.1h-5.88l-1.9 3.1c-.14.24-.42.36-.68.34h-5.94c-.24 0-.48-.14-.6-.34l-1.92-3.1h-5.86l-1.92 3.1c-.14.24-.4.36-.68.34h-5.92c-.26 0-.5-.14-.62-.34l-1.9-3.1h-5.88l-1.92 3.1c-.14.24-.4.36-.66.34h-5.94c-.26 0-.48-.14-.62-.34l-1.9-3.1h-5.88l-1.9 3.1c-.16.24-.42.36-.68.34h-5.92c-.28 0-.5-.14-.62-.34l-1.92-3.1h-5.86l-1.92 3.1c-.14.24-.4.36-.68.34h-5.92c-.26 0-.48-.14-.62-.34l-1.9-3.1h-5.88l-1.92 3.1c-.14.24-.4.36-.66.34h-5.94c-.26 0-.48-.14-.6-.34l-1.92-3.1h-5.88l-1.9 3.1c-.14.24-.42.36-.68.34h-5.94c-.24 0-.48-.14-.6-.34l-1.92-3.1h-5.86l-1.92 3.1c-.14.22-.38.34-.62.34h-5.98c-.28 0-.5-.14-.64-.36l-1.88-3.08h-5.88l-1.9 3.1c-.16.24-.42.36-.68.34h-5.94c-.26 0-.48-.14-.6-.34l-1.92-3.1h-5.88l-1.9 3.1c-.16.24-.42.36-.68.34h-5.92c-.26 0-.5-.14-.62-.34l-1.92-3.1h-5.86l-1.92 3.1c-.14.24-.4.36-.66.34h-5.94c-.26 0-.5-.14-.62-.34l-1.9-3.1h-5.88l-1.9 3.1c-.16.24-.42.36-.68.34h-5.94c-.26 0-.48-.14-.6-.34l-1.92-3.1h-5.86l-1.92 3.1c-.14.24-.4.36-.66.34h-5.94c-.26 0-.5-.14-.62-.34l-1.92-3.1h-5.86l-1.92 3.1c-.14.24-.4.36-.66.34h-5.94c-.26 0-.48-.14-.62-.34l-1.92-3.1h-5.86l-1.9 3.1c-.16.24-.42.36-.68.34h-5.94c-.26 0-.48-.14-.62-.34l-1.9-3.1h-5.88l-1.9 3.1c-.14.24-.42.36-.68.34h-5.92c-.26 0-.5-.14-.62-.34l-1.92-3.1h-5.86l-1.92 3.1c-.14.24-.4.36-.66.34h-5.94c-.26 0-.48-.14-.62-.34l-1.9-3.1-5.9.02-1.98 3.06c-.14.22-.38.34-.62.34l-6-.14a.763.763 0 01-.6-.36l-1.86-3.18-5.9-.68-2.48 2.72c-.18.2-.44.26-.68.22l-5.88-1.12a.674.674 0 01-.54-.46l-1.32-3.46-5.62-1.92-3.12 2c-.22.14-.5.14-.72.02l-5.38-2.58a.66.66 0 01-.4-.58l-.4-3.68-5-3.22-3.48 1.26c-.24.08-.48.02-.68-.12l-4.68-3.74c-.22-.18-.32-.44-.26-.7l.54-4.28-141.02 13.2h-.04l-6.86.66c-.4.02-.76-.26-.8-.66l-.58-7.78h-9.14c-.4 0-.72-.32-.72-.72v-3.06H80.62l-3.3 2.64c-.12.1-.28.14-.44.14H57.02l-44.3 18.38c-1.88 1.28-4.04 1.54-6.02 1.06-1.16-.28-2.26-.8-3.22-1.52-.96-.72-1.8-1.62-2.4-2.66-1.48-2.52-1.64-5.78.72-8.8l14.78-19.04a.74.74 0 01.58-.28h5.36l18.02-129.5c0-.2.1-.4.26-.52v-.02l.02-.02h.02l.02-.02h.02l.02-.02.06-.02v-.02l40.56-20.18c1.22-.7 2.54-1.04 3.78-1.04 1.1 0 2.16.26 3.08.76.92.5 1.74 1.26 2.3 2.24.6 1.02.94 2.28.94 3.78v19.82c0 1.2-.22 2.48-.76 3.62-.48.98-1.2 1.84-2.24 2.44l-7.54 4.52v11.34l27.36 9.7c.38.14.56.56.44.92l-3.64 8.4 7.3 1.14 2.12-3.66c.14-.24.38-.36.62-.36h6.22l7.24-12.8c.16-.32.56-.48.92-.32l1.64.68 29.44-32.98V133.8c0-5.32 4.6-5.5 7.56-5.48.08-1.42.7-2.7 1.64-3.64a5.59 5.59 0 013.98-1.64h92.72l36.68-41.12c.26-.28.7-.32 1-.08l.02.02.02.02.02.02 14.7 13.4c.28.26.3.72.04 1l-5.24 5.9 6.34 5.66V21c0-.4.32-.72.72-.72h4.04V7.4h-7.24c-.4 0-.72-.34-.72-.74l-.04-1.52c0-2.18.36-4.66 3.5-4.66h27.36c3.12 0 3.48 2.48 3.48 4.66 0 .5-.02 1-.02 1.5v.04zm-32.86-.74h31.42l.02-.8c0-1.5-.22-3.22-2.04-3.22h-27.36c-1.84 0-2.06 1.72-2.06 3.22l.02.8zm23.44 14.34V7.4h-15.46v12.88h15.46zm-21.5 89.84c-.02-.04-.04-.06-.06-.1-.18-.26-.4-.5-.66-.72l-6.74-6.04-1.7 1.9c.4.34.8.68 1.22 1.02.62.5 1.22 1.02 1.8 1.54 2.7 2.4 4.56 4.88 2.1 7.62l-7.88 8.82c-.02.06-.06.1-.1.14L297.9 136c-.02.02-.04.06-.08.08l-16.92 18.94c0 .02-.02.04-.04.06l-.02.02-16.7 18.72c-.04.02-.06.06-.08.08l-.04.04-44.9 50.26c-2.46 2.76-5.12 1.18-7.8-1.22-.6-.52-1.16-1.06-1.72-1.6-.38-.38-.76-.74-1.12-1.08l-2.08 2.34 6.74 6c.9.82 2.08 1.18 3.22 1.12 1.12-.06 2.24-.56 3.06-1.44l83.22-93.2.1-.1 10.46-11.72.06-.06 6.76-7.58c.12-.12.22-.24.3-.38.02-.02.04-.04.06-.08.58-.84.84-1.82.78-2.8-.04-.8-.3-1.6-.78-2.28zm-.16 12.92v-5.44l-4.86 5.44h4.86zm76.04-20.86h-26.5v15.14c.6-.46 1.4-.74 2.52-.74h23.98v-14.4zm-26.5-1.46h26.5v-6.94h-26.5v6.94zm27.24-8.4h6.94c-.38-2.58-2.78-5.16-6.32-7.16-3.86-2.2-9.08-3.64-14.6-3.64-5.54 0-10.76 1.44-14.62 3.64-3.54 2-5.92 4.58-6.32 7.16H397zm-27.24 28.72v2h45.94v-.1c.02-.26.02-.54.02-.98 0-1.84-.26-3.94-2.54-3.94h-40.9c-1.9 0-2.4 1.46-2.52 3.02zm268.54 16.8V13.98h-13.06v123.86h13.06zm-13.76-125.3h21.24V4.26H441.72v8.28h182.82zm-95.62 105.1h79.86c1.58 0 3.02-.66 4.06-1.7a5.677 5.677 0 001.7-4.08v-78.9c0-1.58-.64-3.02-1.7-4.08a5.73 5.73 0 00-4.06-1.68h-79.86c-1.58 0-3.04.64-4.08 1.68-1.04 1.06-1.7 2.5-1.7 4.08v78.9c0 1.6.66 3.04 1.7 4.08s2.5 1.7 4.08 1.7zm79.86 1.44h-79.86c-1.98 0-3.8-.8-5.1-2.12-1.3-1.3-2.12-3.1-2.12-5.1v-78.9c0-1.98.82-3.78 2.12-5.1a7.23 7.23 0 015.1-2.12h79.86c1.98 0 3.78.82 5.1 2.12 1.3 1.32 2.1 3.12 2.1 5.1v78.9c0 2-.8 3.8-2.1 5.1a7.181 7.181 0 01-5.1 2.12zM332.42 248.84h17.52c.4 0 .74.32.74.72v3.68c0 .4-.34.72-.74.72h-17.52c-.4 0-.74-.32-.74-.72v-3.68c0-.4.34-.72.74-.72zm16.8 1.46h-16.08v2.22h16.08v-2.22zm6.88-1.46h17.54c.4 0 .72.32.72.72v3.68c0 .4-.32.72-.72.72H356.1c-.4 0-.72-.32-.72-.72v-3.68c0-.4.32-.72.72-.72zm16.82 1.46h-16.1v2.22h16.1v-2.22zm6.52-1.46h17.54c.4 0 .72.32.72.72v3.68c0 .4-.32.72-.72.72h-17.54c-.4 0-.72-.32-.72-.72v-3.68c0-.4.32-.72.72-.72zm16.82 1.46h-16.1v2.22h16.1v-2.22zM306 228.14h6.78c.4 0 .72.32.72.72v3.66c0 .4-.32.72-.72.72h-3.92c-.24 0-.46-.12-.58-.32l-2.84-3.62a.69.69 0 01.12-1c.12-.12.28-.16.44-.16zm6.04 1.44h-4.56l1.74 2.2h2.82v-2.2zm-11.28-8.12h12.02c.4 0 .72.32.72.72v3.66c0 .4-.32.72-.72.72h-9.16a.7.7 0 01-.58-.3l-2.84-3.64a.69.69 0 01.12-1c.12-.12.28-.16.44-.16zm11.28 1.44h-9.8l1.74 2.22h8.06v-2.22zm-16.52-8.12h17.26c.4 0 .72.32.72.72v3.66c0 .4-.32.72-.72.72h-14.4c-.24 0-.46-.12-.58-.32l-2.84-3.62a.69.69 0 01.12-1c.12-.12.28-.16.44-.16zm16.52 1.44H297l1.74 2.22h13.3v-2.22zm-21.76-8.12h22.5c.4 0 .72.32.72.72v3.66c0 .4-.32.72-.72.72h-19.64c-.24 0-.46-.12-.58-.32l-2.86-3.62a.71.71 0 01.14-1c.12-.12.28-.16.44-.16zm21.76 1.44h-20.28l1.74 2.22h18.54v-2.22zm-14.48-47.36h15.22c.4 0 .72.32.72.72v3.66c0 .4-.32.72-.72.72h-16.62a.717.717 0 01-.62-1.08c.22-.54.46-1.1.7-1.72.22-.58.44-1.2.64-1.8.1-.32.38-.5.68-.5zm14.48 1.44h-13.96c-.16.46-.32.92-.5 1.38l-.34.84h14.8v-2.22zm-17.26 5.1h18c.4 0 .72.32.72.72v3.66c0 .4-.32.72-.72.72h-20.14c-.4 0-.74-.32-.74-.72 0-.18.06-.34.16-.46.36-.54.72-1.12 1.06-1.72.36-.6.7-1.2 1.02-1.82a.74.74 0 01.64-.38zm17.26 1.44h-16.82c-.28.5-.56 1.02-.84 1.5l-.44.72h18.1v-2.22zm-21.48 5.1h22.22c.4 0 .72.32.72.72v3.66c0 .4-.32.72-.72.72h-25.42c-.4 0-.72-.32-.72-.72 0-.22.1-.42.26-.54.54-.58 1.08-1.14 1.58-1.74.52-.58 1.02-1.2 1.52-1.82a.7.7 0 01.56-.28zm21.48 1.44h-21.12c-.44.56-.9 1.08-1.36 1.62l-.52.58h23v-2.2zm-27.78 5.1h28.52c.4 0 .72.32.72.72v3.66c0 .4-.32.72-.72.72h-33.56c-.4 0-.72-.32-.72-.72 0-.28.16-.52.38-.64.86-.54 1.68-1.1 2.5-1.68.84-.62 1.66-1.26 2.42-1.88.12-.12.3-.18.46-.18zm27.78 1.44h-27.52c-.76.64-1.52 1.22-2.28 1.78l-.62.44h30.42v-2.22zm-37.26 5.1h38c.4 0 .72.32.72.72v3.66c0 .4-.32.72-.72.72h-35.14c-.26 0-.46-.12-.6-.32l-2.84-3.62c-.24-.3-.2-.76.12-1 .14-.12.3-.16.46-.16zm37.26 1.44h-35.78l1.72 2.22h34.06v-2.22zm-32.14 5.1h32.88c.4 0 .72.32.72.72v3.66c0 .4-.32.72-.72.72h-30.02a.7.7 0 01-.58-.3l-2.84-3.64a.69.69 0 01.12-1c.12-.12.28-.16.44-.16zm32.14 1.44h-30.66l1.74 2.22h28.92v-2.22zm-27 5.1h27.74c.4 0 .72.32.72.72v3.66c0 .4-.32.72-.72.72H287.9c-.24 0-.46-.12-.58-.32l-2.86-3.62c-.24-.3-.18-.76.12-1 .14-.1.3-.16.46-.16zm27 1.44h-25.52l1.72 2.22h23.8v-2.22zm20.38 39.38h17.52c.4 0 .74.32.74.72v3.68c0 .4-.34.72-.74.72h-17.52c-.4 0-.74-.32-.74-.72v-3.68c0-.4.34-.72.74-.72zm16.8 1.46h-16.08v2.2h16.08v-2.2zm-16.8-7.94h17.52c.4 0 .74.32.74.72v3.66c0 .4-.34.72-.74.72h-17.52c-.4 0-.74-.32-.74-.72v-3.66c0-.4.34-.72.74-.72zm16.8 1.44h-16.08v2.22h16.08v-2.22zm-16.8-7.94h17.52c.4 0 .74.32.74.72v3.66c0 .4-.34.72-.74.72h-17.52c-.4 0-.74-.32-.74-.72v-3.66c0-.4.34-.72.74-.72zm16.8 1.44h-16.08v2.22h16.08v-2.22zm-16.8-7.94h17.52c.4 0 .74.32.74.72v3.66c0 .4-.34.72-.74.72h-17.52c-.4 0-.74-.32-.74-.72v-3.66c0-.4.34-.72.74-.72zm16.8 1.44h-16.08v2.22h16.08v-2.22zm-16.8-8.1h17.52c.4 0 .74.32.74.72v3.66c0 .4-.34.72-.74.72h-17.52c-.4 0-.74-.32-.74-.72v-3.66c0-.4.34-.72.74-.72zm16.8 1.44h-16.08v2.22h16.08v-2.22zm6.88 24.7h17.54c.4 0 .72.32.72.72v3.68c0 .4-.32.72-.72.72H356.1c-.4 0-.72-.32-.72-.72v-3.68c0-.4.32-.72.72-.72zm16.82 1.46h-16.1v2.2h16.1v-2.2zm-16.82-7.94h17.54c.4 0 .72.32.72.72v3.66c0 .4-.32.72-.72.72H356.1c-.4 0-.72-.32-.72-.72v-3.66c0-.4.32-.72.72-.72zm16.82 1.44h-16.1v2.22h16.1v-2.22zm-16.82-7.94h17.54c.4 0 .72.32.72.72v3.66c0 .4-.32.72-.72.72H356.1c-.4 0-.72-.32-.72-.72v-3.66c0-.4.32-.72.72-.72zm16.82 1.44h-16.1v2.22h16.1v-2.22zm-16.82-7.94h17.54c.4 0 .72.32.72.72v3.66c0 .4-.32.72-.72.72H356.1c-.4 0-.72-.32-.72-.72v-3.66c0-.4.32-.72.72-.72zm16.82 1.44h-16.1v2.22h16.1v-2.22zm-16.82-8.1h17.54c.4 0 .72.32.72.72v3.66c0 .4-.32.72-.72.72H356.1c-.4 0-.72-.32-.72-.72v-3.66c0-.4.32-.72.72-.72zm16.82 1.44h-16.1v2.22h16.1v-2.22zm6.52 24.7h17.54c.4 0 .72.32.72.72v3.68c0 .4-.32.72-.72.72h-17.54c-.4 0-.72-.32-.72-.72v-3.68c0-.4.32-.72.72-.72zm16.82 1.46h-16.1v2.2h16.1v-2.2zm-16.82-7.94h17.54c.4 0 .72.32.72.72v3.66c0 .4-.32.72-.72.72h-17.54c-.4 0-.72-.32-.72-.72v-3.66c0-.4.32-.72.72-.72zm16.82 1.44h-16.1v2.22h16.1v-2.22zm-16.82-7.94h17.54c.4 0 .72.32.72.72v3.66c0 .4-.32.72-.72.72h-17.54c-.4 0-.72-.32-.72-.72v-3.66c0-.4.32-.72.72-.72zm16.82 1.44h-16.1v2.22h16.1v-2.22zm-16.82-7.94h17.54c.4 0 .72.32.72.72v3.66c0 .4-.32.72-.72.72h-17.54c-.4 0-.72-.32-.72-.72v-3.66c0-.4.32-.72.72-.72zm16.82 1.44h-16.1v2.22h16.1v-2.22zm-16.82-8.1h17.54c.4 0 .72.32.72.72v3.66c0 .4-.32.72-.72.72h-17.54c-.4 0-.72-.32-.72-.72v-3.66c0-.4.32-.72.72-.72zm16.82 1.44h-16.1v2.22h16.1v-2.22zm-16.82-48.84h17.54c.4 0 .72.32.72.72v3.68c0 .4-.32.72-.72.72h-17.54c-.4 0-.72-.32-.72-.72v-3.68c0-.4.32-.72.72-.72zm16.82 1.46h-16.1v2.22h16.1v-2.22zm-16.82-7.94h17.54c.4 0 .72.32.72.72v3.66c0 .4-.32.72-.72.72h-17.54c-.4 0-.72-.32-.72-.72v-3.66c0-.4.32-.72.72-.72zm16.82 1.44h-16.1v2.22h16.1v-2.22zm-40.16 24.52h17.54c.4 0 .72.34.72.74v3.66c0 .4-.32.72-.72.72H356.1c-.4 0-.72-.32-.72-.72v-3.66c0-.4.32-.74.72-.74zm16.82 1.46h-16.1v2.22h16.1v-2.22zm-16.82-7.94h17.54c.4 0 .72.32.72.72v3.66c0 .4-.32.72-.72.72H356.1c-.4 0-.72-.32-.72-.72v-3.66c0-.4.32-.72.72-.72zm16.82 1.44h-16.1v2.22h16.1v-2.22zm-16.82-7.94h17.54c.4 0 .72.32.72.72v3.66c0 .4-.32.74-.72.74H356.1c-.4 0-.72-.34-.72-.74v-3.66c0-.4.32-.72.72-.72zm16.82 1.44h-16.1v2.22h16.1v-2.22zm-16.82-7.94h17.54c.4 0 .72.32.72.72v3.68c0 .4-.32.72-.72.72H356.1c-.4 0-.72-.32-.72-.72v-3.68c0-.4.32-.72.72-.72zm16.82 1.46h-16.1v2.22h16.1v-2.22zm-16.82-7.94h17.54c.4 0 .72.32.72.72v3.66c0 .4-.32.72-.72.72H356.1c-.4 0-.72-.32-.72-.72v-3.66c0-.4.32-.72.72-.72zm16.82 1.44h-16.1v2.22h16.1v-2.22zm-40.5 24.52h17.52c.4 0 .74.34.74.74v3.66c0 .4-.34.72-.74.72h-17.52c-.4 0-.74-.32-.74-.72v-3.66c0-.4.34-.74.74-.74zm16.8 1.46h-16.08v2.22h16.08v-2.22zm-16.8-7.94h17.52c.4 0 .74.32.74.72v3.66c0 .4-.34.72-.74.72h-17.52c-.4 0-.74-.32-.74-.72v-3.66c0-.4.34-.72.74-.72zm16.8 1.44h-16.08v2.22h16.08v-2.22zm-16.8-7.94h17.52c.4 0 .74.32.74.72v3.66c0 .4-.34.74-.74.74h-17.52c-.4 0-.74-.34-.74-.74v-3.66c0-.4.34-.72.74-.72zm16.8 1.44h-16.08v2.22h16.08v-2.22zm-16.8-7.94h17.52c.4 0 .74.32.74.72v3.68c0 .4-.34.72-.74.72h-17.52c-.4 0-.74-.32-.74-.72v-3.68c0-.4.34-.72.74-.72zm16.8 1.46h-16.08v2.22h16.08v-2.22zm-16.8-7.94h17.52c.4 0 .74.32.74.72v3.66c0 .4-.34.72-.74.72h-17.52c-.4 0-.74-.32-.74-.72v-3.66c0-.4.34-.72.74-.72zm16.8 1.44h-16.08v2.22h16.08v-2.22zm13.56 217.46c.04 0 .1-.02.14-.02h.02l2.4-.22h.1l4.26-.4 15.56-1.46h.04l1.2-.12c.04-.02.1-.02.14-.02h.02l14.38-1.34c.04-.02.1-.02.16-.02h.02l.5-.04c.04-.02.08-.02.1-.02l22.9-2.14h.04c.06-.02.1-.02.16-.02l84.64-7.94-1.44-15.04c-.16-.9-.26-1.84-.26-2.78l-1.56-16.14-228.06 20.08a.72.72 0 01-.36.02l-44.36 3.92a.72.72 0 01-.36.02l-108.08 9.52 2.76 36.18 141.1-13.22c.04 0 .06-.02.1-.02l21.52-2c.04-.02.08-.02.12-.02l66.26-6.22h.16l5.68-.54zm.86 1.36v18.14c2.34 1.7 5.22 2.7 8.32 2.7h13.96V380.4l-.16.02c-.78 1.36-1.82 2.56-3.02 3.52-1.88 1.5-4.2 2.48-6.6 2.78-2.4.3-4.9-.1-7.2-1.3a12.64 12.64 0 01-3.78-3.08l-1.52.14zm-1.44 16.92v-16.78l-4.38.42v6.14c0 3.9 1.58 7.44 4.14 10l.24.22zm25.18-19.14v23.06h13.08v-24.28l-13.08 1.22zm-5.54 2.56c.8-.64 1.52-1.4 2.1-2.24l-16.98 1.6c.82.82 1.72 1.48 2.66 1.98 2 1.04 4.22 1.38 6.36 1.12 2.12-.26 4.18-1.12 5.86-2.46zm58.38-2.68v23.18h22.26v-23.18c-.58 1.12-1.34 2.14-2.24 3.02a12.595 12.595 0 01-8.9 3.66c-3.4 0-6.5-1.36-8.76-3.54-.94-.92-1.74-1.98-2.36-3.14zm-1.46 23.18v-27.88l-13.12 1.24v26.64h13.12zm25.16-28.26v28.26h12.04v-28.26h-12.04zm-5.24-1.48c1.32.02 2.66.02 4.14.02h238a47.44 47.44 0 008.74-20.38H674.7c-.52.74-1.08 1.44-1.72 2.08h-.02a14.346 14.346 0 01-10.18 4.22c-3.98 0-7.58-1.62-10.2-4.22l-.02-.02c-.62-.64-1.2-1.32-1.7-2.06h-96.2v6.12c0 .24-.14.48-.36.62l-9.48 5.46c-.1.06-.2.1-.32.12l-34.06 3.2h-.04l-51.72 4.84zm.54 8.56c1.86-1.84 3.06-4.32 3.24-7.08h-17.38c-1.68.04-3.3.14-4.82.26.24 2.7 1.46 5.14 3.32 6.92 2 1.94 4.74 3.12 7.76 3.12 3.08 0 5.88-1.22 7.88-3.22zm-57.3-1.96v23.14h22.26v-23.18c-.9 1.72-2.2 3.12-3.72 4.2-1.86 1.32-4.06 2.12-6.3 2.36-2.26.24-4.58-.08-6.66-1.06-2.26-1.04-4.26-2.84-5.58-5.46zm17.72 2.98c2.04-1.44 3.62-3.6 4.26-6.32l-21.04 1.98c1.18 2.7 3.06 4.5 5.24 5.52 1.84.84 3.9 1.14 5.9.92 2-.2 3.96-.94 5.64-2.1zm57.76-3.02v23.18h22.28v-23.18a12.88 12.88 0 01-2.24 3.02 12.63 12.63 0 01-8.9 3.66c-3.48 0-6.62-1.4-8.9-3.66-.88-.88-1.64-1.9-2.24-3.02zm23.72-5.08v28.26h13.9v-28.26h-13.9zm-4.7 7.08c1.86-1.84 3.06-4.32 3.24-7.08h-22.24c.18 2.76 1.38 5.24 3.24 7.08 2.02 2 4.8 3.22 7.88 3.22s5.86-1.22 7.88-3.22zm95.54-2v23.18h13.96c3.1 0 5.98-1 8.32-2.72v-20.46c-.6 1.12-1.36 2.14-2.26 3.02a12.583 12.583 0 01-8.88 3.66c-3.48 0-6.62-1.4-8.9-3.66-.9-.88-1.66-1.9-2.24-3.02zm-1.46 23.18v-28.26h-12.02v28.26h12.02zm-35.74-23.18v23.18h22.28v-23.18a12.88 12.88 0 01-2.24 3.02 12.595 12.595 0 01-8.9 3.66c-3.46 0-6.62-1.4-8.9-3.66-.88-.88-1.64-1.9-2.24-3.02zm-1.44 23.18v-28.26h-13.14v28.26h13.14zm62.36-28.26v24.34l.22-.22c2.56-2.56 4.16-6.1 4.16-10v-14.12h-4.38zm-4.7 7.08c1.84-1.84 3.04-4.32 3.22-7.08h-22.22c.18 2.76 1.38 5.24 3.24 7.08 2 2 4.8 3.22 7.88 3.22 3.06 0 5.86-1.22 7.88-3.22zm-37.2 0c1.86-1.84 3.06-4.32 3.24-7.08h-22.24c.18 2.76 1.38 5.24 3.24 7.08 2.02 2 4.8 3.22 7.88 3.22s5.86-1.22 7.88-3.22zm-57.32-2v23.18h22.28v-23.18c-.6 1.12-1.34 2.14-2.24 3.02a12.595 12.595 0 01-8.9 3.66c-3.46 0-6.62-1.4-8.9-3.66-.88-.88-1.64-1.9-2.24-3.02zm19.02 2c1.86-1.84 3.06-4.32 3.24-7.08H516.5c.18 2.76 1.38 5.24 3.22 7.08 2.02 2 4.8 3.22 7.88 3.22s5.86-1.22 7.88-3.22zm-120.12-98.18h154.86l97.9 12.26a48.898 48.898 0 0129.16 14.08c8.92 8.9 14.42 21.2 14.42 34.8 0 2.52-.2 5.02-.56 7.44 0 .04-.02.08-.02.12-1.26 8.2-4.56 15.72-9.34 22.06-.02.02-.04.06-.06.08-1.36 1.8-2.84 3.5-4.44 5.08-8.9 8.92-21.2 14.42-34.78 14.42h-.08l-41.8.02c-.78 2.22-2.06 4.24-3.7 5.88-2.82 2.82-6.72 4.58-11 4.58H371.96c-4.3 0-8.2-1.76-11.02-4.58a15.712 15.712 0 01-3.7-5.88l-44.46-.02c-3.52 0-8.02-.62-12.18-1.56-4.04-.9-7.78-2.12-10.08-3.4l-20.82 1.96-.54 4.24 4.06 3.24 3.4-1.22c.22-.08.46-.06.66.06l5.6 3.6c.16.12.3.3.32.54l.38 3.62 4.68 2.24 3.04-1.96c.18-.12.42-.16.66-.08l6.26 2.14c.2.08.36.22.44.44l1.3 3.4 5.1.96 2.46-2.68a.76.76 0 01.62-.24l6.6.76h.08v.02h.08v.02h.04v.02h.04l.04.02c.04.02.08.04.1.06.08.06.14.14.18.22l1.84 3.14 5.18.12 1.98-3.04c.14-.22.36-.34.62-.34l6.62-.02c.26-.02.52.1.68.34l1.9 3.1h5.18l1.92-3.1c.12-.2.36-.34.6-.34h6.64c.26-.02.52.1.66.34l1.92 3.1h5.18l1.9-3.1c.14-.2.36-.34.62-.34h6.62c.26-.02.54.1.68.34l1.9 3.1h5.2l1.9-3.1c.12-.2.36-.34.62-.34h6.62c.26-.02.52.1.68.34l1.9 3.1h5.18l1.92-3.1c.12-.2.36-.34.62-.34h6.62c.26-.02.52.1.66.34l1.92 3.1h5.18l1.92-3.1c.14-.2.36-.34.62-.34h6.6c.26-.02.54.1.68.34l1.92 3.1h5.18l1.9-3.1c.12-.2.36-.34.62-.34h6.68c.24 0 .48.12.6.34l1.92 3.1h5.18l1.92-3.1c.12-.2.36-.34.6-.34h6.64c.26-.02.52.1.66.34l1.92 3.1h5.18l1.9-3.1c.14-.2.36-.34.62-.34h6.62c.26-.02.52.1.68.34l1.9 3.1h5.18l1.92-3.1c.12-.2.36-.34.62-.34h6.62c.26-.02.52.1.68.34l1.9 3.1h5.18l1.92-3.1c.12-.2.36-.34.6-.34h6.64c.26-.02.52.1.66.34l1.92 3.1h5.18l1.9-3.1c.14-.2.36-.34.62-.34h6.62c.26-.02.54.1.68.34l1.9 3.1h5.2l1.9-3.1c.12-.2.36-.34.62-.34h6.62c.26-.02.52.1.66.34l1.92 3.1h5.18l1.92-3.1c.12-.2.36-.34.6-.34h6.64c.26-.02.52.1.66.34l1.92 3.1h5.18l1.9-3.1c.14-.2.36-.34.62-.34h6.62c.26-.02.54.1.68.34l1.9 3.1h5.18l1.92-3.1c.14-.2.36-.34.62-.34h6.62c.26-.02.52.1.68.34l1.9 3.1H593l1.92-3.1c.12-.2.36-.34.6-.34h6.62c.28-.02.54.1.68.34l1.92 3.1h5.18l1.9-3.1c.14-.2.36-.34.62-.34h6.62c.26-.02.52.1.68.34l1.9 3.1h5.18l1.92-3.1c.12-.2.36-.34.62-.34h6.62c.26-.02.52.1.66.34l1.92 3.1h5.18l1.92-3.1c.12-.2.36-.34.6-.34l6.68.02h.16l.02.02h.04l.02.02h.04v.02h.04l.02.02h.02v.02h.04v.02h.02l.02.02h.02v.02l.02.02h.02v.02l.04.04h.02v.02h.02v.02l.02.02v.02h.02v.02l1.98 3.04 5.18-.12 1.84-3.14c.12-.2.32-.34.54-.36l6.62-.76c.22-.02.46.06.62.22l2.46 2.7 5.1-.96 1.3-3.38c.06-.2.22-.38.44-.46l6.28-2.14c.2-.08.42-.06.62.06l3.06 1.98 4.68-2.24.38-3.62c.02-.22.14-.42.34-.54l5.58-3.6c.18-.12.4-.14.62-.06l3.44 1.22 4.06-3.24-.44-3.62c-.04-.2.04-.42.18-.56l4.44-4.84c.14-.2.36-.3.6-.28l3.64.22 3-4.22-1.42-3.36c-.08-.2-.08-.42.02-.62l3-5.9c.1-.2.28-.34.5-.38l3.58-.72 1.78-4.88-2.26-2.86c-.12-.18-.18-.4-.12-.62l1.5-6.46c.06-.22.2-.4.42-.5l3.32-1.5.68-5.14-2.82-2.3c-.16-.14-.28-.32-.28-.54l-.18-6.44c-.02-.04-.02-.08-.02-.12v-.06c0-.2.08-.42.26-.56l2.76-2.38-.82-5.12-3.38-1.4a.74.74 0 01-.42-.46l-1.64-5.68a.77.77 0 01.08-.66l2.1-2.98-2.04-4.76-3.6-.54c-.22-.04-.42-.16-.52-.36l-2.44-4.2-.02-.02-.02-.02-.52-.9a.745.745 0 01-.04-.62l1.32-3.4-3.12-4.14-3.64.34c-.2.02-.42-.06-.58-.22l-2.24-2.3-.02-.02-1.86-1.9a.786.786 0 01-.24-.62l.44-3.62-4.06-3.24-3.38 1.22c-.2.1-.46.08-.66-.04l-5.08-3.1a.755.755 0 01-.34-.54l-.46-3.62-4.72-2.14-3.02 2.02a.66.66 0 01-.64.1l-3.58-1.14c-.04-.02-.1-.04-.14-.06l-1.94-.62a.672.672 0 01-.32-.2h-.02v-.02l-.02-.02-.02-.02v-.02l-.02-.02v-.02h-.02v-.02l-.02-.02v-.04l-.02-.02v-.02l-1.28-3.4-5.1-1-2.46 2.68c-.16.18-.4.26-.64.22l-5.92-.94a.727.727 0 01-.54-.42l-1.52-3.32-5.16-.64-2.24 2.8c-.16.22-.42.34-.68.3l-5.96-.74a.677.677 0 01-.56-.42l-1.52-3.32-5.14-.64-2.26 2.8c-.14.22-.4.34-.68.32l-5.96-.76c-.24-.02-.44-.18-.56-.4l-1.5-3.32-5.16-.66-2.26 2.8c-.14.22-.4.34-.68.32l-5.94-.76a.754.754 0 01-.58-.4l-1.5-3.32-5.16-.66-2.24 2.82c-.16.2-.42.34-.68.3l-5.96-.74a.76.76 0 01-.56-.42l-1.52-3.32-5.16-.64-2.24 2.8c-.16.2-.42.34-.68.3l-5.96-.74a.76.76 0 01-.56-.42l-1.52-3.32-5.14-.64-2.26 2.82c-.16.18-.38.3-.64.28l-5.96-.36a.71.71 0 01-.58-.36l-1.9-3.1h-5.2l-1.88 3.06a.75.75 0 01-.64.4h-6c-.24 0-.48-.14-.62-.36l-1.9-3.1h-5.2l-1.9 3.08c-.12.22-.36.38-.62.38h-6c-.24 0-.48-.14-.62-.36l-1.9-3.1h-5.2l-1.88 3.06a.75.75 0 01-.64.4h-6c-.24 0-.48-.14-.62-.36l-1.9-3.1h-5.2l-1.88 3.06a.75.75 0 01-.64.4h-6c-.24 0-.48-.14-.62-.36l-1.9-3.1h-5.2l-1.88 3.06c-.12.22-.36.4-.66.4h-5.98c-.3 0-.54-.18-.66-.4l-1.86-3.06h-5.2l-1.92 3.1c-.14.22-.36.36-.6.36h-6c-.3 0-.54-.18-.66-.4l-1.88-3.06h-5.18l-1.92 3.1c-.14.22-.36.36-.6.36h-6c-.28 0-.54-.18-.66-.4l-1.88-3.06h-5.18l-1.92 3.1c-.14.22-.36.36-.6.36h-6c-.28 0-.52-.16-.64-.38l-1.9-3.08h-5.18l-1.92 3.1a.73.73 0 01-.62.36h-5.98c-.3 0-.54-.18-.66-.4l-1.86-3.06h-5.2l-1.92 3.1c-.12.22-.34.34-.56.36l-2.94.18h-.14l-2.9.18c-.26.02-.48-.1-.62-.28l-2.26-2.82-5.16.64-1.52 3.32a.76.76 0 01-.56.42l-5.96.74c-.26.04-.52-.1-.66-.3l-2.26-2.8-5.16.64-1.5 3.32c-.12.22-.34.38-.58.4l-5.94.76c-.28.04-.54-.1-.68-.3l-2.26-2.82-5.16.66-1.5 3.32c-.12.22-.34.38-.58.4l-5.94.76c-.28.02-.54-.1-.68-.32l-2.26-2.8-5.14.66-1.52 3.32c-.1.22-.32.38-.56.4l-5.96.76c-.26.02-.52-.1-.68-.32l-2.24-2.8-5.16.64-1.52 3.32c-.1.24-.32.4-.56.42l-5.94.74a.729.729 0 01-.7-.3l-2.24-2.8-5.16.64-1.5 3.32c-.12.22-.32.38-.56.42l-5.9.94a.68.68 0 01-.64-.22l-2.48-2.68-5.1 1-1.28 3.42c-.08.22-.24.36-.46.42l-5.66 1.82c-.22.08-.46.04-.64-.1l-3.02-2.02-4.72 2.14-.46 3.62c-.02.22-.16.42-.34.54l-5.08 3.1c-.2.12-.44.14-.66.04l-3.38-1.22-4.06 3.24.44 3.62c.02.24-.06.46-.24.62l-4.12 4.22c-.16.16-.38.24-.58.22l-3.64-.34-3.12 4.14 1.16 2.96c.02.04.02.06.04.08l.14.36c.08.2.04.44-.06.62l-2.38 4.1c-.02.02-.02.06-.04.08l-.56.96c-.12.2-.32.32-.52.36l-3.62.54-2.04 4.76 2.1 2.98c.14.2.16.44.08.66l-1.64 5.68a.69.69 0 01-.42.46l-3.38 1.4-.82 5.12 2.78 2.38c.18.18.26.42.24.66l-.5 3.02 14.08 4.5c-.04-.8-.06-1.58-.06-2.36 0-12.94 5.02-24.78 13.26-33.6 8.12-8.7 19.38-14.46 32.04-15.46l98.78-12.08c.06-.02.12-.02.18 0h7.54zm5.82 1.44c.98.52 1.84 1.18 2.6 1.94 1.56 1.56 2.64 3.54 3.18 5.66.56 2.1.56 4.36-.04 6.48-.78 2.68-2.52 5.14-5.38 6.84v2.84h3.28c.4 0 .72.32.72.72v5.94h127.68v-5.94c0-.4.32-.72.72-.72h3.26v-2.84c-2.86-1.7-4.6-4.16-5.36-6.84-.6-2.12-.6-4.38-.06-6.48.54-2.12 1.62-4.1 3.18-5.66.76-.76 1.62-1.42 2.6-1.94H421.18zm-12.02 20.92c-2.86-1.7-4.6-4.16-5.36-6.84-.6-2.12-.6-4.38-.06-6.48.54-2.12 1.62-4.1 3.18-5.66.76-.76 1.62-1.42 2.6-1.94h-1.74l-88.88 10.88c6.8.84 13.18 3.1 18.84 6.44 7.44 4.4 13.64 10.7 17.88 18.22l21.64-5.08c.06-.02.12-.04.2-.04h27.72v-5.94c0-.4.32-.72.72-.72h3.26v-2.84zm13.6-17.96c-1.8-1.8-4.3-2.96-7.4-2.96-3.1 0-5.62 1.16-7.42 2.96a11.043 11.043 0 00-2.8 4.98c-.48 1.88-.48 3.86.04 5.74.62 2.1 1.9 4.06 3.98 5.52v-8.7l.02-.12v-.14l.02-.12.02-.12v-.02l.02-.12.02-.12.02-.12.02-.12c.42-2.14 1.84-3.56 3.56-4.24a6.62 6.62 0 012.5-.48c.84 0 1.7.16 2.5.48 1.78.72 3.22 2.2 3.6 4.48l.02.12.02.12v.14l.02.12v.14l.02.12v8.7c2.08-1.46 3.38-3.42 3.98-5.52.54-1.88.54-3.86.06-5.74-.48-1.86-1.44-3.6-2.82-4.98zm-2.66 20.8V295.9l-.02-.1v-.1l-.02-.1-.02-.1v-.08l-.02-.1-.02-.1-.02-.08-.02-.1-.02-.08-.02-.1-.02-.08-.04-.08v-.02l-.02-.08-.04-.08-.02-.08-.04-.08-.04-.08c-.48-1.1-1.34-1.86-2.38-2.28a5.33 5.33 0 00-1.96-.36c-.68 0-1.36.12-1.98.36l-.04.02c-1.22.5-2.24 1.5-2.6 3.02v.02l-.02.08-.02.08v.1h-.02v.1l-.02.08v.02l-.02.08v.1l-.02.1v.2l-.02.1v13.06h9.5zm3.98 30.02V310.6h-17.46v30.12l17.46-1.54zm-18.9 1.68v-23.58h-27.64l-45.28 10.64a6.96 6.96 0 011.06 3.72v15.54l71.86-6.32zm20.36-23.58v21.78l81.34-7.16h.12l31.22-.08c.2-.02.4.06.56.22l14.44 14.42v-29.18H425.54zm143.68-31.88c.98.52 1.84 1.18 2.6 1.94 1.56 1.56 2.64 3.54 3.18 5.66.54 2.1.56 4.36-.06 6.48-.76 2.68-2.5 5.14-5.36 6.84v2.84h3.26c.4 0 .72.32.72.72v5.94h26.84l21 2.22a49.345 49.345 0 0117.6-16.18 48.777 48.777 0 0117.66-5.62l-86.62-10.84h-.82zm1.58 2.96c-1.8-1.8-4.3-2.96-7.42-2.96-3.08 0-5.6 1.16-7.4 2.96a10.684 10.684 0 00-2.8 4.98c-.48 1.88-.5 3.86.04 5.74.6 2.1 1.9 4.06 3.98 5.52v-8.7l.02-.12v-.14l.02-.12.02-.14v-.12l.02-.12.02-.12.04-.12c.42-2.14 1.84-3.56 3.54-4.24a6.799 6.799 0 015.02 0c1.78.72 3.22 2.2 3.6 4.48l.02.12.02.12v.14l.02.12v.14l.02.12v8.72c2.08-1.46 3.38-3.44 3.98-5.54.54-1.88.54-3.86.06-5.74-.5-1.86-1.44-3.6-2.82-4.98zm-2.66 20.8V296l-.02-.1v-.1l-.02-.1v-.1l-.02-.1-.02-.08v-.1l-.02-.1-.02-.08-.02-.1c-.36-1.52-1.4-2.54-2.64-3.04-.62-.24-1.28-.36-1.98-.36-.68 0-1.34.12-1.96.36-1.24.5-2.28 1.52-2.64 3.04l-.02.1-.02.08-.02.1v.1l-.02.08-.02.1v.1l-.02.1v.1l-.02.1v13.16h9.5zm3.98 42.6V310.6h-17.46v41.16h17.46zm1.44-34.48v34.48h60.02c-.5-2.26-.76-4.5-.76-6.68 0-6.86 2.34-13.28 6.34-18.4 3.98-5.12 9.6-8.96 16.18-10.62 2.36-.6 4.86-.92 7.44-.92 2.68 0 5.28.34 7.72 1 6.58 1.74 12.14 5.62 16.06 10.76 3.92 5.14 6.2 11.5 6.2 18.18 0 2.2-.24 4.44-.76 6.68h17.8c.3-2.18.46-4.4.46-6.66 0-13.2-5.36-25.14-14-33.78a47.713 47.713 0 00-27.48-13.58h-.08l-.96-.12c-1.72-.18-3.46-.28-5.24-.28-8.28 0-16.04 2.1-22.82 5.78a47.97 47.97 0 00-17.28 16.02c-.04.04-.06.08-.08.12h-.02v.02h-.02c-.18.22-.46.3-.72.22l-21.18-2.22h-26.82zm-325.4 25.24l.38-2.42-2.66-2.3-7.46-3.12-2.98 7.46 2.22.72.98-2.64c.12-.36.52-.56.88-.44l8.64 2.74zm-2.48-6.36l.82-5.02c.02-.22.18-.44.44-.54l3.4-1.42 1.48-5.04-2.12-3c-.14-.2-.2-.48-.08-.74l2.36-5.5c.1-.24.3-.4.56-.44l1.12-.16h-14.3l-5.04 12.88 5.44 2.28c.36.14.52.56.38.92l-1.18 2.96 6.72 2.82zm11.14-23.3l1.8-3.08h-75.34c-1.44 0-2.76-.6-3.72-1.56-.94-.96-1.54-2.26-1.54-3.72v-56.4l-8.28 9.28v51.3c0 1.14.46 2.18 1.22 2.94.34.34.72.62 1.16.82l.8.28.1.04c.28.06.58.1.9.1h82.9zm1.62-4.54l-.94-2.36c-.1-.24-.08-.52.08-.72l3.62-4.8c.14-.18.38-.3.64-.28l3.7.34 3.66-3.76-.44-3.68c-.04-.24.06-.48.26-.64l4.7-3.74c.18-.14.44-.2.68-.1l3.5 1.24 4.48-2.74.46-3.64c.02-.26.18-.48.42-.6l5.46-2.48c.22-.1.48-.08.7.06l3.06 2.06 5.02-1.6 1.28-3.4c.06-.26.28-.46.56-.52l5.88-1.16c.24-.04.5.04.66.22l2.48 2.7 5.16-.82 1.5-3.28c.08-.26.3-.44.58-.48l5.96-.74c.24-.04.48.06.64.26l2.3 2.84 5.14-.64 1.5-3.26c.08-.26.3-.44.58-.48l5.96-.74c.24-.04.48.06.64.26l2.28 2.84 5.16-.64 1.48-3.26c.1-.24.32-.44.6-.48l5.96-.74c.22-.02.48.06.64.26l2.28 2.86 5.16-.66 1.48-3.26c.08-.24.32-.44.6-.48l5.94-.74c.24-.02.5.06.66.28l2.28 2.84 5.14-.66 1.5-3.26c.08-.24.3-.44.6-.46l5.94-.76c.24-.02.48.06.64.28l2.3 2.84 5.14-.66 1.5-3.26c.08-.24.3-.44.58-.46l5.96-.76c.24-.02.48.08.64.28l2.3 2.86 1.92-.12v-61.14c0-.4.34-.72.72-.72h14.6v-68.18h-118.8c-27.72 30.96-55.48 61.9-83.04 93a5.986 5.986 0 01-4.04 1.92c-1.52.08-3.08-.42-4.3-1.5-2.22-2.02-4.46-4-6.7-6l-6.1 6.82-.02.04h-.02v.02l-.02.02-.02.02-.04.02-.02.02-.04.02-.02.02h-.04l-.02.02-.04.02h-.06v.02c-.24.04-.46 0-.66-.16-.02-.02-.04-.06-.06-.08l-2.5-2.32-16.3 18.26v58.04a3.824 3.824 0 003.82 3.82h75.16zm150.02-42.08l1.86-.12 1.88-3.08c.12-.24.36-.4.66-.4h6c.22 0 .46.12.6.34l1.92 3.1h5.18l1.88-3.04c.12-.24.38-.4.66-.4h5.98c.26 0 .48.12.62.34l1.92 3.1h5.18l1.88-3.04c.12-.24.38-.4.66-.4h5.98c.26 0 .48.12.62.34l1.92 3.1h5.18l1.9-3.06c.12-.22.36-.38.64-.38h6c.24 0 .46.12.6.34l1.92 3.1h5.2l1.86-3.04c.12-.24.38-.4.66-.4h6c.24 0 .46.12.6.34l1.92 3.1h5.2l1.9-3.1c.14-.22.38-.34.62-.34h5.98c.3 0 .54.16.66.4l1.88 3.04h5.2l1.9-3.1c.14-.22.38-.34.62-.34h5.98c.3 0 .54.16.66.4l1.88 3.04h5.2l1.9-3.1c.14-.22.38-.34.62-.34h6c.28 0 .52.16.64.4l1.88 3.04h5.18l1.92-3.1c.14-.22.38-.34.62-.34h6c.28 0 .52.16.64.4l1.88 3.04h5.2l1.9-3.1c.14-.22.38-.34.62-.34h6c.28 0 .52.16.64.4l1.9 3.08 5.22.32 2.3-2.86c.16-.2.42-.3.66-.26l5.94.74c.28.02.5.22.6.46l1.48 3.26 5.16.66 2.28-2.84c.16-.22.4-.3.64-.28l5.96.76c.28.02.5.22.58.46l1.5 3.26 5.16.66 2.28-2.84c.16-.22.4-.3.64-.28l5.96.74c.26.04.5.24.58.48l1.48 3.26 5.16.66 2.28-2.86c.16-.2.42-.28.66-.26l5.94.74c.28.04.5.24.6.48l1.48 3.26 5.16.64 2.28-2.84c.16-.2.42-.3.66-.26l5.94.74c.28.04.5.24.6.48l1.48 3.26 5.16.64 2.28-2.84c.16-.2.4-.3.64-.26l5.96.74c.28.04.5.22.58.48l1.5 3.28 5.16.82 2.48-2.7a.79.79 0 01.68-.22l5.88 1.16c.26.06.48.26.56.52l1.26 3.4.74.24v-40.98H408.46v26.1zm274.08 15.34l2.84.9 3.06-2.06c.22-.14.48-.16.7-.06l5.46 2.48c.26.12.4.34.42.6l.46 3.64 4.5 2.74 3.48-1.24c.24-.1.5-.04.68.1l4.7 3.74c.2.16.3.4.26.64l-.44 3.68.82.84 10.06-31v-38.92h-15.9l-21.1 12.18v41.74zm28.08 17.18l1.72 1.74 3.68-.34c.26-.02.5.1.64.28l3.62 4.8c.16.2.18.48.08.72l-1.34 3.42.12.2 148.12-20.28c.56-3.8 1.12-7.54 1.6-11.24l-74.32-16.56c-1.12 2.4-3.72 2.22-5.98 1.78-.32-.06-.72-.16-1.06-.24l-.12-.02-1.62 8.14c-.08.4-.46.64-.84.58l-12.58-2.52a.7.7 0 01-.58-.84l1.12-5.64-51.9-11.64v15.6c0 .1-.02.18-.06.28l-10.3 31.78zm9.3 12.18l1.74 2.98 3.66.54c.26.04.46.2.56.44l2.38 5.5c.1.26.06.54-.1.74l-2.12 3 1.48 5.04 3.42 1.42c.24.1.4.32.44.54l.94 5.92c.04.26-.06.5-.24.66l-1.36 1.2L863.2 320.6l24.18-16c1.78-1.3 2.76-3.08 3.12-4.96.3-1.66.12-3.42-.46-5.02-.6-1.6-1.58-3.06-2.86-4.12-1.44-1.18-3.28-1.88-5.38-1.74l-161.88 22.18zm-388.66 15.72l22.9-5.38a48.221 48.221 0 00-17.14-17.32c-7.12-4.2-15.4-6.62-24.24-6.62-1.12 0-2.22.04-3.3.1l-.4.04h-.14c-12.28.98-23.18 6.56-31.06 15-8 8.56-12.86 20.06-12.86 32.62 0 .96.02 1.9.08 2.82l12.9 4.12 14.22-1.24v-19.16c0-1.94.8-3.72 2.08-5.02l.04-.02a7.014 7.014 0 014.98-2.06h26.9c1.96 0 3.72.8 5.02 2.1l.02.02zm.62 20.64v-15.66c0-1.4-.52-2.7-1.38-3.68l-.04-.04c-.06-.08-.14-.16-.22-.24l-.02-.02a5.607 5.607 0 00-4-1.66h-26.9c-1.54 0-2.94.62-3.96 1.62l-.04.04a5.643 5.643 0 00-1.66 3.98v19.02l38.22-3.36zm289.62 27.76v14.12c0 1.28-.16 2.52-.44 3.7l41.36-.02h.08c13.18 0 25.12-5.36 33.76-14 1.22-1.2 2.36-2.48 3.44-3.8h-78.2zm-264.68 17.82c-.3-1.18-.46-2.42-.46-3.7v-6.02l-63.02 5.92c2.08.84 4.76 1.62 7.58 2.26 4.06.92 8.44 1.52 11.86 1.52l44.04.02zm305.96-62.2c3.98 0 7.58 1.62 10.2 4.22v.02c2.62 2.6 4.22 6.2 4.22 10.18 0 2.4-.6 4.68-1.64 6.66h14.94c.56-2.22.82-4.46.82-6.68 0-6.36-2.18-12.42-5.9-17.3-3.74-4.9-9.04-8.6-15.28-10.24-2.32-.62-4.8-.96-7.36-.96-2.46 0-4.84.3-7.1.88-6.24 1.58-11.6 5.24-15.4 10.1-3.78 4.88-6 11-6 17.52 0 2.2.24 4.44.78 6.68H650c-1.06-1.98-1.64-4.26-1.64-6.66 0-3.98 1.6-7.58 4.22-10.2l.02-.02c2.6-2.6 6.2-4.2 10.18-4.2zm9.18 5.24c-2.36-2.34-5.6-3.8-9.18-3.8a12.971 12.971 0 00-12.98 12.98c0 2.56.74 4.94 2.02 6.96.02.02.04.06.06.1.5.76 1.08 1.48 1.72 2.12 2.34 2.34 5.6 3.8 9.18 3.8s6.82-1.46 9.18-3.8c.64-.66 1.22-1.38 1.72-2.14l.02-.06h.02a12.971 12.971 0 00-1.76-16.16zm-118.74 17.2a.687.687 0 01-.38-.62c0-.28.14-.52.38-.64v-3.36l-15.24-15.24-5.96.02c2.06.88 3.92 2.14 5.48 3.7 3.14 3.14 5.08 7.48 5.08 12.28 0 4.8-1.94 9.14-5.08 12.28a17.346 17.346 0 01-5.56 3.74l12.26-1.16 9.02-5.2v-5.8zm-430.56-55.96c-.02.16-.1.28-.22.38l-2.32 4.14 5.4 1.78 3.06-8.78c.12-.38.54-.58.92-.44l4.48 1.56.48-1.38c.12-.36.54-.56.92-.44l5.16 1.8c.38.12.58.54.44.92l-1.52 4.4 29.52 10.26c-.44-.8-.68-1.72-.68-2.68v-7.7l-7.06-2.96a.437.437 0 01-.1-.06l-20.52-8.62c-.02 0-.06-.02-.1-.04l-9.24-3.88-.12-.06-1.48-.62-7.02 12.42zm-1.98.58h-4.98l-1.62 2.82 4.6.74 2-3.56zm-16.28 19h-.1c-.28-.04-.6-.06-.9-.06-2.64 0-6.56 2.62-9.48 4.58-1.58 1.06-2.88 1.94-3.7 2.18-.08.04-.16.06-.26.06h-8.88v25.54h6.02l21.06-20.64c1.42-1.4 2.06-3.14 2.06-4.84 0-.92-.18-1.82-.52-2.64-.34-.84-.84-1.62-1.48-2.26-.98-.98-2.28-1.7-3.82-1.92zm-.32-1.48l2.56-4.24-5.12-3.28-4 9.2c-.14.34-.54.52-.9.38l-13.9-4.92-.02-.02-1.62-.56v10.22h8.78c.62-.2 1.82-1 3.26-1.98 3.08-2.06 7.22-4.82 10.28-4.82.22 0 .46 0 .68.02zm3.76-3.44l-2.24 3.7c1.44.38 2.68 1.14 3.64 2.14.78.78 1.38 1.7 1.8 2.72.22.54.38 1.1.48 1.68l6.12-5.16-3.84-1.28-.08-.02-.02-.02h-.02v-.02c-.04 0-.06-.02-.08-.04l-5.76-3.7zm11.4 5.6l-7.58 6.42c-.06 1.98-.84 3.96-2.5 5.58L87.9 350.28c-.14.14-.32.2-.5.2h-6.32v7.62c3.26 3.18 7.44 5.42 11.88 6.92 5.62 1.92 11.64 2.66 16.84 2.66h6.9l-.32-4.38a.7.7 0 01.66-.76l6.88-.56c.4-.04.74.26.78.66l.26 2.88 107.82-9.5 1.32-3.54-7.04-2.32-.64 1.96c-.12.36-.52.58-.9.46l-51.48-17.04c-.94 2.28-2.42 3.98-4.22 4.96-1.98 1.1-4.34 1.32-6.76.48l-33.44-11.62-1.54 4.4c-.14.38-.54.58-.92.44l-5.18-1.78a.756.756 0 01-.44-.92l.48-1.36-4.48-1.56a.713.713 0 01-.44-.92l3.42-9.82-1.28-.42zm-15.9 1.94c1.96 0 3.2 1.06 3.76 2.46.22.52.32 1.08.32 1.64 0 .58-.1 1.14-.32 1.66-.56 1.38-1.8 2.46-3.76 2.46-1.96 0-3.2-1.08-3.76-2.46-.22-.52-.32-1.08-.32-1.66 0-.56.1-1.12.32-1.64.56-1.4 1.8-2.46 3.76-2.46zm2.42 2.98c-.34-.86-1.16-1.54-2.42-1.54s-2.08.68-2.42 1.54c-.14.36-.2.74-.2 1.12 0 .4.06.78.2 1.12.34.88 1.16 1.56 2.42 1.56s2.08-.68 2.42-1.56c.14-.34.22-.72.22-1.12 0-.38-.08-.76-.22-1.12zm-53.46-68.1l10.28 31.88c.02.08.02.14.02.22V383h17.04V261.82c0-2.08-.86-3.98-2.22-5.34a7.577 7.577 0 00-5.36-2.24H52.3zM61.16 383v-96.56l-10.36-32.2h-8.9L23.98 383h37.18zm-26.1 1.44l-19.82 27.2 41.32-17.14c.08-.06.2-.08.32-.08h19.74l3.02-2.4v-7.58H35.06zm-21.22 26.68l19.44-26.68H17.52L2.94 403.2c-1.94 2.48-1.82 5.14-.62 7.2.5.86 1.2 1.62 2.02 2.22.8.6 1.72 1.06 2.7 1.28.86.22 1.76.24 2.66.08.06-.06.12-.1.2-.12l2.1-.88c.66-.46 1.28-1.08 1.84-1.86zm67.24-27.38v7.9h28v-22.52c-5.16-.06-11.06-.86-16.58-2.72-4.2-1.44-8.16-3.5-11.42-6.34v23.68zm29.44 8.64v3.04h8.3l-2-26.3h-6.3v23.26zm13.06-26.06l-.26-2.86-5.46.46.34 4.4v.06l2.7 35.42 5.5-.52-2.82-36.9v-.06zM73.8 257.2c1.96 0 3.22 1.08 3.76 2.46.22.54.32 1.1.32 1.66 0 .56-.1 1.12-.32 1.66-.54 1.38-1.8 2.46-3.76 2.46-1.94 0-3.2-1.08-3.76-2.46-.2-.54-.32-1.1-.32-1.66 0-.56.12-1.12.32-1.66.56-1.38 1.82-2.46 3.76-2.46zm2.42 3c-.34-.88-1.14-1.56-2.42-1.56-1.26 0-2.08.68-2.42 1.56-.14.34-.2.74-.2 1.12 0 .38.06.78.2 1.12.34.88 1.16 1.56 2.42 1.56 1.28 0 2.08-.68 2.42-1.56.14-.34.22-.74.22-1.12 0-.38-.08-.78-.22-1.12zm4.86 6.94l6.82-4.08c.78-.46 1.3-1.1 1.66-1.82.44-.92.62-2 .62-3v-19.82c0-1.24-.28-2.26-.74-3.06a4.572 4.572 0 00-1.74-1.7c-.72-.38-1.54-.58-2.4-.58-1.02 0-2.08.28-3.08.86l-37.9 18.86h27.74a8.93 8.93 0 016.36 2.66l.02.02a8.901 8.901 0 012.64 6.34v5.32zm0 14.56v28.58l1.48.54 10.74-24.78-12.22-4.34zm13.58 4.82L83.92 311.3l12.56 4.44 4.04-9.32c.02-.02.02-.06.04-.08l2.98-6.86.02-.06 3.66-8.44-12.56-4.46zm9.98 14.02l-2.54 5.86 11.58 7.46 4.38-11.2-5.22-.84h-.02l-8.18-1.28zm26.08 4.64l2.78-8.02-3.8-1.32-2.82 8.08 3.84 1.26zm2.76-3.58l-1.4 4.02 3.82 1.28 3.48-10-3.8-1.32-2.1 6.02zm-11.6 16.7l-3.2 9.14 3.82 1.34 1.56-4.5 1.64-4.72-3.82-1.26zm-.24-1.6h.02l.86.28 4.3 1.44h.04l.46.16 97.96 32.4 3.38-10.32.02-.02.44-1.4-109.64-36.26-4.5 11.52 6.64 2.2h.02zm5.44 3.32l-1.58 4.52-2.36 6.74 3.82 1.32 3.94-11.32-.28-.1-3.54-1.16zm48.56-5.72c.64.54 1.18 1.18 1.64 1.86a8.715 8.715 0 011.38 4.88l51.6 17.06c.38.14.58.54.46.92l-.46 1.4 3.82 1.26 3.28-8.18v-.02l.02-.04v-.02l1.16-2.92-5.36-2.24-.04-.02c-.02-.02-.06-.02-.08-.04L200 314.3h-24.36zm-4.08-.52L139 302.46l-1.7 4.88 39.92 13.22c-.06-1.3-.46-2.54-1.16-3.62a7.122 7.122 0 00-3.44-2.8c-.36-.08-.72-.2-1.06-.36zm-2.42 25.46c1.48-.82 2.72-2.24 3.52-4.14l-24.82-8.22-15.54-5.14-2.18 6.26 33.44 11.62c2 .7 3.94.52 5.58-.38zM233 326.62l4.8-12.32h-34.1l29.3 12.32zm4.16 17.6l-7.34-2.42-2.3 7 7.08 2.32 2.56-6.9zm37.14 8.16l-10.12-3.24h-.02l-15.62-4.98-.06-.02-8.74-2.78-.98 2.64v.02l-4.4 11.86 39.94-3.5zm-141.6-67.92l7.96 3.34 20.24-22.68.04-.06 7.5-8.4.06-.06 9.68-10.84c.02-.04.04-.06.06-.08l16.48-18.46-5.98-5.56-9.42 10.56-.02.02-.04.04-9.68 10.84c-.02.04-.04.06-.06.08l-7.48 8.38c-.02.04-.04.06-.06.08l-29.28 32.8zm9.36 3.94l18.68 7.84v-28.78l-18.68 20.94zm20.12 8.46l6.12 2.56V259l-6.12 6.84v31.02zm34-70.24l.02.02.04.02 2.52 2.36 5.6-6.28-13.78-12.3-5.34 5.98 10.94 10.2zm-34 22.64l6.12-6.84V129.76c-2.44-.02-6.12.14-6.12 4.04v115.46zm7.56-8.46l8.28-9.3v-83.68c0-1.44.6-2.76 1.54-3.72.96-.94 2.28-1.54 3.72-1.54h.36v-7c0-.4.32-.72.72-.72h55.04l9.82-10.2a.42.42 0 01.22-.16h-75.52c-1.16 0-2.2.46-2.96 1.22-.76.76-1.22 1.8-1.22 2.96V240.8zm9.72-10.92l8.24-9.2-3.94-3.68a.725.725 0 01-.06-1.02l6.26-7.02.02-.02h.02l24.16-27.1c-4.5-4.74-7.18-10.94-8.74-17.62-1.54-6.62-1.96-13.68-2-20.22h-20.14c-1.04 0-2 .44-2.7 1.12-.68.7-1.12 1.64-1.12 2.7v82.06zm12.08-20.5l13.74 12.26 49.62-55.56-13.3-12.82-9.08 10.18c-.02.04-.04.06-.08.08l-.02.02-16.72 18.74-.02.02v.02h-.02l-24.12 27.06zM204.86 144c.04 6.46.46 13.42 1.96 19.9 1.5 6.4 4.04 12.34 8.3 16.86l15.84-17.74c-3.02-3.64-2.96-10.4-2.92-17.04.02-.6.02-1.14.02-1.98h-23.2zm25.64 51.62l.44.44c1.08 1.02 2.5 2.12 3.8.76l13.6-14.14c1.3-1.34.2-2.74-1.04-3.94-.3-.28-.56-.52-.82-.74l-.14-.14-15.84 17.76zm16.8-18.82l.14.12c.3.26.6.54.86.8 1.74 1.66 3.26 3.7 1.08 5.96l-13.6 14.12c-2.22 2.3-4.3.78-5.84-.7l-.4-.4-20.1 22.52c.38.38.78.74 1.16 1.12.58.54 1.14 1.1 1.68 1.58 2.1 1.86 4.14 3.16 5.78 1.32l44.48-49.8-6.58-6.34-8.66 9.7zM229.5 144l-.02 1.98c-.04 6.28-.1 12.66 2.46 15.94l8.62-9.64-8.6-8.28h-2.46zm34 28.36l15.84-17.74-6.6-6.34-15.82 17.74 6.58 6.34zm16.8-18.8l15.42-17.28h-12.26l-9.76 10.92 6.6 6.36zm16.72-18.72l9.24-10.36h-12.28l-9.24 10.36h12.28zm10.54-11.8l7.72-8.66c1.62-1.82.12-3.72-1.98-5.6-.58-.5-1.18-1-1.78-1.5-.42-.34-.84-.7-1.26-1.04l-14.98 16.8h12.28zm6.52 1.44l-9.26 10.36h118.24c.4 0 .72.32.72.72v68.9h5.66v-79.98H314.08zM255.86 165l15.82-17.74-13.3-12.8-15.82 17.74 13.3 12.8zm16.78-18.8l34.52-38.64 10.42-11.68-13.66-12.46-36.38 40.78-.06.06-8.14 9.12 13.3 12.82zm-31.12 5l15.82-17.74-7.6-7.32-9.48 9.88c-.04.02-.06.06-.1.08l-6.88 7.16 8.24 7.94zm16.78-18.82l7.06-7.9h-15.34c.08.02.16.08.22.14l8.06 7.76zm-26.34 10.18l6.04-6.28h-52.92v6.28h46.88zm154.92 33.88h15.58c.4 0 .72.32.72.72v9.28c0 .4-.32.74-.72.74h-15.58c-.4 0-.72-.34-.72-.74v-9.28c0-.4.32-.72.72-.72zm14.86 1.44H387.6v7.84h14.14v-7.84zm123.48 162c4.44 0 7.28 2.44 8.54 5.58.48 1.2.72 2.5.72 3.8 0 1.3-.24 2.6-.72 3.8-1.26 3.14-4.1 5.58-8.54 5.58-4.44 0-7.3-2.44-8.54-5.58-.5-1.2-.74-2.5-.74-3.8 0-1.3.24-2.6.74-3.8 1.24-3.14 4.1-5.58 8.54-5.58zm7.2 6.1c-1.04-2.6-3.44-4.64-7.2-4.64-3.76 0-6.16 2.04-7.22 4.64-.4 1.04-.6 2.16-.6 3.28 0 1.12.2 2.24.6 3.26 1.06 2.62 3.46 4.66 7.22 4.66s6.16-2.04 7.2-4.66c.4-1.02.62-2.14.62-3.26 0-1.12-.22-2.24-.62-3.28zm-10.84 20.26c-3.34-.7-6.32-2.38-8.64-4.7a16.87 16.87 0 01-2.86-3.74l.92 9.44 10.58-1zm-12.84-22.5c.86-2.58 2.32-4.88 4.2-6.76 1.54-1.54 3.36-2.8 5.4-3.68l-10.6.04 1 10.4zm27.74-5.74c-2.9-2.88-6.86-4.66-11.26-4.66-4.4 0-8.38 1.78-11.26 4.66a15.87 15.87 0 00-4.66 11.26v.26l.24 2.54c.58 3.28 2.16 6.2 4.42 8.46a15.87 15.87 0 0011.26 4.66c4.4 0 8.36-1.78 11.26-4.66 2.86-2.88 4.66-6.86 4.66-11.26 0-4.4-1.78-8.38-4.66-11.26zM463.46 25.74h26.78c1.32 0 2.52.54 3.38 1.42.86.86 1.4 2.06 1.4 3.36v152.56c0 1.32-.54 2.5-1.4 3.38-.86.86-2.06 1.4-3.38 1.4h-38.86l-.38-.02c-1.18-.08-2.28-.6-3.08-1.4-.82-.8-1.34-1.88-1.34-3.08l.02-.34 12.08-152.54c.1-1.32.64-2.52 1.5-3.38l.04-.04a4.58 4.58 0 013.24-1.32zm26.78 1.46h-26.78c-.88 0-1.64.34-2.22.9l-.02.02c-.62.62-1.02 1.5-1.1 2.46l-12.08 152.56v.22c0 .78.34 1.52.9 2.06.56.56 1.34.92 2.18.98l.26.02h38.86a3.342 3.342 0 003.34-3.34V30.52c0-.92-.38-1.74-.98-2.36-.6-.6-1.44-.96-2.36-.96zm12.96 177.26V13.98h-54.06l-14.98 190.48h69.04zm1.46-190.48v190.48h7.24V13.98h-7.24zm8.68 0v190.48h12.54v-54.44c0-2.32.94-4.42 2.46-5.94 1.54-1.52 3.64-2.46 5.94-2.46h6.96v-3.06c0-.4.34-.72.74-.72h81.82V13.98H513.34zM433.42 205.9h-24.96v17.04h132.78V205.9H433.42zm107.82-62.84h-6.96c-1.92 0-3.64.78-4.92 2.04-1.26 1.26-2.04 3-2.04 4.92v54.44h13.92v-61.4zm.72 81.32h-133.5v14.32h198.08v-14.32h-64.58zm100.5 18.52h26.42c1.02 0 1.96.42 2.64 1.1l.02.02c.66.68 1.08 1.6 1.08 2.62v10.2c0 1.02-.42 1.96-1.1 2.64l-.02.02c-.68.66-1.6 1.08-2.62 1.08h-26.42c-1.02 0-1.96-.42-2.64-1.1l-.02-.02c-.66-.68-1.08-1.6-1.08-2.62v-10.2c0-1.02.42-1.96 1.1-2.64l.02-.02a3.72 3.72 0 012.62-1.08zm26.42 1.44h-26.42c-.64 0-1.2.26-1.62.68-.42.42-.68 1-.68 1.62v10.2c0 .62.26 1.2.68 1.62.42.42.98.68 1.62.68h26.42c.62 0 1.2-.26 1.62-.68.42-.42.68-1 .68-1.62v-10.2c0-.62-.26-1.2-.68-1.62-.42-.42-1-.68-1.62-.68zm-60.9-19.96v14.32h73.12v-14.32h-73.12zm-55.14-68.12c2 0 3.5-.04 4.74-.06 3.2-.08 4.84-.12 5.8.58 1.12.82 1.08 2.2 1 5-.04.84-.06 1.82-.06 3.12a2.4 2.4 0 01-.7 1.72l-.06.04c-.42.4-1.02.66-1.66.66-1.98 0-3.48.04-4.72.08-3.22.06-4.84.1-5.82-.6-1.1-.82-1.06-2.2-.98-5 .02-.84.04-1.82.04-3.12 0-.66.28-1.28.72-1.72.44-.42 1.04-.7 1.7-.7zm4.76 1.38c-1.34.02-2.96.06-4.76.06-.26 0-.5.12-.68.28-.18.18-.3.44-.3.7 0 1.14-.02 2.24-.04 3.16-.08 2.3-.1 3.42.4 3.8.58.42 2.04.38 4.92.32 1.34-.04 2.98-.08 4.76-.08.26 0 .48-.1.66-.26l.02-.02c.18-.18.3-.42.3-.7 0-1.14.02-2.22.06-3.16.06-2.3.08-3.42-.42-3.78-.56-.42-2.04-.4-4.92-.32zm-10.36-13.2h54c.4 0 .72.32.72.72v33.4c0 .4-.32.72-.72.72h-54c-.4 0-.74-.32-.74-.72v-33.4c0-.4.34-.72.74-.72zm53.28 1.44h-52.56v31.96h52.56v-31.96zm6.02 43.04H542.7v34.02h63.84v-34.02zm-63.84-1.46h63.84V139.3H542.7v48.16zm65.28-48.16v83.64h73.12v-39.4l-35.12-44.24h-38zm74.56 88.36v10.52l18.22-10.52h-18.22zm32.7-35.2c1.32.36 2.52 1.06 3.46 2.02 1.4 1.4 2.28 3.36 2.28 5.48v17.32l34.02-4.94-3.02-25.5-36.74 5.62zm5.74 26.28v7.48h4.48l.48-1.98c.1-.38.48-.62.86-.54l51.54 11.6.38-1.86c.06-.38.44-.64.84-.56l12.58 2.5c.4.08.66.46.58.84l-1.32 6.66c4.22.84 5.84 1.34 5.96 3.9l73.28 16.34c.92-9.16 1.54-18.14 1.78-27.1.4-15.72-.36-31.42-2.66-47.94l-66.64 9.74c.14 3.1-2.56 3.94-4.98 4.36-.38.06-.74.1-1.08.16h-.1l1.3 7.66c.06.38-.2.76-.6.82l-12.64 2.16c-.4.06-.78-.22-.84-.6l-.46-2.74-62.74 9.1zm-17.52 7.48h16.08v-26.26c0-1.74-.72-3.32-1.86-4.46a6.304 6.304 0 00-4.48-1.86h-4.94c-.4 0-.8.02-1.2.08l-.18.02h-.04c-3.22.52-6.52 2.66-9.16 5.52-3.18 3.42-5.38 7.84-5.38 11.68v15.28h11.16zm17.52 1.44v17.1l4.14-17.1h-4.14zm5.76-.6c0 .04 0 .06-.02.1l-5.44 22.52 51.88 11.64 4.9-24.6-50.88-11.46-.44 1.8zm66.64 33.46v-.02c0-.04.02-.1.06-.14.02-.12.06-.24.08-.36.42-2.14.84-4.04 1.18-5.64.24-1.16.46-2.18.66-3.18 1.1-5.5.54-5.92-4.26-6.88l-3.44 17.3.14.04c.3.06.64.14 1.02.22 1.8.36 3.86.52 4.56-1.34zm1.58-.4l74.1 16.52c.52-4.08 1-8.1 1.42-12.08l-73.18-16.32c-.08.88-.26 1.94-.52 3.22-.18.86-.4 1.96-.68 3.2-.32 1.54-.7 3.34-1.14 5.46zm-3.8-23.46l-11.18-2.22-6.66 33.52 11.16 2.22 6.68-33.52zm-11.98-53.78l-25.78 3.76 3.02 25.5 27.06-3.92-4.3-25.34zm23.74 13.5l66.64-9.74c-.22-1.42-.44-2.86-.66-4.32-.6-2.96-.4-5.6.38-7.86l-68.46 10.02c.28.94.54 2.16.8 3.72.14.84.32 1.96.5 3.22.22 1.4.48 3.02.8 4.96zm-9.32-5.16l-1.38-8.18v-.02l-1.22-7.2-11.24 1.9.72 4.2v.06l5 29.44 11.24-1.9-3.12-18.3zm6.6-2.78c-.94-5.52-1.62-5.72-6.44-4.92l2.96 17.4.14-.02c.34-.04.7-.1 1.04-.16 1.94-.32 4.14-.98 3.72-3.42-.36-2.1-.66-4.02-.92-5.68-.18-1.16-.34-2.18-.5-3.2zm68.24 109.34c-.02-.04-.02-.08-.02-.1l-.84-3.6-4.34.98 3.62 15.84 4.34-1-2.76-12.12zm1.18-1.34l7.6-4.44c2.54-1.36 5.08-.96 7.02.36.88.6 1.64 1.4 2.22 2.32.58.9.96 1.94 1.12 3 .34 2.32-.46 4.8-2.96 6.6-.56.4-1.14.7-1.74.92-.64.22-1.28.36-1.94.4l-9.22.1 1.04 4.6a.74.74 0 01-.54.86l-5.76 1.3c-.38.1-.76-.14-.86-.54l-3.92-17.24c-.08-.38.16-.78.54-.86l5.74-1.32c.4-.08.78.16.88.56l.78 3.38zm1.78 7.82l9.44-.08c.52-.04 1.04-.16 1.54-.34.48-.18.96-.42 1.38-.74 2.02-1.44 2.66-3.4 2.4-5.22-.12-.86-.46-1.7-.92-2.44s-1.08-1.4-1.8-1.88c-1.54-1.04-3.54-1.36-5.54-.28l-7.96 4.64 1.46 6.34zm48.62-115.4c2.72 0 4.48 1.5 5.24 3.42.3.74.44 1.54.44 2.34 0 .78-.14 1.58-.44 2.32-.76 1.92-2.5 3.42-5.24 3.42-2.72 0-4.48-1.5-5.24-3.42-.3-.74-.44-1.54-.44-2.32 0-.8.14-1.6.44-2.34.76-1.92 2.52-3.42 5.24-3.42zm3.9 3.96c-.56-1.42-1.86-2.52-3.9-2.52s-3.34 1.1-3.9 2.52c-.22.56-.34 1.18-.34 1.8 0 .6.12 1.22.34 1.78.56 1.42 1.86 2.52 3.9 2.52s3.34-1.1 3.9-2.52c.24-.56.34-1.18.34-1.78 0-.62-.1-1.24-.34-1.8zm-3.9 16.42c2.74 0 4.48 1.5 5.24 3.42.3.74.44 1.54.44 2.32 0 .8-.14 1.6-.44 2.34-.76 1.92-2.52 3.42-5.24 3.42-.76 0-1.46-.12-2.06-.34l8.8 17.14 13.42 9.96v-59.46c0-1.3-.52-2.5-1.38-3.36a4.834 4.834 0 00-3.36-1.38H898.9l15.58 30.34c.08-.34.18-.66.3-.98.76-1.92 2.52-3.42 5.24-3.42zm3.9 3.96c-.56-1.42-1.86-2.52-3.9-2.52s-3.34 1.1-3.9 2.52c-.22.56-.34 1.18-.34 1.78a4.963 4.963 0 00.46 2.08l.08.16c.64 1.2 1.88 2.08 3.7 2.08 2.04 0 3.34-1.1 3.9-2.52.24-.56.34-1.18.34-1.8 0-.6-.1-1.22-.34-1.78zm-42.84 170.88c.04.04.06.08.08.12.34.46.8.92 1.32 1.36.64.58 1.42 1.1 2.24 1.54 2.68 1.42 6.02 1.9 8.34-.34L906 361.68c1.7-3.3 2.54-5.56 2.5-7.72-.04-2.16-.98-4.34-2.84-7.58l-6.4-11.18c-1.82 0-3 .04-3.56.4-.5.32-.58 1.1-.32 2.66 2.88 17.96-1.04 23.62-9.32 35.6-1.62 2.34-3.4 4.92-5.34 7.88l-.08.12c-.42.42-.24 1.16.3 2 .04.08.1.14.14.22zm-.52 1.64c-4.26 5.56-10.26 12.5-15.68 18.78-2.06 2.38-4.04 4.68-5.86 6.82-.74.9-1.14 1.64-1.22 2.18-.02.16-.02.28.02.34.06.06.2.12.42.16.68.1 1.8-.12 3.38-.72h.04c7.86-2.52 15.96-5.86 23.66-9.48 9.3-4.36 18.02-9.16 25.1-13.46 8.64-5.24 16.48-11.24 22.16-18.56 5.56-7.16 9.06-15.62 9.14-25.92l-30.3-16.06-11.04-.8.02 5.28 6.52 11.38c1.96 3.44 2.96 5.82 3.02 8.28.06 2.44-.84 4.88-2.66 8.4l-12.98 25.14c-.04.08-.08.16-.14.24-2.88 2.86-6.92 2.34-10.1.66-.94-.5-1.8-1.08-2.52-1.72-.36-.3-.68-.62-.98-.94zm38.82-69.2l-30.94-1.8v11.94l23.24 1.72c.1 0 .2.02.28.08l30.66 16.24h10.58v-11.84h-10.74c-.16 0-.3-.06-.42-.14l-22.66-16.2zM918 181.86v-8.3h-3.92v8.3H918zm-26.78 81.06l1.46 10.92c.36 3.48-1.28 6.14-3.66 7.68-1.08.7-2.3 1.18-3.58 1.4-1.28.2-2.6.16-3.86-.16-2.72-.7-5.1-2.74-5.94-6.34-.18-.8-.24-1.58-.2-2.36.02-.8.18-1.58.42-2.32l4.38-9.64-5.38-.4c-.4-.04-.7-.38-.66-.78l.52-7.12c.04-.4.38-.7.78-.66l21.32 1.6c.4.02.7.36.68.76l-.54 7.12a.7.7 0 01-.76.66l-4.98-.36zm-9.46-.72l-4.54 10.04c-.2.6-.32 1.24-.34 1.88-.04.64.02 1.3.16 1.96.7 3.02 2.66 4.7 4.9 5.28 1.06.28 2.18.32 3.26.14 1.08-.2 2.14-.6 3.04-1.18 1.96-1.28 3.3-3.46 3-6.34l-1.5-11.18-7.98-.6zm-6.08-1.9l5.66.42h.02l.04.02 14.18 1.06.42-5.68-19.9-1.48-.42 5.66zm13.5-72.28l-1.04-11.04c-.36-2.82-2.12-4.62-4.28-5.42-1-.36-2.1-.5-3.18-.44a7.45 7.45 0 00-3.08.84c-2.02 1.06-3.52 3.1-3.52 6.14 0 .68.08 1.32.26 1.92.16.62.42 1.2.74 1.74l6.6 8.6 7.5-2.34zm-8.98 2.8l-6.32-8.28c-.4-.66-.72-1.38-.94-2.12-.2-.74-.32-1.52-.32-2.32 0-3.66 1.84-6.14 4.32-7.42 1.12-.6 2.38-.92 3.66-1 1.28-.08 2.56.1 3.76.54 2.64.96 4.78 3.14 5.22 6.58l1 10.8 4.7-1.46c.38-.12.78.08.9.46l2.08 6.72c.12.38-.1.8-.48.9l-20.12 6.26a.71.71 0 01-.9-.46l-2.08-6.72c-.12-.38.1-.78.48-.9l5.04-1.58zm14.82-3.1l-4.82 1.5h-.02l-.02.02h-.02l-13.88 4.32 1.66 5.34 18.74-5.84-1.64-5.34zm45.88 61.92c-.18 0-.34-.06-.48-.18l-12.18-9.02 23.62 46h1.16v-36.8H940.9zm-5.32 30.1c-3.76-3.74-8.94-6.06-14.66-6.06-5.72 0-10.9 2.32-14.66 6.06-3.74 3.76-6.06 8.94-6.06 14.66 0 5.72 2.32 10.9 6.06 14.66 3.76 3.74 8.94 6.06 14.66 6.06 5.72 0 10.9-2.32 14.66-6.06 3.74-3.76 6.06-8.94 6.06-14.66 0-5.72-2.32-10.9-6.06-14.66z" fill="#F7B726"/></svg>