<svg width="120" height="120" fill="none" xmlns="http://www.w3.org/2000/svg"><path d="M61.371 102.303H25.727A6.735 6.735 0 0119 95.575V21.727A6.735 6.735 0 0125.727 15H67.49c1.797 0 3.487.7 4.757 1.97l14.08 14.08a6.684 6.684 0 011.97 4.757V66.38a1.14 1.14 0 01-2.28 0V35.807a4.417 4.417 0 00-1.303-3.145l-14.08-14.079a4.417 4.417 0 00-3.144-1.302H25.727a4.452 4.452 0 00-4.446 4.446v73.848a4.452 4.452 0 004.446 4.447h35.644a1.14 1.14 0 110 2.281z" fill="#000"/><path d="M86.706 34.75H69.805a1.14 1.14 0 01-1.14-1.14V16.643a1.14 1.14 0 112.28 0V32.47h15.76a1.14 1.14 0 110 2.28zm-34.607-5.83H29.413a1.14 1.14 0 110-2.28h22.686a1.14 1.14 0 110 2.28zm0 9.19H29.413a1.14 1.14 0 010-2.28h22.686a1.14 1.14 0 110 2.28zm24.134 9.19h-46.82a1.14 1.14 0 010-2.28h46.82a1.14 1.14 0 010 2.28zm0 9.191h-46.82a1.14 1.14 0 010-2.28h46.82a1.14 1.14 0 010 2.28z" fill="#000"/><path d="M101.237 81.384l-5.36-16.435a3.206 3.206 0 00-1.871-1.992 3.208 3.208 0 00-2.73.168l-5.343 2.924a3.193 3.193 0 00-1.55 1.943 3.191 3.191 0 00.3 2.468l.24.423-.618.165-6.401-3.03a6.107 6.107 0 00-4.84-.16l-6.522 2.576a7.805 7.805 0 00-1.255.638l-7.312-.966c.282-.67.327-1.415.127-2.114a3.191 3.191 0 00-1.55-1.943l-5.343-2.924a3.207 3.207 0 00-2.729-.168 3.206 3.206 0 00-1.872 1.992l-5.36 16.435a3.202 3.202 0 001.591 3.859l2.333 1.196a3.213 3.213 0 002.875.032c.443.915 1.05 1.852 1.819 2.803l-.403.47a3.75 3.75 0 00.409 5.28 3.717 3.717 0 002.725.89c.035-.003.07-.01.105-.014a3.725 3.725 0 004.42 3.178 3.73 3.73 0 004.394 2.89 3.725 3.725 0 003.654 2.963 3.738 3.738 0 002.847-1.308l.86-1.004a130.99 130.99 0 004.64 2.242 3.923 3.923 0 005.557-3.736 3.643 3.643 0 003.222-1.523c.381-.534.611-1.16.666-1.814a3.706 3.706 0 003.868-1.17 3.676 3.676 0 00.839-2.745 3.997 3.997 0 001.49-.441 3.846 3.846 0 002.052-3.027 3.778 3.778 0 00-.243-1.768l2.942-2.491a3.213 3.213 0 003.404.293l2.333-1.196a3.204 3.204 0 001.59-3.859zM73.903 69.98a3.818 3.818 0 013.025.1l6.78 3.21c.243.115.52.14.781.07l1.6-.426L92.56 84.3l-2.94 2.49c-3.64-3.392-15.423-10.486-16.881-11.359a1.14 1.14 0 00-1.368.149l-6.197 5.842c-1.063.905-2.468 1.285-3.763 1.017-.56-.115-.811-.283-.893-.389.032-.577.972-2.805 4.408-7.582a5.509 5.509 0 012.453-1.911l6.523-2.577zm-27.69 14.43l-2.334-1.196a.93.93 0 01-.462-1.122l5.36-16.435a.922.922 0 01.544-.579.916.916 0 01.794.049l5.343 2.924a.927.927 0 01.45.565.926.926 0 01-.087.718l-.628 1.104-.008.013-7.734 13.59a.933.933 0 01-1.239.37zm6.208 9.231a1.458 1.458 0 01-1.066-.347 1.466 1.466 0 01-.16-2.065l3.574-4.174a1.46 1.46 0 011.113-.512 1.458 1.458 0 011.305.8c.088.172.14.359.154.55a1.454 1.454 0 01-.348 1.066l-3.573 4.174a1.453 1.453 0 01-1 .508zm3.035 2.88a1.465 1.465 0 01-.16-2.066l4.65-5.433a1.462 1.462 0 012.066-.16c.613.525.685 1.452.16 2.065l-.585.683c-.025.027-.052.052-.077.08l-3.574 4.175c-.025.03-.047.062-.071.093l-.345.402a1.455 1.455 0 01-.999.508 1.45 1.45 0 01-1.065-.348zm4.373 2.892a1.457 1.457 0 01-.232-1.972l3.716-4.34a1.461 1.461 0 011.994-.087c.614.525.685 1.451.16 2.065l-3.573 4.174a1.466 1.466 0 01-2.065.16zm4.391 2.888a1.465 1.465 0 01-.16-2.064l2.292-2.677a1.466 1.466 0 012.505 1.407c-.06.183-.155.352-.28.498l-2.292 2.677a1.465 1.465 0 01-2.065.159zm24.722-12.12a1.55 1.55 0 01-.844 1.233 1.696 1.696 0 01-1.613-.013l-.702-.387-4.822-2.66-.001-.001-6.82-3.763a1.14 1.14 0 00-1.101 1.997l6.82 3.763 4.822 2.66a1.412 1.412 0 01.401 2.144 1.419 1.419 0 01-1.744.341l-2.025-1.072a3.64 3.64 0 00-.28-.168l-6.494-3.44a1.15 1.15 0 00-.178-.075l-1.673-.886a1.14 1.14 0 00-1.068 2.015l8.524 4.515c.26.191.442.469.515.783a1.353 1.353 0 01-.219 1.112 1.368 1.368 0 01-1.711.438l-1.347-.65a3.971 3.971 0 00-.587-.337l-2.483-1.143-1.51-.728a1.139 1.139 0 00-1.348 1.787c.1.111.222.202.358.267l4.392 2.119c.234.193.41.447.507.734a1.633 1.633 0 01-.102 1.295 1.648 1.648 0 01-2.141.729 130.373 130.373 0 01-4.071-1.955 3.716 3.716 0 00.8-2.612 3.72 3.72 0 00-1.298-2.555 3.718 3.718 0 00-1.868-.852 3.744 3.744 0 00-1.24-3.534 3.724 3.724 0 00-2.013-.875 3.744 3.744 0 00-1.284-3.277 3.75 3.75 0 00-4.13-.493 3.72 3.72 0 00-1.047-1.475 3.75 3.75 0 00-5.28.41l-1.658 1.936c-.776-1.012-1.323-1.978-1.633-2.888l7.04-12.37 6.328.836-.038.05c-5.504 7.651-4.966 9.033-4.708 9.698.252.647.904 1.492 2.582 1.838 1.99.413 4.132-.162 5.73-1.537l.04-.034 5.587-5.269c5.958 3.598 15.074 9.455 16.291 11.185.271.385.384.766.344 1.164zm9.664-6.967l-2.332 1.197a.934.934 0 01-1.24-.37l-.015-.026v-.002l-8.355-14.68a.927.927 0 01-.086-.717.929.929 0 01.45-.565l5.343-2.924a.924.924 0 01.794-.049c.153.06.426.216.544.58l5.36 16.435a.931.931 0 01-.463 1.121z" fill="#F7B726"/><path d="M91.985 69.505a1.142 1.142 0 00-2.113-.067 1.141 1.141 0 00-.019.878l.105.274a1.14 1.14 0 002.131-.81l-.104-.275zm-41.44 1.537a1.14 1.14 0 001.552-.437l.153-.275a1.14 1.14 0 00-1.99-1.114l-.153.274a1.14 1.14 0 00.438 1.552z" fill="#F7B726"/></svg>