<svg width="120" height="120" fill="none" xmlns="http://www.w3.org/2000/svg"><path d="M43.082 79.772h-6.783a1.016 1.016 0 01-1.016-1.015V67.353a1.016 1.016 0 011.016-1.015h15.137a1.016 1.016 0 011.016 1.015v9.969a1.2 1.2 0 102.4 0v-2.033c0-.661.538-1.2 1.2-1.2h7.127a1.2 1.2 0 000-2.4H56.05a3.58 3.58 0 00-1.2.21v-4.546a3.42 3.42 0 00-3.415-3.415H36.298a3.42 3.42 0 00-3.415 3.415v11.404c0 .444.088.868.243 1.258a3.39 3.39 0 00-1.258-.243h-4.975a3.39 3.39 0 00-1.015.154V49.688h60.956a4.37 4.37 0 004.365-4.366 4.37 4.37 0 00-4.365-4.365h-.03v-5.582l.155-5.4a1.2 1.2 0 00-.674-1.113L49.722 11.047a1.2 1.2 0 00-1.065.007L12.25 29.378a1.2 1.2 0 00-.66 1.072v11.707a1.2 1.2 0 002.4 0v-6.053l35.207-17.292 35.206 17.292v4.853h-2.662a1.2 1.2 0 000 2.4h5.093c1.084 0 1.965.881 1.965 1.965a1.968 1.968 0 01-1.965 1.966h-62.48a1.968 1.968 0 01-1.965-1.966c0-1.084.881-1.965 1.966-1.965h47.13a1.2 1.2 0 000-2.4h-47.13a4.37 4.37 0 00-4.366 4.365c0 2.107 1.5 3.87 3.489 4.277v47.7H17.22c-1.78 0-3.23-1.45-3.23-3.23v-43.13a1.2 1.2 0 10-2.4 0v43.13a5.636 5.636 0 005.63 5.63h25.031a1.2 1.2 0 000-2.4h-5.768c-.661 0-1.2-.539-1.2-1.2V83.372c0-.662.539-1.2 1.2-1.2h6.6a1.2 1.2 0 000-2.4h-.001zM13.99 31.189l35.215-17.724L84.537 30.68l-.08 2.777-34.731-17.059a1.2 1.2 0 00-1.058 0L13.99 33.43v-2.24zM26.893 97.3a1.017 1.017 0 01-1.015-1.015V83.187a1.016 1.016 0 011.015-1.015h4.975a1.016 1.016 0 011.015 1.015v13.097a1.016 1.016 0 01-1.015 1.015h-4.975z" fill="#000"/><path d="M41.051 35.356a1.2 1.2 0 001.2 1.2h14.047a1.2 1.2 0 100-2.4H42.251a1.2 1.2 0 00-1.2 1.2zm2.152-4.058a1.2 1.2 0 001.2 1.2h9.743a1.2 1.2 0 100-2.4h-9.743a1.2 1.2 0 00-1.2 1.2zm8.286-2.859a1.2 1.2 0 000-2.4H47.06a1.2 1.2 0 100 2.4h4.428zm53.105 51.332h-4.34c.146-.395.23-.82.23-1.266V64.412a1.2 1.2 0 00-2.4 0v14.094a1.267 1.267 0 01-1.266 1.267H69.903a1.268 1.268 0 01-1.267-1.267V64.18a1.2 1.2 0 10-2.4 0v14.325c0 .446.084.871.23 1.267H48.687a3.67 3.67 0 00-3.666 3.666v3.76a1.2 1.2 0 102.4 0v-3.76a1.268 1.268 0 011.266-1.267h9.035v5.179a4.428 4.428 0 004.423 4.423 4.428 4.428 0 004.423-4.423v-5.18h7.675a3.64 3.64 0 00-.23 1.266v3.76a1.2 1.2 0 102.4 0v-3.76a1.267 1.267 0 011.266-1.266h9.035v5.179a4.428 4.428 0 004.423 4.422 4.428 4.428 0 004.423-4.422V82.17h9.034a1.267 1.267 0 011.267 1.266v2.335a1.2 1.2 0 102.4 0v-2.335a3.67 3.67 0 00-3.667-3.666zM64.168 87.35a2.025 2.025 0 01-2.023 2.023 2.025 2.025 0 01-2.023-2.023v-5.178h4.046v5.178zm28.992 0a2.025 2.025 0 01-2.023 2.023 2.025 2.025 0 01-2.023-2.023v-5.178h4.046v5.178z" fill="#F7B726"/><path d="M107.061 90.427a1.2 1.2 0 00-1.2 1.2v14.094a1.27 1.27 0 01-1.266 1.266H77.679a1.267 1.267 0 01-1.266-1.266V91.395a1.2 1.2 0 00-2.4 0v14.326c0 .446.084.871.23 1.266H48.687a1.267 1.267 0 01-1.266-1.266V91.395a1.2 1.2 0 00-2.4 0v14.326a3.67 3.67 0 003.666 3.666h26.916a3.68 3.68 0 001.04-.151c.336.1.685.151 1.036.151h26.916a3.67 3.67 0 003.666-3.666V91.626a1.2 1.2 0 00-1.2-1.2zM80.137 52.556H69.903a3.67 3.67 0 00-3.667 3.666v3.76a1.2 1.2 0 102.4 0v-3.76a1.268 1.268 0 011.267-1.266h9.035v5.178a4.428 4.428 0 004.422 4.423 4.428 4.428 0 004.423-4.423v-5.178h9.035a1.267 1.267 0 011.266 1.266v2.334a1.2 1.2 0 102.4 0v-2.334a3.67 3.67 0 00-3.666-3.666H80.137zm5.246 7.578a2.025 2.025 0 01-2.023 2.023 2.025 2.025 0 01-2.023-2.023v-5.178h4.046v5.178z" fill="#F7B726"/></svg>