<svg width="120" height="120" fill="none" xmlns="http://www.w3.org/2000/svg"><path d="M111.283 95.307l-9.02-68.78-.01-.052-.012-.065c-.006-.027-.014-.053-.021-.08l-.014-.047a1.113 1.113 0 00-.038-.098l-.01-.025a1.312 1.312 0 00-.223-.343l-.002-.003a1.595 1.595 0 00-.114-.11 1.628 1.628 0 00-.082-.067l-.029-.02a1.477 1.477 0 00-.083-.054l-.031-.017a1.279 1.279 0 00-.217-.096l-.028-.01a1.256 1.256 0 00-.102-.027l-.029-.007a1.31 1.31 0 00-.104-.016l-.033-.004a1.285 1.285 0 00-.097-.005l-.03-.002H87.879c-.635-3.971-4.084-7.016-8.23-7.016-4.148 0-7.596 3.045-8.23 7.016H58.82c-.635-3.971-4.084-7.016-8.23-7.016-4.148 0-7.596 3.045-8.231 7.016h-8.683a1.32 1.32 0 00-1.313 1.181L30.628 43v.002l-2.155 20.392a1.32 1.32 0 102.626.277l2.03-19.215h64.317c.104 0 .207-.013.309-.038L92.5 94.158H70.339a1.32 1.32 0 000 2.64h39.635a1.322 1.322 0 001.263-.935c.055-.18.07-.37.046-.556zM97.446 41.816H33.408l1.457-13.797h15.726a1.32 1.32 0 000-2.64h-5.54a5.705 5.705 0 015.54-4.376 5.702 5.702 0 015.695 5.696 5.702 5.702 0 01-5.695 5.696 1.32 1.32 0 100 2.64c4.147 0 7.595-3.045 8.23-7.016h21.253a1.32 1.32 0 000-2.64h-5.965a5.705 5.705 0 015.54-4.376 5.702 5.702 0 015.695 5.696 5.702 5.702 0 01-5.695 5.696 1.32 1.32 0 100 2.64c4.147 0 7.595-3.045 8.23-7.016h11.608l-1.471 13.927a1.311 1.311 0 00-.57-.13zm-2.292 52.343l5.941-56.232 7.374 56.232H95.154z" fill="#000"/><path d="M77.234 57.736h8.03a1.32 1.32 0 100-2.64h-8.03a1.32 1.32 0 100 2.64zm-28.417 0a1.32 1.32 0 100-2.64h-8.03a1.32 1.32 0 000 2.64h8.03zm18.162-2.64h-8.03a1.32 1.32 0 100 2.64h8.03a1.32 1.32 0 100-2.64zm10.255 15.378h8.03a1.32 1.32 0 100-2.64h-8.03a1.32 1.32 0 100 2.64zm0 12.738h8.03a1.32 1.32 0 000-2.64h-8.03a1.32 1.32 0 000 2.64z" fill="#000"/><path d="M63.682 67.835H10.026a1.32 1.32 0 00-1.32 1.32v31.163a1.318 1.318 0 001.32 1.32h53.656a1.318 1.318 0 001.32-1.32V69.155a1.32 1.32 0 00-1.32-1.32zm-1.32 12.754a1.324 1.324 0 00-.198-.016c-5.602 0-10.166-4.516-10.25-10.098h10.448v10.114zM48.817 70.475h.457c.084 7.038 5.832 12.738 12.89 12.738a1.3 1.3 0 00.198-.017v4.246a1.324 1.324 0 00-.198-.017c-6.664 0-12.163 5.081-12.826 11.573H23.517c-.642-6.278-5.805-11.236-12.171-11.556v-4.246c6.754-.34 12.153-5.903 12.234-12.721h25.237zm-27.877 0c-.08 5.362-4.296 9.738-9.594 10.074V70.475h9.594zm-9.594 19.613c4.908.311 8.887 4.09 9.51 8.91h-9.51v-8.91zm40.652 8.91c.65-5.032 4.96-8.933 10.166-8.933a1.3 1.3 0 00.198-.017v8.95H51.998z" fill="#F7B726"/><path d="M27.452 84.736c0 5.184 4.218 9.401 9.402 9.401 5.184 0 9.401-4.217 9.401-9.401s-4.217-9.402-9.4-9.402c-5.185 0-9.403 4.218-9.403 9.402zm16.163 0a6.769 6.769 0 01-6.761 6.761 6.77 6.77 0 01-6.762-6.761 6.77 6.77 0 016.762-6.762 6.77 6.77 0 016.761 6.762zm-1.61-51.527a1.218 1.218 0 00-.286-.427 1.197 1.197 0 00-.427-.286 1.32 1.32 0 00-1.438 2.153c.248.246.582.385.931.387.348 0 .69-.142.934-.387a1.333 1.333 0 00.362-1.193 1.336 1.336 0 00-.076-.247zm50.923 0a1.197 1.197 0 00-.286-.427 1.197 1.197 0 00-.427-.286 1.333 1.333 0 00-1.01 0 1.309 1.309 0 00-.79.96 1.335 1.335 0 00.36 1.193 1.39 1.39 0 00.43.286 1.332 1.332 0 00.504.1 1.351 1.351 0 00.734-.223 1.312 1.312 0 00.586-1.096c0-.087-.008-.173-.025-.26a1.336 1.336 0 00-.076-.247z" fill="#F7B726"/></svg>