<svg width="120" height="120" fill="none" xmlns="http://www.w3.org/2000/svg"><path d="M74.066 50.19a1.2 1.2 0 00.994-.529c.47-.697 11.52-17.144 11.52-23.685 0-6.901-5.614-12.515-12.514-12.515a12.53 12.53 0 00-11.442 7.438 12.423 12.423 0 00-1.073 5.077c0 6.54 11.05 22.988 11.52 23.685a1.2 1.2 0 00.995.529zm-9.25-28.316a10.129 10.129 0 019.25-6.013c5.577 0 10.114 4.537 10.114 10.115 0 4.368-6.578 15.395-10.114 20.838-3.537-5.443-10.116-16.47-10.116-20.838 0-1.429.292-2.809.867-4.102z" fill="#F7B726"/><path d="M79.906 26.028c0-3.22-2.62-5.84-5.84-5.84-3.22 0-5.84 2.62-5.84 5.84 0 3.22 2.62 5.84 5.84 5.84 3.22 0 5.84-2.62 5.84-5.84zm-9.28 0a3.444 3.444 0 013.44-3.44 3.444 3.444 0 013.44 3.44 3.444 3.444 0 01-3.44 3.44 3.444 3.444 0 01-3.44-3.44zm-55.684 2.935a1.2 1.2 0 001.2-1.2v-5.685a4.515 4.515 0 014.51-4.51h4.57v.892a2.766 2.766 0 002.763 2.763H41.76a2.766 2.766 0 002.762-2.763v-.891h4.043a4.515 4.515 0 014.51 4.51V48.07a1.2 1.2 0 102.4 0V22.078c0-3.81-3.1-6.91-6.91-6.91h-4.043v-.891a2.766 2.766 0 00-2.762-2.762H27.985a2.766 2.766 0 00-2.762 2.762v.892H20.65c-3.81 0-6.91 3.1-6.91 6.91v5.684a1.2 1.2 0 001.2 1.2zm12.68-14.686c0-.2.163-.362.363-.362H41.76c.2 0 .362.162.362.362v4.183c0 .2-.163.363-.362.363H27.985a.363.363 0 01-.362-.363v-4.183z" fill="#F7B726"/><path d="M34.608 28.44c-6.67 0-12.098 5.427-12.098 12.097 0 6.671 5.427 12.098 12.098 12.098 6.671 0 12.098-5.427 12.098-12.098 0-6.67-5.427-12.098-12.098-12.098zm0 21.795c-5.347 0-9.698-4.35-9.698-9.698 0-5.347 4.35-9.698 9.698-9.698 5.348 0 9.698 4.35 9.698 9.698 0 5.348-4.35 9.698-9.698 9.698z" fill="#F7B726"/><path d="M38.456 36.886l-5.54 5.539-2.155-2.155a1.198 1.198 0 00-2.049.848 1.198 1.198 0 00.352.849l3.003 3.003a1.195 1.195 0 001.697 0l6.389-6.388a1.198 1.198 0 00-.39-1.957 1.2 1.2 0 00-1.307.26zM29.79 17.457h1.252a1.2 1.2 0 000-2.4H29.79a1.2 1.2 0 100 2.4zm8.588 0h1.252a1.2 1.2 0 000-2.4h-1.252a1.2 1.2 0 000 2.4zm-4.797 58.955H30.46a8.926 8.926 0 002.867-6.577 8.955 8.955 0 00-2.873-6.576h8.85a1.2 1.2 0 000-2.4H24.35a1.2 1.2 0 100 2.4 6.584 6.584 0 016.577 6.576A6.541 6.541 0 0129 74.486a6.533 6.533 0 01-4.579 1.925c-4.572-.037-8.28-3.767-8.28-8.347V35.436a1.2 1.2 0 10-2.4 0v32.628c0 5.863 4.721 10.643 10.561 10.744.016 0 .031.004.047.004h9.232a1.2 1.2 0 100-2.4z" fill="#F7B726"/><path d="M49.605 83.463v13.66a1.2 1.2 0 102.4 0v-13.66a1.2 1.2 0 00-2.4 0zm2.4-7.174a1.2 1.2 0 00-2.4 0v3.061a1.2 1.2 0 002.4 0v-3.06zm48.253-23.173H47.874c-3.309 0-6 2.692-6 6v7.318a1.2 1.2 0 002.4 0v-7.318c0-1.985 1.614-3.6 3.6-3.6h18.72v12.952a5.741 5.741 0 005.734 5.735h3.475a5.741 5.741 0 005.735-5.735V55.516h18.72c1.985 0 3.6 1.615 3.6 3.6v4.543a1.2 1.2 0 102.4 0v-4.543c0-3.308-2.692-6-6-6zm-21.12 15.352a3.339 3.339 0 01-3.335 3.335h-3.475a3.338 3.338 0 01-3.335-3.335V55.516h10.145v12.952z" fill="#000"/><path d="M105.058 73.854a1.2 1.2 0 00-1.2 1.2v27.432c0 1.985-1.615 3.6-3.6 3.6H47.874a3.604 3.604 0 01-3.6-3.6V74.604a1.2 1.2 0 10-2.4 0v27.882a5.968 5.968 0 001.203 3.6h-6.792a1.2 1.2 0 100 2.4h63.973c3.309 0 6-2.692 6-6V75.054a1.2 1.2 0 00-1.2-1.2z" fill="#000"/><path d="M68.79 83.437v13.82a3.603 3.603 0 003.6 3.599h22.774c1.985 0 3.6-1.614 3.6-3.6V83.437c0-1.985-1.615-3.6-3.6-3.6H72.39a3.604 3.604 0 00-3.6 3.6zm27.574 0v13.82c0 .66-.539 1.2-1.2 1.2H72.39c-.662 0-1.2-.54-1.2-1.2v-13.82c0-.662.538-1.2 1.2-1.2h22.774c.661 0 1.2.538 1.2 1.2z" fill="#000"/><path d="M75.918 93.987h13.066a1.2 1.2 0 000-2.4H75.918a1.2 1.2 0 100 2.4zm0-4.881h15.717a1.2 1.2 0 100-2.4H75.918a1.2 1.2 0 100 2.4zm-44.192 16.98H28.41a1.2 1.2 0 100 2.4h3.316a1.2 1.2 0 000-2.4z" fill="#000"/></svg>