<svg width="789" height="560" fill="none" xmlns="http://www.w3.org/2000/svg"><path d="M986.036 462.98l3.639-12.256-24.039-18.62-4.226 12.116 24.626 18.76zm-781.26-66.918l-1.221 12.116-.024.493 27.068 13.783 1.901-12.703-27.701-13.806-.023.117zm-3.005 13.008l.094-.892c.234-4.203.657-8.336 1.244-12.421l.117-1.151c.024-.117.047-.235.094-.328l.024-.047a141.827 141.827 0 0112.559-40.175l-39.087 6.128c-.046.024-.093.024-.14.024l-13.24 2.09-10.071 1.573-.024.023c-.047 0-.094 0-.141.024l-81.154 12.75-15.4 28.739h18.358c.47 0 .845.399.845.845v5.096h125.875l.07-1.973c-.023-.094-.023-.188-.023-.305zm3.286-14.886l28.711 14.322c.328.165.54.517.493.893l-2.16 14.417a.469.469 0 01-.094.305c-.188.422-.704.587-1.127.375l-27.442-13.97a168.394 168.394 0 00-.118 5.987 142.19 142.19 0 004.719 36.418l32.114 1.432a.848.848 0 01.775.634l3.897 14.041a1.4 1.4 0 01.047.305.844.844 0 01-.892.799l-30.824-1.62a142.547 142.547 0 0021.48 36.887l29.884-11.717c.353-.117.728-.047.963.259l9.249 11.246c.094.071.141.165.188.282a.833.833 0 01-.493 1.08l-28.781 11.012a142.77 142.77 0 0033.218 24.349l22.841-22.634c.235-.235.634-.306.986-.141l12.982 6.691a.828.828 0 01.235.165c.329.329.305.869-.023 1.197l-22.091 21.532a141.192 141.192 0 0043.758 9.368l11.222-30.054a.859.859 0 01.821-.587l14.578.634a.468.468 0 01.306.047.833.833 0 01.493 1.08l-11.01 28.81c15.54-.963 30.4-4.438 44.18-10.026l-2.535-32.027c-.047-.376.164-.705.516-.869l13.452-5.588c.094-.047.188-.071.305-.094a.88.88 0 01.916.798l2.183 30.759a141.58 141.58 0 0032.325-24.208 123.606 123.606 0 002.982-3.099l-15.705-27.988c-.165-.329-.141-.728.117-.987l9.883-10.73a.67.67 0 01.235-.211.859.859 0 011.15.352l14.86 27.002c8.217-11.036 14.86-23.269 19.602-36.441l-25.588-19.465c-.282-.211-.399-.611-.282-.963l4.813-13.783a.552.552 0 01.141-.258.857.857 0 011.197-.164l24.391 18.901a143.174 143.174 0 003.709-32.426c0-4.062-.165-8.1-.493-12.092l-31.34-6.974a.848.848 0 01-.681-.728l-1.385-14.534a.68.68 0 010-.305.881.881 0 011.033-.634l30.049 6.95a140.92 140.92 0 00-13.522-37.803l-31.551 5.776a.884.884 0 01-.939-.422l-6.949-12.844c-.047-.094-.094-.188-.094-.282a.84.84 0 01.681-.986c10.095-1.761 20.33-3.381 30.377-5.283-1.878-2.747-3.85-5.4-5.915-8.007a.857.857 0 01-.705-.845v-.023a138.741 138.741 0 00-6.69-7.702l-.071-.07a142.898 142.898 0 00-9.554-9.298 146.52 146.52 0 00-6.174-5.189l-26.527 18.103c-.306.188-.705.188-.986-.047l-11.574-8.923a1.54 1.54 0 01-.187-.211.84.84 0 01.234-1.174l25.612-17.164a141.864 141.864 0 00-36.246-15.872l-17.489 26.908c-.188.328-.564.493-.963.399l-14.108-3.78c-.094-.024-.165-.071-.259-.118a.857.857 0 01-.234-1.174l17.019-25.71a152.376 152.376 0 00-11.291-1.315h-.024l-.634-.047h-.07l-.305-.024h-.024l-.328-.023h-.024l-.305-.024h-.024l-.328-.023h-.024a152.984 152.984 0 00-8.733-.259c-2.089 0-4.155.047-6.22.141h-.423l-.352.024a150.19 150.19 0 00-13.311 1.291l-.188.024c-1.314.188-2.629.399-3.943.61l-4.202 31.863a.848.848 0 01-.681.728l-14.32 2.676c-.118 0-.212.024-.329 0a.821.821 0 01-.704-.939l4.272-30.571c-12.23 3.616-23.733 8.852-34.344 15.45l7.958 31.041a.817.817 0 01-.329.986l-12.348 7.842a.822.822 0 01-1.267-.493l-7.419-29.937c-4.225 3.381-8.263 6.973-12.066 10.801a141.03 141.03 0 00-15.987 19.042l19.579 25.429a.845.845 0 01.047 1.01l-8.217 12.045a.97.97 0 01-.211.235c-.375.281-.915.188-1.197-.165l-18.616-24.583c-7.418 13.759-12.653 28.88-15.189 44.894zm-52.397-198.83h2.536v-83.331c0-.469.375-.845.845-.845h8.498V90.093a.84.84 0 01.845-.845c.469 0 .845.376.845.845v5.894h.728c.61-.024 1.291-.047 1.995-.047 4.719 0 10.095.775 10.095 7.325v7.913h15.235V90.093c0-.47.399-.845.869-.845.446 0 .845.376.845.845v5.894h.704a54.084 54.084 0 012.019-.047c4.695 0 10.071.775 10.071 7.325v7.913h14.273c.587 0 1.15.024 1.714.094l7.277-29.585h-3.498c-.469 0-.868-.376-.868-.845v-7.96c0-.47.399-.845.868-.845h81.53v-9.322c0-.47.376-.845.845-.845h65.614c5.352 0 5.963 4.367 5.963 8.171 0 .446 0 1.033-.024 1.597v.399h3.662c.47 0 .845.376.845.845v23.105h7.771c.328 0 .634.187.775.493l48.828 108.759.071.141 16.174 36.042.024.024v.023l.023.024 7.16 15.943c.047.07.094.117.118.211l.07.211 2.324 5.189.024.024v.023l21.714 48.346 208.391-34.68.634-1.691-17.137-6.739-17.63 2.795h-.094l-18.358 2.911-.023.024h-.047l-78.15 12.374h-.047l-.023.023-18.358 2.912h-.07l-21.152 3.357a.853.853 0 01-.539-.094l-53.055-27.847a.724.724 0 01-.422-.446l-10.517-26.674-.024-.023v-.047l-6.549-16.577-.024-.047-13.24-33.529v-.047l-.024-.024-6.526-16.577h-.023l-.024-.047-21.08-53.417-19.368-34.492c-.023-.024-.047-.07-.07-.094-8.944-15.497-17.935-28.646-29.039-37.92-11.081-9.228-24.297-14.605-41.763-14.605H164.703c-.469 0-.845-.4-.845-.869V.87c0-.47.376-.869.845-.869h18.687c.117 0 .234.047.352.094l25.635 10.073h173.506c42.045 0 44.815 2.818 93.174 52.079a3826.761 3826.761 0 0019.015 19.3h630.478c.38 0 .68.212.8.54l16.83 34.422c.02.047.05.094.07.141l30.4 62.222c.07.118.12.282.12.446v13.83c0 .47-.38.845-.85.845l-39.76-.305h-.05l-138.224 33.131h-.07l-18.147 4.343c-.047.024-.07.024-.117.024a.708.708 0 01-.54-.094h-.023l-.071-.047v-.023h-.023v-.024h-.024l-.023-.023-.047-.047-.024-.024-.023-.047-.024-.023-.023-.024-.047-.07v-.024a.327.327 0 01-.047-.141v-.023l-.024-.07-1.22-7.702-30.894 20.569c5.446 1.549 12.231 4.085 13.311 11.646v.047c1.22 9.063-2.137 17.774-5.611 26.837-.446 1.198-.915 2.395-1.361 3.593l7.934-1.221c.446-.071.892.258.963.728l5.751 42.334a140.92 140.92 0 016.644 9.087c.047.024.07.071.094.118l.093.117c2.559 3.851 4.977 7.819 7.184 11.904l.258.47a.69.69 0 01.094.235 142.53 142.53 0 0116.081 53.534l.117.846c0 .117 0 .211-.023.305v.023c.375 4.133.54 8.336.54 12.562 0 16.788-2.864 32.896-8.17 47.876l-.07.211c-.024.071-.047.165-.094.235a143.636 143.636 0 01-20.682 38.226.694.694 0 01-.117.164l-.165.211a147.728 147.728 0 01-8.521 10.167l-.658.775a.569.569 0 01-.258.212l-.023.023a147.908 147.908 0 01-3.24 3.358 143.64 143.64 0 01-46.81 31.252l-.235.117c-.093.024-.164.07-.258.07-14.414 5.894-30.001 9.486-46.293 10.379-.071 0-.141.023-.211.023h-.306c-2.441.118-4.859.188-7.324.188-1.995 0-3.967-.047-5.939-.141h-1.01c-.117 0-.211 0-.305-.047h-.023c-21.105-1.056-41.012-6.668-58.736-15.896l-.352-.164a.565.565 0 01-.258-.141 144.797 144.797 0 01-34.814-25.64c-.047-.047-.117-.094-.164-.141l-.282-.329a139.84 139.84 0 01-8.85-9.791l-.611-.658a.808.808 0 01-.187-.305l-.024-.023a143.288 143.288 0 01-26.856-52.361l-.094-.352c-.023-.071-.047-.141-.047-.211a139.965 139.965 0 01-2.465-10.848l-22.278-10.942a.499.499 0 00-.117-.07l-38.453-18.878h-21.292v40.385c0 .47-.375.846-.845.846H523.266a.842.842 0 01-.845-.846v-40.385h-33.945c.023 1.15.046 2.301.046 3.451 0 16.788-2.887 32.896-8.192 47.876l-.071.211c-.023.071-.047.165-.094.235a143.58 143.58 0 01-20.682 38.226c-.023.047-.07.117-.093.164l-.188.211a141.21 141.21 0 01-8.522 10.167l-.657.775a.672.672 0 01-.235.212l-.047.023a145.72 145.72 0 01-3.239 3.358 143.65 143.65 0 01-46.81 31.252l-.235.117c-.071.024-.164.07-.258.07-14.414 5.894-30.002 9.486-46.294 10.379-.07 0-.141.023-.211.023h-.305c-2.442.118-4.86.188-7.325.188-1.995 0-3.967-.047-5.939-.141h-1.009c-.094 0-.212 0-.305-.047h-.024c-21.104-1.056-41.011-6.668-58.735-15.896l-.352-.164a.574.574 0 01-.259-.141c-12.888-6.762-24.602-15.45-34.814-25.64-.047-.047-.093-.094-.164-.141l-.282-.329a140.34 140.34 0 01-8.85-9.791l-.61-.658a1.302 1.302 0 01-.188-.305l-.023-.023a142.86 142.86 0 01-26.833-52.361l-.117-.352a.675.675 0 01-.047-.211 149.213 149.213 0 01-1.784-7.42l-22.419-9.557h-8.897a.842.842 0 01-.846-.845v-8.969a4.07 4.07 0 01-1.948-1.057 4.023 4.023 0 01-1.15-2.794v-10.096H108.55v4.883c0 .47-.375.846-.845.846H90.779L75.52 428.817a.962.962 0 01-.516.164H36.316v80.232a.842.842 0 01-.845.845h-8.615a.842.842 0 01-.845-.845v-73.141c-.634 0-1.244.024-1.855.047-1.056.024-2.113.071-3.028.071-5.047 0-9.696-.846-9.696-6.504v-11.952c0-5.659 4.649-6.504 9.696-6.504.915 0 1.972.024 3.028.071.61.023 1.22.047 1.855.047v-5.096c0-.446.375-.845.845-.845h11.057l4.554-8.547v-24.231L17.489 358.4l-9.742 18.197v12.445l5.165 5.165a.851.851 0 010 1.198l-.048.023-.023.024-4.179 4.085a.85.85 0 01-1.197 0l-7.207-7.208a.855.855 0 01-.258-.611v-15.309a.77.77 0 01.094-.399l42.373-79.081v-98.1c0-.469.399-.845.869-.845h5.117v-1.808c0-.798-.023-1.503-.047-2.207a77.539 77.539 0 01-.047-2.184c0-1.408.094-2.676.47-3.686V87.839a.84.84 0 01.845-.845h92.986c3.052 0 5.517.986 7.254 2.7v.023c1.76 1.761 2.746 4.274 2.746 7.28v98.357zm2.536 1.691h-2.536v20.404h2.536v-20.404zm313.067 86.641l.047-2.113c.024-2.254.047-3.451-.211-3.944-.141-.282-.822-.282-2.277-.282l-.798.023c-.775 0-.916 1.174-.916 2.771 0 .704.024 1.362.047 2.043l.047 1.573h.235a61.039 61.039 0 012.84-.071h.986zm.845 1.808h-5.728c-.07 0-.117 0-.187-.023-.446.023-.869.023-1.221.023-1.362 0-2.582.54-3.475 1.433a4.98 4.98 0 00-1.432 3.475v32.191h18.358v-32.191c0-3.64-2.723-4.696-6.033-4.955-.094.024-.164.047-.282.047zm-6.596-1.69c0-.54-.024-1.057-.047-1.55-.024-.775-.047-1.503-.047-2.113 0-2.583.422-4.485 2.606-4.485h.774c2.184 0 3.193-.023 3.803 1.221.446.845.423 2.207.376 4.72v2.183c3.92.376 7.136 1.808 7.136 6.622v23.527l13.241-2.207-21.199-47.172-26.762 12.022c.071.094.118.188.188.305.423.845.399 2.207.376 4.72-.024.587-.024 1.268-.024 2.183 2.583.259 4.883.963 6.127 2.794l6.315 5.753v-1.925c0-1.832.728-3.475 1.925-4.673a6.563 6.563 0 014.672-1.925h.54zm240.153-8.101l-.775 2.09h-.023v.047h-.024l-1.127 3.076 14.062 5.236 2.348-6.246c-1.855.211-3.78 0-5.611-.728l-8.85-3.475zm-3.31 6.504l-.024-.023-.07-.024-5.892-2.183-3.475 9.18 27.513 10.378 3.498-9.274-5.892-2.207-.047-.024h-.047l-15.541-5.823h-.023zm-.235-1.902l.657-1.714-3.638.611 2.981 1.103zM166.229 136.771v9.51h5.118v-9.51h-5.118zm-1.69 9.51v-27.425h-1.667v27.425h1.667zm1.69 7.701v30.9h5.118v-30.9h-5.118zm-1.69 30.9v-30.9h-1.667v30.9h1.667zm38.734-48.111h-2.113a31.16 31.16 0 01-2.112.071c-.587 0-1.362-.024-2.09-.047-.328 0-.633-.024-.962-.024v9.51h7.277v-9.51zm-7.277-1.714h5.024c3.239-.234 6.08-1.361 6.08-5.588v-10.613h-11.104v16.201zm8.967.916v10.308h11.175l6.549-26.58c-1.361-.61-3.169-.845-5.329-.845h-8.568v10.613c0 3.734-1.573 5.588-3.827 6.504zm-10.681 10.308v-27.425h-15.235v27.425h15.235zm1.714 7.701v30.9h7.277v-30.9h-7.277zm-1.714 30.9v-30.9h-15.235v30.9h15.235zm10.681-30.9v30.9h6.574v-19.817c0-.047 0-.117.023-.188l2.676-10.895h-9.273zm2.137-42.804v-7.913c0-5.048-4.484-5.611-8.381-5.611a27.32 27.32 0 00-1.972.023l-.751.024v13.477H207.1zm-29.767 0v-7.913c0-5.048-4.46-5.611-8.381-5.611-.657-.024-1.338 0-1.972.023l-.751.024v13.477h11.104zm-11.104 7.678v16.201h5.118v-16.201h-5.118zm11.104 27.425v-27.425h-4.296v27.425h4.296zm-5.986 63.889v-23.597h-8.475v23.597h8.475zm7.7-23.597v23.597h32.49v-23.597h-32.49zm-1.714 23.597v-56.188h-4.296v56.188h4.296zm113.785 0v-23.597h-30.964v23.597h30.964zm0-25.288v-30.9h-30.964v30.9h30.964zm-32.654-30.9h-6.245v30.9h6.245v-30.9zm-7.935 0H245.2v30.9h5.329v-30.9zm-5.329-7.701h5.329v-27.237c-1.314.211-2.394.587-3.239 1.174-1.339.939-2.09 2.512-2.09 4.954v21.109zm7.019 0h6.245v-27.425h-4.953c-.446 0-.869 0-1.292.024v27.401zm7.935 0h6.503v-27.425h-6.503v27.425zm65.144 0h6.057v-27.425h-6.033l-.024 27.425zm7.771 0h8.897v-27.425h-8.897v27.425zm39.649 7.701h-19.32v30.9h19.32v-30.9zm-19.32 32.591v23.597h19.32v-23.597h-19.32zm-7.676 23.597v-23.597h-12.653v23.597h12.653zm0-25.288v-30.9h-12.653v30.9h12.653zm-14.367-30.9h-32.537v30.9h32.537v-30.9zm-32.537 32.591v23.597h32.537v-23.597h-32.537zm-1.714 23.597v-57.056c0-.47.376-.846.845-.846h48.618c.469 0 .868.376.868.846v57.056h4.273v-57.056c0-.47.376-.846.845-.846h20.165v-4.273h-20.165c-.469 0-.845-.399-.845-.869v-28.27h-4.273v28.27c0 .47-.399.869-.868.869h-48.618c-.469 0-.845-.399-.845-.869v-28.27h-4.272v28.27c0 .47-.399.869-.845.869H245.2v4.273h46.787c.446 0 .845.376.845.846v57.056h4.272zm81.296 0v-89.013c0-2.536-.775-4.625-2.231-6.058-.727-.751-1.619-1.315-2.676-1.69h-.047v-.024h-.047c-.774-.258-2.676-.422-5.164-.516H247.829c-2.582 0-4.648.798-6.08 2.23-1.432 1.433-2.23 3.522-2.23 6.058v89.013h3.991v-84.998c0-3.052.986-5.071 2.794-6.339 1.291-.893 2.957-1.386 4.953-1.573h.047a21.803 21.803 0 012.207-.118h110.897c3.029 0 5.47.47 7.207 1.691 1.808 1.268 2.794 3.287 2.794 6.339v84.998h3.991zm-133.2-23.597v23.597h5.329v-23.597H245.2zm-7.371 23.597v-23.597h-4.766v23.597h4.766zm0-25.288v-63.725c0-2.982.962-5.494 2.723-7.255 1.737-1.738 4.226-2.724 7.277-2.724h2.7v-29.49h-16.738l-7.371 29.936a9.092 9.092 0 013.897 2.254c1.761 1.785 2.746 4.297 2.746 7.279v63.725h4.766zm14.39-73.704h6.245v-29.49h-6.245v29.49zm7.935 0h6.479V96.926c0-2.372.986-4.508 2.536-6.058l.047-.047c1.549-1.526 3.685-2.489 6.009-2.489h41.528c2.348 0 4.507.986 6.057 2.536a8.537 8.537 0 012.512 6.058v14.252h6.033v-29.49h-71.201v29.49zm72.915 0h8.897V94.93a5.04 5.04 0 011.479-3.569 5.039 5.039 0 013.568-1.48h22.536c1.385 0 2.63.564 3.545 1.48l.047.047a5.051 5.051 0 011.455 3.522v17.093a8.62 8.62 0 012.747 1.855h.024c1.76 1.785 2.746 4.297 2.746 7.279v96.292h1.503c.469 0 .845.399.845.869v2.395h2.84V81.688h-52.232v29.49zm34.602 0h2.442c.986 0 1.901.094 2.77.305V94.93c0-.892-.352-1.714-.939-2.325l-.047-.047a3.38 3.38 0 00-2.348-.962h-22.536c-.916 0-1.761.376-2.371.962a3.358 3.358 0 00-.986 2.372v16.225l3.568-.024c5.611-.07 14.391-.188 20.447.047zm-142.002 42.804h-9.696l-2.746 11.177v19.723h12.442v-30.9zm-7.794-7.701h7.794v-21.109c0-2.066-.517-3.498-1.479-4.461l-6.315 25.57zm7.794 1.714h-62.797v4.273h62.797v-4.273zm-64.511 62.175v-91.314h-4.272v91.314h4.272zm70.192 0v-89.013c0-2.536-.775-4.625-2.23-6.058-1.409-1.432-3.475-2.23-6.057-2.23h-66.177v4.273h60.472c2.747 0 5.001.399 6.691 1.362h.023v.023h.024l.023.024c.165.094.306.188.446.282 1.808 1.268 2.794 3.287 2.794 6.339v84.998h3.991zm-5.681 0v-23.597h-12.442v23.597h12.442zm-74.722-86.43V96.996c0-2.536-.775-4.625-2.231-6.081-1.408-1.409-3.474-2.23-6.056-2.23H50.519v4.296h86.436c3.029 0 5.47.47 7.207 1.69 1.808 1.269 2.794 3.288 2.794 6.317v19.606a8.336 8.336 0 013.216 2.183c.282.306.54.611.775.963zm-5.681-3.616v-19.136c0-2.419-.728-3.992-2.066-4.931-1.432-1.01-3.545-1.385-6.245-1.385H99.794v29.232h35.588a10.25 10.25 0 015.235-3.522c1.526-.446 3.146-.54 4.649-.258zM92.117 94.672H56.505v29.232h35.612V94.672zm-37.302 91.314V94.672h-4.296v91.572c.423-.164.939-.258 1.526-.258h2.77zm1.69-54.404v27.331h35.612v-27.331H56.505zm0 35.009v19.395h35.612v-19.395H56.505zm90.169-5.987H123.41l-2.301 4.297h25.565v-4.297zm-24.555-1.174l.07-.141 16.48-30.806c.751-1.268 1.925-2.207 3.216-2.606.869-.282 1.784-.352 2.653-.141.892.235 1.714.704 2.371 1.526.892 1.057 1.479 2.7 1.479 5.001v85.186h2.559v-87.745c0-2.536-.775-4.461-1.996-5.776a6.85 6.85 0 00-3.052-1.902l-.047-.023h-.023c-.164-.047-.305-.094-.47-.141a8.503 8.503 0 00-4.272.141c-1.737.493-3.357 1.573-4.578 3.193 0 .047-.023.07-.07.117a8.14 8.14 0 00-.47.752l-2.699 5.024c-.024.024-.047.071-.071.118l-15.47 28.88-.07.141-3.146 5.847c-.024.047-.047.094-.071.117l-11.221 20.968-.07.141-4.953 9.227-.07.141-15.213 28.388c-.024.047-.047.094-.07.117l-32.749 61.119-.07.141-5.916 11.035a.53.53 0 01-.07.118l-42.35 79.01v14.769l6.386 6.387 3.028-2.959-4.813-4.813a.843.843 0 01-.258-.587v-12.985c0-.188.07-.352.141-.469l10.212-19.066.023-.024v-.023l.024-.024 26.104-48.768.07-.141 5.917-11.035.07-.141 1.15-2.16.024-.047h.023l33.359-62.316.023-.071h.024l4.131-7.725.07-.141 15.189-28.387c.024-.047.047-.094.094-.141l4.93-9.228.071-.141 11.221-20.944.07-.141 3.146-5.846zm2.183-.517h22.372v-26.65c0-1.878-.422-3.146-1.056-3.944a2.908 2.908 0 00-1.479-.94 3.305 3.305 0 00-1.714.094 4.202 4.202 0 00-2.277 1.855l-15.846 29.585zm-8.78 1.691H99.794v4.297h13.451l2.277-4.297zm-15.728-1.691h16.644l14.648-27.331H99.794v27.331zm-7.677 1.691H56.505v4.297h35.612v-4.297zm20.213 5.987H99.794v19.395h2.136l10.4-19.395zm34.344 0h-26.48l-10.376 19.395h36.856v-19.395zm-12.395-40.973H99.794v4.274h32.185l2.3-4.274zm-42.162 0H56.505v4.274h35.612v-4.274zm5.987 60.368V94.672h-4.296v91.314h4.296zM44.18 308.552v63.091l4.272 2.442v-73.54l-4.272 8.007zm0 65.04v20.099l4.272-8.007v-9.65l-4.272-2.442zm5.986-76.217v77.672l3.052 1.738 32.56-60.814-34.931-19.864-.681 1.268zm0 79.621v5.518l2.253-4.226-2.253-1.292zM44.11 397.4l-.07.141-4.226 7.866h14.93l16.01-29.913 47.515-88.755c-1.902-.517-3.122-1.691-3.122-4.086v-17.939l-27.09 50.6 5.797 3.287c.4.235.54.752.306 1.151-.235.399-.728.563-1.15.329l-5.752-3.288-32.56 60.837 5.775 3.287a.832.832 0 01.328 1.151.874.874 0 01-1.15.329l-5.752-3.288-3.826 7.162h-.023v.023L44.11 397.4zm-1.643-26.72v-58.958l-24.18 45.199 24.18 13.759zm5.986-84.927v-86.078h-4.272v94.084l4.272-8.006zm1.714-60.18v57.033l30.541-57.033H50.167zm34.884 6.645l30.096 17.117v-3.804c0-3.874 3.192-4.508 7.16-4.508.845 0 1.807.024 2.793.071l.751.023 8.334-15.544H88.619l-3.568 6.645zm30.096 19.066l-30.894-17.563-32.607 60.884 34.931 19.864 28.57-53.324v-9.861zm-33.523-27.401l14.39-26.838H50.167v26.838h31.457zm15.282-28.529l4.109-7.678h-48.97c-1.714 0-1.995 1.832-1.995 4.109 0 .752.023 1.433.046 2.137l.047 1.432h46.763zm11.996-7.678l-4.108 7.678h41.88v-7.678h-37.772zm-5.023 9.369l-14.367 26.838h45.565l3.193-5.964a.845.845 0 01.751-.47h7.653v-20.404h-42.795zm32.489 28.012l-.07.14-8.545 15.943h.164c.47 0 .845.4.845.869v1.691h10.236v-3.24c0-.47.375-.846.845-.846h6.831v-20.451h-7.136l-3.17 5.894zm12.02-.024h6.808v-5.87h-6.808v5.87zm6.808 10.519h-6.808v4.062h6.808v-4.062zm0-8.805h-6.808v7.115h6.808v-7.115zm1.69 8.805v4.062h19.743c.446 0 .845.376.845.846v85.749h3.709l8.498-24.748v-.047l.023-.024v-.023l6.527-19.042v-46.773h-5.306v34.211a.841.841 0 01-.845.845.842.842 0 01-.845-.845v-34.211h-4.507v34.211a.842.842 0 01-.845.845.842.842 0 01-.846-.845v-34.211h-26.151zm66.787 66.449l1.761 3.076h3.615a.84.84 0 01.845.845v1.291h7.935v-1.291c0-.47.376-.845.845-.845h16.034c.399-.306.774-.634 1.174-.939l-18.781-9.886-13.428 7.749zm28.992 4.766h-13.146v1.315a.856.856 0 01-.845.845h-9.625a.857.857 0 01-.845-.845v-1.315h-3.263a.89.89 0 01-.728-.422l-2.183-3.804h-30.706v8.922h56.036a170.641 170.641 0 015.305-4.696zm5.517-16.718l10.494 4.978.187-.117c.071-.047.165-.094.235-.118a143.358 143.358 0 0130.495-14.393 1.85 1.85 0 01-.47-.399c-.587-.681-.563-1.691-.54-3.686l.024-1.104h-7.958l.023 1.08c.024 1.855.024 2.841-.376 3.522-.586.916-1.432.916-3.192.892h-.704c-1.832 0-2.184-1.455-2.184-3.428 0-.375.024-.892.047-1.408l.024-.658h-9.179v1.08c.023 1.855.047 2.841-.376 3.499-.563.939-1.408.939-3.192.915h-.681c-1.855 0-2.183-1.455-2.183-3.428 0-.375.023-.892.023-1.408l.024-.658h-8.475l-2.066 4.743v10.096zm8.827 6.082l-9.883-4.696h-15.142l-3.169 1.808 18.522 9.744a146.834 146.834 0 019.672-6.856zm-21.433 17.023h-54.252v10.331h44.533a146.984 146.984 0 017.77-8.429c.658-.634 1.292-1.268 1.949-1.902zm-11.127 12.022h-43.125v5.917H229.8a142.36 142.36 0 014.649-5.917zm-3.451-53.3h24.719l-8.78-8.03a.841.841 0 01-.093-1.151l5.728-8.053h-34.251l5.775 8.077c.235.352.188.845-.117 1.127l-3.616 3.287v4.743h10.635zm-.259 1.69h-10.376v14.793c0 4.884-2.699 8.007-6.127 9.392-1.338.517-2.77.798-4.178.798-1.432 0-2.864-.281-4.179-.798-3.451-1.385-6.127-4.508-6.127-9.392V275.21h-1.808v7.255a.836.836 0 01-.047.259l-6.221 18.126h30.612l14.344-8.288.023-.024h.024l4.601-2.653a.845.845 0 01.469-.141h14.719v-9.11h-14.507c-.212 0-.376-.047-.517-.164l-10.705-6.904zm27.701-1.502c.024.023.047.047.094.07l1.479 1.362h9.578c.47 0 .845.399.845.869 0 .446-.023 1.009-.047 1.573 0 .423-.023.845-.023 1.338 0 .986.07 1.738.493 1.738h.704c1.127 0 1.667.023 1.737-.094.165-.258.141-1.08.118-2.606v-1.949c0-.47.375-.869.845-.869h10.869c.469 0 .868.399.868.869 0 .446-.023 1.009-.047 1.573-.023.423-.046.845-.046 1.338 0 .986.093 1.738.493 1.738h.704c1.127 0 1.667.023 1.737-.094.164-.258.164-1.08.141-2.63l-.024-1.925c0-.47.376-.869.845-.869h9.649c.469 0 .845.399.845.869 0 .563 0 1.315-.024 1.972-.023 1.573-.023 2.372.141 2.559.141.165.798.165 2.16.141l1.432-.023c4.93-1.479 9.977-2.7 15.118-3.64l.564-.117c.07-.023.164-.023.258-.023 1.268-.212 2.512-.423 3.779-.611v-2.278l-64.721-17.703h-4.343l-6.033 8.452 9.812 8.97zm-.868 1.502h-23.71l8.333 5.377h14.579l1.901-4.367-1.103-1.01zm-38.664-7.396l.07-.07 3.287-3.006-6.01-8.452h-7.066c-.469 0-.869-.376-.869-.846v-5.635l-3.239 3.24a.761.761 0 01-.587.259h-6.55v21.836h12.935l8.029-7.326zm-17.466 9.04v13.149c0 4.085 2.23 6.692 5.071 7.819 1.103.446 2.324.657 3.545.657 1.22 0 2.441-.211 3.544-.657 2.841-1.127 5.048-3.734 5.048-7.819v-19.676l-6.879 6.292c-.164.141-.352.235-.563.235h-9.766zm-3.498-25.265h6.198l4.178-4.179v-10.214h-10.376v14.393zm61.999 3.194l63.782 17.445v-3.052l-15.376-31.98h-48.406v17.587zm-31.363 79.644h-37.866c-1.784 1.033-3.099 1.832-4.108 2.442-1.667 1.033-2.559 1.573-3.475 1.879-1.103.375-2.065.352-4.131.328-.399 0-.845-.023-1.526-.023v9.462h42.162a142.076 142.076 0 016.995-11.317l.399-.658c.071-.093.141-.187.235-.258.423-.634.869-1.244 1.315-1.855zm-51.106 2.935l1.549.024c1.878.023 2.747.023 3.568-.235.752-.258 1.573-.751 3.146-1.714.963-.611 2.23-1.362 3.897-2.348v-24.678l-7.043 20.522a.837.837 0 01-.821.61h-4.296v7.819zm41.223 12.867h-41.223v9.792l39.345-6.176c.61-1.221 1.244-2.418 1.878-3.616zm37.067-113.033c0 1.104.047 1.973.071 2.7.07 2.325.117 3.475-.705 4.227-.774.728-1.972.681-4.366.587a82.93 82.93 0 00-3.991-.094c-1.549 0-1.901-1.573-1.901-3.733 0-.611.023-1.386.07-2.161.023-.493.023-1.009.047-1.526h-34.955v17.399h48.219v-17.399h-2.489zm-9.085 0l-.047 1.597c-.023.704-.07 1.385-.07 2.09 0 1.174.047 2.042.211 2.042 1.573 0 2.958.047 4.038.094 1.948.071 2.911.094 3.193-.141.234-.234.211-1.127.14-2.911a78.28 78.28 0 01-.094-2.771h-7.371zm139.092 11.106v31.44h13.099v-.751c0-2.56.399-5.706 4.296-5.706h1.15v-15.027h-8.24a.84.84 0 01-.586-.258l-9.719-9.698zm-1.69 31.44v-39.681l-14.626 30.406v6.293a135.47 135.47 0 0113.241 2.912l.258.07h1.127zM316.753 90.046h-41.528a6.835 6.835 0 00-4.812 1.972l-.047.047a6.851 6.851 0 00-2.019 4.86v14.253h55.284V96.926a6.85 6.85 0 00-2.018-4.86 6.892 6.892 0 00-4.86-2.02zm6.855 56.235l.023-27.425h-24.813v27.425h24.79zm-55.261 0h22.771v-27.425h-22.771v27.425zm85.051-27.425v27.425h19.32v-21.109c0-2.442-.727-4.015-2.065-4.954-1.432-.986-3.545-1.362-6.245-1.362h-11.01zm-9.742 0v27.425h2.066v-27.425h-2.066zm43.335-21.179v20.757h8.71c1.103 0 2.089.446 2.817 1.15a3.999 3.999 0 011.174 2.818v43.109c0 1.104-.446 2.09-1.174 2.818a3.956 3.956 0 01-2.817 1.174h-8.71v25.804h48.524c.47 0 .845.376.845.846v8.664h5.963l-48.101-107.14h-7.231zM258.464 210.17v-23.597h-6.245v23.597h6.245zm119.936 7.279v-5.565H156.886v5.565H378.4zm-24.063 34.821l.024-1.902c.07-2.583.094-3.827-.634-4.226-.916-.517-2.981-.47-6.925-.399a252.79 252.79 0 01-6.456.093c-1.338 0-1.573 1.503-1.573 3.382 0 .681.024 1.268.047 1.878l.024 1.174h15.493zm-17.184 0c0-.399-.023-.751-.023-1.104-.024-.704-.071-1.385-.071-1.948 0-2.818.493-5.096 3.287-5.096 2.723 0 4.742-.023 6.432-.07 4.249-.07 6.456-.117 7.747.587 1.643.916 1.62 2.489 1.526 5.776 0 .517-.024 1.127-.024 1.855h8.827c1.244 0 2.371.493 3.193 1.315l.07.023a4.677 4.677 0 011.338 3.264v8.054l14.133-29.374h-73.361l13.498 28.082v-6.762a4.6 4.6 0 011.362-3.264 4.581 4.581 0 013.24-1.338h8.826zm30.612 22.564v-17.962c0-.798-.328-1.526-.845-2.043l-.047-.047a2.858 2.858 0 00-2.019-.821h-36.527c-.799 0-1.526.328-2.043.845a2.912 2.912 0 00-.868 2.066v17.493a146.585 146.585 0 0119.648-1.315c7.724 0 15.306.61 22.701 1.784zm29.837-39.282v4.508l4.132 4.133h2.582v-8.641h-6.714zm6.714 10.355h-2.934c-.211 0-.423-.094-.61-.258l-4.625-4.626a.853.853 0 01-.258-.61v-4.861h-10.118v8.711l10.658 10.66h7.887v-9.016zm-3.732 32.191h11.644c9.39 0 10.563 3.264 10.563 10.425 0 .893-.023 2.043-.047 3.311-.023 1.174-.07 2.465-.07 4.015a132.862 132.862 0 015.658 3.827v-23.762c0-.704-.282-1.338-.752-1.808a2.552 2.552 0 00-1.831-.751h-22.583c-2.348 0-2.606 2.184-2.606 3.992l.024.751zm20.4 16.671l.07-2.982c.024-1.104.047-2.137.047-3.264 0-6.011-.986-8.734-8.873-8.734h-23.593a142.892 142.892 0 0132.349 14.98zm2.16-23.128h2.605c1.174 0 2.254.493 3.029 1.268a4.225 4.225 0 011.244 3.005v10.073l.258-.258a6.509 6.509 0 014.648-1.925h.564c-.024-.54-.047-1.057-.047-1.55a35.843 35.843 0 01-.071-2.113c0-2.559.423-4.414 2.536-4.485l-9.015-19.934a.86.86 0 01.423-1.127l.845-.376-7.019-15.567v32.989zm-17.137-36.089v36.089h15.423v-36.089h-15.423zm25.682 19.841l-.047.023-.071.024-.774.352 6.596 14.628 28.617-12.843-6.574-14.652-27.747 12.468zm-8.099-19.841l8.122 17.986 27.044-12.163-15.658-34.868h-6.738v14.206h2.254c.821 0 1.596.352 2.136.892l.024.024c.54.563.892 1.314.892 2.136v8.735c0 .845-.352 1.596-.892 2.16h-.024a3.002 3.002 0 01-2.136.892H423.59zm16.644 40.128L468.451 263l-1.737-3.897-28.617 12.867 1.667 3.686c.164 0 .329.024.47.024zm-.916 1.667a.331.331 0 01-.211 0h-.329l-.798.023c-.751 0-.916 1.174-.916 2.771 0 .704.024 1.362.047 2.043l.071 1.573h.211a62.04 62.04 0 012.864-.071h.986l.024-2.113c.023-2.254.047-3.451-.212-3.944-.117-.235-.657-.282-1.737-.282zm16.057 17.281l-5.305-4.86c0 .211.023.422.023.634v28.387l.564.611 4.718-.987v-23.785zm-8.099-7.396l-.399-.399c-1.127-.869-2.746-1.245-4.531-1.386a.824.824 0 01-.258.047h-5.751c-.047 0-.118 0-.165-.023-.469.023-.868.023-1.244.023a4.92 4.92 0 00-3.451 1.433 4.898 4.898 0 00-1.455 3.475v10.495c.915.681 1.831 1.362 2.723 2.067l.657.446c.094.07.188.141.259.258l.023.023a143.408 143.408 0 0112.818 11.365c.633.657 1.267 1.291 1.878 1.949v-26.603c0-1.409-.399-2.442-1.104-3.17zM204.752 10.167l-21.527-8.453h-17.677v8.453h39.204zm-39.204 1.714v16.624h162.168c17.888 0 31.457 5.541 42.843 15.027 11.197 9.345 20.259 22.517 29.227 38.014h92.892a16644.818 16644.818 0 01-17.842-18.126c-47.866-48.768-50.613-51.54-91.953-51.54H165.548zm210.997 51.68h-64.769v8.476h69.018v-.423c.023-.446.023-.916.023-1.573 0-3.005-.446-6.48-4.272-6.48zm8.756 10.167h-155.9v6.269h155.9v-6.27zm1.69 46.396v47.688h8.71a2.27 2.27 0 001.62-.681c.422-.422.68-.986.68-1.62v-43.109a2.18 2.18 0 00-.68-1.597 2.27 2.27 0 00-1.62-.681h-8.71zm47.679 76.874h-47.679v23.715h47.679v-23.715zm3.944 25.405h-56.153v11.459h56.153c.352 0 .704-.141.939-.4a1.33 1.33 0 00.399-.962v-8.735c0-.352-.141-.704-.376-.939v-.023c-.258-.235-.61-.4-.962-.4zm-57.843-3.24H156.886v14.699h223.885v-14.699zM175.784 358.658v-30.759h-4.273v15.075l.024 2.207c0 3.076-.493 6.574-4.86 6.574-.892 0-1.714.024-2.512.024v8.687l11.621-1.808zm-21.786-6.762v10.167l8.475-1.315v-8.969c-1.549.023-2.911.047-4.132.07-1.643.024-3.098.047-4.343.047zm-.845-1.831h10.165c.047 0 .094 0 .164.023 1.033-.023 2.09-.023 3.193-.023 2.841 0 3.169-2.607 3.169-4.884 0-.54 0-.893-.023-1.221v-.141h-23.17c0 3.616.117 5.259 1.69 5.87.915.352 2.3.469 4.366.516a.73.73 0 01.446-.14zm-.845 12.28v-10.472c-2.066-.047-3.521-.212-4.577-.611-2.771-1.057-2.771-3.24-2.771-8.265v-15.098h-5.117a.84.84 0 01-.845-.845v-42.217h-10.236v1.362a.856.856 0 01-.845.845c-.986 0-1.901.024-2.817.047a59.8 59.8 0 01-2.793.07c-.798 0-1.573-.023-2.301-.093l-46.95 87.721 79.252-12.444zm3.568-64.876v11.224h4.719v-11.224h-4.719zm6.409 0v11.224h8.616v-11.224h-8.616zm-8.099 11.224v-11.224h-8.639v11.224h8.639zm-9.484-12.914h27.067a.84.84 0 01.845.845v12.914c0 .47-.375.869-.845.869h-27.067c-.469 0-.845-.399-.845-.869v-12.914c0-.47.376-.845.845-.845zm1.949 32.12v14.206h23.146v-14.206h-23.146zm29.133-86.594h-35.096v84.904h35.096v-84.904zm-36.786 4.085h-10.236v37.733h10.236V245.39zm-11.926-2.559h-.54a.853.853 0 01-.422-.023l-1.08-.024a50.068 50.068 0 00-2.723-.07c-3.029 0-5.47.399-5.47 2.817v37.122c0 2.419 2.441 2.818 5.47 2.818.962 0 1.854-.024 2.723-.071.704-.023 1.385-.047 2.042-.047v-42.522zm57.75 183.52l17.841 7.584a147.059 147.059 0 01-1.033-17.422c0-1.15 0-2.301.047-3.451h-15.259c0 1.761.023 3.146.047 4.343.094 4.696.117 7.044-1.057 8.406a2.573 2.573 0 01-.586.54zm18.099 9.533l-19.602-8.359v7.89l21.011 8.969a128.146 128.146 0 01-1.409-8.5zm-29.25-10.472h8.639c.915-.094 1.479-.305 1.831-.704.751-.869.704-3.006.634-7.279a241.705 241.705 0 01-.047-4.367h-13.569v10.096c0 .611.258 1.174.681 1.597.399.399.939.634 1.549.657h.282zm.587 1.691v8.03h7.371v-7.983c-1.08.047-2.418.023-4.038 0-.939-.024-1.995-.047-3.333-.047zm-84.23-9.838c.023 0 .047-.024.094-.047l6.338-4.156H75.85v13.501l14.179-9.298zm3.334-.165h13.498v-4.038h-7.301l-6.197 4.038zm-67.351-4.062l-1.925-.047a58.595 58.595 0 00-2.958-.07c-4.155 0-8.005.61-8.005 4.813v11.952c0 4.179 3.85 4.789 8.005 4.789 1.08 0 2.019-.023 2.958-.046l1.925-.071v-21.32zm8.615-5.917h-6.925v101.246h6.925V407.121zm39.533 0H36.316v20.17H74.16v-20.17zm423.284-32.825c2.817 0 3.216 2.184 3.216 4.485 0 .328 0 .751-.023 1.174v.164h1.338a3.74 3.74 0 012.7 1.127 3.781 3.781 0 011.126 2.7v19.442a3.837 3.837 0 01-1.126 2.724 3.778 3.778 0 01-1.855 1.009v4.227h8.404c0-1.738-.023-3.006-.023-4.18-.071-5.87-.094-9.016 1.103-10.895 1.456-2.254 4.202-2.301 10.118-2.301v-54.38h-15.729a.841.841 0 01-.845-.845c0-.469.376-.869.845-.869h8.733v-11.575c0-.47.376-.846.845-.846h6.151v-5.165c0-.47.376-.845.845-.845h88.737c0-.587-.024-1.151-.047-1.715-.023-.798-.07-1.596-.07-2.254 0-2.723.446-4.719 2.746-4.719 1.761 0 3.099-.047 4.179-.071 3.169-.07 4.765-.117 5.728.752 1.056.916 1.009 2.395.939 5.377a76.53 76.53 0 00-.047 2.63h2.676a.84.84 0 01.845.845v4.461l13.099-8.429c5.494-3.569 11.668-4.767 17.372-4.203 6.245.61 11.926 3.357 15.588 7.513l1.127 1.245 15.423-40.926-214.448 35.69v6.95h4.109c2.3 0 2.699 1.808 2.699 4.132 0 .423-.023.963-.047 1.527a30.04 30.04 0 00-.047 1.549c0 .728-.281 1.386-.751 1.855l-.023.024a2.697 2.697 0 01-1.831.751h-4.109v27.965c5.635 13.243 9.32 27.472 10.752 42.381l.118.846c.023.117 0 .211 0 .305l-.024.023c.211 2.442.376 4.908.47 7.397h3.638v-4.227a3.991 3.991 0 01-1.854-1.009c-.681-.705-1.127-1.668-1.127-2.724v-19.442c0-1.056.446-1.995 1.127-2.7a3.818 3.818 0 012.699-1.127h1.362v-.141c-.024-.446-.047-.869-.047-1.197 0-2.301.423-4.485 3.216-4.485zm1.526 4.485c0-1.433-.188-2.794-1.526-2.794-1.315 0-1.502 1.361-1.502 2.794 0 .469 0 .798.023 1.127v.211h2.982v-.211c0-.329.023-.658.023-1.127zm-5.212 28.434v4.133h7.372v-4.133h-7.372zm8.217-25.405h-9.062c-.587 0-1.103.258-1.502.634-.376.399-.61.915-.61 1.502v19.442c0 .587.234 1.127.61 1.503a2.08 2.08 0 001.479.634h9.108a2 2 0 001.479-.634c.399-.376.634-.916.634-1.503v-19.442c0-.587-.235-1.103-.634-1.502a2.145 2.145 0 00-1.502-.634zm116.884-69.431c-1.221.024-2.676.07-4.226.07-.868 0-1.033 1.268-1.033 3.029 0 .752.024 1.456.047 2.208l.071 1.761h10.024c0-.963.023-1.879.047-2.677.07-2.466.093-3.687-.353-4.062-.493-.423-1.854-.399-4.577-.329zm-96.437 14.769h-5.306v10.73h5.306v-10.73zm113.55 10.73h8.757c.469 0 .845.4.845.869 0 .47-.376.845-.845.845h-15.776v54.38c5.892 0 8.663.047 10.118 2.301 1.197 1.879 1.174 5.025 1.103 10.895 0 1.174-.023 2.442-.023 4.18h30.213l23.921-10.332c.047-.023.071-.047.117-.047l16.011-6.926a142.487 142.487 0 016.221-24.795l-16.597-18.784-11.175 29.608-4.272 11.411a.871.871 0 01-1.104.494l-1.525-.587c.093.633.117 1.244.117 1.831a15.08 15.08 0 01-3.334 9.462 15.037 15.037 0 01-8.498 5.33 15.58 15.58 0 01-3.333.376c-3.827 0-7.066-1.291-9.555-3.358-2.277-1.854-3.92-4.367-4.812-7.114-.892-2.747-1.033-5.729-.305-8.57.681-2.724 2.159-5.307 4.53-7.42l-2.394-.892a.852.852 0 01-.493-1.104l4.296-11.411 17.278-45.857-1.714-1.925c-3.38-3.827-8.662-6.363-14.484-6.927a25.255 25.255 0 00-16.292 3.921l-11.972 7.725h4.131c.47 0 .845.376.845.846v11.575zm-1.69-10.73h-5.329v10.73h5.329v-10.73zm-178.906-2.371v-4.626l-3.404.704a175.158 175.158 0 013.404 3.922zm20.048 7.654h-14.132a99.003 99.003 0 012.794 3.968.53.53 0 01.07.118l.094.117c2.559 3.851 4.977 7.819 7.183 11.904l.259.47a.71.71 0 01.094.235 132.705 132.705 0 013.638 7.326v-24.138zm-15.376-1.714h21.175a.866.866 0 00.633-.258h.024a.925.925 0 00.258-.658c0-.446.024-1.033.047-1.62.024-.469.024-.939.024-1.456 0-1.361-.141-2.442-.986-2.442h-24.157v2.583c1.01 1.268 2.019 2.56 2.982 3.851zm-28.57-26.579l-.023-.024-10.447-7.302-25.259 16.905 10.165 7.843 25.564-17.422zM1015.8 150.343c2.66 0 4.35 1.479 5.1 3.334.28.728.42 1.479.42 2.254 0 .752-.14 1.526-.42 2.254-.75 1.855-2.44 3.311-5.1 3.311-2.63 0-4.34-1.456-5.07-3.311a5.934 5.934 0 01-.44-2.254c0-.751.14-1.526.44-2.254.73-1.855 2.44-3.334 5.07-3.334zm3.52 3.968c-.49-1.268-1.66-2.254-3.52-2.254-1.83 0-3 .986-3.52 2.254a4.56 4.56 0 00-.28 1.62c0 .564.09 1.127.28 1.62.52 1.268 1.69 2.254 3.52 2.254 1.86 0 3.03-.986 3.52-2.254.22-.493.31-1.056.31-1.62 0-.563-.09-1.127-.31-1.62zm-69.553 98.288c1.925 0 3.145 1.056 3.709 2.418.187.517.305 1.08.305 1.62 0 .564-.118 1.104-.305 1.62-.564 1.386-1.784 2.442-3.709 2.442s-3.146-1.056-3.71-2.442a4.23 4.23 0 01-.305-1.62c0-.54.094-1.103.305-1.62.564-1.362 1.785-2.418 3.71-2.418zm2.136 3.052c-.305-.775-1.01-1.362-2.136-1.362-1.127 0-1.832.587-2.137 1.362a2.838 2.838 0 00-.187.986c0 .353.07.705.187 1.01.305.751 1.01 1.362 2.137 1.362 1.126 0 1.831-.611 2.136-1.362.117-.305.188-.657.188-1.01 0-.328-.071-.681-.188-.986zM719.074 279.53l-2.723 7.232 5.939 2.207a.866.866 0 01.517 1.08l-4.085 10.825-.024.023v.071l-18.005 47.711 16.597 18.737a142.976 142.976 0 0116.386-31.862l.399-.658c.07-.093.141-.187.235-.258a145.196 145.196 0 0116.362-19.582 144.042 144.042 0 0113.146-11.623l.141-.141.282-.188a146.884 146.884 0 0111.08-7.795l.587-.399a.741.741 0 01.235-.118 142.704 142.704 0 0150.026-19.418l.563-.117c.071-.023.164-.023.258-.023l2.465-.423c-.023-4.626.259-9.885 13.1-14.135l35.753-11.177-152.379 24.819a11.823 11.823 0 01-5.399 4.672c-.47.212-.963.4-1.456.54zm-2.254 21.579l-27.513-10.379-29.25 77.602 27.513 10.331 11.362-30.078.024-.07 17.864-47.406zm-45.823 86.172l-2.888-1.081a6.558 6.558 0 00-1.197-.094c-3.357 0-5.517 1.832-6.456 4.18a8.241 8.241 0 000 5.87c.939 2.348 3.099 4.156 6.456 4.156 3.38 0 5.517-1.808 6.456-4.156.375-.916.539-1.925.539-2.935s-.164-2.019-.539-2.935a6.456 6.456 0 00-2.371-3.005zm-6.714-2.536l-5.681-2.137c-2.512 1.972-4.062 4.485-4.719 7.138-.657 2.536-.516 5.212.282 7.654s2.253 4.673 4.272 6.34c2.207 1.808 5.071 2.935 8.475 2.935 1.033 0 2.019-.094 2.981-.305 3.052-.681 5.681-2.419 7.536-4.743a13.52 13.52 0 002.958-8.406c0-.822-.071-1.667-.235-2.512l-5.728-2.137c.188.329.352.704.516 1.08a9.742 9.742 0 01.681 3.569 9.934 9.934 0 01-.681 3.569c-1.173 2.935-3.85 5.236-8.028 5.236-4.155 0-6.855-2.301-8.029-5.236a9.905 9.905 0 01-.657-3.569 9.72 9.72 0 01.657-3.569c.916-2.278 2.723-4.156 5.4-4.907zm22.7-4.485l-27.536-10.355-3.686 9.838 2.958 1.104.023.023h.047l9.719 3.663a8.214 8.214 0 013.334 1.245l9.343 3.522h.023l2.09.798 3.685-9.838zm1.55 28.035c3.568 0 5.868 1.973 6.878 4.485.399.986.587 2.043.587 3.076a8.025 8.025 0 01-.587 3.052c-1.01 2.536-3.31 4.508-6.878 4.508-3.592 0-5.893-1.972-6.902-4.508a8.025 8.025 0 01-.587-3.052c0-1.033.188-2.09.587-3.076 1.009-2.512 3.31-4.485 6.902-4.485zm5.305 5.119c-.751-1.926-2.535-3.428-5.305-3.428-2.794 0-4.555 1.502-5.329 3.428a6.646 6.646 0 00-.47 2.442c0 .845.165 1.667.47 2.418.774 1.949 2.535 3.452 5.329 3.452 2.77 0 4.554-1.503 5.305-3.452.305-.751.47-1.573.47-2.418 0-.846-.165-1.667-.47-2.442zm2.841-11.599c3.638 2.066 5.962 5.118 7.136 8.523.939 2.747 1.103 5.706.587 8.523-.54 2.818-1.784 5.518-3.639 7.725-2.136 2.489-5.07 4.367-8.709 5.119l18.663 9.181a146.153 146.153 0 01-2.042-24.373c0-2.395.046-4.766.164-7.138-.024-.094-.024-.211-.024-.305l.094-.845a139.64 139.64 0 011.221-12.21l-13.451 5.8zm-7.372 28.551c4.39-.234 7.818-2.136 10.165-4.883 1.667-1.973 2.77-4.391 3.263-6.927.47-2.559.305-5.213-.516-7.678-1.174-3.358-3.639-6.387-7.559-8.195l-23.71 10.261a.952.952 0 01-.423.118h-16.433l35.213 17.304zm42.115-169.573l-4.578 11.646 162.943-26.509c.07-.023.141-.023.211-.023 5.916 0 10.916 1.432 15.001 3.78 4.648 2.677 8.099 6.598 10.376 11.036 2.254 4.461 3.381 9.439 3.381 14.252 0 4.626-1.033 9.134-3.005 12.914 4.366 2.184 8.615 4.555 12.723 7.162h.024l.023.023.024.024a138.157 138.157 0 019.484 6.527l-5.376-32.614-39.157-33.905-7.113 1.127h-.023l-.024.024-18.405 2.911h-.023l-91.554 14.511h-.047l-.047.023-18.358 2.912h-.07l-26.41 4.179zm-44.181 6.997l24.884 9.815a9.944 9.944 0 006.104.399h.023c.54-.141 1.08-.329 1.597-.563a9.998 9.998 0 004.789-4.297l.023-.024v-.023c.212-.376.399-.775.564-1.198l4.249-10.8-42.233 6.691zm264.192 31.158l7.301-1.197-1.596-11.693-7.63 1.174 1.925 11.716zm7.536.494l-7.254 1.174 2.488 15.121a142.614 142.614 0 018.217 9.04l-3.451-25.335zm-11.268-12.727l-.024-.07v-.047l-7.042-42.757-.024-.071-2.582-15.708-10.141 1.597 12.113 73.445.446.306c.094.07.188.141.258.258l.024.023a149.083 149.083 0 0111.432 10.003l-2.254-13.642-.023-.023-2.183-13.314zm-231.679-21.578c2.489 0 4.085 1.385 4.813 3.146.258.658.399 1.386.399 2.114s-.141 1.455-.399 2.113c-.728 1.784-2.324 3.146-4.813 3.146-2.488 0-4.108-1.362-4.812-3.146a5.833 5.833 0 01-.399-2.113c0-.728.141-1.456.399-2.114.704-1.761 2.324-3.146 4.812-3.146zm3.24 3.757c-.47-1.151-1.549-2.066-3.24-2.066-1.69 0-2.77.915-3.239 2.066-.188.47-.282.986-.282 1.503 0 .516.094 1.033.282 1.502.469 1.151 1.549 2.067 3.239 2.067 1.691 0 2.77-.916 3.24-2.067a4.06 4.06 0 00.282-1.502c0-.517-.094-1.033-.282-1.503zm229.589 14.37l.751-1.996c3.381-8.852 6.667-17.399 5.493-26.016v-.023c-.939-6.739-7.488-8.993-12.582-10.379l6.338 38.414zm-29.438-45.951c2.981 0 4.906 1.667 5.751 3.757.329.822.493 1.691.493 2.559 0 .846-.164 1.738-.493 2.536-.845 2.113-2.77 3.757-5.751 3.757-2.981 0-4.883-1.644-5.728-3.757a6.761 6.761 0 01-.493-2.536c0-.868.164-1.737.493-2.559.845-2.09 2.747-3.757 5.728-3.757zm4.179 4.391c-.611-1.503-1.996-2.677-4.179-2.677-2.16 0-3.568 1.174-4.155 2.677a4.94 4.94 0 00-.376 1.925c0 .658.118 1.315.376 1.902.587 1.503 1.995 2.7 4.155 2.7 2.183 0 3.568-1.197 4.179-2.7a5.177 5.177 0 00.352-1.902c0-.657-.118-1.315-.352-1.925zm-27.913-6.95l36.551 31.651-6.033-36.465-30.518 4.814zm46.388 7.49l29.25-19.465-31.621 5.001 2.371 14.464zm-416.571-31.722c10.188-2.488 13.405 1.315 15.001 7.279.493 1.832.822 3.874 1.15 6.011l.165.963 16.761-2.653L541.976 117.8h-16.339c-.047 3.874-.54 7.865-2.207 11.505-1.737 3.804-4.742 7.208-9.883 9.65l3.357 16.389a17.486 17.486 0 013.733-.422c3.075 0 5.822.939 8.028 2.723 2.184 1.785 3.85 4.415 4.766 7.819.516 1.949.798 4.18.798 6.645v.023c0 4.133-.423 8.43-2.207 12.351-1.737 3.804-4.765 7.185-9.906 9.65l3.38 16.389zm16.574 15.92c3.263 20.381 6.456 40.761 9.695 61.119l16.762-2.654-2.771-17.539-.023-.024v-.023l-6.902-43.532-16.761 2.653zm8.028 61.377l-2.676-16.788-8.404 1.314a.924.924 0 01-.516-.093l-47.961-25.242a.814.814 0 01-.375-.422l-6.339-16.061-16.503 7.256 10.118 25.64 52.561 27.589 20.095-3.193zm-2.934-18.455c-2.395-15.098-4.766-30.196-7.184-45.294-.328-2.066-.633-4.062-1.103-5.846-1.385-5.166-4.296-8.382-13.756-5.87l-39.744 17.469 6.244 15.849 47.42 24.959 8.123-1.267zm13.17-46.867a.452.452 0 01.047.188.664.664 0 01.023.211l6.878 43.345 76.577-11.881-6.925-43.65c0-.047-.024-.094-.024-.141v-.14L622.215 117.8H543.69l16.644 104.697zm7.207 45.411l2.652 16.741 76.553-12.139-2.605-16.483-76.6 11.881zm89.417-60.743c.047.07.047.141.071.211v.211l6.948 43.65 89.982-13.947L734.99 117.8h-92.234l14.202 89.365zm-1.502 1.315l-16.738 2.653 9.695 61.119 16.762-2.654-2.747-17.234v-.024l-6.972-43.86zm-16.996.986l16.738-2.653-14.156-89.013h-17.114l14.532 91.666zm25.776 43.438l2.605 16.413 17.044-2.701h.07l46.692-7.396h.024v-.023h.023l26.082-4.133-2.559-16.131-89.981 13.971zm102.728-63.255c.047.094.07.187.094.281a.687.687 0 010 .306l6.995 43.931 90.005-13.971-7.043-44.401c0-.023-.023-.07-.023-.117v-.117l-9.179-57.761h-92.282l11.433 71.849zm-1.479 1.385l-16.738 2.653 9.695 61.119 16.762-2.653-9.719-61.119zm-17.02.986l16.738-2.653-11.385-71.567h-17.137l11.784 74.22zm25.847 43.814l2.558 16.06 89.958-14.276-2.512-15.755-90.004 13.971zM923.286 92.699c3.404 0 5.587 1.879 6.55 4.274.376.915.54 1.925.54 2.911s-.164 1.973-.54 2.888c-.963 2.419-3.146 4.297-6.55 4.297s-5.587-1.878-6.549-4.297c-.376-.915-.54-1.902-.54-2.888s.164-1.972.54-2.911c.962-2.395 3.145-4.274 6.549-4.274zm4.977 4.908c-.728-1.808-2.371-3.217-4.977-3.217-2.605 0-4.249 1.409-4.976 3.217a6.13 6.13 0 00-.423 2.277c0 .775.141 1.55.423 2.278.727 1.784 2.371 3.193 4.976 3.193 2.606 0 4.249-1.409 4.977-3.193a6.313 6.313 0 00.423-2.278 6.13 6.13 0 00-.423-2.277zm-317.457-4.908c3.404 0 5.587 1.879 6.549 4.274a7.736 7.736 0 010 5.799c-.962 2.419-3.145 4.297-6.549 4.297-3.404 0-5.587-1.878-6.55-4.297-.376-.915-.54-1.902-.54-2.888s.164-1.972.54-2.911c.963-2.395 3.146-4.274 6.55-4.274zm4.976 4.908c-.727-1.808-2.371-3.217-4.976-3.217-2.606 0-4.249 1.409-4.977 3.217a6.13 6.13 0 00-.423 2.277c0 .775.141 1.55.423 2.278.728 1.784 2.371 3.193 4.977 3.193 2.605 0 4.249-1.409 4.976-3.193a6.313 6.313 0 00.423-2.278 6.13 6.13 0 00-.423-2.277zM877.04 172.25c.023.07.047.164.07.235v.258l7.043 44.33 87.164-13.524-7.043-44.565-.023-.024v-.047l-6.503-41.113h-89.371l8.663 54.45zm-1.503 1.338l-16.737 2.654 9.695 61.118 16.761-2.653-9.719-61.119zm-16.996.986l16.715-2.653-8.592-54.121h-17.137l9.014 56.774zm25.894 44.166l2.488 15.709 39.814-6.317h.071l11.761-1.878h.047l35.424-5.612-2.465-15.426-87.14 13.524zm98.408-61.87l-16.785 2.654 9.766 61.658.024.071 1.267 8.077 16.574-3.968-3.78-23.832v-.024l-7.066-44.636zm-17.043.987l16.762-2.654-5.916-37.403h-17.184l6.338 40.057zm12.56-40.057l13.099 82.626 140.331-21.79-29.13-60.836h-124.3zm13.357 84.293l3.615 22.87 136.908-32.825V180.28l-140.523 21.813zM1104.52 117.8l29.06 60.649h37.98l-29.62-60.649h-37.42zm29.43 62.363v11.834l38.13.305v-12.163l-38.13.024zm-601.411-8.054c0-2.325-.258-4.414-.751-6.222-.822-3.053-2.278-5.377-4.179-6.927-1.902-1.55-4.296-2.348-6.972-2.348-1.291 0-2.676.188-4.108.564l-50.989 22.447 12.63 32.003 42.608-18.737.023-.024h.024l.047-.023c5.047-2.278 7.958-5.471 9.601-9.063 1.667-3.64 2.066-7.702 2.066-11.647v-.023zm-65.849 64.077l57.186-25.147-3.333-16.201-42.444 18.666h-.023l-.047.024-17.278 7.607 5.939 15.051zm-6.549-16.624l16.479-7.255-12.629-32.003-16.503 7.255 12.653 32.003zm-13.264-33.6l68.407-30.078-3.333-16.224-53.665 23.621h-.023l-.071.023-17.254 7.608 5.939 15.05zm-6.573-16.624l16.503-7.255-17.465-44.283h-19.368l20.33 51.538zm18.053-7.936l53.923-23.715c5.07-2.277 7.981-5.494 9.624-9.087 1.55-3.381 1.996-7.138 2.043-10.8h-82.798l17.208 43.602zm682.733-45.293l-16.06-32.872H400.748l18.475 32.872h721.867zM522.421 395.663c-5.282 0-7.747.047-8.709 1.526-.916 1.456-.893 4.438-.822 9.979l.023 4.18h9.508v-15.685zm115.217 1.526c-.939-1.479-3.427-1.526-8.686-1.526v15.685h9.508l.023-4.18c.071-5.541.094-8.523-.845-9.979zm-10.376-76.052H524.111v131.465h103.151V321.137zm262.807-73.54l-46.975 14.699c-11.432 3.757-11.948 8.265-11.948 12.28a143.46 143.46 0 0120.963-1.526c13.029 0 25.635 1.737 37.631 4.978l.352.07c.071.024.141.047.188.094a140.255 140.255 0 0123.945 8.969c1.878-3.545 2.817-7.795 2.817-12.186 0-4.578-1.033-9.274-3.169-13.477-2.137-4.18-5.376-7.843-9.719-10.355-3.803-2.184-8.498-3.522-14.085-3.546zM310.297 376.996c.775-2.489 2.63-3.663 4.602-3.851a6.675 6.675 0 012.253.235c.728.235 1.432.587 2.019 1.057 1.573 1.268 2.465 3.287 1.714 5.799l-.024.047c-.774 2.489-2.629 3.663-4.601 3.851a6.077 6.077 0 01-2.253-.235 6.13 6.13 0 01-2.019-1.056c-1.573-1.245-2.465-3.287-1.714-5.8l.023-.047zm4.742-2.16c-1.338.117-2.605.939-3.122 2.653l-.023.047c-.517 1.738.094 3.123 1.15 3.968a3.82 3.82 0 001.432.752c.54.164 1.103.235 1.643.188 1.338-.118 2.606-.94 3.123-2.654l.023-.047c.517-1.737-.094-3.122-1.15-3.968a3.831 3.831 0 00-1.432-.751 4.338 4.338 0 00-1.644-.188zm-21.104 29.303c-.822-2.489.047-4.555 1.573-5.846a6.89 6.89 0 011.995-1.104 6.075 6.075 0 012.254-.282c1.995.118 3.897 1.268 4.719 3.781.798 2.489-.047 4.555-1.573 5.823a5.951 5.951 0 01-1.996 1.103c-.727.235-1.479.352-2.253.282-1.996-.117-3.897-1.268-4.719-3.757zm2.653-4.531c-1.033.868-1.596 2.277-1.033 3.991.563 1.738 1.854 2.536 3.216 2.63a4.25 4.25 0 001.62-.235 4.256 4.256 0 001.432-.775c1.033-.868 1.596-2.277 1.033-4.015-.564-1.737-1.855-2.512-3.216-2.606-.54-.047-1.104.047-1.62.211a4.298 4.298 0 00-1.432.799zm-.352 36.464c-2.113-1.55-2.606-3.733-2.113-5.659a6.15 6.15 0 012.653-3.592c1.69-1.057 3.92-1.221 6.033.329 2.113 1.573 2.606 3.733 2.113 5.658a6.48 6.48 0 01-.986 2.067 6.534 6.534 0 01-1.667 1.549c-1.714 1.033-3.921 1.198-6.033-.352zm-.47-5.236c-.352 1.315 0 2.794 1.479 3.874 1.456 1.08 2.982.986 4.132.259a4.295 4.295 0 001.901-2.583c.329-1.292 0-2.794-1.479-3.851-1.455-1.104-2.981-.986-4.131-.282a4.87 4.87 0 00-1.198 1.104 4.523 4.523 0 00-.704 1.479zm99.794.657c.704 2.536-.258 4.532-1.855 5.73a5.942 5.942 0 01-2.042 1.009 6.07 6.07 0 01-2.254.165c-1.995-.212-3.826-1.456-4.53-3.992-.681-2.536.258-4.555 1.854-5.753a6.11 6.11 0 012.043-.986 5.781 5.781 0 012.277-.188c1.972.235 3.826 1.48 4.507 4.015zm-2.864 4.391c1.08-.822 1.714-2.207 1.244-3.944-.493-1.761-1.737-2.63-3.075-2.771a4.304 4.304 0 00-1.643.117 4.26 4.26 0 00-1.456.728c-1.08.799-1.737 2.184-1.244 3.945.469 1.761 1.714 2.606 3.075 2.771.54.07 1.104 0 1.62-.141a4.297 4.297 0 001.479-.705zm1.291-38.883c2.113 1.573 2.606 3.734 2.113 5.682a6.573 6.573 0 01-.986 2.043 6.52 6.52 0 01-1.667 1.55c-1.713 1.033-3.92 1.197-6.033-.352-2.113-1.573-2.606-3.734-2.113-5.659.212-.751.54-1.456.986-2.066a6.424 6.424 0 011.667-1.526c1.714-1.057 3.92-1.221 6.033.328zm.47 5.236c.352-1.291 0-2.794-1.479-3.874-1.456-1.08-2.982-.963-4.132-.258a4.29 4.29 0 00-1.901 2.583c-.353 1.315 0 2.794 1.478 3.874 1.456 1.08 2.982.986 4.132.258a4.44 4.44 0 001.197-1.103 4.31 4.31 0 00.705-1.48zm-54.017-38.155c2.113-1.573 4.319-1.432 6.033-.399a6.15 6.15 0 011.667 1.55 5.56 5.56 0 011.009 2.042c.517 1.926.024 4.086-2.066 5.659-2.089 1.573-4.319 1.432-6.033.399a6.162 6.162 0 01-1.667-1.549 6.056 6.056 0 01-1.009-2.02c-.516-1.948-.023-4.109 2.066-5.682zm5.141 1.057c-1.15-.705-2.676-.799-4.132.282-1.455 1.103-1.784 2.582-1.432 3.897a4.64 4.64 0 00.705 1.456c.352.446.751.822 1.22 1.104 1.151.704 2.676.798 4.132-.282 1.455-1.104 1.784-2.583 1.432-3.898a4.214 4.214 0 00-.704-1.456 4.227 4.227 0 00-1.221-1.103zm27.231 6.621c2.63 0 4.32 1.456 5.071 3.311v.047a5.82 5.82 0 01.423 2.183c0 .752-.141 1.527-.423 2.231-.751 1.855-2.441 3.311-5.071 3.311-2.605 0-4.296-1.456-5.047-3.311l-.023-.047a6.39 6.39 0 01-.399-2.184c0-.751.14-1.526.422-2.23.751-1.855 2.442-3.311 5.047-3.311zm3.498 3.945c-.516-1.268-1.667-2.254-3.498-2.254-1.807 0-2.981.986-3.474 2.254a4.034 4.034 0 00-.305 1.596c0 .541.094 1.081.282 1.574l.023.023c.493 1.268 1.667 2.254 3.474 2.254 1.831 0 2.982-.986 3.498-2.254a4.487 4.487 0 00.305-1.597c0-.54-.094-1.08-.281-1.573l-.024-.023zm-31.199 2.559c18.123 0 29.72 9.932 34.814 22.635a42.692 42.692 0 010 31.228c-5.094 12.703-16.691 22.635-34.814 22.635s-29.743-9.932-34.814-22.635c-1.971-4.93-2.957-10.284-2.957-15.614s.986-10.683 2.957-15.614c5.071-12.703 16.691-22.635 34.814-22.635zm33.242 23.269c-4.86-12.116-15.94-21.578-33.242-21.578-17.324 0-28.405 9.462-33.264 21.578-1.878 4.719-2.817 9.838-2.817 14.98 0 5.142.939 10.261 2.817 14.98 4.859 12.116 15.94 21.579 33.264 21.579 17.302 0 28.382-9.463 33.242-21.579 1.878-4.719 2.817-9.838 2.817-14.98 0-5.142-.939-10.261-2.817-14.98zm-33.242-6.997c10.4 0 17.091 5.706 20.025 13.008 1.127 2.841 1.69 5.917 1.69 8.969 0 3.076-.563 6.129-1.69 8.97-2.934 7.302-9.625 13.031-20.025 13.031-10.423 0-17.113-5.729-20.024-13.031a24.367 24.367 0 01-1.714-8.97c0-3.052.587-6.128 1.714-8.969 2.911-7.302 9.601-13.008 20.024-13.008zm18.452 13.642c-2.7-6.716-8.85-11.952-18.452-11.952-9.624 0-15.775 5.236-18.451 11.952-1.057 2.63-1.573 5.471-1.573 8.335 0 2.865.516 5.706 1.573 8.336 2.676 6.715 8.827 11.951 18.451 11.951 9.602 0 15.752-5.236 18.452-11.951a22.857 22.857 0 000-16.671zm-18.499-59.827c18.828 0 35.871 7.631 48.195 19.958 12.325 12.35 19.954 29.373 19.954 48.204s-7.629 35.854-19.954 48.205c-12.324 12.327-29.367 19.958-48.195 19.958-18.827 0-35.846-7.631-48.194-19.958-12.325-12.351-19.955-29.374-19.955-48.205s7.63-35.854 19.955-48.204c12.348-12.327 29.367-19.958 48.194-19.958zm46.998 21.179c-12.043-12.046-28.64-19.465-46.998-19.465-18.357 0-34.954 7.419-46.974 19.465-12.043 12.021-19.461 28.622-19.461 46.983 0 18.362 7.418 34.962 19.461 47.007 12.02 12.022 28.617 19.465 46.974 19.465 18.358 0 34.955-7.443 46.998-19.465 12.02-12.045 19.461-28.645 19.461-47.007 0-18.361-7.441-34.962-19.461-46.983zm-75.309 91.361c-2.606-.047-4.272-1.527-5-3.382a6.674 6.674 0 01-.399-2.23c.023-.775.164-1.55.469-2.231.752-1.855 2.465-3.287 5.095-3.24 2.629.023 4.296 1.503 5 3.381l.023.071c.258.68.376 1.432.376 2.16 0 .751-.164 1.526-.446 2.23-.775 1.832-2.489 3.264-5.118 3.241zm-3.427-3.992c.493 1.268 1.643 2.278 3.451 2.278 1.831.046 3.005-.94 3.521-2.184a4.14 4.14 0 00.329-1.597c0-.54-.071-1.056-.259-1.549l-.023-.071c-.493-1.244-1.643-2.254-3.451-2.277-1.831-.024-3.005.939-3.521 2.183a4.73 4.73 0 00-.329 1.597c0 .563.094 1.127.282 1.62zm33.217 12.28c-2.183 1.409-4.343 1.127-5.986-.023a6.102 6.102 0 01-1.573-1.621l-.047-.047a6.122 6.122 0 01-.821-2.042c-.423-1.973.211-4.109 2.394-5.542 2.183-1.455 4.39-1.174 6.033-.023a6.067 6.067 0 011.573 1.62c.423.634.728 1.362.892 2.09.399 1.972-.211 4.109-2.394 5.541l-.071.047zm-5.023-1.409c1.103.775 2.605.963 4.108-.023l.047-.024c1.502-.986 1.948-2.465 1.667-3.78a3.884 3.884 0 00-.634-1.503 3.85 3.85 0 00-1.127-1.174c-1.127-.775-2.629-.962-4.155.047-1.503.986-1.949 2.466-1.667 3.78.117.517.329 1.034.61 1.48l.024.023c.305.47.681.869 1.127 1.174zm35.189-9.11c-.962 2.395-2.911 3.428-4.906 3.452a6.156 6.156 0 01-2.23-.423 5.876 5.876 0 01-1.925-1.198c-1.456-1.361-2.183-3.475-1.244-5.917l.023-.047c.963-2.418 2.911-3.451 4.906-3.451.752-.024 1.503.141 2.231.399a6.386 6.386 0 011.925 1.221c1.455 1.362 2.183 3.452 1.244 5.917l-.024.047zm-4.906 1.761c1.338-.024 2.676-.728 3.333-2.395l.024-.047c.657-1.691.164-3.123-.822-4.062a4.393 4.393 0 00-1.385-.845 3.893 3.893 0 00-1.62-.306c-1.338 0-2.676.728-3.333 2.395l-.024.024c-.657 1.714-.164 3.146.822 4.062.399.376.869.681 1.385.869a4.32 4.32 0 001.62.305zm-26.739-104.486c16.738 0 31.88 6.785 42.843 17.751 10.94 10.965 17.724 26.109 17.724 42.827 0 16.742-6.784 31.886-17.724 42.851-10.963 10.942-26.105 17.728-42.843 17.728-16.714 0-31.856-6.786-42.819-17.728-10.963-10.965-17.747-26.109-17.747-42.851 0-16.718 6.784-31.862 17.747-42.827 10.963-10.966 26.105-17.751 42.819-17.751zm41.622 18.948c-10.634-10.66-25.353-17.258-41.622-17.258-16.244 0-30.964 6.598-41.621 17.258-10.658 10.66-17.255 25.382-17.255 41.63 0 16.272 6.597 30.994 17.255 41.63 10.657 10.66 25.377 17.258 41.621 17.258 16.269 0 30.988-6.598 41.622-17.258 10.658-10.636 17.255-25.358 17.255-41.63 0-16.248-6.597-30.97-17.255-41.63zm-67.82-97.701l-12.442 2.935-4.202 30.102 12.606-2.348 4.038-30.689zM268.84 297l-10.47 7.349 7.324 29.514 10.822-6.879L268.84 297zm-40.988 39.798l-6.691 10.872 18.358 24.231 7.231-10.589-18.898-24.514zm258.276 65.862l-1.808-12.656-29.626-6.833 1.245 12.774 30.189 6.715zm-16.503-53.84l-6.62-10.942-29.931 5.236 6.103 11.271 30.448-5.565zm-88.15-69.313l-12.466-2.724-16.785 25.335 12.395 3.334 16.856-25.945zm-172.92 175.138l3.991 12.139 30.33 1.62-3.404-12.374-30.917-1.385zm27.208 52.149l8.522 9.416.047.047 28.405-10.848-8.17-9.909-28.804 11.294zm44.697 35.925l11.644 5.306 21.762-21.226-11.409-5.87-21.997 21.79zm58.853 15.45l12.794-.047 10.869-28.388-12.817-.563-10.846 28.998zm60.473-10.872l11.573-5.471-2.183-30.312-11.832 4.93 2.442 30.853zm49.72-34.915l8.193-9.814-14.648-26.627-8.686 9.439 15.141 27.002zm29.485-49.402l3.639-12.256-24.039-18.62-4.225 12.116 24.625 18.76zm338.351-85.984c.775-2.489 2.629-3.663 4.601-3.851a6.684 6.684 0 012.254.235c.728.235 1.432.587 2.019 1.057 1.573 1.268 2.465 3.287 1.713 5.799l-.023.047c-.775 2.489-2.629 3.663-4.601 3.851a6.084 6.084 0 01-2.254-.235 6.14 6.14 0 01-2.019-1.056c-1.573-1.245-2.465-3.287-1.713-5.8l.023-.047zm4.742-2.16c-1.338.117-2.606.939-3.122 2.653l-.024.047c-.516 1.738.094 3.123 1.151 3.968.422.353.915.611 1.432.752.54.164 1.079.235 1.643.188 1.338-.118 2.606-.94 3.122-2.654l.024-.047c.516-1.737-.094-3.122-1.151-3.968a3.816 3.816 0 00-1.432-.751 4.387 4.387 0 00-1.643-.188zm-21.104 29.303c-.822-2.489.047-4.555 1.573-5.846a6.863 6.863 0 011.995-1.104 6.075 6.075 0 012.254-.282c1.995.118 3.896 1.268 4.695 3.781.821 2.489-.024 4.555-1.55 5.823a5.947 5.947 0 01-1.995 1.103c-.728.235-1.503.352-2.254.282-1.995-.117-3.897-1.268-4.718-3.757zm2.652-4.531c-1.033.868-1.596 2.277-1.033 3.991.564 1.738 1.855 2.536 3.217 2.63a4.243 4.243 0 001.619-.235 4.237 4.237 0 001.432-.775c1.033-.868 1.597-2.277 1.033-4.015-.563-1.737-1.854-2.512-3.216-2.606-.54-.047-1.103.047-1.62.211a4.318 4.318 0 00-1.432.799zm-.352 36.464c-2.113-1.55-2.606-3.733-2.113-5.659.188-.727.54-1.432.986-2.042a5.834 5.834 0 011.667-1.55c1.69-1.057 3.921-1.221 6.033.329 2.113 1.573 2.606 3.733 2.113 5.658a6.459 6.459 0 01-.986 2.067 6.517 6.517 0 01-1.667 1.549c-1.713 1.033-3.92 1.198-6.033-.352zm-.469-5.236c-.352 1.315 0 2.794 1.455 3.874 1.479 1.08 3.005.986 4.155.259a4.463 4.463 0 001.198-1.104c.328-.446.563-.939.704-1.479.329-1.292-.024-2.794-1.479-3.851-1.456-1.104-2.981-.986-4.132-.282-.469.282-.868.681-1.197 1.104a4.503 4.503 0 00-.704 1.479zm99.794.657c.704 2.536-.259 4.532-1.855 5.73a6.16 6.16 0 01-2.042 1.009 6.194 6.194 0 01-2.277.165c-1.972-.212-3.803-1.456-4.508-3.992-.681-2.536.258-4.555 1.855-5.753a6.096 6.096 0 012.042-.986 5.781 5.781 0 012.277-.188c1.972.235 3.827 1.48 4.508 4.015zm-2.864 4.391c1.079-.822 1.713-2.207 1.244-3.944-.493-1.761-1.737-2.63-3.099-2.771a4.218 4.218 0 00-1.62.117c-.516.141-1.033.4-1.455.728-1.08.799-1.737 2.184-1.244 3.945.469 1.761 1.713 2.606 3.075 2.771.54.07 1.103 0 1.62-.141a4.515 4.515 0 001.479-.705zm1.291-38.883c2.112 1.573 2.605 3.734 2.112 5.682a6.57 6.57 0 01-.985 2.043c-.47.611-1.033 1.151-1.691 1.55-1.69 1.033-3.897 1.197-6.009-.352-2.113-1.573-2.606-3.734-2.113-5.659.188-.751.54-1.456.986-2.066a6.408 6.408 0 011.667-1.526c1.713-1.057 3.92-1.221 6.033.328zm.469 5.236c.352-1.291 0-2.794-1.479-3.874-1.455-1.08-2.981-.963-4.131-.258a4.459 4.459 0 00-1.198 1.103c-.328.447-.563.94-.704 1.48-.352 1.315 0 2.794 1.479 3.874 1.456 1.08 2.958.986 4.132.258a4.455 4.455 0 001.197-1.103c.329-.447.563-.94.704-1.48zm-54.017-38.155c2.113-1.573 4.32-1.432 6.034-.399a6.16 6.16 0 011.666 1.55c.47.61.798 1.291 1.01 2.042.516 1.926.047 4.086-2.066 5.659-2.113 1.573-4.32 1.432-6.033.399a6.162 6.162 0 01-1.667-1.549 5.62 5.62 0 01-1.009-2.02c-.517-1.948-.024-4.109 2.065-5.682zm5.141 1.057c-1.15-.705-2.676-.799-4.131.282-1.456 1.103-1.784 2.582-1.432 3.897.141.517.375 1.033.704 1.456.329.446.751.822 1.221 1.104 1.15.704 2.676.798 4.131-.282 1.456-1.104 1.785-2.583 1.432-3.898a4.179 4.179 0 00-.704-1.456 4.202 4.202 0 00-1.221-1.103zm27.232 6.621c2.629 0 4.319 1.456 5.071 3.311v.047a5.84 5.84 0 01.422 2.183c0 .752-.141 1.527-.422 2.231-.752 1.855-2.442 3.311-5.071 3.311-2.606 0-4.296-1.456-5.047-3.311l-.024-.047a6.414 6.414 0 01-.399-2.184c0-.751.141-1.526.423-2.23.751-1.855 2.441-3.311 5.047-3.311zm3.498 3.945c-.517-1.268-1.667-2.254-3.498-2.254-1.808 0-2.981.986-3.474 2.254a4.017 4.017 0 00-.306 1.596c0 .541.094 1.081.282 1.574l.024.023c.493 1.268 1.666 2.254 3.474 2.254 1.831 0 2.981-.986 3.498-2.254a4.474 4.474 0 00.281-1.597c0-.54-.093-1.08-.281-1.573v-.023zm-31.199 2.559c18.123 0 29.72 9.932 34.814 22.635 1.948 4.931 2.934 10.284 2.934 15.614s-.986 10.684-2.934 15.614c-5.094 12.703-16.691 22.635-34.814 22.635s-29.743-9.932-34.814-22.635c-1.972-4.93-2.958-10.284-2.958-15.614s.986-10.683 2.958-15.614c5.071-12.703 16.668-22.635 34.814-22.635zm33.241 23.269c-4.859-12.116-15.94-21.578-33.241-21.578-17.325 0-28.405 9.462-33.265 21.578-1.878 4.719-2.817 9.838-2.817 14.98 0 5.142.939 10.261 2.817 14.98 4.86 12.116 15.94 21.579 33.265 21.579 17.301 0 28.382-9.463 33.241-21.579 1.878-4.719 2.817-9.838 2.817-14.98 0-5.142-.939-10.261-2.817-14.98zm-33.241-6.997c10.4 0 17.09 5.706 20.001 13.008 1.15 2.841 1.714 5.917 1.714 8.969 0 3.076-.564 6.129-1.714 8.97-2.911 7.302-9.601 13.031-20.001 13.031-10.423 0-17.114-5.729-20.025-13.031-1.15-2.841-1.713-5.894-1.713-8.97 0-3.052.563-6.128 1.713-8.969 2.911-7.302 9.602-13.008 20.025-13.008zm18.452 13.642c-2.7-6.716-8.851-11.952-18.452-11.952-9.625 0-15.775 5.236-18.475 11.952-1.033 2.63-1.55 5.471-1.55 8.335 0 2.865.517 5.706 1.55 8.336 2.7 6.715 8.85 11.951 18.475 11.951 9.601 0 15.752-5.236 18.452-11.951a22.856 22.856 0 001.572-8.336c0-2.864-.539-5.705-1.572-8.335zm-18.499-59.827c18.827 0 35.847 7.631 48.195 19.958 12.325 12.35 19.954 29.373 19.954 48.204s-7.629 35.854-19.954 48.205c-12.348 12.327-29.368 19.958-48.195 19.958s-35.847-7.631-48.195-19.958c-12.324-12.351-19.954-29.374-19.954-48.205s7.63-35.854 19.954-48.204c12.348-12.327 29.368-19.958 48.195-19.958zm46.974 21.179c-12.019-12.046-28.616-19.465-46.974-19.465-18.358 0-34.955 7.419-46.998 19.465-12.019 12.021-19.461 28.622-19.461 46.983 0 18.362 7.442 34.962 19.461 47.007 12.043 12.022 28.64 19.465 46.998 19.465 18.358 0 34.955-7.443 46.974-19.465 12.043-12.045 19.485-28.645 19.485-47.007 0-18.361-7.442-34.962-19.485-46.983zm-75.285 91.361c-2.606-.047-4.273-1.527-5.001-3.382a6.144 6.144 0 01-.399-2.23c.024-.775.165-1.55.47-2.231.751-1.855 2.465-3.287 5.094-3.24 2.629.023 4.296 1.503 5 3.381l.024.071c.258.68.375 1.432.375 2.16a6.6 6.6 0 01-.446 2.23c-.774 1.832-2.488 3.264-5.117 3.241zm-3.428-3.992c.493 1.268 1.644 2.278 3.451 2.278 1.831.046 3.005-.94 3.522-2.184a4.14 4.14 0 00.328-1.597c0-.54-.07-1.056-.258-1.549l-.024-.071c-.493-1.244-1.643-2.254-3.45-2.277-1.831-.024-3.005.939-3.522 2.183a4.728 4.728 0 00-.328 1.597c0 .563.094 1.127.281 1.62zm33.218 12.28c-2.183 1.409-4.366 1.127-5.986-.023a6.071 6.071 0 01-1.573-1.621l-.047-.047a6.71 6.71 0 01-.845-2.042c-.399-1.973.211-4.109 2.418-5.542 2.183-1.455 4.39-1.174 6.033-.023.61.423 1.15.986 1.573 1.62.422.634.728 1.362.892 2.09.399 1.972-.211 4.109-2.418 5.541l-.047.047zm-5.024-1.409c1.104.775 2.606.963 4.108-.023l.047-.024c1.503-.986 1.949-2.465 1.667-3.78a4.268 4.268 0 00-.634-1.503 3.827 3.827 0 00-1.127-1.174c-1.126-.775-2.629-.962-4.155.047-1.502.986-1.948 2.466-1.666 3.78.117.517.305 1.034.61 1.48l.023.023c.306.47.681.869 1.127 1.174zm35.19-9.11c-.963 2.395-2.911 3.428-4.907 3.452a6.066 6.066 0 01-2.23-.423 5.886 5.886 0 01-1.925-1.198c-1.455-1.361-2.206-3.475-1.244-5.917l.024-.047c.962-2.418 2.911-3.451 4.882-3.451.775-.024 1.526.141 2.231.399a6.21 6.21 0 011.948 1.221c1.456 1.362 2.183 3.452 1.244 5.917l-.023.047zm-4.907 1.761c1.339-.024 2.677-.728 3.334-2.395v-.047c.681-1.691.188-3.123-.798-4.062a4.679 4.679 0 00-1.385-.845 3.896 3.896 0 00-1.62-.306c-1.338 0-2.676.728-3.334 2.395l-.023.024c-.657 1.714-.164 3.146.822 4.062.399.376.868.681 1.385.869.516.211 1.08.305 1.619.305zm-26.738-104.486c16.738 0 31.88 6.785 42.819 17.751 10.963 10.965 17.747 26.109 17.747 42.827 0 16.742-6.784 31.886-17.747 42.851-10.939 10.942-26.081 17.728-42.819 17.728-16.714 0-31.88-6.786-42.819-17.728-10.963-10.965-17.747-26.109-17.747-42.851 0-16.718 6.784-31.862 17.747-42.827 10.939-10.966 26.105-17.751 42.819-17.751zm41.622 18.948c-10.634-10.66-25.354-17.258-41.622-17.258-16.245 0-30.987 6.598-41.622 17.258-10.658 10.66-17.254 25.382-17.254 41.63 0 16.272 6.596 30.994 17.254 41.63 10.635 10.66 25.377 17.258 41.622 17.258 16.268 0 30.988-6.598 41.622-17.258 10.658-10.636 17.254-25.358 17.254-41.63 0-16.248-6.596-30.97-17.254-41.63zm-67.82-97.701l-12.442 2.935-4.203 30.102 12.607-2.348 4.038-30.689zm1.76-.352l-4.202 31.863a.847.847 0 01-.681.728l-14.32 2.676c-.117 0-.211.024-.328 0a.856.856 0 01-.728-.939l4.296-30.571a139.944 139.944 0 00-34.345 15.45l7.959 31.041c.14.375 0 .774-.329.986l-12.348 7.842a.858.858 0 01-.258.117.857.857 0 01-1.033-.61l-7.395-29.937a146.33 146.33 0 00-12.09 10.801 142.567 142.567 0 00-15.963 19.042l19.578 25.429a.843.843 0 01.047 1.01l-8.216 12.045a.97.97 0 01-.211.235c-.376.281-.916.188-1.198-.165L727.29 349.29a140.424 140.424 0 00-15.188 44.894l28.71 14.322c.329.165.54.517.493.893l-2.159 14.417a.65.65 0 01-.071.305c-.235.422-.728.587-1.15.375l-27.443-13.97c-.07 1.996-.117 3.991-.117 5.987 0 12.586 1.643 24.795 4.718 36.418l32.115 1.432c.352.024.68.258.774.634l3.897 14.041a.675.675 0 01.024.305c0 .47-.399.822-.869.799l-30.823-1.62c5.282 13.407 12.583 25.828 21.48 36.887l29.884-11.717c.352-.117.728-.047.963.259l9.249 11.246c.094.071.141.165.188.282a.833.833 0 01-.493 1.08l-28.781 11.012a142.765 142.765 0 0033.217 24.349l22.842-22.634a.848.848 0 01.963-.141l13.005 6.691a.842.842 0 01.235.165c.328.329.305.869-.024 1.197l-22.09 21.532a141.05 141.05 0 0043.758 9.368l11.221-30.054c.094-.353.446-.587.822-.587l14.578.634a.465.465 0 01.305.047.833.833 0 01.493 1.08l-11.01 28.81a140.524 140.524 0 0044.181-10.026l-2.535-32.027c-.047-.376.164-.705.516-.869l13.451-5.588c.094-.047.188-.071.306-.094a.879.879 0 01.915.798l2.183 30.759a141.565 141.565 0 0032.326-24.208 125.385 125.385 0 002.981-3.099l-15.705-27.988a.813.813 0 01.118-.987l9.883-10.73a.666.666 0 01.234-.211.86.86 0 011.151.352l14.86 27.002a141.67 141.67 0 0019.602-36.441l-25.589-19.465c-.281-.211-.399-.611-.281-.963l4.812-13.783a.57.57 0 01.141-.258.857.857 0 011.197-.164l24.368 18.901a141.884 141.884 0 003.732-32.426c0-4.062-.164-8.1-.493-12.092l-31.339-6.974a.848.848 0 01-.681-.728l-1.385-14.534a.653.653 0 010-.305.867.867 0 011.009-.634l30.072 6.95a140.886 140.886 0 00-13.522-37.803l-31.55 5.776a.883.883 0 01-.939-.422l-6.949-12.844c-.047-.094-.094-.188-.094-.282a.823.823 0 01.681-.986c10.094-1.761 20.329-3.381 30.377-5.283a144.28 144.28 0 00-16.691-20.099 150.026 150.026 0 00-12.419-11.035l-26.527 18.103a.884.884 0 01-1.009-.047l-11.574-8.923c-.07-.07-.117-.141-.164-.211a.857.857 0 01.211-1.174l25.635-17.164a141.842 141.842 0 00-36.245-15.872l-17.49 26.908c-.187.328-.563.493-.962.399l-14.109-3.78a.873.873 0 01-.258-.118c-.399-.258-.493-.775-.235-1.174l17.02-25.71a142.799 142.799 0 00-22.114-1.715c-8.334 0-16.503.728-24.438 2.09zM775.884 297l-10.47 7.349 7.301 29.514 10.846-6.879L775.884 297zm-64.064 99.062l-1.221 12.139-.023.47 27.067 13.783 1.878-12.703-27.677-13.806-.024.117zm23.076-59.264l-6.69 10.872 18.358 24.231 7.23-10.589-18.898-24.514zm258.277 65.862l-1.808-12.656-29.626-6.833 1.221 12.774 30.213 6.715zm-16.527-53.84l-6.597-10.942-29.931 5.236 6.104 11.271 30.424-5.565zm-38.124-44.682l-10.47-7.326-25.26 16.905 10.165 7.843 25.565-17.422zm-50.003-24.631l-12.489-2.724-16.761 25.335 12.395 3.334 16.855-25.945zM715.576 454.645l3.991 12.139 30.354 1.62-3.428-12.374-30.917-1.385zm27.232 52.149l8.521 9.416.047.047 28.405-10.848-8.169-9.909-28.804 11.294zm44.697 35.925l11.644 5.306 21.761-21.226-11.409-5.87-21.996 21.79zm58.853 15.45l12.794-.047 10.869-28.388-12.841-.563-10.822 28.998zm60.472-10.872l11.55-5.471-2.16-30.312-11.831 4.93 2.441 30.853zm49.721-34.915l8.193-9.814-14.649-26.627-8.686 9.439 15.142 27.002z" fill="#000"/></svg>