<svg width="80" height="80" fill="none" xmlns="http://www.w3.org/2000/svg"><path fill="#F7B827" d="M0 0h80v80H0z"/><path d="M62.07 63.581H65l-.008-41.215h-2.93v2.93h-4.46V16.42h-4.418v4.96h-2.93v-4.96h-4.418v8.88h-4.371v-2.933h-2.93V25.3H34.16v-8.88h-4.418v4.96h-2.93v-4.96h-4.418v8.883l-4.464.001v-2.937H15v41.215h2.93v-2.93h20.605v2.93h2.93v-2.93H62.07v2.93zm-.007-35.355l.003 13.28h-4.464v-8.879h-4.418v4.962h-2.93v-4.962h-4.418v8.88l-4.371.002v-13.28l20.598-.003zm-23.528.004v13.279H34.16v-8.882h-4.418v4.962h-2.93v-4.962h-4.418v8.884l-4.464.001v-13.28l20.605-.002zM34.16 57.722v-8.885h-4.418v4.96h-2.93v-4.96h-4.418v8.885H17.93v-13.28l20.605-.003v13.283H34.16zm23.442 0v-8.885h-4.418v4.96h-2.93v-4.96h-4.418v8.885h-4.371V44.438l20.602-.003.002 13.287h-4.467z" fill="#000"/></svg>