<svg width="80" height="80" fill="none" xmlns="http://www.w3.org/2000/svg"><path fill="#F7B827" d="M0 0h80v80H0z"/><g clip-path="url(#clip0_45_1340)"><path d="M52.22 65c-3.808 0-8.48-1.754-13.627-5.209-10.407-6.983-22.586-21.315-23.53-31-.302-3.096.475-5.596 2.31-7.43L23.732 15l12.954 12.953-1.036 1.036c-1.652 1.652-4.36 4.354-6.295 6.277 1.78 2.615 5.218 6.48 7.754 9.016 2.401 2.398 5.179 4.582 7.683 6.254 1.803-1.815 4.231-4.25 6.216-6.24l1.038-1.037L65 56.215 58.716 62.5c-1.673 1.672-3.88 2.5-6.496 2.5z" fill="#000"/></g><defs><clipPath id="clip0_45_1340"><path fill="#fff" transform="translate(15 15)" d="M0 0h50v50H0z"/></clipPath></defs></svg>