<svg width="100" height="100" fill="none" xmlns="http://www.w3.org/2000/svg"><g clip-path="url(#clip0_132_1236)"><mask id="a" style="mask-type:luminance" maskUnits="userSpaceOnUse" x="2" y="0" width="352" height="100"><path d="M353.22 0H2v100h351.22V0z" fill="#fff"/></mask><g mask="url(#a)"><path d="M3.05 1.055L4.1 58.889l45.334 38.996 45.219-38.901 1.05-57.93H3.05z" fill="#222"/><path d="M2 0v59.947L49.434 100l47.319-39.958V0H2zm90.028 57.813L56.783 87.575l-7.349 6.202-7.35-6.202L6.84 57.813v-53.1h85.188v53.1z" fill="#F7B827"/><path d="M57.277 14.238v59.166l-7.79 8.05-7.801-8.05v-6.34c2.887-1.056 6.173-2.24 6.173-2.493v-4.796h-6.215v-9.066c2.887-1.056 6.173-2.24 6.173-2.482v-4.86h-6.173V34.28c2.887-1.057 6.173-2.24 6.173-2.494V26.97h-6.173V14.29l15.633-.053zm-19.424 0H16.268v16.313l21.585-16.313zm23.112 0H82.55v16.313L60.965 14.238z" fill="#F7B827"/><path opacity=".3" d="M57.277 24.473v7.279l-15.633 6.9v-4.364c2.887-1.057 6.173-2.24 6.173-2.494v-3.17l9.46-4.151z" fill="#222"/><path d="M62.344 26.8L36.58 38.18v-7.27l25.764-11.379v7.27z" fill="#F7B827"/><path opacity=".3" d="M57.277 40.86v7.279l-15.633 6.899v-4.332c2.887-1.056 6.173-2.24 6.173-2.483v-3.17l9.46-4.194z" fill="#222"/><path d="M62.344 43.197L36.58 54.578v-7.28l25.764-11.379v7.28z" fill="#F7B827"/><path opacity=".3" d="M57.277 57.266v7.268l-15.633 6.9V67.08c2.887-1.057 6.173-2.24 6.173-2.494v-3.17l9.46-4.151z" fill="#222"/><path d="M62.344 59.593L36.58 70.972v-7.28l25.764-11.368v7.269z" fill="#F7B827"/></g></g><defs><clipPath id="clip0_132_1236"><path fill="#fff" transform="translate(2)" d="M0 0h95v100H0z"/></clipPath></defs></svg>