<svg width="24" height="24" fill="none" xmlns="http://www.w3.org/2000/svg"><g clip-path="url(#clip0_1_332)" fill="#F7B726"><path d="M16.286 13.252h-1.125A.75.75 0 0114.625 12l.799-.799a.556.556 0 000-.795L13.598 8.58a.56.56 0 00-.796 0L12 9.375a.727.727 0 01-.806.131.716.716 0 01-.458-.652V7.729a.562.562 0 00-.562-.563H7.6a.563.563 0 00-.562.563v1.125a.75.75 0 01-1.264.521l-.799-.799a.581.581 0 00-.795 0l-1.826 1.819a.56.56 0 000 .795l.799.81a.727.727 0 01.139.787.72.72 0 01-.668.465H1.5a.562.562 0 00-.563.563v2.584a.563.563 0 00.563.562h1.125a.75.75 0 01.525 1.264l-.795.799a.56.56 0 000 .795l1.826 1.826a.559.559 0 00.795 0l.799-.799a.75.75 0 01.806-.131.72.72 0 01.458.66V22.5a.562.562 0 00.562.563h2.584a.562.562 0 00.563-.563v-1.125A.75.75 0 0112 20.846l.799.799a.559.559 0 00.795 0l1.826-1.826a.562.562 0 000-.795l-.795-.799a.727.727 0 01-.131-.806.715.715 0 01.652-.458h1.125a.563.563 0 00.563-.562v-2.584a.562.562 0 00-.548-.563zm-7.395 5.434a3.581 3.581 0 110-7.162 3.581 3.581 0 010 7.162zM15.11 5.314a3.57 3.57 0 00-2.359.896.563.563 0 10.75.84 2.456 2.456 0 013.45 3.45.566.566 0 00.045.795.566.566 0 00.795-.045 3.581 3.581 0 00-2.681-5.951v.015z"/><path d="M22.5 7.039h-1.125a.713.713 0 01-.652-.454v-.034a.72.72 0 01.142-.776l.799-.799a.563.563 0 000-.795l-1.845-1.826a.581.581 0 00-.795 0l-.799.799a.72.72 0 01-.776.142h-.034a.712.712 0 01-.454-.671V1.5A.563.563 0 0016.4.937h-2.584a.562.562 0 00-.563.563v1.125a.712.712 0 01-.453.652h-.038A.716.716 0 0112 3.154l-.81-.799a.581.581 0 00-.795 0L8.569 4.181a.559.559 0 000 .795l.806.799a.563.563 0 00.795-.795l-.42-.401 1.031-1.031.401.4a1.845 1.845 0 002.014.376h.03a1.827 1.827 0 001.125-1.688v-.574h1.459v.563a1.83 1.83 0 001.125 1.684l.041.018a1.845 1.845 0 002.014-.374l.401-.402 1.032 1.031-.402.402a1.842 1.842 0 00-.375 2.013v.042a1.83 1.83 0 001.684 1.125h.608v1.459h-.563a1.826 1.826 0 00-1.688 1.125v.03a1.846 1.846 0 00.375 2.013l.402.402-1.043 1.057-.401-.412a.56.56 0 00-.962.148.562.562 0 00.167.639l.799.799a.562.562 0 00.795 0l1.826-1.826a.562.562 0 000-.796L20.846 12a.716.716 0 01-.142-.75.39.39 0 000-.037.712.712 0 01.671-.465H22.5a.563.563 0 00.563-.563V7.601a.562.562 0 00-.563-.562z"/></g><defs><clipPath id="clip0_1_332"><path fill="#fff" d="M0 0h24v24H0z"/></clipPath></defs></svg>