<svg width="24" height="24" fill="none" xmlns="http://www.w3.org/2000/svg"><g clip-path="url(#clip0_1_340)" fill="#F7B726"><path d="M5.982 13a.963.963 0 00.962-.963V.963a.963.963 0 10-1.925 0v11.074a.963.963 0 00.963.963zm18.055 1.55a2.33 2.33 0 01-.156.098l-10.805 6.187a2.167 2.167 0 01-2.153 0L.12 14.648a2.28 2.28 0 01-.156-.098v1.855a1.204 1.204 0 00.592 1.037l10.834 6.391a1.203 1.203 0 001.222 0l10.834-6.391a1.204 1.204 0 00.592-1.037V14.55z"/><path d="M12.963 15.407a.963.963 0 01-1.926 0V.963a.963.963 0 111.926 0v14.444zM17.778 13a.963.963 0 00.963-.963V.963a.963.963 0 10-1.926 0v11.074a.963.963 0 00.963.963z"/><path d="M7.907 12.037a1.926 1.926 0 01-3.851 0V9.774L.605 11.719a1.204 1.204 0 00-.007 2.093L11.402 20a1.205 1.205 0 001.196 0l10.804-6.188a1.204 1.204 0 00-.007-2.093l-3.692-2.08v2.398a1.926 1.926 0 11-3.851 0v-4.57l-1.926-1.085v9.025a1.926 1.926 0 01-3.852 0V6.382L7.907 7.603v4.434z"/></g><defs><clipPath id="clip0_1_340"><path fill="#fff" d="M0 0h24v24H0z"/></clipPath></defs></svg>