<svg width="24" height="24" fill="none" xmlns="http://www.w3.org/2000/svg"><g clip-path="url(#clip0_1_337)"><path d="M1.96 4a.406.406 0 00-.255.125.38.38 0 00-.104.26v1.547c0 .213.181.386.402.384H12.4c.105 0 .206-.04.28-.113a.38.38 0 00.119-.27v-1.55a.38.38 0 00-.118-.271A.408.408 0 0012.4 4H1.96zm.44 3.089V12.5h4.002c.511 0 .972.321 1.136.789l.529 1.53H14.4c1.23 0 2.295.624 2.944 1.542H18.4V12.5c0-1.063-.898-1.935-1.998-1.935h-2.906l-1.354-3.476H2.4zm2.401.773h2.401v3.091h-2.4V7.862zm3.2 0h1.953l1.245 3.541v1.87H8.69l-.686-1.995-.001-3.416zm5.195 4.244a.391.391 0 01.404.394v1.158c.012.526-.81.526-.8 0V12.5a.375.375 0 01.113-.277.4.4 0 01.283-.117zm1.601 0a.392.392 0 01.404.394v1.158c0 .516-.801.516-.801 0V12.5a.375.375 0 01.113-.277.401.401 0 01.284-.117zm1.597 0a.394.394 0 01.408.394v1.158c-.012.503-.79.503-.801 0V12.5a.376.376 0 01.112-.276.401.401 0 01.28-.118zM2.002 13.273a1.228 1.228 0 00-.847.34c-.225.217-.352.51-.354.818v.98a3.67 3.67 0 012.002-.592h4.42l-.443-1.285a.389.389 0 00-.145-.19.41.41 0 00-.233-.071h-4.4zm17.2 1.158v3.866c0 1.49 1.255 2.703 2.799 2.703h1.6c.072 0 .142-.02.203-.054a.393.393 0 00.146-.145.377.377 0 00-.01-.391l-4-6.185a.42.42 0 00-.355-.18.41.41 0 00-.27.12.383.383 0 00-.112.266zm-16.4 1.16C1.259 15.592 0 16.805 0 18.298 0 19.787 1.258 21 2.803 21H14.4c1.544 0 2.799-1.212 2.799-2.703 0-1.493-1.255-2.705-2.799-2.705H2.803zm.4 1.543c.318.002.623.125.848.343.225.218.352.512.354.82 0 .635-.544 1.156-1.202 1.156a1.225 1.225 0 01-.846-.34 1.143 1.143 0 01-.353-.816c0-.637.541-1.163 1.199-1.163zm3.598 0c.318.002.623.125.848.343.225.218.352.512.354.82 0 .635-.544 1.156-1.2 1.156-.318 0-.623-.122-.847-.34a1.143 1.143 0 01-.354-.816c0-.637.54-1.163 1.199-1.163zm3.603 0c.659 0 1.198.526 1.198 1.163-.001.306-.128.6-.353.816a1.226 1.226 0 01-1.691 0 1.146 1.146 0 01-.355-.816c.002-.308.129-.602.353-.82.225-.217.53-.34.848-.343zm3.6 0c.657 0 1.198.526 1.198 1.163-.002.306-.129.6-.353.816a1.225 1.225 0 01-1.693 0 1.146 1.146 0 01-.355-.816c.002-.308.129-.602.354-.82a1.23 1.23 0 01.848-.343zm3.785 0a3.284 3.284 0 010 2.32h.887a2.61 2.61 0 01-.272-1.157v-1.163h-.615z" fill="#F7B726"/></g><defs><clipPath id="clip0_1_337"><path fill="#fff" d="M0 0h24v24H0z"/></clipPath></defs></svg>