<svg width="141" height="40" fill="none" xmlns="http://www.w3.org/2000/svg"><g clip-path="url(#clip0_231_761)"><mask id="a" style="mask-type:luminance" maskUnits="userSpaceOnUse" x="0" y="0" width="141" height="40"><path d="M140.488 0H0v40h140.488V0z" fill="#fff"/></mask><g mask="url(#a)"><path d="M.42.422l.42 23.133 18.134 15.599 18.087-15.56.42-23.172H.42z" fill="#222"/><path d="M0 0v23.979L18.974 40 37.9 24.017V0H0zm36.011 23.125L21.913 35.03l-2.94 2.48-2.94-2.48L1.937 23.125V1.885h34.075v21.24z" fill="#F7B827"/><path d="M22.11 5.695v23.666l-3.116 3.22-3.12-3.22v-2.535c1.155-.423 2.47-.896 2.47-.998V23.91h-2.487v-3.626c1.155-.423 2.47-.896 2.47-.993v-1.944h-2.47v-3.635c1.155-.422 2.47-.896 2.47-.997v-1.927h-2.47V5.716l6.254-.02z" fill="#F7B827"/><path d="M56.416 16.06V8.474h-5.002V5.516h13.54v2.958h-5.002v7.586h-3.536zm10.232.002V5.539h8.526c3.09 0 4.46 1.314 4.46 3.804 0 2.489-1.353 3.76-4.46 3.76h-4.985v2.959h-3.54zm3.54-5.646h5.737V8.244H70.19v2.172zm11.539 5.646V5.539h12.078v2.785H85.25v1.399h6.173v2.168H85.25v1.382h8.82v2.789H81.726zm14.863-.005V5.534h3.46v8.03h.109l4.263-8.03h5.396v10.523h-3.443v-8.03h-.126l-4.242 8.03H96.59zm3.09-12.086V2.5h7.081v1.47h-7.08zm25.681 9.302h2.016v5.747h-3.229v-2.958h-9.542v2.958h-3.229v-5.747h2.033l3.359-7.734h5.308l3.284 7.734zm-6.03-5.24l-2.201 5.24h4.431l-2.138-5.24h-.092zM51.414 32.508V21.977h5.51l2.352 5.62h.092l2.448-5.62h5.401v10.522h-3.54V24.47h-.093l-2.6 5.959h-3.451l-2.478-5.959h-.092v8.03l-3.549.008zM78.68 21.977l4.892 10.455v.076h-3.864l-.89-2.024h-5.46l-.89 2.024h-3.741v-.076l4.892-10.455h5.06zm-4.2 6.098h3.292l-1.6-3.622h-.092l-1.6 3.622zm9.512-.833c0-3.977 1.646-5.523 6.228-5.523 1.68 0 4.158.076 6.3.262l.109 3.127c-1.773-.216-3.448-.422-5.355-.54a88.8 88.8 0 00-3.401-.187v5.727c1.293-.047 2.46-.11 3.401-.186 2.029-.157 3.708-.326 5.43-.541l-.113 3.123c-2.062.186-4.62.266-6.37.266-4.6 0-6.229-1.551-6.229-5.528zm18.385 5.266v-7.573h-5.002v-2.958h13.539v2.958h-5.001v7.573h-3.536zm10.23 0V21.977h12.078v2.789h-8.537v1.39h6.169v2.16h-6.169v1.39h8.798v2.785l-12.339.017zm14.879 0V21.977h8.538c3.095 0 4.464 1.318 4.464 3.803s-1.369 3.803-4.464 3.803h-4.997v2.959l-3.541-.034zm3.541-5.646h5.736v-2.168h-5.736v2.168z" fill="#000"/><path d="M14.341 5.695H5.707v6.525l8.634-6.525zm9.245 0h8.634v6.525l-8.634-6.525z" fill="#F7B827"/><path opacity=".3" d="M22.11 9.79v2.91l-6.253 2.76v-1.745c1.155-.422 2.47-.896 2.47-.997V11.45l3.784-1.66z" fill="#222"/><path d="M24.138 10.72l-10.306 4.552v-2.908l10.306-4.552v2.908z" fill="#F7B827"/><path opacity=".3" d="M22.11 16.344v2.912l-6.253 2.76v-1.733c1.155-.423 2.47-.896 2.47-.994v-1.268l3.784-1.677z" fill="#222"/><path d="M24.138 17.279l-10.306 4.552v-2.912l10.306-4.552v2.912z" fill="#F7B827"/><path opacity=".3" d="M22.11 22.906v2.908l-6.253 2.76v-1.742c1.155-.422 2.47-.896 2.47-.997v-1.268l3.784-1.66z" fill="#222"/><path d="M24.138 23.837L13.832 28.39v-2.912l10.306-4.547v2.907z" fill="#F7B827"/></g></g><defs><clipPath id="clip0_231_761"><path fill="#fff" d="M0 0h141v40H0z"/></clipPath></defs></svg>