<svg width="119" height="52" fill="none" xmlns="http://www.w3.org/2000/svg"><g fill="#fff"><path d="M36.367 29.306L31 20.61h-1.364l4.927 8.696-10.075 9.59h1.848l10.031-9.59zm.836-.813L32.54 20.61h5.895l1.848 2.926 3.036-2.926h2.111l-8.227 7.883zm-8.887 10.402l8.58-8.37 5.103 8.37h-1.716l-2.156-3.291-3.256 3.291h-6.555zM46.882 20.61l-8.74 8.696 5.177 9.59h5.235c-1.745-1.45-5.58-5.447-4.795-9.59.792-4.186 5.22-7.545 7.611-8.696h-4.488z"/><path d="M62.897 26.461l2.2-5.526c-1.54-.51-3.17-1.04-7.567-.917-3.155.09-7.119 1.97-9.548 4.858-2.008 2.389-3.087 5.109-2.111 7.72 1.724 4.617 5.015 6.3 7.39 6.3h4.972l2.112-5.568c-5.631 1.26-8.051-2.803-5.5-5.77 2.042-2.372 6.219-1.72 8.052-1.097zm-2.552 12.434l7.04-18.285h6.511l1.54 9.224 5.28-9.224h6.379l-.435 6.948c1.315-4.694 6.507-7.842 12.71-7.517 4.963.26 7.553 3.088 8.227 4.47l-5.983 2.6c-.235-.555-1.303-1.69-3.696-1.787-2.393-.098-3.549 2.018-3.828 3.088-.249 1.625-.299 4.666 2.376 5.381 2.675.715 4.063-.636 4.356-1.503h-3.564l.66-3.878h10.515c.352 2.98-.794 9.693-9.019 10.483-9.063.871-12.319-3.882-13.003-7.354l-.46 7.354h-5.983v-7.76l-4.532 7.76H71.08l-1.012-7.76-2.683 7.76h-7.04z"/><path fill-rule="evenodd" clip-rule="evenodd" d="M22.945 22.195a2 2 0 00-2-2H5.49a2 2 0 00-2 2v15.038a2 2 0 002 2h15.456a2 2 0 002-2V22.195zm-13.875.383h8.335l3.837 6.639a1 1 0 010 1l-3.837 6.639h-4.219l6.212-10.637H7.078l6.088 10.637H9.07l-3.874-6.635a1 1 0 010-1.008l3.874-6.635z"/><path d="M6.931 15.11c1.771 0 3.058-1.254 3.058-2.97 0-1.705-1.287-2.97-3.058-2.97-1.76 0-3.058 1.265-3.058 2.97 0 1.716 1.298 2.97 3.058 2.97zm0-1.133c-1.045 0-1.837-.792-1.837-1.837 0-1.056.792-1.837 1.837-1.837 1.056 0 1.837.781 1.837 1.837 0 1.045-.78 1.837-1.837 1.837zm10.219-1.848c0-1.65-1.177-2.86-2.904-2.926V6.75h-1.177v2.453c-1.705.066-2.882 1.309-2.882 2.926 0 1.628 1.177 2.893 2.882 2.959v2.442h1.177v-2.442c1.727-.066 2.904-1.287 2.904-2.959zm-5.808 0c0-1.045.693-1.826 1.727-1.892v3.795c-1.034-.077-1.727-.869-1.727-1.903zm2.904-1.892c1.056.066 1.749.869 1.749 1.892 0 1.056-.693 1.837-1.749 1.903v-3.795zm4.617 3.014v-3.96H17.62V15h1.155l3.102-3.894V15h1.243V9.291h-1.144l-3.113 3.96zm10.407-3.96h-1.243v4.587h-2.794V9.291H23.99V15h4.873v1.232h1.144v-2.398h-.737V9.291zm2.323 3.96v-3.96H30.35V15h1.155l3.102-3.894V15h1.243V9.291h-1.144l-3.113 3.96zm9.824-2.871v-.044c-.44-.748-1.232-1.166-2.09-1.166-1.76 0-2.87 1.265-2.87 2.959 0 1.65 1.066 2.981 2.804 2.981 1.045 0 1.837-.495 2.156-1.276V15h1.265V9.291h-1.067l-.198 1.089zm-1.837 3.597c-1.078 0-1.847-.759-1.847-1.837 0-1.067.77-1.826 1.848-1.826 1.066 0 1.825.792 1.825 1.826 0 1.045-.758 1.837-1.825 1.837zm3.544 1.056c1.199.022 2.134-.693 2.134-2.277v-2.343h2.167V15h1.243V9.291h-4.631v3.443c0 .913-.462 1.155-.902 1.177l-.011 1.122zm7.645-3.971V9.291h-1.243V15h2.684c1.342 0 2.255-.737 2.255-1.969 0-1.221-.913-1.969-2.255-1.969h-1.441zm0 2.871v-1.815h1.298c.693 0 1.155.319 1.155.913 0 .594-.462.902-1.155.902h-1.298zm8.2-2.299h-2.871V9.291h-1.243V15h1.243v-2.277h2.87V15h1.244V9.291h-1.243v2.343zm3.36-.572V9.291h-1.243V15h2.684c1.342 0 2.255-.737 2.255-1.969 0-1.221-.913-1.969-2.256-1.969h-1.44zM66.849 15h1.266V9.291H66.85V15zm-4.52-1.067v-1.815h1.297c.694 0 1.155.319 1.155.913 0 .594-.462.902-1.155.902H62.33zm9.414-5.203c.88 0 1.826-.462 1.826-1.65h-.98c0 .418-.252.825-.846.825s-.847-.407-.847-.825h-.99c0 1.188.946 1.65 1.837 1.65zm-1.53 4.521v-3.96h-1.242V15h1.155l3.102-3.894V15h1.243V9.291h-1.144l-3.113 3.96zm12.375-3.96h-4.653l-.088 3.553c-.011.726-.198.99-.396.99h-.737v2.398h1.144V15h4.334v1.232h1.144v-2.398h-.748V9.291zm-3.806 4.543c.11-.088.242-.396.264-1.067l.066-2.354h2.233v3.421h-2.563zm6.128-.583v-3.96h-1.243V15h1.155l3.102-3.894V15h1.243V9.291h-1.144l-3.113 3.96zm4.699 1.782c1.199.022 2.134-.693 2.134-2.277v-2.343h2.167V15h1.243V9.291h-4.631v3.443c0 .913-.462 1.155-.902 1.177l-.011 1.122zm9.064-5.863c-1.705 0-2.926 1.287-2.926 2.981 0 1.782 1.276 2.959 3.014 2.959 1.342 0 2.398-.814 2.706-1.837l-1.111-.121c-.242.495-.77.913-1.584.913-.946 0-1.683-.616-1.76-1.507h4.587c.055-2.178-1.188-3.388-2.926-3.388zm0 1.023c.935 0 1.595.605 1.628 1.408h-3.29c.067-.814.76-1.408 1.662-1.408zm6.925-1.012c-1.034 0-1.837.506-2.145 1.276v-.033l-.22-1.133h-1.045v8.239h1.265v-3.575c.429.748 1.221 1.166 2.079 1.166 1.76 0 2.871-1.265 2.871-2.959 0-1.65-1.067-2.981-2.805-2.981zm-.308 4.796c-1.067 0-1.837-.792-1.837-1.826 0-1.045.77-1.837 1.837-1.837 1.078 0 1.848.759 1.848 1.837 0 1.067-.77 1.826-1.848 1.826z"/></g></svg>