<svg width="38" height="40" fill="none" xmlns="http://www.w3.org/2000/svg"><g clip-path="url(#clip0_132_1058)"><mask id="a" style="mask-type:luminance" maskUnits="userSpaceOnUse" x="0" y="0" width="141" height="40"><path d="M140.488 0H0v40h140.488V0z" fill="#fff"/></mask><g mask="url(#a)"><path d="M.42.422l.42 23.133 18.134 15.599 18.087-15.56.42-23.172H.42z" fill="#222"/><path d="M0 0v23.979L18.974 40 37.9 24.017V0H0zm36.011 23.125L21.913 35.03l-2.94 2.48-2.94-2.48L1.937 23.125V1.885h34.075v21.24z" fill="#F7B827"/><path d="M22.11 5.695v23.666l-3.116 3.22-3.12-3.22v-2.535c1.155-.423 2.47-.896 2.47-.998V23.91h-2.487v-3.626c1.155-.423 2.47-.896 2.47-.993v-1.944h-2.47v-3.635c1.155-.422 2.47-.896 2.47-.997v-1.927h-2.47V5.716l6.254-.02zm-7.769 0H5.707v6.525l8.634-6.525zm9.245 0h8.634v6.525l-8.634-6.525z" fill="#F7B827"/><path opacity=".3" d="M22.11 9.79v2.91l-6.253 2.76v-1.745c1.155-.422 2.47-.896 2.47-.997V11.45l3.784-1.66z" fill="#222"/><path d="M24.138 10.72l-10.306 4.552v-2.908l10.306-4.552v2.908z" fill="#F7B827"/><path opacity=".3" d="M22.11 16.344v2.912l-6.253 2.76v-1.733c1.155-.423 2.47-.896 2.47-.994v-1.268l3.784-1.677z" fill="#222"/><path d="M24.138 17.279l-10.306 4.552v-2.912l10.306-4.552v2.912z" fill="#F7B827"/><path opacity=".3" d="M22.11 22.906v2.908l-6.253 2.76v-1.742c1.155-.422 2.47-.896 2.47-.997v-1.268l3.784-1.66z" fill="#222"/><path d="M24.138 23.837L13.832 28.39v-2.912l10.306-4.547v2.907z" fill="#F7B827"/></g></g><defs><clipPath id="clip0_132_1058"><path fill="#fff" d="M0 0h38v40H0z"/></clipPath></defs></svg>