<svg width="40" height="40" fill="none" xmlns="http://www.w3.org/2000/svg"><path fill="#F7B726" d="M0 0h40v40H0z"/><path d="M10.417 10l.217 12.194 9.378 8.223 9.354-8.203L29.583 10H10.417z" fill="#222"/><path d="M10 10v12.489l10.012 8.344L30 22.51V10H10zm19.003 12.044l-7.44 6.2-1.55 1.293-1.552-1.292-7.44-6.2V10.981h17.982v11.062z" fill="#CD8F01"/><path d="M21.667 12.917v12.47l-1.662 1.697-1.663-1.697V24.05c.616-.223 1.317-.472 1.317-.526v-1.01h-1.326v-1.911c.616-.223 1.317-.472 1.317-.524v-1.024h-1.317V17.14c.616-.223 1.317-.472 1.317-.525V15.6h-1.317v-2.672l3.334-.011zm-4.167 0h-4.583v3.333l4.583-3.333zm5 0h4.583v3.333L22.5 12.917z" fill="#F7B827"/><path opacity=".3" d="M21.667 15v1.497l-3.334 1.42v-.898c.616-.217 1.317-.46 1.317-.513v-.652L21.667 15z" fill="#222"/><path d="M22.917 15.629L17.5 17.917v-1.462l5.417-2.288v1.462z" fill="#F7B827"/><path opacity=".3" d="M21.667 18.333v1.712l-3.334 1.621v-1.018c.616-.248 1.317-.526 1.317-.584v-.745l2.017-.986z" fill="#222"/><path d="M22.917 18.963L17.5 21.25v-1.463l5.417-2.287v1.463z" fill="#F7B827"/><path opacity=".3" d="M21.667 22.083v1.497L18.333 25v-.896c.616-.218 1.317-.461 1.317-.514v-.652l2.017-.855z" fill="#222"/><path d="M22.917 22.457L17.5 25v-1.627l5.417-2.54v1.624z" fill="#F7B827"/></svg>