<svg width="24" height="24" fill="none" xmlns="http://www.w3.org/2000/svg"><g clip-path="url(#clip0_33_2135)" fill="#F7B726"><path d="M16.286 13.253h-1.125A.75.75 0 0114.625 12l.799-.799a.556.556 0 000-.795L13.598 8.58a.56.56 0 00-.796 0L12 9.375a.727.727 0 01-.806.131.716.716 0 01-.458-.652V7.729a.562.562 0 00-.562-.563H7.6a.563.563 0 00-.562.563v1.125a.75.75 0 01-1.264.521l-.799-.799a.581.581 0 00-.795 0l-1.826 1.82a.557.557 0 000 .794l.799.81a.727.727 0 01.139.788.72.72 0 01-.668.465H1.5a.562.562 0 00-.563.562V16.4a.563.563 0 00.563.562h1.125a.75.75 0 01.525 1.264l-.795.799a.56.56 0 000 .795l1.826 1.826a.559.559 0 00.795 0l.799-.799a.75.75 0 01.806-.13.72.72 0 01.458.66V22.5a.562.562 0 00.562.563h2.584a.562.562 0 00.563-.563v-1.125A.75.75 0 0112 20.846l.799.8a.559.559 0 00.795 0l1.826-1.827a.562.562 0 000-.795l-.795-.799a.727.727 0 01-.131-.806.715.715 0 01.652-.458h1.125a.563.563 0 00.563-.562v-2.584a.562.562 0 00-.548-.562zm-7.395 5.433a3.581 3.581 0 110-7.162 3.581 3.581 0 010 7.162zM15.11 5.314a3.57 3.57 0 00-2.359.896.563.563 0 10.75.84 2.456 2.456 0 013.45 3.45.566.566 0 00.045.795.567.567 0 00.795-.045 3.581 3.581 0 00-2.682-5.95v.015z"/><path d="M22.5 7.039h-1.125a.712.712 0 01-.653-.454v-.034a.72.72 0 01.143-.776l.798-.799a.562.562 0 000-.795l-1.845-1.826a.581.581 0 00-.795 0l-.798.799a.72.72 0 01-.777.142h-.033a.713.713 0 01-.454-.671V1.5a.562.562 0 00-.563-.563h-2.583a.563.563 0 00-.563.563v1.125a.713.713 0 01-.454.652h-.037A.716.716 0 0112 3.154l-.81-.799a.581.581 0 00-.795 0L8.568 4.181a.559.559 0 000 .795l.807.799a.562.562 0 00.795-.795l-.42-.401 1.03-1.031.402.4a1.845 1.845 0 002.014.376h.03a1.826 1.826 0 001.125-1.688v-.574h1.459v.563a1.83 1.83 0 001.125 1.684l.04.018a1.845 1.845 0 002.015-.374l.4-.402 1.032 1.031-.401.402a1.842 1.842 0 00-.375 2.013v.042a1.83 1.83 0 001.684 1.125h.607v1.459h-.562a1.826 1.826 0 00-1.688 1.125v.03a1.845 1.845 0 00.375 2.013l.401.402-1.042 1.057-.401-.412a.563.563 0 10-.795.787l.798.799a.562.562 0 00.795 0l1.827-1.826a.563.563 0 000-.796l-.8-.802a.717.717 0 01-.142-.75.39.39 0 000-.037.713.713 0 01.672-.465H22.5a.562.562 0 00.562-.563V7.601a.563.563 0 00-.562-.562z"/></g><defs><clipPath id="clip0_33_2135"><path fill="#fff" d="M0 0h24v24H0z"/></clipPath></defs></svg>