<svg width="24" height="24" fill="none" xmlns="http://www.w3.org/2000/svg"><g clip-path="url(#clip0_33_2129)" fill="#F7B726"><path d="M5.981 13a.963.963 0 00.963-.963V.963a.963.963 0 10-1.926 0v11.074a.963.963 0 00.963.963zm18.055 1.55a2.71 2.71 0 01-.155.098l-10.805 6.187a2.167 2.167 0 01-2.153 0L.119 14.648a2.28 2.28 0 01-.156-.098v1.855a1.204 1.204 0 00.592 1.037l10.833 6.391a1.203 1.203 0 001.223 0l10.834-6.391a1.204 1.204 0 00.591-1.037V14.55z"/><path d="M12.963 15.407a.963.963 0 01-1.926 0V.963a.963.963 0 011.926 0v14.444zM17.778 13a.963.963 0 00.963-.963V.963a.963.963 0 00-1.926 0v11.074a.963.963 0 00.963.963z"/><path d="M7.907 12.037a1.926 1.926 0 11-3.851 0V9.774L.605 11.719a1.204 1.204 0 00-.007 2.093L11.402 20a1.204 1.204 0 001.196 0l10.804-6.188a1.204 1.204 0 00-.007-2.093l-3.692-2.081v2.399a1.926 1.926 0 11-3.851 0v-4.57l-1.926-1.085v9.025a1.926 1.926 0 11-3.852 0V6.382l-2.167 1.22v4.435z"/></g><defs><clipPath id="clip0_33_2129"><path fill="#fff" d="M0 0h24v24H0z"/></clipPath></defs></svg>