<svg width="101" height="100" fill="none" xmlns="http://www.w3.org/2000/svg"><path d="M68.839 55.576h-23.12a.8.8 0 01-.769-1.02l4.534-15.866a.8.8 0 01.769-.58h18.586a.8.8 0 01.8.8v15.866a.8.8 0 01-.8.8zm-22.059-1.6h21.26V39.71H50.856L46.78 53.976zm-5.333 29.722a5.52 5.52 0 01-5.513-5.513 5.52 5.52 0 015.513-5.513 5.52 5.52 0 015.513 5.513 5.52 5.52 0 01-5.513 5.513zm0-9.426a3.918 3.918 0 00-3.913 3.913 3.918 3.918 0 003.913 3.913 3.918 3.918 0 003.913-3.913 3.918 3.918 0 00-3.913-3.913zm15.098 9.426a5.52 5.52 0 01-5.514-5.513 5.52 5.52 0 015.514-5.513 5.52 5.52 0 015.513 5.513 5.52 5.52 0 01-5.513 5.513zm0-9.426a3.918 3.918 0 00-3.914 3.913 3.918 3.918 0 003.914 3.913 3.918 3.918 0 003.913-3.913 3.918 3.918 0 00-3.913-3.913zm15.097 9.426a5.52 5.52 0 01-5.513-5.513 5.52 5.52 0 015.513-5.513 5.52 5.52 0 015.513 5.513 5.52 5.52 0 01-5.513 5.513zm0-9.426a3.918 3.918 0 00-3.913 3.913 3.918 3.918 0 003.913 3.913 3.918 3.918 0 003.913-3.913 3.918 3.918 0 00-3.913-3.913zm15.097 9.426a5.52 5.52 0 01-5.513-5.513 5.52 5.52 0 015.513-5.513 5.52 5.52 0 015.514 5.513 5.52 5.52 0 01-5.514 5.513zm0-9.426a3.918 3.918 0 00-3.913 3.913 3.918 3.918 0 003.913 3.913 3.918 3.918 0 003.914-3.913 3.918 3.918 0 00-3.914-3.913z" fill="#F7B726"/><path d="M92.046 69.26l.002-.025V50.91a4.872 4.872 0 00-4.866-4.866h-10.39V33.429a3.46 3.46 0 002.283-3.248 3.463 3.463 0 00-3.459-3.458H62.95a.8.8 0 100 1.6h12.667a1.86 1.86 0 011.859 1.858 1.86 1.86 0 01-1.128 1.709.792.792 0 00-.354-.086H45.685a.797.797 0 00-.525.2 1.86 1.86 0 01-1.496-1.822 1.86 1.86 0 011.858-1.86h7.616a.8.8 0 100-1.6h-7.616a3.462 3.462 0 00-3.458 3.46 3.462 3.462 0 002.54 3.33l-2.526 9.156-20.712-24.073a.793.793 0 00-.15-.132 6.564 6.564 0 00-6.554-6.398 6.565 6.565 0 00-6.558 6.557V38.11H5.93a.8.8 0 00-.8.8v6.253a.8.8 0 00.8.8h2.266v5.068a2.69 2.69 0 002.688 2.687 2.254 2.254 0 012.251 2.252 2.254 2.254 0 01-2.251 2.25 2.254 2.254 0 01-2.252-2.25 2.69 2.69 0 00-2.688-2.688 2.69 2.69 0 00-2.687 2.688c0 4.205 3.421 7.626 7.627 7.626 4.205 0 7.626-3.421 7.626-7.626 0-3.176-2.003-6.029-4.939-7.138v-2.87h2.266a.8.8 0 00.8-.8V38.91a.8.8 0 00-.8-.8h-1.885V25.14L36.75 62.324v6.688c-3.675 1.34-6.306 4.87-6.306 9.002v.343c0 5.281 4.297 9.578 9.579 9.578h48.143c5.282 0 9.58-4.297 9.58-9.578v-.343c0-3.9-2.346-7.262-5.699-8.754zM80.444 47.642v4.794a.8.8 0 101.6 0v-4.794h3.508v4.794a.8.8 0 101.6 0v-4.794h.03a3.27 3.27 0 013.266 3.266v10.39H76.793V47.642h3.65zM38.599 61.298l1.133-4.107L46.23 33.64h28.964v27.658H38.599zm2.967-16.772l-4.146 15.03-.153.553-21.476-35.028a6.577 6.577 0 005.141-4.537l20.634 23.982zM14.662 13.665a4.964 4.964 0 014.958 4.958 4.963 4.963 0 01-4.958 4.957 4.963 4.963 0 01-4.958-4.957 4.963 4.963 0 014.958-4.958zm-2.114 36.512a6.056 6.056 0 014.36 5.793 6.033 6.033 0 01-6.026 6.026 6.033 6.033 0 01-6.026-6.026c0-.6.488-1.088 1.087-1.088.6 0 1.088.488 1.088 1.088a3.856 3.856 0 003.852 3.851 3.855 3.855 0 003.85-3.851 3.856 3.856 0 00-3.85-3.852 1.089 1.089 0 01-1.088-1.087v-5.068h2.175v3.446a.8.8 0 00.579.769zm2.488-5.814H6.73V39.71h8.307v4.653zM9.704 38.11V22.908a6.581 6.581 0 002.647 1.85V38.11H9.704zm28.644 30.325v-5.537h52.1v5.537h-52.1zm57.796 9.922c0 4.4-3.58 7.978-7.979 7.978H40.021c-4.4 0-7.978-3.579-7.978-7.978v-.343c0-4.4 3.579-7.979 7.978-7.979h48.144c4.4 0 7.979 3.58 7.979 7.979v.343z" fill="#fff"/><path d="M57.279 28.323h1.839a.8.8 0 100-1.6h-1.839a.8.8 0 100 1.6z" fill="#fff"/></svg>