<svg width="22" height="22" fill="none" xmlns="http://www.w3.org/2000/svg"><g clip-path="url(#clip0_137_843)"><path d="M21.501 4.073a8.343 8.343 0 01-1.064.388 4.704 4.704 0 00.958-1.685.355.355 0 00-.52-.413 8.374 8.374 0 01-2.474.978 4.746 4.746 0 00-3.306-1.347 4.728 4.728 0 00-4.684 5.333 12.091 12.091 0 01-8.299-4.403.355.355 0 00-.582.046 4.72 4.72 0 00-.64 2.375c0 1.138.407 2.217 1.125 3.06a4 4 0 01-.632-.281.355.355 0 00-.528.302v.063a4.74 4.74 0 002.312 4.061c-.12-.012-.24-.03-.36-.052a.354.354 0 00-.404.457 4.721 4.721 0 003.46 3.165 8.355 8.355 0 01-4.466 1.275c-.335 0-.669-.02-1-.059a.355.355 0 00-.234.652 12.737 12.737 0 006.887 2.018c4.809 0 7.817-2.267 9.493-4.17 2.091-2.371 3.29-5.51 3.29-8.613 0-.13-.002-.26-.006-.39a9.182 9.182 0 002.113-2.238.355.355 0 00-.439-.522z" fill="#fff"/></g><defs><clipPath id="clip0_137_843"><path fill="#fff" d="M0 0h22v22H0z"/></clipPath></defs></svg>