<svg width="22" height="22" fill="none" xmlns="http://www.w3.org/2000/svg"><g clip-path="url(#clip0_137_835)"><path d="M19.506 9.971c.313-.404.562-.728.745-.973 1.321-1.757 1.894-2.879 1.718-3.368l-.069-.114c-.045-.07-.164-.132-.355-.19-.19-.057-.435-.066-.733-.028l-3.299.023a.94.94 0 00-.378.04c-.023.012-.042.02-.057.029l-.046.034a.508.508 0 00-.126.12.78.78 0 00-.114.2 18.681 18.681 0 01-1.226 2.578c-.282.474-.542.884-.779 1.231a5.882 5.882 0 01-.595.768c-.16.164-.306.296-.435.395-.13.1-.23.141-.298.126a5.621 5.621 0 01-.195-.046.755.755 0 01-.258-.28 1.256 1.256 0 01-.131-.447 4.827 4.827 0 01-.04-.464 9.248 9.248 0 01.005-.55c.008-.237.012-.397.012-.481 0-.29.006-.605.017-.945.011-.34.021-.61.029-.808.007-.198.011-.408.011-.63 0-.22-.013-.395-.04-.52a1.824 1.824 0 00-.12-.367.615.615 0 00-.235-.275 1.324 1.324 0 00-.384-.155c-.405-.092-.92-.14-1.546-.149-1.42-.015-2.333.077-2.738.275-.16.085-.306.199-.435.344-.138.168-.157.26-.057.275.458.069.782.233.973.492l.069.138c.053.1.107.275.16.527.054.252.088.53.103.836a8.899 8.899 0 010 1.432c-.038.397-.074.706-.108.927a1.852 1.852 0 01-.155.538 2.256 2.256 0 01-.137.253.203.203 0 01-.058.057.86.86 0 01-.309.057c-.107 0-.237-.053-.39-.16a2.71 2.71 0 01-.475-.441 5.855 5.855 0 01-.555-.785 13.61 13.61 0 01-.642-1.191l-.183-.332a28.116 28.116 0 01-.47-.934 17.876 17.876 0 01-.526-1.185.759.759 0 00-.275-.367l-.058-.034a.779.779 0 00-.183-.097 1.234 1.234 0 00-.263-.075l-3.139.023c-.32 0-.538.073-.653.218l-.045.068A.37.37 0 000 5.768c0 .084.023.187.069.309a37.806 37.806 0 001.495 3.115 35.08 35.08 0 001.403 2.417 28.41 28.41 0 001.214 1.73c.413.542.685.89.819 1.042.134.153.239.268.315.344L5.6 15c.183.183.453.403.808.659.355.256.748.507 1.18.755.431.249.933.45 1.506.608a5.19 5.19 0 001.672.189h1.317c.268-.023.47-.107.607-.252l.046-.058a.777.777 0 00.086-.211c.027-.096.04-.2.04-.315a3.771 3.771 0 01.075-.888c.057-.263.122-.462.195-.596a1.464 1.464 0 01.44-.504.912.912 0 01.092-.04c.183-.06.4-.002.647.178.249.18.482.4.7.664.217.264.478.56.784.888.305.328.572.572.802.733l.229.138c.152.091.35.175.595.252.245.076.459.095.642.057l2.932-.046c.29 0 .516-.048.676-.143.16-.095.256-.2.286-.315a.889.889 0 00.006-.39 1.424 1.424 0 00-.08-.303 1.554 1.554 0 00-.075-.143c-.382-.687-1.11-1.531-2.188-2.531l-.022-.023-.012-.012-.011-.01h-.012c-.489-.467-.798-.78-.927-.94-.237-.306-.29-.615-.16-.928.09-.237.434-.738 1.03-1.502z" fill="#fff"/></g><defs><clipPath id="clip0_137_835"><path fill="#fff" d="M0 0h22v22H0z"/></clipPath></defs></svg>