<svg width="169" height="74" fill="none" xmlns="http://www.w3.org/2000/svg"><path d="M51.648 41.705L44.025 29.33h-1.937l6.998 12.375-14.308 13.647h2.624l14.246-13.647zm1.187-1.157L46.212 29.33h8.372l2.624 4.164 4.312-4.164h2.999L52.835 40.548zM40.213 55.35l12.184-11.912 7.248 11.912h-2.437l-3.061-4.683-4.624 4.683h-9.31zM66.58 29.33L54.168 41.705l7.353 13.647h7.435c-2.478-2.063-7.924-7.751-6.81-13.647 1.124-5.957 7.414-10.736 10.809-12.375h-6.373z" fill="#fff"/><path d="M89.324 37.657l3.125-7.864c-2.187-.727-4.501-1.482-10.747-1.305-4.48.127-10.11 2.803-13.559 6.913-2.853 3.399-4.385 7.27-3 10.987 2.45 6.569 7.124 8.964 10.498 8.964h7.06l3-7.922c-7.998 1.792-11.435-3.99-7.81-8.212 2.898-3.377 8.83-2.448 11.433-1.561zM85.7 55.352l9.998-26.021h9.247l2.187 13.126 7.498-13.127h9.06l-.618 9.889c1.867-6.681 9.24-11.16 18.05-10.698 7.049.37 10.727 4.395 11.684 6.36l-8.497 3.702c-.334-.79-1.85-2.406-5.249-2.545-3.399-.138-5.04 2.872-5.436 4.395-.354 2.313-.425 6.64 3.374 7.658 3.799 1.018 5.77-.906 6.186-2.14h-5.061l.937-5.518h14.933c.5 4.24-1.127 13.794-12.808 14.919-12.872 1.24-17.495-5.524-18.466-10.466l-.654 10.466h-8.497V44.307l-6.436 11.045h-6.186l-1.437-11.045-3.811 11.045H85.7z" fill="#fff"/><path fill-rule="evenodd" clip-rule="evenodd" d="M32.586 31.586a2.843 2.843 0 00-2.84-2.846H7.795a2.843 2.843 0 00-2.84 2.846v21.399a2.843 2.843 0 002.84 2.846h21.95a2.843 2.843 0 002.841-2.846v-21.4zm-19.706.544h11.838l5.45 9.448c.253.44.253.983 0 1.424l-5.45 9.447h-5.991l8.822-15.138H10.052l8.647 15.138H12.88l-5.5-9.442a1.426 1.426 0 010-1.435l5.5-9.442z" fill="#fff"/><path d="M9.843 21.502c2.515 0 4.343-1.784 4.343-4.226 0-2.426-1.828-4.227-4.343-4.227-2.5 0-4.343 1.8-4.343 4.227 0 2.442 1.844 4.226 4.343 4.226zm0-1.612c-1.484 0-2.608-1.127-2.608-2.614 0-1.503 1.124-2.614 2.608-2.614 1.5 0 2.61 1.111 2.61 2.614 0 1.487-1.11 2.614-2.61 2.614zm14.513-2.63c0-2.348-1.672-4.07-4.125-4.164v-3.49H18.56v3.49c-2.421.094-4.093 1.863-4.093 4.164 0 2.317 1.672 4.117 4.093 4.211v3.475h1.672v-3.475c2.452-.094 4.124-1.831 4.124-4.21zm-8.249 0c0-1.487.985-2.598 2.453-2.692v5.4c-1.468-.11-2.453-1.236-2.453-2.708zm4.125-2.692c1.5.094 2.483 1.236 2.483 2.692 0 1.503-.984 2.614-2.483 2.708v-5.4zm6.556 4.289v-5.635h-1.765v8.124h1.64l4.405-5.542v5.542h1.765v-8.124H31.21l-4.421 5.635zm14.78-5.635h-1.765v6.527h-3.968v-6.527H34.07v8.124h6.92v1.753h1.625v-3.413h-1.047v-6.464zm3.299 5.635v-5.635h-1.765v8.124h1.64l4.405-5.542v5.542h1.766v-8.124h-1.625l-4.421 5.635zM58.82 14.77v-.062c-.625-1.065-1.75-1.66-2.969-1.66-2.5 0-4.077 1.8-4.077 4.211 0 2.348 1.515 4.242 3.984 4.242 1.484 0 2.609-.704 3.062-1.816v1.66h1.796v-8.124h-1.515l-.281 1.55zm-2.61 5.119c-1.53 0-2.624-1.08-2.624-2.614 0-1.519 1.094-2.599 2.625-2.599 1.515 0 2.593 1.127 2.593 2.599 0 1.487-1.078 2.614-2.593 2.614zm5.033 1.503c1.703.031 3.03-.986 3.03-3.24v-3.335h3.078v6.528h1.765v-8.124H62.54v4.9c0 1.298-.657 1.643-1.281 1.674l-.016 1.597zm10.857-5.65v-2.52h-1.765v8.124h3.812c1.906 0 3.202-1.049 3.202-2.802 0-1.738-1.296-2.802-3.202-2.802H72.1zm0 4.085v-2.583h1.844c.984 0 1.64.454 1.64 1.3 0 .845-.656 1.283-1.64 1.283H72.1zm11.645-3.271h-4.077V13.22h-1.766v8.125h1.766v-3.24h4.077v3.24h1.765v-8.124h-1.765v3.334zm4.772-.814v-2.52H86.75v8.124h3.812c1.906 0 3.203-1.049 3.203-2.802 0-1.738-1.297-2.802-3.203-2.802h-2.046zm6.42 5.604h1.797v-8.124h-1.797v8.124zm-6.42-1.519v-2.583h1.843c.984 0 1.64.454 1.64 1.3 0 .845-.656 1.283-1.64 1.283h-1.843zm13.369-7.404c1.25 0 2.594-.657 2.594-2.348h-1.391c0 .595-.359 1.174-1.203 1.174-.843 0-1.202-.58-1.202-1.174h-1.406c0 1.69 1.343 2.348 2.608 2.348zm-2.171 6.434v-5.635H97.95v8.124h1.64l4.405-5.542v5.542h1.766v-8.124h-1.625l-4.421 5.635zm17.573-5.635h-6.608l-.125 5.056c-.015 1.033-.281 1.409-.562 1.409h-1.047v3.412h1.625v-1.753h6.155v1.753h1.624v-3.413h-1.062v-6.464zm-5.405 6.464c.156-.125.344-.563.375-1.518l.094-3.35h3.171v4.868h-3.64zm8.704-.83v-5.635h-1.766v8.125h1.641l4.405-5.542v5.542h1.765v-8.124h-1.624l-4.421 5.635zm6.672 2.537c1.703.031 3.031-.986 3.031-3.24v-3.335h3.077v6.528h1.766v-8.124h-6.577v4.9c0 1.298-.656 1.643-1.281 1.674l-.016 1.597zm12.873-8.344c-2.422 0-4.156 1.832-4.156 4.242 0 2.536 1.813 4.211 4.281 4.211 1.906 0 3.406-1.158 3.843-2.614l-1.578-.172c-.344.704-1.094 1.3-2.25 1.3-1.343 0-2.39-.877-2.499-2.145h6.514c.079-3.1-1.687-4.822-4.155-4.822zm0 1.456c1.328 0 2.265.861 2.312 2.004h-4.671c.094-1.159 1.078-2.004 2.359-2.004zm9.835-1.44c-1.469 0-2.609.72-3.047 1.816v-.047l-.312-1.612h-1.484v11.724h1.796V19.86c.61 1.064 1.734 1.659 2.953 1.659 2.499 0 4.077-1.8 4.077-4.21 0-2.349-1.515-4.243-3.983-4.243zm-.438 6.825c-1.515 0-2.609-1.127-2.609-2.599 0-1.487 1.094-2.614 2.609-2.614 1.531 0 2.625 1.08 2.625 2.614 0 1.519-1.094 2.599-2.625 2.599z" fill="#fff"/></svg>